<svg width="240" height="240" viewBox="0 0 240 240" fill="none" xmlns="http://www.w3.org/2000/svg">
<path d="M56.2564 154.066C56.3452 153.879 56.4316 153.694 56.518 153.507C56.3284 153.495 56.1388 153.478 55.9492 153.459C56.0548 153.661 56.1604 153.862 56.2564 154.066Z" fill="url(#paint0_linear_401_37760)"/>
<path d="M165.6 162.822C164.674 162.807 164.674 161.367 165.6 161.382C166.62 161.4 167.639 161.335 168.648 161.187V115.076C168.648 111.766 167.333 108.592 164.993 106.251C162.652 103.911 159.478 102.596 156.168 102.596C152.858 102.596 149.684 103.911 147.343 106.251C145.003 108.592 143.688 111.766 143.688 115.076V142.582C145.307 142.971 146.777 143.825 147.917 145.038C148.048 145.174 148.122 145.357 148.122 145.546C148.122 145.736 148.048 145.918 147.917 146.055C147.782 146.19 147.599 146.266 147.408 146.266C147.217 146.266 147.034 146.19 146.899 146.055C146.753 145.899 146.602 145.75 146.446 145.606C146.366 145.534 146.287 145.465 146.206 145.398L146.095 145.306L146.033 145.256C145.716 145.019 145.381 144.805 145.032 144.618C144.842 144.517 144.653 144.423 144.458 144.337H144.432L144.3 144.284C144.202 144.246 144.101 144.21 144 144.176C143.899 144.142 143.791 144.116 143.688 144.085V145.611C143.687 148.4 142.651 151.09 140.781 153.159C138.911 155.228 136.339 156.53 133.565 156.812C133.565 157.412 133.579 158.012 133.606 158.612C133.606 158.803 133.53 158.986 133.395 159.121C133.26 159.256 133.076 159.332 132.886 159.332C132.696 159.328 132.515 159.251 132.381 159.117C132.246 158.983 132.169 158.802 132.166 158.612C132.139 158.029 132.127 157.446 132.125 156.862C130.106 156.811 128.138 156.215 126.43 155.137C125.192 156.013 123.734 156.523 122.22 156.608C122.029 156.608 121.846 156.532 121.711 156.397C121.576 156.262 121.5 156.079 121.5 155.888C121.5 155.697 121.576 155.514 121.711 155.379C121.846 155.244 122.029 155.168 122.22 155.168C122.38 155.158 122.548 155.144 122.724 155.125L122.911 155.094L123.151 155.048C123.486 154.976 123.816 154.88 124.138 154.762C124.211 154.737 124.286 154.708 124.361 154.676C124.44 154.645 124.445 154.642 124.378 154.676L124.502 154.621C124.668 154.544 124.831 154.46 124.982 154.381C125.054 154.342 125.124 154.297 125.196 154.254C123.934 153.199 122.919 151.879 122.223 150.389C121.527 148.898 121.167 147.273 121.169 145.628V114.57L119.124 113.173C118.596 112.81 118.078 112.429 117.528 112.098C117.127 111.858 116.64 111.591 116.155 111.69C115.971 111.74 115.774 111.716 115.608 111.621C115.442 111.527 115.32 111.37 115.27 111.186C115.219 111.001 115.244 110.805 115.338 110.638C115.433 110.472 115.589 110.351 115.774 110.3C117.235 110.002 118.426 110.953 119.561 111.74L121.169 112.839V102.147C120.963 102.18 120.762 102.232 120.566 102.303C120.473 102.332 120.374 102.341 120.277 102.33C120.179 102.32 120.085 102.289 120 102.241C119.837 102.146 119.718 101.991 119.669 101.809C119.62 101.622 119.646 101.423 119.741 101.254C119.84 101.097 119.992 100.979 120.17 100.923C120.489 100.811 120.82 100.74 121.157 100.71V28.9496C121.157 27.4264 120.968 25.9091 120.593 24.4328C119.848 25.0944 119.028 25.6656 118.15 26.1344C117.984 26.2269 117.789 26.2517 117.606 26.2039C117.423 26.156 117.265 26.0391 117.166 25.8776C117.118 25.796 117.086 25.7057 117.073 25.612C117.06 25.5182 117.065 25.4228 117.089 25.3312C117.113 25.2395 117.155 25.1535 117.212 25.078C117.269 25.0025 117.341 24.939 117.422 24.8912C117.958 24.6107 118.471 24.2898 118.958 23.9312C118.987 23.9096 119.018 23.888 119.045 23.864L119.218 23.7296C119.335 23.6312 119.458 23.5328 119.568 23.4296C119.76 23.2616 119.945 23.0816 120.125 22.8992C119.559 21.2843 118.768 19.7572 117.775 18.3632C116.762 19.6018 115.815 20.8932 114.938 22.232C114.839 22.3941 114.681 22.5116 114.497 22.5599C114.313 22.6082 114.118 22.5836 113.952 22.4912C113.87 22.4434 113.799 22.3799 113.742 22.3044C113.685 22.2289 113.643 22.1429 113.619 22.0513C113.595 21.9597 113.59 21.8642 113.603 21.7705C113.616 21.6767 113.647 21.5864 113.695 21.5048C114.672 20.0058 115.734 18.5634 116.875 17.1848C116.53 16.7744 116.17 16.376 115.793 15.9848C112.452 12.6404 107.945 10.7218 103.219 10.6328C103.219 10.712 103.219 10.7912 103.219 10.8728C103.231 11.1536 103.248 11.4344 103.277 11.7128C103.289 11.8544 103.306 11.996 103.325 12.1376C103.325 12.1664 103.325 12.1952 103.337 12.2264L103.373 12.4664C103.418 12.6502 103.392 12.8445 103.299 13.0093C103.205 13.1741 103.052 13.2967 102.871 13.352C102.78 13.3771 102.685 13.384 102.591 13.3723C102.497 13.3606 102.406 13.3304 102.324 13.2836C102.242 13.2368 102.169 13.1742 102.111 13.0995C102.053 13.0247 102.011 12.9393 101.986 12.848C101.865 12.125 101.796 11.3944 101.779 10.6616C98.8886 10.8273 96.0786 11.6767 93.5803 13.1399C91.0819 14.6031 88.9665 16.6384 87.4079 19.0784L91.6799 21.5864C92.4791 22.0664 91.7543 23.3 90.9599 22.8296L86.6903 20.3096C85.2698 22.9626 84.5278 25.9258 84.5303 28.9352V120.67C84.5303 123.449 83.4264 126.115 81.4613 128.08C79.4962 130.045 76.831 131.149 74.0519 131.149C71.2729 131.149 68.6077 130.045 66.6426 128.08C64.6775 126.115 63.5735 123.449 63.5735 120.67V116.312L62.8967 116.773C62.733 116.853 62.5448 116.869 62.3702 116.816C62.1956 116.763 62.0476 116.645 61.9562 116.487C61.8648 116.33 61.8367 116.143 61.8776 115.965C61.9186 115.787 62.0255 115.632 62.1767 115.53L63.5783 114.57V102.759H63.5591C62.7638 102.477 61.9488 102.254 61.1207 102.092C61.0295 102.067 60.944 102.024 60.8693 101.966C60.7945 101.908 60.732 101.836 60.6851 101.754C60.6383 101.671 60.6082 101.581 60.5965 101.487C60.5847 101.393 60.5916 101.298 60.6167 101.206C60.6689 101.027 60.7873 100.873 60.9479 100.777C61.1172 100.684 61.315 100.659 61.5023 100.705C62.2052 100.842 62.8986 101.024 63.5783 101.25V100.321C63.5367 97.5689 62.4143 94.9438 60.4535 93.0125C58.4927 91.0812 55.851 89.9986 53.0987 89.9986C50.3465 89.9986 47.7048 91.0812 45.744 93.0125C43.7832 94.9438 42.6608 97.5689 42.6191 100.321V116.115C43.1543 116.242 43.6895 116.382 44.2199 116.533C44.4042 116.584 44.5607 116.706 44.655 116.872C44.7493 117.038 44.7737 117.235 44.7227 117.42C44.6718 117.604 44.5498 117.76 44.3835 117.855C44.2172 117.949 44.0202 117.973 43.8359 117.922C43.4327 117.807 43.0271 117.698 42.6191 117.596V138.757C42.6192 142.525 44.0585 146.15 46.6428 148.893C49.227 151.635 52.761 153.286 56.5223 153.51C57.2407 151.958 57.9199 150.388 58.5599 148.801C58.6147 148.619 58.7372 148.466 58.902 148.372C59.0669 148.278 59.2615 148.251 59.4455 148.297C59.7911 148.393 60.0959 148.822 59.9495 149.185C59.3559 150.647 58.7327 152.096 58.0799 153.531H75.3167C77.761 153.531 80.1051 154.502 81.8334 156.231C83.5618 157.959 84.5327 160.303 84.5327 162.747V228.202H121.164V211.402C119.693 211.918 118.178 212.331 116.683 212.73C115.786 212.97 115.406 211.58 116.299 211.34C117.931 210.906 119.58 210.462 121.164 209.869V194.917C121.164 193.446 121.453 191.99 122.016 190.632C122.578 189.273 123.403 188.038 124.442 186.998C125.482 185.959 126.716 185.134 128.075 184.571C129.433 184.008 130.889 183.718 132.36 183.718H153.864C157.783 183.718 161.542 182.16 164.314 179.389C167.085 176.617 168.643 172.859 168.643 168.939V162.644C167.635 162.78 166.617 162.839 165.6 162.822ZM51.4847 100.342C51.3201 100.439 51.1241 100.466 50.9397 100.417C50.7552 100.369 50.5973 100.25 50.5007 100.086C49.8525 99.0307 49.3351 97.9008 48.9599 96.7208C48.9154 96.5389 48.9434 96.3468 49.0381 96.1853C49.1328 96.0237 49.2867 95.9054 49.4671 95.8555C49.6476 95.8055 49.8405 95.8278 50.0048 95.9177C50.169 96.0076 50.2919 96.1579 50.3471 96.3368C50.4359 96.6176 50.5319 96.8936 50.6375 97.1672C50.6879 97.2944 50.7335 97.424 50.7911 97.5488L50.8343 97.6448C50.8607 97.7096 50.8895 97.7696 50.9183 97.832C51.1588 98.357 51.4313 98.8668 51.7343 99.3584C51.8311 99.5221 51.8592 99.7175 51.8125 99.9019C51.7657 100.086 51.6479 100.245 51.4847 100.342ZM65.7287 146.024C65.6325 146.189 65.4749 146.309 65.2904 146.357C65.1059 146.406 64.9096 146.379 64.7447 146.283L62.4239 144.922C62.2672 144.823 62.1551 144.666 62.1109 144.486C62.0667 144.306 62.0939 144.115 62.1868 143.954C62.2798 143.794 62.4312 143.675 62.6096 143.623C62.7879 143.572 62.9794 143.591 63.1439 143.677L65.4647 145.04C65.5467 145.087 65.6186 145.15 65.6762 145.225C65.7339 145.3 65.7762 145.386 65.8007 145.477C65.8252 145.569 65.8315 145.664 65.8191 145.758C65.8068 145.852 65.7761 145.942 65.7287 146.024ZM65.8511 140.55C65.5991 140.79 65.0735 140.854 64.8335 140.55C63.4083 138.745 62.0992 136.852 60.9143 134.881C60.4343 134.084 61.6799 133.362 62.1575 134.161C63.2745 136.026 64.5082 137.818 65.8511 139.527C65.9829 139.665 66.0564 139.848 66.0564 140.038C66.0564 140.229 65.9829 140.412 65.8511 140.55ZM75.7463 144.589C75.5801 144.681 75.3849 144.705 75.2013 144.657C75.0176 144.608 74.8596 144.491 74.7599 144.33L71.8247 140.401C71.5847 140.079 71.7839 139.609 72.0815 139.417C72.2475 139.325 72.4425 139.3 72.6261 139.348C72.8097 139.396 72.9679 139.512 73.0679 139.674L76.0055 143.6C76.2455 143.926 76.0439 144.397 75.7463 144.589ZM83.7071 137.535C83.4283 138.772 83.0263 139.978 82.5071 141.135C82.3439 141.502 81.8375 141.56 81.5231 141.394C81.3621 141.295 81.2455 141.137 81.1973 140.954C81.1491 140.771 81.1729 140.576 81.2639 140.41C81.2999 140.331 81.3335 140.252 81.3671 140.17L81.3815 140.139L81.3959 140.106C81.4535 139.966 81.5087 139.827 81.5615 139.686C81.6671 139.414 81.7631 139.141 81.8543 138.865C82.0367 138.303 82.1919 137.733 82.3199 137.154C82.3709 136.969 82.4929 136.813 82.6592 136.719C82.8255 136.624 83.0225 136.6 83.2067 136.651C83.391 136.702 83.5475 136.824 83.6418 136.99C83.7361 137.156 83.7605 137.353 83.7095 137.538L83.7071 137.535ZM113.606 91.9208L119.126 86.5904C119.794 85.9448 120.806 86.9624 120.146 87.608L114.626 92.9384C113.959 93.572 112.939 92.5544 113.606 91.9208ZM109.56 31.2008C110.047 29.7002 110.427 28.1667 110.695 26.612C110.765 26.216 111.23 26.0288 111.581 26.108C111.762 26.1628 111.916 26.2854 112.009 26.4503C112.102 26.6152 112.129 26.8098 112.082 26.9936C111.813 28.5487 111.435 30.0829 110.95 31.5848C110.895 31.7666 110.773 31.9204 110.608 32.0139C110.443 32.1074 110.248 32.1334 110.064 32.0864C109.973 32.0614 109.887 32.0187 109.812 31.9606C109.738 31.9026 109.675 31.8304 109.628 31.7481C109.582 31.6658 109.551 31.5752 109.54 31.4813C109.528 31.3874 109.535 31.2921 109.56 31.2008ZM108.6 98.3504C108.784 98.2996 108.98 98.3239 109.147 98.4179C109.313 98.512 109.435 98.6681 109.486 98.852C109.804 100.353 110.227 101.829 110.753 103.27C110.778 103.362 110.785 103.457 110.773 103.551C110.761 103.645 110.731 103.735 110.684 103.818C110.638 103.9 110.575 103.972 110.5 104.03C110.425 104.088 110.34 104.131 110.249 104.156C110.065 104.203 109.87 104.177 109.705 104.083C109.54 103.99 109.417 103.836 109.363 103.654C108.838 102.213 108.415 100.737 108.096 99.236C108.048 99.0512 108.075 98.8552 108.169 98.6894C108.264 98.5237 108.419 98.4012 108.602 98.348L108.6 98.3504ZM106.92 149.595L109.37 154.374C109.426 154.455 109.463 154.548 109.481 154.645C109.499 154.742 109.497 154.841 109.475 154.938C109.453 155.034 109.411 155.124 109.353 155.204C109.294 155.283 109.22 155.35 109.134 155.399C109.049 155.449 108.954 155.48 108.856 155.491C108.758 155.503 108.659 155.494 108.564 155.465C108.47 155.436 108.382 155.389 108.307 155.325C108.232 155.261 108.171 155.182 108.127 155.094L105.672 150.32C105.617 150.238 105.579 150.146 105.561 150.049C105.543 149.952 105.545 149.852 105.567 149.756C105.589 149.66 105.631 149.569 105.69 149.49C105.748 149.41 105.823 149.344 105.908 149.294C105.993 149.245 106.088 149.214 106.186 149.202C106.284 149.191 106.384 149.2 106.478 149.229C106.572 149.257 106.66 149.305 106.735 149.369C106.81 149.433 106.872 149.511 106.915 149.6L106.92 149.595ZM105.425 131.689C105.234 131.689 105.051 131.613 104.916 131.478C104.781 131.343 104.705 131.16 104.705 130.969C104.705 130.849 104.683 130.729 104.669 130.606C104.62 130.276 104.548 129.95 104.453 129.63C104.4 129.459 104.34 129.291 104.273 129.123V129.094C104.256 129.063 104.242 129.03 104.227 128.996C104.189 128.912 104.148 128.828 104.105 128.756C104.013 128.59 103.989 128.395 104.037 128.211C104.085 128.027 104.202 127.869 104.364 127.77C104.446 127.722 104.536 127.69 104.63 127.678C104.724 127.665 104.819 127.67 104.911 127.694C105.003 127.719 105.089 127.76 105.164 127.818C105.239 127.875 105.303 127.947 105.35 128.029C105.816 128.947 106.09 129.951 106.154 130.978C106.153 131.073 106.133 131.167 106.095 131.254C106.057 131.341 106.002 131.419 105.934 131.485C105.866 131.551 105.785 131.602 105.697 131.637C105.609 131.672 105.515 131.688 105.42 131.686L105.425 131.689ZM103.87 83.8328C104.009 83.7047 104.189 83.6306 104.378 83.624C104.569 83.6253 104.751 83.7001 104.887 83.8328L105.79 84.7712C105.92 84.9091 105.995 85.0902 106.001 85.28C105.999 85.4706 105.923 85.653 105.79 85.7888C105.65 85.9164 105.47 85.9911 105.281 86C105.09 85.9998 104.907 85.9239 104.772 85.7888L103.87 84.8528C103.739 84.7147 103.664 84.5337 103.658 84.344C103.659 84.1526 103.732 83.9687 103.865 83.8304L103.87 83.8328ZM97.1495 45.0008C97.7549 47.0272 98.5664 48.9862 99.5711 50.8472C100.013 51.6632 98.7695 52.3904 98.3279 51.5672C97.263 49.597 96.4025 47.523 95.7599 45.3776C95.4767 44.4896 96.8687 44.1128 97.1327 44.9984L97.1495 45.0008ZM99.6359 134.47C98.6042 135.763 97.425 136.93 96.1223 137.948C95.9847 138.078 95.8027 138.15 95.6135 138.15C95.4244 138.15 95.2424 138.078 95.1047 137.948C94.9699 137.813 94.8942 137.63 94.8942 137.439C94.8942 137.248 94.9699 137.065 95.1047 136.93C96.4021 135.907 97.5757 134.736 98.6015 133.441C98.8535 133.126 99.3599 133.201 99.6191 133.441C99.7523 133.579 99.8267 133.763 99.8267 133.954C99.8267 134.146 99.7523 134.33 99.6191 134.468L99.6359 134.47ZM101.395 125.487C101.26 125.622 101.077 125.698 100.886 125.698C100.696 125.698 100.513 125.622 100.378 125.487L98.6711 123.394C98.5439 123.255 98.47 123.074 98.4623 122.886C98.4619 122.695 98.537 122.512 98.6711 122.377C98.8078 122.243 98.991 122.167 99.1823 122.166C99.3732 122.166 99.5562 122.242 99.6911 122.377C100.261 123.074 100.829 123.772 101.395 124.47C101.523 124.609 101.598 124.789 101.606 124.978C101.604 125.074 101.582 125.168 101.543 125.254C101.504 125.341 101.448 125.42 101.378 125.485L101.395 125.487ZM101.282 42.0152C101.098 42.0602 100.904 42.0331 100.739 41.9394C100.575 41.8457 100.452 41.6925 100.397 41.5112C99.4158 39.0429 98.5619 36.526 97.8383 33.9704C97.5839 33.0752 98.9759 32.6984 99.2279 33.5888C99.9437 36.1429 100.789 38.6589 101.76 41.1272C101.811 41.3102 101.788 41.506 101.695 41.6718C101.603 41.8377 101.448 41.9603 101.266 42.0128L101.282 42.0152ZM102.002 144.082C102.669 143.118 103.248 142.096 103.73 141.027C103.896 140.66 104.4 140.602 104.714 140.768C104.876 140.867 104.993 141.025 105.041 141.208C105.089 141.391 105.065 141.586 104.974 141.752C104.491 142.821 103.913 143.845 103.246 144.81C103.145 144.971 102.987 145.087 102.804 145.136C102.62 145.184 102.426 145.16 102.259 145.069C102.175 145.023 102.101 144.961 102.041 144.887C101.981 144.812 101.936 144.726 101.91 144.634C101.883 144.542 101.876 144.445 101.887 144.35C101.898 144.255 101.929 144.163 101.976 144.08L102.002 144.082ZM105.955 158.439L103.26 160.892C103.123 161.022 102.94 161.095 102.751 161.095C102.562 161.095 102.38 161.022 102.242 160.892C102.175 160.825 102.122 160.746 102.086 160.658C102.049 160.571 102.031 160.477 102.031 160.382C102.031 160.287 102.049 160.193 102.086 160.106C102.122 160.018 102.175 159.939 102.242 159.872L104.938 157.422C105.075 157.291 105.257 157.218 105.446 157.218C105.636 157.218 105.818 157.291 105.955 157.422C106.086 157.56 106.156 157.744 106.151 157.935C106.146 158.125 106.066 158.305 105.929 158.437L105.955 158.439ZM114.624 190.736C114.37 190.99 113.849 191.041 113.606 190.736C111.844 188.534 109.888 186.494 107.76 184.642C107.625 184.507 107.549 184.324 107.549 184.134C107.549 183.943 107.625 183.76 107.76 183.625C107.897 183.494 108.079 183.422 108.269 183.422C108.458 183.422 108.64 183.494 108.778 183.625C110.909 185.475 112.869 187.515 114.634 189.718C114.763 189.857 114.834 190.04 114.833 190.229C114.831 190.419 114.756 190.6 114.624 190.736ZM136.183 168.858C135.999 168.903 135.805 168.877 135.64 168.784C135.475 168.69 135.353 168.537 135.298 168.356C134.696 166.695 134.32 164.961 134.177 163.201C134.177 163.01 134.253 162.827 134.388 162.692C134.523 162.557 134.706 162.481 134.897 162.481C135.086 162.486 135.266 162.563 135.4 162.697C135.534 162.831 135.612 163.011 135.617 163.201C135.761 164.832 136.121 166.438 136.687 167.974C136.737 168.158 136.712 168.355 136.618 168.52C136.523 168.686 136.367 168.807 136.183 168.858ZM142.032 176.014C141.897 176.149 141.714 176.225 141.523 176.225C141.332 176.225 141.149 176.149 141.014 176.014C139.96 174.9 139.103 173.613 138.48 172.21C138.389 172.045 138.365 171.85 138.413 171.667C138.461 171.485 138.577 171.327 138.737 171.226C138.818 171.179 138.909 171.147 139.003 171.134C139.097 171.121 139.192 171.127 139.284 171.151C139.375 171.175 139.461 171.217 139.537 171.275C139.612 171.332 139.675 171.404 139.723 171.486C140.015 172.148 140.362 172.786 140.76 173.391C140.858 173.542 140.962 173.691 141.067 173.838C141.122 173.917 141.18 173.994 141.238 174.078L141.259 174.104L141.322 174.183C141.547 174.466 141.787 174.74 142.042 175.004C142.17 175.142 142.24 175.323 142.238 175.511C142.236 175.699 142.163 175.879 142.032 176.014ZM157.68 181.472C157.515 181.568 157.319 181.595 157.134 181.546C156.95 181.497 156.792 181.378 156.696 181.213L154.92 178.052C154.827 177.886 154.802 177.691 154.851 177.508C154.899 177.324 155.017 177.166 155.179 177.068C155.344 176.972 155.54 176.945 155.725 176.994C155.909 177.043 156.067 177.162 156.163 177.327L157.939 180.488C158.032 180.654 158.057 180.849 158.008 181.032C157.96 181.216 157.842 181.374 157.68 181.472Z" fill="url(#paint1_linear_401_37760)"/>
<path d="M90.2259 120.903C90.0349 120.903 89.8518 120.828 89.7168 120.693C89.5817 120.558 89.5059 120.374 89.5059 120.183V38.5618C89.5059 38.3709 89.5817 38.1877 89.7168 38.0527C89.8518 37.9177 90.0349 37.8418 90.2259 37.8418C90.4168 37.8418 90.6 37.9177 90.735 38.0527C90.87 38.1877 90.9459 38.3709 90.9459 38.5618V120.183C90.9459 120.374 90.87 120.558 90.735 120.693C90.6 120.828 90.4168 120.903 90.2259 120.903ZM97.0275 106.011C96.8365 106.011 96.6534 105.936 96.5184 105.801C96.3833 105.666 96.3075 105.482 96.3075 105.291V93.5314C96.3075 93.3405 96.3833 93.1573 96.5184 93.0223C96.6534 92.8873 96.8365 92.8114 97.0275 92.8114C97.2184 92.8114 97.4016 92.8873 97.5366 93.0223C97.6716 93.1573 97.7475 93.3405 97.7475 93.5314V105.291C97.7475 105.482 97.6716 105.666 97.5366 105.801C97.4016 105.936 97.2184 106.011 97.0275 106.011ZM97.2003 75.6802C97.0093 75.6802 96.8262 75.6044 96.6912 75.4694C96.5561 75.3343 96.4803 75.1512 96.4803 74.9602V69.0778C96.4803 68.8869 96.5561 68.7037 96.6912 68.5687C96.8262 68.4337 97.0093 68.3578 97.2003 68.3578C97.3912 68.3578 97.5744 68.4337 97.7094 68.5687C97.8444 68.7037 97.9203 68.8869 97.9203 69.0778V74.9602C97.9203 75.1512 97.8444 75.3343 97.7094 75.4694C97.5744 75.6044 97.3912 75.6802 97.2003 75.6802ZM113.76 46.2682C113.569 46.2682 113.386 46.1924 113.251 46.0574C113.116 45.9223 113.04 45.7392 113.04 45.5482V37.4602C113.04 37.2693 113.116 37.0861 113.251 36.9511C113.386 36.8161 113.569 36.7402 113.76 36.7402C113.951 36.7402 114.134 36.8161 114.269 36.9511C114.404 37.0861 114.48 37.2693 114.48 37.4602V45.5482C114.48 45.7392 114.404 45.9223 114.269 46.0574C114.134 46.1924 113.951 46.2682 113.76 46.2682ZM114.48 69.0634C114.289 69.0634 114.106 68.9876 113.971 68.8526C113.836 68.7175 113.76 68.5344 113.76 68.3434V52.5322C113.76 52.3413 113.836 52.1581 113.971 52.0231C114.106 51.8881 114.289 51.8122 114.48 51.8122C114.671 51.8122 114.854 51.8881 114.989 52.0231C115.124 52.1581 115.2 52.3413 115.2 52.5322V68.3434C115.2 68.5344 115.124 68.7175 114.989 68.8526C114.854 68.9876 114.671 69.0634 114.48 69.0634ZM108.055 52.1506C107.865 52.1506 107.681 52.0748 107.546 51.9397C107.411 51.8047 107.335 51.6216 107.335 51.4306V40.585C107.335 40.3941 107.411 40.2109 107.546 40.0759C107.681 39.9409 107.865 39.865 108.055 39.865C108.246 39.865 108.43 39.9409 108.565 40.0759C108.7 40.2109 108.775 40.3941 108.775 40.585V51.4306C108.775 51.6216 108.7 51.8047 108.565 51.9397C108.43 52.0748 108.246 52.1506 108.055 52.1506ZM94.6371 219.068C94.4461 219.068 94.263 218.992 94.128 218.857C93.9929 218.722 93.9171 218.539 93.9171 218.348V158.051C93.9171 157.86 93.9929 157.677 94.128 157.542C94.263 157.406 94.4461 157.331 94.6371 157.331C94.828 157.331 95.0112 157.406 95.1462 157.542C95.2812 157.677 95.3571 157.86 95.3571 158.051V218.348C95.3571 218.539 95.2812 218.722 95.1462 218.857C95.0112 218.992 94.828 219.068 94.6371 219.068ZM102.91 211.715C102.719 211.715 102.536 211.639 102.401 211.504C102.266 211.369 102.19 211.186 102.19 210.995V192.98C102.19 192.789 102.266 192.606 102.401 192.471C102.536 192.336 102.719 192.26 102.91 192.26C103.101 192.26 103.284 192.336 103.419 192.471C103.554 192.606 103.63 192.789 103.63 192.98V210.995C103.63 211.186 103.554 211.369 103.419 211.504C103.284 211.639 103.101 211.715 102.91 211.715ZM88.5603 190.573C88.3693 190.573 88.1862 190.497 88.0512 190.362C87.9161 190.227 87.8403 190.044 87.8403 189.853V186.179C87.8403 185.988 87.9161 185.805 88.0512 185.67C88.1862 185.534 88.3693 185.459 88.5603 185.459C88.7512 185.459 88.9344 185.534 89.0694 185.67C89.2044 185.805 89.2803 185.988 89.2803 186.179V189.853C89.2803 190.044 89.2044 190.227 89.0694 190.362C88.9344 190.497 88.7512 190.573 88.5603 190.573ZM89.1219 163.921C88.9309 163.921 88.7478 163.845 88.6128 163.71C88.4777 163.575 88.4019 163.392 88.4019 163.201V146.838C88.4019 146.647 88.4777 146.464 88.6128 146.329C88.7478 146.194 88.9309 146.118 89.1219 146.118C89.3128 146.118 89.496 146.194 89.631 146.329C89.766 146.464 89.8419 146.647 89.8419 146.838V163.201C89.8419 163.392 89.766 163.575 89.631 163.71C89.496 163.845 89.3128 163.921 89.1219 163.921ZM47.5755 117.042C47.3845 117.042 47.2014 116.966 47.0664 116.831C46.9313 116.696 46.8555 116.513 46.8555 116.322V103.638C46.8555 103.447 46.9313 103.264 47.0664 103.129C47.2014 102.994 47.3845 102.918 47.5755 102.918C47.7664 102.918 47.9496 102.994 48.0846 103.129C48.2196 103.264 48.2955 103.447 48.2955 103.638V116.322C48.2955 116.513 48.2196 116.696 48.0846 116.831C47.9496 116.966 47.7664 117.042 47.5755 117.042ZM47.2083 141.675C47.0173 141.675 46.8342 141.6 46.6992 141.465C46.5641 141.33 46.4883 141.146 46.4883 140.955V122.022C46.4883 121.831 46.5641 121.648 46.6992 121.513C46.8342 121.378 47.0173 121.302 47.2083 121.302C47.3992 121.302 47.5824 121.378 47.7174 121.513C47.8524 121.648 47.9283 121.831 47.9283 122.022V140.955C47.9283 141.146 47.8524 141.33 47.7174 141.465C47.5824 141.6 47.3992 141.675 47.2083 141.675ZM51.2523 115.94C51.0613 115.94 50.8782 115.864 50.7432 115.729C50.6081 115.594 50.5323 115.411 50.5323 115.22V112.1C50.5323 111.909 50.6081 111.726 50.7432 111.591C50.8782 111.456 51.0613 111.38 51.2523 111.38C51.4432 111.38 51.6264 111.456 51.7614 111.591C51.8964 111.726 51.9723 111.909 51.9723 112.1V115.22C51.9723 115.411 51.8964 115.594 51.7614 115.729C51.6264 115.864 51.4432 115.94 51.2523 115.94ZM163.2 153.992C163.009 153.992 162.826 153.916 162.691 153.781C162.556 153.646 162.48 153.463 162.48 153.272V111.726C162.48 111.535 162.556 111.352 162.691 111.217C162.826 111.082 163.009 111.006 163.2 111.006C163.391 111.006 163.574 111.082 163.709 111.217C163.844 111.352 163.92 111.535 163.92 111.726V153.272C163.92 153.463 163.844 153.646 163.709 153.781C163.574 153.916 163.391 153.992 163.2 153.992ZM156.403 134.881C156.213 134.881 156.029 134.805 155.894 134.67C155.759 134.535 155.683 134.352 155.683 134.161V126.241C155.683 126.05 155.759 125.867 155.894 125.732C156.029 125.597 156.213 125.521 156.403 125.521C156.594 125.521 156.778 125.597 156.913 125.732C157.048 125.867 157.123 126.05 157.123 126.241V134.161C157.123 134.352 157.048 134.535 156.913 134.67C156.778 134.805 156.594 134.881 156.403 134.881ZM157.323 118.698C157.132 118.698 156.949 118.622 156.814 118.487C156.679 118.352 156.603 118.169 156.603 117.978V115.77C156.603 115.579 156.679 115.396 156.814 115.261C156.949 115.126 157.132 115.05 157.323 115.05C157.514 115.05 157.697 115.126 157.832 115.261C157.967 115.396 158.043 115.579 158.043 115.77V117.978C158.043 118.169 157.967 118.352 157.832 118.487C157.697 118.622 157.514 118.698 157.323 118.698ZM154.932 170.905C154.741 170.905 154.558 170.829 154.423 170.694C154.288 170.559 154.212 170.376 154.212 170.185V157.868C154.212 157.677 154.288 157.494 154.423 157.359C154.558 157.224 154.741 157.148 154.932 157.148C155.123 157.148 155.306 157.224 155.441 157.359C155.576 157.494 155.652 157.677 155.652 157.868V170.185C155.652 170.376 155.576 170.559 155.441 170.694C155.306 170.829 155.123 170.905 154.932 170.905ZM115.409 150.5C115.218 150.5 115.035 150.424 114.9 150.289C114.765 150.154 114.689 149.971 114.689 149.78V121.46C114.689 121.269 114.765 121.086 114.9 120.951C115.035 120.816 115.218 120.74 115.409 120.74C115.6 120.74 115.783 120.816 115.918 120.951C116.053 121.086 116.129 121.269 116.129 121.46V149.78C116.129 149.971 116.053 150.154 115.918 150.289C115.783 150.424 115.6 150.5 115.409 150.5ZM120.19 174.03C119.999 174.03 119.816 173.954 119.681 173.819C119.546 173.684 119.47 173.501 119.47 173.31V169.441C119.47 169.25 119.546 169.067 119.681 168.932C119.816 168.797 119.999 168.721 120.19 168.721C120.381 168.721 120.564 168.797 120.699 168.932C120.834 169.067 120.91 169.25 120.91 169.441V173.303C120.911 173.398 120.893 173.492 120.857 173.58C120.821 173.669 120.769 173.749 120.702 173.816C120.635 173.884 120.555 173.938 120.467 173.974C120.379 174.011 120.285 174.03 120.19 174.03Z" fill="#CFCFCF"/>
<path d="M61.1187 102.087C61.9468 102.25 62.7618 102.473 63.5571 102.755C63.6484 102.78 63.7437 102.787 63.8376 102.775C63.9315 102.763 64.0221 102.733 64.1044 102.686C64.1867 102.639 64.2589 102.577 64.3169 102.502C64.375 102.427 64.4177 102.342 64.4427 102.251C64.4884 102.067 64.4615 101.872 64.3677 101.707C64.2739 101.542 64.1203 101.42 63.9387 101.365C63.1435 101.083 62.3285 100.861 61.5003 100.7C61.313 100.654 61.1152 100.68 60.9459 100.772C60.7852 100.868 60.6669 101.022 60.6147 101.202C60.5896 101.293 60.5827 101.388 60.5944 101.482C60.6062 101.576 60.6363 101.667 60.6831 101.749C60.7299 101.831 60.7925 101.904 60.8672 101.962C60.942 102.02 61.0274 102.062 61.1187 102.087Z" fill="url(#paint2_linear_401_37760)"/>
<path d="M65.5987 113.191L62.1739 115.529C62.0227 115.631 61.9157 115.786 61.8748 115.964C61.8339 116.142 61.862 116.329 61.9534 116.486C62.0448 116.644 62.1928 116.762 62.3674 116.815C62.542 116.868 62.7302 116.852 62.8939 116.772L66.3211 114.434C66.4724 114.332 66.5793 114.177 66.6203 113.999C66.6612 113.821 66.6331 113.634 66.5417 113.476C66.4502 113.318 66.3023 113.201 66.1277 113.148C65.9531 113.095 65.7649 113.111 65.6011 113.191H65.5987Z" fill="url(#paint3_linear_401_37760)"/>
<path d="M58.5602 148.801C57.6306 151.102 56.6194 153.368 55.5266 155.598C55.4356 155.764 55.4117 155.959 55.4599 156.142C55.5082 156.325 55.6248 156.482 55.7858 156.582C55.9504 156.678 56.1464 156.705 56.3309 156.657C56.5153 156.609 56.6732 156.489 56.7698 156.325C57.9154 153.983 58.9754 151.603 59.9498 149.185C60.0962 148.823 59.7914 148.393 59.4458 148.297C59.2617 148.251 59.0671 148.278 58.9023 148.372C58.7374 148.466 58.615 148.62 58.5602 148.801Z" fill="url(#paint4_linear_401_37760)"/>
<path d="M62.4236 144.921L64.7444 146.282C64.9081 146.363 65.0963 146.378 65.2709 146.325C65.4455 146.272 65.5935 146.155 65.6849 145.997C65.7764 145.839 65.8044 145.652 65.7635 145.474C65.7226 145.297 65.6157 145.141 65.4644 145.039L63.1436 143.676C62.979 143.59 62.7876 143.571 62.6092 143.622C62.4309 143.674 62.2794 143.793 62.1865 143.953C62.0936 144.114 62.0663 144.305 62.1105 144.485C62.1547 144.665 62.2669 144.822 62.4236 144.921Z" fill="url(#paint5_linear_401_37760)"/>
<path d="M71.8246 140.4L74.7598 144.324C74.8595 144.485 75.0175 144.602 75.2011 144.65C75.3848 144.699 75.5799 144.674 75.7462 144.583C76.0438 144.391 76.2454 143.92 76.0054 143.599L73.0678 139.68C72.9678 139.518 72.8095 139.402 72.6259 139.354C72.4423 139.306 72.2473 139.331 72.0814 139.423C71.7838 139.615 71.5822 140.085 71.8246 140.407V140.4Z" fill="url(#paint6_linear_401_37760)"/>
<path d="M82.3199 137.15C82.1919 137.73 82.0367 138.3 81.8543 138.862C81.7631 139.138 81.6671 139.411 81.5615 139.682C81.5087 139.824 81.4535 139.963 81.3959 140.102C81.3143 140.299 81.4535 139.973 81.3671 140.167C81.3335 140.246 81.2999 140.326 81.2639 140.407C81.1729 140.573 81.149 140.768 81.1972 140.951C81.2455 141.134 81.3621 141.292 81.5231 141.391C81.8375 141.557 82.3439 141.499 82.5071 141.132C83.0262 139.975 83.4282 138.769 83.7071 137.532C83.7323 137.441 83.7393 137.345 83.7277 137.251C83.7161 137.158 83.6861 137.067 83.6394 136.984C83.5927 136.902 83.5302 136.83 83.4556 136.772C83.3809 136.713 83.2955 136.67 83.2043 136.645C83.1131 136.62 83.0177 136.613 82.9238 136.625C82.8299 136.636 82.7391 136.666 82.6568 136.713C82.5744 136.76 82.5021 136.822 82.4439 136.897C82.3857 136.971 82.3427 137.057 82.3175 137.148L82.3199 137.15Z" fill="url(#paint7_linear_401_37760)"/>
<path d="M60.9145 134.88C62.0997 136.847 63.4087 138.737 64.8337 140.539C65.0737 140.844 65.5993 140.779 65.8513 140.539C65.9823 140.401 66.0554 140.219 66.0554 140.029C66.0554 139.839 65.9823 139.656 65.8513 139.519C64.5094 137.812 63.2766 136.022 62.1601 134.16C61.6801 133.368 60.4369 134.09 60.9169 134.88H60.9145Z" fill="url(#paint8_linear_401_37760)"/>
<path d="M40.0394 117.039C41.3183 117.269 42.5847 117.564 43.8338 117.922C44.0181 117.973 44.2151 117.949 44.3814 117.854C44.5477 117.76 44.6697 117.603 44.7206 117.419C44.7716 117.235 44.7472 117.038 44.6529 116.872C44.5586 116.705 44.4021 116.583 44.2178 116.532C42.9678 116.175 41.7006 115.88 40.421 115.649C40.2369 115.603 40.0421 115.629 39.8771 115.723C39.7121 115.817 39.5897 115.971 39.5354 116.153C39.4562 116.504 39.6434 116.967 40.0394 117.039Z" fill="url(#paint9_linear_401_37760)"/>
<path d="M48.9598 96.7195C49.3323 97.8974 49.8464 99.0257 50.491 100.08C50.593 100.231 50.7486 100.338 50.9264 100.379C51.1042 100.42 51.2909 100.392 51.4488 100.3C51.6067 100.209 51.724 100.061 51.7769 99.8861C51.8299 99.7115 51.8146 99.5233 51.7342 99.3595C51.4312 98.8679 51.1587 98.3582 50.9182 97.8331C50.8894 97.7707 50.8606 97.7107 50.8342 97.6459L50.791 97.5499C50.7334 97.4251 50.6878 97.2955 50.6374 97.1683C50.5318 96.8947 50.4358 96.6187 50.347 96.3379C50.2903 96.1611 50.1674 96.013 50.004 95.9246C49.8407 95.8363 49.6495 95.8144 49.4704 95.8637C49.2914 95.9129 49.1383 96.0295 49.0431 96.189C48.9479 96.3485 48.9181 96.5386 48.9598 96.7195Z" fill="url(#paint10_linear_401_37760)"/>
<path d="M96.1051 137.945C97.4084 136.927 98.5877 135.76 99.6187 134.467C99.7497 134.33 99.8228 134.147 99.8228 133.957C99.8228 133.767 99.7497 133.585 99.6187 133.447C99.3595 133.207 98.8531 133.133 98.6011 133.447C97.5695 134.74 96.3903 135.908 95.0875 136.927C94.9527 137.062 94.877 137.245 94.877 137.436C94.877 137.627 94.9527 137.81 95.0875 137.945C95.2251 138.074 95.4072 138.147 95.5963 138.147C95.7855 138.147 95.9675 138.074 96.1051 137.945Z" fill="url(#paint11_linear_401_37760)"/>
<path d="M98.6541 123.391L100.361 125.484C100.496 125.619 100.679 125.694 100.869 125.694C101.06 125.694 101.243 125.619 101.378 125.484C101.513 125.349 101.589 125.166 101.589 124.975C101.581 124.786 101.506 124.606 101.378 124.466L99.6741 122.373C99.5392 122.238 99.3562 122.162 99.1653 122.162C98.974 122.164 98.7908 122.239 98.6541 122.373C98.5199 122.509 98.4448 122.692 98.4453 122.882C98.4529 123.071 98.5269 123.251 98.6541 123.391Z" fill="url(#paint12_linear_401_37760)"/>
<path d="M104.091 128.743C104.134 128.825 104.175 128.909 104.213 128.983C104.232 129.026 104.249 129.072 104.271 129.11L104.235 129.026C104.247 129.055 104.259 129.083 104.268 129.113C104.335 129.273 104.395 129.441 104.448 129.617C104.556 129.966 104.636 130.323 104.688 130.685L104.662 130.493C104.681 130.646 104.695 130.802 104.707 130.956C104.707 131.147 104.783 131.33 104.918 131.465C105.053 131.6 105.237 131.676 105.427 131.676C105.618 131.676 105.802 131.6 105.937 131.465C106.072 131.33 106.147 131.147 106.147 130.956C106.083 129.928 105.809 128.925 105.343 128.006C105.296 127.925 105.233 127.853 105.157 127.795C105.082 127.738 104.996 127.696 104.904 127.672C104.812 127.648 104.717 127.642 104.623 127.655C104.529 127.668 104.439 127.699 104.357 127.747C104.195 127.847 104.078 128.005 104.03 128.189C103.982 128.372 104.006 128.567 104.098 128.734L104.091 128.743Z" fill="url(#paint13_linear_401_37760)"/>
<path d="M103.704 141.025C103.222 142.094 102.643 143.116 101.976 144.08C101.928 144.162 101.897 144.252 101.884 144.346C101.871 144.44 101.876 144.535 101.9 144.627C101.924 144.718 101.966 144.804 102.023 144.88C102.08 144.955 102.151 145.019 102.233 145.067C102.4 145.158 102.595 145.182 102.778 145.134C102.961 145.085 103.119 144.969 103.22 144.807C103.887 143.843 104.465 142.819 104.948 141.75C105.039 141.584 105.063 141.389 105.015 141.206C104.967 141.023 104.85 140.865 104.688 140.766C104.374 140.6 103.87 140.658 103.704 141.025Z" fill="url(#paint14_linear_401_37760)"/>
<path d="M105.672 150.319L108.122 155.098C108.166 155.186 108.227 155.265 108.302 155.329C108.377 155.393 108.465 155.44 108.559 155.469C108.654 155.498 108.753 155.507 108.851 155.495C108.949 155.484 109.044 155.453 109.129 155.403C109.215 155.354 109.289 155.287 109.348 155.208C109.406 155.128 109.448 155.038 109.47 154.942C109.492 154.845 109.494 154.746 109.476 154.649C109.458 154.552 109.421 154.459 109.365 154.378L106.915 149.592C106.872 149.503 106.81 149.425 106.735 149.361C106.66 149.297 106.572 149.249 106.478 149.22C106.383 149.192 106.284 149.183 106.186 149.194C106.088 149.206 105.993 149.237 105.908 149.286C105.823 149.336 105.748 149.402 105.69 149.482C105.631 149.561 105.589 149.652 105.567 149.748C105.545 149.844 105.543 149.944 105.561 150.041C105.579 150.138 105.617 150.23 105.672 150.312V150.319Z" fill="url(#paint15_linear_401_37760)"/>
<path d="M104.911 157.419L102.216 159.869C102.149 159.936 102.095 160.016 102.059 160.103C102.023 160.191 102.004 160.284 102.004 160.379C102.004 160.474 102.023 160.568 102.059 160.655C102.095 160.743 102.149 160.822 102.216 160.889C102.353 161.019 102.535 161.092 102.724 161.092C102.914 161.092 103.096 161.019 103.233 160.889L105.928 158.436C106.063 158.301 106.139 158.118 106.139 157.928C106.139 157.737 106.063 157.554 105.928 157.419C105.791 157.288 105.609 157.215 105.42 157.215C105.23 157.215 105.048 157.288 104.911 157.419Z" fill="url(#paint16_linear_401_37760)"/>
<path d="M122.213 156.598C123.873 156.507 125.465 155.908 126.773 154.882C126.908 154.747 126.983 154.564 126.983 154.373C126.983 154.182 126.908 153.999 126.773 153.864C126.635 153.734 126.453 153.662 126.264 153.662C126.075 153.662 125.893 153.734 125.755 153.864C125.858 153.783 125.645 153.941 125.626 153.955C125.551 154.008 125.474 154.059 125.398 154.109C125.265 154.195 125.128 154.275 124.987 154.349C124.829 154.438 124.666 154.522 124.507 154.589L124.382 154.644C124.45 154.618 124.445 154.62 124.366 154.644C124.286 154.668 124.217 154.704 124.142 154.731C123.821 154.849 123.491 154.944 123.156 155.016L122.916 155.062C122.89 155.062 122.616 155.107 122.77 155.088C122.59 155.112 122.407 155.127 122.225 155.136C122.034 155.136 121.851 155.212 121.716 155.347C121.581 155.482 121.505 155.665 121.505 155.856C121.505 156.047 121.581 156.23 121.716 156.365C121.851 156.5 122.034 156.576 122.225 156.576L122.213 156.598Z" fill="url(#paint17_linear_401_37760)"/>
<path d="M116.16 111.689C116.64 111.59 117.132 111.857 117.533 112.097C118.082 112.428 118.601 112.817 119.129 113.172L122.426 115.44C122.59 115.52 122.778 115.536 122.953 115.483C123.128 115.43 123.276 115.313 123.367 115.155C123.458 114.997 123.486 114.81 123.446 114.632C123.405 114.454 123.298 114.299 123.146 114.197L119.546 111.737C118.411 110.959 117.221 110.009 115.759 110.297C115.668 110.322 115.583 110.365 115.508 110.423C115.433 110.481 115.371 110.553 115.324 110.635C115.277 110.717 115.247 110.808 115.235 110.902C115.223 110.996 115.23 111.091 115.255 111.182C115.28 111.274 115.323 111.359 115.381 111.434C115.439 111.509 115.511 111.571 115.594 111.618C115.676 111.665 115.767 111.695 115.86 111.707C115.954 111.718 116.05 111.711 116.141 111.686L116.16 111.689Z" fill="url(#paint18_linear_401_37760)"/>
<path d="M120.562 102.303C120.794 102.216 121.036 102.155 121.282 102.12L121.09 102.147C121.379 102.108 121.672 102.108 121.961 102.147L121.769 102.12H121.829C121.921 102.151 122.02 102.156 122.114 102.135C122.21 102.13 122.303 102.1 122.383 102.048C122.548 101.952 122.668 101.794 122.716 101.61C122.765 101.425 122.738 101.229 122.642 101.064C122.596 100.983 122.534 100.912 122.46 100.855C122.386 100.798 122.301 100.757 122.21 100.733C121.87 100.675 121.525 100.659 121.181 100.687C120.836 100.719 120.497 100.792 120.17 100.906C119.992 100.962 119.84 101.079 119.741 101.237C119.646 101.405 119.62 101.604 119.669 101.791C119.691 101.885 119.732 101.972 119.789 102.049C119.846 102.126 119.918 102.191 120 102.24C120.083 102.289 120.175 102.32 120.27 102.332C120.365 102.345 120.462 102.338 120.554 102.312L120.562 102.303Z" fill="url(#paint19_linear_401_37760)"/>
<path d="M114.626 92.9255L120.146 87.5951C120.813 86.9495 119.793 85.9319 119.126 86.5775L113.606 91.9079C112.939 92.5535 113.959 93.5711 114.626 92.9255Z" fill="url(#paint20_linear_401_37760)"/>
<path d="M108.098 99.2339C108.417 100.734 108.84 102.211 109.365 103.652C109.419 103.834 109.542 103.988 109.707 104.081C109.872 104.175 110.067 104.201 110.251 104.154C110.342 104.129 110.427 104.086 110.502 104.028C110.577 103.97 110.639 103.898 110.686 103.816C110.733 103.733 110.763 103.643 110.775 103.549C110.787 103.455 110.78 103.36 110.755 103.268C110.229 101.827 109.806 100.351 109.487 98.8499C109.437 98.666 109.315 98.5098 109.149 98.4158C108.982 98.3217 108.786 98.2974 108.602 98.3483C108.42 98.402 108.265 98.5243 108.171 98.6894C108.077 98.8546 108.051 99.0497 108.098 99.2339Z" fill="url(#paint21_linear_401_37760)"/>
<path d="M103.865 84.8499L104.767 85.7859C104.902 85.921 105.085 85.9969 105.276 85.9971C105.465 85.9882 105.645 85.9135 105.785 85.7859C105.919 85.6501 105.994 85.4677 105.996 85.2771C105.991 85.0873 105.915 84.9062 105.785 84.7683L104.88 83.8299C104.744 83.6972 104.562 83.6224 104.371 83.6211C104.182 83.6277 104.002 83.7018 103.863 83.8299C103.729 83.9668 103.653 84.1499 103.651 84.3411C103.657 84.5308 103.732 84.7117 103.863 84.8499H103.865Z" fill="url(#paint22_linear_401_37760)"/>
<path d="M95.7427 45.3814C96.3853 47.5268 97.2457 49.6008 98.3107 51.571C98.7523 52.387 99.9907 51.6598 99.5539 50.851C98.5491 48.99 97.7377 47.031 97.1323 45.0046C96.8683 44.119 95.4763 44.4958 95.7427 45.3886V45.3814Z" fill="url(#paint23_linear_401_37760)"/>
<path d="M97.8219 33.9676C98.5451 36.5273 99.399 39.0482 100.38 41.5204C100.436 41.7016 100.558 41.8549 100.723 41.9486C100.888 42.0423 101.082 42.0694 101.266 42.0244C101.45 41.9734 101.606 41.8515 101.7 41.6854C101.794 41.5194 101.818 41.3228 101.768 41.1388C100.788 38.6702 99.935 36.1533 99.2115 33.598C98.9595 32.7076 97.5675 33.0844 97.8219 33.9796V33.9676Z" fill="url(#paint24_linear_401_37760)"/>
<path d="M110.695 26.6097C110.427 28.1652 110.047 29.6996 109.56 31.2009C109.535 31.2922 109.528 31.3875 109.54 31.4814C109.551 31.5753 109.582 31.666 109.628 31.7482C109.675 31.8305 109.738 31.9027 109.813 31.9608C109.887 32.0188 109.973 32.0616 110.064 32.0865C110.248 32.1335 110.443 32.1075 110.608 32.014C110.773 31.9205 110.895 31.7668 110.95 31.5849C111.434 30.0822 111.812 28.5472 112.08 26.9913C112.126 26.8075 112.1 26.613 112.007 26.448C111.913 26.2831 111.76 26.1605 111.578 26.1057C111.228 26.0265 110.762 26.2137 110.693 26.6097H110.695Z" fill="url(#paint25_linear_401_37760)"/>
<path d="M118.157 26.1201C119.298 25.5119 120.339 24.7315 121.243 23.8065C121.322 23.7429 121.387 23.6633 121.433 23.573C121.479 23.4826 121.506 23.3835 121.511 23.2822C121.516 23.1808 121.5 23.0795 121.463 22.985C121.426 22.8904 121.37 22.8046 121.298 22.7333C121.226 22.6619 121.139 22.6067 121.044 22.5711C120.949 22.5355 120.848 22.5204 120.747 22.5268C120.645 22.5332 120.547 22.5609 120.457 22.6081C120.367 22.6554 120.288 22.7211 120.225 22.8009C120.014 23.0145 119.798 23.2209 119.575 23.4177C119.46 23.5209 119.335 23.6193 119.225 23.7177L119.045 23.8617C118.973 23.9169 119.045 23.8617 119.069 23.8425C119.037 23.8713 118.999 23.8929 118.965 23.9193C118.479 24.2779 117.965 24.5988 117.429 24.8793C117.348 24.9271 117.276 24.9906 117.219 25.0661C117.162 25.1416 117.12 25.2276 117.096 25.3192C117.073 25.4108 117.067 25.5063 117.08 25.6C117.093 25.6938 117.125 25.7841 117.173 25.8657C117.272 26.0272 117.43 26.1441 117.613 26.1919C117.796 26.2398 117.991 26.2149 118.157 26.1225V26.1201Z" fill="url(#paint26_linear_401_37760)"/>
<path d="M118.12 15.7293C116.503 17.5338 115.026 19.4594 113.702 21.4893C113.654 21.5709 113.623 21.6612 113.609 21.755C113.596 21.8487 113.602 21.9442 113.626 22.0358C113.65 22.1274 113.691 22.2134 113.748 22.2889C113.806 22.3644 113.877 22.4279 113.959 22.4757C114.125 22.5681 114.32 22.5927 114.504 22.5444C114.688 22.4961 114.846 22.3786 114.945 22.2165C116.202 20.2923 117.603 18.467 119.138 16.7565C119.209 16.6906 119.265 16.6111 119.305 16.5228C119.344 16.4345 119.365 16.3391 119.367 16.2425C119.369 16.1458 119.351 16.0498 119.315 15.9601C119.278 15.8705 119.225 15.789 119.156 15.7206C119.088 15.6523 119.006 15.5984 118.917 15.5622C118.827 15.526 118.731 15.5082 118.634 15.5099C118.538 15.5116 118.442 15.5327 118.354 15.5721C118.266 15.6114 118.186 15.6682 118.12 15.7389V15.7293Z" fill="url(#paint27_linear_401_37760)"/>
<path d="M101.835 9.14907C101.737 10.3808 101.793 11.6198 102 12.8379C102.025 12.9292 102.068 13.0146 102.126 13.0894C102.184 13.1641 102.256 13.2267 102.339 13.2735C102.421 13.3203 102.511 13.3504 102.605 13.3622C102.699 13.3739 102.795 13.367 102.886 13.3419C103.067 13.2866 103.22 13.1639 103.313 12.9992C103.407 12.8344 103.433 12.64 103.387 12.4563L103.351 12.2163L103.337 12.1155C103.337 12.1827 103.337 12.1923 103.337 12.1395C103.32 11.9931 103.303 11.8491 103.289 11.7027C103.26 11.4243 103.243 11.1435 103.231 10.8627C103.211 10.2887 103.225 9.71407 103.275 9.14188C103.275 8.95092 103.199 8.76778 103.064 8.63276C102.929 8.49773 102.746 8.42188 102.555 8.42188C102.365 8.42673 102.185 8.50415 102.051 8.63814C101.917 8.77213 101.839 8.95245 101.835 9.14188V9.14907Z" fill="url(#paint28_linear_401_37760)"/>
<path d="M83.6523 18.5252L90.9603 22.8188C91.7619 23.2988 92.4867 22.046 91.6803 21.5756L84.3795 17.2796C83.5779 16.7996 82.8531 18.0524 83.6595 18.5228L83.6523 18.5252Z" fill="url(#paint29_linear_401_37760)"/>
<path d="M132.324 152.534C132.123 154.55 132.068 156.578 132.158 158.602C132.162 158.791 132.239 158.972 132.373 159.107C132.507 159.241 132.688 159.318 132.878 159.322C133.069 159.322 133.252 159.246 133.387 159.111C133.522 158.976 133.598 158.793 133.598 158.602C133.508 156.578 133.563 154.55 133.764 152.534C133.764 152.343 133.688 152.16 133.553 152.025C133.418 151.89 133.235 151.814 133.044 151.814C132.854 151.819 132.674 151.897 132.54 152.031C132.406 152.165 132.329 152.345 132.324 152.534Z" fill="url(#paint30_linear_401_37760)"/>
<path d="M134.177 163.2C134.319 164.962 134.696 166.696 135.298 168.358C135.353 168.539 135.475 168.692 135.64 168.786C135.805 168.879 135.999 168.905 136.183 168.86C136.274 168.835 136.36 168.792 136.435 168.734C136.509 168.676 136.572 168.604 136.619 168.521C136.666 168.439 136.696 168.348 136.707 168.255C136.719 168.161 136.712 168.065 136.687 167.974C136.121 166.437 135.761 164.832 135.617 163.2C135.612 163.011 135.534 162.831 135.4 162.697C135.267 162.563 135.086 162.485 134.897 162.48C134.706 162.48 134.523 162.556 134.388 162.691C134.253 162.826 134.177 163.01 134.177 163.2Z" fill="url(#paint31_linear_401_37760)"/>
<path d="M138.48 172.213C139.103 173.614 139.96 174.9 141.014 176.014C141.149 176.149 141.332 176.225 141.523 176.225C141.714 176.225 141.897 176.149 142.032 176.014C142.163 175.877 142.236 175.695 142.236 175.505C142.236 175.316 142.163 175.133 142.032 174.997C141.785 174.733 141.545 174.459 141.312 174.176L141.232 174.075C141.264 174.118 141.276 174.133 141.232 174.075C141.201 174.032 141.117 173.921 141.062 173.835C140.956 173.689 140.853 173.54 140.755 173.389C140.357 172.783 140.01 172.146 139.718 171.483C139.67 171.401 139.607 171.329 139.532 171.272C139.456 171.215 139.37 171.173 139.279 171.149C139.187 171.125 139.092 171.119 138.998 171.132C138.904 171.145 138.813 171.176 138.732 171.224C138.571 171.325 138.456 171.483 138.408 171.666C138.36 171.849 138.384 172.044 138.475 172.21L138.48 172.213Z" fill="url(#paint32_linear_401_37760)"/>
<path d="M154.918 178.052L156.694 181.212C156.737 181.301 156.798 181.38 156.874 181.444C156.949 181.507 157.036 181.555 157.131 181.584C157.225 181.613 157.325 181.621 157.423 181.61C157.521 181.599 157.615 181.567 157.701 181.518C157.786 181.468 157.86 181.402 157.919 181.323C157.978 181.243 158.019 181.153 158.042 181.056C158.064 180.96 158.066 180.861 158.048 180.764C158.03 180.666 157.992 180.574 157.937 180.492L156.161 177.332C156.065 177.167 155.907 177.047 155.723 176.998C155.538 176.95 155.342 176.976 155.177 177.072C155.015 177.171 154.897 177.328 154.848 177.512C154.8 177.696 154.825 177.891 154.918 178.056V178.052Z" fill="url(#paint33_linear_401_37760)"/>
<path d="M165.6 162.82C167.591 162.855 169.575 162.596 171.49 162.05C172.378 161.796 172.001 160.404 171.106 160.66C169.316 161.173 167.461 161.415 165.6 161.38C164.674 161.366 164.674 162.806 165.6 162.82Z" fill="url(#paint34_linear_401_37760)"/>
<path d="M142.8 143.867C143.208 143.935 143.609 144.036 144 144.167C144.101 144.2 144.202 144.236 144.3 144.275L144.432 144.328C144.471 144.342 144.528 144.368 144.456 144.328C144.653 144.414 144.843 144.508 145.032 144.608C145.386 144.798 145.725 145.015 146.045 145.256C145.968 145.199 146.067 145.273 146.096 145.297L146.206 145.388C146.288 145.456 146.367 145.525 146.446 145.597C146.602 145.741 146.753 145.89 146.9 146.046C147.035 146.181 147.218 146.256 147.408 146.256C147.599 146.256 147.782 146.181 147.917 146.046C148.049 145.909 148.122 145.727 148.122 145.537C148.122 145.347 148.049 145.165 147.917 145.028C146.657 143.685 144.996 142.787 143.182 142.468C142.998 142.421 142.803 142.448 142.638 142.542C142.473 142.636 142.351 142.79 142.296 142.972C142.217 143.32 142.402 143.79 142.798 143.857L142.8 143.867Z" fill="url(#paint35_linear_401_37760)"/>
<path d="M107.76 184.642C109.891 186.494 111.851 188.533 113.616 190.736C113.856 191.041 114.38 190.99 114.634 190.736C114.765 190.599 114.838 190.417 114.838 190.227C114.838 190.038 114.765 189.856 114.634 189.718C112.87 187.515 110.91 185.475 108.778 183.625C108.641 183.495 108.459 183.422 108.269 183.422C108.08 183.422 107.898 183.495 107.76 183.625C107.626 183.76 107.55 183.943 107.55 184.134C107.55 184.324 107.626 184.507 107.76 184.642Z" fill="url(#paint36_linear_401_37760)"/>
<path d="M125.184 207.825C122.527 209.671 119.386 210.518 116.304 211.341C115.411 211.581 115.79 212.971 116.688 212.731C119.882 211.879 123.168 210.981 125.914 209.069C126.075 208.968 126.191 208.809 126.238 208.625C126.285 208.441 126.26 208.246 126.168 208.08C126.071 207.915 125.914 207.796 125.729 207.748C125.545 207.7 125.349 207.727 125.184 207.823V207.825Z" fill="url(#paint37_linear_401_37760)"/>
<path d="M174.652 232.288C172.254 232.282 169.864 231.99 167.534 231.419C159.28 229.413 151.089 223.802 149.275 215.39C143.121 209.515 139.579 200.779 139.773 191.903C139.934 184.607 142.653 178.027 147.213 173.848C147.764 173.346 148.344 172.876 148.948 172.439C149.994 170.318 151.377 168.381 153.043 166.703C156.643 163.103 161.604 160.54 167.776 159.117C176.126 157.197 184.096 158.042 190.202 161.517C194.026 163.727 197.186 166.923 199.353 170.771C201.753 173.332 203.694 176.285 205.094 179.503C205.304 179.983 205.499 180.463 205.68 180.943C209.552 184.546 212.161 189.301 213.12 194.503C214.298 201.045 212.74 207.83 208.737 213.604C204.868 219.182 198.979 223.269 192.578 224.819C192.004 224.959 191.431 225.076 190.862 225.175C188.75 227.987 185.755 230.051 182.047 231.22C179.651 231.95 177.157 232.31 174.652 232.288ZM151.284 217.135C153.768 223.809 160.797 228.299 167.875 230.02C175.14 231.787 183.739 230.853 188.755 225.434C187.637 225.531 186.515 225.548 185.395 225.484C183.661 226.615 181.789 227.518 179.824 228.172C179.734 228.206 179.637 228.222 179.54 228.217C179.444 228.213 179.349 228.189 179.261 228.148C179.174 228.106 179.096 228.047 179.032 227.974C178.968 227.902 178.919 227.817 178.888 227.725C178.858 227.633 178.846 227.536 178.854 227.439C178.862 227.343 178.889 227.249 178.934 227.163C178.979 227.077 179.041 227.002 179.116 226.94C179.191 226.879 179.278 226.834 179.371 226.807C180.637 226.385 181.863 225.853 183.036 225.215C180.783 224.85 178.622 224.05 176.673 222.861C176.353 222.659 176.038 222.447 175.728 222.225C175.299 222.356 174.867 222.472 174.432 222.573C166.56 224.399 157.857 222.309 151.284 217.135ZM191.587 219.729C190.364 221.347 188.944 222.807 187.36 224.073C188.26 224.047 189.156 223.967 190.046 223.833C190.511 223.158 190.921 222.447 191.272 221.707C191.31 221.617 191.365 221.536 191.435 221.468C191.505 221.401 191.588 221.348 191.679 221.313C191.769 221.278 191.866 221.262 191.963 221.266C192.061 221.269 192.156 221.293 192.244 221.334C192.332 221.376 192.41 221.435 192.475 221.507C192.539 221.58 192.589 221.665 192.619 221.757C192.65 221.849 192.662 221.947 192.654 222.044C192.646 222.141 192.619 222.235 192.573 222.321C192.389 222.715 192.19 223.097 191.976 223.468L192.24 223.406C205.25 220.255 213.984 207.398 211.706 194.743C210.985 190.817 209.257 187.147 206.692 184.089C208.458 190.609 208.122 197.52 205.732 203.839C203.079 210.662 198.058 216.303 191.587 219.729ZM179.04 222.494C180.931 223.349 182.958 223.864 185.028 224.015C186.281 223.162 187.447 222.188 188.51 221.107C185.728 222.146 182.349 222.782 179.04 222.494ZM150.6 214.658L150.652 214.708C156.988 220.521 165.912 223.003 173.98 221.203C173.047 220.774 172.167 220.235 171.36 219.599C169.351 219.591 167.346 219.44 165.36 219.146C161.892 218.642 155.793 217.281 150.453 213.664C150.492 214.003 150.54 214.335 150.6 214.658ZM178.8 221.025C182.03 221.385 185.38 220.759 188.104 219.722C188.971 219.393 189.819 219.018 190.646 218.599C192.06 216.675 193.138 214.526 193.836 212.243C194.392 210.379 194.673 208.443 194.668 206.498C194.402 207.098 194.114 207.674 193.8 208.233C191.896 211.593 188.827 214.473 185.097 216.455C183.281 218.334 181.149 219.881 178.8 221.025ZM175.653 220.319C175.862 220.394 176.073 220.461 176.284 220.523C177.838 219.954 179.317 219.198 180.688 218.272C178.734 218.868 176.723 219.263 174.688 219.448C175 219.753 175.32 220.046 175.653 220.319ZM150.345 211.831C155.644 215.776 162.024 217.214 165.561 217.727C166.958 217.932 168.365 218.067 169.776 218.131C168.387 216.558 167.298 214.745 166.56 212.781C161.385 211.204 156.48 207.741 152.724 202.941C151.294 205.51 150.481 208.377 150.35 211.315C150.348 211.485 150.345 211.658 150.345 211.831ZM170.251 213.578C171.172 215.179 172.234 216.695 173.426 218.107C175.941 217.971 178.427 217.504 180.82 216.719C181.987 216.329 183.12 215.847 184.212 215.279C185.121 214.315 185.926 213.256 186.612 212.121C187.326 210.94 187.882 209.67 188.263 208.343C186.988 209.008 185.645 209.534 184.257 209.911C180.759 212.513 176.483 213.855 172.125 213.719C171.503 213.705 170.878 213.658 170.251 213.578ZM168.331 213.244C168.974 214.704 169.847 216.051 170.916 217.235C170.007 215.961 169.173 214.635 168.42 213.263L168.331 213.244ZM195.864 202.975C196.636 207.806 195.753 212.756 193.358 217.022C198.363 213.704 202.22 208.919 204.398 203.323C207.021 196.514 207.021 188.752 204.446 181.756C203.843 181.212 203.211 180.701 202.552 180.225C202.593 180.53 202.627 180.835 202.658 181.142C203.352 188.397 200.918 196.022 196.108 201.878C196.029 202.25 195.945 202.615 195.856 202.975H195.864ZM147.703 211.528C148.1 212.031 148.512 212.517 148.941 212.987C148.941 212.843 148.924 212.697 148.917 212.551C148.509 212.231 148.109 211.894 147.717 211.54L147.703 211.528ZM189.974 207.371C189.605 209.321 188.886 211.187 187.85 212.879C187.828 212.918 187.804 212.954 187.78 212.992C189.703 211.495 191.318 209.641 192.535 207.53C193.137 206.461 193.632 205.336 194.013 204.17C192.781 205.374 191.428 206.447 189.974 207.371ZM169.351 211.982C170.285 212.154 171.231 212.257 172.18 212.289C175.085 212.382 177.968 211.766 180.58 210.494C179.604 210.536 178.626 210.484 177.66 210.338C175.281 209.957 173.016 209.055 171.026 207.698C170.2 208.532 169.25 209.235 168.211 209.781C168.568 210.509 168.948 211.243 169.351 211.982ZM165 210.698C165.319 210.83 165.636 210.952 165.96 211.065C165.909 210.909 165.861 210.755 165.816 210.599C165.545 210.646 165.273 210.679 165 210.698ZM146.337 184.718C143.898 187.31 142.341 190.607 141.89 194.138C141.218 199.855 143.81 206.111 148.677 210.47L148.944 210.71C149.181 207.518 150.159 204.425 151.8 201.676C148.381 196.669 146.484 190.779 146.337 184.718ZM156.417 197.98C156.37 199.19 156.485 200.401 156.758 201.58C157.55 205.103 160.149 209.02 163.975 209.26C164.456 209.292 164.939 209.271 165.415 209.198C165.232 208.478 165.074 207.77 164.935 207.093C164.775 206.317 164.632 205.557 164.508 204.813C163.738 202.681 163.16 200.484 162.78 198.249C162.396 197.56 162.06 196.903 161.767 196.303C161.474 195.703 161.191 195.074 160.908 194.409C159.273 195.411 157.767 196.611 156.424 197.98H156.417ZM172.017 206.599C173.777 207.779 175.77 208.569 177.861 208.915C179.783 209.192 181.742 209.084 183.621 208.595C185.769 206.971 187.438 204.798 188.455 202.305C188.414 202.123 188.368 201.94 188.32 201.755C187.411 198.395 185.112 195.592 181.672 193.675C180.189 192.855 178.603 192.237 176.956 191.839C177.095 193.668 176.951 195.507 176.527 197.291C175.852 200.224 174.312 203.851 172.032 206.599H172.017ZM165.904 204.453C166.384 205.768 166.938 207.11 167.565 208.478C168.389 208.039 169.146 207.485 169.814 206.834C168.254 205.592 166.85 204.165 165.633 202.586C165.72 203.195 165.815 203.818 165.919 204.453H165.904ZM188.743 204.983C188.239 205.828 187.66 206.626 187.012 207.367C187.56 207.106 188.101 206.816 188.637 206.498C188.708 205.996 188.748 205.49 188.757 204.983H188.743ZM165.372 199.747C166.85 202.031 168.693 204.058 170.827 205.747C173.001 203.162 174.492 199.653 175.13 196.955C175.553 195.179 175.675 193.344 175.49 191.527C172.418 190.983 169.263 191.147 166.264 192.007C166.116 192.05 165.969 192.095 165.82 192.143C165.764 192.422 165.714 192.703 165.669 192.986C165.327 195.222 165.232 197.489 165.386 199.747H165.372ZM189.952 202.423C190.141 203.436 190.215 204.467 190.171 205.497C191.512 204.535 192.752 203.44 193.872 202.228C193.963 202.132 194.054 202.034 194.143 201.935C193.537 199.158 192.348 196.54 190.656 194.255C191.035 196.656 190.902 199.11 190.264 201.455C190.188 201.777 190.08 202.101 189.967 202.423H189.952ZM153.523 201.599L153.648 201.767C154.506 202.897 155.445 203.964 156.456 204.959C155.97 203.98 155.602 202.946 155.359 201.88C155.185 201.112 155.069 200.333 155.011 199.547C154.476 200.202 153.979 200.887 153.523 201.599ZM147.777 183.335C147.678 189.361 149.371 195.28 152.64 200.342C153.354 199.293 154.149 198.302 155.018 197.378C155.176 195.356 155.827 193.404 156.914 191.692C157.53 190.73 158.271 189.854 159.12 189.088C158.335 185.968 157.977 182.512 158.553 179.061C155.231 179.27 152.023 180.356 149.258 182.21C148.745 182.559 148.25 182.936 147.777 183.338V183.335ZM176.791 190.319C178.753 190.742 180.642 191.449 182.4 192.417C185.632 194.219 187.953 196.737 189.194 199.78C189.674 197.14 189.408 194.5 188.76 192.083C185.364 188.831 180.691 186.844 175.56 186.323C176.151 187.593 176.565 188.937 176.791 190.319ZM190.039 191.325L190.238 191.529C192.429 193.798 194.071 196.54 195.038 199.543C195.314 197.233 195.383 194.904 195.244 192.583C194.952 187 193.492 179.714 188.311 175.811C185.828 175.738 183.346 175.986 180.926 176.548C183.394 178.957 185.508 181.705 187.204 184.708C188.407 186.794 189.358 189.015 190.039 191.325ZM190.68 175.965C195.084 180.35 196.399 187.171 196.68 192.503C196.803 194.626 196.764 196.754 196.564 198.871C200.088 193.651 201.801 187.331 201.223 181.288C201.156 180.568 201.055 179.87 200.925 179.169C200.333 178.819 199.724 178.499 199.099 178.209C196.435 177.002 193.59 176.241 190.68 175.955V175.965ZM163.8 192.926C163.8 193.31 163.8 193.696 163.8 194.083C163.819 194.673 163.855 195.266 163.912 195.866C163.968 194.832 164.077 193.802 164.241 192.779V192.734C164.116 192.787 163.965 192.849 163.812 192.916L163.8 192.926ZM159.542 190.675C159.007 191.225 158.529 191.828 158.116 192.475C157.481 193.472 157.014 194.568 156.734 195.717C157.862 194.73 159.076 193.846 160.363 193.077C160.08 192.295 159.806 191.493 159.554 190.665L159.542 190.675ZM162.168 193.706L162.372 194.186V194.131C162.372 193.955 162.372 193.783 162.36 193.607L162.168 193.706ZM160.728 189.607C160.996 190.567 161.306 191.483 161.635 192.362C161.875 192.232 162.136 192.107 162.388 191.985C162.45 190.73 162.601 189.481 162.842 188.248C162.101 188.632 161.397 189.084 160.74 189.599L160.728 189.607ZM164.472 187.526C164.172 188.779 163.973 190.053 163.874 191.337C164.114 191.243 164.354 191.152 164.594 191.066C164.91 189.7 165.344 188.364 165.89 187.072C165.412 187.199 164.94 187.346 164.484 187.516L164.472 187.526ZM167.642 186.681C167.042 187.923 166.56 189.218 166.202 190.55C169.155 189.755 172.242 189.584 175.264 190.048C174.996 188.705 174.524 187.41 173.865 186.208C171.784 186.134 169.701 186.289 167.654 186.671L167.642 186.681ZM147.722 175.339C144.033 178.958 141.722 184.336 141.273 190.367C142.303 187.426 144.047 184.787 146.349 182.687C146.463 180.181 146.931 177.704 147.739 175.329L147.722 175.339ZM174.72 184.814C179.661 185.14 184.264 186.746 187.893 189.47C187.343 188.074 186.694 186.719 185.949 185.416C184.172 182.277 181.915 179.434 179.26 176.99C176.513 177.803 173.972 179.194 171.806 181.07C171.708 181.156 171.612 181.243 171.516 181.334C172.619 182.188 173.589 183.2 174.396 184.339C174.513 184.499 174.616 184.655 174.72 184.814ZM160.017 179.018C159.453 182.107 159.703 185.215 160.356 188.085C161.266 187.435 162.244 186.887 163.274 186.451C163.882 184.183 164.837 182.022 166.104 180.045C165.132 179.706 164.133 179.45 163.118 179.279C162.093 179.11 161.056 179.023 160.017 179.018ZM167.457 180.587C166.379 182.211 165.533 183.978 164.944 185.836C165.41 185.692 165.89 185.567 166.384 185.459L166.682 185.395C167.402 184.016 168.282 182.727 169.303 181.555C168.714 181.192 168.101 180.869 167.469 180.587H167.457ZM170.493 182.378C169.751 183.211 169.089 184.112 168.513 185.068C169.967 184.856 171.434 184.751 172.903 184.754C172.211 183.86 171.405 183.062 170.505 182.378H170.493ZM150.024 173.428C148.844 175.943 148.117 178.646 147.876 181.413C148.058 181.279 148.243 181.149 148.43 181.019C151.524 178.946 155.128 177.763 158.848 177.599C158.884 177.453 158.923 177.307 158.961 177.158C159.713 174.464 161.047 171.967 162.868 169.845C158.208 169.679 153.64 170.92 150.036 173.428H150.024ZM168.321 179.402C169.006 179.722 169.669 180.087 170.306 180.494C170.481 180.326 170.656 180.163 170.836 180.014C172.93 178.19 175.362 176.797 177.993 175.912C177.24 175.296 176.468 174.721 175.677 174.187C173.713 174.844 171.901 175.889 170.349 177.261C169.616 177.915 168.942 178.631 168.333 179.402H168.321ZM202.2 178.259C202.555 178.485 202.903 178.718 203.246 178.963C202.762 177.967 202.222 176.999 201.628 176.063C201.861 176.786 202.053 177.518 202.212 178.259H202.2ZM160.327 177.583C161.338 177.604 162.346 177.698 163.344 177.863C164.571 178.069 165.777 178.391 166.944 178.823C167.671 177.863 168.489 176.975 169.387 176.171C170.788 174.928 172.385 173.923 174.112 173.198C172.558 172.285 170.911 171.538 169.2 170.971C167.736 170.494 166.229 170.164 164.7 169.987C162.652 172.108 161.16 174.702 160.358 177.539C160.353 177.554 160.346 177.569 160.339 177.583H160.327ZM188.81 174.393C192.765 174.554 196.581 175.437 199.694 176.889C199.958 177.014 200.222 177.143 200.481 177.275C199.947 175.303 199.171 173.405 198.17 171.623C193.2 166.379 186.48 163.259 179.601 163.367C174.58 163.491 169.764 165.387 166.005 168.719C167.237 168.922 168.452 169.218 169.639 169.605C171.841 170.324 173.945 171.317 175.9 172.559C180.072 171.323 184.567 171.722 188.104 173.913C188.352 174.071 188.589 174.239 188.822 174.393H188.81ZM177.516 173.673C178.25 174.206 178.964 174.776 179.659 175.384C181.707 174.831 183.809 174.503 185.928 174.405C183.398 173.296 180.415 173.073 177.528 173.675L177.516 173.673ZM176.316 159.547C173.539 159.555 170.773 159.877 168.069 160.507C162.163 161.87 157.44 164.294 154.032 167.707C153.074 168.676 152.216 169.739 151.471 170.879C155.381 168.908 159.768 168.076 164.128 168.479C164.943 167.671 165.82 166.927 166.752 166.257C170.489 163.545 174.963 162.033 179.58 161.923C184.785 161.843 189.9 163.495 194.299 166.459C192.871 165.011 191.251 163.765 189.484 162.758C185.731 160.634 181.221 159.549 176.34 159.549L176.316 159.547Z" fill="#CFCFCF"/>
<path opacity="0.6" d="M49.332 221.248C47.7956 221.246 46.2648 221.062 44.772 220.699C39.4416 219.403 34.1544 215.779 33.012 210.35C29.028 206.56 26.7336 200.911 26.8584 195.172C26.964 190.468 28.7088 186.23 31.6584 183.54C32.0258 183.202 32.4138 182.888 32.82 182.599C33.4855 181.231 34.3717 179.982 35.4432 178.903C37.764 176.575 40.9632 174.928 44.9472 174.009C50.3352 172.766 55.4736 173.313 59.4144 175.55C61.8814 176.976 63.9203 179.038 65.3184 181.521C66.8692 183.177 68.125 185.086 69.0312 187.166C69.168 187.478 69.2952 187.795 69.4176 188.114C71.9241 190.437 73.6135 193.506 74.2344 196.867C74.9928 201.084 73.9944 205.456 71.4072 209.179C68.9222 212.768 65.2224 215.336 60.9912 216.41C60.6072 216.501 60.2256 216.58 59.844 216.65C57.408 219.904 53.3856 221.248 49.332 221.248ZM33.9936 211.216C35.4936 215.776 40.2072 218.844 44.9544 219.998C49.788 221.174 55.5336 220.516 58.7904 216.787C57.9716 216.872 57.1473 216.89 56.3256 216.842C55.2013 217.581 53.9854 218.17 52.7088 218.594C52.6638 218.61 52.6163 218.616 52.5687 218.614C52.5212 218.611 52.4747 218.599 52.4318 218.579C52.3889 218.558 52.3505 218.529 52.3187 218.494C52.287 218.458 52.2625 218.417 52.2468 218.372C52.231 218.327 52.2242 218.279 52.2269 218.232C52.2295 218.184 52.2415 218.138 52.2621 218.095C52.2827 218.052 52.3115 218.014 52.347 217.982C52.3825 217.95 52.4238 217.926 52.4688 217.91C53.3957 217.601 54.289 217.199 55.1352 216.71C53.5793 216.498 52.0841 215.967 50.7432 215.15C50.52 215.011 50.304 214.864 50.0928 214.711C49.8 214.802 49.5048 214.882 49.2072 214.951C44.0088 216.156 38.2632 214.725 33.9936 211.216ZM60.2904 213.136C59.4339 214.271 58.4289 215.286 57.3024 216.153C58.0118 216.146 58.7199 216.09 59.4216 215.985C59.7394 215.53 60.0172 215.048 60.252 214.545C60.2723 214.502 60.3008 214.464 60.3359 214.432C60.3711 214.401 60.4121 214.376 60.4567 214.361C60.5012 214.345 60.5485 214.338 60.5957 214.34C60.643 214.343 60.6893 214.354 60.732 214.375C60.7747 214.395 60.8129 214.424 60.8446 214.459C60.8763 214.494 60.9007 214.535 60.9166 214.579C60.9324 214.624 60.9393 214.671 60.9368 214.719C60.9344 214.766 60.9227 214.812 60.9024 214.855C60.7499 215.178 60.5809 215.494 60.396 215.8L60.8088 215.707C69.3 213.65 75 205.255 73.5144 196.987C73.0127 194.263 71.7714 191.73 69.9264 189.664C71.2081 193.999 71.0395 198.634 69.4464 202.864C67.7314 207.279 64.48 210.926 60.2904 213.134V213.136ZM51.6312 214.84C53.0262 215.573 54.559 216.005 56.1312 216.11C57.0962 215.458 57.9822 214.696 58.7712 213.84C58.6464 213.892 58.5192 213.943 58.392 213.991C56.4216 214.735 53.976 215.172 51.6312 214.838V214.84ZM33.6744 209.988L33.7368 210.043C37.896 213.861 43.7664 215.474 49.0584 214.26L49.2768 214.207C48.5582 213.911 47.8845 213.516 47.2752 213.033C45.9651 213.029 44.6571 212.932 43.3608 212.743C41.0784 212.409 37.0368 211.504 33.5448 209.071C33.576 209.38 33.6192 209.685 33.6744 209.985V209.988ZM51.6744 214.123C53.9016 214.449 56.2344 214.032 58.1256 213.316C58.6987 213.099 59.2595 212.851 59.8056 212.572C60.7385 211.31 61.4495 209.898 61.908 208.396C62.3195 207.013 62.4995 205.571 62.4408 204.129C62.227 204.673 61.9752 205.202 61.6872 205.711C60.4608 207.871 58.4808 209.733 56.0712 211.01C54.8157 212.313 53.3267 213.368 51.6816 214.12L51.6744 214.123ZM49.9632 213.703C50.1168 213.758 50.2728 213.806 50.4312 213.852C51.6824 213.395 52.8591 212.756 53.9232 211.956L53.6304 212.056C52.1789 212.534 50.6754 212.836 49.152 212.956C49.4184 213.213 49.68 213.463 49.9704 213.7L49.9632 213.703ZM45.0792 208.862C45.6215 210.176 46.4562 211.35 47.52 212.294L47.5416 212.311H47.6304C46.7936 211.25 46.05 210.12 45.408 208.932C45.2928 208.908 45.1896 208.886 45.0864 208.86L45.0792 208.862ZM33.4944 208.142C36.96 210.748 41.148 211.68 43.464 212.028C44.4597 212.174 45.4629 212.264 46.4688 212.299C45.4798 211.237 44.7121 209.988 44.2104 208.627C40.812 207.602 37.5792 205.32 35.1408 202.132C34.1574 203.849 33.598 205.776 33.5088 207.753C33.504 207.888 33.5016 208.02 33.5016 208.149L33.4944 208.142ZM46.3104 209.085C46.9465 210.214 47.6882 211.281 48.5256 212.27C50.1841 212.185 51.824 211.88 53.4024 211.363C54.1701 211.107 54.9165 210.791 55.6344 210.417C56.2354 209.783 56.7665 209.086 57.2184 208.339C57.7334 207.496 58.12 206.581 58.3656 205.624C57.4761 206.109 56.5328 206.487 55.5552 206.752C53.3011 208.431 50.5453 209.298 47.736 209.212C47.2621 209.198 46.7894 209.158 46.32 209.092L46.3104 209.085ZM63.012 202.339C63.3453 204.429 63.2034 206.568 62.5968 208.596C62.263 209.713 61.7939 210.786 61.2 211.79C64.6434 209.624 67.299 206.408 68.7744 202.617C70.483 198.077 70.4907 193.072 68.796 188.527C68.335 188.109 67.8476 187.721 67.3368 187.365C67.3776 187.644 67.4112 187.922 67.44 188.2C67.8864 192.888 66.312 197.812 63.1992 201.592C63.1392 201.84 63.0816 202.099 63.0192 202.346L63.012 202.339ZM59.208 205.132C58.9747 206.398 58.5101 207.611 57.8376 208.708C57.72 208.905 57.5976 209.097 57.4656 209.289C58.9335 208.248 60.1611 206.904 61.0656 205.348C61.5285 204.522 61.8957 203.646 62.16 202.737C61.2757 203.65 60.2874 204.457 59.2152 205.14L59.208 205.132ZM31.0176 206.889C31.5599 207.684 32.1633 208.436 32.8224 209.138C32.8032 208.929 32.7888 208.716 32.7816 208.502C32.5048 208.286 32.2336 208.059 31.968 207.82C31.6416 207.53 31.3248 207.218 31.0248 206.896L31.0176 206.889ZM45.8592 208.284C46.4867 208.4 47.122 208.47 47.76 208.492C49.8363 208.559 51.893 208.072 53.7192 207.081C52.9242 207.156 52.123 207.134 51.3336 207.014C49.7815 206.764 48.3053 206.17 47.0136 205.274C46.4469 205.86 45.7857 206.347 45.0576 206.714C45.2976 207.218 45.5712 207.729 45.852 208.245L45.8592 208.284ZM44.7504 208.027L44.9304 208.075C44.7704 207.763 44.6104 207.453 44.4504 207.146C44.5512 207.448 44.64 207.741 44.7576 208.034L44.7504 208.027ZM42.612 207.259C43.0344 207.448 43.464 207.616 43.896 207.765C43.8312 207.566 43.7688 207.367 43.7112 207.168C43.3518 207.24 42.9857 207.273 42.6192 207.266L42.612 207.259ZM31.1112 190.233C29.4087 191.959 28.3194 194.196 28.0104 196.6C27.5712 200.342 29.2728 204.436 32.448 207.285L32.7864 207.58C32.9102 205.429 33.5569 203.339 34.6704 201.494C32.3711 198.19 31.1322 194.265 31.1184 190.24L31.1112 190.233ZM37.44 199.068C37.4048 199.874 37.4791 200.681 37.6608 201.468C38.184 203.788 39.9024 206.366 42.4416 206.536C42.8018 206.562 43.1638 206.543 43.5192 206.479C43.3872 205.972 43.2792 205.476 43.1784 205.003C43.0776 204.53 42.9816 204.002 42.9 203.52C42.3991 202.133 42.0232 200.705 41.7768 199.252C41.5368 198.801 41.2968 198.372 41.1144 197.978C40.932 197.584 40.7088 197.114 40.512 196.641C39.3883 197.315 38.3558 198.131 37.44 199.068ZM47.4936 204.744C48.6785 205.549 50.0265 206.083 51.4416 206.308C52.7108 206.495 54.0047 206.423 55.2456 206.097C56.6705 205.023 57.7764 203.581 58.4448 201.926C58.416 201.794 58.3824 201.664 58.3488 201.532C57.7512 199.32 56.244 197.484 53.9856 196.226C52.9721 195.666 51.8857 195.25 50.7576 194.99C50.8641 196.213 50.7742 197.446 50.4912 198.64C50.0424 200.57 49.02 202.968 47.5008 204.744H47.4936ZM43.6008 203.337C43.9208 204.233 44.2992 205.148 44.736 206.08C45.3581 205.767 45.9255 205.356 46.416 204.861C45.2617 203.959 44.2362 202.904 43.368 201.724C43.4384 202.248 43.5184 202.785 43.608 203.337H43.6008ZM58.6152 203.263C58.1682 204.082 57.6137 204.839 56.9664 205.512C57.5113 205.277 58.0397 205.006 58.548 204.7C58.6146 204.224 58.6395 203.743 58.6224 203.263H58.6152ZM43.2552 200.296C44.2396 201.84 45.4788 203.205 46.92 204.333C48.36 202.653 49.3536 200.332 49.8 198.475C50.0834 197.285 50.1605 196.055 50.028 194.839C47.9956 194.47 45.9055 194.574 43.92 195.144L43.572 195.252C43.5312 195.456 43.4928 195.66 43.4592 195.866C43.2311 197.331 43.1643 198.817 43.26 200.296H43.2552ZM59.1936 201.976C59.3322 202.706 59.3766 203.451 59.3256 204.192C60.2695 203.538 61.1395 202.783 61.92 201.94L62.1312 201.7C61.7137 199.721 60.841 197.867 59.5824 196.284C59.9038 197.956 59.8406 199.679 59.3976 201.324C59.3472 201.552 59.28 201.77 59.1984 201.986L59.1936 201.976ZM35.5344 201.456L35.6616 201.626C36.3585 202.544 37.136 203.399 37.9848 204.18C37.5129 203.387 37.1672 202.525 36.96 201.626C36.8275 201.045 36.7472 200.454 36.72 199.86C36.2911 200.368 35.8966 200.904 35.5392 201.465L35.5344 201.456ZM31.8336 189.554C31.7565 193.556 32.8918 197.489 35.0904 200.834C35.5801 200.098 36.1317 199.405 36.7392 198.763C36.8346 197.456 37.2527 196.194 37.956 195.088C38.361 194.454 38.8512 193.878 39.4128 193.377C38.8848 191.304 38.6448 189.014 39.0528 186.724C36.8319 186.84 34.6837 187.554 32.8368 188.793C32.4898 189.031 32.1564 189.288 31.8384 189.564L31.8336 189.554ZM50.664 194.222C51.9522 194.498 53.1928 194.962 54.3456 195.6C56.5392 196.824 58.08 198.564 58.836 200.661C59.2048 198.861 59.1298 196.999 58.6176 195.235C56.3544 193.056 53.2176 191.74 49.7808 191.431C50.2149 192.315 50.5142 193.259 50.6688 194.232L50.664 194.222ZM59.2536 194.844L59.4024 194.992C60.9271 196.572 62.039 198.504 62.64 200.616C62.8766 198.954 62.9433 197.272 62.8392 195.597C62.6496 191.944 61.6896 187.171 58.2792 184.622C56.5832 184.566 54.8876 184.742 53.2392 185.145C54.8899 186.736 56.2984 188.56 57.42 190.56C58.2023 191.912 58.8195 193.354 59.2584 194.853L59.2536 194.844ZM59.472 184.682C62.4816 187.49 63.3648 192.024 63.552 195.549C63.6421 197.061 63.6012 198.578 63.4296 200.083C65.892 196.612 67.104 192.34 66.7128 188.26C66.6672 187.78 66.5976 187.3 66.5088 186.82C66.108 186.58 65.6952 186.362 65.2728 186.165C63.4393 185.346 61.4788 184.847 59.4768 184.692L59.472 184.682ZM42.48 199.012C42.4871 199.026 42.4951 199.038 42.504 199.051C42.4912 197.946 42.5715 196.842 42.744 195.751L42.78 195.532L42.24 195.756C42.24 196.029 42.24 196.305 42.24 196.581C42.2699 197.396 42.35 198.208 42.48 199.012ZM39.6336 194.16C39.2288 194.554 38.8712 194.995 38.568 195.472C38.0889 196.224 37.7551 197.06 37.584 197.935C38.4013 197.187 39.2941 196.526 40.248 195.962C40.0272 195.396 39.8184 194.791 39.6336 194.16ZM41.1504 196.279C41.28 196.598 41.4168 196.905 41.5512 197.198C41.5512 196.999 41.5296 196.797 41.5248 196.598C41.52 196.399 41.5248 196.26 41.5248 196.089C41.3928 196.156 41.28 196.219 41.1504 196.284V196.279ZM40.2288 193.639C40.4208 194.328 40.644 194.99 40.8816 195.616C41.0952 195.504 41.3136 195.396 41.532 195.29C41.573 194.387 41.687 193.489 41.8728 192.604C41.2882 192.885 40.7368 193.231 40.2288 193.634V193.639ZM32.2008 184.008L32.1312 184.07C29.3688 186.6 27.7152 190.593 27.5832 195.043C28.1813 192.797 29.4186 190.774 31.1448 189.218C31.2272 187.437 31.5834 185.68 32.2008 184.008ZM42.6888 192.24C42.4718 193.131 42.3321 194.04 42.2712 194.956C42.4944 194.865 42.7176 194.779 42.9456 194.697C43.1665 193.726 43.4799 192.779 43.8816 191.868C43.4771 191.968 43.0788 192.093 42.6888 192.24ZM44.7624 191.678C44.3326 192.561 43.9932 193.485 43.7496 194.436C45.756 193.868 47.8628 193.75 49.92 194.09C49.7445 193.137 49.4137 192.219 48.9408 191.373C47.5407 191.319 46.139 191.422 44.7624 191.683V191.678ZM49.356 190.67C52.6992 190.881 55.8024 191.997 58.1976 193.903C57.8142 192.866 57.3454 191.864 56.796 190.905C55.6273 188.841 54.1411 186.975 52.392 185.373C50.5726 185.904 48.8895 186.822 47.4576 188.064L47.1768 188.325C47.9267 188.887 48.585 189.563 49.128 190.327C49.2 190.444 49.284 190.56 49.356 190.675V190.67ZM39.7944 186.7C39.4401 188.751 39.5218 190.854 40.0344 192.871C40.6683 192.402 41.3565 192.011 42.084 191.707C42.4894 190.184 43.1377 188.737 44.004 187.42C43.3278 187.175 42.6304 186.993 41.9208 186.876C41.2212 186.759 40.5132 186.7 39.804 186.7H39.7944ZM44.6784 187.692C43.9101 188.831 43.3179 190.079 42.9216 191.395C43.2881 191.274 43.6606 191.172 44.0376 191.09L44.2776 191.04C44.7672 190.1 45.3727 189.226 46.08 188.438C45.6323 188.155 45.1637 187.908 44.6784 187.696V187.692ZM46.6704 188.844C46.1078 189.465 45.613 190.145 45.1944 190.872C46.2751 190.698 47.3687 190.618 48.4632 190.632C47.9582 189.951 47.3539 189.35 46.6704 188.848V188.844ZM33.324 183.12C32.5112 184.843 32.023 186.701 31.884 188.601C32.0616 188.464 32.244 188.332 32.4312 188.205C34.4424 186.856 36.7889 186.093 39.2088 186C39.2376 185.88 39.2688 185.76 39.3024 185.64C39.8083 183.833 40.7222 182.167 41.9736 180.77C38.8296 180.602 35.7456 181.423 33.324 183.12ZM45.12 187.101C45.6289 187.333 46.1199 187.603 46.5888 187.908C46.7184 187.778 46.8528 187.653 46.9896 187.531C48.3845 186.316 50.0119 185.397 51.7728 184.831C51.2301 184.374 50.6629 183.948 50.0736 183.554C48.7674 183.984 47.5623 184.675 46.5312 185.584C46.0153 186.046 45.5429 186.553 45.12 187.101ZM67.164 186.381C67.524 186.607 67.884 186.861 68.2152 187.101C67.7429 186.073 67.1807 185.088 66.5352 184.159C66.7927 184.887 66.9996 185.632 67.1544 186.388L67.164 186.381ZM39.9624 185.978C40.6588 185.987 41.3536 186.049 42.0408 186.163C42.8602 186.298 43.6641 186.514 44.4408 186.808C44.92 186.167 45.4619 185.574 46.0584 185.04C47.0129 184.193 48.1077 183.519 49.2936 183.048C48.2186 182.401 47.0747 181.877 45.8832 181.485C44.91 181.168 43.9073 180.95 42.8904 180.835C41.5317 182.231 40.542 183.943 40.0104 185.817L39.9624 185.978ZM58.5384 183.912C60.9679 183.984 63.3599 184.53 65.58 185.52C65.82 185.635 66.06 185.76 66.3 185.882C65.9504 184.505 65.4202 183.181 64.7232 181.944C61.5288 178.584 57.2256 176.544 52.812 176.544H52.572C49.2121 176.627 45.9958 177.922 43.5168 180.192C44.3868 180.325 45.2442 180.53 46.08 180.806C47.5163 181.278 48.8872 181.929 50.16 182.745C52.8504 181.934 55.7544 182.184 58.0368 183.597C58.2096 183.7 58.3704 183.806 58.5288 183.919L58.5384 183.912ZM50.9952 183.288C51.5549 183.686 52.094 184.113 52.6104 184.567C54.0897 184.165 55.6117 183.942 57.144 183.902C55.3176 182.988 53.1024 182.803 50.9856 183.295L50.9952 183.288ZM50.4792 174.069C48.6668 174.082 46.8616 174.3 45.0984 174.72C41.2584 175.608 38.1648 177.189 35.94 179.419C35.2094 180.149 34.5651 180.961 34.02 181.838C36.6433 180.415 39.6325 179.811 42.6024 180.103C45.2565 177.462 48.8217 175.938 52.5648 175.845C56.2512 175.79 59.8728 177.084 62.8968 179.371C61.8031 178.093 60.4986 177.013 59.04 176.176C56.5968 174.787 53.6544 174.076 50.4696 174.076L50.4792 174.069Z" fill="#E3E2E2"/>
<path d="M78.9867 75.8674C78.0939 75.8674 77.1987 75.8458 76.3059 75.8074C72.6651 75.6442 68.0307 75.0082 64.4883 71.5114C62.2635 69.313 60.1851 65.6074 60.5571 62.2858C60.7707 60.3874 61.7835 58.8274 63.4875 57.769C65.3211 56.6314 67.6059 56.9242 69.3075 58.5178C70.7907 59.905 71.7483 62.3266 70.5363 64.6018C69.8811 65.833 68.5467 66.6562 67.3035 66.6034C66.2955 66.5602 65.4675 65.9482 65.0307 64.9234C64.9935 64.8364 64.9738 64.7429 64.9727 64.6483C64.9717 64.5537 64.9892 64.4598 65.0244 64.372C65.0597 64.2842 65.1118 64.2042 65.178 64.1366C65.2441 64.0689 65.3229 64.015 65.4099 63.9778C65.4969 63.9406 65.5903 63.9209 65.6849 63.9198C65.7795 63.9187 65.8734 63.9363 65.9612 63.9715C66.049 64.0067 66.129 64.0589 66.1967 64.125C66.2643 64.1912 66.3183 64.27 66.3555 64.357C66.5787 64.8802 66.9099 65.1442 67.3659 65.1634C68.0475 65.185 68.8731 64.6594 69.2667 63.9226C70.1187 62.3194 69.4059 60.5794 68.3235 59.5666C67.3635 58.6642 65.7819 58.0378 64.2435 58.9906C62.9115 59.8186 62.1507 60.9802 61.9875 62.4418C61.6683 65.2714 63.5835 68.593 65.4987 70.4842C68.6907 73.6378 72.9843 74.2138 76.3683 74.365C81.4189 74.5908 86.4776 74.1632 91.4187 73.093C91.6055 73.0529 91.8006 73.0886 91.9611 73.1924C92.1215 73.2961 92.2342 73.4593 92.2743 73.6462C92.3144 73.833 92.2786 74.0281 92.1749 74.1885C92.0711 74.349 91.9079 74.4617 91.7211 74.5018C87.5368 75.4079 83.2679 75.8656 78.9867 75.8674ZM151.123 89.6266C144.72 89.6266 138.115 88.957 133.123 84.9202C129.691 82.153 127.428 78.2386 127.073 74.4538C126.926 73.0535 127.066 71.6378 127.487 70.2939C127.907 68.95 128.598 67.7063 129.516 66.6394C131.033 64.8538 133.135 63.6946 135.276 63.4618C137.77 63.1906 140.316 64.2226 141.619 66.0322C141.99 66.5472 142.254 67.1307 142.396 67.7488C142.539 68.3668 142.557 69.007 142.45 69.6322C142.364 70.1796 142.169 70.7042 141.876 71.1747C141.584 71.6451 141.199 72.0518 140.746 72.3706C139.653 73.0398 138.345 73.2659 137.09 73.0026C135.836 72.7394 134.729 72.0068 133.997 70.9546C133.947 70.874 133.914 70.7845 133.899 70.6911C133.884 70.5977 133.888 70.5023 133.909 70.4102C133.931 70.3182 133.971 70.2314 134.026 70.1547C134.082 70.078 134.152 70.013 134.232 69.9634C134.313 69.9137 134.402 69.8804 134.496 69.8654C134.589 69.8503 134.685 69.8538 134.777 69.8757C134.869 69.8975 134.955 69.9373 135.032 69.9927C135.109 70.0481 135.174 70.118 135.223 70.1986C135.749 70.911 136.518 71.4049 137.385 71.5859C138.251 71.767 139.154 71.6225 139.92 71.1802C140.215 70.9697 140.466 70.7022 140.656 70.3934C140.846 70.0847 140.972 69.7409 141.027 69.3826C141.099 68.9469 141.086 68.5011 140.986 68.0707C140.886 67.6404 140.703 67.2339 140.446 66.8746C139.452 65.4946 137.391 64.681 135.427 64.8922C133.538 65.1438 131.814 66.1006 130.601 67.5706C129.808 68.4924 129.213 69.5667 128.85 70.7272C128.488 71.8878 128.367 73.1102 128.494 74.3194C128.815 77.725 130.879 81.2794 134.014 83.7994C139.879 88.5322 148.397 88.3018 155.911 88.1002C156.991 88.0714 158.014 88.045 159.031 88.0306L160.311 88.0138C170.367 87.877 180.761 87.7378 190.865 86.953C191.056 86.938 191.245 86.9995 191.391 87.124C191.536 87.2484 191.627 87.4256 191.641 87.6166C191.656 87.8075 191.595 87.9966 191.47 88.1422C191.346 88.2878 191.169 88.378 190.978 88.393C180.828 89.1826 170.407 89.3218 160.33 89.4586L159.051 89.4754C158.045 89.4898 157.027 89.5162 155.952 89.545C154.375 89.5834 152.755 89.6266 151.123 89.6266ZM113.014 200.797C110.122 200.797 107.239 200.334 105.012 198.272C102.24 195.716 100.771 191.041 103.483 187.398C104.323 186.27 105.478 185.516 106.647 185.327C107.322 185.209 108.017 185.293 108.645 185.569C109.273 185.845 109.805 186.3 110.175 186.877C110.959 188.175 110.686 189.98 109.567 190.897C109.265 191.131 108.916 191.297 108.544 191.384C108.171 191.47 107.784 191.474 107.41 191.396C107.036 191.318 106.683 191.159 106.376 190.931C106.069 190.704 105.815 190.412 105.631 190.076C105.585 189.992 105.556 189.899 105.546 189.803C105.537 189.707 105.546 189.61 105.574 189.518C105.603 189.426 105.649 189.341 105.711 189.267C105.773 189.193 105.849 189.132 105.935 189.089C106.021 189.045 106.114 189.018 106.21 189.011C106.307 189.005 106.403 189.017 106.494 189.048C106.585 189.079 106.67 189.128 106.742 189.192C106.813 189.256 106.872 189.334 106.913 189.421C106.998 189.566 107.112 189.691 107.248 189.789C107.385 189.886 107.54 189.955 107.704 189.989C107.868 190.023 108.038 190.022 108.201 189.987C108.365 189.952 108.52 189.882 108.655 189.783C109.212 189.327 109.349 188.295 108.941 187.623C108.719 187.293 108.406 187.034 108.04 186.878C107.673 186.723 107.269 186.677 106.877 186.747C106.073 186.877 105.257 187.429 104.638 188.257C102.509 191.115 103.654 195.056 105.989 197.216C108.706 199.727 112.87 199.446 116.549 199.199C117.082 199.163 117.605 199.127 118.114 199.1L118.764 199.067C123.778 198.805 128.964 198.536 134.007 197.9C134.193 197.883 134.379 197.938 134.525 198.055C134.671 198.172 134.765 198.341 134.789 198.527C134.812 198.713 134.762 198.9 134.65 199.049C134.538 199.199 134.371 199.299 134.187 199.328C129.091 199.971 123.867 200.243 118.827 200.504L118.176 200.538C117.675 200.564 117.159 200.6 116.633 200.634C115.462 200.715 114.24 200.797 113.014 200.797Z" fill="#E3E2E2"/>
<defs>
<linearGradient id="paint0_linear_401_37760" x1="56.2348" y1="71.534" x2="56.2348" y2="267.89" gradientUnits="userSpaceOnUse">
<stop stop-color="#B1B8BC" stop-opacity="0.1"/>
<stop offset="1" stop-color="#B1B8BC" stop-opacity="0.25"/>
</linearGradient>
<linearGradient id="paint1_linear_401_37760" x1="104.383" y1="89.2736" x2="111.002" y2="289.28" gradientUnits="userSpaceOnUse">
<stop offset="0.14" stop-color="#E1E4E8" stop-opacity="0.5"/>
<stop offset="1" stop-color="#E1E4E8"/>
</linearGradient>
<linearGradient id="paint2_linear_401_37760" x1="62.5299" y1="112.463" x2="62.5299" y2="232.074" gradientUnits="userSpaceOnUse">
<stop stop-color="#B1B8BC" stop-opacity="0"/>
<stop offset="1" stop-color="#B1B8BC" stop-opacity="0.5"/>
</linearGradient>
<linearGradient id="paint3_linear_401_37760" x1="64.2499" y1="112.461" x2="64.2499" y2="232.073" gradientUnits="userSpaceOnUse">
<stop stop-color="#B1B8BC" stop-opacity="0"/>
<stop offset="1" stop-color="#B1B8BC" stop-opacity="0.5"/>
</linearGradient>
<linearGradient id="paint4_linear_401_37760" x1="57.713" y1="112.463" x2="57.713" y2="232.074" gradientUnits="userSpaceOnUse">
<stop stop-color="#B1B8BC" stop-opacity="0"/>
<stop offset="1" stop-color="#B1B8BC" stop-opacity="0.5"/>
</linearGradient>
<linearGradient id="paint5_linear_401_37760" x1="63.9476" y1="112.461" x2="63.9476" y2="232.072" gradientUnits="userSpaceOnUse">
<stop stop-color="#B1B8BC" stop-opacity="0"/>
<stop offset="1" stop-color="#B1B8BC" stop-opacity="0.5"/>
</linearGradient>
<linearGradient id="paint6_linear_401_37760" x1="73.915" y1="112.464" x2="73.915" y2="232.075" gradientUnits="userSpaceOnUse">
<stop stop-color="#B1B8BC" stop-opacity="0"/>
<stop offset="1" stop-color="#B1B8BC" stop-opacity="0.5"/>
</linearGradient>
<linearGradient id="paint7_linear_401_37760" x1="82.4519" y1="112.462" x2="82.4519" y2="232.073" gradientUnits="userSpaceOnUse">
<stop stop-color="#B1B8BC" stop-opacity="0"/>
<stop offset="1" stop-color="#B1B8BC" stop-opacity="0.5"/>
</linearGradient>
<linearGradient id="paint8_linear_401_37760" x1="63.4321" y1="112.461" x2="63.4321" y2="232.072" gradientUnits="userSpaceOnUse">
<stop stop-color="#B1B8BC" stop-opacity="0"/>
<stop offset="1" stop-color="#B1B8BC" stop-opacity="0.5"/>
</linearGradient>
<linearGradient id="paint9_linear_401_37760" x1="42.1298" y1="112.462" x2="42.1298" y2="232.073" gradientUnits="userSpaceOnUse">
<stop stop-color="#B1B8BC" stop-opacity="0"/>
<stop offset="1" stop-color="#B1B8BC" stop-opacity="0.5"/>
</linearGradient>
<linearGradient id="paint10_linear_401_37760" x1="50.3902" y1="112.461" x2="50.3902" y2="232.072" gradientUnits="userSpaceOnUse">
<stop stop-color="#B1B8BC" stop-opacity="0"/>
<stop offset="1" stop-color="#B1B8BC" stop-opacity="0.5"/>
</linearGradient>
<linearGradient id="paint11_linear_401_37760" x1="97.3507" y1="112.462" x2="97.3507" y2="232.072" gradientUnits="userSpaceOnUse">
<stop stop-color="#B1B8BC" stop-opacity="0"/>
<stop offset="1" stop-color="#B1B8BC" stop-opacity="0.5"/>
</linearGradient>
<linearGradient id="paint12_linear_401_37760" x1="100.017" y1="112.461" x2="100.017" y2="232.072" gradientUnits="userSpaceOnUse">
<stop stop-color="#B1B8BC" stop-opacity="0"/>
<stop offset="1" stop-color="#B1B8BC" stop-opacity="0.5"/>
</linearGradient>
<linearGradient id="paint13_linear_401_37760" x1="105.07" y1="112.462" x2="105.07" y2="232.073" gradientUnits="userSpaceOnUse">
<stop stop-color="#B1B8BC" stop-opacity="0"/>
<stop offset="1" stop-color="#B1B8BC" stop-opacity="0.5"/>
</linearGradient>
<linearGradient id="paint14_linear_401_37760" x1="103.452" y1="112.463" x2="103.452" y2="232.074" gradientUnits="userSpaceOnUse">
<stop stop-color="#B1B8BC" stop-opacity="0"/>
<stop offset="1" stop-color="#B1B8BC" stop-opacity="0.5"/>
</linearGradient>
<linearGradient id="paint15_linear_401_37760" x1="107.52" y1="112.462" x2="107.52" y2="232.073" gradientUnits="userSpaceOnUse">
<stop stop-color="#B1B8BC" stop-opacity="0"/>
<stop offset="1" stop-color="#B1B8BC" stop-opacity="0.5"/>
</linearGradient>
<linearGradient id="paint16_linear_401_37760" x1="104.073" y1="112.462" x2="104.073" y2="232.073" gradientUnits="userSpaceOnUse">
<stop stop-color="#B1B8BC" stop-opacity="0"/>
<stop offset="1" stop-color="#B1B8BC" stop-opacity="0.5"/>
</linearGradient>
<linearGradient id="paint17_linear_401_37760" x1="124.234" y1="112.462" x2="124.234" y2="232.073" gradientUnits="userSpaceOnUse">
<stop stop-color="#B1B8BC" stop-opacity="0"/>
<stop offset="1" stop-color="#B1B8BC" stop-opacity="0.5"/>
</linearGradient>
<linearGradient id="paint18_linear_401_37760" x1="119.376" y1="112.462" x2="119.376" y2="232.073" gradientUnits="userSpaceOnUse">
<stop stop-color="#B1B8BC" stop-opacity="0"/>
<stop offset="1" stop-color="#B1B8BC" stop-opacity="0.5"/>
</linearGradient>
<linearGradient id="paint19_linear_401_37760" x1="121.198" y1="112.462" x2="121.198" y2="232.073" gradientUnits="userSpaceOnUse">
<stop stop-color="#B1B8BC" stop-opacity="0"/>
<stop offset="1" stop-color="#B1B8BC" stop-opacity="0.5"/>
</linearGradient>
<linearGradient id="paint20_linear_401_37760" x1="116.873" y1="112.461" x2="116.873" y2="232.073" gradientUnits="userSpaceOnUse">
<stop stop-color="#B1B8BC" stop-opacity="0"/>
<stop offset="1" stop-color="#B1B8BC" stop-opacity="0.5"/>
</linearGradient>
<linearGradient id="paint21_linear_401_37760" x1="109.435" y1="112.463" x2="109.435" y2="232.074" gradientUnits="userSpaceOnUse">
<stop stop-color="#B1B8BC" stop-opacity="0"/>
<stop offset="1" stop-color="#B1B8BC" stop-opacity="0.5"/>
</linearGradient>
<linearGradient id="paint22_linear_401_37760" x1="104.825" y1="112.462" x2="104.825" y2="232.073" gradientUnits="userSpaceOnUse">
<stop stop-color="#B1B8BC" stop-opacity="0"/>
<stop offset="1" stop-color="#B1B8BC" stop-opacity="0.5"/>
</linearGradient>
<linearGradient id="paint23_linear_401_37760" x1="97.6795" y1="112.461" x2="97.6795" y2="232.073" gradientUnits="userSpaceOnUse">
<stop stop-color="#B1B8BC" stop-opacity="0"/>
<stop offset="1" stop-color="#B1B8BC" stop-opacity="0.5"/>
</linearGradient>
<linearGradient id="paint24_linear_401_37760" x1="99.7971" y1="112.462" x2="99.7971" y2="232.073" gradientUnits="userSpaceOnUse">
<stop stop-color="#B1B8BC" stop-opacity="0"/>
<stop offset="1" stop-color="#B1B8BC" stop-opacity="0.5"/>
</linearGradient>
<linearGradient id="paint25_linear_401_37760" x1="110.815" y1="112.463" x2="110.815" y2="232.074" gradientUnits="userSpaceOnUse">
<stop stop-color="#B1B8BC" stop-opacity="0"/>
<stop offset="1" stop-color="#B1B8BC" stop-opacity="0.5"/>
</linearGradient>
<linearGradient id="paint26_linear_401_37760" x1="119.261" y1="112.462" x2="119.261" y2="232.074" gradientUnits="userSpaceOnUse">
<stop stop-color="#B1B8BC" stop-opacity="0"/>
<stop offset="1" stop-color="#B1B8BC" stop-opacity="0.5"/>
</linearGradient>
<linearGradient id="paint27_linear_401_37760" x1="116.472" y1="112.461" x2="116.472" y2="232.073" gradientUnits="userSpaceOnUse">
<stop stop-color="#B1B8BC" stop-opacity="0"/>
<stop offset="1" stop-color="#B1B8BC" stop-opacity="0.5"/>
</linearGradient>
<linearGradient id="paint28_linear_401_37760" x1="102.593" y1="112.462" x2="102.593" y2="232.073" gradientUnits="userSpaceOnUse">
<stop stop-color="#B1B8BC" stop-opacity="0"/>
<stop offset="1" stop-color="#B1B8BC" stop-opacity="0.5"/>
</linearGradient>
<linearGradient id="paint29_linear_401_37760" x1="87.6723" y1="112.461" x2="87.6723" y2="232.072" gradientUnits="userSpaceOnUse">
<stop stop-color="#B1B8BC" stop-opacity="0"/>
<stop offset="1" stop-color="#B1B8BC" stop-opacity="0.5"/>
</linearGradient>
<linearGradient id="paint30_linear_401_37760" x1="132.943" y1="112.462" x2="132.943" y2="232.073" gradientUnits="userSpaceOnUse">
<stop stop-color="#B1B8BC" stop-opacity="0"/>
<stop offset="1" stop-color="#B1B8BC" stop-opacity="0.5"/>
</linearGradient>
<linearGradient id="paint31_linear_401_37760" x1="135.449" y1="112.462" x2="135.449" y2="232.073" gradientUnits="userSpaceOnUse">
<stop stop-color="#B1B8BC" stop-opacity="0"/>
<stop offset="1" stop-color="#B1B8BC" stop-opacity="0.5"/>
</linearGradient>
<linearGradient id="paint32_linear_401_37760" x1="140.316" y1="112.462" x2="140.316" y2="232.073" gradientUnits="userSpaceOnUse">
<stop stop-color="#B1B8BC" stop-opacity="0"/>
<stop offset="1" stop-color="#B1B8BC" stop-opacity="0.5"/>
</linearGradient>
<linearGradient id="paint33_linear_401_37760" x1="156.427" y1="112.462" x2="156.427" y2="232.073" gradientUnits="userSpaceOnUse">
<stop stop-color="#B1B8BC" stop-opacity="0"/>
<stop offset="1" stop-color="#B1B8BC" stop-opacity="0.5"/>
</linearGradient>
<linearGradient id="paint34_linear_401_37760" x1="168.444" y1="112.461" x2="168.444" y2="232.072" gradientUnits="userSpaceOnUse">
<stop stop-color="#B1B8BC" stop-opacity="0"/>
<stop offset="1" stop-color="#B1B8BC" stop-opacity="0.5"/>
</linearGradient>
<linearGradient id="paint35_linear_401_37760" x1="145.193" y1="112.463" x2="145.193" y2="232.074" gradientUnits="userSpaceOnUse">
<stop stop-color="#B1B8BC" stop-opacity="0"/>
<stop offset="1" stop-color="#B1B8BC" stop-opacity="0.5"/>
</linearGradient>
<linearGradient id="paint36_linear_401_37760" x1="111.185" y1="112.462" x2="111.185" y2="232.074" gradientUnits="userSpaceOnUse">
<stop stop-color="#B1B8BC" stop-opacity="0"/>
<stop offset="1" stop-color="#B1B8BC" stop-opacity="0.5"/>
</linearGradient>
<linearGradient id="paint37_linear_401_37760" x1="121.027" y1="112.461" x2="121.027" y2="232.073" gradientUnits="userSpaceOnUse">
<stop stop-color="#B1B8BC" stop-opacity="0"/>
<stop offset="1" stop-color="#B1B8BC" stop-opacity="0.5"/>
</linearGradient>
</defs>
</svg>
