<svg width="141" height="141" viewBox="0 0 141 141" fill="none" xmlns="http://www.w3.org/2000/svg">
<path d="M133.413 55.2404C132.13 47.0665 125.416 40.4707 116.557 38.6794C93.9404 34.1069 70.4968 34.1069 47.8804 38.6794C39.0221 40.4707 32.3087 47.0671 31.025 55.2404C28.8237 69.2588 28.8237 83.4904 31.025 97.5087C32.3081 105.683 39.0215 112.278 47.8804 114.07C70.4968 118.643 93.9404 118.643 116.557 114.07C125.416 112.278 132.129 105.683 133.413 97.5087L133.533 96.7426C135.654 83.2325 135.654 69.5167 133.533 56.0071L133.413 55.2404Z" fill="white" fill-opacity="0.2"/>
<path d="M70.4708 117.477C82.4159 117.471 94.3609 116.301 105.973 113.954C117.173 111.688 125.813 103.088 127.471 92.5483L127.592 91.7792C128.98 82.898 129.502 73.8558 129.135 64.8888C129.003 61.647 126.427 59.002 123.025 59.2605C119.783 59.3927 117.265 62.1293 117.397 65.3705C117.729 73.5632 117.253 81.8364 115.98 89.9551L115.859 90.7241C114.965 96.4328 110.053 101.143 103.645 102.434C81.9459 106.829 58.997 106.829 37.2982 102.434C30.8839 101.138 25.973 96.4328 25.0835 90.7241C23.5848 81.1978 23.2029 71.5775 23.8321 61.993C45.0491 59.1636 66.6121 58.176 88.0389 59.2494C91.2343 59.4562 94.0343 56.9088 94.2006 53.6728C94.3609 50.431 91.8652 47.6715 88.624 47.5111C67.4705 46.4642 46.1519 47.366 25.1511 49.9951C26.1557 44.4191 30.9891 39.8413 37.2976 38.5659C51.9276 35.6054 66.9306 34.6073 81.8707 35.6401C85.25 35.7952 87.9119 33.4082 88.1358 30.1781C88.3537 26.9363 85.9097 24.1369 82.6738 23.913C72.7198 23.2386 62.7599 23.4912 52.8746 24.4647V23.5C52.8746 20.2529 50.2467 17.625 46.9996 17.625C43.7525 17.625 41.1246 20.2529 41.1246 23.5V26.0157C39.0719 26.3558 37.0092 26.6337 34.9682 27.0456C23.7634 29.3121 15.123 37.9178 13.471 48.4517C13.1831 50.2871 13.0386 52.133 12.823 53.9742C12.2038 55.0717 11.8483 56.3295 12.0481 57.6713C12.088 57.9404 12.2278 58.1607 12.3025 58.4151C11.3313 69.7897 11.6956 81.2283 13.471 92.543C15.1236 103.082 23.764 111.688 34.9688 113.954C46.5807 116.301 58.5258 117.477 70.4708 117.477Z" fill="#BE7D44"/>
<path d="M111.625 52.875C121.359 52.875 129.25 44.984 129.25 35.25C129.25 25.516 121.359 17.625 111.625 17.625C101.891 17.625 94 25.516 94 35.25C94 44.984 101.891 52.875 111.625 52.875Z" fill="#BE7D44"/>
</svg>
