<svg width="108" height="108" viewBox="0 0 108 108" fill="none" xmlns="http://www.w3.org/2000/svg">
<circle cx="54" cy="54" r="54" fill="#F2F2F2"/>
<path d="M46.9699 77.2321L40.4054 77.1717L34.5334 77.0816L28.9927 77.0212C25.7707 77.0212 26.8246 77.4429 29.9865 77.8043C34.5248 78.3115 39.0966 78.4524 43.6575 78.2257L52.7214 77.7439C53.9356 77.7042 55.1443 77.5631 56.3351 77.3222C57.9009 76.9912 55.552 77.0512 52.8117 77.1116L46.9699 77.2321ZM74.3722 77.0512L70.1865 76.8707C67.8078 76.7803 64.9471 76.7199 62.8694 76.8103C58.7437 76.9608 65.5793 78.3161 72.2341 77.9548C78.8892 77.5934 78.3771 77.9548 80.3647 77.533C81.3583 77.2921 79.8528 77.2017 78.1061 77.1416L74.3722 77.0512Z" fill="#11151A"/>
<path d="M30.7701 50.6743C31.2191 50.6743 31.5831 50.3102 31.5831 49.8612C31.5831 49.4122 31.2191 49.0482 30.7701 49.0482C30.3211 49.0482 29.957 49.4122 29.957 49.8612C29.957 50.3102 30.3211 50.6743 30.7701 50.6743ZM80.2752 38.5088C81.5556 38.5088 82.5938 37.4707 82.5938 36.1901C82.5938 34.9096 81.5556 33.8715 80.2752 33.8715C78.9945 33.8715 77.9566 34.9096 77.9566 36.1901C77.9566 37.4707 78.9945 38.5088 80.2752 38.5088ZM75.7882 52.0895L76.7518 52.6918C76.9636 52.8903 77.2446 52.9984 77.5349 52.9929C77.8175 52.9697 78.0858 52.8585 78.3019 52.6748C78.5179 52.4911 78.671 52.2443 78.7394 51.9691C78.7615 51.8337 78.8021 51.702 78.8598 51.5776L78.9503 51.4271H78.9803C78.9502 51.4873 78.9503 51.4873 79.0103 51.5174C79.172 51.6155 79.3435 51.6962 79.5221 51.7583L80.0944 52.0895L82.2324 53.2338C82.5034 53.3543 83.2865 52.9929 82.9251 52.8122L80.787 51.6077C80.1848 51.3066 79.4921 50.7345 78.7694 50.9452C78.0467 51.1561 78.0167 51.6379 77.8358 52.1497C77.6553 52.6617 77.6253 52.4208 77.6253 52.5412C77.6253 52.6617 77.5949 52.5713 77.6553 52.5111C77.7154 52.4509 77.7758 52.4509 77.6553 52.4207L77.4745 52.3003L76.4809 51.668C76.24 51.5174 75.4268 51.8788 75.7882 52.0895ZM73.6201 44.5915L75.6377 44.2603C75.9086 44.2001 76.24 44.0495 76.4508 44.3205C76.5217 44.5068 76.6235 44.6799 76.7518 44.8324C77.3841 45.525 78.9803 45.3443 79.4921 44.5614L78.679 44.712C78.9012 44.9549 79.1708 45.1497 79.4713 45.2843C79.7717 45.419 80.0965 45.4907 80.4257 45.4949C80.8771 45.4949 81.7807 45.3443 81.8407 44.7722C81.9011 44.2001 81.0279 44.5614 80.9675 44.8625C80.9075 45.1636 80.4557 44.9529 80.3353 44.9228C80.0099 44.8074 79.7196 44.6104 79.4921 44.3506C79.3611 44.2739 79.2068 44.2469 79.0575 44.2746C78.9083 44.3023 78.7739 44.3827 78.679 44.5012C78.4381 44.8927 77.6854 44.712 77.4745 44.3807C77.2636 44.0495 77.2336 43.8387 76.9023 43.7183C76.5713 43.5978 75.9086 43.6882 75.4569 43.7785L73.7405 44.0495C73.56 44.0796 73.2587 44.17 73.2287 44.3807C73.1987 44.5915 73.4696 44.6216 73.6201 44.5915ZM46.8502 32.8477C42.7247 42.303 42.514 57.028 44.0798 67.3266C44.0798 67.3266 49.5904 61.6351 52.5414 55.4922L55.4625 49.3493C55.4625 49.3493 58.8351 56.5161 62.4486 60.0996C64.6641 62.2698 67.2295 64.0512 70.0369 65.3691C68.4407 56.3657 67.4471 41.8814 71.3619 33.7811L46.8502 32.8477Z" fill="#5158F6"/>
<path d="M46.0062 74.0126C46.0024 74.059 45.9808 74.1022 45.946 74.1331L45.7051 74.4944C45.3144 74.8583 44.8378 75.1173 44.32 75.2472L43.0251 75.4881L41.4291 75.6689C40.2092 75.8052 38.9829 75.8755 37.7554 75.8794H35.7379L34.8345 75.8194C34.6306 75.7858 34.4417 75.6913 34.2925 75.5484C33.9914 75.2772 33.7806 74.7053 33.5999 74.0427L33.4794 73.5609C33.4381 73.423 33.4079 73.2821 33.3891 73.1394C33.3844 73.048 33.3945 72.9563 33.4192 72.8682C33.4358 72.7739 33.4662 72.6826 33.5096 72.5973C33.6513 72.3556 33.8233 72.133 34.0214 71.9349C34.2385 71.7281 34.47 71.5369 34.7141 71.3627C35.2141 71.0367 35.7631 70.7928 36.3401 70.64C37.4137 70.3614 38.5502 70.457 39.5621 70.911C40.221 71.2075 40.8304 71.6037 41.3689 72.0854C41.7002 72.3564 41.8206 72.3864 41.8206 72.1758C41.687 71.7102 41.4384 71.2856 41.0979 70.941C40.4084 70.2041 39.5355 69.6637 38.5685 69.3751C37.1258 68.9982 35.5954 69.1587 34.2624 69.8269C33.8876 70.0362 33.5256 70.2675 33.1783 70.5196C32.8201 70.8239 32.4969 71.1673 32.2147 71.5432C32.0604 71.7705 31.9293 72.0126 31.8233 72.2659C31.737 72.5592 31.6964 72.8639 31.7028 73.1695C31.7013 73.4331 31.7317 73.6959 31.7932 73.9522C31.8534 74.1631 31.8835 74.374 31.9437 74.5848C32.0628 75.0779 32.245 75.5535 32.4857 75.9999C32.7571 76.5769 33.2276 77.0367 33.8107 77.2948C34.3332 77.5208 34.8976 77.6337 35.4669 77.6261H36.8822C38.8013 77.5848 40.7142 77.3935 42.6035 77.0539C43.3909 76.9137 44.1661 76.7123 44.9222 76.4517C45.6741 76.1967 46.3271 75.7123 46.7891 75.0666C47.1454 74.501 47.3717 73.8632 47.4516 73.1995C47.5483 72.6632 47.5886 72.1183 47.5721 71.5736C47.5574 70.6941 47.4667 69.8176 47.3011 68.9537C47.2107 68.5924 47.1505 68.2611 47.0602 67.9601C46.9698 67.6588 46.8494 67.147 46.7591 66.7856L45.6148 66.9965L44.8921 67.1169L43.6876 67.2975L42.6336 67.4483L41.9711 67.5684L41.3087 67.6888C41.4593 68.1706 41.67 68.7128 41.8507 69.1946C42.0314 69.6764 42.2422 70.0077 42.2723 69.7065C42.2619 69.4536 42.2317 69.2019 42.182 68.9537C42.185 68.8722 42.1749 68.791 42.1518 68.7128V68.5623C42.1269 68.464 42.1168 68.3624 42.1217 68.2611H42.6939L43.9285 68.1406L45.2534 67.9901L45.8557 67.9297H46.0364C46.1009 68.1677 46.1512 68.4089 46.1869 68.6528C46.2773 69.0742 46.3375 69.4956 46.3977 69.9173C46.491 70.6361 46.5112 71.3625 46.4579 72.0854C46.4323 72.5846 46.3515 73.0794 46.217 73.5609C46.1591 73.7169 46.0886 73.868 46.0062 74.0126ZM73.7398 71.2423C73.7398 71.2423 73.8002 71.4832 73.9507 71.9049L74.1916 72.6576C74.2417 72.7507 74.2724 72.8533 74.282 72.9586C74.2559 72.9956 74.2358 73.0362 74.2216 73.0791L74.1011 73.1995L73.9206 73.4104L73.4989 73.8018C73.1474 74.0706 72.7629 74.2933 72.3548 74.4644C71.3697 74.876 70.3197 75.1105 69.2531 75.1571C68.0786 75.2775 66.8441 75.3075 65.9709 74.8257C65.0977 74.3439 64.5556 73.2299 64.706 72.3263C64.7657 71.8552 65.0027 71.4245 65.3687 71.1218C65.7703 70.7436 66.2272 70.4288 66.7237 70.1883C67.7173 69.7065 68.7413 69.556 69.524 69.8873C69.8719 70.016 70.1972 70.1991 70.4876 70.4292C70.6833 70.5945 70.8648 70.7757 71.0298 70.9713C71.2707 71.2423 71.3912 71.3027 71.4212 71.0918C71.4068 70.6372 71.2367 70.2014 70.9394 69.8573C70.6782 69.5254 70.3625 69.2402 70.0058 69.0141C69.5415 68.7296 69.014 68.5641 68.4703 68.5323C67.8301 68.4864 67.1873 68.5577 66.5732 68.7429C65.8896 68.9607 65.2406 69.275 64.646 69.6764C64.302 69.9197 63.9973 70.2142 63.7424 70.5496C63.456 70.9178 63.2415 71.3368 63.1102 71.7845C62.8792 72.7401 63.0075 73.7476 63.4715 74.6149C63.7108 75.0593 64.0154 75.4653 64.375 75.8194L65.0073 76.2711C65.2258 76.4058 65.4578 76.5167 65.7 76.6025C66.6154 76.9311 67.5942 77.0447 68.5604 76.9335C69.4745 76.8919 70.3824 76.7609 71.2707 76.5421C72.2079 76.2975 73.0946 75.8897 73.8906 75.3376C74.2662 75.0663 74.6096 74.7531 74.9143 74.404C75.0862 74.2202 75.2377 74.0186 75.366 73.8018C75.5297 73.5305 75.6033 73.2144 75.5769 72.8985C75.5709 72.6568 75.509 72.4197 75.3961 72.2059C75.339 72.0303 75.2683 71.859 75.1852 71.694C75.0647 71.3627 74.9143 71.0618 74.7938 70.7605C74.282 69.5259 73.8302 68.502 73.4388 67.6288C73.0474 66.7556 72.6861 66.0029 72.4148 65.3703L71.933 64.3766L71.6921 63.8648L71.5717 63.6239V63.5635H71.5417L71.4212 63.6239L70.0362 64.5271C69.7177 64.7234 69.4155 64.945 69.1327 65.1897L68.2895 65.9425L68.0486 66.1834L67.9282 66.3339L67.8681 66.3942H67.8377V66.4543L68.0186 67.2074C68.2595 68.2611 68.3799 67.9901 68.3799 66.9965C68.3799 66.846 68.41 66.8157 68.41 66.7256V66.6652H68.44L68.5304 66.5748L68.6809 66.5147C68.738 66.448 68.8102 66.3966 68.8918 66.3642L69.3435 66.0329L70.3672 65.3703L70.6384 65.1897L70.7589 65.0993H70.8793L71.0899 65.0089H71.1503L71.2103 65.1294L71.3308 65.4006L71.873 66.6652C72.2343 67.5083 72.5656 68.2914 72.8366 69.0141C73.3784 70.2787 73.7398 71.2423 73.7398 71.2423ZM51.4868 37.8475C51.6207 38.0189 51.7415 38.2001 51.8482 38.3896L51.9385 38.51C51.9385 38.5401 51.9385 38.5702 51.9084 38.5401H51.8482L51.6976 38.4799H51.5471L51.1857 38.4196L50.4931 38.2992C49.6327 38.1877 48.761 38.1978 47.9034 38.3293C47.2711 38.4498 47.0603 38.6003 47.1205 38.7208C47.1807 38.8412 47.5421 38.9316 48.0841 39.0219L50.1318 39.3532L51.3965 39.6543H51.5471L51.8783 39.7446L52.601 39.9855L54.0464 40.4372L53.9561 40.2565L53.8356 40.0156L53.6248 39.5941L53.414 39.2026L53.3237 38.9918L53.2032 38.781L52.8419 38.2089L52.7516 38.0583L52.6913 37.9981H52.6612L52.5408 37.8475L52.059 37.3356C51.805 37.0761 51.5334 36.8347 51.2459 36.6129C50.8829 36.3261 50.5005 36.0645 50.1017 35.83C49.6569 35.534 49.1298 35.3864 48.596 35.4084C48.2648 35.4084 48.325 35.5288 48.596 35.6794C48.867 35.83 49.2886 36.0408 49.7403 36.3419C50.1796 36.6259 50.5928 36.9483 50.9749 37.3055L51.3363 37.6969L51.4868 37.8475ZM61.0625 40.1963L60.5507 40.3167L59.9484 40.4974L59.557 40.7082C59.3671 40.7976 59.2017 40.932 59.0752 41.0996L60.0085 41.4911C60.0814 41.3117 60.1722 41.1402 60.2797 40.9792C60.4434 40.7638 60.6246 40.5623 60.8216 40.3769C61.3215 39.9569 61.8442 39.5648 62.3875 39.2026L63.2606 38.6003C63.5174 38.3991 63.7892 38.2179 64.0738 38.0583C64.646 37.6969 65.1878 37.4259 65.7 37.1549C66.2118 36.8839 66.6936 36.5225 66.5128 36.4623C66.3323 36.4021 65.7601 36.4322 64.9169 36.6731C64.4318 36.8045 63.9584 36.9757 63.5015 37.185L62.7188 37.6367L61.966 38.1185C61.3795 38.459 60.8252 38.8521 60.3098 39.2929C60.028 39.5448 59.7755 39.8276 59.557 40.136C59.2918 40.4677 59.1155 40.8615 59.0449 41.2803L58.774 43.057L59.888 41.6718C59.8963 41.6718 59.9039 41.6686 59.9095 41.663C59.9151 41.6573 59.9183 41.6497 59.9184 41.6417C59.9768 41.5499 60.0603 41.4768 60.1593 41.4309L60.5206 41.2201L61.2734 40.9491L62.5683 40.6178C63.0991 40.4832 63.6494 40.4425 64.1942 40.4974L65.0977 40.5877L66.0914 40.6781C66.5431 40.7383 66.4828 40.6178 66.1214 40.4071C65.1964 39.9542 64.1671 39.7567 63.1402 39.8349L62.0865 39.9855C61.7414 40.0357 61.3994 40.1061 61.0625 40.1963Z" fill="#11151A"/>
<path d="M58.3835 45.8848L58.1426 46.0053L57.51 46.3064C56.7819 46.5879 55.9996 46.7011 55.2215 46.6377C54.2627 46.526 53.3601 46.1271 52.632 45.4934C51.8983 44.8861 51.2679 44.1641 50.765 43.3554C50.2832 42.6628 50.0724 42.4219 50.0122 42.6026C49.9519 42.7832 50.0423 43.3855 50.4036 44.2286C50.602 44.7201 50.8764 45.1774 51.2167 45.5837C51.6155 46.1164 52.1048 46.5751 52.6621 46.9388C53.2972 47.3598 54.0166 47.6373 54.77 47.7518C55.5535 47.8446 56.3477 47.7518 57.0886 47.4808C57.7055 47.2393 58.2918 46.926 58.8353 46.5473C59.2228 46.2559 59.5946 45.9443 59.9494 45.6138C60.5216 45.0417 60.8826 44.6201 61.1539 44.319C61.6086 43.8058 61.9658 43.2139 62.2079 42.5725C62.3884 42.181 62.2379 42.2111 61.9367 42.4821L60.7021 43.8673C60.239 44.388 59.7355 44.8713 59.1963 45.3127C58.9383 45.5211 58.6668 45.7122 58.3835 45.8848ZM54.0774 27.3054C54.0534 27.3407 54.0426 27.3834 54.047 27.4259C54.047 27.4861 54.017 27.5764 54.017 27.727C54.0392 28.0374 54.1103 28.3423 54.2279 28.6304C54.2957 28.7721 54.3366 28.9253 54.3483 29.0821C54.381 29.1901 54.381 29.3053 54.3483 29.4133H54.2579C54.1978 29.4434 54.047 29.3832 53.8665 29.2928L53.5653 29.0821L53.1438 28.8713C52.9645 28.7796 52.7711 28.7185 52.5716 28.6906C52.3271 28.6474 52.0753 28.6788 51.8489 28.7809L51.5177 29.0218L51.3671 29.1724L51.2768 29.3531C51.2096 29.4627 51.1684 29.5863 51.1563 29.7144C51.1563 29.8349 51.1262 29.9553 51.1262 30.0457C51.1574 30.3618 51.2179 30.6743 51.3069 30.9791C51.3665 31.1537 51.397 31.3368 51.3972 31.5212C51.3972 31.5814 51.3972 31.5513 51.3671 31.5814L51.2768 31.6416C51.0556 31.6591 50.833 31.6489 50.6143 31.6115C50.3284 31.6025 50.0431 31.6433 49.7712 31.732C49.4141 31.8184 49.0898 32.0067 48.8377 32.274C48.7172 32.4245 48.7172 32.4848 48.8076 32.5149C48.8979 32.545 49.6206 32.274 50.4336 32.4245L51.1563 32.5751C51.3489 32.5821 51.5415 32.5618 51.7285 32.5149C51.9522 32.4252 52.1419 32.2671 52.2705 32.0632C52.399 31.8669 52.4622 31.6351 52.4512 31.4007C52.457 31.2095 52.4469 31.0181 52.4211 30.8286C52.3448 30.5539 52.3043 30.2705 52.3006 29.9854C52.2961 29.943 52.3068 29.9003 52.3307 29.865H52.3608C52.5875 29.9125 52.8025 30.0046 52.9932 30.136C53.1685 30.2559 53.3616 30.3474 53.5653 30.407C53.8081 30.5267 54.0785 30.5787 54.3483 30.5576C54.5164 30.5354 54.6793 30.4845 54.8301 30.407C54.9719 30.31 55.0945 30.1875 55.1915 30.0457C55.2825 29.9093 55.344 29.7555 55.372 29.594V29.2025C55.3479 28.9831 55.2868 28.7692 55.1915 28.5701C55.1639 28.4747 55.1233 28.3835 55.071 28.2991L54.9806 28.1185C54.871 27.9155 54.8189 27.6864 54.8301 27.456C54.8601 27.3054 54.9506 27.2452 55.1311 27.185C55.3043 27.1597 55.4809 27.1804 55.6432 27.2452C55.9877 27.36 56.3398 27.4506 56.6969 27.5162C56.9906 27.5774 57.2955 27.5458 57.5704 27.4259C57.7731 27.3137 57.94 27.1467 58.0522 26.9441C58.1202 26.7967 58.1803 26.646 58.2327 26.4924C58.2549 26.357 58.2954 26.2253 58.3532 26.1009C58.3899 26.0169 58.4436 25.9414 58.5109 25.8792C58.5784 25.8171 58.6579 25.7695 58.7446 25.7396C58.9855 25.6492 59.1059 25.7396 59.1059 25.6793C59.1059 25.6191 59.0759 25.6191 58.9855 25.5589C58.9328 25.5241 58.8735 25.5008 58.8112 25.4905C58.749 25.4802 58.6852 25.4829 58.6241 25.4987C58.4562 25.4994 58.2948 25.564 58.1727 25.6793L57.9618 25.8901L57.8714 26.0106L57.781 26.131C57.7135 26.2881 57.6329 26.4392 57.5401 26.5827C57.5032 26.6946 57.4288 26.7903 57.3295 26.8537C57.0606 26.9371 56.7701 26.9156 56.5164 26.7935C56.1615 26.634 55.7868 26.5226 55.4023 26.4623C55.1896 26.4371 54.9739 26.4577 54.7697 26.5225C54.5832 26.5894 54.4172 26.7035 54.2879 26.8537C54.1738 26.9796 54.1004 27.1371 54.0774 27.3054ZM67.417 27.3355L67.2365 27.3958C67.0541 27.4706 66.8898 27.5836 66.7547 27.727C66.5814 27.9423 66.4765 28.2045 66.4534 28.4798C66.4024 28.7375 66.3822 29.0003 66.3933 29.2627C66.391 29.5063 66.3606 29.7488 66.3029 29.9854C66.3029 30.0156 66.3029 30.0156 66.2729 30.0156H66.2125L66.1224 29.9553L65.8815 29.8349L65.4297 29.5639L65.3693 29.5036L65.2489 29.4434L65.008 29.3531C64.8531 29.2995 64.6865 29.2891 64.5262 29.323C64.3781 29.3463 64.2379 29.4051 64.1173 29.4942C63.9968 29.5833 63.8996 29.7002 63.8338 29.8349C63.7401 29.9559 63.6873 30.1035 63.683 30.2565C63.6602 30.3346 63.6501 30.416 63.653 30.4974V30.7081C63.671 30.8609 63.7013 31.0119 63.7434 31.1598C63.7484 31.2413 63.7381 31.323 63.7134 31.4007C63.6487 31.5991 63.5464 31.7831 63.4121 31.9428C63.2387 32.097 63.0464 32.2285 62.8399 32.3342C62.3581 32.5751 62.0571 32.7257 62.0271 32.8461C61.9967 32.9666 62.2076 32.9967 62.599 32.9967C62.8546 32.9944 63.1084 32.9538 63.352 32.8762C63.7053 32.765 64.0259 32.5685 64.2853 32.3041C64.4462 32.1249 64.5784 31.9217 64.677 31.7019L64.7671 31.3405C64.7974 31.2016 64.7974 31.0578 64.7671 30.9189V30.5275H64.8275L65.2188 30.7383L65.6102 30.9792L66.0019 31.1899L66.4233 31.4308L66.8147 31.6115H66.9051V31.5212L66.9956 31.2803C67.1139 30.9957 67.2144 30.7041 67.2965 30.407V29.7747C67.3117 29.5842 67.3117 29.3929 67.2965 29.2025C67.2585 28.9535 67.2484 28.701 67.2665 28.4497C67.2768 28.3703 67.3113 28.296 67.3652 28.2368C67.419 28.1775 67.4897 28.1362 67.5678 28.1185C67.708 28.0843 67.8553 28.0949 67.9892 28.1486L68.1096 28.2088L68.3205 28.3293L68.6518 28.5702H68.7419L68.8624 28.5099L69.0732 28.3293C69.1729 28.2054 69.2448 28.0617 69.2841 27.9077C69.3141 27.8173 69.3141 27.7571 69.3442 27.6668C69.3745 27.5764 69.3745 27.5463 69.3745 27.4861C69.3696 27.3947 69.3798 27.3032 69.4046 27.2151C69.3835 26.9647 69.4358 26.7136 69.555 26.4924C69.5939 26.4308 69.647 26.3794 69.7098 26.3426C69.7728 26.306 69.8436 26.285 69.9164 26.2816C70.1576 26.2794 70.3988 26.2895 70.6391 26.3117C70.7896 26.2816 70.88 26.2214 70.88 26.1913C70.88 26.1612 70.88 26.131 70.8199 26.1009L70.5487 25.9805L70.0068 25.7998C69.8285 25.7664 69.6444 25.7823 69.4745 25.846C69.3046 25.9097 69.1555 26.0187 69.0432 26.1612C68.8795 26.4242 68.7862 26.7249 68.7723 27.0344L68.7119 27.4259C68.6901 27.473 68.6798 27.5246 68.6819 27.5764C68.6518 27.6066 68.6518 27.6367 68.6215 27.6367C68.5914 27.6367 68.5614 27.6969 68.5614 27.6367H68.4109L67.9592 27.4861C67.8323 27.4484 67.6989 27.4382 67.5678 27.456L67.417 27.3355ZM59.9794 27.3355L59.7686 27.3958C59.5902 27.4779 59.4273 27.5899 59.2868 27.727C59.1256 27.9491 59.0222 28.2078 58.9858 28.4798C58.9347 28.7375 58.9144 29.0003 58.9254 29.2627C58.9232 29.5063 58.8929 29.7488 58.835 29.9854H58.7449L58.6545 29.9252L58.4136 29.8048L57.9618 29.5337L57.9017 29.4735L57.7813 29.4133L57.5404 29.323C57.3855 29.2694 57.219 29.259 57.0586 29.2928C56.9121 29.3208 56.7738 29.3813 56.6537 29.4699C56.5339 29.5585 56.4355 29.673 56.3659 29.8048C56.2851 29.9325 56.2339 30.0764 56.2154 30.2263C56.1924 30.3045 56.1821 30.3858 56.1851 30.4672C56.1851 30.5576 56.1851 30.6479 56.2154 30.678C56.227 30.8296 56.2471 30.9804 56.2755 31.1297C56.2805 31.2112 56.2702 31.2929 56.2455 31.3706C56.1927 31.5739 56.089 31.7605 55.9442 31.9126C55.7762 32.0598 55.5948 32.1909 55.4023 32.3041C54.8905 32.545 54.5892 32.6956 54.5592 32.816C54.5291 32.9365 54.7397 32.9666 55.1314 32.9666C55.3869 32.9642 55.6406 32.9236 55.8841 32.8461C56.2375 32.7348 56.5581 32.5384 56.8177 32.274C56.9884 32.1024 57.1216 31.8974 57.2091 31.6717C57.253 31.5552 57.2833 31.4339 57.2995 31.3104C57.3233 31.1712 57.3335 31.03 57.3295 30.8888C57.3046 30.7905 57.2944 30.689 57.2995 30.5877V30.5275H57.3596L57.7509 30.7382L58.1426 30.9791L58.534 31.1899L58.9554 31.4308L59.3471 31.6115H59.4372V31.5212L59.5277 31.2803C59.6593 31.0009 59.7603 30.7081 59.8289 30.407V30.0457C59.824 29.9543 59.8342 29.8627 59.859 29.7746C59.8638 29.5834 59.8538 29.3922 59.8289 29.2025C59.7906 28.9535 59.7805 28.701 59.7986 28.4497C59.8016 28.3808 59.8227 28.3139 59.8596 28.2557C59.8966 28.1976 59.9483 28.1502 60.0095 28.1185C60.1497 28.0843 60.2972 28.0949 60.4312 28.1486L60.5516 28.2088L60.7622 28.3292L61.0935 28.5701H61.1839L61.3044 28.5099L61.5152 28.3292C61.6147 28.2053 61.6865 28.0616 61.7258 27.9077C61.7598 27.8315 61.7802 27.75 61.7862 27.6668C61.7862 27.6065 61.8162 27.5463 61.8162 27.4861C61.8116 27.3947 61.8215 27.3032 61.8462 27.2151C61.8404 26.9658 61.892 26.7185 61.997 26.4924C62.0375 26.4323 62.091 26.3821 62.1536 26.3456C62.2162 26.3091 62.2862 26.2872 62.3584 26.2816C62.5996 26.2789 62.8409 26.2889 63.0811 26.3117C63.2316 26.2816 63.322 26.2214 63.322 26.1913C63.322 26.1611 63.322 26.131 63.2616 26.1009L62.9907 25.9805L62.4485 25.7998C62.2881 25.766 62.1218 25.7764 61.9667 25.8299C61.8732 25.8523 61.7851 25.8931 61.7076 25.95C61.63 26.0068 61.5646 26.0786 61.5152 26.1611C61.3309 26.4161 61.2261 26.72 61.214 27.0344L61.1539 27.4259C61.1539 27.5162 61.1235 27.5162 61.1235 27.5764L61.0635 27.6367C61.0635 27.6668 61.0334 27.6969 61.0031 27.6367H60.943L60.4913 27.4861C60.3646 27.4475 60.231 27.4372 60.0999 27.456L59.9794 27.3355Z" fill="#11151A"/>
<path d="M63.0805 27.8468H62.5684C62.3895 27.8626 62.2155 27.9138 62.0565 27.9974C61.8315 28.1084 61.6586 28.3029 61.5747 28.5394C61.4946 28.73 61.4536 28.9349 61.4543 29.1417C61.4243 29.3524 61.4543 29.503 61.4243 29.6536C61.4291 29.8248 61.4191 29.996 61.3942 30.1655C61.389 30.3376 61.3688 30.5088 61.3338 30.6774C61.3338 30.7677 61.3038 30.8581 61.3038 30.9484C61.3038 31.0387 61.2738 31.1291 61.2434 31.2194C61.2177 31.3486 61.1665 31.4715 61.0929 31.5808C61.0329 31.7012 61.0025 31.7012 60.9725 31.7012C60.9425 31.7012 60.8821 31.7313 60.7016 31.6711C60.4543 31.6185 60.2013 31.5983 59.9488 31.6109C59.4808 31.6659 59.0454 31.8782 58.714 32.2131C58.5139 32.4053 58.3863 32.6605 58.3526 32.9358C58.3526 33.1165 58.413 33.1466 58.4731 33.1165C58.5335 33.0864 58.9549 32.6949 59.4971 32.5745C59.7673 32.5043 60.0532 32.5255 60.3102 32.6347C60.5717 32.7645 60.8616 32.8266 61.1533 32.8154C61.3581 32.7741 61.5526 32.6921 61.7252 32.5745C61.8615 32.4596 61.9829 32.3281 62.0866 32.183C62.2442 31.9121 62.3562 31.6171 62.4179 31.3098C62.4776 31.0429 62.508 30.7702 62.5083 30.4967C62.5334 30.2265 62.5433 29.9551 62.5383 29.6837C62.5083 29.3826 62.4783 29.1417 62.4783 28.9911V28.8104C62.5083 28.7803 62.5083 28.7502 62.5383 28.7502C62.7024 28.6925 62.8772 28.6719 63.0502 28.69C63.2749 28.7044 63.5002 28.6737 63.7128 28.5996C63.8967 28.5425 64.0627 28.4388 64.1946 28.2985C64.3854 28.0852 64.5382 27.8408 64.6464 27.5758C64.717 27.3911 64.7675 27.1993 64.7969 27.0037C64.7985 26.7898 64.8289 26.5771 64.8873 26.3713C64.8978 26.3031 64.9292 26.24 64.9774 26.1906C65.0268 26.1493 65.0863 26.1219 65.1498 26.1113C65.2134 26.1008 65.2786 26.1073 65.3387 26.1304C65.4291 26.1304 65.4592 26.2207 65.4895 26.2509C65.5196 26.281 65.5496 26.3111 65.5796 26.281C65.6004 26.2335 65.6106 26.1822 65.61 26.1304C65.6011 26.0749 65.5803 26.022 65.5489 25.9752C65.5178 25.9284 65.477 25.8889 65.4291 25.8594C65.3054 25.7747 65.1575 25.7324 65.0077 25.7389C64.9099 25.7388 64.8132 25.7603 64.7246 25.8019C64.6361 25.8436 64.5578 25.9044 64.4956 25.9798C64.3748 26.105 64.2913 26.2615 64.2547 26.4315C64.2158 26.5802 64.1857 26.731 64.1646 26.8832C64.1494 27.077 64.09 27.2646 63.991 27.4318C63.8918 27.599 63.7553 27.741 63.5924 27.8468C63.489 27.8951 63.3748 27.9159 63.261 27.907L63.0805 27.8468ZM72.837 53.8941L73.6498 53.322L74.1015 52.9908C74.2065 52.9046 74.2978 52.8031 74.3725 52.6896C74.4638 52.5425 74.5253 52.3788 74.5533 52.2078C74.5982 51.8719 74.5236 51.5308 74.3424 51.2442C74.2172 50.9831 74.0435 50.748 73.8306 50.5517C73.0476 49.8339 72.201 49.1889 71.3012 48.6245C70.428 48.0523 69.6149 47.5404 68.9522 47.0586C68.7354 46.8788 68.5038 46.7176 68.2599 46.5768C68.1091 46.5166 68.049 46.5166 68.049 46.6069C68.049 46.6973 68.2899 47.3296 68.8922 47.962C69.6432 48.7242 70.4593 49.4194 71.3312 50.0397C71.8429 50.3948 72.3354 50.7767 72.8066 51.184C73.028 51.3517 73.23 51.5436 73.4089 51.7562L73.5293 51.9971C73.5339 52.0588 73.5234 52.1207 73.4993 52.1777C73.4693 52.3283 73.1379 52.5692 72.9271 52.7499L72.3248 53.2919C71.9334 53.6231 71.6021 53.9242 71.3012 54.135C70.877 54.4703 70.4346 54.7819 69.9762 55.0686C69.4194 55.3857 68.9036 55.77 68.4404 56.2127C67.8081 56.7849 68.9522 56.3332 70.2471 55.6405C70.8609 55.294 71.4543 54.9119 72.0239 54.4964L72.837 53.8941ZM39.4422 53.322C39.4124 53.2463 39.3718 53.1753 39.3217 53.1112C39.1953 52.9408 39.0845 52.7594 38.9905 52.5692C38.8848 52.3546 38.853 52.1111 38.9001 51.8766C39.0179 51.5524 39.2145 51.2627 39.4723 51.0335C39.7734 50.7624 40.195 50.4613 40.5563 50.1301L41.7608 49.1665L43.9289 47.42C44.5613 46.908 44.742 46.637 44.5613 46.6069C44.3806 46.5768 43.8386 46.7274 43.0858 47.0887C42.1464 47.574 41.2498 48.1382 40.4058 48.775C39.8849 49.1506 39.3918 49.5632 38.9302 50.0096C38.6434 50.2594 38.3993 50.5544 38.2075 50.8829C37.9682 51.2476 37.8619 51.6836 37.9064 52.1175C37.9479 52.5008 38.0937 52.8653 38.328 53.1714C38.4939 53.4135 38.6749 53.6448 38.87 53.864C39.2054 54.177 39.5682 54.4592 39.9541 54.7073C40.4168 55.0115 40.9116 55.2639 41.4296 55.46C42.0243 55.6913 42.6586 55.8039 43.2966 55.7913C43.7181 55.7913 43.6579 55.6709 43.2966 55.5204L41.7307 54.8878C41.135 54.6482 40.5772 54.3237 40.0745 53.9243C39.8511 53.7373 39.6398 53.5361 39.4422 53.322ZM45.284 55.1287C45.284 55.1287 45.0732 55.7309 44.742 56.4837C44.4097 57.2507 44.0274 57.9951 43.5977 58.7121C43.417 59.0131 43.3869 59.1339 43.4772 59.1339C43.5676 59.1339 43.7784 59.0435 44.0494 58.7725C44.7504 57.9695 45.2463 57.0085 45.4948 55.9718C45.7658 54.8277 45.826 54.2855 45.8862 53.9242C45.91 53.7952 45.9201 53.664 45.9163 53.5328C45.9125 53.3879 45.8819 53.245 45.826 53.1112C45.7056 52.7499 45.6754 53.2618 45.5851 53.864C45.4948 54.4664 45.284 55.1287 45.284 55.1287ZM66.965 57.4776C66.965 57.4776 66.6937 57.0859 66.3627 56.514C66.0322 55.9475 65.7306 55.3645 65.4592 54.7673C65.2183 54.2555 65.0978 54.4664 65.1582 55.0686C65.3216 55.8923 65.695 56.6598 66.2423 57.2968L67.4164 58.4712C67.5583 58.6415 67.7467 58.7673 67.9586 58.8326C68.2595 58.923 67.9586 58.6217 67.6273 58.2604L67.1755 57.7485L66.965 57.4776Z" fill="#11151A"/>
<path d="M43.3265 57.3879C43.3265 57.3879 43.3566 57.2374 43.4469 56.9361C43.5373 56.6352 43.7179 56.2435 43.8986 55.792C44.069 55.3306 44.302 54.8949 44.5912 54.4971L44.8321 54.1958L44.9526 54.0754C44.9827 54.0453 44.9526 54.0754 44.9827 54.0754H45.0429L45.1935 54.3163C45.3741 54.6476 45.4042 54.7981 45.4645 54.708C45.5144 54.5763 45.5349 54.4352 45.5245 54.2947C45.5141 54.1542 45.4731 54.0177 45.4042 53.8948C45.3165 53.742 45.178 53.6248 45.0128 53.5636C44.9089 53.5573 44.8052 53.5781 44.7117 53.6238L44.531 53.7744C44.2893 53.9864 44.0766 54.2294 43.8986 54.4971C43.5208 55.0856 43.2553 55.739 43.1157 56.4243C42.9342 56.9569 42.8928 57.5273 42.9952 58.0806C43.0268 58.1892 43.0778 58.2911 43.1458 58.3815C43.1759 58.4419 43.2361 58.4419 43.2663 58.4719L43.3867 58.532C43.5299 58.564 43.6798 58.5426 43.8083 58.4719C43.9766 58.4023 44.1224 58.2877 44.2299 58.1406C44.3295 58.0056 44.4011 57.852 44.4406 57.6889C44.5009 57.4783 44.4407 57.5083 44.3202 57.6588C44.153 57.8654 43.9488 58.039 43.7179 58.1707C43.692 58.1891 43.6623 58.2013 43.631 58.2066C43.5998 58.2117 43.5677 58.2098 43.5373 58.201H43.3867C43.3867 58.1707 43.3566 58.1406 43.3566 58.1106C43.3566 58.0806 43.3265 57.9901 43.3265 57.8997C43.3112 57.8 43.3112 57.6985 43.3265 57.5988V57.3879ZM68.7411 57.0265C68.7049 56.8675 68.644 56.715 68.5606 56.5748C68.4065 56.2332 68.2146 55.91 67.9884 55.6112C67.8755 55.4092 67.7445 55.2175 67.597 55.039C67.43 54.8049 67.2143 54.6098 66.9647 54.4671C66.6971 54.3529 66.3967 54.342 66.1216 54.4367C65.9919 54.4677 65.8704 54.5268 65.7662 54.6103C65.6622 54.6936 65.5779 54.7988 65.5193 54.9185C65.4282 55.0525 65.3761 55.2089 65.3685 55.3703C65.3989 55.4607 65.4289 55.4607 65.4589 55.4307C65.489 55.4003 65.6698 55.1294 65.9407 54.9789C66.0993 54.8806 66.2888 54.8446 66.4724 54.8779C66.656 54.9111 66.8207 55.0115 66.9344 55.1594C67.1175 55.3706 67.2884 55.5917 67.4465 55.822L67.9884 56.5147C68.2666 56.8533 68.4533 57.2575 68.5306 57.6889C68.5059 57.8002 68.4541 57.9037 68.3798 57.9901C68.3227 58.0443 68.2478 58.0763 68.1692 58.0806L67.7475 58.1406C67.6165 58.1584 67.4828 58.1482 67.3561 58.1106H67.2056C67.2066 58.1413 67.2152 58.1713 67.231 58.1977C67.2469 58.2238 67.2693 58.2459 67.2957 58.2611C67.4069 58.3568 67.5426 58.4195 67.6874 58.4419H68.1692C68.2732 58.4257 68.3745 58.3954 68.4702 58.3515C68.5794 58.2954 68.6728 58.2126 68.7411 58.1106C68.851 57.9414 68.8939 57.7375 68.8616 57.5384C68.8616 57.4156 68.8414 57.2935 68.8015 57.177C68.7942 57.1226 68.7734 57.0711 68.7411 57.0265ZM34.9852 71.1796V70.7578C35.0153 70.6374 34.1722 70.7578 34.1421 70.9687C33.7501 72.5961 33.8443 74.3028 34.4131 75.8771C34.4733 76.0576 35.2261 75.8468 35.2863 75.6963L36.9124 70.4569L36.0392 70.6674C36.0392 71.6914 36.0693 72.7151 36.0994 73.7391L36.1897 75.2145C36.1897 75.5458 36.1897 75.9672 36.5812 76.0576C36.9726 76.1481 37.334 75.9973 37.3641 75.7564C37.5448 73.8292 37.7857 71.9323 38.147 70.0051L37.2738 70.216C37.3512 72.0803 37.6443 73.9294 38.147 75.7263C38.2073 75.9372 39.0203 75.6963 39.0203 75.5155C39.1106 73.9196 39.1407 72.3537 39.1709 70.7578L38.2976 70.9987L39.9538 76.2382C40.0441 76.449 40.827 76.2081 40.827 75.9973C41.0585 74.4464 41.0177 72.867 40.7066 71.3301L39.8333 71.5406C40.4003 73.032 41.1487 74.4479 42.0617 75.7564C42.1821 75.9372 42.9349 75.7564 42.9349 75.5458C42.9765 73.5826 42.8657 71.6195 42.6037 69.6738L41.7304 69.9147C42.423 71.8719 43.1457 73.8595 44.3502 75.5758C44.4707 75.7263 45.2837 75.5155 45.2235 75.335L43.0554 67.8971L42.1821 68.138L45.7655 74.1305C45.8558 74.3413 46.699 74.04 46.6388 73.9196L43.9286 68.3789L43.0554 68.6198C43.9386 69.8042 44.873 70.9496 45.8558 72.0528C46.0064 72.1732 46.699 71.9924 46.7291 71.7818C46.8194 70.3061 45.2837 69.4029 45.103 67.9875L44.2298 68.2284C44.7071 68.8921 45.3109 69.455 46.0064 69.8847C46.1268 69.9751 46.9399 69.7642 46.8495 69.6438C46.3931 68.8909 46.0673 68.0663 45.8859 67.2047C45.8257 67.0239 44.9525 67.2348 45.0127 67.4456C45.1993 68.2961 45.5249 69.11 45.9763 69.8546L46.8495 69.6137C46.1708 69.1857 45.5783 68.634 45.103 67.9875C44.9826 67.837 44.1996 68.0175 44.2298 68.2284C44.4104 69.6438 45.9462 70.547 45.8558 72.0227L46.699 71.7515C45.7092 70.6835 44.7841 69.5573 43.9286 68.3789C43.7781 68.1984 42.965 68.4693 43.0554 68.6198L45.7655 74.1305L46.6388 73.9196L43.0554 67.8971C42.9349 67.7466 42.1219 67.9575 42.1821 68.138L44.3502 75.5758L45.2235 75.335C44.019 73.6186 43.2963 71.631 42.6037 69.6738C42.5435 69.4933 41.7003 69.7038 41.7304 69.9147C42.0016 71.8497 42.1224 73.8027 42.0918 75.7564L42.965 75.5458C42.0641 74.23 41.3165 72.8156 40.7367 71.3301C40.6765 71.1492 39.8333 71.3601 39.8634 71.5406C40.1744 73.0878 40.2152 74.6771 39.9839 76.2382L40.8572 75.9973L39.201 70.7578C39.1407 70.5773 38.3277 70.7879 38.3277 70.9987C38.2976 72.5646 38.2675 74.1605 38.1771 75.7263L39.0504 75.5155C38.5501 73.7078 38.2571 71.849 38.1771 69.9751C38.1771 69.8243 37.3641 70.0051 37.334 70.1556C36.9726 72.1128 36.7016 74.04 36.521 75.9973L37.3039 75.7263C37.0028 75.6362 37.063 74.8532 37.063 74.6123C37.063 74.3714 37.0329 73.6787 37.0028 73.2272C36.9726 72.2937 36.9425 71.3601 36.9425 70.4265C36.9425 70.2761 36.1295 70.4569 36.0693 70.6074L34.4432 75.8468L35.3165 75.6359C34.7355 74.086 34.6307 72.3978 35.0153 70.7879L34.1722 70.9987L34.112 71.3901C34.112 71.5106 34.9852 71.4205 34.9852 71.1796ZM64.0739 71.5106C64.7652 72.9638 65.6134 74.3371 66.6034 75.6059C66.7539 75.7867 67.5066 75.6059 67.4465 75.3049L66.3021 70.1556L65.4289 70.3965C66.3939 72.2053 67.5121 73.9281 68.7715 75.5458C68.9219 75.7263 69.705 75.5158 69.6146 75.2445C68.952 73.2272 68.2596 71.2096 67.4465 69.222L66.573 69.4629C67.597 71.4505 68.8919 73.2573 70.1865 75.094C70.307 75.2749 71.1201 75.064 71.03 74.7931L68.7715 69.192L67.9283 69.4933C69.0985 71.3314 70.4396 73.0553 71.9332 74.6423C72.0837 74.8231 72.8968 74.6423 72.7763 74.3713C71.8481 72.3587 70.7921 70.4075 69.6146 68.5297C69.4942 68.2888 68.651 68.5897 68.7715 68.8006C69.9459 70.8783 71.6019 72.5646 73.2581 74.2509C73.4086 74.4317 74.2217 74.2209 74.1013 73.98L69.7351 66.0002L68.8919 66.3012L73.1677 71.3601C73.3486 71.571 74.1617 71.3 73.9808 70.9987C72.7463 69.1319 71.6019 67.1744 70.5479 65.1871L69.705 65.4881L72.2945 68.0175C72.445 68.1683 73.2581 67.9875 73.1377 67.7166L72.0536 65.6389C71.9032 65.3376 71.06 65.6085 71.1805 65.8494L72.2645 67.9575L73.1077 67.6865L70.5178 65.1267C70.3673 64.9762 69.5542 65.1571 69.6747 65.428C70.7587 67.4456 71.9332 69.4329 73.1677 71.3601L73.9808 70.9987L69.705 65.9398C69.5542 65.7593 68.7414 66.0002 68.8619 66.2411L73.2281 74.2209L74.0713 73.9196C72.445 72.2636 70.7888 70.6074 69.6446 68.5597L68.8015 68.8607C69.9413 70.7188 70.9768 72.639 71.9032 74.6123L72.7463 74.3113C71.2527 72.7243 69.9117 71.0002 68.7411 69.162C68.5906 68.9511 67.7778 69.192 67.8983 69.4329L70.1565 75.034L70.9996 74.7627C69.7351 72.956 68.4702 71.1796 67.4465 69.222C67.3261 68.9511 66.4829 69.192 66.573 69.4629C67.3861 71.4505 68.1088 73.4378 68.7411 75.4854L69.5843 75.1845C68.3491 73.6048 67.2512 71.9224 66.3021 70.1556C66.1816 69.8847 65.3685 70.0652 65.4289 70.3965L66.573 75.5458L67.4165 75.2749C66.4464 74.0362 65.6181 72.6928 64.9471 71.2697C64.7966 70.9687 63.9535 71.2397 64.0739 71.5106Z" fill="#11151A"/>
</svg>
