<svg width="72" height="72" viewBox="0 0 72 72" fill="none" xmlns="http://www.w3.org/2000/svg">
<path d="M28.8256 30.4346C27.6056 28.8546 26.3156 27.2946 25.2156 25.6346C23.2643 22.6187 21.946 20.7049 21.0156 18.9746C20.4531 18.9746 19.8025 19.7622 19.4956 20.2446C19.0255 20.9746 18.7955 21.7946 18.5956 22.6046C16.5156 30.9146 15.9056 39.3746 15.3156 47.8046C15.2623 48.6287 15.4428 49.087 16.9056 49.1146C21.6016 49.2886 22.3791 49.3181 22.7755 49.1646C24.4668 48.516 23.0446 46.2832 26.7456 35.1746C26.9622 34.5236 27.0618 34.3954 26.9756 34.2746C26.7927 33.9817 26.7762 33.8852 26.5756 33.6046C26.1657 33.0346 25.5756 32.5546 24.9056 32.2846C26.5156 32.8846 27.6356 34.1946 28.2256 35.6946C29.3392 35.615 31.7394 35.1838 32.8356 34.9646C31.3556 33.5646 30.0555 32.0246 28.8256 30.4346ZM17.3156 32.5646C17.2256 32.1246 17.5255 31.6946 17.9956 31.6046C18.4656 31.5146 18.9257 31.8046 19.0156 32.2546C19.1156 32.7047 18.8055 33.1346 18.3356 33.2146C17.8656 33.3046 17.4056 33.0146 17.3156 32.5646ZM19.4056 44.5146C18.9257 44.6046 18.4556 44.3146 18.3556 43.8646C18.2656 43.4246 18.5756 42.9846 19.0555 42.9046C19.5355 42.8146 20.0056 43.1046 20.0956 43.5446C20.1957 43.9946 19.8856 44.4246 19.4056 44.5146ZM22.9357 27.9046C22.4656 27.9946 22.0056 27.7047 21.9157 27.2546C21.8256 26.8146 22.1256 26.3746 22.5856 26.2846C23.0455 26.1946 23.5056 26.4846 23.5956 26.9346C23.6957 27.3746 23.3956 27.8146 22.9357 27.9046Z" fill="#EDC446"/>
<path d="M47.1754 60.3254C42.6207 47.9014 42.5167 46.1353 39.2553 41.3754C38.2274 40.9893 37.4345 40.0578 36.9154 39.0954C36.6265 38.5759 36.2224 37.8152 36.0953 37.2754C35.9753 37.2954 35.8553 37.3254 35.7253 37.3554C35.8205 37.8942 35.771 38.7624 35.7453 39.2754C35.5041 43.3339 31.9569 43.8574 30.8353 41.9454C30.3191 41.0635 30.4745 39.6793 31.7153 38.6454C32.0753 38.3554 32.4953 38.1154 32.9254 37.9054C31.5391 38.1444 29.8408 38.3919 28.7553 38.4754C28.7553 40.6284 28.1446 42.6307 27.6954 44.7454C26.8753 48.6554 26.7654 52.6354 26.6554 56.5854C26.3617 66.8197 26.199 66.9572 26.7453 67.5754C27.4354 68.3854 28.9254 68.2454 30.1253 68.0154C35.0453 67.0854 39.9753 66.0654 44.5853 64.3354C47.78 63.0829 47.7831 62.0041 47.1754 60.3254ZM31.5352 57.2954C31.0453 57.3954 30.5553 57.1154 30.4454 56.6754C30.3353 56.2354 30.6454 55.7854 31.1353 55.6954C31.6253 55.5954 32.1153 55.8754 32.2153 56.3154C32.3253 56.7654 32.0252 57.1954 31.5352 57.2954ZM37.9454 49.8554C37.4653 49.9554 36.9753 49.6854 36.8653 49.2454C36.7553 48.8054 37.0553 48.3554 37.5353 48.2554C38.0154 48.1554 38.4953 48.4254 38.6153 48.8654C38.7253 49.3054 38.4254 49.7554 37.9454 49.8554ZM40.0853 59.7554C39.5953 59.8554 39.1053 59.5854 38.9853 59.1454C38.8753 58.7054 39.1754 58.2554 39.6654 58.1554C40.1554 58.0454 40.6454 58.3154 40.7654 58.7654C40.8753 59.2054 40.5753 59.6454 40.0853 59.7554Z" fill="#EDC446"/>
<path d="M60.6257 38.3754C56.0957 31.0954 51.6958 23.7354 46.1958 17.0754C45.6658 16.4254 45.1057 15.7754 44.3657 15.3054C42.865 14.3522 41.4556 14.8353 41.5557 14.8353C41.5157 25.1723 39.5665 30.4966 38.8557 33.6954C42.8497 32.8074 43.0975 31.7146 44.0557 32.7754C44.4757 33.2154 44.7957 33.8954 44.7657 34.3454C44.7657 34.875 43.8466 35.141 43.4857 35.2854C42.2339 35.78 38.9274 36.5994 38.3857 36.7254V36.8054C39.4231 36.8509 40.3123 36.8899 41.2057 37.4454C43.9278 39.0583 42.2586 42.6676 39.0157 41.2754C40.4771 45.7384 41.9429 46.076 44.4258 54.8954C44.5757 55.3954 44.9458 56.1354 44.9058 56.6554C44.8657 57.0554 44.5557 57.4954 44.4557 57.8954C43.8966 60.1763 44.8177 62.493 46.0957 63.6254C46.5356 64.0154 47.0657 64.2854 47.6658 64.2954C49.7756 64.3454 51.7756 64.2254 53.7557 63.4854C55.0857 62.9854 56.4058 62.1654 56.7557 61.0054C57.0356 60.0954 56.6758 59.1654 56.3257 58.2954C53.6057 51.6454 50.9557 44.9654 47.5256 38.6154C46.0837 35.9599 44.9536 34.0773 44.3257 31.0454C47.7856 34.4154 50.1958 37.7154 52.9757 41.5554C53.3657 42.0954 53.8958 42.6954 54.6758 42.6454C55.0157 42.6254 55.3257 42.4654 55.6257 42.3254C60.1086 40.0679 60.7753 39.8679 60.9058 39.2454C60.9657 38.9354 60.7957 38.6454 60.6257 38.3754ZM50.0957 54.1054C50.5757 53.9954 51.0657 54.2554 51.1958 54.6954C51.3157 55.1354 51.0256 55.5854 50.5356 55.6954C50.0557 55.8154 49.5557 55.5554 49.4358 55.1154C49.3157 54.6754 49.6057 54.2254 50.0957 54.1054ZM44.9657 38.7654C45.4358 38.6554 45.9158 38.9254 46.0256 39.3654C46.1458 39.8054 45.8557 40.2454 45.3857 40.3554C44.9158 40.4654 44.4358 40.2054 44.3257 39.7654C44.2057 39.3254 44.4957 38.8754 44.9657 38.7654ZM44.4957 19.1254C44.0457 19.2254 43.5857 18.9654 43.4757 18.5254C43.3657 18.0754 43.6458 17.6354 44.0957 17.5254C44.5457 17.4154 45.0057 17.6854 45.1157 18.1254C45.2257 18.5654 44.9557 19.0154 44.4957 19.1254ZM49.4058 27.6454C48.9458 27.7654 48.4757 27.4954 48.3557 27.0554C48.2457 26.6154 48.5157 26.1654 48.9757 26.0554C49.4358 25.9454 49.9058 26.2054 50.0256 26.6454C50.1458 27.0853 49.8657 27.5354 49.4058 27.6454ZM52.0557 35.6454C51.5857 35.7554 51.1057 35.4954 50.9857 35.0554C50.8657 34.6154 51.1458 34.1654 51.6157 34.0554C52.0757 33.9354 52.5557 34.1954 52.6758 34.6354C52.7957 35.0754 52.5157 35.5254 52.0557 35.6454Z" fill="#EDC446"/>
<path d="M45.896 34.6853C45.896 34.8686 45.7531 35.0706 45.596 35.1753C44.8347 35.7365 40.8612 36.768 40.006 36.9653C39.1309 36.7648 38.3291 36.8134 37.346 36.7853C37.106 36.7853 36.2859 36.6253 36.116 36.7653C35.9259 36.9341 36.1905 37.6065 36.2859 37.8453C36.116 37.8853 35.9461 37.9253 35.7759 37.9553C35.7759 37.6624 35.7289 36.9363 35.466 36.8553C35.246 36.7753 34.566 37.2253 34.346 37.3153C33.9183 37.4935 33.2659 37.7402 32.956 37.8953C32.9461 37.9053 32.9361 37.9053 32.9261 37.9053C32.496 38.1153 32.076 38.3553 31.716 38.6453C31.3291 38.6881 28.2453 39.1453 27.7959 38.7753C26.9361 38.1153 27.576 36.3253 28.336 36.1953C30.9104 35.731 33.2443 36.031 44.0559 32.7753C44.3202 32.6764 44.4776 32.6173 44.7759 32.7753C45.356 33.0953 45.9361 34.0953 45.896 34.6853Z" fill="#5158F6"/>
<path d="M31.5293 53.444C32.6445 51.0158 32.915 48.2424 32.29 45.6345C32.175 45.1519 31.4448 45.3271 31.5615 45.8093C32.1475 48.2546 31.8935 50.8547 30.8476 53.1306C30.6428 53.5797 31.3212 53.8938 31.5293 53.444ZM42.7324 62.6813C40.9697 63.3444 39.0303 63.9387 36.8017 64.4987C36.322 64.6204 36.503 65.3468 36.9853 65.2263C39.2412 64.6594 41.207 64.0563 42.9961 63.3835C43.867 63.0567 44.5631 62.7305 45.2333 62.1708C45.4624 62.3557 46.9508 62.3858 47.2549 62.3858C49.9283 62.3858 54.4707 61.3786 55.2649 58.8158C55.6823 57.5142 54.9819 56.2199 54.1649 54.2058C47.8489 38.5205 46.0953 36.2354 45.5948 35.1758C45.4049 35.3158 45.1449 35.4258 44.9249 35.5058C45.5171 36.7608 47.155 38.8031 53.4648 54.4858C54.2708 56.5374 54.8729 57.5703 54.5448 58.5958C54.1849 59.7758 52.6649 60.4958 51.7848 60.8258C49.9066 61.5218 47.8038 61.7663 45.8092 61.5377C45.9396 61.3372 46.0398 61.1278 46.0986 60.903C46.3712 59.804 46.2105 60.2902 41.5283 46.8386C41.3629 46.3715 40.6578 46.6163 40.8193 47.0856C45.4005 60.2329 45.568 59.9289 45.3711 60.7175C45.1187 61.6883 43.6635 62.3318 42.7324 62.6813Z" fill="#030303"/>
<path d="M59.1508 35.9011L57.7211 33.5715C55.662 30.2121 46.2394 14.7774 42.9116 12.657C42.0043 12.0774 40.9506 11.8674 40.0229 12.073C39.9073 12.099 39.8213 12.178 39.773 12.2766C39.403 11.8573 38.9169 11.6604 38.3754 11.4719C37.7397 11.2541 37.1078 11.0451 36.4623 10.8586C35.9223 10.7029 35.3483 10.617 34.9409 11.008C34.8917 10.9609 34.8338 10.9221 34.7621 10.9074C32.8741 10.5179 31.6704 7.46389 29.231 8.08195C28.9184 7.6172 29.7459 6.8816 29.9555 6.19651C30.2123 5.34739 29.7426 4.35129 28.9096 3.97581C27.5388 3.35731 25.8812 4.51546 26.0492 5.84885C26.1244 6.42161 26.5854 6.89329 27.1196 6.94553C27.748 7.00857 28.3418 6.44605 28.2485 5.82395C28.1731 5.32921 27.4318 5.44872 27.5063 5.93625C27.5254 6.06059 27.3572 6.20058 27.1948 6.19944C26.787 6.15888 26.5879 5.54003 27.0766 5.00657C27.4584 4.58909 28.1137 4.44114 28.601 4.6594C29.0951 4.88206 29.3862 5.48606 29.2377 5.97874C29.0626 6.55349 28.0758 7.39783 28.5474 8.36649C27.0257 9.28182 27.0339 10.7888 24.3111 13.6981C23.7444 13.2389 23.1214 13.5487 22.5727 14.0198C21.9848 14.5163 21.5053 14.9441 21.0688 15.3635C19.1665 17.1508 19.8043 18.0331 23.7074 24.0095C26.095 27.6611 25.3064 26.4929 28.5287 30.6657C29.7978 32.3057 30.9339 33.6057 32.0626 34.7282C28.685 35.3648 28.4892 35.2646 27.3366 35.4165C26.77 32.7766 25.1157 31.0784 23.1479 30.4582C22.9506 30.3972 22.7397 30.5056 22.6782 30.7033C22.6157 30.9011 22.725 31.1115 22.9233 31.1736C23.783 31.4445 24.5485 31.9596 25.168 32.6502C20.5045 45.9586 22.935 47.6113 20.1557 47.5178C13.9466 47.3255 14.0204 47.4964 14.0883 46.4402C14.6977 38.1692 15.3276 29.6169 17.4213 21.3274C17.6593 20.8387 16.8468 20.502 16.7016 21.1311C14.5844 29.4963 13.9516 38.0823 13.3403 46.3894C13.2538 47.7351 13.9419 48.0572 15.311 48.1072C20.7636 48.3123 20.8288 48.3206 21.2846 48.1443C23.3269 47.3891 21.6928 45.0991 25.7103 33.4013C26.2697 34.2689 26.468 34.8775 26.6407 35.7033C25.6625 36.5285 25.6193 38.4009 26.6294 38.8019C26.074 43.1354 25.0207 43.0563 24.6205 55.2258C24.3191 65.7977 24.1205 65.697 24.7748 66.4758C25.1352 66.8806 25.6742 67.1242 26.3803 67.1999C27.5866 67.31 29.8644 66.7901 32.2104 66.3142C32.6937 66.215 32.55 65.4843 32.06 65.5788C30.8334 65.8288 29.5951 66.0681 28.3559 66.2976C27.4343 66.4701 25.9632 66.6826 25.3422 65.9851C24.9346 65.5001 25.0743 65.6487 25.3705 55.2439C25.7654 43.1745 26.8216 43.2058 27.3738 38.8912C28.5169 38.9396 30.1432 38.715 31.2717 38.5484C29.1758 40.5156 30.3367 43.3865 32.768 43.3865C34.3571 43.3865 35.9597 42.0256 36.1196 39.2981L36.1205 39.2947C36.1356 39.0024 36.1485 38.7617 36.1531 38.4477C36.7995 39.7663 37.5458 41.0095 38.9047 41.6369C39.3909 41.8488 39.8471 41.9812 40.3842 41.9812C41.8193 41.9812 42.8453 40.9217 42.9389 39.7981C43.0417 38.5928 42.159 37.1612 40.2317 36.645C43.3146 35.8553 43.46 35.6792 43.7826 35.5749C44.3788 35.3552 45.1391 35.0166 45.1391 34.3708C45.1815 33.7235 44.71 32.8855 44.2081 32.4086C43.6136 31.1063 43.516 30.6551 43.3209 29.9497C46.2461 32.9922 48.425 36.0182 50.9008 39.4675C51.1752 39.8489 51.8032 40.7229 52.8022 40.7229C53.4031 40.7229 53.6677 40.555 58.2231 38.2488C59.4209 37.6438 59.8441 37.0251 59.1508 35.9011ZM38.1313 12.1809C39.7519 12.7459 39.8748 13.109 39.2582 18.0129C38.0724 26.7537 38.9747 21.2659 37.6166 28.2102C37.2933 29.8135 36.8253 31.9027 36.0823 33.9261C36.0599 33.9306 36.0367 33.9357 36.0142 33.9402C35.4524 33.2127 34.9063 32.4551 34.3628 31.6931C35.859 21.9947 35.3647 12.225 35.3666 12.3264C35.2992 11.1879 35.3944 11.2442 38.1313 12.1809ZM29.519 8.77317C30.7589 8.55549 32.0182 9.97718 32.1811 10.0969C32.7916 10.6669 33.4306 11.2338 34.2328 11.5146C31.9925 14.0866 28.242 15.2929 24.8633 14.5399C24.8348 14.4714 24.8016 14.3976 24.7645 14.3194C27.8117 11.1091 27.8789 9.05886 29.519 8.77317ZM25.5297 25.4328C20.5161 17.6649 20.0113 17.3889 21.5854 15.907C22.0131 15.4968 22.4809 15.0793 23.059 14.5906C23.7369 14.0086 23.8853 14.1361 24.1948 14.8855C27.1513 21.6364 30.4519 27.8888 35.2077 34.1082C34.5786 34.242 33.7043 34.4269 32.9583 34.5603C30.5714 32.2725 26.6092 27.061 25.5297 25.4328ZM34.7299 41.4636C33.7791 42.9424 31.8851 42.996 31.1586 41.7571C30.7379 41.0385 30.8572 39.8501 31.9506 38.9382C32.4221 38.5596 32.9128 38.3418 33.1225 38.2302L33.1235 38.2317C33.5636 38.0116 34.3276 37.7583 34.7576 37.5263C34.9266 37.7068 35.1421 37.8424 35.3953 37.9133C35.4095 39.1562 35.3994 40.4225 34.7299 41.4636ZM42.1909 39.7341V39.7356C42.1044 40.7852 40.8898 41.6308 39.3862 41.0246C38.0482 40.5311 37.2187 39.0261 36.6421 37.7242C36.8599 37.5756 37.0223 37.3744 37.1111 37.144C37.9874 37.2352 39.7431 36.9769 41.0141 37.7693C41.768 38.216 42.2524 39.0241 42.1909 39.7341ZM38.043 36.4211C37.6171 36.4063 37.5055 36.4365 37.107 36.3896C36.9041 35.8089 36.2681 35.4285 35.5768 35.535C34.8677 35.6446 34.3802 36.219 34.4343 36.8483C34.0671 37.0506 33.2971 37.3137 32.8248 37.5429C30.9356 37.8686 30.0606 37.9557 29.9194 37.9753C27.7727 38.2357 27.5251 38.1285 27.0886 38.1336C27.0079 38.1292 26.9278 38.1208 26.8979 38.1018C26.3225 37.6484 26.8212 36.2549 27.2719 36.177C40.8737 34.1161 41.0046 33.363 43.266 32.7077C43.5663 32.6243 44.434 33.661 44.3881 34.3518C44.2645 34.9509 38.3838 36.3524 38.043 36.4211ZM53.6684 39.6882C52.8405 40.0973 52.3573 40.2052 51.5102 39.03C48.7742 35.2189 46.4041 31.9209 42.9783 28.5306C42.7029 27.1796 42.5272 25.819 42.3774 24.5617C42.353 24.3562 42.1586 24.2112 41.9614 24.2336C41.7553 24.2585 41.6088 24.445 41.6332 24.6506C41.7833 25.9132 41.9603 27.2793 42.2365 28.6449C42.2273 28.745 42.6302 30.5853 43.1968 31.9646C42.0963 32.095 42.1291 32.6525 36.9339 33.7502C37.6045 31.819 38.0468 29.8739 38.352 28.3562C39.5445 22.281 38.8092 27.0081 40.0024 18.1062C40.1964 16.5606 40.5886 13.9388 40.1021 12.8063C40.2999 12.8084 41.2792 12.5035 42.5082 13.2893C45.769 15.3678 56.216 32.551 57.0815 33.9631L58.5121 36.2951C59.0841 37.2182 58.9486 37.081 53.6684 39.6882Z" fill="#030303"/>
<path d="M47.3862 48.9236C47.772 49.2268 48.2406 48.641 47.849 48.3338C45.8012 46.7239 44.3188 44.4993 43.6752 42.0701C43.5499 41.5864 42.8226 41.7854 42.9506 42.2625C43.6352 44.848 45.2104 47.2137 47.3862 48.9236ZM17.3871 8.83331C17.6674 9.11358 17.811 9.54961 17.9369 9.93438C18.0903 10.4026 18.805 10.1737 18.6498 9.70001C18.5043 9.2586 18.3237 8.70928 17.9164 8.30303C17.4897 7.87579 16.725 7.63751 16.1449 8.03497C15.5727 8.42657 15.5278 9.19708 15.6645 9.7376C16.0626 11.333 17.9104 12.3981 19.5219 11.949C20.0016 11.815 19.7964 11.0921 19.3207 11.2264C18.1069 11.5624 16.6878 10.7378 16.391 9.55499C16.308 9.22393 16.3305 8.8167 16.5698 8.65362C16.7934 8.49981 17.1742 8.62042 17.3871 8.83331ZM12.5141 12.5306C13.2948 13.0433 14.2747 13.2687 15.185 13.1648C15.391 13.1419 15.5385 12.9559 15.516 12.7503C15.4926 12.5452 15.3178 12.4007 15.101 12.4197C14.3471 12.5013 13.5541 12.3167 12.9262 11.9036C12.5097 11.6306 12.101 12.2587 12.5141 12.5306ZM16.1938 16.0213C16.6798 16.092 16.7835 15.3385 16.2856 15.2772C14.3901 15.0403 12.391 16.0853 11.5414 17.7576C10.6791 19.4515 11.059 21.6395 12.4438 22.9603C12.8007 23.3028 13.3215 22.7599 12.9614 22.4173C11.811 21.3196 11.4946 19.5032 12.2094 18.0975C12.9223 16.6966 14.603 15.8255 16.1938 16.0213Z" fill="#030303"/>
</svg>
