<svg width="72" height="72" viewBox="0 0 72 72" fill="none" xmlns="http://www.w3.org/2000/svg">
<path d="M64.7936 20.4244C64.1936 17.3945 62.7436 14.4244 60.2836 12.5544C55.2229 8.75008 45.7304 10.0173 42.1836 14.4745C37.7 20.0877 40.8156 31.5965 42.0637 39.0845C43.247 46.2169 42.7072 47.9104 42.1736 52.1345C42.9758 51.6278 44.1836 52.2245 44.1836 53.3144C44.1836 54.4671 42.8101 55.0807 41.9636 54.3445C41.7936 57.1445 42.1036 59.8845 43.9636 62.2245C46.2336 65.0745 50.1237 66.7045 53.7036 65.5845C57.2136 64.4844 59.2537 61.4045 60.3436 58.0445C61.6636 53.9545 61.9436 49.5345 62.6936 45.3144C63.8634 38.7868 66.1755 27.2887 64.7936 20.4244ZM45.1336 12.6844C45.8737 12.6844 46.4836 13.2845 46.4836 14.0345C46.4836 14.7745 45.8737 15.3845 45.1336 15.3845C44.3836 15.3845 43.7736 14.7745 43.7736 14.0345C43.7736 13.2845 44.3836 12.6844 45.1336 12.6844ZM45.1336 41.8044C44.3836 41.8044 43.7736 41.1945 43.7736 40.4545C43.7736 39.7045 44.3836 39.1045 45.1336 39.1045C45.8737 39.1045 46.4836 39.7045 46.4836 40.4545C46.4836 41.1945 45.8737 41.8044 45.1336 41.8044ZM52.3636 60.7245C51.6136 60.7245 51.0136 60.1244 51.0136 59.3744C51.0136 58.6244 51.6136 58.0245 52.3636 58.0245C53.1036 58.0245 53.7136 58.6244 53.7136 59.3744C53.7136 60.1244 53.1036 60.7245 52.3636 60.7245ZM52.5336 34.9745C51.7936 34.9745 51.1836 34.3644 51.1836 33.6244C51.1836 32.8744 51.7936 32.2645 52.5336 32.2645C53.2836 32.2645 53.8936 32.8744 53.8936 33.6244C53.8936 34.3644 53.2836 34.9745 52.5336 34.9745ZM55.2336 23.7245C55.1431 25.2324 54.2955 25.7845 52.7436 25.7845C52.7836 25.7845 53.0037 26.0745 53.0436 26.1144C53.2854 26.4046 53.4898 26.8787 53.5236 27.4045C53.6325 29.6893 50.9426 30.435 49.6836 29.0345C48.5867 30.3973 46.287 30.1463 45.6836 28.3044C45.2736 28.0345 45.0336 27.4944 44.9636 26.9745C43.8978 26.8146 43.1746 26.1042 42.9436 25.3345C41.737 24.4465 41.7012 22.6505 43.2736 21.7745C43.4636 21.6645 43.5736 21.6345 43.4936 21.4045C43.4336 21.1945 43.2636 21.0145 43.1836 20.8044C42.6547 19.4668 43.3687 18.1218 44.5037 17.7845C45.2436 17.5644 46.1237 17.8644 46.5336 18.5145C47.0637 17.8644 47.6436 17.1945 48.4336 16.9344C49.4646 16.5991 50.6342 17.1257 51.0136 17.8845C51.8553 18.165 52.6295 19.1342 52.4436 20.1744C52.8783 20.3194 53.353 20.6204 53.6336 20.9944C53.8796 20.9944 54.574 21.3699 54.9436 22.1244C55.1836 22.6144 55.2636 23.1744 55.2336 23.7245ZM56.5936 46.1545C55.8436 46.1545 55.2436 45.5544 55.2436 44.8044C55.2436 44.0544 55.8436 43.4545 56.5936 43.4545C57.3436 43.4545 57.9436 44.0544 57.9436 44.8044C57.9436 45.5544 57.3436 46.1545 56.5936 46.1545ZM59.7936 23.4045C59.0436 23.4045 58.4336 22.7945 58.4336 22.0544C58.4336 21.3044 59.0436 20.7045 59.7936 20.7045C60.5336 20.7045 61.1436 21.3044 61.1436 22.0544C61.1436 22.7945 60.5336 23.4045 59.7936 23.4045Z" fill="#EDC446"/>
<path d="M53.774 21.025C53.734 21.015 53.684 20.9949 53.634 20.9949C53.1229 20.8245 52.938 21.0069 52.164 21.265C53.655 17.7097 49.1003 16.492 47.864 19.275C47.774 19.475 47.784 19.6749 47.584 19.4949C47.024 18.955 46.424 18.5549 45.594 18.715C44.724 18.885 44.084 19.635 44.014 20.4949C43.974 21.075 44.204 22.595 44.984 22.7349C43.703 22.4978 42.43 23.793 42.944 25.335C43.2729 26.4311 44.49 27.1081 45.624 27.005C45.3578 28.0453 45.9016 29.2072 46.834 29.665C47.774 30.135 49.024 29.855 49.684 29.035C50.484 29.9249 52.044 29.975 52.894 29.135C53.6905 28.3558 53.7287 26.9367 53.044 26.1149C53.004 26.075 52.784 25.785 52.744 25.785C53.4804 25.785 54.2653 25.6648 54.754 25.1149C55.6304 24.1322 55.3862 21.614 53.774 21.025ZM47.954 24.965C46.924 25.135 45.944 24.415 45.774 23.3649C45.604 22.3149 46.304 21.325 47.344 21.165C48.374 20.9949 49.354 21.705 49.524 22.755C49.694 23.8049 48.994 24.795 47.954 24.965Z" fill="#5158F6"/>
<path d="M26.7438 16.7838C27.4938 16.5238 27.5038 14.9938 27.3738 14.4238C27.1738 13.5738 26.4338 12.9338 25.5438 12.8938C24.7038 12.8539 24.1738 13.3438 23.6938 13.9538C23.4643 14.2373 23.5817 13.8434 23.0038 13.3038C22.1421 12.4731 20.9492 12.3578 20.0538 12.8738C19.7738 13.5738 19.8538 14.4139 20.2838 15.0338C19.8338 15.0338 19.3738 15.1438 18.9738 15.3438C19.0738 15.7238 19.2538 16.0838 19.4238 16.3738C18.5683 16.2211 18.4732 16.0922 17.9438 16.3038H17.9338C17.1795 17.6169 17.8317 19.1065 19.0438 19.4139C19.8804 19.634 19.9685 19.2734 21.3438 20.1138C25.0254 22.3565 25.6954 22.956 26.5638 22.5838C26.6738 22.5338 26.7738 22.4738 26.8538 22.3838C26.9438 21.9538 26.9038 21.4938 26.7338 21.0938C26.9538 21.0738 27.1738 21.0338 27.3838 20.9738C27.3462 20.3717 27.4024 20.2215 27.4638 20.1039C27.741 19.5494 28.5389 19.6843 29.1438 19.0439C29.3977 17.4571 28.0004 16.3488 26.7438 16.7838ZM24.1238 19.4238C23.0738 19.4038 22.2338 18.5338 22.2538 17.4638C22.2638 16.4038 23.1338 15.5538 24.1838 15.5638C25.2238 15.5838 26.0638 16.4538 26.0438 17.5238C26.0338 18.5838 25.1738 19.4338 24.1238 19.4238ZM34.3438 47.6138C33.6328 48.4315 32.179 48.0765 32.0038 46.9138C31.8414 45.8215 32.9718 45.0748 33.8138 45.4538C33.5638 44.5338 33.2838 43.6138 33.0238 42.7038C30.9509 35.3793 32.7748 27.2545 32.1638 19.3838C31.8738 15.4738 31.3338 11.0138 28.3038 8.19382C24.1536 4.30898 14.5511 4.42805 10.1238 8.94382C7.95377 11.1538 6.95377 14.3038 6.80381 17.3838C6.64377 20.4738 7.26377 23.5439 7.9238 26.5638C9.06382 31.7238 10.8438 36.7038 12.5238 41.7038C14.9149 48.8422 16.4887 59.1874 24.3738 60.4438C28.0738 61.0338 31.6938 58.8539 33.5138 55.6938C35.0138 53.1039 34.9138 50.3539 34.3438 47.6138ZM25.1238 6.85385C25.8638 6.74381 26.5538 7.25382 26.6638 7.99381C26.7738 8.7338 26.2638 9.4238 25.5238 9.53385C24.7838 9.63382 24.0938 9.12381 23.9838 8.39383C23.8838 7.65384 24.3938 6.96384 25.1238 6.85385ZM12.1938 19.6039C11.4538 19.7138 10.7638 19.2038 10.6538 18.4638C10.5438 17.7238 11.0538 17.0338 11.7938 16.9238C12.5338 16.8238 13.2238 17.3338 13.3338 18.0638C13.4438 18.8038 12.9338 19.4938 12.1938 19.6039ZM18.6738 41.6438C17.9338 41.7538 17.2538 41.2438 17.1438 40.5038C17.0338 39.7638 17.5438 39.0838 18.2838 38.9738C19.0238 38.8638 19.7038 39.3738 19.8138 40.1138C19.9238 40.8438 19.4138 41.5338 18.6738 41.6438ZM21.0538 29.9838C20.3138 30.0938 19.6338 29.5838 19.5238 28.8539C19.4138 28.1138 19.9238 27.4238 20.6638 27.3138C21.3938 27.2038 22.0838 27.7138 22.1938 28.4538C22.3038 29.1938 21.7938 29.8838 21.0538 29.9838ZM24.9938 55.4438C24.2538 55.5538 23.5638 55.0439 23.4538 54.3038C23.3438 53.5638 23.8538 52.8738 24.5938 52.7638C25.3338 52.6538 26.0238 53.1738 26.1338 53.9038C26.2438 54.6438 25.7338 55.3338 24.9938 55.4438ZM26.8538 22.3838C26.7638 22.9838 26.4238 23.5538 25.9238 23.9038C25.0638 24.5038 23.7838 24.4139 23.0138 23.6938C22.3438 24.6938 20.8138 24.9638 19.8438 24.2638C18.9475 23.596 18.702 22.2172 19.2638 21.3038C19.2938 21.2538 19.4738 20.9338 19.5138 20.9338C18.7838 21.0439 17.9738 21.0338 17.4238 20.5638C17.0438 20.2338 16.8438 19.7438 16.7438 19.2538C16.4617 17.8952 16.9691 16.8205 17.7938 16.3738C17.8438 16.3539 17.8838 16.3338 17.9338 16.3038C17.1795 17.6169 17.8317 19.1065 19.0438 19.4139C19.8804 19.634 19.9685 19.2734 21.3438 20.1138C25.0254 22.3565 25.6954 22.956 26.5638 22.5838C26.6738 22.5338 26.7738 22.4738 26.8538 22.3838C26.9438 21.9538 26.9038 21.4938 26.7338 21.0938C26.9538 21.0738 27.1738 21.0338 27.3838 20.9738C27.3462 20.3717 27.4024 20.2215 27.4638 20.1039C27.741 19.5494 28.5389 19.6843 29.1438 19.0439C29.3977 17.4571 28.0004 16.3488 26.7438 16.7838C27.4938 16.5238 27.5038 14.9938 27.3738 14.4238C27.1738 13.5738 26.4338 12.9338 25.5438 12.8938C24.7038 12.8539 24.1738 13.3438 23.6938 13.9538C23.4643 14.2373 23.5817 13.8434 23.0038 13.3038C22.1421 12.4731 20.9492 12.3578 20.0538 12.8738C19.7738 13.5738 19.8538 14.4139 20.2838 15.0338C19.8338 15.0338 19.3738 15.1438 18.9738 15.3438C19.0738 15.7238 19.2538 16.0838 19.4238 16.3738C18.5683 16.2211 18.4732 16.0922 17.9438 16.3038C18.1529 15.9089 18.5773 15.55 18.9738 15.3438C18.6976 14.4119 19.1434 13.5037 19.8238 13.0138C19.8706 12.9764 19.9945 12.8936 20.0538 12.8738C20.3639 12.0206 21.4331 11.3623 22.4738 11.5439C23.3038 11.6838 23.9738 12.2738 24.5938 12.8238C24.9038 12.1238 25.7338 11.7038 26.4938 11.8138C27.2638 11.9238 27.9238 12.5138 28.1738 13.2438C28.3338 13.6738 28.3438 14.1538 28.2438 14.6039C28.1938 14.8238 28.0538 15.0338 28.0138 15.2438C27.9738 15.4838 28.0838 15.4938 28.2938 15.5738C29.9288 16.1843 30.2298 17.9578 29.1438 19.0439C28.9943 19.9709 28.2972 20.6854 27.3838 20.9738C27.3738 21.4938 27.2238 22.0638 26.8538 22.3838ZM22.2538 17.4638C22.2638 16.4038 23.1338 15.5538 24.1838 15.5638C25.2238 15.5838 26.0638 16.4538 26.0438 17.5238C26.0338 18.5838 25.1738 19.4338 24.1238 19.4238C23.0738 19.4038 22.2338 18.5338 22.2538 17.4638ZM29.3838 35.6638C28.6438 35.7738 27.9538 35.2638 27.8438 34.5238C27.7338 33.7838 28.2438 33.1039 28.9838 32.9938C29.7238 32.8838 30.4138 33.3938 30.5238 34.1338C30.6338 34.8738 30.1238 35.5538 29.3838 35.6638ZM26.7438 16.7838C27.4938 16.5238 27.5038 14.9938 27.3738 14.4238C27.1738 13.5738 26.4338 12.9338 25.5438 12.8938C24.7038 12.8539 24.1738 13.3438 23.6938 13.9538C23.4643 14.2373 23.5817 13.8434 23.0038 13.3038C22.1421 12.4731 20.9492 12.3578 20.0538 12.8738C19.7738 13.5738 19.8538 14.4139 20.2838 15.0338C19.8338 15.0338 19.3738 15.1438 18.9738 15.3438C19.0738 15.7238 19.2538 16.0838 19.4238 16.3738C18.5683 16.2211 18.4732 16.0922 17.9438 16.3038H17.9338C17.1795 17.6169 17.8317 19.1065 19.0438 19.4139C19.8804 19.634 19.9685 19.2734 21.3438 20.1138C25.0254 22.3565 25.6954 22.956 26.5638 22.5838C26.6738 22.5338 26.7738 22.4738 26.8538 22.3838C26.9438 21.9538 26.9038 21.4938 26.7338 21.0938C26.9538 21.0738 27.1738 21.0338 27.3838 20.9738C27.3462 20.3717 27.4024 20.2215 27.4638 20.1039C27.741 19.5494 28.5389 19.6843 29.1438 19.0439C29.3977 17.4571 28.0004 16.3488 26.7438 16.7838ZM24.1238 19.4238C23.0738 19.4038 22.2338 18.5338 22.2538 17.4638C22.2638 16.4038 23.1338 15.5538 24.1838 15.5638C25.2238 15.5838 26.0638 16.4538 26.0438 17.5238C26.0338 18.5838 25.1738 19.4338 24.1238 19.4238Z" fill="#EDC446"/>
<path d="M28.8841 17.5841C28.4441 16.8841 27.5241 16.5141 26.7442 16.7841C27.4942 16.5241 27.5042 14.9941 27.3742 14.4241C27.1741 13.5741 26.4342 12.9341 25.5441 12.8941C24.7041 12.8542 24.1741 13.3441 23.6941 13.9541C23.4647 14.2376 23.582 13.8437 23.0042 13.3041C21.4832 11.8378 19.172 12.6919 18.8941 14.5442C18.8142 15.1341 19.1341 15.8841 19.4241 16.3741C18.4848 16.2064 18.4585 16.0696 17.7941 16.3741C17.3142 16.6341 16.9641 17.1042 16.7941 17.6341C16.6341 18.1541 16.6341 18.7241 16.7442 19.2541C16.8441 19.7441 17.0441 20.2341 17.4241 20.5641C17.5141 20.6441 17.6141 20.7041 17.7141 20.7541C18.2392 21.0369 18.9222 21.0296 19.5141 20.9341C19.4741 20.9341 19.2941 21.2541 19.2641 21.3041C18.7027 22.2169 18.9473 23.5959 19.8441 24.2641C20.8142 24.9641 22.3441 24.6941 23.0141 23.6941C23.7841 24.4142 25.0642 24.5041 25.9241 23.9041C26.7941 23.3041 27.1441 22.0641 26.7341 21.0941C28.6989 20.9368 29.7478 18.9901 28.8841 17.5841ZM24.1242 19.4241C23.0741 19.4041 22.2341 18.5341 22.2542 17.4641C22.2641 16.4041 23.1341 15.5541 24.1842 15.5641C25.2241 15.5841 26.0642 16.4541 26.0441 17.5241C26.0341 18.5841 25.1741 19.4341 24.1242 19.4241Z" fill="#5158F6"/>
<path d="M40.3537 44.8589C40.4438 49.8166 37.6612 56.3273 41.615 61.3159C43.9891 64.2933 48.047 65.9672 51.7605 64.7998C58.3346 62.7457 59.461 54.8904 60.3947 48.2485C61.3509 41.4497 62.8528 35.4804 63.3528 28.5473C63.6894 23.6126 63.8535 18.5844 61.2693 14.3271C61.0098 13.901 60.3715 14.2942 60.6277 14.7168C63.1096 18.8024 62.9306 23.7121 62.6047 28.4951C62.4207 31.0451 62.0731 33.5992 61.667 36.1327C60.6787 31.7285 57.9741 27.9252 54.4934 25.3545C54.2534 25.5245 53.9734 25.6345 53.6734 25.6945C55.2934 26.8245 56.7334 28.2245 57.8933 29.7845C61.2512 34.238 61.0934 37.9074 61.3095 38.2908C60.249 44.4239 60.3238 43.3702 59.6521 48.144C58.7608 54.4825 57.7043 62.1577 51.5363 64.084C48.1385 65.1529 44.3904 63.5949 42.2024 60.8491C38.4961 56.1727 41.1918 49.7867 41.1037 44.8437C41.0432 42.06 40.6592 39.4837 40.1705 36.7343C40.6925 33.2332 42.2429 29.5802 44.1534 26.7145C43.9334 26.6145 43.7234 26.4645 43.5434 26.2845C42.0268 28.501 40.5507 31.6675 39.808 34.7381C39.1815 31.4096 38.5442 28.1038 38.3127 24.936C38.032 20.8701 37.9636 16.6435 40.4221 13.5654C43.904 9.18994 53.0857 8.1641 57.8191 11.5859C58.2206 11.8784 58.6606 11.2696 58.2585 10.9785C56.0049 9.34517 52.433 8.3334 47.9226 9.00144C30.325 11.6766 40.0711 31.8109 40.3537 44.8589Z" fill="#030303"/>
<path d="M45.8134 21.6952C44.6151 23.344 46.013 25.6649 48.0146 25.3354C49.2544 25.1327 50.0976 23.9486 49.894 22.6952C49.566 20.6652 46.9798 20.0914 45.8134 21.6952ZM47.8935 24.5951C46.5401 24.8148 45.6192 23.2372 46.4199 22.1366C47.2073 21.0543 48.9329 21.4546 49.1538 22.8153C49.291 23.661 48.7256 24.4594 47.8935 24.5951Z" fill="#030303"/>
<path d="M54.6191 22.7575C54.7442 20.4431 53.0043 19.2138 51.7583 19.6637C52.5269 16.3843 48.0974 15.0652 46.5928 17.9948C44.8267 16.5192 42.7865 17.7386 42.6528 19.4733C42.6231 19.8708 42.708 20.7916 43.0767 21.4376C40.5716 22.2058 41.0229 26.1618 44.1929 26.3888C44.1057 27.8159 45.181 29.275 46.8345 29.275C47.5171 29.275 48.2036 29.027 48.7095 28.5709C50.3386 29.8404 53.0433 28.8328 52.9038 26.3937C52.8781 25.9465 52.746 25.5019 52.5068 25.1222C53.8577 24.9245 54.5438 24.1207 54.6191 22.7575ZM51.7544 24.4215C51.7549 24.4215 51.7539 24.4215 51.7544 24.4215C51.3807 24.4215 51.2367 24.9116 51.5513 25.1124C52.4088 25.9912 52.28 27.2464 51.6426 27.8732C50.899 28.6048 49.5952 28.4856 48.9702 27.7936C48.8214 27.6291 48.548 27.6233 48.3989 27.8107C47.8477 28.5016 46.7979 28.7311 46.0068 28.338C45.2168 27.943 44.7715 26.964 44.9927 26.109C45.0548 25.8684 44.8726 25.6398 44.6299 25.6398C44.6211 25.6398 44.6123 25.6403 44.604 25.6408C42.9358 25.7502 41.7912 24.2784 42.3398 23.0041C42.605 22.3888 43.2988 22.0001 43.9199 22.1139C43.9204 22.1139 43.9209 22.1144 43.9214 22.1144C44.413 22.2021 44.5444 21.4689 44.0601 21.3771C43.6128 21.2931 43.3579 20.0963 43.4009 19.5304C43.4551 18.8205 43.9805 18.2311 44.6777 18.0968C45.8847 17.8704 46.2663 19.0814 46.8276 18.9352C47.1236 18.8584 47.158 18.5547 47.2105 18.4396C47.7187 17.3247 48.9374 16.8397 49.98 17.276C50.5077 17.4959 50.9124 17.9699 51.0679 18.4967C51.1772 18.8688 51.0855 19.4831 50.8228 20.1398C50.7041 20.4359 50.9884 20.7357 51.2871 20.6354C52.1533 20.3531 52.099 20.2181 52.6587 20.3913C53.3552 20.6402 53.9388 21.4468 53.8701 22.7165C53.7992 24.0129 53.0942 24.4215 51.7544 24.4215ZM15.2397 44.3424C15.8037 46.254 16.3867 48.2311 17.1089 50.1164C17.2868 50.5807 17.9867 50.3105 17.8091 49.8478C17.0977 47.9904 16.519 46.028 15.959 44.13C14.6491 39.6944 14.8241 40.5394 12.8663 34.5764C12.9006 34.4895 12.8991 34.3911 12.8836 34.3447C12.7305 29.069 15.0934 24.2622 18.5637 20.9846C18.2636 20.9647 17.9736 20.8947 17.7136 20.7547C14.6741 23.7943 12.5188 27.9607 12.1896 32.4609C10.7309 27.8255 8.79257 20.802 9.04346 15.9801C9.20606 12.6315 10.3467 9.72085 12.2632 7.77846C16.7434 3.29825 26.0399 3.42856 29.9131 7.03628C34.4537 11.2783 33.8637 21.5058 33.6099 27.8946C32.3923 24.8749 30.3611 21.8671 28.6837 20.0847C28.5336 20.2847 28.3536 20.4547 28.1436 20.5947C30.5269 23.3177 32.4964 26.4618 33.5425 29.9311C33.4607 32.7122 33.4561 35.3095 33.8071 38.0831C34.4957 43.1132 38.0198 48.9473 35.0547 54.0739C31.8186 59.6444 24.1847 60.9783 19.7373 53.8341C19.4751 53.4127 18.8384 53.8092 19.1006 54.2306C23.8158 61.8058 32.1549 60.5586 35.7036 54.4498C38.8788 48.96 35.2512 43.1032 34.5508 37.985C34.3013 36.0153 34.207 33.8302 34.2539 31.109C34.3971 23.3037 35.7986 11.5077 30.4243 6.48794C26.2676 2.6154 16.5434 2.46446 11.7217 7.25893C9.68311 9.32583 8.46582 12.4103 8.29443 15.9425C8.13184 19.0734 8.7627 22.2394 9.42285 25.2135C10.9107 31.9496 13.2995 37.7707 15.2397 44.3424Z" fill="#030303"/>
<path d="M25.7377 19.1424C26.1708 18.7142 26.413 18.1414 26.4189 17.5301C26.4546 15.5177 24.0501 14.3888 22.5663 15.846C22.1288 16.2757 21.8852 16.849 21.8793 17.4579C21.8417 19.4954 24.2835 20.5818 25.7377 19.1424ZM23.0917 16.3812C23.3823 16.096 23.7631 15.9398 24.1625 15.9398C24.1674 15.9398 24.1723 15.9398 24.1767 15.9398C25.0156 15.9559 25.685 16.6639 25.6689 17.5179V17.5213C25.6613 18.3245 25.0588 19.0175 24.1313 19.0497C22.7678 19.0236 22.1267 17.3286 23.0917 16.3812Z" fill="#030303"/>
<path d="M17.2116 18.2098C17.5025 19.6373 18.3173 20.1968 19.6461 20.2411C18.8478 22.0705 20.244 24.2607 22.445 23.8646C23.0187 23.7626 23.5333 23.4896 23.9069 23.098C24.8068 23.6967 26.0826 23.7113 26.9757 23.0883C27.8488 22.4779 28.2745 21.3143 28.0563 20.2797C30.0623 19.8357 30.9497 17.7505 30.0333 16.267C29.6779 15.6918 29.0748 15.3158 28.4381 15.2186C28.7081 14.5258 28.6574 13.6024 28.5695 13.2133C28.1876 11.5299 26.0109 10.592 24.4567 12.3265C22.5512 9.65886 18.3336 11.591 19.5875 14.7313C18.3059 14.4715 16.7444 15.9134 17.2116 18.2098ZM20.1974 15.6244C20.519 15.6729 20.7426 15.3372 20.5851 15.0663C20.2291 14.4545 20.0485 13.8602 20.1027 13.4769C20.3798 11.5086 23.1248 11.2507 23.9596 12.9491C24.1785 13.3947 24.5574 13.3882 24.82 13.0599C25.2848 12.476 25.6974 12.1239 26.3654 12.1473C27.0753 12.1786 27.6808 12.6854 27.838 13.3793C27.9635 13.9335 27.8864 15.1542 27.4557 15.3026C26.9846 15.4659 27.2355 16.176 27.7008 16.0116C28.2965 15.8041 29.0426 16.0892 29.3951 16.661C30.1178 17.8317 29.217 19.4704 27.5407 19.6C27.2844 19.6197 27.1244 19.8864 27.2243 20.12C27.5626 20.9203 27.2584 21.976 26.546 22.4735C25.8331 22.9701 24.7384 22.8925 24.1032 22.3007C23.9387 22.1482 23.6669 22.1702 23.5353 22.3671C23.2755 22.7577 22.8297 23.0341 22.3131 23.1264C20.5229 23.4465 19.5821 21.4688 20.59 20.0927C20.8712 19.848 20.6597 19.3797 20.2887 19.4384C19.4601 19.5624 18.8732 19.4691 18.4996 19.1517C17.9061 18.649 17.7448 17.3832 17.9874 16.6215C18.2556 15.7775 18.9764 15.3913 19.3439 15.4481C19.6209 15.4996 19.9024 15.5737 20.1974 15.6244ZM33.3878 60.579C32.7282 61.4515 31.8439 62.1293 30.8302 62.5389C30.4506 62.6925 30.5598 63.2616 30.9708 63.2616C31.2794 63.2616 32.8979 62.4709 33.9865 61.0311C34.2861 60.6339 33.6848 60.1826 33.3878 60.579ZM34.8649 61.7015C34.5753 63.0048 34.589 64.3793 34.9049 65.6766C35.0213 66.1573 35.7518 65.9819 35.6334 65.4989C35.3449 64.3129 35.3322 63.056 35.5973 61.8646C35.7054 61.3784 34.9727 61.2204 34.8649 61.7015ZM38.277 60.8514C38.2496 60.6459 38.0577 60.5028 37.8566 60.5277C37.651 60.5546 37.5065 60.743 37.5328 60.9481C37.9083 63.8246 39.5236 66.5741 41.8546 68.3026C42.2467 68.5945 42.7028 67.9982 42.3009 67.7001C40.1305 66.0902 38.6261 63.5302 38.277 60.8514Z" fill="#030303"/>
</svg>
