<svg width="216" height="161" viewBox="0 0 216 161" fill="none" xmlns="http://www.w3.org/2000/svg">
<g clip-path="url(#clip0_982_3461)">
<rect width="216" height="161" rx="16" fill="#5158F6"/>
<path d="M257.5 -62V65C257.5 73.5604 250.56 80.5 242 80.5H163C154.44 80.5 147.5 73.5604 147.5 65V38.5C147.5 29.3873 140.113 22 131 22H-8C-16.5604 22 -23.5 15.0604 -23.5 6.5V-62C-23.5 -70.5604 -16.5604 -77.5 -8 -77.5H242C250.56 -77.5 257.5 -70.5604 257.5 -62Z" stroke="url(#paint0_linear_982_3461)"/>
<g clip-path="url(#clip1_982_3461)">
<path d="M27.958 22.042C24.6937 22.042 22.042 24.6937 22.042 27.958C22.042 27.9832 22.0252 28 22 28C21.9748 28 21.958 27.9832 21.958 27.958C21.958 24.6937 19.3063 22.042 16.042 22.042C16.0168 22.042 16 22.0252 16 22C16 21.9748 16.0168 21.958 16.042 21.958C19.3063 21.958 21.958 19.3063 21.958 16.042C21.958 16.0168 21.9748 16 22 16C22.0252 16 22.042 16.0168 22.042 16.042C22.042 19.3063 24.6937 21.958 27.958 21.958C27.9832 21.958 28 21.9748 28 22C28 22.0252 27.9832 22.042 27.958 22.042Z" fill="white"/>
<path d="M24.6855 17.6364C25.5666 17.6364 26.2799 16.9231 26.2799 16.042C26.2799 16.0168 26.2967 16 26.3219 16C26.3471 16 26.3638 16.0168 26.3638 16.042C26.3638 16.9231 27.0771 17.6364 27.9582 17.6364C27.9834 17.6364 28.0002 17.6531 28.0002 17.6783C28.0002 17.7035 27.9834 17.7203 27.9582 17.7203C27.0771 17.7203 26.3638 18.4336 26.3638 19.3147C26.3638 19.3399 26.3471 19.3566 26.3219 19.3566C26.2967 19.3566 26.2799 19.3399 26.2799 19.3147C26.2799 18.4336 25.5666 17.7203 24.6855 17.7203C24.6603 17.7203 24.6436 17.7035 24.6436 17.6783C24.6436 17.6531 24.6603 17.6364 24.6855 17.6364Z" fill="white"/>
<path d="M18.8116 26.3638C18.2074 26.3638 17.7207 26.8505 17.7207 27.4547C17.7207 27.4798 17.7039 27.4966 17.6787 27.4966C17.6536 27.4966 17.6368 27.4798 17.6368 27.4547C17.6368 26.8505 17.1501 26.3638 16.5459 26.3638C16.5207 26.3638 16.5039 26.347 16.5039 26.3218C16.5039 26.2966 16.5207 26.2798 16.5459 26.2798C17.1501 26.2798 17.6368 25.7931 17.6368 25.1889C17.6368 25.1638 17.6536 25.147 17.6787 25.147C17.7039 25.147 17.7207 25.1638 17.7207 25.1889C17.7207 25.7931 18.2074 26.2798 18.8116 26.2798C18.8368 26.2798 18.8536 26.2966 18.8536 26.3218C18.8536 26.347 18.8368 26.3638 18.8116 26.3638Z" fill="white"/>
</g>
<g clip-path="url(#clip2_982_3461)">
<path d="M124.979 22.021C123.347 22.021 122.021 23.3469 122.021 24.979C122.021 24.9916 122.013 25 122 25C121.987 25 121.979 24.9916 121.979 24.979C121.979 23.3469 120.653 22.021 119.021 22.021C119.008 22.021 119 22.0126 119 22C119 21.9874 119.008 21.979 119.021 21.979C120.653 21.979 121.979 20.6531 121.979 19.021C121.979 19.0084 121.987 19 122 19C122.013 19 122.021 19.0084 122.021 19.021C122.021 20.6531 123.347 21.979 124.979 21.979C124.992 21.979 125 21.9874 125 22C125 22.0126 124.992 22.021 124.979 22.021Z" fill="white"/>
<path d="M123.342 19.8182C123.783 19.8182 124.139 19.4615 124.139 19.021C124.139 19.0084 124.148 19 124.16 19C124.173 19 124.181 19.0084 124.181 19.021C124.181 19.4615 124.538 19.8182 124.979 19.8182C124.991 19.8182 125 19.8266 125 19.8392C125 19.8517 124.991 19.8601 124.979 19.8601C124.538 19.8601 124.181 20.2168 124.181 20.6573C124.181 20.6699 124.173 20.6783 124.16 20.6783C124.148 20.6783 124.139 20.6699 124.139 20.6573C124.139 20.2168 123.783 19.8601 123.342 19.8601C123.33 19.8601 123.321 19.8517 123.321 19.8392C123.321 19.8266 123.33 19.8182 123.342 19.8182Z" fill="white"/>
<path d="M120.406 24.1816C120.104 24.1816 119.86 24.425 119.86 24.7271C119.86 24.7397 119.852 24.7481 119.839 24.7481C119.827 24.7481 119.818 24.7397 119.818 24.7271C119.818 24.425 119.575 24.1816 119.273 24.1816C119.26 24.1816 119.252 24.1732 119.252 24.1607C119.252 24.1481 119.26 24.1397 119.273 24.1397C119.575 24.1397 119.818 23.8963 119.818 23.5942C119.818 23.5816 119.827 23.5732 119.839 23.5732C119.852 23.5732 119.86 23.5816 119.86 23.5942C119.86 23.8963 120.104 24.1397 120.406 24.1397C120.418 24.1397 120.427 24.1481 120.427 24.1607C120.427 24.1732 120.418 24.1816 120.406 24.1816Z" fill="white"/>
</g>
<g clip-path="url(#clip3_982_3461)">
<path d="M198.979 80.521C197.347 80.521 196.021 81.8469 196.021 83.479C196.021 83.4916 196.013 83.5 196 83.5C195.987 83.5 195.979 83.4916 195.979 83.479C195.979 81.8469 194.653 80.521 193.021 80.521C193.008 80.521 193 80.5126 193 80.5C193 80.4874 193.008 80.479 193.021 80.479C194.653 80.479 195.979 79.1531 195.979 77.521C195.979 77.5084 195.987 77.5 196 77.5C196.013 77.5 196.021 77.5084 196.021 77.521C196.021 79.1531 197.347 80.479 198.979 80.479C198.992 80.479 199 80.4874 199 80.5C199 80.5126 198.992 80.521 198.979 80.521Z" fill="white"/>
<path d="M197.342 78.3182C197.783 78.3182 198.139 77.9615 198.139 77.521C198.139 77.5084 198.148 77.5 198.16 77.5C198.173 77.5 198.181 77.5084 198.181 77.521C198.181 77.9615 198.538 78.3182 198.979 78.3182C198.991 78.3182 199 78.3266 199 78.3392C199 78.3517 198.991 78.3601 198.979 78.3601C198.538 78.3601 198.181 78.7168 198.181 79.1573C198.181 79.1699 198.173 79.1783 198.16 79.1783C198.148 79.1783 198.139 79.1699 198.139 79.1573C198.139 78.7168 197.783 78.3601 197.342 78.3601C197.33 78.3601 197.321 78.3517 197.321 78.3392C197.321 78.3266 197.33 78.3182 197.342 78.3182Z" fill="white"/>
<path d="M194.406 82.6816C194.104 82.6816 193.86 82.925 193.86 83.2271C193.86 83.2397 193.852 83.2481 193.839 83.2481C193.827 83.2481 193.818 83.2397 193.818 83.2271C193.818 82.925 193.575 82.6816 193.273 82.6816C193.26 82.6816 193.252 82.6732 193.252 82.6607C193.252 82.6481 193.26 82.6397 193.273 82.6397C193.575 82.6397 193.818 82.3963 193.818 82.0942C193.818 82.0816 193.827 82.0732 193.839 82.0732C193.852 82.0732 193.86 82.0816 193.86 82.0942C193.86 82.3963 194.104 82.6397 194.406 82.6397C194.418 82.6397 194.427 82.6481 194.427 82.6607C194.427 82.6732 194.418 82.6816 194.406 82.6816Z" fill="white"/>
</g>
<line x1="20" y1="22" x2="37" y2="22" stroke="white"/>
<path d="M177.281 58.7491L172.407 58.7043L168.047 58.6374L163.934 58.5926C161.542 58.5926 162.324 58.9057 164.672 59.174C168.041 59.5505 171.435 59.6551 174.821 59.4868L181.551 59.1291C182.452 59.0996 183.349 58.9949 184.233 58.816C185.396 58.5703 183.652 58.6149 181.618 58.6597L177.281 58.7491ZM197.625 58.6149L194.517 58.4809C192.751 58.4137 190.627 58.3689 189.085 58.436C186.022 58.5477 191.097 59.554 196.037 59.2857C200.978 59.0174 200.598 59.2857 202.074 58.9726C202.811 58.7937 201.694 58.7266 200.397 58.682L197.625 58.6149Z" fill="#1E1D1C"/>
<path d="M165.253 39.0308C165.586 39.0308 165.857 38.7605 165.857 38.4272C165.857 38.0938 165.586 37.8236 165.253 37.8236C164.92 37.8236 164.649 38.0938 164.649 38.4272C164.649 38.7605 164.92 39.0308 165.253 39.0308ZM202.007 29.9989C202.957 29.9989 203.728 29.2282 203.728 28.2774C203.728 27.3267 202.957 26.556 202.007 26.556C201.056 26.556 200.285 27.3267 200.285 28.2774C200.285 29.2282 201.056 29.9989 202.007 29.9989ZM198.676 40.0815L199.391 40.5287C199.548 40.6761 199.757 40.7563 199.972 40.7522C200.182 40.735 200.381 40.6524 200.542 40.516C200.702 40.3797 200.816 40.1964 200.867 39.9921C200.883 39.8916 200.913 39.7938 200.956 39.7015L201.023 39.5897H201.045C201.023 39.6344 201.023 39.6344 201.068 39.6567C201.188 39.7296 201.315 39.7895 201.448 39.8356L201.873 40.0815L203.46 40.9311C203.661 41.0205 204.242 40.7522 203.974 40.6181L202.387 39.7238C201.94 39.5003 201.425 39.0755 200.889 39.232C200.352 39.3885 200.33 39.7462 200.196 40.1262C200.062 40.5063 200.039 40.3275 200.039 40.4169C200.039 40.5063 200.017 40.4392 200.062 40.3945C200.106 40.3498 200.151 40.3498 200.062 40.3274L199.928 40.238L199.19 39.7685C199.011 39.6567 198.407 39.925 198.676 40.0815ZM197.066 34.5148L198.564 34.2689C198.765 34.2242 199.011 34.1124 199.168 34.3136C199.22 34.4519 199.296 34.5804 199.391 34.6937C199.86 35.2079 201.045 35.0737 201.425 34.4925L200.822 34.6043C200.987 34.7846 201.187 34.9293 201.41 35.0292C201.633 35.1292 201.874 35.1824 202.119 35.1855C202.454 35.1855 203.125 35.0737 203.169 34.649C203.214 34.2242 202.566 34.4925 202.521 34.716C202.476 34.9396 202.141 34.7831 202.051 34.7607C201.81 34.6751 201.594 34.5288 201.425 34.336C201.328 34.279 201.214 34.259 201.103 34.2795C200.992 34.3001 200.892 34.3598 200.822 34.4478C200.643 34.7384 200.084 34.6043 199.928 34.3583C199.771 34.1124 199.749 33.9559 199.503 33.8665C199.257 33.7771 198.765 33.8441 198.43 33.9112L197.155 34.1124C197.021 34.1348 196.798 34.2018 196.775 34.3583C196.753 34.5148 196.954 34.5372 197.066 34.5148ZM177.191 25.7959C174.128 32.8158 173.972 43.748 175.135 51.3939C175.135 51.3939 179.226 47.1684 181.417 42.6077L183.585 38.0471C183.585 38.0471 186.089 43.368 188.772 46.0284C190.417 47.6396 192.321 48.9622 194.406 49.9406C193.221 43.2562 192.483 32.5028 195.389 26.4889L177.191 25.7959Z" fill="white"/>
<path d="M176.566 56.3566C176.563 56.3911 176.547 56.4231 176.521 56.4461L176.342 56.7143C176.052 56.9845 175.699 57.1767 175.314 57.2732L174.353 57.452L173.168 57.5863C172.262 57.6875 171.352 57.7397 170.44 57.7426H168.943L168.272 57.698C168.12 57.6731 167.98 57.6029 167.869 57.4969C167.646 57.2955 167.489 56.8709 167.355 56.3789L167.266 56.0212C167.235 55.9189 167.213 55.8143 167.199 55.7084C167.195 55.6405 167.203 55.5724 167.221 55.507C167.233 55.437 167.256 55.3692 167.288 55.3058C167.393 55.1264 167.521 54.9612 167.668 54.8141C167.829 54.6606 168.001 54.5186 168.182 54.3893C168.554 54.1473 168.961 53.9661 169.39 53.8527C170.187 53.6459 171.03 53.7168 171.782 54.0539C172.271 54.2741 172.723 54.5682 173.123 54.9258C173.369 55.127 173.458 55.1493 173.458 54.993C173.359 54.6473 173.175 54.332 172.922 54.0762C172.41 53.5291 171.762 53.1279 171.044 52.9137C169.973 52.6338 168.837 52.753 167.847 53.2491C167.569 53.4044 167.3 53.5761 167.042 53.7633C166.776 53.9893 166.536 54.2442 166.327 54.5233C166.212 54.692 166.115 54.8718 166.036 55.0599C165.972 55.2776 165.942 55.5038 165.947 55.7307C165.946 55.9264 165.968 56.1215 166.014 56.3118C166.059 56.4684 166.081 56.6249 166.126 56.7815C166.214 57.1475 166.349 57.5006 166.528 57.832C166.73 58.2604 167.079 58.6018 167.512 58.7934C167.9 58.9612 168.319 59.045 168.741 59.0394H169.792C171.217 59.0087 172.637 58.8667 174.04 58.6146C174.624 58.5105 175.2 58.361 175.761 58.1674C176.319 57.9782 176.804 57.6185 177.147 57.1392C177.412 56.7192 177.58 56.2457 177.639 55.753C177.711 55.3548 177.741 54.9502 177.729 54.5458C177.718 53.8929 177.65 53.2421 177.527 52.6008C177.46 52.3325 177.416 52.0865 177.348 51.8631C177.281 51.6394 177.192 51.2594 177.125 50.9911L176.275 51.1477L175.739 51.2371L174.845 51.3711L174.062 51.4831L173.57 51.5723L173.078 51.6617C173.19 52.0194 173.347 52.4219 173.481 52.7796C173.615 53.1373 173.771 53.3833 173.794 53.1596C173.786 52.9719 173.764 52.785 173.727 52.6008C173.729 52.5403 173.721 52.48 173.704 52.4219V52.3102C173.686 52.2372 173.678 52.1618 173.682 52.0865H174.107L175.023 51.9971L176.007 51.8854L176.454 51.8406H176.588C176.636 52.0172 176.674 52.1963 176.7 52.3774C176.767 52.6902 176.812 53.0031 176.857 53.3162C176.926 53.8499 176.941 54.3892 176.901 54.9258C176.882 55.2965 176.822 55.6638 176.722 56.0212C176.68 56.1371 176.627 56.2493 176.566 56.3566ZM197.156 54.2999C197.156 54.2999 197.201 54.4787 197.313 54.7918L197.491 55.3507C197.529 55.4198 197.551 55.496 197.559 55.5741C197.539 55.6016 197.524 55.6317 197.514 55.6635L197.424 55.753L197.29 55.9095L196.977 56.2001C196.716 56.3997 196.431 56.565 196.128 56.692C195.396 56.9976 194.617 57.1717 193.825 57.2063C192.953 57.2957 192.037 57.318 191.388 56.9603C190.74 56.6026 190.337 55.7755 190.449 55.1047C190.493 54.7549 190.669 54.4351 190.941 54.2104C191.239 53.9296 191.579 53.6959 191.947 53.5173C192.685 53.1596 193.445 53.0479 194.026 53.2939C194.284 53.3895 194.526 53.5254 194.742 53.6962C194.887 53.8189 195.022 53.9534 195.144 54.0987C195.323 54.2999 195.412 54.3447 195.435 54.1882C195.424 53.8507 195.298 53.5271 195.077 53.2716C194.883 53.0252 194.649 52.8135 194.384 52.6456C194.039 52.4344 193.648 52.3115 193.244 52.2879C192.769 52.2539 192.291 52.3068 191.835 52.4442C191.328 52.606 190.846 52.8393 190.405 53.1373C190.149 53.318 189.923 53.5366 189.734 53.7856C189.521 54.059 189.362 54.37 189.264 54.7024C189.093 55.4119 189.188 56.1599 189.533 56.8038C189.71 57.1337 189.936 57.4351 190.203 57.698L190.673 58.0334C190.835 58.1334 191.007 58.2157 191.187 58.2794C191.867 58.5234 192.593 58.6077 193.311 58.5251C193.989 58.4943 194.663 58.397 195.323 58.2346C196.019 58.053 196.677 57.7502 197.268 57.3403C197.547 57.1389 197.802 56.9064 198.028 56.6472C198.156 56.5108 198.268 56.3611 198.363 56.2001C198.485 55.9987 198.54 55.764 198.52 55.5295C198.516 55.35 198.47 55.174 198.386 55.0153C198.343 54.8849 198.291 54.7578 198.229 54.6353C198.14 54.3893 198.028 54.1659 197.939 53.9422C197.559 53.0256 197.223 52.2654 196.933 51.6171C196.642 50.9688 196.374 50.41 196.172 49.9403L195.815 49.2026L195.636 48.8227L195.546 48.6438V48.599H195.524L195.435 48.6438L194.406 49.3144C194.17 49.4601 193.946 49.6246 193.736 49.8063L193.11 50.3652L192.931 50.544L192.841 50.6557L192.797 50.7006H192.774V50.7452L192.908 51.3043C193.087 52.0865 193.177 51.8854 193.177 51.1477C193.177 51.036 193.199 51.0134 193.199 50.9466V50.9017H193.221L193.288 50.8346L193.4 50.79C193.443 50.7405 193.496 50.7023 193.557 50.6783L193.892 50.4323L194.652 49.9403L194.854 49.8063L194.943 49.7392H195.032L195.189 49.6721H195.234L195.278 49.7615L195.368 49.9629L195.77 50.9017C196.038 51.5277 196.284 52.1091 196.485 52.6456C196.888 53.5845 197.156 54.2999 197.156 54.2999ZM180.635 29.5068C180.734 29.634 180.824 29.7685 180.903 29.9092L180.97 29.9986C180.97 30.021 180.97 30.0433 180.948 30.021H180.903L180.791 29.9763H180.68L180.411 29.9316L179.897 29.8421C179.258 29.7593 178.611 29.7669 177.975 29.8645C177.505 29.9539 177.349 30.0657 177.393 30.1551C177.438 30.2445 177.706 30.3116 178.109 30.3787L179.629 30.6246L180.568 30.8482H180.68L180.926 30.9152L181.462 31.0941L182.535 31.4294L182.468 31.2953L182.379 31.1164L182.222 30.8035L182.066 30.5128L181.999 30.3563L181.909 30.1998L181.641 29.7751L181.574 29.6633L181.529 29.6186H181.507L181.417 29.5068L181.06 29.1267C180.871 28.9341 180.669 28.7548 180.456 28.5902C180.187 28.3772 179.903 28.183 179.607 28.0089C179.276 27.7892 178.885 27.6796 178.489 27.6959C178.243 27.6959 178.287 27.7854 178.489 27.8971C178.69 28.0089 179.003 28.1654 179.338 28.389C179.664 28.5998 179.971 28.8392 180.255 29.1044L180.523 29.395L180.635 29.5068ZM187.744 31.2506L187.364 31.34L186.917 31.4741L186.626 31.6306C186.485 31.697 186.363 31.7968 186.269 31.9212L186.962 32.2119C187.016 32.0787 187.083 31.9514 187.163 31.8318C187.284 31.6719 187.419 31.5223 187.565 31.3847C187.936 31.0728 188.324 30.7818 188.728 30.5128L189.376 30.0657C189.567 29.9163 189.769 29.7817 189.98 29.6633C190.405 29.395 190.807 29.1938 191.187 28.9926C191.567 28.7914 191.925 28.5231 191.791 28.4784C191.657 28.4337 191.232 28.456 190.606 28.6349C190.246 28.7324 189.894 28.8596 189.555 29.0149L188.974 29.3503L188.415 29.708C187.979 29.9608 187.568 30.2526 187.185 30.5799C186.976 30.7669 186.789 30.9769 186.626 31.2058C186.43 31.4521 186.299 31.7445 186.246 32.0554L186.045 33.3744L186.872 32.346C186.878 32.346 186.884 32.3437 186.888 32.3395C186.892 32.3353 186.895 32.3296 186.895 32.3237C186.938 32.2556 187 32.2013 187.074 32.1672L187.342 32.0107L187.901 31.8095L188.862 31.5635C189.256 31.4636 189.665 31.4333 190.069 31.4741L190.74 31.5412L191.478 31.6083C191.813 31.653 191.768 31.5635 191.5 31.4071C190.813 31.0709 190.049 30.9242 189.287 30.9823L188.504 31.0941C188.248 31.1314 187.994 31.1836 187.744 31.2506Z" fill="#1E1D1C"/>
<path d="M185.754 35.4759L185.575 35.5653L185.105 35.7889C184.565 35.9978 183.984 36.0819 183.406 36.0348C182.695 35.9519 182.024 35.6557 181.484 35.1852C180.939 34.7344 180.471 34.1984 180.098 33.598C179.74 33.0837 179.584 32.9049 179.539 33.039C179.494 33.1732 179.561 33.6203 179.829 34.2463C179.977 34.6112 180.18 34.9507 180.433 35.2523C180.729 35.6478 181.092 35.9883 181.506 36.2583C181.978 36.571 182.512 36.7769 183.071 36.862C183.653 36.9309 184.242 36.8619 184.793 36.6608C185.251 36.4815 185.686 36.2488 186.089 35.9677C186.377 35.7513 186.653 35.52 186.916 35.2747C187.341 34.8499 187.609 34.5369 187.811 34.3134C188.148 33.9323 188.413 33.4929 188.593 33.0167C188.727 32.726 188.616 32.7484 188.392 32.9496L187.475 33.978C187.131 34.3646 186.758 34.7234 186.357 35.0511C186.166 35.2058 185.964 35.3477 185.754 35.4759ZM182.557 21.6821C182.539 21.7083 182.531 21.74 182.534 21.7715C182.534 21.8162 182.512 21.8833 182.512 21.995C182.529 22.2255 182.581 22.4518 182.669 22.6657C182.719 22.771 182.749 22.8847 182.758 23.0011C182.782 23.0813 182.782 23.1668 182.758 23.247H182.691C182.646 23.2694 182.534 23.2247 182.4 23.1576L182.177 23.0011L181.864 22.8446C181.731 22.7765 181.587 22.7312 181.439 22.7104C181.257 22.6783 181.071 22.7017 180.902 22.7775L180.657 22.9564L180.545 23.0681L180.478 23.2023C180.428 23.2837 180.397 23.3755 180.388 23.4706C180.388 23.56 180.366 23.6494 180.366 23.7165C180.389 23.9512 180.434 24.1832 180.5 24.4095C180.544 24.5391 180.567 24.675 180.567 24.8119C180.567 24.8566 180.567 24.8343 180.545 24.8566L180.478 24.9014C180.313 24.9143 180.148 24.9068 179.986 24.879C179.774 24.8723 179.562 24.9026 179.36 24.9684C179.095 25.0326 178.854 25.1724 178.667 25.3709C178.577 25.4826 178.577 25.5273 178.644 25.5497C178.712 25.572 179.248 25.3709 179.852 25.4826L180.388 25.5944C180.531 25.5996 180.674 25.5845 180.813 25.5497C180.979 25.4831 181.12 25.3657 181.215 25.2143C181.311 25.0686 181.358 24.8965 181.35 24.7225C181.354 24.5805 181.346 24.4385 181.327 24.2978C181.271 24.0938 181.241 23.8834 181.238 23.6718C181.234 23.6403 181.242 23.6086 181.26 23.5824H181.283C181.451 23.6176 181.61 23.686 181.752 23.7835C181.882 23.8726 182.025 23.9405 182.177 23.9848C182.357 24.0736 182.558 24.1122 182.758 24.0965C182.883 24.0801 183.004 24.0423 183.116 23.9848C183.221 23.9128 183.312 23.8218 183.384 23.7165C183.452 23.6153 183.497 23.501 183.518 23.3811V23.0905C183.5 22.9276 183.455 22.7688 183.384 22.621C183.364 22.5502 183.333 22.4825 183.295 22.4198L183.227 22.2857C183.146 22.135 183.107 21.9649 183.116 21.7939C183.138 21.6821 183.205 21.6373 183.339 21.5926C183.468 21.5739 183.599 21.5893 183.719 21.6373C183.975 21.7226 184.237 21.7899 184.502 21.8386C184.72 21.884 184.946 21.8605 185.15 21.7715C185.301 21.6882 185.425 21.5642 185.508 21.4138C185.558 21.3044 185.603 21.1925 185.642 21.0785C185.658 20.978 185.688 20.8802 185.731 20.7878C185.759 20.7254 185.798 20.6694 185.849 20.6232C185.899 20.5771 185.958 20.5418 186.022 20.5195C186.201 20.4525 186.29 20.5195 186.29 20.4748C186.29 20.4301 186.268 20.4301 186.201 20.3854C186.162 20.3596 186.118 20.3423 186.071 20.3346C186.025 20.3269 185.978 20.329 185.933 20.3407C185.808 20.3413 185.688 20.3892 185.597 20.4748L185.441 20.6313L185.374 20.7208L185.307 20.8102C185.256 20.9268 185.197 21.039 185.128 21.1455C185.1 21.2286 185.045 21.2997 184.971 21.3467C184.772 21.4086 184.556 21.3926 184.368 21.302C184.104 21.1836 183.826 21.1009 183.541 21.0561C183.383 21.0374 183.223 21.0527 183.071 21.1008C182.932 21.1505 182.809 21.2352 182.713 21.3467C182.629 21.4402 182.574 21.5571 182.557 21.6821ZM192.461 21.7044L192.327 21.7491C192.191 21.8047 192.069 21.8886 191.969 21.9951C191.84 22.1549 191.762 22.3495 191.745 22.554C191.707 22.7453 191.692 22.9404 191.701 23.1352C191.699 23.3161 191.676 23.4961 191.633 23.6718C191.633 23.6941 191.633 23.6941 191.611 23.6941H191.566L191.499 23.6494L191.321 23.56L190.985 23.3588L190.94 23.3141L190.851 23.2694L190.672 23.2023C190.557 23.1625 190.433 23.1548 190.314 23.1799C190.204 23.1973 190.1 23.2409 190.011 23.3071C189.921 23.3732 189.849 23.46 189.8 23.56C189.731 23.6498 189.692 23.7594 189.688 23.873C189.671 23.931 189.664 23.9914 189.666 24.0518V24.2083C189.679 24.3217 189.702 24.4339 189.733 24.5437C189.737 24.6041 189.729 24.6648 189.711 24.7225C189.663 24.8698 189.587 25.0064 189.487 25.1249C189.359 25.2394 189.216 25.3371 189.062 25.4156C188.705 25.5944 188.481 25.7062 188.459 25.7956C188.436 25.8851 188.593 25.9074 188.884 25.9074C189.073 25.9057 189.262 25.8755 189.443 25.818C189.705 25.7354 189.943 25.5895 190.136 25.3932C190.255 25.2601 190.353 25.1093 190.426 24.9461L190.493 24.6778C190.516 24.5747 190.516 24.468 190.493 24.3648V24.0742H190.538L190.829 24.2307L191.119 24.4095L191.41 24.566L191.723 24.7449L192.013 24.879H192.081V24.812L192.148 24.6331C192.236 24.4218 192.31 24.2053 192.371 23.9848V23.5153C192.382 23.3739 192.382 23.2319 192.371 23.0905C192.343 22.9056 192.335 22.7182 192.349 22.5316C192.357 22.4727 192.382 22.4175 192.422 22.3735C192.462 22.3295 192.515 22.2989 192.573 22.2857C192.677 22.2604 192.786 22.2682 192.885 22.3081L192.975 22.3528L193.131 22.4422L193.377 22.621H193.444L193.534 22.5763L193.69 22.4422C193.764 22.3503 193.818 22.2435 193.847 22.1292C193.869 22.0621 193.869 22.0174 193.891 21.9504C193.914 21.8833 193.914 21.8609 193.914 21.8162C193.91 21.7484 193.918 21.6804 193.936 21.615C193.921 21.4291 193.959 21.2427 194.048 21.0785C194.077 21.0327 194.116 20.9946 194.163 20.9673C194.21 20.94 194.262 20.9245 194.316 20.922C194.495 20.9203 194.674 20.9278 194.853 20.9443C194.964 20.922 195.032 20.8773 195.032 20.8549C195.032 20.8325 195.032 20.8102 194.987 20.7878L194.786 20.6984L194.383 20.5643C194.251 20.5394 194.114 20.5513 193.988 20.5986C193.862 20.6458 193.751 20.7267 193.668 20.8325C193.546 21.0278 193.477 21.2511 193.467 21.4809L193.422 21.7715C193.406 21.8065 193.398 21.8448 193.4 21.8833C193.377 21.9056 193.377 21.928 193.355 21.928C193.333 21.928 193.31 21.9727 193.31 21.928H193.199L192.863 21.8162C192.769 21.7883 192.67 21.7806 192.573 21.7939L192.461 21.7044ZM186.939 21.7044L186.782 21.7491C186.65 21.8101 186.529 21.8933 186.424 21.995C186.305 22.16 186.228 22.352 186.201 22.554C186.163 22.7453 186.148 22.9404 186.156 23.1352C186.155 23.3161 186.132 23.4961 186.089 23.6718H186.022L185.955 23.6271L185.776 23.5376L185.441 23.3364L185.396 23.2917L185.307 23.247L185.128 23.1799C185.013 23.1402 184.889 23.1325 184.77 23.1576C184.661 23.1783 184.559 23.2232 184.47 23.289C184.381 23.3548 184.308 23.4398 184.256 23.5376C184.196 23.6325 184.158 23.7393 184.144 23.8506C184.127 23.9086 184.12 23.969 184.122 24.0295C184.122 24.0965 184.122 24.1636 184.144 24.186C184.153 24.2985 184.168 24.4104 184.189 24.5213C184.193 24.5818 184.185 24.6424 184.167 24.7002C184.127 24.8511 184.05 24.9896 183.943 25.1026C183.818 25.2119 183.684 25.3092 183.541 25.3932C183.161 25.572 182.937 25.6838 182.915 25.7733C182.892 25.8627 183.049 25.885 183.339 25.885C183.529 25.8833 183.718 25.8531 183.898 25.7956C184.161 25.713 184.399 25.5671 184.591 25.3709C184.718 25.2435 184.817 25.0912 184.882 24.9237C184.915 24.8372 184.937 24.7472 184.949 24.6555C184.967 24.5521 184.974 24.4473 184.971 24.3425C184.953 24.2695 184.945 24.1941 184.949 24.1189V24.0742H184.994L185.284 24.2307L185.575 24.4095L185.866 24.566L186.179 24.7449L186.469 24.879H186.536V24.8119L186.603 24.6331C186.701 24.4257 186.776 24.2083 186.827 23.9848V23.7165C186.823 23.6486 186.831 23.5807 186.849 23.5153C186.853 23.3733 186.845 23.2313 186.827 23.0905C186.799 22.9056 186.791 22.7182 186.804 22.5316C186.807 22.4805 186.822 22.4308 186.85 22.3876C186.877 22.3444 186.916 22.3093 186.961 22.2857C187.065 22.2604 187.175 22.2682 187.274 22.308L187.364 22.3527L187.52 22.4422L187.766 22.621H187.833L187.922 22.5763L188.079 22.4422C188.153 22.3502 188.206 22.2435 188.235 22.1292C188.261 22.0726 188.276 22.0121 188.28 21.9503C188.28 21.9056 188.302 21.8609 188.302 21.8162C188.299 21.7484 188.306 21.6804 188.325 21.615C188.32 21.4299 188.359 21.2463 188.437 21.0785C188.467 21.0338 188.506 20.9966 188.553 20.9695C188.599 20.9424 188.651 20.9261 188.705 20.9219C188.884 20.9199 189.063 20.9274 189.242 20.9443C189.353 20.9219 189.42 20.8772 189.42 20.8549C189.42 20.8325 189.42 20.8102 189.376 20.7878L189.174 20.6984L188.772 20.5642C188.653 20.5391 188.529 20.5469 188.414 20.5866C188.345 20.6032 188.279 20.6336 188.222 20.6758C188.164 20.7179 188.116 20.7712 188.079 20.8325C187.942 21.0218 187.864 21.2474 187.855 21.4809L187.811 21.7715C187.811 21.8386 187.788 21.8386 187.788 21.8833L187.744 21.928C187.744 21.9503 187.721 21.9727 187.699 21.928H187.654L187.319 21.8162C187.225 21.7875 187.125 21.7799 187.028 21.7939L186.939 21.7044Z" fill="#1E1D1C"/>
<path d="M189.241 22.0845H188.861C188.728 22.0962 188.599 22.1342 188.481 22.1963C188.314 22.2787 188.186 22.4231 188.123 22.5987C188.064 22.7402 188.033 22.8923 188.034 23.0458C188.012 23.2023 188.034 23.3141 188.012 23.4258C188.015 23.5529 188.008 23.6801 187.989 23.8059C187.985 23.9337 187.97 24.0608 187.944 24.186C187.944 24.253 187.922 24.3201 187.922 24.3872C187.922 24.4542 187.9 24.5213 187.877 24.5884C187.858 24.6843 187.82 24.7755 187.766 24.8566C187.721 24.9461 187.698 24.9461 187.676 24.9461C187.654 24.9461 187.609 24.9684 187.475 24.9237C187.291 24.8847 187.104 24.8697 186.916 24.879C186.569 24.9198 186.245 25.0775 185.999 25.3261C185.851 25.4688 185.756 25.6583 185.731 25.8627C185.731 25.9968 185.776 26.0192 185.82 25.9968C185.865 25.9745 186.178 25.6838 186.581 25.5944C186.781 25.5423 186.994 25.558 187.184 25.6391C187.379 25.7355 187.594 25.7816 187.81 25.7733C187.962 25.7426 188.107 25.6818 188.235 25.5944C188.336 25.5091 188.426 25.4115 188.503 25.3038C188.62 25.1027 188.703 24.8836 188.749 24.6555C188.794 24.4573 188.816 24.2549 188.816 24.0518C188.835 23.8512 188.842 23.6497 188.839 23.4482C188.816 23.2247 188.794 23.0458 188.794 22.934V22.7999C188.816 22.7775 188.816 22.7552 188.839 22.7552C188.96 22.7123 189.09 22.697 189.219 22.7104C189.385 22.7212 189.553 22.6984 189.711 22.6434C189.847 22.601 189.97 22.524 190.068 22.4198C190.21 22.2614 190.323 22.08 190.404 21.8833C190.456 21.7461 190.494 21.6037 190.515 21.4585C190.517 21.2997 190.539 21.1418 190.583 20.989C190.59 20.9384 190.614 20.8915 190.649 20.8549C190.686 20.8242 190.73 20.8039 190.777 20.796C190.825 20.7882 190.873 20.793 190.918 20.8102C190.985 20.8102 191.007 20.8772 191.03 20.8996C191.052 20.9219 191.074 20.9443 191.097 20.9219C191.112 20.8867 191.12 20.8486 191.119 20.8102C191.112 20.769 191.097 20.7297 191.074 20.695C191.051 20.6602 191.02 20.6309 190.985 20.609C190.893 20.5461 190.783 20.5147 190.672 20.5195C190.599 20.5194 190.528 20.5354 190.462 20.5663C190.396 20.5972 190.338 20.6423 190.292 20.6984C190.202 20.7913 190.14 20.9075 190.113 21.0337C190.084 21.1441 190.062 21.2561 190.046 21.3691C190.035 21.5129 189.991 21.6522 189.917 21.7764C189.843 21.9005 189.742 22.0059 189.621 22.0845C189.544 22.1203 189.46 22.1357 189.375 22.1292L189.241 22.0845ZM196.485 41.4226L197.088 40.9979L197.423 40.7519C197.501 40.688 197.569 40.6126 197.625 40.5284C197.692 40.4191 197.738 40.2976 197.759 40.1707C197.792 39.9212 197.737 39.668 197.602 39.4553C197.509 39.2614 197.38 39.0869 197.222 38.9411C196.641 38.4082 196.012 37.9293 195.344 37.5103C194.696 37.0855 194.092 36.7055 193.6 36.3478C193.44 36.2143 193.268 36.0946 193.086 35.9901C192.974 35.9454 192.93 35.9454 192.93 36.0124C192.93 36.0795 193.109 36.549 193.556 37.0185C194.113 37.5843 194.719 38.1005 195.367 38.561C195.747 38.8246 196.112 39.1082 196.462 39.4106C196.626 39.5351 196.776 39.6776 196.909 39.8354L196.999 40.0142C197.002 40.06 196.994 40.106 196.976 40.1483C196.954 40.2601 196.708 40.439 196.551 40.5731L196.104 40.9755C195.814 41.2214 195.568 41.445 195.344 41.6015C195.029 41.8504 194.701 42.0818 194.361 42.2946C193.947 42.53 193.564 42.8153 193.22 43.144C192.751 43.5688 193.6 43.2334 194.562 42.7192C195.018 42.4619 195.458 42.1782 195.881 41.8698L196.485 41.4226ZM171.691 40.9979C171.669 40.9417 171.639 40.889 171.602 40.8414C171.508 40.7149 171.426 40.5802 171.356 40.439C171.278 40.2797 171.254 40.0989 171.289 39.9248C171.377 39.6841 171.522 39.469 171.714 39.2988C171.937 39.0976 172.25 38.874 172.519 38.6281L173.413 37.9127L175.023 36.6161C175.492 36.236 175.626 36.0348 175.492 36.0124C175.358 35.9901 174.956 36.1019 174.397 36.3701C173.699 36.7304 173.034 37.1493 172.407 37.6221C172.02 37.9009 171.654 38.2072 171.311 38.5387C171.098 38.7241 170.917 38.9431 170.775 39.187C170.597 39.4578 170.518 39.7815 170.551 40.1036C170.582 40.3882 170.69 40.6588 170.864 40.8861C170.987 41.0658 171.122 41.2375 171.267 41.4003C171.516 41.6326 171.785 41.8421 172.072 42.0263C172.415 42.2522 172.782 42.4396 173.167 42.5852C173.609 42.7569 174.079 42.8405 174.553 42.8311C174.866 42.8311 174.821 42.7417 174.553 42.63L173.391 42.1603C172.948 41.9825 172.534 41.7416 172.161 41.445C171.995 41.3062 171.838 41.1568 171.691 40.9979ZM176.029 42.3392C176.029 42.3392 175.872 42.7863 175.626 43.3452C175.379 43.9146 175.096 44.4673 174.777 44.9996C174.643 45.2231 174.62 45.3127 174.687 45.3127C174.754 45.3127 174.911 45.2456 175.112 45.0445C175.632 44.4482 176.001 43.7348 176.185 42.9652C176.386 42.1157 176.431 41.7132 176.476 41.445C176.493 41.3492 176.501 41.2518 176.498 41.1544C176.495 41.0468 176.472 40.9407 176.431 40.8414C176.342 40.5731 176.319 40.9532 176.252 41.4003C176.185 41.8475 176.029 42.3392 176.029 42.3392ZM192.125 44.0831C192.125 44.0831 191.924 43.7923 191.678 43.3677C191.433 42.9471 191.209 42.5142 191.007 42.0709C190.828 41.6909 190.739 41.8475 190.784 42.2946C190.905 42.9061 191.182 43.4759 191.589 43.9488L192.46 44.8208C192.566 44.9472 192.705 45.0406 192.863 45.0891C193.086 45.1562 192.863 44.9325 192.617 44.6642L192.281 44.2842L192.125 44.0831Z" fill="#1E1D1C"/>
<path d="M174.576 44.0163C174.576 44.0163 174.599 43.9046 174.666 43.6809C174.733 43.4575 174.867 43.1667 175.001 42.8315C175.128 42.489 175.301 42.1655 175.515 41.8701L175.694 41.6465L175.784 41.557C175.806 41.5347 175.784 41.557 175.806 41.557H175.851L175.962 41.7359C176.097 41.9819 176.119 42.0936 176.164 42.0267C176.201 41.9289 176.216 41.8242 176.208 41.7199C176.2 41.6156 176.17 41.5143 176.119 41.423C176.054 41.3095 175.951 41.2225 175.828 41.1771C175.751 41.1724 175.674 41.1878 175.605 41.2218L175.471 41.3336C175.291 41.491 175.133 41.6714 175.001 41.8701C174.721 42.3071 174.524 42.7922 174.42 43.3009C174.285 43.6964 174.254 44.1198 174.33 44.5306C174.354 44.6112 174.392 44.6869 174.442 44.754C174.465 44.7989 174.509 44.7989 174.532 44.8212L174.621 44.8658C174.727 44.8895 174.839 44.8736 174.934 44.8212C175.059 44.7695 175.167 44.6844 175.247 44.5752C175.321 44.4749 175.374 44.3609 175.403 44.2398C175.448 44.0835 175.404 44.1058 175.314 44.2175C175.19 44.3709 175.038 44.4997 174.867 44.5975C174.848 44.6112 174.826 44.6203 174.802 44.6242C174.779 44.628 174.755 44.6265 174.733 44.62H174.621C174.621 44.5975 174.599 44.5752 174.599 44.5529C174.599 44.5306 174.576 44.4635 174.576 44.3963C174.565 44.3223 174.565 44.2469 174.576 44.1729V44.0163ZM193.445 43.7481C193.418 43.6299 193.373 43.5168 193.311 43.4127C193.196 43.159 193.054 42.9191 192.886 42.6973C192.802 42.5473 192.705 42.405 192.595 42.2724C192.471 42.0987 192.311 41.9538 192.126 41.8478C191.927 41.763 191.704 41.755 191.5 41.8253C191.404 41.8483 191.313 41.8922 191.236 41.9542C191.159 42.016 191.096 42.0941 191.053 42.183C190.985 42.2825 190.946 42.3986 190.941 42.5184C190.963 42.5855 190.986 42.5855 191.008 42.5632C191.03 42.5407 191.165 42.3396 191.366 42.2278C191.483 42.1548 191.624 42.1281 191.76 42.1529C191.897 42.1775 192.019 42.252 192.103 42.3619C192.239 42.5187 192.366 42.6828 192.484 42.8538L192.886 43.3681C193.092 43.6194 193.231 43.9195 193.288 44.2398C193.27 44.3224 193.232 44.3993 193.176 44.4635C193.134 44.5036 193.078 44.5274 193.02 44.5306L192.707 44.5752C192.61 44.5884 192.511 44.5808 192.416 44.5529H192.305C192.305 44.5757 192.312 44.598 192.324 44.6176C192.335 44.6369 192.352 44.6533 192.372 44.6646C192.454 44.7357 192.555 44.7822 192.662 44.7989H193.02C193.097 44.7869 193.173 44.7643 193.244 44.7317C193.325 44.6901 193.394 44.6286 193.445 44.5529C193.526 44.4273 193.558 44.2759 193.534 44.1281C193.534 44.0369 193.519 43.9463 193.49 43.8598C193.484 43.8194 193.469 43.7811 193.445 43.7481ZM168.384 54.2556V53.9425C168.406 53.8531 167.78 53.9425 167.758 54.0991C167.467 55.3073 167.537 56.5744 167.959 57.7432C168.004 57.8772 168.562 57.7207 168.607 57.6089L169.814 53.7191L169.166 53.8754C169.166 54.6356 169.188 55.3956 169.211 56.1558L169.278 57.2512C169.278 57.4972 169.278 57.8101 169.568 57.8772C169.859 57.9443 170.127 57.8324 170.15 57.6535C170.284 56.2227 170.463 54.8145 170.731 53.3837L170.083 53.5402C170.14 54.9243 170.358 56.2972 170.731 57.6312C170.776 57.7878 171.379 57.6089 171.379 57.4747C171.446 56.2899 171.469 55.1273 171.491 53.9425L170.843 54.1214L172.072 58.0112C172.139 58.1678 172.721 57.9889 172.721 57.8324C172.892 56.6809 172.862 55.5084 172.631 54.3673L171.983 54.5237C172.404 55.6309 172.96 56.6821 173.637 57.6535C173.727 57.7878 174.286 57.6535 174.286 57.4972C174.316 56.0397 174.234 54.5822 174.04 53.1377L173.391 53.3165C173.906 54.7696 174.442 56.2453 175.336 57.5195C175.426 57.6312 176.029 57.4747 175.985 57.3407L174.375 51.8186L173.727 51.9975L176.387 56.4464C176.454 56.603 177.08 56.3793 177.035 56.2899L175.023 52.1763L174.375 52.3552C175.031 53.2345 175.724 54.0849 176.454 54.9039C176.566 54.9933 177.08 54.8591 177.102 54.7027C177.17 53.6071 176.029 52.9365 175.895 51.8857L175.247 52.0646C175.601 52.5573 176.05 52.9752 176.566 53.2942C176.655 53.3614 177.259 53.2048 177.192 53.1154C176.853 52.5565 176.611 51.9442 176.477 51.3046C176.432 51.1703 175.783 51.3269 175.828 51.4834C175.967 52.1149 176.208 52.7191 176.544 53.2719L177.192 53.0931C176.688 52.7753 176.248 52.3657 175.895 51.8857C175.806 51.774 175.225 51.908 175.247 52.0646C175.381 53.1154 176.521 53.786 176.454 54.8816L177.08 54.6802C176.345 53.8873 175.658 53.0512 175.023 52.1763C174.912 52.0423 174.308 52.2434 174.375 52.3552L176.387 56.4464L177.035 56.2899L174.375 51.8186C174.286 51.7069 173.682 51.8634 173.727 51.9975L175.336 57.5195L175.985 57.3407C175.09 56.0664 174.554 54.5908 174.04 53.1377C173.995 53.0037 173.369 53.16 173.391 53.3165C173.593 54.7531 173.682 56.2031 173.66 57.6535L174.308 57.4972C173.639 56.5204 173.084 55.4702 172.654 54.3673C172.609 54.2331 171.983 54.3896 172.005 54.5237C172.236 55.6723 172.266 56.8523 172.095 58.0112L172.743 57.8324L171.513 53.9425C171.469 53.8085 170.865 53.9648 170.865 54.1214C170.843 55.2839 170.82 56.4687 170.753 57.6312L171.402 57.4747C171.03 56.1326 170.813 54.7526 170.753 53.3614C170.753 53.2494 170.15 53.3837 170.127 53.4954C169.859 54.9485 169.658 56.3793 169.524 57.8324L170.105 57.6312C169.881 57.5643 169.926 56.983 169.926 56.8041C169.926 56.6253 169.904 56.111 169.881 55.7758C169.859 55.0827 169.837 54.3896 169.837 53.6965C169.837 53.5848 169.233 53.7191 169.188 53.8308L167.981 57.7207L168.629 57.5641C168.198 56.4134 168.12 55.1601 168.406 53.9648L167.78 54.1214L167.735 54.4119C167.735 54.5014 168.384 54.4345 168.384 54.2556ZM189.98 54.5014C190.493 55.5803 191.123 56.5998 191.858 57.5418C191.969 57.6761 192.528 57.5418 192.484 57.3184L191.634 53.4954L190.986 53.6742C191.702 55.0172 192.532 56.2962 193.467 57.4972C193.579 57.6312 194.16 57.4749 194.093 57.2735C193.601 55.7758 193.087 54.2779 192.484 52.8023L191.835 52.9811C192.595 54.4568 193.557 55.7981 194.518 57.1618C194.607 57.2961 195.211 57.1395 195.144 56.9384L193.467 52.78L192.841 53.0037C193.71 54.3683 194.706 55.6482 195.815 56.8264C195.926 56.9607 196.53 56.8264 196.441 56.6253C195.751 55.131 194.967 53.6824 194.093 52.2883C194.004 52.1094 193.378 52.3329 193.467 52.4894C194.339 54.0319 195.569 55.2839 196.798 56.5358C196.91 56.6701 197.514 56.5135 197.424 56.3347L194.183 50.4103L193.557 50.6338L196.731 54.3896C196.865 54.5462 197.469 54.345 197.335 54.1214C196.418 52.7354 195.569 51.2821 194.786 49.8067L194.16 50.0301L196.083 51.908C196.195 52.02 196.798 51.8857 196.709 51.6846L195.904 50.1421C195.792 49.9184 195.166 50.1195 195.256 50.2984L196.061 51.8634L196.687 51.6623L194.764 49.7618C194.652 49.6501 194.048 49.7844 194.138 49.9855C194.943 51.4834 195.815 52.9588 196.731 54.3896L197.335 54.1214L194.16 50.3655C194.048 50.2315 193.445 50.4103 193.534 50.5892L196.776 56.5135L197.402 56.2899C196.195 55.0604 194.965 53.8308 194.116 52.3106L193.49 52.534C194.336 53.9135 195.105 55.3391 195.792 56.8041L196.418 56.5807C195.309 55.4024 194.314 54.1225 193.445 52.7577C193.333 52.6011 192.73 52.78 192.819 52.9588L194.496 57.1172L195.122 56.9158C194.183 55.5745 193.244 54.2556 192.484 52.8023C192.394 52.6011 191.768 52.78 191.835 52.9811C192.439 54.4568 192.975 55.9322 193.445 57.4524L194.071 57.2289C193.154 56.0561 192.339 54.8071 191.634 53.4954C191.545 53.2942 190.941 53.4283 190.986 53.6742L191.835 57.4972L192.461 57.2961C191.741 56.3765 191.126 55.379 190.628 54.3225C190.516 54.0991 189.89 54.3002 189.98 54.5014Z" fill="#1E1D1C"/>
</g>
<defs>
<linearGradient id="paint0_linear_982_3461" x1="258" y1="-63.0564" x2="128.299" y2="-18.7604" gradientUnits="userSpaceOnUse">
<stop stop-color="white" stop-opacity="0.1"/>
<stop offset="0.39" stop-color="white" stop-opacity="0.1"/>
<stop offset="1" stop-color="white" stop-opacity="0.1"/>
</linearGradient>
<clipPath id="clip0_982_3461">
<rect width="216" height="161" rx="16" fill="white"/>
</clipPath>
<clipPath id="clip1_982_3461">
<rect width="12" height="12" fill="white" transform="translate(16 16)"/>
</clipPath>
<clipPath id="clip2_982_3461">
<rect width="6" height="6" fill="white" transform="translate(119 19)"/>
</clipPath>
<clipPath id="clip3_982_3461">
<rect width="6" height="6" fill="white" transform="translate(193 77.5)"/>
</clipPath>
</defs>
</svg>
