<svg width="616" height="434" viewBox="0 0 616 434" fill="none" xmlns="http://www.w3.org/2000/svg">
<path d="M538.321 278.66C549.704 282.751 551.487 257.708 547.227 246.377C539.064 222.317 509.157 221.72 503.388 202.591C497.842 184.201 506.173 171.352 531.627 156.679C539.039 152.406 548.255 151.398 548.724 139.032C549.234 125.569 541.378 113.678 512.153 115.036C466.234 117.171 474.96 186.495 429.463 188.083C405.14 185.004 427.479 168.232 436.737 160.599C442.203 156.167 446.039 153.116 450.818 143.948C461.611 123.244 441.9 99.3212 420.59 109.049C394.268 122.053 404.431 159.385 390.498 180.702C383.19 191.945 365.729 197.972 356.346 188.396C352.625 184.599 350.967 179.305 348.977 174.373C334.522 138.538 309.936 127.896 283.801 126.344C265.67 125.267 260.897 133.018 260.403 137.477C259.18 148.527 267.632 157.44 282.581 162.301C293.658 165.904 306.619 168.273 313.125 177.942C322.296 191.925 310.301 215.511 294.198 219.097C284.604 220.189 280.565 212.771 282.059 203.789C286.458 177.339 268.033 165.166 251.965 160.237C246.37 158.521 239.808 158.687 237.067 159.823C230.83 162.409 231.64 170.466 236.569 175.066C241.506 179.675 247.978 182.52 251.477 188.3C256.731 196.977 253.648 208.94 246.413 216.047C223.903 235.042 187.927 228.059 165.012 212.894C152.234 204.178 141.984 191.954 128.544 184.302C109.662 173.99 79.8428 169.894 64.5426 187.082C60.4659 191.662 59.5712 199.594 63.7604 204.07C73.3797 214.35 90.4828 208.155 102.482 213.7C111.474 217.403 118.225 229.492 111.86 236.85C96.1893 252.221 76.0117 218.396 59.3093 227.529C49.3417 232.98 51.5732 247.732 55.1992 258.506C55.2001 258.506 426.481 238.467 538.321 278.66Z" fill="#AFEEF9"/>
<path d="M33.9471 260.763C26.1283 262.256 15.0399 262.877 11.1271 270.048C0.451423 289.613 112.638 280.818 126.707 276.747C153.119 271.41 182.204 263.054 205.611 276.41C219.964 285.011 202.137 290.764 195.856 299.038C189.268 312.516 205.944 320.328 217.395 321.562C319.294 332.538 406.169 326.924 405.859 293.684C405.791 286.443 398.004 274.892 405.048 273.239C456.339 261.201 514.951 296.135 570.53 303.772C643.401 307.727 592.145 236.755 512.817 250.895C511.323 251.058 510.235 251.261 509.782 249.496C506.518 227.436 535.35 222.195 552.223 222.7C558.003 223.051 558.157 216.628 553.861 213.318C523.761 189.385 479.985 253.006 455.061 214.364C450.046 204.117 460.993 199.426 470.217 200.267L486.726 200.656C488.604 200.7 490.683 200.674 492.077 199.414C495.117 196.668 491.963 191.632 488.443 189.538C478.401 183.568 464.579 184.85 455.804 192.567C444.454 206.489 431.87 194.502 446.444 187.694C450.211 185.613 455.329 185.013 457.906 181.507C464.136 173.031 448.354 165.724 440.889 177.747C436.096 185.159 434.47 197.385 424.482 199.576C411.135 202.246 400.56 175.551 386.957 185.533C383.628 188.47 385.647 192.014 389.642 192.198C401.924 193.849 415.975 207.029 409.204 219.712C408.831 220.377 402.547 230.58 398.565 228.183C393.016 224.477 411.546 213.105 392.347 207.228C385.671 205.301 388.376 212.724 388.798 216.284C388.658 220.141 384.066 222.58 380.278 221.867C374.069 221.249 371.471 213.516 365.829 212.194C361.069 212.899 358.03 218.839 353.091 219.864C348.496 221.79 346.087 216.543 348.77 212.916C350.302 210.728 352.721 209.276 354.21 207.059C358.046 201.533 353.077 192.009 346.073 193.455C336.497 196.33 345.011 218.791 337.748 225.255C328.623 229.768 327.419 214.63 321.62 214.628C318.555 215.344 319.154 219.237 318.82 221.644C316.261 230.957 305.257 229.334 299.186 224.339C293.889 223.551 296.716 219.412 300.079 218.022C307.594 211.346 291.624 209.889 289.318 217.653C287.489 221.556 289.79 227.911 285.65 230.4C282.731 230.357 280.158 227.725 277.206 227.856C274.231 228.5 273.929 236.251 269.793 233.432C262.708 230.196 261.422 224.39 261.793 217.241C261.256 212.45 256.589 208.504 251.78 208.775C246.62 209.548 250.835 217.383 250.738 220.735C251.96 229.13 244.42 232.361 238.239 227.085C233.335 223.316 229.95 217.889 225.264 213.851C219.473 206.3 181.699 198.251 186.026 214.719C186.903 216.149 188.524 216.93 190.103 217.49C204.28 221.841 223.729 217.135 232.073 232.9C233.621 235.551 232.019 241.32 227.594 236.377C220.671 228.645 209.226 226.428 198.956 227.89C188.834 229.427 165.1 237.734 167.709 219.795C169.16 212.011 173.622 204.115 170.979 196.653C168.27 189.008 157.44 185.743 150.965 190.62C137.245 202.908 149.573 226.264 164.499 231.86C167.805 233.251 171.967 233.74 174.035 236.673C174.72 237.644 166.858 233.862 162.871 235.143C154.345 237.854 144.945 246.261 135.958 240.878C133.001 238.938 131.357 235.58 129.096 232.859C122.111 224.524 113.665 230.582 117.882 240.624C118.955 244.419 113.841 247.526 110.582 246.277C101.032 240.293 113.487 231.529 116.119 225.236C119.754 215.986 108.212 207.448 101.181 215.012C96.0177 223.984 95.1768 237.674 101.288 246.039C102.5 247.597 104.848 250.072 103.332 252.213C100.73 254.716 95.2892 253.085 92.1618 252.411C83.4344 249.831 83.1923 235.67 76.8341 234.199C74.016 233.974 71.3542 236.934 71.9517 239.561C72.495 241.952 73.9361 243.873 73.0369 246.406C71.2869 251.332 64.3528 252.202 59.6186 252.07C56.1439 251.973 52.7586 250.742 49.5589 252.801C44.5257 257.249 43.687 259.124 33.9471 260.763ZM549.99 197.52C553.195 194.548 558.006 192.043 563.898 192.359C568.549 192.608 570.844 194.726 572.104 196.217C574.81 199.422 576.392 203.982 574.84 207.88C574.484 208.774 573.932 209.648 573.073 210.08C571.874 210.684 570.376 210.262 569.3 209.458C567.271 207.943 566.395 205.356 564.827 203.366C561.44 199.071 555.424 198.114 549.99 197.52Z" fill="#6CD0EF"/>
<path d="M61.6392 205.7C71.6795 203.16 83.9155 214.7 84.6652 224.95C80.5939 217.402 71.539 216.329 64.0179 215.764C57.096 215.244 55.2354 207.32 61.6392 205.7ZM382.418 157.605C392.78 156.06 404.263 163.955 408.012 174.786C404.464 171.61 396.427 169.467 390.885 169.796C386.134 170.078 380.369 169.522 377.692 165.393C375.972 162.74 377.212 158.381 382.418 157.605ZM514.312 179.056C521.206 173.984 531.649 175.018 527.767 183.282C524.308 190.648 508.705 185.818 508.052 196.17C505.886 190.083 509.509 182.59 514.312 179.056ZM493.846 154.345C494.482 148.054 498.26 143.269 503.182 141.45C512.008 138.186 516.79 150.372 507.081 152.932C502.198 154.22 495.196 154.359 494.088 160.503C494.088 160.503 493.568 157.097 493.846 154.345ZM438.077 138.473C431.26 131.125 443.473 129.709 447.061 138.225C449.507 144.03 447.191 152.385 439.849 156.004C441.92 150.222 442.245 142.966 438.077 138.473ZM410.793 136.879C410.793 136.879 408.359 132.662 404.234 131.498C401.697 130.782 398.804 130.927 396.444 129.752C392.827 127.95 392.963 124.14 396.647 123.35C403.855 121.803 412.201 129.282 410.793 136.879ZM478.701 112.599C483.33 110.765 488.717 116.359 484.984 120.376C480.792 123.249 473.882 121.401 474.09 129.125C468.953 124.548 472.58 114.574 478.701 112.599ZM138.831 162.497C147.296 161.953 148.033 170.391 141.048 174.643C137.489 176.809 132.175 179.971 130.806 186.133C127.297 177.941 129.57 163.092 138.831 162.497ZM76.0498 168.742C78.7757 159.639 93.3551 170.386 95.8995 182.834C95.8995 182.834 95.2469 182.197 93.2535 181.002C87.3527 177.464 73.5117 177.218 76.0498 168.742Z" fill="#6CD0EF"/>
<path d="M580.343 285.479C587.181 282.092 571.061 273.634 564.625 269.533C561.326 267.431 557.822 265.261 553.914 265.11C548.325 264.894 543.345 268.841 537.772 269.317C528.24 270.13 519.732 260.758 510.324 262.492C505.431 263.394 500.359 267.153 496.029 264.702C494.545 263.862 492.385 268.518 501.687 268.684C510.99 268.85 511.156 261.7 522.119 268.185C533.083 274.671 542.717 275.336 550.94 270.846C559.163 266.356 577.287 286.992 580.343 285.479Z" fill="#82DFF4"/>
<path d="M174.366 305.275C175.792 313.733 179.676 324.637 167.063 327.068C159.957 328.008 153.365 323.222 146.286 321.534C136.439 319.185 127.365 323.689 120.261 315.205C107.828 300.355 109.845 291.039 123.502 286.686C132.785 283.727 142.95 287.122 153.089 286.029C161.5 285.121 164.788 281.147 171.536 279.981C177.894 278.839 187.545 282.242 187.973 288.171C188.333 293.151 181.297 293.689 176.42 298.091C173.643 300.598 173.965 302.893 174.366 305.275Z" fill="#6CD0EF"/>
<path d="M227.099 253.367C220.164 244.235 211.128 252.492 200.107 255.63C190.472 258.374 182.65 256.115 176.514 254.482C161.153 250.392 153.87 247.486 139.641 257.875C137.288 259.594 136.181 263.806 144.376 260.037C152.571 256.268 156.557 252.721 176.048 258.153C195.539 263.584 206.806 256.961 212.815 254.383C220.954 250.891 231.364 258.984 227.099 253.367ZM376.687 290.551C371.895 285.301 364.486 283.684 357.64 285.586C350.795 287.488 344.989 291.927 338.729 295.29C332.47 298.653 324.907 300.967 318.334 298.269C311.349 295.402 305.934 287.193 298.509 288.556C293.846 289.412 289.864 293.608 285.223 292.637C280.423 291.632 278.098 298.283 285.905 297.452C293.712 296.62 297.3 287.255 315.971 302.607C333.635 317.129 354.122 276.777 372.949 291.632C385.199 301.298 377.826 291.799 376.687 290.551Z" fill="#82DFF4"/>
<path d="M417.289 280.315C414.738 281.532 420.72 285.113 421.453 287.845C422.186 290.576 422.01 293.469 421.602 296.268C420.791 301.826 419.312 308.24 422.987 312.485C424.945 314.748 428.195 315.802 431.107 315.119C434.019 314.436 436.463 312.046 437.214 309.148C437.983 306.177 437.546 302.15 440.362 300.939C442.003 300.233 443.861 301.018 445.512 301.7C449.151 303.203 452.967 304.234 456.867 304.769C461.019 305.337 465.763 305.135 468.677 302.119C472.469 298.194 470.984 291.181 466.866 287.6C462.748 284.019 456.848 284.129 451.502 283.042C443.853 281.486 438.556 281.049 430.995 280.103C428.446 279.783 419.658 279.185 417.289 280.315Z" fill="#6CD0EF"/>
<path d="M338.022 214.66C338.022 214.66 363.741 216.756 372.686 233.937C381.631 251.117 396.627 254.438 398.954 254.863C404.159 255.815 421.226 248.757 429.747 242.957C438.267 237.158 442.82 241.77 443.387 244.871C443.954 247.971 442.119 254.156 445.965 259.49C449.81 264.823 442.413 267.767 436.888 263.889C431.362 260.011 430.055 253.065 430.055 253.065C430.055 253.065 404.847 267.163 395.093 268.052C387.271 268.765 370.152 266.154 353.424 260.447C334.587 254.02 328.584 248.154 328.584 248.154C337.84 242.943 338.022 214.66 338.022 214.66Z" fill="#FFD9C7"/>
<path d="M338.141 215.824C338.141 215.824 361.045 212.694 376.236 224.698C388.525 234.41 403.044 237.998 405.399 237.785C410.669 237.309 427.423 226.409 434.084 218.541C440.745 210.672 446.365 213.897 447.739 216.733C449.113 219.569 447.816 225.719 452.946 229.829C458.077 233.939 453.073 239.69 446.713 237.432C440.353 235.174 437.08 228.198 437.08 228.198C437.08 228.198 415.123 255.733 407.689 257.231C399.989 258.784 379.406 254.299 365.842 248.403C346.583 240.032 335.462 243.666 335.462 243.666L338.141 215.824Z" fill="#FFD9C7"/>
<path d="M443.821 265.488C441.819 265.936 439.203 265.499 436.893 263.882C431.359 260.016 430.053 253.064 430.053 253.064C430.053 253.064 404.841 267.153 395.095 268.046C387.397 268.744 370.773 266.25 354.328 260.752L355.799 258.303C355.799 258.303 383.775 265.883 393.569 265.502C406.048 265.016 430.678 250.979 430.678 250.979C430.678 250.979 432.784 261.684 443.821 265.488Z" fill="#F5C7B0"/>
<path d="M446.709 237.427C440.357 235.178 437.085 228.201 437.085 228.201C437.085 228.201 415.114 255.739 407.697 257.225C399.988 258.783 379.406 254.295 365.848 248.412C365.272 248.162 364.695 247.927 364.133 247.695L366.18 245.381C366.18 245.381 388.779 254.375 405.153 254.605C415.429 254.749 434.115 228.259 437.346 226.104C437.346 226.104 446.911 243.454 455.011 232.975C455.569 236.255 451.534 239.152 446.709 237.427Z" fill="#F5C7B0"/>
<path d="M331.868 242.628C331.049 245.256 330.197 247.217 329.4 247.911C329.116 248.151 328.838 248.242 328.586 248.155C327.846 247.897 326.956 247.765 325.806 247.71C321.316 247.525 312.59 250.718 291.781 248.536C269.166 246.164 257.015 232.54 256.331 224.289C255.628 216.053 261.795 206.681 261.795 206.681L295.363 202.789C295.363 202.789 294.568 208.17 307.877 213.503C318.922 217.921 326.557 215.97 331.48 215.242C332.497 215.078 333.404 214.98 334.196 214.998C334.575 215.005 334.864 215.296 335.069 215.807C335.305 216.338 335.451 217.139 335.518 218.143C335.516 218.159 335.53 218.178 335.527 218.193C335.937 223.818 334.046 235.613 331.868 242.628Z" fill="#FFD9C7"/>
<path d="M366.87 248.738C366.577 249.043 366.18 249.265 366.012 249.621C362.031 258.423 358.549 262.165 358.549 262.165C358.549 262.165 357.345 261.804 355.39 261.15C348.958 258.989 334.452 253.695 328.586 248.155C328.586 248.155 329.425 246.06 330.485 242.804C333.495 242.703 346.791 242.634 363.218 247.584C364.09 247.846 364.961 248.108 365.844 248.404C366.193 248.506 366.524 248.621 366.87 248.738Z" fill="#C5DB8B"/>
<path d="M366.87 248.738C366.524 248.62 366.193 248.505 365.844 248.404C364.961 248.107 364.09 247.845 363.218 247.584C346.791 242.634 333.495 242.703 330.485 242.804C331.534 239.514 332.829 235.002 333.693 230.277C334.644 225.068 335.095 219.553 334.196 214.997C334.196 214.997 357.893 203.665 373.159 220.17C374.055 221.133 374.888 222.153 375.653 223.223C375.653 223.223 375.672 223.54 375.69 224.089C375.732 227.391 375.325 239.67 366.87 248.738Z" fill="#9AC033"/>
<path d="M285.41 199.122C285.41 199.122 309.056 178.898 320.403 177.363C331.635 175.843 348.181 181.378 370.554 188.052C370.554 188.052 367.307 196.194 367.223 196.766C367.138 197.338 336.754 191.524 325.146 193.021C316.352 194.155 305.631 212.784 305.631 212.784C305.631 212.784 291.262 210.9 285.41 199.122Z" fill="#FFD9C7"/>
<path d="M370.342 188.045C370.342 188.045 387.165 186.937 383.794 197.547C381.65 204.297 374.099 197.72 372.998 197.73C372.122 197.738 377.555 201.4 374.548 202.35C372.5 202.997 367.065 196.63 367.065 196.63L370.342 188.045ZM190.509 202.658C190.509 202.658 181.672 187.216 174.325 196.368C169.652 202.19 179.826 204.996 180.46 205.97C180.964 206.745 174.582 204.102 175.502 207.3C176.128 209.479 184.885 210.546 184.885 210.546L190.509 202.658Z" fill="#FFD9C7"/>
<path d="M190.509 202.658C190.509 202.658 209.806 215.333 221.194 215.775C233.243 216.244 244.458 207.528 248.014 207.178C251.569 206.827 260.15 218.912 260.977 229.119C260.977 229.119 234.051 235.007 218.753 230.321C202.132 225.23 184.885 210.546 184.885 210.546L190.509 202.658Z" fill="#FFD9C7"/>
<path d="M231.66 214.109C231.66 214.109 238.555 224.093 258.612 221.412C278.669 218.73 298.857 205.935 299.297 188.463L231.66 214.109Z" fill="#F5C7B0"/>
<path d="M282.01 146.639C284.561 148.557 286.879 151.068 286.879 151.068C283.631 145.642 279.513 142.748 275.166 141.183C275.013 141.094 274.861 141.006 274.709 140.921C272.479 139.676 270.127 138.663 267.691 137.898C267.899 134.585 271.126 131.735 269.087 132.825C266.604 134.152 265.355 136.481 265.355 136.481C264.602 131.817 260.287 129.909 261.762 132.449C262.795 134.228 263.009 135.66 262.887 136.747C258.157 135.95 253.351 136.115 248.741 137.253C241.378 135.896 234.759 142.315 234.759 142.315C239.721 138.97 243.206 138.37 245.09 138.375C236.239 141.642 228.434 148.682 223.764 159.517C223.392 160.382 223.043 161.257 222.719 162.141C217.698 165.054 218.419 171.171 218.419 171.171C218.755 165.969 222.057 164.055 222.057 164.055C218.074 167.852 219.102 176.741 219.102 176.741C219.15 173.261 220.027 170.481 220.827 168.656C216.363 189.58 228.689 204.015 228.689 204.015L297.289 179.467C296.658 168.83 290.423 155.206 282.01 146.639Z" fill="#061D23"/>
<path d="M271.919 147.642C263.299 143.71 254.91 143.901 249.546 144.695L243.931 146.704C239.281 149.495 232.671 154.669 228.495 163.181C221.566 177.302 216.317 232.21 269.933 216.097L273.38 214.864C325.05 193.301 286.22 154.167 271.919 147.642Z" fill="#FFD9C7"/>
<path d="M227.042 183.746C227.042 183.746 219.943 177.476 217.557 186.293C215.334 194.505 225.042 198.932 227.692 198.013C230.341 197.095 227.042 183.746 227.042 183.746Z" fill="#FFD9C7"/>
<path d="M224.648 193.665C224.593 193.685 224.534 193.691 224.476 193.682C224.421 193.675 219.014 192.845 219.679 187.805C219.85 186.507 220.338 185.662 221.128 185.295C222.452 184.667 224.091 185.705 224.16 185.749C224.241 185.8 224.298 185.882 224.318 185.975C224.339 186.069 224.322 186.167 224.27 186.248C224.219 186.329 224.137 186.386 224.044 186.406C223.95 186.427 223.852 186.41 223.772 186.358C223.758 186.349 222.394 185.492 221.43 185.951C220.88 186.208 220.531 186.864 220.395 187.899C219.824 192.226 224.384 192.938 224.578 192.967C224.658 192.978 224.732 193.016 224.788 193.074C224.844 193.132 224.879 193.208 224.887 193.288C224.895 193.369 224.876 193.45 224.833 193.518C224.789 193.587 224.724 193.638 224.648 193.665Z" fill="#F5C7B0"/>
<path d="M286.065 162.624C286.065 162.624 287.757 152.824 295.097 158.251C301.241 162.793 297.228 173.101 294.598 174.071C291.967 175.041 286.065 162.624 286.065 162.624Z" fill="#FFD9C7"/>
<path d="M294.197 168.776C294.252 168.757 294.302 168.724 294.341 168.681C294.379 168.64 298.035 164.567 294.329 161.091C293.374 160.196 292.462 159.852 291.619 160.069C290.197 160.424 289.586 162.267 289.561 162.345C289.531 162.436 289.539 162.535 289.582 162.621C289.625 162.706 289.701 162.771 289.792 162.801C289.883 162.83 289.982 162.823 290.067 162.779C290.153 162.736 290.218 162.66 290.247 162.569C290.252 162.554 290.764 161.025 291.8 160.768C292.388 160.618 293.073 160.904 293.835 161.619C297.017 164.602 293.941 168.047 293.809 168.192C293.754 168.251 293.721 168.328 293.714 168.408C293.708 168.489 293.729 168.57 293.773 168.637C293.818 168.704 293.884 168.755 293.961 168.78C294.038 168.805 294.121 168.804 294.197 168.776ZM266.538 192.25C267.094 193.807 261.461 195.823 260.905 194.266C260.649 193.521 260.697 192.705 261.038 191.995C261.379 191.285 261.986 190.738 262.727 190.472C263.468 190.207 264.284 190.245 264.997 190.578C265.71 190.911 266.264 191.511 266.538 192.25Z" fill="#F5C7B0"/>
<path d="M279.201 189.676C282.714 188.418 284.167 183.491 282.446 178.671C280.724 173.851 276.48 170.962 272.967 172.219C269.453 173.477 268 178.404 269.722 183.224C271.443 188.045 275.687 190.933 279.201 189.676Z" fill="#F7F7F7"/>
<path d="M273.146 172.719C276.599 171.483 280.754 174.253 282.531 178.923C282.503 178.839 282.476 178.755 282.446 178.672C280.725 173.851 276.482 170.963 272.968 172.22C269.455 173.477 268.002 178.404 269.723 183.225C269.753 183.308 269.786 183.39 269.817 183.472C268.233 178.733 269.693 173.954 273.146 172.719Z" fill="#4D3838"/>
<path d="M280.897 180.602C282.245 184.377 281.107 188.236 278.355 189.221C275.603 190.205 272.279 187.943 270.931 184.168C269.583 180.393 270.721 176.534 273.473 175.549C276.225 174.564 279.549 176.826 280.897 180.602Z" fill="#4D3838"/>
<path d="M275.703 181.795C276.129 182.986 275.936 184.144 275.272 184.382C274.609 184.619 273.726 183.846 273.301 182.655C272.876 181.463 273.069 180.306 273.732 180.068C274.396 179.831 275.278 180.604 275.703 181.795Z" fill="#F7F7F7"/>
<path d="M249.882 200.166C253.395 198.909 254.848 193.982 253.127 189.161C251.405 184.341 247.162 181.452 243.648 182.71C240.134 183.967 238.682 188.894 240.403 193.714C242.124 198.535 246.368 201.423 249.882 200.166Z" fill="#F7F7F7"/>
<path d="M243.827 183.209C247.279 181.973 251.435 184.743 253.212 189.413C253.184 189.329 253.157 189.246 253.127 189.162C251.406 184.341 247.162 181.453 243.649 182.71C240.135 183.967 238.682 188.894 240.404 193.715C240.434 193.798 240.466 193.88 240.497 193.962C238.914 189.223 240.374 184.444 243.827 183.209Z" fill="#4D3838"/>
<path d="M251.577 191.094C252.925 194.869 251.787 198.728 249.036 199.713C246.284 200.697 242.96 198.435 241.612 194.66C240.264 190.885 241.402 187.026 244.154 186.041C246.905 185.056 250.229 187.319 251.577 191.094Z" fill="#4D3838"/>
<path d="M246.384 192.287C246.809 193.479 246.616 194.636 245.953 194.874C245.29 195.111 244.407 194.338 243.982 193.147C243.556 191.956 243.75 190.798 244.413 190.56C245.076 190.323 245.959 191.097 246.384 192.287Z" fill="#F7F7F7"/>
<path d="M276.987 167.238C276.894 167.272 276.792 167.267 276.703 167.226C273.884 165.921 271.356 165.712 269.196 166.6C265.866 167.97 264.502 171.533 264.489 171.568C264.472 171.615 264.446 171.657 264.412 171.693C264.379 171.73 264.338 171.759 264.293 171.779C264.248 171.8 264.2 171.811 264.15 171.813C264.101 171.815 264.052 171.807 264.005 171.79C263.959 171.772 263.917 171.746 263.881 171.713C263.844 171.679 263.815 171.638 263.795 171.593C263.774 171.548 263.763 171.5 263.761 171.45C263.759 171.401 263.767 171.352 263.784 171.305C263.843 171.147 265.267 167.407 268.903 165.907C271.267 164.932 273.999 165.145 277.018 166.542C277.086 166.573 277.143 166.624 277.182 166.688C277.221 166.752 277.24 166.826 277.237 166.901C277.233 166.976 277.208 167.048 277.163 167.108C277.119 167.168 277.057 167.213 276.987 167.238ZM248.721 177.339C248.628 177.372 248.526 177.368 248.437 177.326C245.618 176.021 243.094 175.811 240.93 176.701C237.6 178.071 236.236 181.633 236.223 181.669C236.188 181.762 236.118 181.838 236.027 181.88C235.936 181.921 235.833 181.925 235.739 181.89C235.646 181.855 235.57 181.785 235.529 181.694C235.487 181.603 235.483 181.499 235.518 181.406C235.577 181.247 237.001 177.507 240.636 176.007C243.009 175.03 245.733 175.245 248.752 176.642C248.82 176.673 248.877 176.724 248.916 176.788C248.955 176.852 248.974 176.926 248.971 177.001C248.968 177.076 248.942 177.148 248.897 177.208C248.853 177.268 248.791 177.314 248.721 177.339Z" fill="#4D3838"/>
<path d="M275.821 196.443C275.821 196.443 275.853 196.938 275.797 197.734C275.705 199.07 275.357 201.246 274.182 203.307C273.146 205.116 271.468 206.836 268.75 207.808C265.992 208.795 263.631 208.524 261.734 207.761C259.574 206.894 258.018 205.4 257.156 204.405C256.644 203.812 256.38 203.4 256.38 203.4L275.821 196.443Z" fill="#DD5E5E"/>
<path d="M275.821 196.443C275.821 196.443 275.853 196.938 275.797 197.734L257.156 204.405C256.644 203.812 256.38 203.4 256.38 203.4L275.821 196.443Z" fill="white"/>
<path d="M274.181 203.307C273.146 205.116 271.468 206.836 268.75 207.808C265.992 208.795 263.631 208.524 261.734 207.761C261.734 207.761 267.002 202.445 274.181 203.307Z" fill="#ED8C8C"/>
<path d="M268.906 140.926C256.602 137.949 244.986 138.828 238.657 144.604C232.328 150.379 224.714 158.871 224.271 164.295C223.829 169.719 221.819 176.038 223.672 181.227L226.225 188.653C226.225 188.653 225.448 181.158 226.767 179.702C228.474 177.817 232.406 174.361 231.723 169.904C231.124 165.999 237.574 171.783 240.378 170.38C242.417 169.359 243.434 165.781 244.606 163.294C246.992 165.292 249.375 165.556 249.375 165.556C247.759 164.766 246.309 163.674 245.102 162.339C245.254 162.079 245.412 161.843 245.576 161.638C249.258 165.558 253.604 165.168 253.604 165.168C249.785 164.171 247.48 161.885 246.596 160.851C247.056 160.702 247.576 160.787 248.182 161.193C251.967 163.725 258.589 164.656 261.773 159.135C266.122 151.595 269.604 162.583 275.043 156.039C277.297 159.596 279.946 159.805 279.946 159.805C277.758 158.618 276.353 156.665 275.632 155.431C277.214 154.157 277.087 157.972 282.438 160.011C285.827 161.301 289.274 166.204 289.274 166.204L286.523 158.736C286.523 158.736 281.238 143.91 268.906 140.926Z" fill="#061D23"/>
<path d="M225.676 194.728C225.676 194.728 234.864 171.151 254.026 166.508C273.26 161.847 280.381 165.566 295.136 171.128L295.29 169.391C295.29 169.391 269.79 156.079 252.943 163.657C236.097 171.235 226.807 184.496 225.241 193.126L225.676 194.728Z" fill="#F5C7B0"/>
<path d="M294.108 160.292C295.483 164.86 295.332 168.395 295.226 169.601C295.226 169.601 245.319 144.724 225.241 193.126C225.241 193.126 219.91 189.92 217.668 183.739C212.748 170.175 213.986 144.762 241.589 132.68C269.553 120.439 289.454 144.876 294.108 160.292Z" fill="#9AC033"/>
<path d="M247.907 151.872C237.561 154.566 229.834 149.05 225.263 144.108C229.216 139.715 234.552 135.765 241.589 132.684C249.046 129.414 255.946 128.757 262.12 129.849C261.869 137.237 259.581 148.843 247.907 151.872Z" fill="#C5DB8B"/>
<path d="M331.868 242.627C331.153 244.326 330.346 246.095 329.4 247.91C329.024 248.393 329.006 248.476 328.624 248.265C327.951 247.892 326.956 247.764 325.806 247.709C325.829 247.663 325.834 247.631 325.834 247.631C325.834 247.631 334.443 227.427 331.48 215.241C332.497 215.077 333.892 214.931 334.669 214.782C334.777 214.761 334.864 215.295 335.07 215.805C335.215 216.39 335.38 217.176 335.519 218.141C335.516 218.157 335.53 218.176 335.528 218.192C336.209 222.765 336.432 231.443 331.868 242.627ZM366.933 248.799C366.64 249.104 366.18 249.264 366.011 249.62C362.03 258.421 358.621 262.153 358.621 262.153C358.621 262.153 357.345 261.802 355.39 261.149C357.528 258.434 362.135 252.226 363.219 247.583C363.219 247.583 371.038 238.67 373.16 220.168C374.016 221.09 375.004 222.097 375.8 223.209C375.8 223.209 375.757 223.569 375.775 224.118C375.816 227.421 375.387 239.732 366.933 248.799Z" fill="white"/>
<path d="M363.218 247.584L366.933 248.801C366.933 248.801 366.679 249.058 366.448 249.182C366.217 249.306 366.019 249.573 365.981 249.691C365.942 249.809 362.359 258.712 358.591 262.228C358.591 262.228 356.025 261.388 355.39 261.15C355.39 261.15 361.743 253.361 363.218 247.584Z" fill="#F4F3F2"/>
<path d="M312.773 249.052C307.639 249.417 300.863 249.474 291.787 248.529C273.653 246.622 262.245 237.496 258.102 229.694C250.756 231.041 231.014 234.081 218.745 230.327C202.124 225.232 184.887 210.54 184.887 210.54C184.887 210.54 178.338 209.736 176.163 208.105C178.79 208.578 183.487 209.372 185.658 209.462C185.723 209.471 185.79 209.465 185.839 209.472C185.839 209.472 208.012 227.943 226.689 228.969C241.576 229.782 251.595 227.821 256.798 226.653C258.133 226.353 259.143 226.122 259.843 225.977C259.843 225.977 260.131 226.599 260.804 227.643C264.135 232.873 277.12 248.577 312.773 249.052ZM374.783 202.265C374.714 202.288 374.642 202.327 374.556 202.347C372.699 202.933 368.064 197.792 367.201 196.803C366.188 197.166 336.575 191.54 325.153 193.029C316.856 194.086 306.878 210.663 305.748 212.599C306.416 212.897 307.118 213.183 307.883 213.495C318.819 217.864 326.407 216.005 331.332 215.261C325.793 219.045 311.075 219.371 307.901 218.455C305.731 217.802 298.853 221.748 298.792 220.712C298.729 219.792 303.001 212.491 303.001 212.491C303.046 212.415 303.074 212.336 303.118 212.26C303.239 211.996 303.361 211.733 303.48 211.485C316.056 185.836 329.75 189.569 333.701 190.154C337.296 190.686 362.656 194.192 367.729 194.91C367.777 194.917 367.828 194.908 367.875 194.932C368.346 194.985 368.606 195.023 368.606 195.023C369.264 196.843 372.68 200.264 374.783 202.265Z" fill="#F5C7B0"/>
<path d="M254.84 150.313C254.943 156.807 261.606 161.97 269.716 161.84C277.83 161.71 284.32 156.337 284.216 149.843C284.112 143.344 277.455 138.187 269.34 138.317C261.23 138.447 254.736 143.815 254.84 150.313ZM271.421 157.967C265.961 158.054 261.478 154.577 261.408 150.208C261.338 145.835 265.709 142.222 271.168 142.134C276.628 142.047 281.111 145.518 281.181 149.892C281.251 154.261 276.881 157.879 271.421 157.967Z" fill="#F3FDFF"/>
<path d="M259.233 150.244C259.314 155.295 264.435 159.31 270.673 159.21C276.905 159.11 281.896 154.934 281.815 149.882C281.735 144.83 276.613 140.816 270.381 140.916C264.143 141.016 259.153 145.192 259.233 150.244ZM261.408 150.209C261.338 145.835 265.709 142.222 271.169 142.134C276.628 142.047 281.112 145.519 281.181 149.892C281.251 154.261 276.881 157.88 271.421 157.967C265.962 158.055 261.478 154.578 261.408 150.209Z" fill="#82A4D6"/>
<path d="M261.409 150.209C261.478 154.578 265.962 158.055 271.422 157.967C276.881 157.88 281.252 154.262 281.182 149.893C281.112 145.519 276.628 142.047 271.169 142.134C265.709 142.222 261.339 145.835 261.409 150.209Z" fill="#B0D0FF"/>
<path d="M222.377 167.82C226.059 173.167 234.463 173.768 241.142 169.16C247.82 164.553 250.25 156.477 246.568 151.129C242.883 145.778 234.482 145.181 227.804 149.789C221.126 154.397 218.693 162.469 222.377 167.82ZM224.88 166.093C222.4 162.491 224.034 157.061 228.529 153.96C233.029 150.855 238.679 151.259 241.159 154.861C243.636 158.459 242.006 163.893 237.506 166.998C233.011 170.1 227.357 169.691 224.88 166.093Z" fill="#F3FDFF"/>
<path d="M224.355 166.458C227.219 170.618 233.704 171.117 238.841 167.573C243.973 164.032 245.814 157.787 242.95 153.627C240.086 149.467 233.601 148.968 228.468 152.509C223.332 156.053 221.491 162.297 224.355 166.458ZM224.88 166.095C222.401 162.493 224.034 157.063 228.529 153.961C233.029 150.857 238.679 151.261 241.159 154.863C243.636 158.461 242.006 163.895 237.507 166.999C233.011 170.101 227.357 169.693 224.88 166.095Z" fill="#82A4D6"/>
<path d="M224.88 166.094C227.358 169.692 233.011 170.101 237.506 166.999C242.006 163.894 243.636 158.46 241.159 154.863C238.679 151.261 233.029 150.856 228.529 153.961C224.034 157.063 222.401 162.492 224.88 166.094Z" fill="#B0D0FF"/>
<path d="M258.942 155.628L246.545 158.67L244.688 151.089L257.085 148.047L258.942 155.628ZM226.739 170.088L217.312 182.717C216.732 180.999 216.26 178.692 216.26 178.692L222.218 165.726L226.739 170.088ZM282.173 153.102L293.992 159.856C293.09 156.991 291.519 153.874 291.519 153.874L283.084 146.885L282.173 153.102Z" fill="#F3FDFF"/>
<path d="M279.34 148.788C279.38 148.788 279.418 148.777 279.453 148.759C279.487 148.74 279.516 148.713 279.538 148.68C279.559 148.647 279.573 148.609 279.576 148.57C279.58 148.531 279.574 148.492 279.559 148.455C279.54 148.411 277.639 143.989 271.4 143.345C271.368 143.342 271.336 143.344 271.306 143.353C271.276 143.362 271.247 143.377 271.223 143.397C271.198 143.417 271.178 143.441 271.163 143.469C271.148 143.497 271.139 143.528 271.137 143.56C271.133 143.591 271.136 143.623 271.145 143.653C271.154 143.683 271.169 143.712 271.189 143.736C271.209 143.761 271.233 143.781 271.261 143.796C271.289 143.811 271.32 143.82 271.351 143.823C277.294 144.437 279.098 148.598 279.116 148.64C279.134 148.684 279.165 148.722 279.205 148.749C279.245 148.775 279.292 148.789 279.34 148.788ZM225.597 164.223C225.636 164.195 225.667 164.157 225.684 164.112C225.702 164.067 225.705 164.018 225.694 163.971C225.684 163.927 224.74 159.49 229.223 155.537C229.246 155.516 229.266 155.491 229.28 155.463C229.294 155.434 229.302 155.404 229.304 155.372C229.306 155.341 229.302 155.309 229.292 155.279C229.281 155.249 229.265 155.222 229.244 155.198C229.224 155.174 229.199 155.155 229.17 155.14C229.142 155.126 229.111 155.118 229.08 155.116C229.048 155.114 229.016 155.118 228.986 155.129C228.957 155.139 228.929 155.156 228.906 155.177C224.199 159.327 225.216 164.032 225.226 164.079C225.235 164.117 225.253 164.152 225.279 164.182C225.305 164.212 225.337 164.235 225.374 164.249C225.41 164.263 225.45 164.268 225.488 164.263C225.527 164.259 225.565 164.245 225.597 164.223Z" fill="#999999"/>
<path d="M454.911 234.626C454.81 234.968 454.657 235.293 454.459 235.589C454.332 235.788 454.179 235.982 454.012 236.168V236.172L453.849 236.335C453.303 236.877 452.594 237.311 451.758 237.592C451.718 237.61 451.672 237.623 451.627 237.637C450.616 237.953 449.437 238.044 448.168 237.822C447.673 237.737 447.186 237.608 446.714 237.438C445.842 237.131 445.034 236.733 444.284 236.276C444.176 236.213 444.067 236.145 443.963 236.077C442.952 235.426 442.049 234.68 441.258 233.912C441.087 233.744 440.92 233.573 440.757 233.405V233.401C440.749 233.397 440.742 233.391 440.739 233.383C440.581 233.22 440.432 233.053 440.287 232.89H440.283C440.242 232.845 440.206 232.804 440.17 232.759C440.074 232.65 439.979 232.54 439.885 232.429C439.858 232.397 439.836 232.37 439.813 232.343C439.7 232.207 439.596 232.076 439.488 231.945V231.941L439.38 231.805C439.303 231.706 439.231 231.611 439.163 231.52C439.104 231.443 439.05 231.371 439 231.303L438.783 231.005C438.485 230.584 438.228 230.196 438.011 229.848C437.989 229.811 437.971 229.78 437.948 229.748C437.907 229.689 437.876 229.631 437.84 229.576C437.822 229.54 437.799 229.508 437.781 229.472C437.772 229.459 437.767 229.45 437.758 229.436C437.728 229.389 437.699 229.341 437.673 229.291C437.627 229.219 437.591 229.151 437.551 229.088C437.469 228.939 437.393 228.803 437.329 228.69C437.334 228.686 437.329 228.686 437.329 228.686C437.293 228.618 437.262 228.559 437.234 228.505C437.212 228.469 437.198 228.432 437.18 228.401C437.162 228.365 437.149 228.333 437.135 228.306C437.126 228.292 437.122 228.283 437.117 228.274V228.27L437.113 228.265L437.085 228.211C436.954 228.373 433.634 232.526 429.179 237.645L428.726 238.166C428.708 238.193 428.681 238.22 428.658 238.247C428.279 238.677 427.895 239.111 427.511 239.549C427.105 240.015 426.685 240.485 426.256 240.96C426.043 241.199 425.827 241.434 425.614 241.674C424.973 242.384 424.314 243.103 423.654 243.817C423.451 244.038 423.248 244.26 423.04 244.477C422.733 244.807 422.426 245.137 422.114 245.462C421.911 245.679 421.708 245.896 421.496 246.109V246.113C420.582 247.069 419.657 248.012 418.718 248.944L418.556 249.106C422.751 247.167 426.775 244.983 429.751 242.958C438.269 237.162 442.821 241.773 443.39 244.875C443.954 247.972 442.121 254.156 445.969 259.491C447.12 261.091 447.26 262.474 446.745 263.519C446.614 263.79 446.438 264.034 446.226 264.26C445.449 265.074 444.176 265.571 442.69 265.648C442.536 265.657 442.378 265.657 442.22 265.657H442.162C442.116 265.657 442.071 265.652 442.022 265.648C441.886 265.648 441.751 265.639 441.615 265.63C441.285 265.607 440.951 265.558 440.617 265.494C440.396 265.454 440.174 265.399 439.949 265.336C439.718 265.273 439.488 265.196 439.253 265.115C439.027 265.038 438.802 264.947 438.576 264.843L438.571 264.839C438.002 264.59 437.438 264.274 436.891 263.889C436.72 263.767 436.552 263.645 436.39 263.514C435.905 263.143 435.444 262.74 435.013 262.307C434.873 262.167 434.737 262.031 434.602 261.887C434.602 261.887 434.597 261.887 434.597 261.882C434.466 261.742 434.335 261.597 434.209 261.453C432.881 259.92 431.946 258.256 431.305 256.819C431.187 256.548 431.074 256.281 430.971 256.028C430.921 255.897 430.871 255.774 430.826 255.652C430.758 255.467 430.695 255.291 430.636 255.123C430.528 254.807 430.433 254.513 430.361 254.26C430.329 254.161 430.302 254.07 430.28 253.984L430.266 253.93C430.126 253.433 430.063 253.121 430.054 253.071C430.054 253.071 429.792 253.211 429.318 253.473C429.209 253.532 429.087 253.6 428.956 253.672C428.866 253.722 428.771 253.772 428.672 253.826C428.523 253.907 428.369 253.989 428.202 254.084C428.143 254.111 428.085 254.142 428.026 254.179C427.85 254.269 427.669 254.369 427.475 254.477H427.471C427.213 254.617 426.942 254.766 426.649 254.92C426.576 254.956 426.5 254.997 426.423 255.038C426.197 255.155 425.967 255.277 425.727 255.408L425.231 255.671C424.476 256.073 423.654 256.502 422.774 256.954C422.774 256.95 422.769 256.954 422.769 256.954C422.282 257.212 421.776 257.47 421.256 257.732H421.252C419.996 258.369 418.66 259.043 417.269 259.721C416.673 260.011 416.067 260.304 415.458 260.598C413.827 261.38 412.147 262.162 410.467 262.908H410.463C409.627 263.284 408.792 263.65 407.961 263.998C407.541 264.179 407.125 264.35 406.714 264.518C405.892 264.857 405.08 265.178 404.285 265.485C403.485 265.788 402.704 266.073 401.945 266.335C401.941 266.335 401.941 266.34 401.941 266.34C400.947 266.683 399.994 266.986 399.091 267.239C397.592 267.664 396.237 267.949 395.094 268.053C393.993 268.153 392.701 268.189 391.256 268.157C390.894 268.148 390.52 268.139 390.14 268.121H390.104C389.553 268.098 388.989 268.067 388.402 268.026C388.009 267.999 387.611 267.967 387.2 267.936C386.591 267.881 385.963 267.823 385.317 267.755C385.145 267.737 384.969 267.714 384.793 267.696C384.617 267.673 384.441 267.655 384.265 267.637C384.084 267.615 383.908 267.592 383.727 267.574C383.366 267.529 383 267.479 382.634 267.434C382.449 267.407 382.264 267.384 382.079 267.357C381.618 267.294 381.154 267.226 380.684 267.158C380.49 267.131 380.291 267.099 380.097 267.068C378.914 266.887 377.694 266.679 376.443 266.453C376.276 266.421 376.105 266.389 375.933 266.362C374.998 266.186 374.05 266.001 373.088 265.802C372.717 265.725 372.343 265.648 371.963 265.567C371.914 265.553 371.859 265.544 371.81 265.535C371.426 265.449 371.037 265.363 370.649 265.277C370.608 265.268 370.564 265.259 370.518 265.25C370.121 265.16 369.719 265.069 369.317 264.974C369.032 264.911 368.752 264.848 368.472 264.78C368.084 264.685 367.691 264.59 367.298 264.495C367.276 264.491 367.257 264.486 367.239 264.482C366.851 264.387 366.458 264.287 366.065 264.188C365.984 264.17 365.903 264.147 365.821 264.124C365.406 264.02 364.99 263.912 364.57 263.803C363.599 263.55 362.623 263.284 361.644 263.008C361.283 262.904 360.926 262.804 360.565 262.696C359.941 262.52 359.314 262.334 358.686 262.14C358.654 262.171 358.627 262.203 358.596 262.23C358.596 262.23 356.184 261.439 355.457 261.177C355.434 261.168 355.412 261.163 355.394 261.154C353.768 260.607 351.627 259.861 349.243 258.957C348.976 258.858 348.719 258.758 348.457 258.659C348.204 258.568 347.951 258.469 347.694 258.365C347.477 258.284 347.26 258.198 347.048 258.116C346.425 257.872 345.792 257.619 345.16 257.357C344.844 257.226 344.528 257.095 344.212 256.959C338.481 254.572 332.425 251.579 328.961 248.491C328.907 248.449 328.856 248.404 328.807 248.356C328.757 248.338 328.699 248.311 328.626 248.27C328.261 248.062 327.796 247.935 327.263 247.849C327.186 247.836 327.105 247.822 327.028 247.813C327.019 247.813 327.01 247.813 327.001 247.809C326.77 247.782 326.527 247.759 326.274 247.741L325.808 247.714C323.279 247.61 319.405 248.577 312.775 249.057H312.743L311.944 249.111C310.457 249.203 308.967 249.262 307.477 249.287C303.196 249.364 298.034 249.192 291.784 248.537C290.935 248.451 290.099 248.342 289.282 248.22C289.011 248.179 288.74 248.139 288.469 248.094C287.385 247.926 286.328 247.727 285.303 247.497C284.391 247.298 283.497 247.081 282.621 246.846C279.13 245.906 275.973 244.68 273.164 243.265C272.929 243.148 272.699 243.03 272.468 242.908C272.225 242.782 271.99 242.655 271.75 242.524C270.166 241.665 268.641 240.701 267.185 239.64C266.4 239.071 265.638 238.472 264.899 237.845C264.425 237.442 263.965 237.036 263.531 236.615C263.527 236.62 263.527 236.62 263.527 236.615C261.11 234.341 259.295 231.968 258.089 229.703C255.298 230.214 250.723 230.969 245.448 231.498C245.408 231.507 245.367 231.511 245.326 231.511C244.752 231.57 244.174 231.624 243.587 231.674C241.155 231.89 238.717 232.034 236.276 232.103C235.088 232.14 233.896 232.149 232.712 232.131C232.694 232.135 232.676 232.135 232.658 232.131C232.315 232.126 231.976 232.121 231.638 232.112V232.108C231.024 231.045 230.322 230.036 229.538 229.093C222.515 220.652 210.958 220.602 200.169 219.377C198.774 219.219 197.387 219.043 196.028 218.821H196.023C193.627 217.216 191.279 215.539 188.983 213.794C188.843 213.69 188.712 213.586 188.581 213.491C188.323 213.292 188.075 213.102 187.845 212.922C187.727 212.827 187.614 212.741 187.502 212.655C186.946 212.221 186.472 211.841 186.083 211.529C185.966 211.439 185.858 211.348 185.758 211.271V211.262C185.835 210.724 185.98 210.223 186.187 209.761C187.375 207.067 190.595 205.693 194.723 205.254C205.232 204.128 221.612 209.088 225.265 213.853C225.83 214.341 226.376 214.843 226.905 215.367C230.789 219.174 233.927 223.772 238.24 227.09C239.184 227.895 240.164 228.505 241.135 228.921C243.958 230.146 246.74 229.793 248.6 228.161C250.104 226.841 251.012 224.689 250.854 221.855C250.836 221.493 250.8 221.122 250.741 220.738C250.754 220.241 250.673 219.644 250.538 218.988V218.984C249.824 215.367 247.58 209.902 251.278 208.889C251.436 208.844 251.603 208.808 251.78 208.78C254.499 208.622 257.176 209.82 259.087 211.755C260.55 213.238 261.562 215.159 261.796 217.243C261.783 217.533 261.769 217.818 261.765 218.102C261.729 219.065 261.729 220.006 261.778 220.91C262.058 226.371 263.964 230.774 269.794 233.433C273.931 236.254 274.234 228.505 277.205 227.858C280.159 227.727 282.733 230.358 285.651 230.404C289.792 227.913 287.489 221.561 289.318 217.655C291.093 211.692 300.929 211.167 301.981 214.278C302.302 215.214 301.818 216.479 300.08 218.026C300.016 218.053 299.958 218.075 299.894 218.107H299.89C296.616 219.567 293.987 223.568 299.185 224.341C305.26 229.337 316.261 230.96 318.822 221.647C318.998 220.372 318.912 218.677 319.251 217.257C319.336 216.895 319.454 216.552 319.607 216.235V216.231C319.987 215.458 320.601 214.87 321.622 214.63C322.787 214.63 323.762 215.241 324.661 216.181V216.186C324.923 216.457 325.171 216.755 325.42 217.072C327.429 219.676 329.141 223.645 331.864 225.313C332.605 225.77 333.418 226.05 334.33 226.091C334.61 226.104 334.894 226.095 335.188 226.059C335.396 226.041 335.613 226.005 335.834 225.951C336.272 225.856 336.728 225.711 337.211 225.503C337.243 225.489 337.279 225.476 337.311 225.462C337.455 225.399 337.6 225.331 337.749 225.259C340.02 223.238 340.747 219.644 340.969 215.58L340.996 215.055C341.027 214.264 341.045 213.455 341.054 212.637C341.127 204.865 340.314 196.353 345.06 193.875C345.372 193.708 345.711 193.568 346.076 193.459C348.163 193.03 350.069 193.572 351.618 194.698C351.622 194.698 351.622 194.703 351.622 194.703C355.258 197.343 356.902 203.188 354.21 207.063C353.135 208.667 351.577 209.87 350.218 211.24C349.694 211.764 349.197 212.316 348.772 212.922C348.167 213.735 347.82 214.635 347.698 215.512C347.652 215.846 347.639 216.181 347.657 216.502C347.793 219.115 349.924 221.199 353.09 219.87C353.835 219.716 354.535 219.45 355.203 219.106C356.364 218.514 357.434 217.691 358.473 216.818C359.991 215.539 361.454 214.156 363.057 213.224C366.593 214.608 370.052 216.814 373.16 220.173C374.018 221.095 375.007 222.103 375.802 223.211C375.802 223.211 375.761 223.573 375.774 224.124C375.774 224.192 375.774 224.264 375.779 224.341C375.932 224.463 376.086 224.581 376.24 224.703C388.528 234.414 403.047 238.003 405.4 237.791C410.671 237.311 427.425 226.412 434.087 218.545C440.748 210.675 446.366 213.903 447.739 216.737C449.116 219.572 447.82 225.725 452.951 229.834C453.217 230.051 453.461 230.268 453.669 230.489C453.732 230.553 453.786 230.612 453.84 230.67C453.899 230.734 453.953 230.801 454.007 230.865C454.039 230.905 454.075 230.946 454.107 230.991C454.156 231.055 454.206 231.122 454.251 231.186C454.301 231.253 454.346 231.317 454.387 231.385C454.427 231.452 454.468 231.516 454.509 231.584C454.545 231.651 454.581 231.715 454.617 231.782C454.716 231.981 454.802 232.18 454.865 232.379L454.92 232.542C454.938 232.623 454.96 232.7 454.978 232.777C454.992 232.845 455.005 232.908 455.014 232.976C455.114 233.526 455.078 234.093 454.911 234.626Z" fill="#ABE7F4"/>
</svg>
