<svg width="588" height="522" viewBox="0 0 588 522" fill="none" xmlns="http://www.w3.org/2000/svg">
<g clip-path="url(#clip0_727_4607)">
<line x1="-31" y1="67.5" x2="682" y2="67.4999" stroke="#E5E5E7" stroke-dasharray="6 6"/>
<line x1="-31" y1="135.5" x2="682" y2="135.5" stroke="#E5E5E7" stroke-dasharray="6 6"/>
<line x1="-31" y1="203.5" x2="682" y2="203.5" stroke="#E5E5E7" stroke-dasharray="6 6"/>
<line x1="-31" y1="271.5" x2="682" y2="271.5" stroke="#E5E5E7" stroke-dasharray="6 6"/>
<line x1="-31" y1="339.5" x2="682" y2="339.5" stroke="#E5E5E7" stroke-dasharray="6 6"/>
<line x1="-31" y1="407.5" x2="682" y2="407.5" stroke="#E5E5E7" stroke-dasharray="6 6"/>
<line x1="-31" y1="461.5" x2="682" y2="461.5" stroke="#E5E5E7" stroke-dasharray="6 6"/>
<line x1="70.5" y1="-1.37379e-08" x2="70.5" y2="522" stroke="#E5E5E7"/>
<line x1="172.5" y1="-1.37379e-08" x2="172.5" y2="522" stroke="#E5E5E7"/>
<line x1="274.5" y1="-1.37379e-08" x2="274.5" y2="522" stroke="#E5E5E7"/>
<line x1="376.5" y1="-1.37379e-08" x2="376.5" y2="522" stroke="#E5E5E7"/>
<line x1="478.5" y1="-1.37379e-08" x2="478.5" y2="522" stroke="#E5E5E7"/>
<line x1="580.5" y1="-1.37379e-08" x2="580.5" y2="522" stroke="#E5E5E7"/>
</g>
<defs>
<clipPath id="clip0_727_4607">
<rect width="588" height="522" fill="white"/>
</clipPath>
</defs>
</svg>
