<svg width="140" height="140" viewBox="0 0 140 140" fill="none" xmlns="http://www.w3.org/2000/svg">
<path d="M132.467 54.8486C131.193 46.7327 124.527 40.1836 115.73 38.4051C93.2745 33.865 69.9972 33.865 47.5412 38.4051C38.7457 40.1836 32.0799 46.7333 30.8053 54.8486C28.6196 68.7676 28.6196 82.8982 30.8053 96.8171C32.0793 104.933 38.7451 111.482 47.5412 113.261C69.9972 117.801 93.2745 117.801 115.73 113.261C124.527 111.482 131.192 104.933 132.467 96.8171L132.586 96.0565C134.692 82.6422 134.692 69.0236 132.586 55.6099L132.467 54.8486Z" fill="white" fill-opacity="0.2"/>
<path d="M127.98 57.2623C128.174 55.9592 127.832 54.7394 127.245 53.6649C127.052 52.0672 126.933 50.4648 126.682 48.8711L126.562 48.1075C124.921 37.6431 116.345 29.1037 105.223 26.8532C103.217 26.4483 101.19 26.124 99.1666 25.7892V23.3333C99.1666 20.1093 96.5544 17.5 93.3332 17.5C90.1121 17.5 87.4999 20.1093 87.4999 23.3333V24.213C75.8857 23.0778 64.1147 23.0767 52.4999 24.2089V23.3333C52.4999 20.1093 49.8877 17.5 46.6666 17.5C43.4454 17.5 40.8332 20.1093 40.8332 23.3333V25.7781C38.7898 26.1164 36.7429 26.4442 34.7182 26.8537C23.5981 29.1042 15.0219 37.6431 13.3757 48.1081C13.0899 49.931 12.9464 51.765 12.7323 53.5932C12.1187 54.6823 11.7652 55.9306 11.9629 57.2623C12.002 57.5213 12.149 57.7255 12.219 57.9705C11.2507 69.2743 11.6112 80.6435 13.3757 91.8919C15.0219 102.356 23.5981 110.896 34.7182 113.146C46.2483 115.476 58.1087 116.644 69.969 116.644C81.8322 116.644 93.6926 115.476 105.223 113.146C116.345 110.896 124.922 102.357 126.562 91.8919L126.682 91.1283C128.412 80.1238 128.735 69.0002 127.749 57.9425C127.813 57.7092 127.944 57.5091 127.98 57.2623ZM37.0305 38.2929C47.8058 36.1112 58.8886 35.0233 69.9684 35.0233C81.0512 35.0233 92.1339 36.1112 102.909 38.2929C109.144 39.5488 113.924 44.0714 114.954 49.5857C85.0598 45.8354 54.877 45.8354 24.9829 49.5857C26.0125 44.072 30.7953 39.5488 37.0305 38.2929ZM115.157 89.3171L115.037 90.0807C114.146 95.7489 109.272 100.426 102.909 101.708C81.3562 106.071 58.5782 106.071 37.0305 101.708C30.6675 100.426 25.7908 95.7489 24.8995 90.0807C23.4137 80.6103 23.0357 71.0471 23.6617 61.5213C54.4395 57.4128 85.5592 57.414 116.336 61.5283C116.97 70.7957 116.605 80.1027 115.157 89.3171Z" fill="#66993B"/>
<path d="M81.6664 71.4129H76.9921L75.5478 66.9697C74.7673 64.5658 72.5255 62.9365 69.9991 62.9365C67.4727 62.9365 65.2309 64.5658 64.4504 66.9697L63.0061 71.4129H58.333C55.8066 71.4129 53.5649 73.0422 52.7844 75.4461C52.0039 77.85 52.8614 80.482 54.9065 81.9689L58.6859 84.7089L57.2422 89.1579C56.4617 91.5619 57.3192 94.1939 59.3614 95.6749C61.4066 97.1677 64.178 97.1619 66.2174 95.6808L69.9997 92.9344L73.782 95.6802C74.8017 96.421 76.0063 96.7909 77.2085 96.7909C78.4108 96.7909 79.6154 96.4204 80.6379 95.6744C82.6802 94.1933 83.5377 91.5613 82.7572 89.1574L81.3129 84.7083L85.0923 81.9684C87.1374 80.4814 87.9949 77.8494 87.2144 75.4455C86.4339 73.0416 84.1928 71.4129 81.6664 71.4129Z" fill="#66993B"/>
</svg>
