<svg width="130" height="137" viewBox="0 0 130 137" fill="none" xmlns="http://www.w3.org/2000/svg">
<path d="M101.723 63.3254C106.042 62.7084 109.25 59.0095 109.25 54.6469V46.8534C109.25 42.4903 106.042 38.7919 101.723 38.1749C80.0181 35.0745 57.9824 35.0745 36.2768 38.1749L28.75 39.2502V62.2502L36.2768 63.3254C57.9824 66.4264 80.0176 66.4264 101.723 63.3254ZM124.187 84.3543C95.1516 81.128 65.8484 81.128 36.8127 84.3543L28.75 85.2502V108.25L36.8127 109.146C65.8484 112.372 95.1516 112.372 124.187 109.146C128.778 108.636 132.25 104.756 132.25 100.137V93.3623C132.25 88.7444 128.778 84.8643 124.187 84.3543Z" fill="white" fill-opacity="0.2"/>
<path d="M17.25 114C20.1923 114 22.5268 111.759 22.8672 108.908L24.679 109.109C39.3823 110.743 54.1926 111.56 69 111.56C83.8074 111.56 98.6177 110.743 113.321 109.109C120.831 108.275 126.5 101.944 126.5 94.389V87.6115C126.5 80.056 120.834 73.7253 113.321 72.891C83.9138 69.6227 54.0856 69.6227 24.679 72.891L23 73.0773V63.1286L23.9631 63.266C35.0894 64.8553 46.295 65.65 57.5 65.65C68.705 65.65 79.9106 64.8553 91.0369 63.266C98.1433 62.25 103.5 56.0734 103.5 48.8968V41.1032C103.5 33.9272 98.1433 27.75 91.0369 26.734C68.7838 23.5559 46.2162 23.5559 23.9631 26.734L22.8275 26.8955C22.3997 24.143 20.1227 22 17.25 22C14.0748 22 11.5 24.5748 11.5 27.75V33.5V56.5V79.5V102.5V108.25C11.5 111.425 14.0748 114 17.25 114ZM25.948 84.3179C54.5157 81.148 83.4871 81.1428 112.049 84.3179C113.731 84.506 115 85.921 115 87.6109V94.3885C115 96.0784 113.731 97.4935 112.049 97.6821C83.4785 100.855 54.5181 100.855 25.948 97.6821L23 97.3537V84.6463L25.948 84.3179ZM25.5915 38.1155C46.7665 35.0974 68.2393 35.0974 89.4085 38.1155C90.8857 38.3289 92 39.6122 92 41.1032V48.8974C92 50.3883 90.8857 51.6711 89.4085 51.8845C68.2393 54.9055 46.7665 54.9113 25.5915 51.8845L23 51.5136V38.4864L25.5915 38.1155Z" fill="#2C968B"/>
</svg>
