<svg width="40" height="36" viewBox="0 0 40 36" fill="none" xmlns="http://www.w3.org/2000/svg">
<path d="M49.898 33.7204C49.3877 33.7204 48.9741 33.3067 48.9741 32.7965C48.9741 32.2862 49.3877 31.8726 49.898 31.8726C50.4082 31.8726 50.8219 32.2862 50.8219 32.7965C50.8219 33.3067 50.4082 33.7204 49.898 33.7204ZM-6.35783 19.896C-7.81283 19.896 -8.99258 18.7163 -8.99258 17.2612C-8.99258 15.806 -7.81283 14.6263 -6.35783 14.6263C-4.90246 14.6263 -3.72308 15.806 -3.72308 17.2612C-3.72308 18.7163 -4.90246 19.896 -6.35783 19.896ZM-1.25896 35.3287L-2.35396 36.013C-2.59469 36.2387 -2.91396 36.3614 -3.24384 36.3552C-3.56503 36.3289 -3.86986 36.2024 -4.11541 35.9937C-4.36095 35.785 -4.53484 35.5045 -4.61259 35.1918C-4.63771 35.038 -4.68383 34.8883 -4.74946 34.747L-4.85221 34.5758H-4.88633C-4.85221 34.6443 -4.85221 34.6443 -4.92046 34.6785C-5.10416 34.79 -5.29911 34.8817 -5.50209 34.9523L-6.15233 35.3287L-8.58196 36.629C-8.88984 36.7658 -9.77971 36.3552 -9.36909 36.1499L-6.93946 34.7812C-6.25508 34.439 -5.46796 33.7888 -4.64671 34.0283C-3.82546 34.2679 -3.79134 34.8154 -3.58584 35.3971C-3.38071 35.9788 -3.34659 35.7051 -3.34659 35.842C-3.34659 35.9788 -3.31208 35.8762 -3.38071 35.8077C-3.44896 35.7393 -3.51758 35.7393 -3.38071 35.705L-3.17521 35.5682L-2.04608 34.8496C-1.77233 34.6785 -0.848335 35.0891 -1.25896 35.3287ZM1.20479 26.8082L-1.08796 26.4318C-1.39584 26.3633 -1.77233 26.1923 -2.01196 26.5002C-2.09253 26.7119 -2.20814 26.9086 -2.35396 27.082C-3.07246 27.869 -4.88633 27.6637 -5.46796 26.774L-4.54396 26.9451C-4.79644 27.2212 -5.10288 27.4425 -5.44433 27.5955C-5.78568 27.7485 -6.15478 27.83 -6.52884 27.8348C-7.04184 27.8348 -8.06859 27.6637 -8.13684 27.0135C-8.20546 26.3633 -7.21321 26.774 -7.14458 27.1162C-7.07633 27.4583 -6.56296 27.2188 -6.42609 27.1846C-6.05633 27.0535 -5.72643 26.8296 -5.46796 26.5345C-5.31905 26.4473 -5.14375 26.4166 -4.97409 26.4481C-4.80449 26.4796 -4.65184 26.5709 -4.54396 26.7055C-4.27021 27.1504 -3.41483 26.9451 -3.17521 26.5687C-2.93558 26.1923 -2.90146 25.9527 -2.52496 25.8158C-2.14884 25.679 -1.39583 25.7816 -0.882458 25.8843L1.06792 26.1923C1.27304 26.2265 1.61541 26.3291 1.64954 26.5687C1.68366 26.8082 1.37579 26.8424 1.20479 26.8082ZM31.6252 13.4629C36.3131 24.2076 36.5527 40.9405 34.7733 52.6435C34.7733 52.6435 28.5113 46.1759 25.1578 39.1953L21.8384 32.2148C21.8384 32.2148 18.0059 40.3589 13.8997 44.431C11.382 46.8972 8.46682 48.9215 5.27654 50.419C7.09042 40.1879 8.21954 23.7285 3.77091 14.5237L31.6252 13.4629Z" fill="#5158F6"/>
<path d="M32.5833 60.24C32.5876 60.2928 32.6121 60.3418 32.6517 60.3769L32.9255 60.7875C33.3695 61.201 33.911 61.4953 34.4995 61.6429L35.9709 61.9166L37.7845 62.1221C39.1708 62.277 40.5643 62.3569 41.9592 62.3614H44.2518L45.2784 62.2931C45.5101 62.2549 45.7247 62.1476 45.8943 61.9853C46.2365 61.677 46.476 61.0271 46.6814 60.2741L46.8183 59.7266C46.8653 59.57 46.8996 59.4099 46.9209 59.2478C46.9263 59.1439 46.9147 59.0396 46.8867 58.9395C46.8679 58.8324 46.8333 58.7286 46.784 58.6316C46.623 58.357 46.4275 58.1041 46.2023 57.879C45.9556 57.644 45.6926 57.4267 45.4153 57.2288C44.847 56.8583 44.2232 56.5811 43.5675 56.4075C42.3475 56.0909 41.056 56.1995 39.9061 56.7154C39.1573 57.0524 38.4649 57.5026 37.8529 58.05C37.4765 58.3579 37.3396 58.392 37.3396 58.1528C37.4915 57.6236 37.7739 57.1411 38.1609 56.7495C38.9444 55.9122 39.9364 55.2981 41.0353 54.9701C42.6746 54.5418 44.4138 54.7243 45.9285 55.4835C46.3544 55.7213 46.7657 55.9842 47.1605 56.2706C47.5675 56.6165 47.9348 57.0066 48.2554 57.4339C48.4307 57.6921 48.5798 57.9672 48.7003 58.2551C48.7983 58.5884 48.8444 58.9347 48.8371 59.2819C48.8388 59.5814 48.8044 59.8801 48.7345 60.1714C48.666 60.411 48.6318 60.6506 48.5634 60.8903C48.428 61.4505 48.221 61.991 47.9475 62.4983C47.6391 63.154 47.1045 63.6765 46.4418 63.9698C45.8481 64.2266 45.2067 64.3549 44.5598 64.3463H42.9515C40.7707 64.2994 38.5969 64.0819 36.45 63.696C35.5552 63.5367 34.6743 63.3079 33.8151 63.0116C32.9607 62.722 32.2186 62.1715 31.6936 61.4378C31.2887 60.7949 31.0316 60.0703 30.9408 59.316C30.8309 58.7066 30.7851 58.0874 30.8039 57.4684C30.8206 56.469 30.9236 55.4729 31.1118 54.4913C31.2145 54.0806 31.283 53.7041 31.3856 53.3621C31.4883 53.0198 31.6251 52.4381 31.7278 52.0275L33.0281 52.2671L33.8493 52.404L35.2181 52.6091L36.4158 52.7805L37.1686 52.917L37.9214 53.0539C37.7503 53.6014 37.5108 54.2175 37.3054 54.765C37.1001 55.3125 36.8606 55.689 36.8264 55.3466C36.8382 55.0593 36.8725 54.7733 36.929 54.4913C36.9255 54.3986 36.9371 54.3064 36.9633 54.2175V54.0465C36.9915 53.9347 37.0031 53.8193 36.9975 53.7041H36.3473L34.9443 53.5673L33.4387 53.3963L32.7543 53.3276H32.549C32.4757 53.598 32.4185 53.8721 32.3779 54.1493C32.2753 54.6281 32.2068 55.107 32.1384 55.5863C32.0324 56.4031 32.0094 57.2286 32.07 58.05C32.0991 58.6173 32.1909 59.1796 32.3437 59.7266C32.4095 59.904 32.4896 60.0757 32.5833 60.24ZM1.06786 57.0919C1.06786 57.0919 0.99923 57.3656 0.82823 57.8449L0.554478 58.7003C0.497478 58.806 0.462604 58.9226 0.451729 59.0423C0.481354 59.0843 0.504227 59.1304 0.520352 59.1791L0.657228 59.316L0.862352 59.5556L1.3416 60.0004C1.74103 60.3059 2.17796 60.559 2.64173 60.7534C3.76114 61.2211 4.95432 61.4876 6.16635 61.5405C7.50098 61.6774 8.90385 61.7115 9.8961 61.164C10.8884 60.6165 11.5045 59.3505 11.3335 58.3238C11.2656 57.7884 10.9964 57.2989 10.5805 56.955C10.1241 56.5252 9.60491 56.1675 9.04073 55.8941C7.9116 55.3466 6.74798 55.1756 5.85848 55.5521C5.46323 55.6984 5.09348 55.9065 4.76348 56.1679C4.5411 56.3558 4.33486 56.5616 4.14736 56.784C3.87361 57.0919 3.73673 57.1605 3.7026 56.9209C3.71899 56.4044 3.91227 55.9091 4.2501 55.518C4.54689 55.1408 4.90562 54.8169 5.31098 54.5599C5.83868 54.2366 6.43803 54.0485 7.05585 54.0124C7.78335 53.9603 8.51385 54.0413 9.21173 54.2516C9.98853 54.4992 10.726 54.8564 11.4017 55.3125C11.7926 55.589 12.1388 55.9236 12.4285 56.3048C12.754 56.7232 12.9978 57.1993 13.147 57.708C13.4095 58.794 13.2636 59.9389 12.7364 60.9244C12.4644 61.4294 12.1183 61.8907 11.7096 62.2931L10.9911 62.8065C10.7429 62.9595 10.4792 63.0855 10.204 63.183C9.16373 63.5565 8.05148 63.6855 6.95348 63.5591C5.91473 63.5119 4.8831 63.363 3.8736 63.1144C2.8086 62.8365 1.80098 62.373 0.896478 61.7456C0.469653 61.4374 0.0793801 61.0815 -0.266773 60.6848C-0.462148 60.4759 -0.63427 60.2468 -0.780145 60.0004C-0.966145 59.6921 -1.04977 59.3329 -1.01977 58.974C-1.01296 58.6993 -0.942622 58.4299 -0.814272 58.1869C-0.749397 57.9874 -0.669146 57.7928 -0.574646 57.6053C-0.437771 57.2288 -0.266772 56.8868 -0.129897 56.5444C0.451728 55.1415 0.965105 53.9779 1.40986 52.9856C1.85461 51.9934 2.26523 51.138 2.57348 50.4191L3.12098 49.29L3.39473 48.7084L3.5316 48.4346V48.366H3.56573L3.7026 48.4346L5.27648 49.461C5.6384 49.684 5.98176 49.9359 6.30323 50.214L7.26135 51.0694L7.5351 51.3431L7.67198 51.5141L7.74023 51.5828H7.77473V51.651L7.56923 52.5068C7.29548 53.7041 7.1586 53.3963 7.1586 52.2671C7.1586 52.0961 7.12448 52.0616 7.12448 51.9593V51.8906H7.09035L6.9876 51.7879L6.8166 51.7196C6.75173 51.6439 6.6696 51.5854 6.57698 51.5486L6.0636 51.1721L4.90035 50.4191L4.5921 50.214L4.45523 50.1113H4.31835L4.0791 50.0085H4.01048L3.94223 50.1454L3.80536 50.4536L3.18923 51.8906C2.7786 52.8488 2.40211 53.7386 2.09423 54.5599C1.47848 55.9969 1.06786 57.0919 1.06786 57.0919ZM26.3553 19.1433C26.2032 19.338 26.0659 19.5439 25.9447 19.7593L25.842 19.8961C25.842 19.9303 25.842 19.9646 25.8762 19.9303H25.9447L26.1158 19.8619H26.2869L26.6975 19.7935L27.4845 19.6566C28.4622 19.5298 29.4529 19.5414 30.4273 19.6908C31.1459 19.8277 31.3855 19.9988 31.317 20.1356C31.2486 20.2725 30.838 20.3752 30.222 20.4778L27.8952 20.8543L26.458 21.1964H26.2869L25.9105 21.2991L25.0892 21.5728L23.4467 22.0861L23.5494 21.8808L23.6862 21.6071L23.9258 21.128L24.1653 20.6831L24.268 20.4436L24.4049 20.2041L24.8155 19.5539L24.9181 19.3828L24.9866 19.3144H25.0208L25.1577 19.1433L25.7052 18.5616C25.9937 18.2668 26.3024 17.9923 26.6291 17.7403C27.0416 17.4144 27.4761 17.1171 27.9294 16.8506C28.4348 16.5143 29.0337 16.3466 29.6403 16.3716C30.0167 16.3716 29.9483 16.5085 29.6403 16.6796C29.3324 16.8506 28.8533 17.0902 28.34 17.4324C27.8408 17.7551 27.3713 18.1215 26.937 18.5274L26.5264 18.9722L26.3553 19.1433ZM15.4739 21.8123L16.0555 21.9492L16.7399 22.1545L17.1846 22.3941C17.4005 22.4957 17.5884 22.6484 17.7321 22.8389L16.6716 23.2838C16.5888 23.0799 16.4855 22.885 16.3634 22.702C16.1774 22.4573 15.9714 22.2283 15.7476 22.0177C15.1796 21.5403 14.5855 21.0948 13.9682 20.6831L12.976 19.9988C12.6842 19.7701 12.3753 19.5641 12.052 19.3828C11.4017 18.9722 10.786 18.6642 10.204 18.3563C9.62235 18.0483 9.07486 17.6377 9.28036 17.5692C9.48548 17.5008 10.1357 17.535 11.0939 17.8088C11.6451 17.9581 12.183 18.1526 12.7022 18.3905L13.5917 18.9038L14.4471 19.4513C15.1136 19.8382 15.7436 20.2848 16.3292 20.7858C16.6494 21.072 16.9364 21.3934 17.1846 21.7439C17.486 22.1208 17.6863 22.5683 17.7666 23.0442L18.0745 25.0631L16.8085 23.4891C16.7991 23.4891 16.7905 23.4855 16.7841 23.4791C16.7777 23.4726 16.774 23.4639 16.774 23.4548C16.7076 23.3506 16.6127 23.2675 16.5002 23.2153L16.0896 22.9758L15.2342 22.6678L13.7627 22.2914C13.1595 22.1384 12.5342 22.0921 11.9151 22.1545L10.8884 22.2572L9.75923 22.3598C9.24585 22.4283 9.31448 22.2914 9.7251 22.0519C10.7763 21.5373 11.9459 21.3128 13.1129 21.4017L14.3102 21.5728C14.7024 21.6299 15.091 21.7099 15.4739 21.8123Z" fill="#1E1D1C"/>
<path d="M18.5193 28.28L18.793 28.4169L19.5119 28.7591C20.3393 29.0789 21.2284 29.2076 22.1125 29.1355C23.202 29.0085 24.2278 28.5553 25.0551 27.8351C25.8888 27.1451 26.6053 26.3247 27.1767 25.4056C27.7242 24.6186 27.9638 24.3448 28.0322 24.5501C28.1006 24.7554 27.998 25.4398 27.5873 26.398C27.3619 26.9565 27.0502 27.4761 26.6634 27.9378C26.2102 28.5432 25.6543 29.0643 25.0209 29.4776C24.2991 29.9561 23.4817 30.2714 22.6255 30.4016C21.7353 30.507 20.8327 30.4015 19.9908 30.0936C19.2898 29.8192 18.6236 29.4631 18.0059 29.0328C17.5656 28.7016 17.143 28.3475 16.7399 27.972C16.0896 27.3219 15.6794 26.8428 15.3711 26.5006C14.8544 25.9175 14.4485 25.2449 14.1734 24.5159C13.9683 24.0711 14.1393 24.1053 14.4816 24.4133L15.8845 25.9874C16.4108 26.5791 16.9829 27.1283 17.5956 27.6298C17.8889 27.8666 18.1974 28.0838 18.5193 28.28ZM23.4126 7.16701C23.4399 7.20715 23.4521 7.25562 23.4471 7.30389C23.4471 7.37233 23.4813 7.475 23.4813 7.64608C23.4561 7.99877 23.3752 8.34524 23.2416 8.67264C23.1645 8.83376 23.1181 9.00782 23.1048 9.18594C23.0676 9.30868 23.0676 9.43963 23.1048 9.56233H23.2075C23.2758 9.59656 23.4471 9.52813 23.6523 9.42545L23.9945 9.18594L24.4736 8.94639C24.6773 8.84221 24.8971 8.77281 25.1237 8.74108C25.4016 8.69195 25.6878 8.72773 25.945 8.84375L26.3214 9.1175L26.4925 9.28858L26.5951 9.49389C26.6715 9.61853 26.7183 9.75899 26.732 9.90451C26.732 10.0414 26.7662 10.1783 26.7662 10.2809C26.7308 10.6401 26.6621 10.9952 26.5609 11.3417C26.4932 11.54 26.4585 11.7481 26.4582 11.9576C26.4582 12.0261 26.4582 11.9919 26.4925 12.0261L26.5951 12.0945C26.8465 12.1143 27.0994 12.1029 27.3479 12.0603C27.6728 12.0501 27.997 12.0964 28.3061 12.1972C28.7118 12.2954 29.0804 12.5094 29.3669 12.8131C29.5037 12.9842 29.5037 13.0526 29.4011 13.0869C29.2984 13.1211 28.4772 12.8131 27.5532 12.9842L26.732 13.1553C26.5131 13.1632 26.2943 13.1402 26.0819 13.0869C25.8276 12.9849 25.612 12.8053 25.4659 12.5736C25.3199 12.3505 25.2481 12.0871 25.2606 11.8208C25.254 11.6035 25.2655 11.386 25.2948 11.1706C25.3815 10.8585 25.4275 10.5364 25.4317 10.2125C25.4368 10.1643 25.4247 10.1158 25.3975 10.0756H25.3632C25.1057 10.1296 24.8614 10.2343 24.6447 10.3836C24.4455 10.5198 24.2261 10.6238 23.9945 10.6916C23.7187 10.8275 23.4113 10.8866 23.1048 10.8626C22.9138 10.8375 22.7286 10.7796 22.5573 10.6916C22.3961 10.5814 22.2569 10.4421 22.1466 10.2809C22.0432 10.126 21.9733 9.95118 21.9415 9.76764V9.32281C21.9689 9.07343 22.0382 8.83046 22.1466 8.6042C22.178 8.49578 22.224 8.39217 22.2835 8.29625L22.3863 8.09094C22.5108 7.86028 22.57 7.59996 22.5573 7.33813C22.5231 7.16701 22.4204 7.09858 22.2153 7.03014C22.0184 7.00141 21.8178 7.025 21.6333 7.09858C21.2418 7.22909 20.8417 7.332 20.4359 7.40656C20.1021 7.47605 19.7556 7.4402 19.4433 7.30389C19.213 7.17638 19.0233 6.98665 18.8958 6.75639C18.8185 6.58899 18.7503 6.41765 18.6906 6.24313C18.6655 6.0893 18.6194 5.93963 18.5538 5.79826C18.5121 5.70277 18.4511 5.61698 18.3745 5.5463C18.2979 5.47573 18.2075 5.42172 18.109 5.38764C17.8353 5.285 17.6984 5.38764 17.6984 5.3192C17.6984 5.25076 17.7325 5.25076 17.8353 5.18233C17.8951 5.14281 17.9625 5.11634 18.0333 5.10463C18.104 5.09286 18.1764 5.09602 18.2459 5.11389C18.4367 5.11478 18.6201 5.18817 18.7589 5.3192L18.9985 5.55875L19.1013 5.69563L19.204 5.8325C19.2807 6.01097 19.3723 6.18267 19.4778 6.34576C19.5197 6.47291 19.6042 6.5817 19.717 6.65375C20.0226 6.74848 20.3527 6.72403 20.641 6.58531C21.0444 6.404 21.4701 6.27741 21.907 6.20889C22.1488 6.18035 22.3939 6.20368 22.6259 6.27733C22.8379 6.35336 23.0265 6.48306 23.1734 6.65375C23.3031 6.7968 23.3865 6.97572 23.4126 7.16701ZM8.25401 7.20125L8.45914 7.26969C8.66636 7.35476 8.85302 7.4831 9.00664 7.64611C9.20352 7.89074 9.32276 8.18865 9.34902 8.50156C9.40694 8.79437 9.42985 9.09303 9.41726 9.39125C9.4199 9.66804 9.45438 9.9436 9.52001 10.2125C9.52001 10.2467 9.52002 10.2467 9.55414 10.2467H9.62276L9.72514 10.1783L9.99889 10.0414L10.5123 9.73344L10.5809 9.665L10.7178 9.59656L10.9915 9.49393C11.1675 9.43305 11.3568 9.42122 11.539 9.45969C11.7073 9.48624 11.8666 9.55298 12.0036 9.65425C12.1406 9.75553 12.2511 9.88834 12.3258 10.0414C12.4322 10.1789 12.4923 10.3467 12.4971 10.5205C12.5231 10.6093 12.5346 10.7018 12.5313 10.7942V11.0338C12.5108 11.2073 12.4764 11.379 12.4285 11.5471C12.4229 11.6396 12.4345 11.7324 12.4626 11.8208C12.5362 12.0462 12.6524 12.2553 12.805 12.4367C13.002 12.612 13.2205 12.7615 13.4553 12.8816C14.0028 13.1553 14.3448 13.3264 14.3789 13.4633C14.4134 13.6002 14.1738 13.6344 13.729 13.6344C13.4385 13.6317 13.1501 13.5856 12.8733 13.4975C12.4718 13.3711 12.1075 13.1478 11.8128 12.8474C11.6298 12.6437 11.4797 12.4128 11.3676 12.163L11.2653 11.7524C11.2308 11.5945 11.2308 11.4311 11.2653 11.2733V10.8284H11.1966L10.7519 11.068L10.3071 11.3417L9.86201 11.5813L9.38314 11.855L8.93839 12.0603H8.83564V11.9577L8.73289 11.6839C8.59839 11.3606 8.48417 11.0291 8.39089 10.6916V9.97299C8.37364 9.75658 8.37364 9.53919 8.39089 9.32281C8.4341 9.03983 8.44555 8.75289 8.42502 8.46736C8.41327 8.37714 8.37413 8.2927 8.31289 8.22541C8.25173 8.15806 8.17136 8.11111 8.08264 8.09094C7.92335 8.05216 7.75592 8.06413 7.60377 8.12518L7.46689 8.19361L7.22727 8.33049L6.85077 8.60424H6.74839L6.61152 8.5358L6.37189 8.33049C6.25866 8.18978 6.17695 8.02642 6.13227 7.85143C6.09814 7.74875 6.09814 7.68031 6.06402 7.57768C6.02952 7.475 6.02952 7.4408 6.02952 7.37236C6.03514 7.26853 6.02352 7.1645 5.99539 7.06438C6.01929 6.77983 5.95987 6.49449 5.82439 6.24313C5.78023 6.17314 5.71992 6.11478 5.64852 6.07295C5.57699 6.03128 5.49646 6.00749 5.41376 6.00361C5.13964 6.0011 4.86552 6.01254 4.59252 6.03781C4.42152 6.00361 4.31877 5.93518 4.31877 5.90094C4.31877 5.86674 4.31876 5.8325 4.38701 5.7983L4.69527 5.66143L5.31102 5.45611C5.51365 5.4181 5.72283 5.43625 5.91589 5.50861C6.10893 5.58094 6.27846 5.7048 6.40602 5.86674C6.59207 6.16563 6.69809 6.50735 6.71389 6.85906L6.78251 7.30393C6.80723 7.35746 6.81892 7.41608 6.81664 7.475C6.85077 7.50924 6.85076 7.54344 6.88526 7.54344C6.91939 7.54344 6.95352 7.61188 6.95352 7.54344H7.12451L7.63789 7.37236C7.78204 7.32956 7.93364 7.31789 8.08264 7.33813L8.25401 7.20125ZM16.7058 7.20125L16.9454 7.26969C17.148 7.36299 17.3332 7.49029 17.4929 7.64608C17.676 7.8985 17.7935 8.19247 17.8349 8.50156C17.8929 8.79436 17.916 9.09302 17.9035 9.39125C17.906 9.66805 17.9404 9.94363 18.0063 10.2125H18.1086L18.2114 10.1441L18.4851 10.0072L18.9985 9.6992L19.0668 9.63076L19.2036 9.56233L19.4774 9.45969C19.6534 9.39885 19.8427 9.38702 20.0249 9.42545C20.1914 9.45718 20.3485 9.52595 20.485 9.62664C20.6212 9.72737 20.7329 9.85743 20.812 10.0072C20.9039 10.1523 20.962 10.3159 20.983 10.4863C21.0093 10.575 21.0209 10.6675 21.0175 10.76C21.0175 10.8626 21.0175 10.9653 20.983 10.9995C20.9699 11.1718 20.947 11.3431 20.9148 11.5128C20.9091 11.6054 20.9208 11.6982 20.9489 11.7866C21.0088 12.0176 21.1267 12.2296 21.2913 12.4025C21.4821 12.5698 21.6883 12.7187 21.907 12.8473C22.4886 13.1211 22.831 13.2922 22.8651 13.4291C22.8993 13.5659 22.66 13.6001 22.2149 13.6001C21.9245 13.5975 21.6362 13.5513 21.3595 13.4633C20.9579 13.3368 20.5936 13.1135 20.2986 12.8131C20.1047 12.6182 19.9533 12.3852 19.8539 12.1288C19.804 11.9963 19.7695 11.8585 19.7511 11.7181C19.7241 11.56 19.7125 11.3995 19.717 11.2391C19.7454 11.1273 19.7569 11.012 19.7511 10.8969V10.8284H19.6829L19.2381 11.068L18.793 11.3417L18.3483 11.5813L17.8694 11.855L17.4243 12.0603H17.3219V11.9576L17.2191 11.6839C17.0695 11.3664 16.9547 11.0337 16.8768 10.6916V10.2809C16.8824 10.1771 16.8708 10.0731 16.8426 9.97295C16.8371 9.75568 16.8485 9.53831 16.8768 9.32281C16.9203 9.03985 16.9319 8.75288 16.9113 8.46733C16.9079 8.38906 16.8839 8.31305 16.8419 8.24694C16.7999 8.18086 16.7411 8.12705 16.6716 8.09094C16.5122 8.05217 16.3447 8.06412 16.1924 8.12514L16.0555 8.19358L15.8163 8.33045L15.4398 8.6042H15.337L15.2001 8.53576L14.9605 8.33045C14.8475 8.18964 14.766 8.0263 14.7213 7.85139C14.6826 7.76483 14.6594 7.67219 14.6526 7.57764C14.6526 7.5092 14.6185 7.44076 14.6185 7.37233C14.6238 7.26853 14.6125 7.1645 14.5844 7.06438C14.591 6.78111 14.5324 6.50011 14.413 6.24313C14.367 6.17484 14.3062 6.11782 14.2351 6.07634C14.164 6.03486 14.0845 6.00998 14.0024 6.00358C13.7283 6.0005 13.4541 6.0119 13.1811 6.03781C13.0101 6.00358 12.9074 5.93514 12.9074 5.90094C12.9074 5.8667 12.9074 5.8325 12.976 5.79826L13.2839 5.66139L13.9 5.45608C14.0823 5.41764 14.2713 5.42945 14.4475 5.49031C14.5537 5.51577 14.6538 5.56217 14.7419 5.62678C14.8301 5.69132 14.9044 5.7729 14.9605 5.8667C15.17 6.15649 15.2891 6.50175 15.3029 6.85906L15.3711 7.30389C15.3711 7.40656 15.4056 7.40656 15.4056 7.475L15.4739 7.54344C15.4739 7.57764 15.508 7.61188 15.5425 7.54344H15.6108L16.1241 7.37233C16.2681 7.32846 16.4199 7.31679 16.5689 7.33813L16.7058 7.20125Z" fill="#1E1D1C"/>
<path d="M13.1811 7.78278H13.7631C13.9664 7.80073 14.1641 7.85889 14.3447 7.95389C14.6005 8.08006 14.7969 8.30104 14.8922 8.56983C14.9833 8.78645 15.0299 9.01921 15.0291 9.25421C15.0632 9.49372 15.0291 9.66483 15.0632 9.83591C15.0577 10.0304 15.0691 10.2251 15.0973 10.4176C15.1033 10.6132 15.1263 10.8078 15.166 10.9993C15.166 11.102 15.2001 11.2047 15.2001 11.3073C15.2001 11.41 15.2342 11.5126 15.2687 11.6153C15.298 11.7621 15.3561 11.9017 15.4397 12.0259C15.508 12.1628 15.5425 12.1628 15.5766 12.1628C15.6107 12.1628 15.6793 12.197 15.8845 12.1286C16.1654 12.0688 16.453 12.0458 16.7398 12.0601C17.2716 12.1226 17.7665 12.3639 18.1431 12.7445C18.3704 12.9629 18.5154 13.2529 18.5537 13.5658C18.5537 13.7711 18.4851 13.8053 18.4168 13.7711C18.3482 13.7368 17.8693 13.292 17.2532 13.1551C16.9461 13.0754 16.6212 13.0994 16.3292 13.2236C16.032 13.371 15.7026 13.4416 15.3711 13.4289C15.1384 13.3819 14.9174 13.2888 14.7212 13.1551C14.5663 13.0246 14.4284 12.8751 14.3106 12.7103C14.1314 12.4024 14.0042 12.0672 13.9341 11.718C13.8662 11.4147 13.8317 11.1048 13.8313 10.794C13.8028 10.4869 13.7916 10.1785 13.7972 9.87014C13.8313 9.52796 13.8655 9.25421 13.8655 9.08309V8.87778C13.8313 8.84358 13.8313 8.80934 13.7972 8.80934C13.6108 8.74374 13.4121 8.72037 13.2156 8.74091C12.9603 8.7573 12.7042 8.7224 12.4626 8.63827C12.2536 8.57337 12.065 8.45548 11.9151 8.29608C11.6983 8.05367 11.5247 7.7759 11.4017 7.47483C11.3214 7.26491 11.2641 7.04692 11.2307 6.82466C11.2288 6.58162 11.1943 6.33989 11.128 6.10608C11.116 6.02861 11.0803 5.95683 11.0256 5.90077C10.9695 5.8538 10.9018 5.82269 10.8296 5.81066C10.7574 5.79862 10.6833 5.80611 10.615 5.83233C10.5122 5.83233 10.4781 5.93497 10.4436 5.96921C10.4095 6.00341 10.3753 6.03764 10.3412 6.00341C10.3176 5.94948 10.306 5.89117 10.3067 5.83233C10.3168 5.76926 10.3405 5.70911 10.3761 5.65597C10.4114 5.60278 10.4579 5.55788 10.5122 5.52434C10.6528 5.42806 10.8209 5.38003 10.9911 5.38747C11.1023 5.38728 11.2122 5.41173 11.3128 5.45906C11.4134 5.50639 11.5023 5.57543 11.5731 5.66122C11.7104 5.80348 11.8052 5.98126 11.8468 6.17452C11.8911 6.34344 11.9252 6.51482 11.9492 6.68778C11.9665 6.90794 12.0339 7.12121 12.1465 7.31122C12.2592 7.50112 12.4142 7.66248 12.5995 7.78278C12.717 7.83767 12.8467 7.86124 12.976 7.85122L13.1811 7.78278ZM2.09422 37.382L1.1706 36.7318L0.657218 36.3555C0.537971 36.2575 0.43418 36.1422 0.349345 36.0133C0.245539 35.846 0.175709 35.66 0.143846 35.4658C0.0928149 35.084 0.177635 34.6964 0.383471 34.3708C0.525746 34.074 0.723117 33.8069 0.965092 33.5838C1.85485 32.7681 2.81694 32.0351 3.83947 31.3938C4.83172 30.7436 5.75572 30.1619 6.50872 29.6144C6.75508 29.41 7.01826 29.2269 7.29547 29.0669C7.46684 28.9984 7.53509 28.9984 7.53509 29.1011C7.53509 29.2038 7.26134 29.9223 6.57697 30.6409C5.7235 31.5071 4.79611 32.2971 3.80535 33.002C3.22385 33.4055 2.66418 33.8395 2.12872 34.3023C1.87711 34.4929 1.64757 34.711 1.44434 34.9525L1.30747 35.2263C1.30222 35.2964 1.31422 35.3668 1.34159 35.4316C1.37572 35.6026 1.75222 35.8764 1.99184 36.0817L2.67622 36.6976C3.12097 37.074 3.49747 37.4162 3.83947 37.6558C4.32152 38.0367 4.82415 38.3909 5.34509 38.7166C5.97782 39.077 6.56395 39.5137 7.09034 40.0168C7.80884 40.667 6.50872 40.1536 5.03722 39.3665C4.33972 38.9728 3.66547 38.5385 3.01822 38.0664L2.09422 37.382ZM40.0429 36.7319C40.0767 36.6458 40.1228 36.5652 40.1797 36.4923C40.3234 36.2987 40.4493 36.0925 40.5562 35.8764C40.6763 35.6326 40.7124 35.3559 40.6588 35.0894C40.525 34.721 40.3016 34.3917 40.0087 34.1313C39.6665 33.8233 39.1874 33.4811 38.7768 33.1047L37.408 32.0097L34.9443 30.025C34.2257 29.4433 34.0204 29.1353 34.2257 29.1011C34.431 29.0669 35.0469 29.238 35.9024 29.6486C36.9699 30.2001 37.9887 30.8411 38.9479 31.5648C39.5398 31.9916 40.1001 32.4605 40.6246 32.9678C40.9506 33.2517 41.228 33.5869 41.4459 33.9601C41.7178 34.3746 41.8387 34.87 41.788 35.3631C41.7409 35.7986 41.5752 36.2129 41.309 36.5608C41.1205 36.8358 40.9147 37.0987 40.693 37.3478C40.3119 37.7034 39.8996 38.0241 39.4612 38.306C38.9353 38.6518 38.373 38.9386 37.7844 39.1614C37.1086 39.4243 36.3879 39.5522 35.6629 39.5379C35.1838 39.5379 35.2522 39.401 35.6629 39.23L37.4422 38.5111C38.1192 38.2389 38.7531 37.8702 39.3243 37.4163C39.5782 37.2037 39.8182 36.9751 40.0429 36.7319ZM33.4044 38.7849C33.4044 38.7849 33.644 39.4693 34.0204 40.3246C34.398 41.1963 34.8323 42.0422 35.3207 42.857C35.526 43.199 35.5602 43.3363 35.4576 43.3363C35.3549 43.3363 35.1154 43.2335 34.8074 42.9256C34.0108 42.013 33.4473 40.921 33.1649 39.743C32.857 38.4429 32.7885 37.8268 32.7201 37.4162C32.6931 37.2696 32.6816 37.1205 32.6859 36.9714C32.6902 36.8067 32.725 36.6443 32.7885 36.4923C32.9254 36.0817 32.9596 36.6634 33.0622 37.3478C33.1649 38.0323 33.4044 38.7849 33.4044 38.7849ZM8.76697 41.4541C8.76697 41.4541 9.07522 41.009 9.45134 40.3591C9.82697 39.7153 10.1697 39.0528 10.4781 38.3743C10.7518 37.7926 10.8887 38.0323 10.8201 38.7166C10.6344 39.6527 10.2101 40.5248 9.58822 41.2486L8.25397 42.5833C8.09272 42.7768 7.87859 42.9196 7.63784 42.9939C7.29584 43.0966 7.63785 42.7543 8.01435 42.3436L8.52772 41.762L8.76697 41.4541Z" fill="#1E1D1C"/>
</svg>
