<svg width="1400" height="486" viewBox="0 0 1400 486" fill="none" xmlns="http://www.w3.org/2000/svg">
<g clip-path="url(#clip0_3651_68190)">
<rect width="1400" height="486" fill="#5158F6"/>
<path d="M185.342 270V235H174.534V228.28H203.654V235H193.014V270H185.342ZM216.307 270.672C213.955 270.672 211.902 270.149 210.147 269.104C208.43 268.059 207.105 266.603 206.171 264.736C205.275 262.869 204.827 260.685 204.827 258.184V239.536H212.163V257.568C212.163 258.837 212.406 259.957 212.891 260.928C213.414 261.861 214.142 262.608 215.075 263.168C216.046 263.691 217.129 263.952 218.323 263.952C219.518 263.952 220.582 263.691 221.515 263.168C222.449 262.608 223.177 261.843 223.699 260.872C224.222 259.901 224.483 258.744 224.483 257.4V239.536H231.819V270H224.875V264.008L225.491 265.072C224.782 266.939 223.606 268.339 221.963 269.272C220.358 270.205 218.473 270.672 216.307 270.672ZM257.832 270.672C255.704 270.672 253.856 270.317 252.288 269.608C250.72 268.899 249.506 267.891 248.648 266.584C247.789 265.24 247.36 263.691 247.36 261.936C247.36 260.256 247.733 258.763 248.48 257.456C249.226 256.112 250.384 254.992 251.952 254.096C253.52 253.2 255.498 252.565 257.888 252.192L267.856 250.568V256.168L259.288 257.624C257.832 257.885 256.749 258.352 256.04 259.024C255.33 259.696 254.976 260.573 254.976 261.656C254.976 262.701 255.368 263.541 256.152 264.176C256.973 264.773 257.981 265.072 259.176 265.072C260.706 265.072 262.05 264.755 263.208 264.12C264.402 263.448 265.317 262.533 265.952 261.376C266.624 260.219 266.96 258.949 266.96 257.568V249.728C266.96 248.421 266.437 247.339 265.392 246.48C264.384 245.584 263.04 245.136 261.36 245.136C259.792 245.136 258.392 245.565 257.16 246.424C255.965 247.245 255.088 248.347 254.528 249.728L248.536 246.816C249.133 245.211 250.066 243.829 251.336 242.672C252.642 241.477 254.173 240.544 255.928 239.872C257.682 239.2 259.586 238.864 261.64 238.864C264.141 238.864 266.344 239.331 268.248 240.264C270.152 241.16 271.626 242.429 272.672 244.072C273.754 245.677 274.296 247.563 274.296 249.728V270H267.352V264.792L268.92 264.68C268.136 265.987 267.202 267.088 266.12 267.984C265.037 268.843 263.805 269.515 262.424 270C261.042 270.448 259.512 270.672 257.832 270.672ZM295.86 282.32C293.583 282.32 291.473 281.947 289.532 281.2C287.591 280.453 285.911 279.408 284.492 278.064C283.111 276.757 282.103 275.208 281.468 273.416L288.3 270.84C288.748 272.259 289.625 273.397 290.932 274.256C292.276 275.152 293.919 275.6 295.86 275.6C297.353 275.6 298.66 275.32 299.78 274.76C300.937 274.2 301.833 273.379 302.468 272.296C303.103 271.251 303.42 269.981 303.42 268.488V261.544L304.82 263.224C303.775 265.053 302.375 266.435 300.62 267.368C298.865 268.301 296.868 268.768 294.628 268.768C291.791 268.768 289.252 268.115 287.012 266.808C284.772 265.501 283.017 263.709 281.748 261.432C280.479 259.155 279.844 256.597 279.844 253.76C279.844 250.885 280.479 248.328 281.748 246.088C283.017 243.848 284.753 242.093 286.956 240.824C289.159 239.517 291.66 238.864 294.46 238.864C296.737 238.864 298.735 239.349 300.452 240.32C302.207 241.253 303.663 242.616 304.82 244.408L303.812 246.256V239.536H310.756V268.488C310.756 271.139 310.103 273.509 308.796 275.6C307.527 277.691 305.772 279.333 303.532 280.528C301.329 281.723 298.772 282.32 295.86 282.32ZM295.524 261.992C297.092 261.992 298.455 261.656 299.612 260.984C300.807 260.275 301.74 259.304 302.412 258.072C303.084 256.84 303.42 255.421 303.42 253.816C303.42 252.248 303.065 250.848 302.356 249.616C301.684 248.347 300.751 247.357 299.556 246.648C298.399 245.939 297.055 245.584 295.524 245.584C293.993 245.584 292.612 245.939 291.38 246.648C290.148 247.357 289.177 248.347 288.468 249.616C287.796 250.848 287.46 252.248 287.46 253.816C287.46 255.384 287.796 256.784 288.468 258.016C289.177 259.248 290.129 260.219 291.324 260.928C292.556 261.637 293.956 261.992 295.524 261.992ZM332.055 270.672C328.919 270.672 326.175 269.963 323.823 268.544C321.471 267.125 319.642 265.203 318.335 262.776C317.029 260.349 316.375 257.661 316.375 254.712C316.375 251.651 317.029 248.944 318.335 246.592C319.679 244.203 321.49 242.317 323.767 240.936C326.082 239.555 328.658 238.864 331.495 238.864C333.885 238.864 335.975 239.256 337.767 240.04C339.597 240.824 341.146 241.907 342.415 243.288C343.685 244.669 344.655 246.256 345.327 248.048C345.999 249.803 346.335 251.707 346.335 253.76C346.335 254.283 346.298 254.824 346.223 255.384C346.186 255.944 346.093 256.429 345.943 256.84H322.423V251.24H341.799L338.327 253.872C338.663 252.155 338.57 250.624 338.047 249.28C337.562 247.936 336.741 246.872 335.583 246.088C334.463 245.304 333.101 244.912 331.495 244.912C329.965 244.912 328.602 245.304 327.407 246.088C326.213 246.835 325.298 247.955 324.663 249.448C324.066 250.904 323.842 252.677 323.991 254.768C323.842 256.635 324.085 258.296 324.719 259.752C325.391 261.171 326.362 262.272 327.631 263.056C328.938 263.84 330.431 264.232 332.111 264.232C333.791 264.232 335.21 263.877 336.367 263.168C337.562 262.459 338.495 261.507 339.167 260.312L345.103 263.224C344.506 264.68 343.573 265.968 342.303 267.088C341.034 268.208 339.522 269.085 337.767 269.72C336.05 270.355 334.146 270.672 332.055 270.672ZM351.896 270V239.536H358.784V245.528L358.224 244.464C358.934 242.635 360.091 241.253 361.696 240.32C363.339 239.349 365.243 238.864 367.408 238.864C369.648 238.864 371.627 239.349 373.344 240.32C375.099 241.291 376.462 242.653 377.432 244.408C378.403 246.125 378.888 248.123 378.888 250.4V270H371.552V252.136C371.552 250.792 371.291 249.635 370.768 248.664C370.246 247.693 369.518 246.947 368.584 246.424C367.688 245.864 366.624 245.584 365.392 245.584C364.198 245.584 363.134 245.864 362.2 246.424C361.267 246.947 360.539 247.693 360.016 248.664C359.494 249.635 359.232 250.792 359.232 252.136V270H351.896ZM399.26 270.672C396.31 270.672 393.678 269.981 391.364 268.6C389.049 267.181 387.22 265.259 385.876 262.832C384.532 260.405 383.86 257.717 383.86 254.768C383.86 251.781 384.532 249.093 385.876 246.704C387.22 244.315 389.049 242.411 391.364 240.992C393.716 239.573 396.329 238.864 399.204 238.864C401.518 238.864 403.572 239.331 405.364 240.264C407.193 241.16 408.63 242.429 409.676 244.072L408.556 245.584V227.608H415.892V270H408.948V264.12L409.732 265.576C408.686 267.219 407.23 268.488 405.364 269.384C403.497 270.243 401.462 270.672 399.26 270.672ZM400.044 263.952C401.724 263.952 403.198 263.56 404.468 262.776C405.737 261.992 406.726 260.909 407.436 259.528C408.182 258.147 408.556 256.56 408.556 254.768C408.556 253.013 408.182 251.445 407.436 250.064C406.726 248.645 405.737 247.544 404.468 246.76C403.198 245.976 401.724 245.584 400.044 245.584C398.401 245.584 396.926 245.995 395.62 246.816C394.313 247.6 393.286 248.683 392.54 250.064C391.83 251.408 391.476 252.976 391.476 254.768C391.476 256.56 391.83 258.147 392.54 259.528C393.286 260.909 394.313 261.992 395.62 262.776C396.926 263.56 398.401 263.952 400.044 263.952ZM431.957 270.672C429.829 270.672 427.981 270.317 426.413 269.608C424.845 268.899 423.631 267.891 422.773 266.584C421.914 265.24 421.485 263.691 421.485 261.936C421.485 260.256 421.858 258.763 422.605 257.456C423.351 256.112 424.509 254.992 426.077 254.096C427.645 253.2 429.623 252.565 432.013 252.192L441.981 250.568V256.168L433.413 257.624C431.957 257.885 430.874 258.352 430.165 259.024C429.455 259.696 429.101 260.573 429.101 261.656C429.101 262.701 429.493 263.541 430.277 264.176C431.098 264.773 432.106 265.072 433.301 265.072C434.831 265.072 436.175 264.755 437.333 264.12C438.527 263.448 439.442 262.533 440.077 261.376C440.749 260.219 441.085 258.949 441.085 257.568V249.728C441.085 248.421 440.562 247.339 439.517 246.48C438.509 245.584 437.165 245.136 435.485 245.136C433.917 245.136 432.517 245.565 431.285 246.424C430.09 247.245 429.213 248.347 428.653 249.728L422.661 246.816C423.258 245.211 424.191 243.829 425.461 242.672C426.767 241.477 428.298 240.544 430.053 239.872C431.807 239.2 433.711 238.864 435.765 238.864C438.266 238.864 440.469 239.331 442.373 240.264C444.277 241.16 445.751 242.429 446.797 244.072C447.879 245.677 448.421 247.563 448.421 249.728V270H441.477V264.792L443.045 264.68C442.261 265.987 441.327 267.088 440.245 267.984C439.162 268.843 437.93 269.515 436.549 270C435.167 270.448 433.637 270.672 431.957 270.672ZM458.673 270V262.16H466.065V270H458.673ZM563.998 270V235H553.19V228.28H582.31V235H571.67V270H563.998ZM594.964 270.672C592.612 270.672 590.558 270.149 588.804 269.104C587.086 268.059 585.761 266.603 584.828 264.736C583.932 262.869 583.484 260.685 583.484 258.184V239.536H590.82V257.568C590.82 258.837 591.062 259.957 591.548 260.928C592.07 261.861 592.798 262.608 593.732 263.168C594.702 263.691 595.785 263.952 596.98 263.952C598.174 263.952 599.238 263.691 600.172 263.168C601.105 262.608 601.833 261.843 602.356 260.872C602.878 259.901 603.14 258.744 603.14 257.4V239.536H610.476V270H603.532V264.008L604.148 265.072C603.438 266.939 602.262 268.339 600.62 269.272C599.014 270.205 597.129 270.672 594.964 270.672ZM628.887 270.672C625.639 270.672 622.802 269.907 620.375 268.376C617.986 266.808 616.343 264.699 615.447 262.048L620.935 259.416C621.719 261.133 622.802 262.477 624.183 263.448C625.602 264.419 627.17 264.904 628.887 264.904C630.231 264.904 631.295 264.605 632.079 264.008C632.863 263.411 633.255 262.627 633.255 261.656C633.255 261.059 633.087 260.573 632.751 260.2C632.452 259.789 632.023 259.453 631.463 259.192C630.94 258.893 630.362 258.651 629.727 258.464L624.743 257.064C622.167 256.317 620.207 255.179 618.863 253.648C617.556 252.117 616.903 250.307 616.903 248.216C616.903 246.349 617.37 244.725 618.303 243.344C619.274 241.925 620.599 240.824 622.279 240.04C623.996 239.256 625.956 238.864 628.159 238.864C631.034 238.864 633.572 239.555 635.775 240.936C637.978 242.317 639.546 244.259 640.479 246.76L634.879 249.392C634.356 248.011 633.479 246.909 632.247 246.088C631.015 245.267 629.634 244.856 628.103 244.856C626.871 244.856 625.9 245.136 625.191 245.696C624.482 246.256 624.127 246.984 624.127 247.88C624.127 248.44 624.276 248.925 624.575 249.336C624.874 249.747 625.284 250.083 625.807 250.344C626.367 250.605 627.002 250.848 627.711 251.072L632.583 252.528C635.084 253.275 637.007 254.395 638.351 255.888C639.732 257.381 640.423 259.211 640.423 261.376C640.423 263.205 639.938 264.829 638.967 266.248C637.996 267.629 636.652 268.712 634.935 269.496C633.218 270.28 631.202 270.672 628.887 270.672ZM670.686 270.672C667.662 270.672 664.936 269.981 662.51 268.6C660.12 267.181 658.235 265.277 656.854 262.888C655.472 260.461 654.782 257.736 654.782 254.712C654.782 251.688 655.472 248.981 656.854 246.592C658.235 244.203 660.12 242.317 662.51 240.936C664.936 239.555 667.662 238.864 670.686 238.864C672.851 238.864 674.867 239.256 676.734 240.04C678.6 240.787 680.206 241.832 681.55 243.176C682.931 244.483 683.92 246.051 684.518 247.88L678.078 250.68C677.518 249.149 676.566 247.917 675.222 246.984C673.915 246.051 672.403 245.584 670.686 245.584C669.08 245.584 667.643 245.976 666.374 246.76C665.142 247.544 664.171 248.627 663.462 250.008C662.752 251.389 662.398 252.976 662.398 254.768C662.398 256.56 662.752 258.147 663.462 259.528C664.171 260.909 665.142 261.992 666.374 262.776C667.643 263.56 669.08 263.952 670.686 263.952C672.44 263.952 673.971 263.485 675.278 262.552C676.584 261.619 677.518 260.368 678.078 258.8L684.518 261.712C683.92 263.429 682.95 264.979 681.606 266.36C680.262 267.704 678.656 268.768 676.79 269.552C674.923 270.299 672.888 270.672 670.686 270.672ZM690.084 270V227.608H697.42V270H690.084ZM704.193 270V239.536H711.529V270H704.193ZM704.193 236.12V228.28H711.529V236.12H704.193ZM732.751 270.672C729.615 270.672 726.871 269.963 724.519 268.544C722.167 267.125 720.337 265.203 719.031 262.776C717.724 260.349 717.071 257.661 717.071 254.712C717.071 251.651 717.724 248.944 719.031 246.592C720.375 244.203 722.185 242.317 724.463 240.936C726.777 239.555 729.353 238.864 732.191 238.864C734.58 238.864 736.671 239.256 738.463 240.04C740.292 240.824 741.841 241.907 743.111 243.288C744.38 244.669 745.351 246.256 746.023 248.048C746.695 249.803 747.031 251.707 747.031 253.76C747.031 254.283 746.993 254.824 746.919 255.384C746.881 255.944 746.788 256.429 746.639 256.84H723.119V251.24H742.495L739.023 253.872C739.359 252.155 739.265 250.624 738.743 249.28C738.257 247.936 737.436 246.872 736.279 246.088C735.159 245.304 733.796 244.912 732.191 244.912C730.66 244.912 729.297 245.304 728.103 246.088C726.908 246.835 725.993 247.955 725.359 249.448C724.761 250.904 724.537 252.677 724.687 254.768C724.537 256.635 724.78 258.296 725.415 259.752C726.087 261.171 727.057 262.272 728.327 263.056C729.633 263.84 731.127 264.232 732.807 264.232C734.487 264.232 735.905 263.877 737.063 263.168C738.257 262.459 739.191 261.507 739.863 260.312L745.799 263.224C745.201 264.68 744.268 265.968 742.999 267.088C741.729 268.208 740.217 269.085 738.463 269.72C736.745 270.355 734.841 270.672 732.751 270.672ZM752.592 270V239.536H759.48V245.528L758.92 244.464C759.629 242.635 760.786 241.253 762.392 240.32C764.034 239.349 765.938 238.864 768.104 238.864C770.344 238.864 772.322 239.349 774.04 240.32C775.794 241.291 777.157 242.653 778.128 244.408C779.098 246.125 779.584 248.123 779.584 250.4V270H772.248V252.136C772.248 250.792 771.986 249.635 771.464 248.664C770.941 247.693 770.213 246.947 769.28 246.424C768.384 245.864 767.32 245.584 766.088 245.584C764.893 245.584 763.829 245.864 762.896 246.424C761.962 246.947 761.234 247.693 760.712 248.664C760.189 249.635 759.928 250.792 759.928 252.136V270H752.592ZM799.675 270.336C796.24 270.336 793.571 269.403 791.667 267.536C789.8 265.632 788.867 262.963 788.867 259.528V246.088H783.603V239.536H784.163C785.656 239.536 786.814 239.144 787.635 238.36C788.456 237.576 788.867 236.437 788.867 234.944V232.592H796.203V239.536H803.203V246.088H796.203V259.136C796.203 260.144 796.371 261.003 796.707 261.712C797.08 262.421 797.64 262.963 798.387 263.336C799.171 263.709 800.16 263.896 801.355 263.896C801.616 263.896 801.915 263.877 802.251 263.84C802.624 263.803 802.979 263.765 803.315 263.728V270C802.792 270.075 802.195 270.149 801.523 270.224C800.851 270.299 800.235 270.336 799.675 270.336ZM823.094 270.672C819.958 270.672 817.214 269.963 814.862 268.544C812.51 267.125 810.681 265.203 809.374 262.776C808.068 260.349 807.414 257.661 807.414 254.712C807.414 251.651 808.068 248.944 809.374 246.592C810.718 244.203 812.529 242.317 814.806 240.936C817.121 239.555 819.697 238.864 822.534 238.864C824.924 238.864 827.014 239.256 828.806 240.04C830.636 240.824 832.185 241.907 833.454 243.288C834.724 244.669 835.694 246.256 836.366 248.048C837.038 249.803 837.374 251.707 837.374 253.76C837.374 254.283 837.337 254.824 837.262 255.384C837.225 255.944 837.132 256.429 836.982 256.84H813.462V251.24H832.838L829.366 253.872C829.702 252.155 829.609 250.624 829.086 249.28C828.601 247.936 827.78 246.872 826.622 246.088C825.502 245.304 824.14 244.912 822.534 244.912C821.004 244.912 819.641 245.304 818.446 246.088C817.252 246.835 816.337 247.955 815.702 249.448C815.105 250.904 814.881 252.677 815.03 254.768C814.881 256.635 815.124 258.296 815.758 259.752C816.43 261.171 817.401 262.272 818.67 263.056C819.977 263.84 821.47 264.232 823.15 264.232C824.83 264.232 826.249 263.877 827.406 263.168C828.601 262.459 829.534 261.507 830.206 260.312L836.142 263.224C835.545 264.68 834.612 265.968 833.342 267.088C832.073 268.208 830.561 269.085 828.806 269.72C827.089 270.355 825.185 270.672 823.094 270.672ZM854.528 270.672C851.28 270.672 848.442 269.907 846.016 268.376C843.626 266.808 841.984 264.699 841.088 262.048L846.576 259.416C847.36 261.133 848.442 262.477 849.824 263.448C851.242 264.419 852.81 264.904 854.528 264.904C855.872 264.904 856.936 264.605 857.72 264.008C858.504 263.411 858.896 262.627 858.896 261.656C858.896 261.059 858.728 260.573 858.392 260.2C858.093 259.789 857.664 259.453 857.104 259.192C856.581 258.893 856.002 258.651 855.368 258.464L850.384 257.064C847.808 256.317 845.848 255.179 844.504 253.648C843.197 252.117 842.544 250.307 842.544 248.216C842.544 246.349 843.01 244.725 843.944 243.344C844.914 241.925 846.24 240.824 847.92 240.04C849.637 239.256 851.597 238.864 853.8 238.864C856.674 238.864 859.213 239.555 861.416 240.936C863.618 242.317 865.186 244.259 866.12 246.76L860.52 249.392C859.997 248.011 859.12 246.909 857.888 246.088C856.656 245.267 855.274 244.856 853.744 244.856C852.512 244.856 851.541 245.136 850.832 245.696C850.122 246.256 849.768 246.984 849.768 247.88C849.768 248.44 849.917 248.925 850.216 249.336C850.514 249.747 850.925 250.083 851.448 250.344C852.008 250.605 852.642 250.848 853.352 251.072L858.224 252.528C860.725 253.275 862.648 254.395 863.992 255.888C865.373 257.381 866.064 259.211 866.064 261.376C866.064 263.205 865.578 264.829 864.608 266.248C863.637 267.629 862.293 268.712 860.576 269.496C858.858 270.28 856.842 270.672 854.528 270.672ZM875.173 270V262.16H882.565V270H875.173ZM910.826 270V235H900.018V228.28H929.138V235H918.498V270H910.826ZM941.792 270.672C939.44 270.672 937.386 270.149 935.632 269.104C933.914 268.059 932.589 266.603 931.656 264.736C930.76 262.869 930.312 260.685 930.312 258.184V239.536H937.648V257.568C937.648 258.837 937.89 259.957 938.376 260.928C938.898 261.861 939.626 262.608 940.56 263.168C941.53 263.691 942.613 263.952 943.808 263.952C945.002 263.952 946.066 263.691 947 263.168C947.933 262.608 948.661 261.843 949.184 260.872C949.706 259.901 949.968 258.744 949.968 257.4V239.536H957.304V270H950.36V264.008L950.976 265.072C950.266 266.939 949.09 268.339 947.448 269.272C945.842 270.205 943.957 270.672 941.792 270.672ZM974.076 270V239.536H980.964V245.528L980.404 244.464C981.113 242.635 982.271 241.253 983.876 240.32C985.519 239.349 987.423 238.864 989.588 238.864C991.828 238.864 993.807 239.349 995.524 240.32C997.279 241.291 998.641 242.653 999.612 244.408C1000.58 246.125 1001.07 248.123 1001.07 250.4V270H993.732V252.136C993.732 250.792 993.471 249.635 992.948 248.664C992.425 247.693 991.697 246.947 990.764 246.424C989.868 245.864 988.804 245.584 987.572 245.584C986.377 245.584 985.313 245.864 984.38 246.424C983.447 246.947 982.719 247.693 982.196 248.664C981.673 249.635 981.412 250.792 981.412 252.136V270H974.076ZM1021.72 270.672C1018.58 270.672 1015.84 269.963 1013.49 268.544C1011.14 267.125 1009.31 265.203 1008 262.776C1006.69 260.349 1006.04 257.661 1006.04 254.712C1006.04 251.651 1006.69 248.944 1008 246.592C1009.34 244.203 1011.15 242.317 1013.43 240.936C1015.75 239.555 1018.32 238.864 1021.16 238.864C1023.55 238.864 1025.64 239.256 1027.43 240.04C1029.26 240.824 1030.81 241.907 1032.08 243.288C1033.35 244.669 1034.32 246.256 1034.99 248.048C1035.66 249.803 1036 251.707 1036 253.76C1036 254.283 1035.96 254.824 1035.89 255.384C1035.85 255.944 1035.76 256.429 1035.61 256.84H1012.09V251.24H1031.46L1027.99 253.872C1028.33 252.155 1028.23 250.624 1027.71 249.28C1027.23 247.936 1026.4 246.872 1025.25 246.088C1024.13 245.304 1022.76 244.912 1021.16 244.912C1019.63 244.912 1018.27 245.304 1017.07 246.088C1015.88 246.835 1014.96 247.955 1014.33 249.448C1013.73 250.904 1013.51 252.677 1013.66 254.768C1013.51 256.635 1013.75 258.296 1014.38 259.752C1015.06 261.171 1016.03 262.272 1017.3 263.056C1018.6 263.84 1020.1 264.232 1021.78 264.232C1023.46 264.232 1024.87 263.877 1026.03 263.168C1027.23 262.459 1028.16 261.507 1028.83 260.312L1034.77 263.224C1034.17 264.68 1033.24 265.968 1031.97 267.088C1030.7 268.208 1029.19 269.085 1027.43 269.72C1025.71 270.355 1023.81 270.672 1021.72 270.672ZM1056.34 282.32C1054.07 282.32 1051.96 281.947 1050.02 281.2C1048.08 280.453 1046.4 279.408 1044.98 278.064C1043.6 276.757 1042.59 275.208 1041.95 273.416L1048.78 270.84C1049.23 272.259 1050.11 273.397 1051.42 274.256C1052.76 275.152 1054.4 275.6 1056.34 275.6C1057.84 275.6 1059.14 275.32 1060.26 274.76C1061.42 274.2 1062.32 273.379 1062.95 272.296C1063.59 271.251 1063.9 269.981 1063.9 268.488V261.544L1065.3 263.224C1064.26 265.053 1062.86 266.435 1061.1 267.368C1059.35 268.301 1057.35 268.768 1055.11 268.768C1052.28 268.768 1049.74 268.115 1047.5 266.808C1045.26 265.501 1043.5 263.709 1042.23 261.432C1040.96 259.155 1040.33 256.597 1040.33 253.76C1040.33 250.885 1040.96 248.328 1042.23 246.088C1043.5 243.848 1045.24 242.093 1047.44 240.824C1049.64 239.517 1052.14 238.864 1054.94 238.864C1057.22 238.864 1059.22 239.349 1060.94 240.32C1062.69 241.253 1064.15 242.616 1065.3 244.408L1064.3 246.256V239.536H1071.24V268.488C1071.24 271.139 1070.59 273.509 1069.28 275.6C1068.01 277.691 1066.26 279.333 1064.02 280.528C1061.81 281.723 1059.26 282.32 1056.34 282.32ZM1056.01 261.992C1057.58 261.992 1058.94 261.656 1060.1 260.984C1061.29 260.275 1062.22 259.304 1062.9 258.072C1063.57 256.84 1063.9 255.421 1063.9 253.816C1063.9 252.248 1063.55 250.848 1062.84 249.616C1062.17 248.347 1061.24 247.357 1060.04 246.648C1058.88 245.939 1057.54 245.584 1056.01 245.584C1054.48 245.584 1053.1 245.939 1051.86 246.648C1050.63 247.357 1049.66 248.347 1048.95 249.616C1048.28 250.848 1047.94 252.248 1047.94 253.816C1047.94 255.384 1048.28 256.784 1048.95 258.016C1049.66 259.248 1050.61 260.219 1051.81 260.928C1053.04 261.637 1054.44 261.992 1056.01 261.992ZM1092.99 270.672C1090 270.672 1087.28 269.981 1084.81 268.6C1082.39 267.219 1080.44 265.333 1078.99 262.944C1077.57 260.555 1076.86 257.829 1076.86 254.768C1076.86 251.707 1077.57 248.981 1078.99 246.592C1080.44 244.203 1082.39 242.317 1084.81 240.936C1087.24 239.555 1089.96 238.864 1092.99 238.864C1095.97 238.864 1098.68 239.555 1101.11 240.936C1103.53 242.317 1105.46 244.203 1106.88 246.592C1108.33 248.944 1109.06 251.669 1109.06 254.768C1109.06 257.829 1108.33 260.555 1106.88 262.944C1105.42 265.333 1103.48 267.219 1101.05 268.6C1098.63 269.981 1095.94 270.672 1092.99 270.672ZM1092.99 263.952C1094.63 263.952 1096.07 263.56 1097.3 262.776C1098.57 261.992 1099.56 260.909 1100.27 259.528C1101.01 258.109 1101.39 256.523 1101.39 254.768C1101.39 252.976 1101.01 251.408 1100.27 250.064C1099.56 248.683 1098.57 247.6 1097.3 246.816C1096.07 245.995 1094.63 245.584 1092.99 245.584C1091.31 245.584 1089.83 245.995 1088.56 246.816C1087.29 247.6 1086.29 248.683 1085.54 250.064C1084.83 251.408 1084.48 252.976 1084.48 254.768C1084.48 256.523 1084.83 258.109 1085.54 259.528C1086.29 260.909 1087.29 261.992 1088.56 262.776C1089.83 263.56 1091.31 263.952 1092.99 263.952ZM1129.3 270.672C1126.27 270.672 1123.55 269.981 1121.12 268.6C1118.73 267.181 1116.84 265.277 1115.46 262.888C1114.08 260.461 1113.39 257.736 1113.39 254.712C1113.39 251.688 1114.08 248.981 1115.46 246.592C1116.84 244.203 1118.73 242.317 1121.12 240.936C1123.55 239.555 1126.27 238.864 1129.3 238.864C1131.46 238.864 1133.48 239.256 1135.34 240.04C1137.21 240.787 1138.82 241.832 1140.16 243.176C1141.54 244.483 1142.53 246.051 1143.13 247.88L1136.69 250.68C1136.13 249.149 1135.18 247.917 1133.83 246.984C1132.52 246.051 1131.01 245.584 1129.3 245.584C1127.69 245.584 1126.25 245.976 1124.98 246.76C1123.75 247.544 1122.78 248.627 1122.07 250.008C1121.36 251.389 1121.01 252.976 1121.01 254.768C1121.01 256.56 1121.36 258.147 1122.07 259.528C1122.78 260.909 1123.75 261.992 1124.98 262.776C1126.25 263.56 1127.69 263.952 1129.3 263.952C1131.05 263.952 1132.58 263.485 1133.89 262.552C1135.19 261.619 1136.13 260.368 1136.69 258.8L1143.13 261.712C1142.53 263.429 1141.56 264.979 1140.22 266.36C1138.87 267.704 1137.27 268.768 1135.4 269.552C1133.53 270.299 1131.5 270.672 1129.3 270.672ZM1148.69 270V239.536H1156.03V270H1148.69ZM1148.69 236.12V228.28H1156.03V236.12H1148.69ZM1177.7 270.672C1174.71 270.672 1171.99 269.981 1169.52 268.6C1167.1 267.219 1165.15 265.333 1163.7 262.944C1162.28 260.555 1161.57 257.829 1161.57 254.768C1161.57 251.707 1162.28 248.981 1163.7 246.592C1165.15 244.203 1167.1 242.317 1169.52 240.936C1171.95 239.555 1174.67 238.864 1177.7 238.864C1180.69 238.864 1183.39 239.555 1185.82 240.936C1188.25 242.317 1190.17 244.203 1191.59 246.592C1193.04 248.944 1193.77 251.669 1193.77 254.768C1193.77 257.829 1193.04 260.555 1191.59 262.944C1190.13 265.333 1188.19 267.219 1185.76 268.6C1183.34 269.981 1180.65 270.672 1177.7 270.672ZM1177.7 263.952C1179.34 263.952 1180.78 263.56 1182.01 262.776C1183.28 261.992 1184.27 260.909 1184.98 259.528C1185.73 258.109 1186.1 256.523 1186.1 254.768C1186.1 252.976 1185.73 251.408 1184.98 250.064C1184.27 248.683 1183.28 247.6 1182.01 246.816C1180.78 245.995 1179.34 245.584 1177.7 245.584C1176.02 245.584 1174.54 245.995 1173.27 246.816C1172.01 247.6 1171 248.683 1170.25 250.064C1169.54 251.408 1169.19 252.976 1169.19 254.768C1169.19 256.523 1169.54 258.109 1170.25 259.528C1171 260.909 1172.01 261.992 1173.27 262.776C1174.54 263.56 1176.02 263.952 1177.7 263.952ZM1202.81 270V262.16H1210.2V270H1202.81Z" fill="white"/>
<path d="M498.151 271.789L491.288 271.726L485.149 271.632L479.357 271.569C475.988 271.569 477.09 272.01 480.396 272.388C485.14 272.918 489.92 273.065 494.688 272.828L504.164 272.324C505.433 272.283 506.697 272.136 507.942 271.884C509.579 271.538 507.123 271.6 504.258 271.663L498.151 271.789ZM526.799 271.6L522.423 271.412C519.936 271.317 516.945 271.254 514.773 271.348C510.46 271.506 517.606 272.923 524.564 272.545C531.521 272.167 530.986 272.545 533.064 272.104C534.102 271.852 532.529 271.758 530.702 271.695L526.799 271.6Z" fill="#1E1D1C"/>
<path d="M481.214 244.023C481.683 244.023 482.064 243.642 482.064 243.173C482.064 242.703 481.683 242.323 481.214 242.323C480.744 242.323 480.364 242.703 480.364 243.173C480.364 243.642 480.744 244.023 481.214 244.023ZM532.969 231.304C534.308 231.304 535.393 230.219 535.393 228.88C535.393 227.541 534.308 226.456 532.969 226.456C531.63 226.456 530.545 227.541 530.545 228.88C530.545 230.219 531.63 231.304 532.969 231.304ZM528.278 245.502L529.286 246.132C529.507 246.339 529.801 246.452 530.104 246.447C530.4 246.422 530.68 246.306 530.906 246.114C531.132 245.922 531.292 245.664 531.363 245.376C531.387 245.235 531.429 245.097 531.489 244.967L531.584 244.81H531.615C531.584 244.873 531.584 244.873 531.647 244.904C531.816 245.007 531.995 245.091 532.182 245.156L532.78 245.502L535.015 246.699C535.299 246.824 536.117 246.447 535.739 246.258L533.504 244.999C532.875 244.684 532.15 244.086 531.395 244.306C530.639 244.526 530.608 245.03 530.419 245.565C530.23 246.1 530.199 245.849 530.199 245.974C530.199 246.1 530.167 246.006 530.23 245.943C530.293 245.88 530.356 245.88 530.23 245.849L530.041 245.723L529.002 245.062C528.75 244.904 527.9 245.282 528.278 245.502ZM526.012 237.663L528.121 237.317C528.404 237.254 528.75 237.097 528.971 237.38C529.045 237.575 529.151 237.756 529.286 237.915C529.947 238.639 531.615 238.45 532.15 237.632L531.3 237.789C531.533 238.043 531.815 238.247 532.129 238.388C532.443 238.529 532.782 238.603 533.126 238.608C533.598 238.608 534.543 238.45 534.606 237.852C534.669 237.254 533.756 237.632 533.693 237.947C533.63 238.262 533.158 238.041 533.032 238.01C532.692 237.889 532.388 237.683 532.15 237.412C532.013 237.331 531.852 237.303 531.696 237.332C531.54 237.361 531.4 237.445 531.3 237.569C531.049 237.978 530.262 237.789 530.041 237.443C529.821 237.097 529.789 236.876 529.443 236.75C529.097 236.625 528.404 236.719 527.932 236.813L526.137 237.097C525.949 237.128 525.634 237.223 525.602 237.443C525.571 237.663 525.854 237.695 526.012 237.663ZM498.025 225.386C493.712 235.271 493.491 250.665 495.128 261.432C495.128 261.432 500.89 255.482 503.975 249.06L507.029 242.637C507.029 242.637 510.554 250.13 514.332 253.876C516.648 256.145 519.33 258.008 522.266 259.385C520.597 249.973 519.558 234.83 523.651 226.362L498.025 225.386Z" fill="white"/>
<path d="M497.143 268.421C497.139 268.469 497.117 268.514 497.08 268.547L496.828 268.924C496.42 269.305 495.922 269.576 495.38 269.711L494.027 269.963L492.358 270.152C491.083 270.295 489.801 270.368 488.517 270.372H486.408L485.464 270.31C485.251 270.275 485.053 270.176 484.897 270.026C484.582 269.743 484.362 269.145 484.173 268.452L484.047 267.948C484.004 267.804 483.972 267.657 483.953 267.508C483.948 267.412 483.958 267.316 483.984 267.224C484.001 267.126 484.033 267.03 484.079 266.941C484.227 266.688 484.407 266.456 484.614 266.249C484.841 266.032 485.083 265.833 485.338 265.65C485.861 265.31 486.434 265.055 487.038 264.895C488.16 264.604 489.348 264.704 490.406 265.178C491.095 265.488 491.732 265.902 492.295 266.406C492.641 266.689 492.767 266.721 492.767 266.501C492.628 266.014 492.368 265.57 492.012 265.21C491.291 264.439 490.378 263.874 489.367 263.572C487.859 263.178 486.259 263.346 484.866 264.045C484.474 264.264 484.095 264.505 483.732 264.769C483.358 265.087 483.02 265.446 482.725 265.839C482.564 266.077 482.426 266.33 482.316 266.595C482.225 266.901 482.183 267.22 482.19 267.539C482.188 267.815 482.22 268.09 482.284 268.358C482.347 268.578 482.379 268.799 482.441 269.019C482.566 269.534 482.756 270.032 483.008 270.498C483.292 271.102 483.784 271.582 484.393 271.852C484.94 272.088 485.53 272.206 486.125 272.199H487.604C489.611 272.155 491.611 271.955 493.586 271.6C494.409 271.454 495.219 271.243 496.01 270.971C496.796 270.704 497.479 270.198 497.962 269.523C498.334 268.931 498.571 268.265 498.654 267.571C498.755 267.01 498.798 266.44 498.78 265.871C498.765 264.951 498.67 264.035 498.497 263.132C498.402 262.754 498.34 262.408 498.245 262.093C498.151 261.778 498.025 261.243 497.93 260.865L496.734 261.086L495.978 261.212L494.719 261.4L493.617 261.558L492.925 261.684L492.232 261.81C492.39 262.313 492.61 262.88 492.799 263.384C492.988 263.887 493.208 264.234 493.24 263.919C493.229 263.654 493.197 263.391 493.145 263.132C493.148 263.047 493.138 262.962 493.114 262.88V262.723C493.088 262.62 493.077 262.514 493.082 262.408H493.68L494.971 262.282L496.356 262.125L496.986 262.061H497.175C497.242 262.31 497.295 262.562 497.332 262.817C497.427 263.258 497.49 263.698 497.552 264.139C497.65 264.891 497.671 265.65 497.615 266.406C497.589 266.928 497.504 267.445 497.364 267.948C497.303 268.112 497.229 268.27 497.143 268.421ZM526.137 265.525C526.137 265.525 526.201 265.776 526.358 266.217L526.61 267.004C526.662 267.101 526.694 267.209 526.704 267.319C526.677 267.357 526.656 267.4 526.641 267.445L526.515 267.571L526.326 267.791L525.886 268.2C525.518 268.481 525.116 268.714 524.689 268.893C523.66 269.323 522.562 269.569 521.447 269.617C520.219 269.743 518.928 269.775 518.015 269.271C517.103 268.767 516.536 267.602 516.693 266.658C516.755 266.165 517.003 265.715 517.386 265.399C517.806 265.003 518.283 264.674 518.802 264.423C519.841 263.919 520.912 263.762 521.73 264.108C522.094 264.242 522.434 264.434 522.737 264.674C522.942 264.847 523.132 265.037 523.304 265.241C523.556 265.525 523.682 265.588 523.713 265.367C523.698 264.892 523.521 264.436 523.21 264.077C522.937 263.73 522.607 263.431 522.234 263.195C521.748 262.898 521.197 262.725 520.628 262.691C519.959 262.643 519.287 262.718 518.645 262.911C517.93 263.139 517.252 263.468 516.63 263.887C516.271 264.142 515.952 264.45 515.686 264.8C515.386 265.185 515.162 265.623 515.025 266.091C514.783 267.09 514.917 268.144 515.402 269.05C515.653 269.515 515.971 269.939 516.347 270.31L517.008 270.782C517.236 270.923 517.479 271.039 517.732 271.128C518.689 271.472 519.712 271.591 520.723 271.474C521.678 271.431 522.627 271.294 523.556 271.065C524.536 270.81 525.463 270.383 526.295 269.806C526.688 269.522 527.047 269.195 527.365 268.83C527.545 268.638 527.703 268.427 527.838 268.2C528.009 267.917 528.086 267.586 528.058 267.256C528.052 267.003 527.987 266.755 527.869 266.532C527.809 266.348 527.735 266.169 527.648 265.997C527.523 265.65 527.365 265.336 527.239 265.021C526.704 263.73 526.232 262.66 525.823 261.747C525.414 260.834 525.036 260.047 524.752 259.386L524.249 258.347L523.997 257.812L523.871 257.56V257.497H523.839L523.713 257.56L522.265 258.504C521.932 258.709 521.617 258.941 521.321 259.197L520.439 259.984L520.188 260.236L520.062 260.393L519.999 260.456H519.967V260.519L520.156 261.306C520.408 262.408 520.534 262.125 520.534 261.086C520.534 260.928 520.565 260.897 520.565 260.802V260.739H520.597L520.691 260.645L520.849 260.582C520.908 260.512 520.984 260.459 521.069 260.425L521.541 260.078L522.611 259.386L522.895 259.197L523.021 259.102H523.147L523.367 259.008H523.43L523.493 259.134L523.619 259.417L524.186 260.739C524.564 261.621 524.91 262.44 525.193 263.195C525.76 264.517 526.137 265.525 526.137 265.525ZM502.873 230.612C503.013 230.791 503.139 230.98 503.251 231.178L503.345 231.304C503.345 231.336 503.345 231.367 503.314 231.336H503.251L503.093 231.273H502.936L502.558 231.21L501.834 231.084C500.935 230.967 500.023 230.978 499.127 231.116C498.466 231.241 498.245 231.399 498.308 231.525C498.371 231.651 498.749 231.745 499.316 231.84L501.456 232.186L502.778 232.501H502.936L503.282 232.595L504.038 232.847L505.549 233.319L505.454 233.13L505.328 232.878L505.108 232.438L504.888 232.028L504.793 231.808L504.667 231.588L504.29 230.99L504.195 230.832L504.132 230.769H504.101L503.975 230.612L503.471 230.077C503.206 229.805 502.922 229.553 502.621 229.321C502.242 229.021 501.842 228.748 501.425 228.503C500.96 228.193 500.409 228.039 499.851 228.062C499.504 228.062 499.567 228.188 499.851 228.345C500.134 228.503 500.575 228.723 501.047 229.038C501.506 229.335 501.938 229.672 502.338 230.045L502.716 230.454L502.873 230.612ZM512.884 233.067L512.349 233.193L511.719 233.382L511.31 233.603C511.111 233.696 510.938 233.836 510.806 234.012L511.782 234.421C511.858 234.233 511.953 234.054 512.066 233.886C512.237 233.661 512.426 233.45 512.632 233.256C513.155 232.817 513.701 232.407 514.269 232.028L515.182 231.399C515.45 231.188 515.735 230.999 516.032 230.832C516.63 230.454 517.197 230.171 517.732 229.888C518.267 229.604 518.771 229.227 518.582 229.164C518.393 229.101 517.795 229.132 516.913 229.384C516.406 229.521 515.911 229.7 515.434 229.919L514.615 230.391L513.828 230.895C513.215 231.251 512.636 231.662 512.097 232.123C511.802 232.386 511.538 232.682 511.31 233.004C511.033 233.351 510.848 233.763 510.775 234.201L510.491 236.058L511.656 234.61C511.665 234.61 511.673 234.607 511.678 234.601C511.684 234.595 511.688 234.587 511.688 234.578C511.749 234.483 511.836 234.406 511.94 234.358L512.317 234.138L513.104 233.854L514.458 233.508C515.013 233.367 515.588 233.325 516.158 233.382L517.103 233.477L518.141 233.571C518.614 233.634 518.551 233.508 518.173 233.288C517.206 232.814 516.13 232.608 515.056 232.69L513.954 232.847C513.594 232.899 513.236 232.973 512.884 233.067Z" fill="#1E1D1C"/>
<path d="M510.082 239.017L509.831 239.143L509.169 239.458C508.408 239.752 507.59 239.871 506.777 239.804C505.774 239.687 504.831 239.27 504.069 238.608C503.303 237.973 502.643 237.218 502.118 236.373C501.614 235.649 501.394 235.397 501.331 235.586C501.268 235.775 501.362 236.404 501.74 237.286C501.947 237.8 502.234 238.278 502.59 238.702C503.007 239.259 503.518 239.739 504.101 240.119C504.765 240.559 505.517 240.849 506.305 240.969C507.124 241.066 507.954 240.969 508.729 240.686C509.374 240.433 509.987 240.106 510.555 239.71C510.96 239.405 511.349 239.079 511.72 238.734C512.318 238.136 512.695 237.695 512.979 237.38C513.454 236.844 513.828 236.225 514.081 235.554C514.269 235.145 514.112 235.176 513.797 235.46L512.506 236.908C512.022 237.452 511.496 237.958 510.932 238.419C510.662 238.637 510.379 238.837 510.082 239.017ZM505.581 219.593C505.556 219.63 505.544 219.675 505.549 219.719C505.549 219.782 505.517 219.877 505.517 220.034C505.541 220.358 505.615 220.677 505.738 220.978C505.809 221.127 505.852 221.287 505.864 221.451C505.898 221.564 505.898 221.684 505.864 221.797H505.769C505.707 221.828 505.549 221.765 505.36 221.671L505.045 221.451L504.605 221.23C504.417 221.134 504.215 221.071 504.006 221.041C503.751 220.996 503.487 221.029 503.251 221.136L502.905 221.388L502.747 221.545L502.653 221.734C502.582 221.849 502.539 221.978 502.527 222.112C502.527 222.238 502.495 222.364 502.495 222.458C502.528 222.789 502.591 223.115 502.684 223.434C502.746 223.616 502.778 223.808 502.779 224.001C502.779 224.064 502.779 224.032 502.747 224.064L502.653 224.127C502.421 224.145 502.189 224.134 501.96 224.095C501.661 224.086 501.363 224.128 501.079 224.221C500.705 224.311 500.366 224.508 500.103 224.788C499.977 224.945 499.977 225.008 500.071 225.04C500.166 225.071 500.921 224.788 501.771 224.945L502.527 225.102C502.728 225.11 502.929 225.089 503.125 225.04C503.359 224.946 503.557 224.78 503.692 224.567C503.826 224.362 503.892 224.12 503.88 223.875C503.887 223.675 503.876 223.475 503.849 223.277C503.769 222.989 503.727 222.693 503.723 222.395C503.718 222.351 503.73 222.306 503.755 222.269H503.786C504.023 222.319 504.248 222.415 504.447 222.552C504.63 222.678 504.832 222.773 505.045 222.836C505.299 222.961 505.582 223.015 505.864 222.993C506.04 222.97 506.21 222.917 506.368 222.836C506.516 222.734 506.644 222.606 506.745 222.458C506.84 222.316 506.905 222.155 506.934 221.986V221.577C506.909 221.347 506.845 221.124 506.745 220.915C506.716 220.816 506.674 220.72 506.619 220.632L506.525 220.443C506.41 220.231 506.356 219.992 506.368 219.751C506.399 219.593 506.493 219.53 506.682 219.467C506.863 219.441 507.048 219.463 507.218 219.53C507.578 219.65 507.946 219.745 508.319 219.814C508.626 219.878 508.945 219.845 509.232 219.719C509.444 219.602 509.619 219.427 509.736 219.215C509.807 219.061 509.87 218.904 509.925 218.743C509.948 218.602 509.99 218.464 510.051 218.334C510.089 218.246 510.145 218.167 510.216 218.102C510.286 218.037 510.369 217.988 510.46 217.956C510.712 217.862 510.838 217.956 510.838 217.893C510.838 217.83 510.806 217.83 510.712 217.767C510.657 217.731 510.595 217.707 510.53 217.696C510.465 217.685 510.398 217.688 510.334 217.704C510.158 217.705 509.99 217.773 509.862 217.893L509.642 218.114L509.547 218.24L509.453 218.366C509.382 218.53 509.298 218.688 509.201 218.838C509.162 218.955 509.084 219.055 508.981 219.121C508.699 219.208 508.396 219.186 508.13 219.058C507.759 218.891 507.368 218.775 506.966 218.712C506.743 218.686 506.518 218.707 506.304 218.775C506.109 218.845 505.936 218.964 505.801 219.121C505.681 219.253 505.605 219.417 505.581 219.593ZM519.527 219.625L519.338 219.688C519.147 219.766 518.975 219.884 518.834 220.034C518.653 220.259 518.543 220.533 518.519 220.821C518.466 221.09 518.445 221.365 518.456 221.64C518.454 221.894 518.422 222.148 518.362 222.395C518.362 222.427 518.362 222.427 518.33 222.427H518.267L518.173 222.364L517.921 222.238L517.449 221.954L517.386 221.891L517.26 221.828L517.008 221.734C516.846 221.678 516.672 221.667 516.504 221.703C516.35 221.727 516.203 221.788 516.077 221.882C515.951 221.975 515.849 222.097 515.781 222.238C515.683 222.364 515.627 222.519 515.623 222.678C515.599 222.76 515.588 222.845 515.591 222.93V223.151C515.61 223.31 515.642 223.468 515.686 223.623C515.691 223.708 515.68 223.793 515.655 223.875C515.587 224.082 515.48 224.274 515.34 224.441C515.158 224.603 514.957 224.74 514.741 224.851C514.238 225.102 513.923 225.26 513.892 225.386C513.86 225.512 514.08 225.543 514.49 225.543C514.757 225.541 515.022 225.498 515.277 225.417C515.646 225.301 515.981 225.096 516.252 224.819C516.421 224.632 516.559 224.419 516.662 224.19L516.756 223.812C516.788 223.667 516.788 223.516 516.756 223.371V222.962H516.819L517.228 223.182L517.638 223.434L518.047 223.654L518.488 223.906L518.897 224.095H518.991V224.001L519.086 223.749C519.21 223.451 519.315 223.146 519.401 222.836V222.175C519.416 221.976 519.416 221.776 519.401 221.577C519.361 221.316 519.35 221.052 519.369 220.79C519.38 220.707 519.416 220.629 519.472 220.567C519.529 220.505 519.603 220.462 519.684 220.443C519.831 220.408 519.985 220.419 520.125 220.475L520.251 220.538L520.471 220.664L520.818 220.916H520.912L521.038 220.853L521.258 220.664C521.362 220.534 521.437 220.384 521.479 220.223C521.51 220.128 521.51 220.065 521.541 219.971C521.573 219.877 521.573 219.845 521.573 219.782C521.568 219.687 521.579 219.591 521.604 219.499C521.582 219.237 521.637 218.975 521.762 218.743C521.802 218.679 521.858 218.625 521.924 218.587C521.989 218.548 522.063 218.527 522.14 218.523C522.392 218.521 522.644 218.531 522.895 218.554C523.052 218.523 523.147 218.46 523.147 218.428C523.147 218.397 523.147 218.366 523.084 218.334L522.801 218.208L522.234 218.019C522.048 217.984 521.855 218.001 521.678 218.068C521.5 218.134 521.344 218.248 521.227 218.397C521.056 218.672 520.958 218.986 520.943 219.31L520.88 219.719C520.858 219.768 520.847 219.822 520.849 219.877C520.818 219.908 520.818 219.94 520.786 219.94C520.754 219.94 520.723 220.003 520.723 219.94H520.566L520.093 219.782C519.961 219.743 519.821 219.732 519.684 219.751L519.527 219.625ZM511.751 219.625L511.53 219.688C511.344 219.774 511.174 219.891 511.027 220.034C510.858 220.266 510.75 220.537 510.712 220.821C510.659 221.09 510.638 221.365 510.649 221.64C510.647 221.894 510.615 222.148 510.554 222.395H510.46L510.366 222.332L510.114 222.206L509.642 221.923L509.579 221.86L509.453 221.797L509.201 221.703C509.039 221.647 508.865 221.636 508.697 221.671C508.544 221.7 508.4 221.763 508.274 221.856C508.149 221.949 508.046 222.068 507.973 222.206C507.889 222.34 507.835 222.49 507.816 222.647C507.792 222.729 507.781 222.814 507.784 222.899C507.784 222.993 507.784 223.088 507.816 223.119C507.828 223.278 507.849 223.435 507.879 223.591C507.884 223.677 507.873 223.762 507.847 223.843C507.792 224.056 507.684 224.251 507.532 224.41C507.357 224.564 507.167 224.701 506.966 224.819C506.431 225.071 506.116 225.228 506.084 225.354C506.053 225.48 506.273 225.512 506.683 225.512C506.95 225.509 507.215 225.467 507.469 225.386C507.839 225.269 508.174 225.064 508.445 224.788C508.624 224.608 508.763 224.394 508.855 224.158C508.901 224.036 508.932 223.909 508.949 223.78C508.974 223.635 508.985 223.487 508.981 223.34C508.954 223.237 508.944 223.131 508.949 223.025V222.962H509.012L509.421 223.182L509.831 223.434L510.24 223.654L510.68 223.906L511.09 224.095H511.184V224.001L511.279 223.749C511.416 223.457 511.522 223.151 511.594 222.836V222.458C511.588 222.363 511.599 222.267 511.625 222.175C511.63 221.975 511.62 221.775 511.594 221.577C511.554 221.316 511.543 221.052 511.562 220.79C511.565 220.718 511.587 220.648 511.626 220.587C511.664 220.526 511.718 220.476 511.782 220.443C511.929 220.408 512.083 220.419 512.223 220.475L512.349 220.538L512.569 220.664L512.916 220.915H513.01L513.136 220.853L513.357 220.664C513.46 220.534 513.536 220.384 513.577 220.223C513.612 220.143 513.634 220.058 513.64 219.971C513.64 219.908 513.671 219.845 513.671 219.782C513.666 219.687 513.677 219.591 513.703 219.499C513.696 219.238 513.75 218.98 513.86 218.743C513.903 218.68 513.958 218.628 514.024 218.59C514.089 218.552 514.163 218.529 514.238 218.523C514.49 218.52 514.742 218.531 514.994 218.554C515.151 218.523 515.245 218.46 515.245 218.428C515.245 218.397 515.245 218.366 515.182 218.334L514.899 218.208L514.332 218.019C514.165 217.984 513.991 217.995 513.828 218.051C513.731 218.074 513.639 218.117 513.558 218.176C513.477 218.236 513.408 218.311 513.357 218.397C513.164 218.664 513.054 218.981 513.042 219.31L512.979 219.719C512.979 219.814 512.947 219.814 512.947 219.877L512.884 219.94C512.884 219.971 512.853 220.003 512.821 219.94H512.758L512.286 219.782C512.154 219.742 512.014 219.731 511.877 219.751L511.751 219.625Z" fill="#1E1D1C"/>
<path d="M514.993 220.16H514.458C514.271 220.177 514.089 220.23 513.923 220.318C513.687 220.434 513.507 220.637 513.419 220.885C513.335 221.084 513.292 221.298 513.293 221.514C513.262 221.734 513.293 221.892 513.262 222.049C513.267 222.228 513.256 222.407 513.23 222.585C513.225 222.764 513.204 222.943 513.167 223.12C513.167 223.214 513.136 223.309 513.136 223.403C513.136 223.497 513.104 223.592 513.073 223.686C513.046 223.821 512.992 223.95 512.915 224.064C512.853 224.19 512.821 224.19 512.789 224.19C512.758 224.19 512.695 224.222 512.506 224.159C512.248 224.104 511.983 224.082 511.719 224.096C511.23 224.153 510.775 224.375 510.428 224.725C510.219 224.926 510.086 225.193 510.051 225.481C510.051 225.67 510.114 225.701 510.176 225.67C510.24 225.638 510.68 225.229 511.247 225.103C511.53 225.03 511.828 225.052 512.097 225.166C512.37 225.302 512.674 225.367 512.979 225.355C513.193 225.312 513.396 225.226 513.576 225.103C513.719 224.983 513.846 224.845 513.954 224.694C514.119 224.411 514.236 224.102 514.301 223.781C514.363 223.502 514.395 223.217 514.395 222.931C514.421 222.648 514.432 222.364 514.426 222.081C514.395 221.766 514.364 221.514 514.364 221.357V221.168C514.395 221.136 514.395 221.105 514.426 221.105C514.598 221.045 514.781 221.023 514.962 221.042C515.196 221.057 515.432 221.025 515.654 220.947C515.847 220.888 516.02 220.779 516.158 220.633C516.357 220.41 516.517 220.154 516.63 219.877C516.704 219.684 516.757 219.483 516.788 219.279C516.789 219.055 516.821 218.833 516.882 218.618C516.893 218.547 516.926 218.481 516.976 218.429C517.028 218.386 517.09 218.357 517.157 218.346C517.223 218.335 517.291 218.342 517.354 218.366C517.449 218.366 517.48 218.46 517.512 218.492C517.543 218.523 517.575 218.555 517.606 218.523C517.628 218.474 517.638 218.42 517.638 218.366C517.628 218.308 517.607 218.253 517.574 218.204C517.541 218.155 517.499 218.114 517.449 218.083C517.319 217.994 517.165 217.95 517.008 217.957C516.906 217.957 516.805 217.979 516.712 218.023C516.62 218.066 516.538 218.13 516.473 218.209C516.346 218.339 516.259 218.503 516.221 218.681C516.18 218.836 516.149 218.994 516.127 219.153C516.111 219.356 516.049 219.552 515.945 219.727C515.841 219.901 515.699 220.05 515.528 220.16C515.42 220.211 515.301 220.233 515.182 220.223L514.993 220.16ZM525.193 247.392L526.043 246.794L526.515 246.447C526.625 246.357 526.72 246.251 526.799 246.132C526.894 245.979 526.958 245.807 526.988 245.629C527.035 245.278 526.956 244.921 526.767 244.621C526.636 244.348 526.455 244.103 526.232 243.897C525.413 243.147 524.528 242.473 523.588 241.883C522.675 241.284 521.825 240.749 521.132 240.246C520.905 240.058 520.663 239.889 520.408 239.742C520.25 239.679 520.188 239.679 520.188 239.773C520.188 239.868 520.439 240.529 521.069 241.19C521.854 241.987 522.707 242.714 523.619 243.362C524.154 243.733 524.669 244.133 525.162 244.558C525.393 244.734 525.604 244.934 525.791 245.157L525.917 245.408C525.922 245.473 525.911 245.538 525.886 245.597C525.854 245.755 525.508 246.007 525.287 246.195L524.658 246.762C524.249 247.108 523.902 247.423 523.588 247.644C523.144 247.994 522.682 248.32 522.202 248.62C521.62 248.951 521.081 249.353 520.597 249.816C519.936 250.414 521.132 249.942 522.486 249.217C523.127 248.855 523.748 248.456 524.343 248.021L525.193 247.392ZM490.28 246.794C490.249 246.714 490.207 246.64 490.155 246.573C490.022 246.395 489.907 246.205 489.808 246.007C489.698 245.782 489.665 245.528 489.714 245.283C489.837 244.944 490.042 244.641 490.312 244.401C490.627 244.118 491.067 243.803 491.445 243.457L492.705 242.449L494.971 240.623C495.632 240.088 495.821 239.805 495.632 239.773C495.443 239.742 494.877 239.899 494.09 240.277C493.108 240.784 492.17 241.374 491.288 242.04C490.743 242.433 490.228 242.864 489.745 243.331C489.445 243.592 489.19 243.9 488.99 244.244C488.74 244.625 488.628 245.081 488.675 245.534C488.718 245.935 488.871 246.316 489.116 246.636C489.289 246.889 489.478 247.131 489.682 247.36C490.033 247.687 490.412 247.982 490.816 248.242C491.299 248.56 491.817 248.824 492.358 249.029C492.98 249.271 493.643 249.388 494.31 249.375C494.751 249.375 494.688 249.249 494.31 249.092L492.673 248.431C492.05 248.18 491.467 247.841 490.942 247.423C490.708 247.228 490.487 247.017 490.28 246.794ZM496.388 248.682C496.388 248.682 496.167 249.312 495.821 250.099C495.474 250.901 495.074 251.679 494.625 252.429C494.436 252.743 494.405 252.87 494.499 252.87C494.593 252.87 494.814 252.775 495.097 252.492C495.83 251.652 496.348 250.648 496.608 249.564C496.892 248.368 496.955 247.801 497.017 247.423C497.042 247.288 497.053 247.151 497.049 247.014C497.045 246.862 497.013 246.713 496.955 246.573C496.829 246.195 496.797 246.731 496.703 247.36C496.608 247.99 496.388 248.682 496.388 248.682ZM519.054 251.138C519.054 251.138 518.771 250.729 518.425 250.131C518.079 249.538 517.764 248.929 517.48 248.305C517.228 247.77 517.102 247.99 517.165 248.62C517.336 249.481 517.727 250.283 518.299 250.949L519.526 252.177C519.675 252.355 519.872 252.486 520.093 252.555C520.408 252.649 520.093 252.334 519.747 251.956L519.274 251.421L519.054 251.138Z" fill="#1E1D1C"/>
<path d="M494.342 251.043C494.342 251.043 494.373 250.886 494.468 250.571C494.562 250.256 494.751 249.847 494.94 249.375C495.118 248.892 495.362 248.437 495.664 248.021L495.916 247.706L496.042 247.58C496.073 247.549 496.042 247.58 496.073 247.58H496.136L496.294 247.832C496.482 248.178 496.514 248.336 496.577 248.241C496.629 248.104 496.651 247.956 496.64 247.809C496.629 247.663 496.586 247.52 496.514 247.391C496.422 247.232 496.277 247.109 496.105 247.045C495.996 247.039 495.888 247.06 495.79 247.108L495.601 247.265C495.348 247.487 495.126 247.741 494.94 248.021C494.545 248.636 494.267 249.319 494.121 250.036C493.932 250.593 493.888 251.189 493.995 251.767C494.028 251.881 494.082 251.988 494.153 252.082C494.184 252.145 494.247 252.145 494.279 252.177L494.405 252.239C494.554 252.273 494.711 252.25 494.845 252.177C495.021 252.104 495.174 251.984 495.286 251.83C495.39 251.689 495.465 251.528 495.506 251.358C495.569 251.138 495.507 251.169 495.381 251.326C495.206 251.542 494.992 251.724 494.751 251.862C494.724 251.881 494.693 251.894 494.66 251.899C494.627 251.904 494.594 251.902 494.562 251.893H494.405C494.405 251.862 494.373 251.83 494.373 251.799C494.373 251.767 494.342 251.673 494.342 251.578C494.326 251.474 494.326 251.368 494.342 251.264V251.043ZM520.912 250.665C520.874 250.499 520.81 250.34 520.723 250.193C520.562 249.836 520.361 249.498 520.125 249.186C520.007 248.975 519.87 248.774 519.715 248.588C519.541 248.343 519.315 248.139 519.054 247.99C518.775 247.87 518.461 247.859 518.173 247.958C518.037 247.99 517.91 248.052 517.801 248.139C517.693 248.226 517.604 248.336 517.543 248.462C517.448 248.602 517.394 248.765 517.386 248.934C517.417 249.028 517.449 249.028 517.48 248.997C517.512 248.965 517.701 248.682 517.984 248.525C518.15 248.422 518.348 248.384 518.54 248.419C518.732 248.454 518.904 248.559 519.023 248.713C519.214 248.934 519.393 249.165 519.558 249.406L520.125 250.13C520.415 250.484 520.611 250.907 520.691 251.358C520.666 251.474 520.611 251.582 520.534 251.673C520.474 251.729 520.396 251.763 520.314 251.767L519.873 251.83C519.736 251.849 519.596 251.838 519.464 251.799H519.306C519.307 251.831 519.316 251.862 519.333 251.89C519.349 251.917 519.373 251.94 519.4 251.956C519.517 252.056 519.658 252.122 519.81 252.145H520.314C520.422 252.128 520.528 252.097 520.628 252.051C520.742 251.992 520.84 251.905 520.912 251.799C521.026 251.622 521.071 251.409 521.037 251.201C521.037 251.072 521.016 250.945 520.975 250.823C520.967 250.766 520.945 250.712 520.912 250.665ZM485.621 265.462V265.021C485.653 264.895 484.771 265.021 484.74 265.241C484.33 266.943 484.429 268.727 485.023 270.373C485.086 270.562 485.873 270.341 485.936 270.184L487.636 264.706L486.723 264.926C486.723 265.997 486.755 267.067 486.786 268.138L486.881 269.68C486.881 270.027 486.881 270.467 487.29 270.562C487.699 270.656 488.077 270.498 488.108 270.247C488.297 268.232 488.549 266.249 488.927 264.234L488.014 264.454C488.095 266.403 488.401 268.337 488.927 270.215C488.99 270.436 489.84 270.184 489.84 269.995C489.934 268.326 489.966 266.689 489.997 265.021L489.084 265.273L490.816 270.75C490.91 270.971 491.729 270.719 491.729 270.498C491.971 268.877 491.928 267.226 491.603 265.619L490.69 265.839C491.283 267.398 492.065 268.879 493.019 270.247C493.145 270.436 493.932 270.247 493.932 270.027C493.976 267.974 493.86 265.922 493.586 263.888L492.673 264.139C493.397 266.186 494.153 268.264 495.412 270.058C495.538 270.215 496.388 269.995 496.325 269.806L494.058 262.03L493.145 262.282L496.892 268.547C496.986 268.767 497.867 268.452 497.805 268.326L494.971 262.534L494.058 262.786C494.982 264.024 495.959 265.221 496.986 266.375C497.143 266.501 497.867 266.312 497.899 266.091C497.993 264.549 496.388 263.604 496.199 262.125L495.286 262.376C495.785 263.07 496.416 263.659 497.143 264.108C497.269 264.203 498.119 263.982 498.025 263.856C497.548 263.069 497.207 262.207 497.017 261.306C496.955 261.117 496.042 261.338 496.105 261.558C496.3 262.447 496.64 263.298 497.112 264.077L498.025 263.825C497.315 263.377 496.696 262.801 496.199 262.125C496.073 261.967 495.255 262.156 495.286 262.376C495.475 263.856 497.08 264.8 496.986 266.343L497.867 266.06C496.833 264.943 495.866 263.766 494.971 262.534C494.814 262.345 493.964 262.628 494.058 262.786L496.892 268.547L497.805 268.326L494.058 262.03C493.932 261.873 493.082 262.093 493.145 262.282L495.412 270.058L496.325 269.806C495.066 268.012 494.31 265.934 493.586 263.888C493.523 263.699 492.642 263.919 492.673 264.139C492.957 266.162 493.083 268.204 493.051 270.247L493.964 270.027C493.022 268.651 492.24 267.172 491.634 265.619C491.571 265.43 490.69 265.651 490.721 265.839C491.046 267.457 491.089 269.118 490.847 270.75L491.76 270.498L490.029 265.021C489.966 264.832 489.116 265.052 489.116 265.273C489.084 266.91 489.053 268.578 488.958 270.215L489.871 269.995C489.348 268.105 489.042 266.162 488.958 264.203C488.958 264.045 488.108 264.234 488.077 264.391C487.699 266.437 487.416 268.452 487.227 270.498L488.045 270.215C487.731 270.121 487.793 269.302 487.793 269.051C487.793 268.799 487.762 268.074 487.731 267.603C487.699 266.627 487.668 265.651 487.668 264.675C487.668 264.517 486.818 264.706 486.755 264.864L485.055 270.341L485.968 270.121C485.36 268.5 485.251 266.735 485.653 265.052L484.771 265.273L484.708 265.682C484.708 265.808 485.621 265.714 485.621 265.462ZM516.032 265.808C516.755 267.327 517.642 268.763 518.677 270.089C518.834 270.278 519.621 270.089 519.558 269.775L518.362 264.391L517.449 264.643C518.458 266.534 519.627 268.335 520.943 270.027C521.101 270.215 521.919 269.995 521.825 269.712C521.132 267.603 520.408 265.493 519.558 263.415L518.645 263.667C519.715 265.745 521.069 267.634 522.423 269.554C522.549 269.743 523.399 269.523 523.304 269.24L520.943 263.384L520.062 263.699C521.285 265.621 522.687 267.423 524.249 269.082C524.406 269.271 525.256 269.082 525.13 268.799C524.16 266.695 523.056 264.655 521.825 262.691C521.699 262.44 520.817 262.754 520.943 262.975C522.171 265.147 523.902 266.91 525.634 268.673C525.791 268.862 526.641 268.641 526.515 268.389L521.951 260.047L521.069 260.362L525.539 265.651C525.728 265.871 526.578 265.588 526.389 265.273C525.099 263.321 523.902 261.275 522.8 259.197L521.919 259.512L524.626 262.156C524.784 262.314 525.634 262.125 525.508 261.841L524.375 259.669C524.217 259.354 523.336 259.638 523.462 259.889L524.595 262.093L525.477 261.81L522.769 259.134C522.612 258.976 521.762 259.166 521.888 259.449C523.021 261.558 524.249 263.636 525.539 265.651L526.389 265.273L521.919 259.984C521.762 259.795 520.912 260.047 521.038 260.299L525.602 268.641L526.484 268.326C524.784 266.595 523.052 264.864 521.856 262.723L520.975 263.037C522.166 264.98 523.249 266.988 524.217 269.051L525.099 268.736C523.537 267.077 522.135 265.274 520.912 263.352C520.754 263.132 519.904 263.384 520.03 263.636L522.391 269.491L523.273 269.208C521.951 267.319 520.628 265.462 519.558 263.415C519.432 263.132 518.551 263.384 518.645 263.667C519.495 265.745 520.25 267.823 520.912 269.963L521.793 269.649C520.502 267.997 519.354 266.238 518.362 264.391C518.236 264.108 517.386 264.297 517.449 264.643L518.645 270.027L519.527 269.743C518.512 268.448 517.647 267.044 516.945 265.556C516.788 265.241 515.906 265.525 516.032 265.808Z" fill="#1E1D1C"/>
<g opacity="0.25">
<path d="M1253.77 222.624C1254.26 222.127 1254.81 221.703 1255.32 221.246C1256.53 220.178 1257.72 219.095 1258.91 217.996C1262.02 215.107 1265.07 212.106 1267.97 208.904C1270.1 206.544 1272.07 203.951 1274.05 201.403C1276.02 198.863 1277.97 196.282 1280 193.811C1281.36 192.157 1282.66 190.45 1283.97 188.729C1284.74 187.713 1285.53 186.714 1286.37 185.775C1286.78 185.311 1287.21 184.867 1287.65 184.446C1287.85 184.258 1288.05 184.078 1288.26 183.902C1288.38 183.8 1288.83 183.452 1288.26 183.89C1288.38 183.801 1288.5 183.716 1288.62 183.632C1287.63 182.542 1286.64 181.452 1285.65 180.362C1283.2 190.826 1279.27 200.519 1275.59 210.312C1275.38 210.887 1275.5 211.724 1275.73 212.293C1276.09 213.142 1276.75 213.648 1277.5 213.788C1281 214.444 1284.45 215.522 1287.91 216.524C1291.25 217.492 1294.63 218.432 1298.03 218.696C1297.47 217.345 1296.91 215.994 1296.36 214.643C1296.09 215.123 1295.8 215.583 1295.49 216.026C1295.41 216.145 1295.12 216.527 1295.53 215.978C1295.45 216.082 1295.37 216.183 1295.29 216.284C1295.11 216.518 1294.92 216.743 1294.73 216.965C1294.05 217.746 1293.3 218.448 1292.55 219.128C1291.8 219.812 1291.03 220.471 1290.28 221.161C1289.53 221.855 1288.83 222.616 1288.12 223.368C1286.76 224.802 1285.58 226.483 1284.38 228.114C1284.08 228.522 1283.78 228.932 1283.49 229.341C1283.34 229.547 1283.19 229.753 1283.04 229.96C1282.96 230.063 1282.88 230.166 1282.81 230.269C1282.67 230.46 1282.71 230.406 1282.93 230.108C1282.88 230.176 1282.83 230.244 1282.78 230.313C1282.16 231.146 1281.54 231.971 1280.9 232.773C1280.33 233.473 1279.76 234.151 1279.15 234.787C1278.39 235.574 1277.58 236.281 1276.82 237.063C1275.24 238.683 1273.79 240.462 1272.38 242.296C1269.53 246.023 1266.8 249.847 1263.53 253.058C1264.7 253.814 1265.86 254.569 1267.03 255.324C1267.09 253.884 1267.22 252.459 1267.43 251.051C1267.39 251.272 1267.36 251.493 1267.33 251.715C1268 247.227 1269.4 243.047 1270.77 238.877C1272.21 234.497 1273.51 230.09 1274.09 225.34C1274.26 223.933 1273.13 222.728 1272.09 222.528C1266.33 221.429 1260.56 220.405 1254.81 219.128C1254.16 218.983 1253.51 218.84 1252.86 218.649C1253.04 218.704 1253.23 218.759 1253.41 218.813C1253.32 218.785 1253.22 218.756 1253.13 218.72C1253.1 218.709 1253.07 218.696 1253.04 218.682C1253.59 218.953 1254.29 219.684 1254.38 220.592C1254.24 219.202 1252.89 218.277 1251.87 218.48C1251.34 218.585 1250.87 218.949 1250.58 219.479C1250.25 220.073 1250.23 220.691 1250.3 221.404C1250.39 222.372 1251.18 223.229 1251.93 223.489C1252.36 223.644 1252.81 223.762 1253.26 223.875C1254.27 224.13 1255.28 224.342 1256.3 224.555C1259.33 225.192 1262.37 225.776 1265.41 226.359C1267.58 226.774 1269.74 227.184 1271.91 227.597C1271.24 226.66 1270.57 225.723 1269.91 224.785C1269.86 225.186 1269.81 225.586 1269.75 225.985C1269.78 225.763 1269.81 225.542 1269.85 225.321C1269.11 230.159 1267.55 234.634 1266.08 239.134C1264.54 243.836 1263.22 248.66 1262.9 253.828C1262.88 254.141 1262.86 254.455 1262.85 254.769C1262.77 257.022 1265 258.37 1266.36 257.035C1269.63 253.824 1272.36 250.003 1275.21 246.273C1276.62 244.436 1278.08 242.667 1279.65 241.04C1280.41 240.255 1281.22 239.546 1281.98 238.764C1282.62 238.105 1283.22 237.387 1283.8 236.657C1285.19 234.916 1286.5 233.07 1287.83 231.253C1287.9 231.152 1287.98 231.052 1288.05 230.951C1287.64 231.515 1287.91 231.142 1288 231.022C1288.14 230.826 1288.29 230.63 1288.43 230.435C1288.74 230.029 1289.05 229.627 1289.36 229.229C1289.89 228.552 1290.43 227.892 1291.01 227.279C1291.73 226.519 1292.44 225.756 1293.2 225.055C1293.95 224.365 1294.72 223.707 1295.47 223.024C1297.11 221.538 1298.64 219.859 1299.81 217.803C1299.83 217.762 1299.85 217.721 1299.88 217.681C1300.71 216.183 1299.81 213.751 1298.21 213.627C1294.85 213.367 1291.52 212.445 1288.22 211.494C1284.72 210.483 1281.22 209.384 1277.67 208.719C1278.31 209.878 1278.94 211.036 1279.58 212.195C1283.25 202.402 1287.18 192.709 1289.63 182.245C1289.84 181.378 1289.7 180.438 1289.18 179.708C1288.59 178.873 1287.44 178.426 1286.66 178.976C1283.23 181.39 1280.88 185.309 1278.14 188.672C1276.26 190.986 1274.4 193.325 1272.56 195.698C1270.45 198.417 1268.36 201.156 1266.15 203.76C1263.56 206.824 1260.73 209.605 1257.88 212.319C1256.3 213.829 1254.7 215.303 1253.07 216.751C1252.37 217.382 1251.61 217.964 1250.93 218.648C1250.09 219.507 1250.04 221.156 1250.81 222.232C1251.59 223.323 1252.92 223.484 1253.77 222.624Z" fill="white"/>
</g>
<path opacity="0.25" d="M208.04 119.333C208.095 119.388 208.122 119.415 208.177 119.47C208.122 119.415 208.067 119.36 208.04 119.305V119.333ZM207.655 129.673C206.885 129.563 206.142 130.003 205.4 130.168C197.205 132.285 188.872 133.963 180.897 136.85C175.452 138.858 170.035 141.03 164.892 143.753C163.517 144.523 162.17 145.265 160.822 146.063C159.887 146.695 158.705 147.163 158.045 148.098C157.522 148.95 158.127 150.078 159.035 150.353C159.667 150.545 160.355 150.38 160.987 150.298C153.645 154.753 146.715 159.675 140.17 165.285C139.29 166.083 138.437 166.88 137.557 167.65C136.897 168.118 136.237 168.888 136.512 169.685C136.402 169.795 136.292 169.905 136.237 170.07C136.072 170.73 136.127 171.418 136.045 172.078C135.962 172.573 135.962 173.15 136.32 173.535C136.65 173.865 137.007 174.003 137.31 174.003C138.465 174.003 139.482 172.353 140.417 171.693C143.442 168.998 146.577 166.413 149.685 163.828C152.737 161.353 155.955 159.07 159.172 156.815C162.032 154.835 165.14 153.185 168.192 151.508C170.255 150.545 172.345 149.583 174.132 148.18C174.6 147.74 174.957 147.108 174.737 146.448C173.995 143.725 166.955 146.09 164.975 146.613C177.405 139.765 191.1 136.08 204.877 132.945C205.895 132.505 208.48 132.395 208.645 131.158C208.782 130.498 208.342 129.728 207.655 129.645V129.673ZM158.265 142.57C158.98 142.57 159.777 141.993 160.382 141.635C162.61 140.618 164.837 139.545 167.037 138.418C175.122 135.255 182.877 131.323 190.962 128.133C196.187 125.988 201.715 124.64 206.995 122.715C207.38 122.495 207.517 122.083 207.517 121.67C208.425 121.175 208.92 120.488 208.04 119.36C207.627 118.975 206.967 118.865 206.472 119.195C206.335 119.278 206.225 119.388 206.142 119.498C198.635 121.285 191.155 123.155 183.867 125.603C178.642 127.335 173.362 129.095 168.55 131.845C167.285 132.588 166.047 133.33 164.81 134.128C164.232 134.485 164.067 135.255 164.397 135.833C162.995 136.603 161.62 137.428 160.272 138.308C159.145 139.16 156.34 140.178 157.247 141.993C157.522 142.405 157.88 142.57 158.237 142.57H158.265Z" fill="white"/>
<g opacity="0.25">
<path fill-rule="evenodd" clip-rule="evenodd" d="M795.458 392.334C795.411 392.052 795.309 391.783 795.156 391.542C795.004 391.301 794.804 391.093 794.57 390.931C794.335 390.769 794.07 390.655 793.791 390.598C793.512 390.54 793.224 390.539 792.944 390.595C792.664 390.651 792.399 390.763 792.163 390.923C791.928 391.084 791.727 391.291 791.573 391.531C791.419 391.771 791.314 392.039 791.266 392.32C791.218 392.601 791.227 392.889 791.293 393.167L791.567 394.542C791.875 396.081 792.611 397.502 793.69 398.642C794.77 399.782 796.149 400.594 797.669 400.986C799.189 401.378 800.789 401.333 802.285 400.856C803.78 400.38 805.112 399.491 806.125 398.292C806.908 399.22 807.884 399.966 808.985 400.478C810.086 400.99 811.286 401.255 812.5 401.255C813.714 401.255 814.914 400.99 816.015 400.478C817.116 399.966 818.092 399.22 818.875 398.292C819.889 399.491 821.22 400.38 822.716 400.856C824.211 401.333 825.811 401.378 827.331 400.986C828.852 400.594 830.231 399.782 831.31 398.642C832.389 397.502 833.125 396.081 833.434 394.542L833.71 393.167C833.811 392.618 833.693 392.051 833.38 391.589C833.067 391.126 832.584 390.806 832.037 390.696C831.489 390.587 830.921 390.697 830.454 391.004C829.987 391.31 829.66 391.788 829.543 392.334L829.266 393.707C829.08 394.634 828.577 395.468 827.845 396.068C827.113 396.667 826.196 396.994 825.25 396.994C824.304 396.994 823.387 396.667 822.655 396.068C821.923 395.468 821.421 394.634 821.234 393.707L820.968 392.383C820.882 391.89 820.625 391.444 820.242 391.122C819.859 390.801 819.375 390.624 818.875 390.624C818.375 390.624 817.891 390.801 817.508 391.122C817.126 391.444 816.868 391.89 816.782 392.383L816.516 393.707C816.33 394.634 815.827 395.468 815.095 396.068C814.363 396.667 813.446 396.994 812.5 396.994C811.554 396.994 810.637 396.667 809.905 396.068C809.173 395.468 808.671 394.634 808.484 393.707L808.218 392.383C808.131 391.891 807.873 391.446 807.49 391.124C807.108 390.803 806.625 390.627 806.125 390.625C805.625 390.625 805.141 390.802 804.759 391.123C804.376 391.444 804.119 391.89 804.032 392.383L803.766 393.707C803.58 394.634 803.077 395.468 802.345 396.068C801.613 396.667 800.696 396.994 799.75 396.994C798.804 396.994 797.887 396.667 797.155 396.068C796.423 395.468 795.921 394.634 795.734 393.707L795.458 392.334ZM795.458 411.459C795.411 411.177 795.309 410.908 795.156 410.667C795.004 410.426 794.804 410.218 794.57 410.056C794.335 409.894 794.07 409.78 793.791 409.723C793.512 409.665 793.224 409.664 792.944 409.72C792.664 409.776 792.399 409.888 792.163 410.048C791.928 410.209 791.727 410.416 791.573 410.656C791.419 410.896 791.314 411.164 791.266 411.445C791.218 411.726 791.227 412.014 791.293 412.292L791.567 413.667C791.874 415.207 792.61 416.628 793.689 417.769C794.769 418.909 796.148 419.722 797.668 420.114C799.189 420.505 800.789 420.46 802.285 419.983C803.781 419.506 805.112 418.617 806.125 417.417C806.908 418.345 807.884 419.091 808.985 419.603C810.086 420.115 811.286 420.38 812.5 420.38C813.714 420.38 814.914 420.115 816.015 419.603C817.116 419.091 818.092 418.345 818.875 417.417C819.889 418.616 821.22 419.505 822.716 419.981C824.211 420.458 825.811 420.503 827.331 420.111C828.852 419.719 830.231 418.907 831.31 417.767C832.389 416.627 833.125 415.206 833.434 413.667L833.71 412.292C833.811 411.743 833.693 411.176 833.38 410.714C833.067 410.251 832.584 409.931 832.037 409.821C831.489 409.712 830.921 409.822 830.454 410.129C829.987 410.435 829.66 410.913 829.543 411.459L829.266 412.832C829.08 413.759 828.577 414.593 827.845 415.193C827.113 415.792 826.196 416.119 825.25 416.119C824.304 416.119 823.387 415.792 822.655 415.193C821.923 414.593 821.421 413.759 821.234 412.832L820.968 411.508C820.881 411.016 820.623 410.571 820.24 410.249C819.858 409.928 819.375 409.752 818.875 409.75C818.375 409.75 817.891 409.927 817.509 410.248C817.126 410.569 816.869 411.015 816.782 411.508L816.516 412.832C816.33 413.759 815.827 414.593 815.095 415.193C814.363 415.792 813.446 416.119 812.5 416.119C811.554 416.119 810.637 415.792 809.905 415.193C809.173 414.593 808.671 413.759 808.484 412.832L808.218 411.508C808.133 411.015 807.876 410.569 807.493 410.247C807.11 409.925 806.625 409.75 806.125 409.75C805.625 409.75 805.141 409.927 804.759 410.248C804.376 410.569 804.119 411.015 804.032 411.508L803.766 412.832C803.582 413.761 803.08 414.597 802.348 415.198C801.616 415.799 800.698 416.128 799.75 416.128C798.803 416.128 797.885 415.799 797.152 415.198C796.42 414.597 795.919 413.761 795.734 412.832L795.458 411.459Z" fill="white"/>
</g>
<g opacity="0.25">
<path d="M104.497 416.29C104.042 415.579 103.104 415.352 102.307 415.437C101.056 415.579 99.8049 415.608 98.5821 415.295C97.8712 415.181 97.1602 415.295 96.4493 415.21C95.5393 415.039 94.6577 415.01 93.7477 415.067C91.8993 414.868 90.0509 414.669 88.174 414.726C87.0649 414.726 86.2687 414.669 85.0743 414.669C84.4771 414.641 83.823 414.555 83.3112 414.954C82.0315 414.669 80.9793 416.29 81.7471 417.342C81.9462 417.655 82.1452 417.94 82.3443 418.281C83.4818 420.527 84.989 422.717 86.2687 424.907C86.3255 425.02 86.4109 425.134 86.4677 425.248C84.534 426.698 82.6002 428.205 80.7518 429.77C71.6234 427.011 61.329 436.623 55.4993 442.765C49.698 439.524 43.2143 448.339 40.2284 452.491C36.1618 458.463 33.5171 465.288 31.7824 472.255C30.9577 475.469 30.4743 478.511 30.4174 481.924C30.5027 483.431 29.5927 486.076 31.7824 486.36C34.029 486.36 33.3749 483.602 33.5455 482.123C33.5455 480.53 33.7162 478.938 33.9152 477.345C35.5362 468.388 38.7496 459.515 44.3234 452.207C46.3424 449.79 49.9255 445.069 53.338 445.268C50.1246 449.363 47.5652 453.97 45.7168 458.833C40.2284 474.644 55.2434 472.795 58.6559 458.89C60.0777 454.425 59.6227 449.363 57.6321 445.154C62.4949 439.95 70.2868 432.642 77.7659 432.443C74.0405 435.798 67.3009 444.244 68.8649 449.477C70.6565 453.685 76.0312 451.496 78.4768 449.135C82.6002 445.439 87.1218 436.907 83.3965 431.76C84.9037 430.48 86.4677 429.258 88.0602 428.063C88.4015 428.604 88.7427 429.144 89.084 429.713C89.5674 430.367 90.1077 430.935 90.5059 431.646C91.359 433.04 91.6149 435.116 93.179 435.94C94.9421 436.538 95.5109 434.632 95.8805 433.324C96.2502 432.556 96.5062 431.76 96.7905 430.964C97.5868 428.86 99.2362 427.295 100.459 425.447C101.54 423.599 102.734 421.835 103.587 419.845C104.014 418.707 105.436 417.627 104.582 416.319L104.497 416.29ZM55.8121 457.269C54.7315 461.079 52.9399 465.942 48.6174 466.88C48.5037 466.88 48.3615 466.88 48.2762 466.795C45.4324 463.155 52.7977 451.012 55.3571 447.77C56.324 450.813 56.7221 454.14 55.8121 457.24V457.269ZM72.5902 448.709C70.173 448.766 73.2443 443.249 73.7846 442.225C75.633 439.012 78.1071 436.168 80.9224 433.779C83.4818 438.244 77.4815 448.14 72.5618 448.709H72.5902Z" fill="white"/>
</g>
<g opacity="0.25">
<path d="M1015.9 45.7964C1012.93 47.6121 1010.42 50.0293 1008.28 52.7691C1006.07 55.6112 1004.3 58.8793 1003.21 62.3125C1002.15 65.6366 1001.69 69.2623 1002.31 72.7194C1002.87 75.8458 1004.35 78.7276 1006.17 81.2937C1008.04 83.9267 1010.45 86.2129 1013.08 88.0807C1015.66 89.9164 1018.6 91.3844 1021.68 92.1727C1023.2 92.5639 1024.77 92.8202 1026.35 92.8409C1028.01 92.8627 1029.68 92.6356 1031.29 92.2411C1034.59 91.4358 1037.63 89.9026 1040.32 87.8547C1045.58 83.8497 1049.13 77.7867 1050.21 71.2863C1051.29 64.7726 1049.11 58.124 1044.91 53.1163C1040.73 48.1295 1034.7 44.8973 1028.31 43.8255C1026.22 43.4748 1024.14 43.3858 1022.03 43.5843C1019.84 43.7904 1017.7 44.409 1015.67 45.2466C1014.73 45.6337 1014.4 46.8802 1014.83 47.7431C1015.3 48.6981 1016.38 48.9752 1017.32 48.5878C1017.57 48.4844 1017.82 48.3849 1018.08 48.2893C1018.19 48.2484 1018.3 48.2093 1018.4 48.1702C1018.59 48.1041 1018.55 48.1183 1018.28 48.2128C1018.35 48.1881 1018.42 48.1638 1018.49 48.14C1019.01 47.972 1019.52 47.8275 1020.05 47.6995C1021.13 47.4339 1022.24 47.2683 1023.35 47.1908C1023.18 47.2014 1023.02 47.212 1022.85 47.2226C1024.92 47.0905 1027.01 47.31 1029.05 47.7283C1028.88 47.6947 1028.72 47.661 1028.56 47.6274C1030.05 47.941 1031.52 48.3863 1032.94 48.9551C1033.28 49.0913 1033.61 49.2364 1033.95 49.3868C1034.11 49.4619 1034.28 49.5396 1034.44 49.6182C1034.59 49.6895 1035.28 50.0372 1034.67 49.7244C1035.35 50.0703 1036.01 50.4493 1036.65 50.8531C1037.29 51.2559 1037.92 51.6901 1038.52 52.148C1038.81 52.3673 1039.1 52.5943 1039.38 52.8258C1039.52 52.9415 1039.65 53.0593 1039.79 53.178C1039.86 53.2372 1039.93 53.2973 1040 53.3573C1039.52 52.94 1039.87 53.2504 1039.98 53.344C1041.08 54.361 1042.1 55.485 1042.99 56.6919C1043.14 56.8845 1043.28 57.0802 1043.41 57.2772C1043.48 57.3757 1043.55 57.4752 1043.62 57.5747C1043.26 57.0509 1043.52 57.4377 1043.6 57.5546C1043.86 57.9582 1044.11 58.3717 1044.34 58.7914C1044.82 59.6597 1045.24 60.5635 1045.6 61.4902C1045.64 61.603 1045.68 61.7165 1045.72 61.8301C1045.77 61.9625 1045.93 62.4083 1045.72 61.8014C1045.8 62.0313 1045.87 62.263 1045.94 62.4955C1046.09 62.9925 1046.22 63.4961 1046.33 64.0031C1046.55 65.0049 1046.69 66.0242 1046.76 67.0478C1046.75 66.8815 1046.74 66.7153 1046.73 66.549C1046.85 68.3575 1046.69 70.1631 1046.33 71.9373C1046.36 71.7741 1046.39 71.611 1046.43 71.4478C1046.11 72.9619 1045.65 74.4388 1045.05 75.8641C1044.9 76.2063 1044.75 76.5444 1044.59 76.8796C1044.52 77.02 1044.21 77.6323 1044.52 77.0314C1044.42 77.2246 1044.32 77.416 1044.22 77.6065C1043.85 78.2875 1043.44 78.9488 1043.01 79.5922C1042.58 80.2361 1042.11 80.8573 1041.62 81.4582C1041.51 81.6024 1041.39 81.7446 1041.27 81.8861C1041.21 81.957 1041.14 82.027 1041.08 82.0971C1040.85 82.3683 1041.39 81.7517 1041.15 82.0193C1040.88 82.319 1040.6 82.6106 1040.32 82.8967C1039.23 83.9968 1038.03 84.9867 1036.74 85.8558C1037.3 85.4804 1036.66 85.9106 1036.52 85.9975C1036.33 86.1134 1036.15 86.2257 1035.96 86.3363C1035.56 86.5736 1035.15 86.7962 1034.74 87.0083C1033.93 87.4198 1033.1 87.7773 1032.26 88.087C1032.17 88.1192 1032.08 88.1502 1031.99 88.1811C1032.59 87.9713 1032.14 88.131 1032 88.1742C1031.8 88.2422 1031.59 88.3056 1031.38 88.3672C1030.92 88.4997 1030.46 88.6139 1030 88.7158C1029.09 88.9187 1028.15 89.0665 1027.21 89.1274C1027.37 89.1168 1027.54 89.1062 1027.71 89.0955C1026.22 89.1831 1024.74 89.0511 1023.28 88.7535C1023.45 88.7872 1023.61 88.8208 1023.77 88.8545C1022.31 88.5481 1020.89 88.0787 1019.51 87.4854C1019.18 87.3396 1018.84 87.1842 1018.51 87.0235C1018.43 86.9832 1018.35 86.9419 1018.27 86.9006C1018.81 87.1711 1018.48 87.0114 1018.37 86.9507C1018.17 86.8512 1017.98 86.7482 1017.79 86.644C1017.11 86.2687 1016.45 85.8602 1015.8 85.4282C1015.14 84.9931 1014.51 84.5277 1013.9 84.0403C1013.6 83.8061 1013.31 83.5646 1013.03 83.319C1012.95 83.2576 1012.88 83.1955 1012.81 83.1335C1012.54 82.8944 1013.16 83.4424 1012.89 83.1999C1012.72 83.0531 1012.56 82.9036 1012.4 82.7532C1011.27 81.6906 1010.24 80.5308 1009.31 79.2914C1009.18 79.1209 1009.05 78.9481 1008.93 78.7744C1008.86 78.6756 1008.79 78.5759 1008.72 78.476C1008.64 78.3619 1008.39 77.9705 1008.73 78.4965C1008.49 78.122 1008.25 77.7392 1008.03 77.3509C1007.57 76.5667 1007.17 75.752 1006.82 74.9145C1006.74 74.7293 1006.67 74.5423 1006.6 74.3546C1006.56 74.248 1006.52 74.1408 1006.48 74.0335C1006.38 73.7343 1006.65 74.5335 1006.5 74.0881C1006.37 73.6885 1006.26 73.2832 1006.16 72.8748C1005.95 72.0488 1005.82 71.2052 1005.77 70.3564C1005.78 70.5227 1005.79 70.6889 1005.8 70.8552C1005.69 69.0481 1005.83 67.2467 1006.19 65.4736C1006.16 65.6367 1006.12 65.7999 1006.09 65.963C1006.45 64.2566 1006.99 62.5979 1007.68 60.9979C1007.85 60.6108 1008.03 60.2285 1008.21 59.8492C1008.25 59.7543 1008.3 59.6599 1008.35 59.5655C1008.52 59.215 1008.14 59.9685 1008.32 59.6206C1008.43 59.402 1008.55 59.1854 1008.67 58.9696C1009.09 58.2016 1009.55 57.454 1010.03 56.7245C1010.51 56.0038 1011.02 55.3053 1011.55 54.6266C1011.81 54.3057 1012.07 53.9912 1012.33 53.6806C1012.4 53.6035 1012.47 53.5272 1012.53 53.4508C1012.78 53.1651 1012.23 53.7864 1012.48 53.5047C1012.64 53.3305 1012.8 53.159 1012.96 52.9886C1014.06 51.8259 1015.25 50.7554 1016.54 49.8131C1016.76 49.6534 1016.98 49.4991 1017.2 49.3478C1016.68 49.7017 1017.06 49.4447 1017.18 49.369C1017.3 49.2901 1017.43 49.2134 1017.55 49.1373C1018.42 48.6086 1018.88 47.6124 1018.4 46.6408C1017.97 45.7924 1016.77 45.2655 1015.9 45.7964Z" fill="white"/>
<path d="M1040.31 85.9519C1040.98 86.3491 1041.61 86.7988 1042.21 87.2867C1042.36 87.406 1042.5 87.5287 1042.65 87.6523C1042.72 87.7145 1042.79 87.7778 1042.86 87.8411C1042.42 87.4532 1042.7 87.6959 1042.79 87.7816C1043.1 88.0659 1043.41 88.3606 1043.7 88.6603C1044.88 89.8558 1045.95 91.1568 1047 92.4732C1049.08 95.105 1051.03 97.8729 1053.45 100.222C1053.85 100.618 1054.28 100.996 1054.71 101.368C1055.47 102.036 1056.77 101.644 1057.3 100.879C1057.58 100.467 1057.68 99.9487 1057.58 99.4598C1057.48 98.9413 1057.19 98.6226 1056.81 98.2892C1056.71 98.205 1056.44 97.9648 1056.88 98.3585C1056.81 98.2957 1056.74 98.232 1056.67 98.1683C1056.53 98.0399 1056.4 97.9087 1056.26 97.7769C1055.96 97.4867 1055.67 97.1871 1055.38 96.8833C1054.81 96.2826 1054.27 95.6573 1053.74 95.0227C1052.65 93.7109 1051.62 92.3494 1050.57 91.0015C1048.48 88.3045 1046.28 85.5949 1043.49 83.581C1043.14 83.3287 1042.78 83.0938 1042.41 82.8732C1041.54 82.3538 1040.42 82.486 1039.82 83.3622C1039.27 84.161 1039.44 85.4329 1040.31 85.9519Z" fill="white"/>
<path d="M1028.09 52.7976C1024.99 52.3475 1021.96 53.7072 1019.58 55.5979C1017.17 57.5092 1015.3 60.1103 1014.05 62.9061C1013.42 64.3283 1012.96 65.9167 1012.92 67.4802C1012.9 68.4952 1013.6 69.3956 1014.65 69.4689C1015.63 69.5373 1016.62 68.7562 1016.64 67.7401C1016.65 67.2285 1016.72 66.7222 1016.82 66.2211C1016.79 66.3842 1016.75 66.5474 1016.72 66.7106C1016.85 66.1083 1017.03 65.5198 1017.24 64.9429C1017.35 64.6486 1017.47 64.3589 1017.6 64.0723C1017.66 63.9254 1017.73 63.7801 1017.8 63.6353C1017.84 63.5621 1017.87 63.4895 1017.91 63.4168C1017.61 64.0087 1017.81 63.6146 1017.88 63.484C1018.55 62.2335 1019.37 61.0666 1020.3 60.0044C1019.86 60.5139 1020.29 60.0299 1020.39 59.9154C1020.51 59.7903 1020.63 59.6678 1020.75 59.5463C1021.02 59.2844 1021.29 59.0334 1021.57 58.7901C1021.82 58.5679 1022.09 58.3564 1022.36 58.1522C1022.49 58.0511 1022.63 57.9537 1022.77 57.8575C1022.88 57.7797 1023.16 57.5944 1022.65 57.9351C1022.74 57.8741 1022.83 57.8151 1022.92 57.7565C1023.5 57.3976 1024.1 57.0913 1024.73 56.8426C1024.8 56.8134 1024.88 56.786 1024.95 56.7585C1025.26 56.6447 1024.48 56.9151 1024.79 56.812C1024.94 56.7627 1025.1 56.7193 1025.25 56.6781C1025.57 56.5894 1025.9 56.5245 1026.24 56.4764C1026.42 56.4506 1026.6 56.4338 1026.78 56.4208C1026.61 56.4313 1026.45 56.442 1026.28 56.4526C1026.8 56.4204 1027.32 56.4403 1027.83 56.5152C1028.84 56.6611 1029.75 55.7427 1029.82 54.7864C1029.9 53.7163 1029.1 52.9434 1028.09 52.7976Z" fill="white"/>
</g>
<path d="M164.809 202.603C165.14 202.475 165.454 202.609 165.634 202.795C165.74 202.906 165.824 203.062 165.847 203.238C166.066 203.576 165.981 204.053 165.641 204.295L165.64 204.296C165.195 204.611 164.717 204.966 164.245 205.291L164.233 205.298L164.223 205.306C163.637 205.666 163.083 206.069 162.553 206.507C162.379 206.65 162.211 206.786 162.056 206.923C161.296 207.611 160.654 208.394 159.945 209.211L159.945 209.212C159.073 210.288 158.235 211.38 157.589 212.558C157.022 213.617 156.465 214.64 156.04 215.721L156.022 215.767L155.995 215.809C155.995 215.809 155.993 215.812 155.99 215.817C155.987 215.824 155.983 215.834 155.978 215.846C155.967 215.873 155.955 215.906 155.94 215.95C155.917 216.022 155.876 216.158 155.834 216.267C155.792 216.376 155.719 216.541 155.583 216.674C155.422 216.832 155.196 216.921 154.937 216.883L154.931 216.881C154.547 216.818 154.206 216.44 154.286 215.991C154.275 215.97 154.264 215.949 154.255 215.927C154.196 215.779 154.192 215.637 154.201 215.531C154.21 215.425 154.234 215.329 154.252 215.262C154.275 215.176 154.284 215.151 154.295 215.106L154.298 215.093C154.579 214.033 155.02 213.051 155.52 212.115L155.52 212.113C157.054 209.263 159.045 206.542 161.742 204.594C162.437 204.048 163.175 203.419 164.044 202.977C164.272 202.857 164.533 202.714 164.801 202.606L164.809 202.603ZM161.229 193.085C161.298 193.18 161.367 193.276 161.432 193.37L161.628 193.645L161.629 193.647C161.66 193.691 161.69 193.732 161.719 193.772L161.806 193.894L161.812 193.904L161.818 193.912C161.826 193.925 161.838 193.941 161.86 193.97C161.878 193.995 161.906 194.033 161.933 194.074L162.232 194.531L161.886 194.715L161.674 194.851C160.048 195.879 158.436 196.838 156.923 197.959C156.387 198.406 155.831 198.824 155.292 199.235C154.749 199.649 154.22 200.057 153.716 200.494C152.439 201.776 151.179 203.034 150 204.377L149.996 204.381C148.097 206.492 146.185 208.501 144.591 210.78C144.289 211.255 143.997 211.738 143.725 212.23L143.712 212.255L143.696 212.277C143.63 212.37 143.572 212.486 143.494 212.647L143.185 213.279L142.689 212.779C142.643 212.732 142.605 212.685 142.582 212.657C142.555 212.625 142.544 212.613 142.535 212.604L142.527 212.596L142.52 212.588C142.411 212.468 142.314 212.349 142.225 212.242C142.204 212.216 142.186 212.189 142.171 212.163C142.157 212.145 142.143 212.127 142.132 212.112C142.119 212.095 142.108 212.079 142.099 212.068C142.095 212.062 142.091 212.057 142.089 212.054C142.088 212.052 142.087 212.051 142.086 212.05L142.085 212.049L142.084 212.049L142.084 212.048C142.056 212.013 142.03 211.978 142.008 211.95C141.981 211.913 141.96 211.887 141.94 211.863L141.805 211.699L141.604 211.456L141.737 211.17C142.446 209.65 143.301 208.199 144.259 206.822L144.26 206.82C146.006 204.336 147.955 201.938 150.226 199.86L150.23 199.857C152.291 198.008 154.547 196.407 156.871 194.942L156.88 194.937C158.068 194.221 159.305 193.472 160.631 192.916L160.996 192.763L161.229 193.085ZM151.961 190.31C152.19 190.237 152.477 190.233 152.722 190.342C152.86 190.403 153.012 190.514 153.108 190.696C153.206 190.884 153.213 191.089 153.164 191.277L153.16 191.29L153.155 191.305C153.117 191.421 153.054 191.511 152.989 191.581C152.931 191.776 152.782 191.953 152.528 192.005L152.529 192.006C152.321 192.051 152.12 192.105 151.916 192.171L151.904 192.175L151.893 192.177C151.884 192.18 151.872 192.185 151.851 192.194C151.839 192.199 151.827 192.205 151.81 192.213C151.794 192.22 151.772 192.23 151.75 192.24L151.741 192.244L151.732 192.247C151.52 192.333 151.313 192.438 151.085 192.554L150.926 192.644C150.876 192.672 150.825 192.7 150.775 192.728C149.652 193.419 148.618 194.254 147.588 195.129L147.218 195.452C146.08 196.445 144.985 197.448 144.056 198.596L144.051 198.605L143.667 198.282L144.05 198.604C143.321 199.468 142.617 200.376 141.941 201.281C141.733 201.568 141.556 201.796 141.374 202.062L141.373 202.061C141.344 202.104 141.312 202.149 141.294 202.173C141.278 202.195 141.267 202.209 141.259 202.221C141.253 202.474 141.102 202.674 140.904 202.768C140.899 202.77 140.893 202.771 140.887 202.774C140.846 202.858 140.807 202.942 140.766 203.026C140.684 203.194 140.603 203.362 140.521 203.529C140.476 203.64 140.398 203.796 140.268 203.923C140.097 204.089 139.822 204.213 139.497 204.109L139.487 204.106L139.478 204.102C139.342 204.053 139.212 203.97 139.115 203.841C139.019 203.713 138.978 203.573 138.966 203.449C138.945 203.223 139.015 203.005 139.071 202.861C139.13 202.705 139.21 202.546 139.265 202.433C139.294 202.372 139.317 202.323 139.334 202.282C139.348 202.249 139.354 202.232 139.355 202.229L139.364 202.184L139.382 202.143C140.029 200.595 140.94 199.177 141.888 197.85L141.897 197.838L141.907 197.825C143.533 195.821 145.309 193.847 147.457 192.3L147.47 192.292C148.846 191.367 150.384 190.735 151.961 190.309L151.961 190.31Z" fill="white" stroke="white"/>
<g clip-path="url(#clip1_3651_68190)">
<path d="M1235.81 285.591C1235.53 285.801 1235.19 285.755 1234.97 285.623C1234.83 285.544 1234.71 285.416 1234.64 285.253C1234.34 284.985 1234.3 284.502 1234.56 284.179L1234.56 284.177C1234.91 283.756 1235.28 283.287 1235.65 282.848L1235.66 282.839L1235.66 282.829C1236.13 282.327 1236.56 281.791 1236.96 281.229C1237.09 281.045 1237.21 280.87 1237.33 280.696C1237.88 279.832 1238.29 278.907 1238.76 277.931L1238.76 277.93C1239.31 276.662 1239.83 275.387 1240.14 274.08C1240.41 272.909 1240.68 271.775 1240.8 270.621L1240.81 270.571L1240.82 270.524C1240.82 270.523 1240.82 270.52 1240.82 270.515C1240.82 270.507 1240.83 270.497 1240.83 270.483C1240.83 270.455 1240.83 270.42 1240.84 270.374C1240.84 270.298 1240.84 270.155 1240.85 270.039C1240.87 269.923 1240.89 269.745 1240.99 269.581C1241.1 269.385 1241.3 269.24 1241.56 269.209L1241.56 269.209C1241.95 269.168 1242.38 269.443 1242.42 269.896C1242.44 269.914 1242.45 269.931 1242.47 269.95C1242.56 270.077 1242.61 270.212 1242.62 270.318C1242.64 270.422 1242.65 270.521 1242.65 270.591C1242.65 270.68 1242.65 270.706 1242.65 270.752L1242.65 270.766C1242.66 271.862 1242.49 272.925 1242.26 273.961L1242.26 273.963C1241.53 277.117 1240.33 280.268 1238.24 282.859C1237.72 283.569 1237.17 284.371 1236.45 285.028C1236.26 285.203 1236.05 285.41 1235.82 285.586L1235.81 285.591ZM1241.78 293.823C1241.69 293.75 1241.6 293.675 1241.51 293.602L1241.25 293.389L1241.25 293.387C1241.21 293.353 1241.17 293.321 1241.13 293.29L1241.01 293.195L1241 293.188L1241 293.181C1240.98 293.171 1240.97 293.159 1240.94 293.136C1240.92 293.117 1240.88 293.087 1240.84 293.055L1240.43 292.694L1240.72 292.425L1240.89 292.238C1242.18 290.816 1243.48 289.465 1244.65 287.983C1245.05 287.411 1245.47 286.861 1245.88 286.322C1246.3 285.779 1246.7 285.245 1247.07 284.691C1247.96 283.117 1248.84 281.571 1249.63 279.964L1249.63 279.959C1250.9 277.421 1252.21 274.977 1253.15 272.358C1253.31 271.82 1253.47 271.277 1253.6 270.73L1253.61 270.703L1253.62 270.678C1253.65 270.571 1253.68 270.444 1253.71 270.268L1253.84 269.576L1254.45 269.928C1254.51 269.96 1254.56 269.996 1254.59 270.016C1254.62 270.041 1254.64 270.049 1254.65 270.056L1254.66 270.061L1254.67 270.067C1254.8 270.154 1254.93 270.242 1255.04 270.323C1255.07 270.342 1255.1 270.363 1255.12 270.385C1255.13 270.399 1255.15 270.412 1255.17 270.423C1255.18 270.436 1255.2 270.449 1255.21 270.457C1255.22 270.462 1255.22 270.465 1255.23 270.468C1255.23 270.469 1255.23 270.471 1255.23 270.471L1255.23 270.472L1255.23 270.472L1255.23 270.473C1255.27 270.499 1255.3 270.525 1255.33 270.547C1255.37 270.575 1255.39 270.595 1255.42 270.613L1255.59 270.735L1255.85 270.916L1255.8 271.228C1255.52 272.88 1255.08 274.506 1254.52 276.087L1254.51 276.089C1253.49 278.947 1252.24 281.775 1250.6 284.379L1250.6 284.383C1249.1 286.711 1247.35 288.852 1245.49 290.88L1245.49 290.887C1244.53 291.892 1243.54 292.94 1242.4 293.828L1242.09 294.072L1241.78 293.823ZM1251.45 294.048C1251.25 294.18 1250.98 294.259 1250.71 294.219C1250.56 294.196 1250.39 294.13 1250.25 293.98C1250.1 293.824 1250.04 293.628 1250.04 293.434L1250.04 293.42L1250.04 293.405C1250.05 293.283 1250.08 293.179 1250.13 293.094C1250.13 292.891 1250.23 292.681 1250.46 292.564L1250.46 292.563C1250.65 292.465 1250.83 292.359 1251.01 292.242L1251.02 292.235L1251.03 292.23C1251.03 292.225 1251.04 292.217 1251.06 292.202C1251.07 292.194 1251.08 292.186 1251.1 292.174C1251.11 292.162 1251.13 292.147 1251.15 292.131L1251.16 292.125L1251.16 292.119C1251.34 291.981 1251.52 291.825 1251.71 291.653L1251.83 291.524C1251.88 291.483 1251.92 291.443 1251.96 291.402C1252.86 290.44 1253.63 289.361 1254.4 288.245L1254.67 287.835C1255.5 286.576 1256.29 285.319 1256.89 283.967L1256.89 283.957L1257.34 284.167L1256.89 283.957C1257.36 282.932 1257.8 281.87 1258.22 280.819C1258.34 280.486 1258.45 280.22 1258.56 279.915L1258.56 279.916C1258.57 279.866 1258.59 279.815 1258.6 279.787C1258.61 279.762 1258.62 279.745 1258.63 279.732C1258.56 279.486 1258.66 279.253 1258.82 279.111C1258.83 279.107 1258.83 279.104 1258.84 279.1C1258.85 279.008 1258.87 278.916 1258.89 278.825C1258.92 278.641 1258.96 278.458 1258.99 278.275C1259.01 278.156 1259.04 277.985 1259.13 277.828C1259.25 277.622 1259.48 277.43 1259.83 277.445L1259.84 277.445L1259.85 277.446C1259.99 277.458 1260.14 277.504 1260.26 277.602C1260.39 277.7 1260.47 277.825 1260.51 277.941C1260.59 278.153 1260.58 278.382 1260.57 278.536C1260.55 278.702 1260.52 278.876 1260.49 279C1260.48 279.067 1260.47 279.12 1260.47 279.163C1260.46 279.199 1260.46 279.217 1260.46 279.221L1260.46 279.266L1260.46 279.31C1260.24 280.975 1259.74 282.583 1259.17 284.113L1259.17 284.127L1259.16 284.142C1258.12 286.505 1256.93 288.879 1255.27 290.938L1255.26 290.949C1254.18 292.206 1252.86 293.222 1251.45 294.049L1251.45 294.048Z" fill="white" stroke="white"/>
</g>
</g>
<defs>
<clipPath id="clip0_3651_68190">
<rect width="1400" height="486" fill="white"/>
</clipPath>
<clipPath id="clip1_3651_68190">
<rect width="32" height="32" fill="white" transform="translate(1266 294.527) rotate(170.145)"/>
</clipPath>
</defs>
</svg>
