<svg xmlns="http://www.w3.org/2000/svg" width="48" height="48" fill="none" viewBox="0 0 48 48" id="google-meet"><path fill="#00832D" d="M27.1543 23.7486L31.8336 29.0972L38.1257 33.1182L39.2229 23.7842L38.1257 14.656L31.7129 18.1888L27.1543 23.7486Z"></path><path fill="#0066DA" d="M0 32.2514V40.2057C0 42.0242 1.47291 43.4971 3.29143 43.4971H11.2457L12.8914 37.4848L11.2457 32.2514L5.78742 30.6057L0 32.2514Z"></path><path fill="#E94235" d="M11.2457 4L0 15.2457L5.78742 16.8914L11.2457 15.2457L12.864 10.0809L11.2457 4Z"></path><path fill="#2684FC" d="M11.2457 15.2457H0V32.2514H11.2457V15.2457Z"></path><path fill="#00AC47" d="M45.3092 8.76163L38.1257 14.656V33.1182L45.3394 39.0346C46.4201 39.8794 48 39.1086 48 37.7372V10.0343C48 8.64369 46.3844 7.88118 45.3092 8.76163ZM27.1543 23.7486V32.2515H11.2457V43.4972H34.8343C36.6528 43.4972 38.1257 42.0243 38.1257 40.2058V33.1182L27.1543 23.7486Z"></path><path fill="#FFBA00" d="M34.8343 4H11.2457V15.2457H27.1543V23.7486L38.1257 14.656V7.29143C38.1257 5.47291 36.6528 4 34.8343 4Z"></path></svg>