<svg width="140" height="140" viewBox="0 0 140 140" fill="none" xmlns="http://www.w3.org/2000/svg">
<path d="M33.7257 20.0237C30.5943 19.9284 27.4603 20.0653 24.3773 20.6528C22.1444 21.0784 19.8479 21.8914 17.9923 23.2134C16.0715 24.5818 14.4751 26.3122 13.4532 28.444C12.2843 30.8827 11.7567 33.3706 11.3978 36.0282C11.0455 38.6359 10.9624 41.2725 10.9314 43.9004C10.8846 47.8615 10.7099 51.7576 10.1825 55.6895C10.2288 55.3478 10.2752 55.0061 10.3215 54.6644C9.74184 58.9239 8.98594 63.1575 8.48174 67.4276C8.03023 71.2504 7.95792 75.0659 8.01841 78.9095C8.13285 86.1888 8.5222 93.4867 9.43509 100.713C9.87519 104.198 10.3417 107.746 11.2716 111.143C12.074 114.074 13.7352 116.904 16.1185 118.845C20.9342 122.768 27.2493 123.571 33.2897 123.717C36.1551 123.786 39.0218 123.687 41.8865 123.628C45.1891 123.56 48.49 123.614 51.7907 123.737C59.7073 124.032 67.6071 124.669 75.5082 125.223C79.2351 125.484 82.9633 125.732 86.6955 125.907C90.5006 126.086 94.2657 126.003 98.063 125.689C102.127 125.352 106.173 124.833 110.221 124.347C112.16 124.115 114.099 123.89 116.042 123.698C117.217 123.581 118.402 123.495 119.559 123.25C122.705 122.585 125.262 120.595 127.021 117.984C128.803 115.34 129.617 112.039 130.132 108.942C130.912 104.247 131.179 99.485 131.348 94.7364C131.572 88.4339 131.614 82.1254 131.698 75.82C131.75 71.9141 131.809 68.0082 131.888 64.1028C131.974 59.7985 132.146 55.5231 131.75 51.2276C131.371 47.1049 130.669 43.0193 130.257 38.9001C130.056 36.8911 129.974 34.8857 129.947 32.8679C129.926 31.2409 129.732 29.5618 129.268 27.9977C128.685 26.0261 127.596 24.1038 126.033 22.7307C124.424 21.3162 122.5 20.3906 120.427 19.8449C116.151 18.7199 111.529 18.9215 107.146 18.9219C105.023 18.9222 103.252 20.6758 103.252 22.7782C103.252 24.8801 105.023 26.6347 107.146 26.6345C110.473 26.6341 113.836 26.5538 117.142 26.9909C116.797 26.945 116.452 26.899 116.108 26.8532C117.174 27.0005 118.228 27.2103 119.252 27.5452C119.6 27.6593 120.596 28.073 119.16 27.4727C119.389 27.5682 119.612 27.6765 119.832 27.7894C120.047 27.8997 120.255 28.0234 120.46 28.1518C120.561 28.2151 120.659 28.283 120.756 28.3509C121.232 28.6808 119.894 27.6742 120.346 28.0331C120.686 28.303 120.993 28.6115 121.276 28.9393C121.654 29.3778 120.616 28.0694 120.964 28.5353C121.037 28.6329 121.105 28.7341 121.173 28.8352C121.312 29.0427 121.435 29.2607 121.552 29.4811C121.612 29.5949 121.667 29.7115 121.722 29.828C121.981 30.3786 121.309 28.8226 121.536 29.395C121.638 29.6533 121.722 29.9182 121.8 30.1842C121.974 30.7702 122.083 31.3737 122.165 31.9783C122.119 31.6366 122.072 31.2949 122.026 30.9532C122.242 32.6931 122.156 34.4568 122.255 36.2052C122.371 38.2512 122.606 40.2894 122.864 42.322C123.392 46.4717 124.03 50.6088 124.208 54.7929C124.389 59.0293 124.111 63.3025 124.036 67.5409C123.97 71.3021 123.92 75.0636 123.872 78.825C123.803 84.0756 123.747 89.3276 123.566 94.5758C123.431 98.5131 123.238 102.462 122.715 106.37C122.761 106.029 122.808 105.687 122.854 105.345C122.623 107.048 122.325 108.745 121.873 110.406C121.683 111.102 121.461 111.79 121.201 112.464C121.142 112.615 121.081 112.764 121.019 112.913C121.641 111.43 121.345 112.157 121.189 112.493C121.052 112.788 120.903 113.077 120.745 113.361C120.606 113.611 120.455 113.854 120.297 114.092C120.221 114.207 120.141 114.32 120.06 114.432C119.622 115.035 120.806 113.505 120.337 114.078C119.993 114.497 119.606 114.88 119.185 115.223C118.715 115.605 120.193 114.475 119.617 114.889C119.514 114.964 119.408 115.034 119.301 115.103C119.068 115.253 118.825 115.387 118.577 115.511C118.461 115.569 118.343 115.623 118.225 115.675C117.899 115.817 119.469 115.18 118.729 115.457C118.456 115.559 118.176 115.643 117.894 115.718C117.483 115.826 117.063 115.903 116.641 115.96C116.986 115.915 117.332 115.869 117.676 115.823C114.157 116.28 110.609 116.589 107.083 117.013C103.052 117.499 99.0145 117.963 94.9588 118.196C91.2683 118.408 87.6044 118.257 83.9181 118.052C80.0865 117.84 76.2586 117.567 72.4312 117.293C64.5943 116.733 56.7529 116.132 48.8962 115.933C42.9577 115.783 37.006 116.256 31.0738 115.917C30.0223 115.857 28.9733 115.76 27.9292 115.623C28.2741 115.669 28.6191 115.715 28.9643 115.761C27.0136 115.495 25.0833 115.072 23.2554 114.335C24.7144 114.923 23.2261 114.298 22.8636 114.11C22.4402 113.89 22.0322 113.642 21.6356 113.378C21.4782 113.272 21.3251 113.161 21.1728 113.049C22.3388 113.908 21.5589 113.342 21.2991 113.12C20.9387 112.811 20.6047 112.473 20.2878 112.121C20.1593 111.978 20.0378 111.829 19.9171 111.68C20.8208 112.799 20.2 112.035 20.0081 111.754C19.7242 111.338 19.4781 110.897 19.2522 110.448C19.1112 110.168 18.777 109.376 19.3195 110.654C19.2139 110.405 19.121 110.151 19.031 109.896C18.8408 109.356 18.6948 108.802 18.5692 108.244C18.0097 105.761 17.5673 103.262 17.2216 100.741C17.268 101.082 17.3144 101.424 17.3607 101.766C16.561 95.8524 16.1589 89.888 15.9382 83.9278C15.8358 81.163 15.7819 78.3964 15.7759 75.6298C15.7685 72.232 16.0625 68.855 16.5141 65.489C16.4678 65.8307 16.4214 66.1724 16.3751 66.5141C17.1908 60.521 18.368 54.5669 18.6497 48.514C18.8438 44.3457 18.6246 40.1787 19.1852 36.0288C19.1389 36.3705 19.0925 36.7122 19.0462 37.054C19.2593 35.5232 19.5704 34.0038 20.098 32.5467C20.1493 32.405 20.2045 32.2646 20.2602 32.1246C20.4011 31.7808 20.3131 31.9851 19.9965 32.7374C20.0397 32.6364 20.0854 32.5362 20.1312 32.4361C20.2804 32.1103 20.448 31.7931 20.6266 31.4821C20.7832 31.2097 20.9556 30.9466 21.1364 30.6894C21.6385 29.9747 20.6122 31.3378 20.9028 30.9758C21.0102 30.842 21.1235 30.7128 21.2381 30.585C21.4447 30.3544 21.6668 30.1376 21.8955 29.9287C22.0237 29.8115 22.1572 29.7002 22.2918 29.5903C22.651 29.2971 21.2885 30.3255 22.0097 29.8118C22.5816 29.4044 23.2025 29.0681 23.8422 28.7782C24.558 28.4537 22.9134 29.155 23.4557 28.9385C23.6438 28.8634 23.8347 28.795 24.0259 28.728C24.4278 28.5874 24.8373 28.4691 25.2492 28.3607C26.1172 28.1322 27.0038 27.9769 27.893 27.8568C27.548 27.9026 27.203 27.9486 26.858 27.9945C29.1343 27.7002 31.4344 27.6671 33.7263 27.7368C35.8485 27.8014 37.6198 25.9339 37.6198 23.8805C37.6192 21.729 35.8466 20.0883 33.7257 20.0237Z" fill="#5158F6"/>
<path d="M58.615 27.3232C66.4801 27.3134 74.3587 26.4279 82.1963 27.4524C81.8513 27.4065 81.5062 27.3605 81.1613 27.3147C81.7847 27.3994 82.4063 27.494 83.0267 27.5987C84.0994 27.7795 85.0557 27.7734 86.0268 27.2099C86.8973 26.7048 87.5483 25.8691 87.8161 24.9052C88.3358 23.0339 87.1914 20.5148 85.0967 20.1615C80.6367 19.4094 76.1579 19.1691 71.6399 19.2483C67.2968 19.3245 62.9601 19.6053 58.615 19.6106C56.4926 19.6133 54.7215 21.3628 54.7215 23.4669C54.7215 25.5671 56.4925 27.3258 58.615 27.3232Z" fill="#5158F6"/>
<path d="M92.1268 17.5448C91.593 23.556 92.3946 29.5711 92.4049 35.5867C92.4085 37.6888 94.1732 39.443 96.2984 39.443C98.4181 39.443 100.195 37.6889 100.192 35.5867C100.182 29.5711 99.3799 23.556 99.9138 17.5448C100.1 15.4475 98.0018 13.6885 96.0203 13.6885C93.7572 13.6885 92.3126 15.4516 92.1268 17.5448Z" fill="#5158F6"/>
<path d="M89.0676 40.5448C94.055 40.0034 99.071 39.8587 104.085 39.8561C106.208 39.855 107.979 38.1028 107.979 35.9998C107.979 33.8986 106.208 32.1425 104.085 32.1436C99.071 32.1462 94.055 32.2908 89.0676 32.8322C87.9945 32.9487 87.1056 33.1783 86.3145 33.9617C85.5875 34.6815 85.1741 35.6697 85.1741 36.6885C85.1741 38.617 86.9533 40.7743 89.0676 40.5448Z" fill="#5158F6"/>
<path d="M37.0617 40.5447C39.4757 40.5386 41.8716 40.2643 44.2714 40.0368C47.4251 39.7377 50.5806 39.6122 53.7481 39.7184C55.8703 39.7895 57.6416 37.9105 57.6416 35.8621C57.6416 33.7062 55.8687 32.0769 53.7481 32.0058C50.6411 31.9017 47.547 32.0214 44.453 32.3072C41.9919 32.5346 39.537 32.8257 37.0617 32.8322C34.9394 32.8377 33.1682 34.5822 33.1682 36.6885C33.1682 38.7866 34.9392 40.5503 37.0617 40.5447Z" fill="#5158F6"/>
<path d="M42.0695 16.8563C41.6435 20.2836 41.4863 23.7173 41.648 27.167C41.7799 29.9755 42.0642 32.7728 42.0695 35.5868C42.0734 37.6889 43.8376 39.4431 45.963 39.4431C48.0825 39.4431 49.8604 37.689 49.8565 35.5868C49.8513 32.8318 49.5852 30.091 49.4436 27.3417C49.2631 23.8352 49.4233 20.3402 49.8565 16.8563C49.975 15.9031 49.3699 14.7771 48.7161 14.1295C47.9893 13.4095 46.9916 13 45.963 13C44.9344 13 43.9367 13.4096 43.2099 14.1295C42.4113 14.9204 42.2022 15.7895 42.0695 16.8563Z" fill="#5158F6"/>
<path d="M17.0381 59.6884C34.922 60.2371 52.8151 59.8268 70.703 59.8262C88.4149 59.8255 106.126 59.6942 123.838 59.6886C124.207 59.6886 124.575 59.6884 124.943 59.6884C127.066 59.6884 128.837 57.9344 128.837 55.8322C128.837 53.7301 127.066 51.9759 124.943 51.9759C107.221 51.9764 89.4983 52.1064 71.7757 52.1133C53.8886 52.1203 35.9942 52.5191 18.1107 52.008C17.7532 51.9978 17.3956 51.9869 17.0381 51.9759C14.9158 51.9107 13.1446 53.7792 13.1446 55.8322C13.1446 57.9835 14.9172 59.6233 17.0381 59.6884Z" fill="#5158F6"/>
<path d="M32.9391 80.2203C33.0958 80.1981 33.2528 80.1765 33.4096 80.1554C33.0646 80.2012 32.7197 80.2471 32.3745 80.2931C36.509 79.7455 40.6817 79.5147 44.8486 79.383C46.9693 79.3161 48.7421 77.6797 48.7421 75.5267C48.7421 73.4753 46.9708 71.6034 44.8486 71.6705C40.1683 71.8184 35.5073 72.1356 30.869 72.7831C29.9304 72.9143 28.9978 73.7849 28.5421 74.5554C28.0154 75.446 27.8731 76.5316 28.1495 77.5268C28.4172 78.4907 29.0685 79.3264 29.9389 79.8313C30.93 80.4066 31.8495 80.3724 32.9391 80.2203Z" fill="#5158F6"/>
<path d="M32.612 102.658C36.6919 102.171 40.7599 102.648 44.8487 102.658C46.9712 102.664 48.7422 100.9 48.7422 98.8022C48.7422 96.6961 46.9711 94.9511 44.8487 94.9459C40.7599 94.9357 36.6919 94.4588 32.612 94.9459C31.5356 95.0745 30.6561 95.2859 29.8589 96.0754C29.1319 96.7954 28.7185 97.7834 28.7185 98.8022C28.7185 100.714 30.4998 102.911 32.612 102.658Z" fill="#5158F6"/>
<path d="M63.7599 102.383C68.2121 102.377 72.6756 102.126 77.109 102.658C79.221 102.912 81.0025 100.712 81.0025 98.8022C81.0025 97.7835 80.589 96.7954 79.8622 96.0753C79.0647 95.2855 78.1856 95.0751 77.109 94.9459C72.6756 94.4137 68.2121 94.6649 63.7599 94.6704C61.6376 94.673 59.8665 96.4227 59.8665 98.5267C59.8665 100.627 61.6374 102.386 63.7599 102.383Z" fill="#5158F6"/>
<path d="M66.3893 80.2202C70.1148 80.2351 73.8007 80.8831 77.5262 80.898C79.6487 80.9065 81.4197 79.1375 81.4197 77.0417C81.4197 74.9331 79.6486 73.194 77.5262 73.1854C73.8007 73.1705 70.1148 72.5226 66.3893 72.5077C64.2668 72.4991 62.4958 74.2682 62.4958 76.364C62.4958 78.4725 64.2669 80.2118 66.3893 80.2202Z" fill="#5158F6"/>
<path d="M97.5372 81.322C101.452 81.3121 105.315 80.6325 109.23 80.6225C111.353 80.6172 113.124 78.8725 113.124 76.7663C113.124 74.6683 111.353 72.9046 109.23 72.91C105.315 72.9199 101.452 73.5996 97.5372 73.6095C95.4148 73.6148 93.6437 75.3595 93.6437 77.4658C93.6437 79.5638 95.4147 81.3274 97.5372 81.322Z" fill="#5158F6"/>
</svg>
