<svg width="298" height="298" viewBox="0 0 298 298" fill="none" xmlns="http://www.w3.org/2000/svg">
<path d="M269.876 56.9925C270.062 57.1788 270.155 57.2719 270.342 57.4582C270.155 57.2719 269.969 57.0857 269.876 56.8994V56.9925ZM268.572 92.0075C265.965 91.635 263.45 93.125 260.936 93.6838C233.185 100.854 204.968 106.535 177.962 116.313C159.523 123.111 141.177 130.468 123.763 139.688C119.107 142.295 114.544 144.809 109.98 147.51C106.814 149.652 102.81 151.235 100.575 154.401C98.8054 157.288 100.854 161.106 103.927 162.038C106.069 162.689 108.397 162.131 110.539 161.851C85.6748 176.938 62.2072 193.607 40.0435 212.604C37.0635 215.305 34.1766 218.006 31.1966 220.613C28.9616 222.196 26.7266 224.804 27.6579 227.504C27.2854 227.877 26.9129 228.249 26.7266 228.808C26.1679 231.043 26.3541 233.371 26.0747 235.606C25.7954 237.283 25.7954 239.238 27.006 240.542C28.1235 241.659 29.3341 242.125 30.3585 242.125C34.2697 242.125 37.7154 236.538 40.8816 234.303C51.1254 225.176 61.7416 216.423 72.2648 207.669C82.6016 199.288 93.4973 191.558 104.393 183.922C114.078 177.217 124.601 171.629 134.938 165.949C141.922 162.689 149 159.43 155.053 154.681C156.636 153.191 157.847 151.049 157.102 148.814C154.587 139.594 130.747 147.603 124.042 149.373C166.135 126.184 212.511 113.706 259.167 103.089C262.612 101.599 271.366 101.227 271.925 97.0363C272.39 94.8013 270.9 92.1938 268.572 91.9144V92.0075ZM101.32 135.683C103.741 135.683 106.442 133.728 108.49 132.517C116.034 129.071 123.577 125.439 131.027 121.621C158.405 110.912 184.667 97.595 212.045 86.7925C229.739 79.5288 248.457 74.9657 266.337 68.4469C267.641 67.7019 268.107 66.305 268.107 64.9082C271.18 63.2319 272.856 60.9038 269.876 57.0857C268.479 55.7819 266.244 55.4094 264.568 56.5269C264.102 56.8063 263.73 57.1788 263.45 57.5513C238.027 63.6044 212.697 69.9369 188.019 78.225C170.325 84.0919 152.445 90.0519 136.148 99.3644C131.865 101.879 127.674 104.393 123.484 107.094C121.528 108.304 120.969 110.912 122.087 112.868C117.337 115.475 112.681 118.269 108.118 121.249C104.3 124.136 94.801 127.581 97.8741 133.728C98.8054 135.124 100.016 135.683 101.227 135.683H101.32Z" fill="#5158F6"/>
</svg>
