<svg width="48" height="48" viewBox="0 0 48 48" fill="none" xmlns="http://www.w3.org/2000/svg">
<ellipse cx="24" cy="23.5" rx="24" ry="16.5" fill="#787DF9"/>
<path d="M47.201 22.9133C47.201 31.1425 36.8185 37.8383 24.0556 37.8383C11.2927 37.8383 0.910156 31.1425 0.910156 22.9133C0.910156 14.6841 11.2927 7.98828 24.0556 7.98828C36.8185 7.98828 47.201 14.6841 47.201 22.9133Z" fill="#5158F6"/>
<path d="M16.3579 18.2127C16.3579 18.2127 16.1046 18.4682 16.2566 18.6727C16.6111 19.1327 17.7253 19.3883 18.8902 19.1327C19.5486 18.9794 20.4602 18.2638 21.2706 17.5993C22.1822 16.8837 23.0938 16.117 24.0055 15.8615C24.9678 15.5548 25.5755 15.7081 25.9807 15.8104C26.4365 15.9637 26.943 16.2704 27.804 16.8837C29.374 18.0593 35.7555 23.6818 36.8697 24.653C37.7307 24.2441 41.6811 22.5573 47.0496 21.3306C46.5938 18.4683 44.8718 15.8104 42.2382 13.6636C38.5917 15.197 34.0841 16.0148 29.6779 13.8681C29.6779 13.8681 27.2975 12.7435 24.9171 12.7947C21.4225 12.8969 19.9538 14.3792 18.3331 16.0148L16.3579 18.2127Z" fill="white" fill-opacity="0.4"/>
<path d="M36.616 25.2665C36.5654 25.2154 29.1204 18.6729 27.449 17.395C26.4868 16.6794 25.9296 16.475 25.3725 16.3728C25.0686 16.3216 24.6634 16.3728 24.3596 16.475C23.5999 16.6795 22.5363 17.395 21.6247 18.1106C20.6624 18.8773 19.8014 19.5929 18.9911 19.7463C17.9275 20.0018 16.6613 19.6952 16.1042 19.2862C15.851 19.1329 15.6991 18.9285 15.5978 18.724C15.3952 18.2129 15.8004 17.804 15.851 17.7529L17.8769 15.5039L18.5859 14.7883C17.9275 14.8905 17.3197 15.0439 16.712 15.1972C15.9523 15.4016 15.2433 15.6061 14.5342 15.6061C14.2303 15.6061 12.6096 15.3505 12.3058 15.2483C10.4318 14.7372 8.81111 14.2261 6.38008 13.1016C3.49323 15.2994 1.51805 18.0084 0.960938 21.0241C1.36611 21.1263 2.07513 21.3308 2.32837 21.3819C8.9124 22.8642 10.9383 24.3976 11.3435 24.7042C11.7486 24.2442 12.3057 23.9886 12.9641 23.9886C13.6732 23.9886 14.3316 24.3465 14.7367 24.9087C15.0913 24.602 15.6484 24.3465 16.3068 24.3465C16.6107 24.3465 16.9145 24.3975 17.2691 24.4998C18.0288 24.7553 18.3833 25.2665 18.5859 25.7265C18.8392 25.6243 19.143 25.522 19.4975 25.522C19.852 25.522 20.2066 25.6243 20.6118 25.7776C21.8273 26.2887 22.0299 27.5155 21.9286 28.4355H22.1818C23.6506 28.4355 24.8154 29.6111 24.8154 31.0934C24.8154 31.5534 24.7141 31.9623 24.5115 32.3201C24.9167 32.5246 25.879 33.0357 26.7906 32.9334C27.4997 32.8312 27.7529 32.6268 27.8542 32.4734C27.9048 32.3712 28.0061 32.269 27.9048 32.1667L26.0309 30.0711C26.0309 30.0711 25.727 29.7644 25.8283 29.6622C25.9296 29.56 26.1322 29.7133 26.2842 29.8156C27.2464 30.6334 28.3606 31.809 28.3606 31.809C28.3606 31.809 28.4619 31.9623 28.8671 32.0645C29.2216 32.1157 29.8801 32.0645 30.3359 31.7067C30.4372 31.6045 30.5891 31.5023 30.6397 31.4C31.0956 30.7867 30.5891 30.1733 30.5891 30.1733L28.4113 27.7199C28.4113 27.7199 28.1075 27.4132 28.2087 27.311C28.31 27.2088 28.5126 27.3621 28.6645 27.4644C29.3736 28.0266 30.3359 29.0489 31.2475 29.9689C31.4501 30.1223 32.2604 30.6333 33.324 29.9178C33.9824 29.4577 34.1344 28.9466 34.0837 28.5377C34.0331 28.0266 33.6279 27.6177 33.6279 27.6177L30.6904 24.602C30.6904 24.602 30.3865 24.3464 30.4878 24.1931C30.5891 24.0909 30.7917 24.2442 30.9436 24.3465C31.9059 25.1643 34.4382 27.5155 34.4382 27.5155C34.4889 27.5155 35.3499 28.1799 36.4641 27.4644C36.8692 27.2088 37.1225 26.851 37.1225 26.391C37.1732 25.7265 36.616 25.2665 36.616 25.2665Z" fill="white" fill-opacity="0.4"/>
<path d="M22.2827 29.0988C21.8269 29.0988 21.3204 29.3544 21.2698 29.3544C21.2191 29.3544 21.2697 29.15 21.3204 29.0477C21.371 28.9455 21.9788 27.1055 20.5101 26.441C19.3958 25.9299 18.6868 26.4921 18.4842 26.7477C18.4336 26.7988 18.3829 26.7988 18.3829 26.7477C18.3829 26.441 18.231 25.5209 17.218 25.2143C15.7999 24.7542 14.939 25.7765 14.6857 26.1343C14.5844 25.3165 13.926 24.7031 13.0651 24.7031C12.1534 24.7031 11.4443 25.4187 11.4443 26.3387C11.4443 27.2588 12.1534 27.9744 13.0651 27.9744C13.5209 27.9744 13.8754 27.821 14.1793 27.5144V27.5655C14.1286 27.9744 13.9767 29.4567 15.4961 30.0189C16.1038 30.2745 16.6103 30.07 17.0661 29.7633C17.2181 29.6611 17.218 29.7122 17.218 29.8144C17.1674 30.1722 17.2181 30.99 18.3829 31.45C19.2439 31.8078 19.7504 31.4501 20.0542 31.1434C20.2062 30.99 20.2568 31.0412 20.2568 31.2456C20.3075 32.319 21.2191 33.1879 22.2827 33.1879C23.3969 33.1879 24.3085 32.2679 24.3085 31.1434C24.3085 30.0189 23.3969 29.0988 22.2827 29.0988Z" fill="white" fill-opacity="0.4"/>
<path d="M36.9194 24.499C34.6403 22.5056 29.373 17.8543 27.9043 16.7809C27.094 16.1675 26.5369 15.8098 26.0304 15.7075C25.8278 15.6564 25.5239 15.5542 25.1187 15.5542C24.7642 15.5542 24.3591 15.6053 23.9539 15.7586C23.0423 16.0653 22.1306 16.7809 21.219 17.4965L21.1684 17.5476C20.358 18.2121 19.497 18.8765 18.8386 19.0299C18.5348 19.081 18.2815 19.1321 17.9776 19.1321C17.2686 19.1321 16.6102 18.9276 16.3569 18.621C16.3063 18.5698 16.3569 18.4676 16.4582 18.3654L18.4841 16.1676C20.0541 14.5831 21.5229 13.1007 24.9668 12.9985H25.1187C27.2459 12.9985 29.3731 13.9696 29.6263 14.0719C31.6521 15.043 33.678 15.5542 35.7545 15.5542C37.9323 15.5542 40.1608 14.9919 42.4905 13.9186C42.2373 13.7141 41.9334 13.4585 41.6802 13.2541C39.6037 14.1741 37.6791 14.583 35.7545 14.583C33.8299 14.583 31.9054 14.123 30.0315 13.203C29.9302 13.1519 27.6004 12.0273 25.1187 12.0273H24.9162C22.0294 12.0785 20.4087 13.1007 19.3451 14.0208C18.2815 14.0208 17.3699 14.3274 16.5595 14.5319C15.8505 14.7364 15.1921 14.8897 14.5843 14.8897H13.8246C13.1156 14.8897 9.57031 14.0208 6.78475 12.8963C6.48087 13.1008 6.22767 13.3052 5.92379 13.5096C8.86128 14.7364 12.4572 15.6564 13.5714 15.7586C13.8753 15.7586 14.2298 15.8097 14.5843 15.8097C15.344 15.8097 16.0531 15.6053 16.8128 15.4009C17.2686 15.2986 17.7244 15.1453 18.1802 15.043L17.775 15.452L15.7491 17.701C15.5972 17.8543 15.2427 18.3143 15.4453 18.8254C15.5466 19.0299 15.7491 19.2343 16.0024 19.4388C16.5088 19.7454 17.3699 20.0011 18.1802 20.0011C18.4841 20.0011 18.7879 19.9499 19.0412 19.8988C19.9022 19.6943 20.8138 18.9788 21.7255 18.2121C22.4851 17.5987 23.5487 16.832 24.359 16.5764C24.6123 16.5253 24.8655 16.4742 25.1187 16.4742H25.3213C25.8784 16.5253 26.3849 16.7298 27.3472 17.4454C29.0185 18.7232 36.4635 25.2657 36.5142 25.3168C36.5142 25.3168 36.97 25.7257 36.97 26.4413C36.97 26.7991 36.7168 27.1569 36.3623 27.4125C36.0584 27.6169 35.7039 27.7191 35.4 27.7191C34.8935 27.7191 34.539 27.4636 34.539 27.4636C34.539 27.4636 31.956 25.1123 31.0444 24.2945C30.8925 24.1412 30.7405 24.0389 30.5886 24.0389C30.4873 24.0389 30.4366 24.0901 30.386 24.1412C30.234 24.3457 30.386 24.6012 30.5886 24.7545L33.5767 27.7702C33.5767 27.7702 33.9312 28.128 33.9819 28.588C33.9819 29.0992 33.7793 29.5081 33.2729 29.8148C32.9183 30.0703 32.5638 30.1725 32.2092 30.1725C31.7534 30.1725 31.4496 29.9681 31.3483 29.917L30.8924 29.5081C30.1327 28.7414 29.3224 27.9236 28.7147 27.4636C28.5627 27.3613 28.4108 27.208 28.2589 27.208C28.2082 27.208 28.1069 27.208 28.0563 27.3102C28.0056 27.3613 27.955 27.5147 28.1069 27.7702C28.1575 27.8725 28.2589 27.9236 28.2589 27.9236L30.4366 30.377C30.4366 30.377 30.8925 30.9392 30.4873 31.3993L30.386 31.5015L30.1834 31.7059C29.8289 32.0126 29.3224 32.0638 29.1198 32.0638H28.816C28.6134 32.0126 28.4614 31.9615 28.3601 31.8593C28.2588 31.7059 27.1446 30.6326 26.233 29.8659C26.1317 29.7636 25.9797 29.6614 25.8278 29.6614C25.7772 29.6614 25.6758 29.7125 25.6252 29.7637C25.4733 29.9681 25.7265 30.2748 25.8278 30.377L27.7018 32.4215C27.7018 32.4215 27.7017 32.4727 27.6511 32.5749C27.6004 32.6771 27.3472 32.8815 26.6888 32.9838H26.4356C25.7265 32.9838 25.0174 32.626 24.6123 32.4215C24.7642 32.0637 24.8655 31.6549 24.8655 31.246C24.8655 29.7126 23.65 28.4858 22.1306 28.4858H22.0293C22.08 27.7702 21.9787 26.4413 20.6113 25.8791C20.2061 25.7257 19.8515 25.6235 19.4464 25.6235C19.1425 25.6235 18.8893 25.6746 18.5854 25.7768C18.2815 25.2146 17.8257 24.8057 17.2179 24.6012C16.8634 24.499 16.5595 24.4479 16.205 24.4479C15.6479 24.4479 15.1414 24.6012 14.6856 24.959C14.4656 24.6856 14.1875 24.4656 13.8719 24.3152C13.5563 24.1648 13.2113 24.0879 12.8623 24.0901C12.2546 24.0901 11.6468 24.3456 11.2417 24.7545C10.6846 24.2945 8.40543 22.8634 2.27721 21.4322C1.97333 21.3811 1.31495 21.1767 0.909777 21.0233C0.85913 21.33 0.808459 21.6878 0.757812 22.0456C0.757812 22.0456 1.87207 22.3011 2.1253 22.3522C8.35482 23.7323 10.4313 25.2146 10.7858 25.4701C10.6845 25.7768 10.6339 26.0835 10.6339 26.3902C10.6339 27.7191 11.6974 28.7414 12.9636 28.7414C13.1155 28.7414 13.2675 28.7414 13.4194 28.6903C13.622 29.6614 14.2298 30.377 15.192 30.7348C15.4959 30.837 15.7491 30.8881 16.0024 30.8881C16.1543 30.8881 16.357 30.8881 16.5595 30.837C16.7115 31.297 17.1166 31.8593 18.0282 32.2171C18.3321 32.3704 18.636 32.4215 18.9399 32.4215C19.1931 32.4215 19.4464 32.3704 19.649 32.2682C20.0541 33.2905 21.0671 34.006 22.1813 34.006C22.941 34.006 23.65 33.6994 24.1565 33.1371C24.6123 33.3927 25.5239 33.8527 26.4862 33.8527H26.8407C27.803 33.7505 28.2082 33.3416 28.4108 33.086C28.4614 33.0349 28.4614 32.9838 28.5121 32.9327C28.7147 32.9838 28.9679 33.0349 29.2718 33.0349C29.7782 33.0349 30.2847 32.8815 30.7912 32.4726C31.2976 32.1148 31.6521 31.6037 31.6521 31.1437C31.8041 31.1948 32.0067 31.1948 32.1586 31.1948C32.6651 31.1948 33.2222 31.0415 33.7286 30.6837C34.6909 30.0703 34.8429 29.2014 34.8429 28.6903C34.9948 28.7414 35.1974 28.7414 35.3494 28.7414C35.8558 28.7414 36.3623 28.588 36.8181 28.2814C37.4259 27.8725 37.7804 27.3102 37.831 26.6458C37.8817 26.1857 37.7297 25.7257 37.5271 25.3168C39.1478 24.6012 42.7943 23.2722 47.1499 22.25C47.1499 21.8922 47.0993 21.5855 46.998 21.2277C41.7815 22.3522 37.8817 24.039 36.9194 24.499ZM22.2826 33.0349C21.2696 33.0349 20.4593 32.2171 20.4087 31.1948C20.4087 31.0926 20.4086 30.8881 20.2061 30.8881C20.1048 30.8881 20.0541 30.9393 19.9528 30.9904C19.7502 31.1948 19.4463 31.3993 19.0412 31.3993C18.8386 31.3993 18.636 31.3482 18.4334 31.246C17.3699 30.7859 17.3192 30.0703 17.3699 29.7637C17.3699 29.6614 17.3699 29.6103 17.3192 29.5592L17.2685 29.5081H17.2179C17.1673 29.5081 17.1166 29.5081 17.0153 29.6103C16.7114 29.8147 16.4076 29.917 16.1037 29.917C15.9518 29.917 15.7492 29.8659 15.5972 29.8148C14.1791 29.2525 14.2804 27.9236 14.3817 27.5147C14.3817 27.4124 14.3817 27.3613 14.3311 27.3102L14.2298 27.208L14.1285 27.3102C13.8246 27.5658 13.4701 27.7191 13.1156 27.7191C12.3052 27.7191 11.6468 27.0546 11.6468 26.2368C11.6468 25.419 12.3052 24.7545 13.1156 24.7545C13.8246 24.7545 14.483 25.3168 14.5843 26.0324L14.635 26.4413L14.8375 26.0835C14.8375 26.0324 15.4453 25.1124 16.5595 25.1635C16.7621 25.1635 16.9647 25.2146 17.2179 25.2657C18.0789 25.5212 18.2308 26.3391 18.2308 26.6458C18.2308 26.8502 18.3828 26.8502 18.3828 26.8502C18.4334 26.8502 18.5347 26.7991 18.5347 26.748C18.6866 26.5946 19.0412 26.2879 19.5983 26.2879C19.8516 26.2879 20.1048 26.3391 20.4087 26.4924C21.7761 27.1058 21.1684 28.8436 21.1684 28.8947C21.0671 29.2014 21.0164 29.3036 21.1684 29.4058H21.2696C21.3203 29.4058 21.4216 29.4058 21.5229 29.3547C21.7254 29.3036 21.9787 29.2014 22.2319 29.2014C23.2448 29.2014 24.1058 30.0703 24.1058 31.0926C24.1565 32.2171 23.2955 33.0349 22.2826 33.0349Z" fill="#5158F6"/>
</svg>
