<svg width="312" height="312" viewBox="0 0 312 312" fill="none" xmlns="http://www.w3.org/2000/svg">
<path d="M122.769 265.83L91.7365 265.545L63.9781 265.119L37.7857 264.834C22.5544 264.834 27.5365 266.827 42.4834 268.536C63.9373 270.933 85.5494 271.599 107.11 270.528L149.958 268.25C155.697 268.062 161.412 267.395 167.04 266.256C174.443 264.692 163.338 264.976 150.385 265.261L122.769 265.83ZM252.307 264.976L232.52 264.122C221.275 263.695 207.752 263.409 197.93 263.837C178.427 264.548 210.741 270.955 242.2 269.247C273.66 267.539 271.239 269.247 280.635 267.253C285.332 266.114 278.215 265.687 269.958 265.403L252.307 264.976Z" fill="#1E1D1C"/>
<path d="M46.1842 140.277C48.3069 140.277 50.0277 138.556 50.0277 136.434C50.0277 134.311 48.3069 132.59 46.1842 132.59C44.0617 132.59 42.3408 134.311 42.3408 136.434C42.3408 138.556 44.0617 140.277 46.1842 140.277ZM280.209 82.7679C286.261 82.7679 291.169 77.8605 291.169 71.8069C291.169 65.7533 286.261 60.846 280.209 60.846C274.154 60.846 269.248 65.7533 269.248 71.8069C269.248 77.8605 274.154 82.7679 280.209 82.7679ZM258.997 146.968L263.552 149.815C264.554 150.753 265.882 151.264 267.254 151.238C268.59 151.129 269.859 150.603 270.88 149.734C271.901 148.866 272.625 147.699 272.948 146.398C273.053 145.758 273.245 145.136 273.518 144.548L273.945 143.836H274.087C273.945 144.121 273.945 144.121 274.229 144.263C274.993 144.727 275.804 145.108 276.649 145.402L279.354 146.968L289.461 152.377C290.742 152.946 294.444 151.238 292.735 150.384L282.628 144.69C279.781 143.267 276.507 140.562 273.09 141.558C269.674 142.555 269.532 144.833 268.677 147.252C267.824 149.672 267.682 148.534 267.682 149.103C267.682 149.672 267.538 149.245 267.824 148.961C268.108 148.676 268.393 148.676 267.824 148.533L266.969 147.964L262.272 144.975C261.133 144.263 257.289 145.971 258.997 146.968ZM248.748 111.523L258.286 109.957C259.567 109.672 261.133 108.96 262.13 110.241C262.465 111.122 262.946 111.94 263.552 112.661C266.541 115.935 274.087 115.081 276.507 111.38L272.663 112.092C273.713 113.241 274.988 114.161 276.408 114.798C277.828 115.434 279.364 115.773 280.92 115.793C283.054 115.793 287.325 115.081 287.609 112.377C287.895 109.672 283.767 111.38 283.481 112.804C283.197 114.227 281.062 113.231 280.492 113.088C278.954 112.543 277.582 111.612 276.507 110.384C275.887 110.021 275.158 109.894 274.452 110.024C273.747 110.155 273.112 110.536 272.663 111.095C271.524 112.946 267.966 112.092 266.969 110.526C265.972 108.96 265.83 107.964 264.264 107.394C262.699 106.825 259.567 107.252 257.431 107.679L249.317 108.96C248.464 109.103 247.04 109.53 246.898 110.526C246.756 111.523 248.037 111.665 248.748 111.523ZM122.199 56.0061C102.697 100.704 101.701 170.313 109.103 218.998C109.103 218.998 135.153 192.092 149.103 163.053L162.912 134.014C162.912 134.014 178.855 167.894 195.937 184.834C206.411 195.093 218.538 203.514 231.81 209.744C224.264 167.182 219.567 98.7111 238.073 60.4189L122.199 56.0061Z" fill="#5158F6"/>
<path d="M118.213 250.598C118.196 250.818 118.094 251.022 117.929 251.168L116.79 252.876C114.943 254.596 112.69 255.82 110.242 256.434L104.121 257.573L96.5763 258.428C90.8095 259.072 85.0122 259.405 79.2096 259.423H69.6722L65.4017 259.139C64.4381 258.98 63.5449 258.534 62.8394 257.859C61.4159 256.576 60.4195 253.873 59.5654 250.74L58.9959 248.463C58.8004 247.811 58.6576 247.145 58.5689 246.471C58.5466 246.038 58.5947 245.605 58.7114 245.188C58.7895 244.743 58.9334 244.311 59.1383 243.908C59.8082 242.765 60.6214 241.713 61.5582 240.777C62.5844 239.799 63.6785 238.895 64.8323 238.072C67.1962 236.53 69.7913 235.377 72.5192 234.655C77.5943 233.338 82.9667 233.79 87.7506 235.936C90.8653 237.338 93.7459 239.21 96.2916 241.488C97.8575 242.769 98.4269 242.911 98.4269 241.915C97.7951 239.714 96.6204 237.707 95.0105 236.078C91.751 232.595 87.6244 230.04 83.0531 228.676C76.2335 226.894 68.9985 227.653 62.6971 230.811C60.9257 231.801 59.2144 232.894 57.5724 234.086C55.8789 235.524 54.3511 237.147 53.0174 238.925C52.288 239.999 51.668 241.144 51.1667 242.341C50.7591 243.727 50.5671 245.168 50.5973 246.613C50.5903 247.859 50.7338 249.101 51.0244 250.313C51.3091 251.31 51.4514 252.307 51.7361 253.303C52.2992 255.634 53.1604 257.882 54.2984 259.993C55.5814 262.721 57.8053 264.894 60.5618 266.114C63.0319 267.183 65.7001 267.716 68.3911 267.68H75.0815C84.1538 267.485 93.1968 266.581 102.128 264.975C105.85 264.312 109.515 263.361 113.089 262.128C116.644 260.923 119.73 258.633 121.915 255.581C123.599 252.907 124.668 249.892 125.046 246.755C125.503 244.219 125.694 241.643 125.616 239.068C125.546 234.911 125.118 230.767 124.335 226.684C123.907 224.975 123.623 223.409 123.196 221.986C122.769 220.562 122.199 218.143 121.772 216.434L116.363 217.431L112.947 218.001L107.253 218.854L102.27 219.567L99.1386 220.135L96.0069 220.704C96.7187 222.982 97.7151 225.545 98.5692 227.822C99.4233 230.1 100.42 231.666 100.562 230.242C100.513 229.046 100.37 227.857 100.135 226.684C100.15 226.298 100.102 225.914 99.9927 225.545V224.833C99.875 224.368 99.8271 223.888 99.8504 223.409H102.555L108.391 222.84L114.655 222.128L117.502 221.843H118.356C118.661 222.968 118.899 224.108 119.068 225.261C119.495 227.253 119.779 229.245 120.064 231.239C120.505 234.637 120.601 238.071 120.349 241.488C120.228 243.848 119.846 246.187 119.21 248.463C118.936 249.2 118.603 249.915 118.213 250.598ZM249.318 237.502C249.318 237.502 249.603 238.641 250.314 240.635L251.453 244.193C251.69 244.633 251.835 245.118 251.881 245.616C251.757 245.79 251.662 245.982 251.595 246.185L251.026 246.755L250.172 247.751L248.179 249.602C246.517 250.872 244.7 251.925 242.77 252.734C238.114 254.68 233.15 255.788 228.108 256.008C222.556 256.578 216.72 256.72 212.592 254.442C208.464 252.165 205.901 246.898 206.613 242.627C206.895 240.399 208.015 238.363 209.745 236.933C211.644 235.145 213.803 233.657 216.15 232.52C220.848 230.242 225.688 229.531 229.389 231.097C231.033 231.705 232.571 232.571 233.944 233.658C234.869 234.44 235.727 235.296 236.507 236.221C237.646 237.502 238.215 237.788 238.357 236.791C238.289 234.642 237.485 232.582 236.079 230.955C234.845 229.386 233.352 228.038 231.666 226.969C229.471 225.624 226.978 224.842 224.408 224.691C221.381 224.475 218.342 224.812 215.439 225.687C212.208 226.716 209.14 228.202 206.329 230.1C204.703 231.25 203.262 232.642 202.057 234.228C200.703 235.968 199.689 237.949 199.068 240.065C197.976 244.583 198.583 249.346 200.777 253.445C201.908 255.546 203.348 257.465 205.048 259.139L208.037 261.275C209.07 261.911 210.166 262.436 211.311 262.841C215.639 264.395 220.266 264.932 224.833 264.406C229.155 264.209 233.446 263.59 237.646 262.556C242.076 261.4 246.268 259.472 250.031 256.862C251.806 255.579 253.43 254.099 254.87 252.449C255.682 251.58 256.398 250.626 257.005 249.602C257.779 248.319 258.127 246.825 258.002 245.332C257.974 244.189 257.681 243.068 257.147 242.057C256.877 241.227 256.544 240.418 256.15 239.638C255.581 238.072 254.87 236.649 254.3 235.225C251.881 229.389 249.745 224.548 247.895 220.42C246.045 216.292 244.337 212.734 243.054 209.743L240.777 205.046L239.638 202.627L239.068 201.488V201.202H238.926L238.357 201.488L231.81 205.758C230.304 206.685 228.876 207.733 227.538 208.89L223.553 212.449L222.414 213.587L221.844 214.299L221.561 214.584H221.417V214.868L222.272 218.428C223.411 223.409 223.98 222.128 223.98 217.431C223.98 216.72 224.122 216.576 224.122 216.15V215.865H224.264L224.691 215.438L225.403 215.154C225.673 214.838 226.014 214.595 226.4 214.442L228.535 212.876L233.374 209.743L234.657 208.89L235.226 208.463H235.796L236.791 208.035H237.076L237.36 208.605L237.93 209.887L240.493 215.865C242.201 219.851 243.767 223.553 245.048 226.969C247.609 232.947 249.318 237.502 249.318 237.502ZM144.122 79.636C144.755 80.4461 145.326 81.3026 145.83 82.1983L146.257 82.7677C146.257 82.91 146.257 83.0524 146.115 82.91H145.83L145.118 82.6253H144.407L142.698 82.3406L139.424 81.7712C135.357 81.244 131.236 81.2919 127.182 81.9136C124.193 82.483 123.196 83.1947 123.481 83.7641C123.766 84.3335 125.474 84.7606 128.036 85.1876L137.716 86.7535L143.695 88.177H144.407L145.972 88.604L149.389 89.7428L156.221 91.8781L155.795 91.024L155.225 89.8852L154.229 87.8923L153.232 86.0417L152.805 85.0453L152.236 84.0488L150.527 81.3442L150.101 80.6324L149.816 80.3477H149.673L149.104 79.636L146.826 77.216C145.626 75.9895 144.342 74.848 142.983 73.7996C141.267 72.4437 139.459 71.2071 137.574 70.0985C135.471 68.6992 132.98 68.0016 130.456 68.1056C128.89 68.1056 129.175 68.675 130.456 69.3868C131.737 70.0985 133.73 71.095 135.866 72.5185C137.942 73.8609 139.895 75.3853 141.702 77.0737L143.41 78.9242L144.122 79.636ZM189.389 90.7392L186.969 91.3086L184.122 92.1627L182.272 93.1592C181.374 93.582 180.592 94.2171 179.994 95.0097L184.406 96.8603C184.75 96.0123 185.18 95.2015 185.688 94.4403C186.462 93.422 187.319 92.4697 188.25 91.5933C190.613 89.6075 193.084 87.7541 195.652 86.0417L199.78 83.1947C200.993 82.2433 202.279 81.3867 203.624 80.6324C206.329 78.9242 208.89 77.643 211.311 76.3619C213.731 75.0807 216.008 73.3725 215.154 73.0878C214.3 72.8031 211.595 72.9455 207.609 74.0843C205.316 74.7054 203.078 75.5148 200.919 76.5042L197.218 78.6395L193.66 80.9171C190.887 82.5266 188.267 84.3848 185.83 86.4687C184.498 87.6594 183.305 88.9964 182.272 90.4545C181.018 92.0223 180.185 93.8841 179.851 95.8638L178.57 104.263L183.837 97.7144C183.876 97.7144 183.911 97.6994 183.938 97.6728C183.965 97.646 183.98 97.6098 183.98 97.572C184.256 97.1383 184.651 96.7926 185.119 96.5756L186.827 95.5791L190.385 94.298L196.507 92.7321C199.016 92.0957 201.617 91.903 204.193 92.1627L208.464 92.5898L213.161 93.0168C215.297 93.3015 215.012 92.7321 213.303 91.7357C208.93 89.595 204.065 88.6613 199.21 89.031L194.229 89.7428C192.598 89.9803 190.981 90.313 189.389 90.7392Z" fill="#1E1D1C"/>
<path d="M176.72 117.643L175.581 118.213L172.591 119.636C169.149 120.967 165.45 121.502 161.772 121.202C157.24 120.674 152.973 118.789 149.531 115.793C146.063 112.922 143.082 109.509 140.705 105.686C138.428 102.412 137.431 101.273 137.146 102.127C136.862 102.981 137.289 105.828 138.997 109.814C139.935 112.137 141.232 114.299 142.84 116.22C144.726 118.738 147.039 120.906 149.673 122.626C152.676 124.616 156.077 125.928 159.638 126.469C163.342 126.908 167.096 126.469 170.599 125.188C173.515 124.046 176.286 122.565 178.856 120.775C180.687 119.397 182.445 117.924 184.122 116.362C186.827 113.658 188.534 111.665 189.816 110.241C191.966 107.815 193.654 105.017 194.799 101.985C195.652 100.134 194.941 100.277 193.517 101.558L187.681 108.106C185.492 110.567 183.111 112.852 180.562 114.939C179.343 115.924 178.059 116.827 176.72 117.643ZM156.364 29.8134C156.25 29.9803 156.2 30.182 156.22 30.3828C156.22 30.6675 156.078 31.0946 156.078 31.8063C156.183 33.2735 156.519 34.7148 157.075 36.0768C157.396 36.747 157.589 37.4711 157.644 38.2121C157.799 38.7227 157.799 39.2674 157.644 39.7779H157.217C156.933 39.9203 156.22 39.6356 155.367 39.2085L153.943 38.2121L151.95 37.2156C151.103 36.7822 150.188 36.4935 149.246 36.3615C148.09 36.1571 146.899 36.3059 145.829 36.7886L144.263 37.9274L143.552 38.6391L143.125 39.4932C142.807 40.0117 142.612 40.596 142.555 41.2014C142.555 41.7708 142.413 42.3402 142.413 42.7673C142.56 44.2615 142.846 45.7388 143.267 47.1801C143.548 48.0051 143.693 48.8706 143.694 49.7424C143.694 50.0271 143.694 49.8848 143.552 50.0271L143.125 50.3118C142.079 50.3942 141.027 50.3464 139.993 50.1695C138.641 50.1271 137.293 50.3197 136.007 50.7389C134.319 51.1476 132.786 52.0378 131.594 53.3012C131.025 54.0129 131.025 54.2976 131.452 54.44C131.879 54.5823 135.295 53.3012 139.139 54.0129L142.555 54.7247C143.466 54.7576 144.376 54.6617 145.26 54.44C146.318 54.0159 147.214 53.2686 147.822 52.3047C148.429 51.3767 148.728 50.2808 148.676 49.173C148.704 48.2691 148.656 47.3644 148.534 46.4684C148.173 45.1698 147.982 43.8302 147.965 42.4826C147.943 42.2819 147.994 42.0802 148.107 41.9132H148.249C149.321 42.1379 150.337 42.5733 151.239 43.1943C152.067 43.761 152.98 44.1934 153.943 44.4755C155.091 45.0411 156.369 45.2869 157.644 45.1872C158.439 45.0825 159.209 44.8417 159.922 44.4755C160.593 44.017 161.172 43.4378 161.63 42.7673C162.061 42.1229 162.351 41.3955 162.484 40.632V38.7815C162.37 37.744 162.081 36.7333 161.63 35.7921C161.5 35.341 161.308 34.91 161.061 34.511L160.633 33.6569C160.115 32.6974 159.869 31.6144 159.922 30.5252C160.064 29.8134 160.491 29.5287 161.345 29.244C162.164 29.1245 162.998 29.2226 163.766 29.5287C165.394 30.0716 167.059 30.4997 168.747 30.8099C170.135 31.099 171.577 30.9498 172.876 30.3828C173.834 29.8523 174.623 29.063 175.154 28.1052C175.475 27.4088 175.759 26.696 176.007 25.97C176.112 25.3301 176.304 24.7074 176.577 24.1194C176.75 23.7221 177.004 23.3652 177.322 23.0712C177.641 22.7776 178.017 22.5529 178.427 22.4112C179.566 21.9842 180.135 22.4112 180.135 22.1265C180.135 21.8418 179.993 21.8418 179.566 21.5571C179.317 21.3927 179.036 21.2825 178.742 21.2338C178.448 21.1849 178.146 21.198 177.857 21.2724C177.063 21.2761 176.301 21.5814 175.723 22.1265L174.726 23.123L174.299 23.6924L173.872 24.2618C173.553 25.0042 173.172 25.7185 172.733 26.397C172.558 26.9259 172.207 27.3785 171.738 27.6782C170.466 28.0722 169.093 27.9705 167.894 27.3935C166.216 26.6392 164.445 26.1126 162.627 25.8276C161.621 25.7088 160.602 25.8059 159.637 26.1123C158.755 26.4286 157.97 26.9681 157.359 27.6782C156.82 28.2733 156.473 29.0176 156.364 29.8134ZM219.424 29.9558L218.57 30.2405C217.708 30.5944 216.932 31.1283 216.293 31.8064C215.474 32.8241 214.978 34.0634 214.868 35.3651C214.627 36.5832 214.532 37.8256 214.584 39.0662C214.574 40.2176 214.43 41.364 214.157 42.4826C214.157 42.625 214.157 42.625 214.015 42.625H213.73L213.304 42.3403L212.165 41.7709L210.029 40.4897L209.744 40.205L209.174 39.9203L208.036 39.4933C207.303 39.2401 206.516 39.1908 205.758 39.3509C205.058 39.4613 204.395 39.739 203.825 40.1603C203.256 40.5816 202.796 41.1341 202.485 41.7709C202.042 42.3428 201.793 43.0407 201.772 43.7638C201.664 44.1334 201.616 44.5179 201.63 44.9026V45.899C201.716 46.621 201.859 47.3351 202.058 48.0343C202.081 48.4193 202.033 48.8054 201.916 49.1731C201.61 50.1107 201.126 50.9807 200.491 51.7354C199.672 52.4645 198.763 53.0863 197.786 53.5859C195.509 54.7247 194.086 55.4365 193.944 56.0059C193.801 56.5753 194.797 56.7176 196.648 56.7176C197.856 56.7066 199.056 56.5147 200.208 56.1482C201.878 55.6224 203.393 54.6936 204.619 53.4436C205.38 52.5963 206.005 51.6358 206.471 50.5966L206.897 48.8884C207.04 48.2317 207.04 47.5521 206.897 46.8955V45.0449H207.182L209.032 46.0414L210.883 47.1802L212.734 48.1766L214.726 49.3154L216.577 50.1695H217.004V49.7425L217.431 48.6037C217.991 47.2585 218.466 45.8798 218.854 44.4755V41.4862C218.926 40.5859 218.926 39.6816 218.854 38.7815C218.674 37.6043 218.627 36.4106 218.712 35.2228C218.761 34.8475 218.924 34.4962 219.179 34.2163C219.433 33.9361 219.767 33.7408 220.137 33.6569C220.799 33.4956 221.496 33.5454 222.129 33.7993L222.698 34.084L223.695 34.6534L225.261 35.7922H225.687L226.256 35.5075L227.253 34.6534C227.724 34.0681 228.064 33.3885 228.25 32.6605C228.392 32.2334 228.392 31.9487 228.534 31.5217C228.678 31.0946 228.678 30.9523 228.678 30.6676C228.654 30.2357 228.702 29.8029 228.819 29.3864C228.72 28.2027 228.967 27.0156 229.531 25.97C229.715 25.6789 229.965 25.4361 230.262 25.2621C230.56 25.0887 230.895 24.9898 231.239 24.9736C232.379 24.9632 233.52 25.0107 234.655 25.1159C235.367 24.9736 235.794 24.6889 235.794 24.5465C235.794 24.4042 235.794 24.2618 235.51 24.1195L234.228 23.5501L231.666 22.696C230.824 22.5379 229.953 22.6134 229.15 22.9144C228.347 23.2153 227.642 23.7306 227.111 24.4042C226.337 25.6476 225.896 27.0692 225.831 28.5323L225.545 30.3829C225.442 30.6056 225.394 30.8495 225.403 31.0946C225.261 31.237 225.261 31.3793 225.118 31.3793C224.976 31.3793 224.834 31.664 224.834 31.3793H224.122L221.987 30.6676C221.387 30.4895 220.756 30.441 220.137 30.5252L219.424 29.9558ZM184.264 29.9558L183.267 30.2405C182.425 30.6286 181.654 31.1582 180.99 31.8063C180.228 32.8563 179.739 34.0793 179.567 35.3651C179.326 36.5831 179.23 37.8255 179.282 39.0662C179.271 40.2177 179.128 41.3641 178.854 42.4826H178.428L178.001 42.1979L176.862 41.6285L174.726 40.3473L174.443 40.0626L173.873 39.7779L172.734 39.3509C172.002 39.0978 171.215 39.0486 170.457 39.2085C169.764 39.3404 169.11 39.6265 168.543 40.0454C167.976 40.4645 167.511 41.0055 167.182 41.6285C166.8 42.2322 166.558 42.9127 166.471 43.6214C166.362 43.9907 166.313 44.3753 166.327 44.7602C166.327 45.1872 166.327 45.6143 166.471 45.7566C166.526 46.4731 166.621 47.1858 166.755 47.8919C166.778 48.2771 166.73 48.6632 166.613 49.0307C166.364 49.9919 165.873 50.8737 165.189 51.593C164.395 52.2888 163.537 52.9083 162.627 53.4435C160.208 54.5823 158.783 55.2941 158.641 55.8635C158.499 56.4329 159.495 56.5752 161.346 56.5752C162.554 56.5641 163.754 56.3721 164.905 56.0058C166.575 55.4797 168.091 54.5509 169.318 53.3012C170.125 52.4902 170.755 51.5208 171.168 50.4542C171.376 49.9031 171.519 49.3299 171.596 48.746C171.708 48.088 171.756 47.4205 171.738 46.7531C171.619 46.2883 171.572 45.8085 171.596 45.3296V45.0449H171.879L173.73 46.0413L175.581 47.1801L177.432 48.1766L179.424 49.3154L181.275 50.1695H181.701V49.7424L182.129 48.6036C182.751 47.283 183.229 45.8989 183.553 44.4755V42.7673C183.53 42.3353 183.578 41.9026 183.695 41.4861C183.718 40.5822 183.67 39.678 183.553 38.7815C183.372 37.6043 183.324 36.4106 183.409 35.2227C183.423 34.8971 183.523 34.5809 183.698 34.3059C183.873 34.031 184.117 33.8071 184.406 33.6569C185.069 33.4956 185.766 33.5453 186.4 33.7992L186.969 34.0839L187.965 34.6533L189.531 35.7921H189.958L190.528 35.5074L191.525 34.6533C191.995 34.0675 192.334 33.388 192.52 32.6604C192.681 32.3003 192.777 31.9149 192.805 31.5216C192.805 31.2369 192.947 30.9522 192.947 30.6675C192.925 30.2357 192.972 29.8029 193.089 29.3864C193.062 28.208 193.306 27.039 193.802 25.97C193.993 25.6859 194.246 25.4487 194.542 25.2761C194.838 25.1036 195.169 25.0001 195.51 24.9735C196.651 24.9607 197.791 25.0081 198.927 25.1159C199.638 24.9735 200.066 24.6888 200.066 24.5465C200.066 24.4041 200.066 24.2618 199.78 24.1194L198.499 23.55L195.936 22.6959C195.178 22.536 194.392 22.5851 193.659 22.8383C193.217 22.9442 192.8 23.1372 192.434 23.406C192.067 23.6745 191.758 24.0139 191.525 24.4041C190.653 25.6096 190.158 27.0459 190.1 28.5323L189.816 30.3828C189.816 30.8099 189.673 30.8099 189.673 31.0946L189.389 31.3793C189.389 31.5216 189.247 31.664 189.103 31.3793H188.82L186.684 30.6675C186.085 30.485 185.453 30.4364 184.834 30.5252L184.264 29.9558Z" fill="#1E1D1C"/>
<path d="M198.926 32.3758H196.505C195.659 32.4505 194.837 32.6925 194.086 33.0877C193.022 33.6125 192.205 34.5318 191.808 35.6499C191.429 36.5511 191.235 37.5193 191.239 38.497C191.097 39.4933 191.239 40.2051 191.097 40.9168C191.12 41.7261 191.072 42.5358 190.955 43.3368C190.93 44.1502 190.834 44.9599 190.669 45.7567C190.669 46.1839 190.527 46.6108 190.527 47.0379C190.527 47.4649 190.385 47.892 190.242 48.319C190.12 48.9299 189.878 49.5106 189.53 50.0272C189.247 50.5966 189.103 50.5966 188.961 50.5966C188.819 50.5966 188.534 50.739 187.68 50.4543C186.511 50.2058 185.315 50.1101 184.122 50.1697C181.91 50.4295 179.851 51.4333 178.284 53.0166C177.339 53.9249 176.735 55.1316 176.576 56.433C176.576 57.2871 176.862 57.4294 177.146 57.2872C177.431 57.1447 179.423 55.2942 181.986 54.7248C183.264 54.3929 184.615 54.493 185.83 55.0095C187.066 55.623 188.437 55.9166 189.816 55.8637C190.784 55.6682 191.703 55.281 192.519 54.7248C193.164 54.1817 193.738 53.56 194.228 52.8742C194.973 51.5936 195.502 50.1989 195.794 48.7462C196.076 47.4844 196.22 46.1956 196.221 44.9026C196.34 43.6251 196.387 42.342 196.363 41.0593C196.221 39.6358 196.079 38.497 196.079 37.7851V36.931C196.221 36.7888 196.221 36.6463 196.363 36.6463C197.139 36.3734 197.965 36.2762 198.783 36.3616C199.845 36.4298 200.91 36.2846 201.915 35.9347C202.785 35.6647 203.569 35.1743 204.193 34.5112C205.095 33.5027 205.817 32.3472 206.329 31.0947C206.663 30.2215 206.901 29.3146 207.04 28.39C207.048 27.379 207.191 26.3734 207.467 25.4008C207.517 25.0785 207.665 24.7799 207.893 24.5467C208.127 24.3513 208.408 24.2218 208.709 24.1718C209.009 24.1217 209.317 24.1529 209.601 24.262C210.029 24.262 210.171 24.6889 210.314 24.8314C210.456 24.9736 210.598 25.1161 210.74 24.9736C210.838 24.7493 210.887 24.5067 210.884 24.262C210.842 23.9996 210.743 23.7493 210.595 23.5283C210.448 23.307 210.255 23.1202 210.029 22.9807C209.444 22.5802 208.745 22.3804 208.037 22.4113C207.574 22.4105 207.117 22.5122 206.698 22.7091C206.28 22.9061 205.91 23.1933 205.616 23.5501C205.045 24.1419 204.65 24.8815 204.477 25.6854C204.293 26.3882 204.151 27.1011 204.051 27.8206C203.979 28.7365 203.699 29.6237 203.23 30.4141C202.761 31.2041 202.116 31.8754 201.346 32.3758C200.857 32.6041 200.318 32.7022 199.78 32.6605L198.926 32.3758ZM245.048 155.509L248.89 152.804L251.026 151.238C251.522 150.831 251.953 150.351 252.306 149.815C252.738 149.119 253.029 148.345 253.161 147.537C253.374 145.949 253.021 144.336 252.164 142.982C251.573 141.747 250.751 140.636 249.745 139.708C246.043 136.315 242.041 133.266 237.787 130.597C233.66 127.893 229.816 125.473 226.683 123.195C225.659 122.345 224.564 121.583 223.411 120.918C222.698 120.633 222.414 120.633 222.414 121.06C222.414 121.487 223.552 124.476 226.399 127.466C229.95 131.069 233.808 134.355 237.929 137.288C240.348 138.966 242.677 140.772 244.904 142.697C245.951 143.49 246.906 144.397 247.751 145.402L248.321 146.541C248.342 146.833 248.293 147.125 248.179 147.395C248.037 148.106 246.47 149.245 245.474 150.099L242.627 152.662C240.776 154.227 239.21 155.651 237.787 156.647C235.782 158.232 233.691 159.706 231.524 161.061C228.892 162.56 226.454 164.376 224.264 166.469C221.275 169.174 226.683 167.039 232.805 163.764C235.706 162.126 238.511 160.32 241.204 158.356L245.048 155.509ZM87.1813 152.804C87.0406 152.446 86.8488 152.111 86.6119 151.808C86.0145 151.002 85.4904 150.144 85.046 149.245C84.5464 148.231 84.3962 147.08 84.619 145.971C85.1757 144.439 86.1052 143.069 87.3236 141.985C88.7471 140.704 90.74 139.281 92.4482 137.715L98.1422 133.16L108.391 124.903C111.381 122.483 112.235 121.202 111.381 121.06C110.527 120.918 107.964 121.629 104.406 123.338C99.9648 125.632 95.7266 128.299 91.7365 131.309C89.2743 133.085 86.9432 135.035 84.7613 137.146C83.4054 138.326 82.2514 139.721 81.3449 141.274C80.2136 142.998 79.7108 145.059 79.9214 147.11C80.1177 148.922 80.807 150.645 81.9143 152.092C82.6986 153.237 83.5544 154.33 84.4766 155.366C86.0622 156.846 87.7772 158.18 89.6012 159.352C91.7888 160.791 94.1279 161.984 96.5764 162.911C99.3878 164.004 102.386 164.536 105.402 164.477C107.395 164.477 107.11 163.908 105.402 163.196L97.9999 160.206C95.184 159.073 92.5468 157.539 90.1706 155.651C89.1143 154.767 88.1158 153.816 87.1813 152.804ZM114.797 161.345C114.797 161.345 113.801 164.192 112.235 167.75C110.664 171.376 108.857 174.895 106.826 178.285C105.972 179.707 105.829 180.278 106.256 180.278C106.683 180.278 107.68 179.851 108.961 178.57C112.275 174.774 114.619 170.231 115.794 165.33C117.075 159.922 117.36 157.359 117.644 155.651C117.757 155.041 117.804 154.421 117.787 153.8C117.768 153.115 117.624 152.44 117.36 151.808C116.79 150.099 116.648 152.519 116.221 155.366C115.794 158.214 114.797 161.345 114.797 161.345ZM217.289 172.449C217.289 172.449 216.007 170.597 214.442 167.893C212.879 165.215 211.454 162.459 210.171 159.636C209.032 157.217 208.463 158.214 208.748 161.061C209.521 164.954 211.286 168.583 213.873 171.594L219.423 177.146C220.094 177.951 220.985 178.545 221.986 178.854C223.409 179.281 221.986 177.857 220.42 176.149L218.284 173.729L217.289 172.449Z" fill="#1E1D1C"/>
<path d="M105.545 172.021C105.545 172.021 105.687 171.31 106.114 169.886C106.541 168.463 107.395 166.611 108.249 164.477C109.055 162.296 110.156 160.236 111.523 158.356L112.662 156.931L113.232 156.362C113.374 156.22 113.232 156.362 113.374 156.362H113.659L114.37 157.501C115.224 159.067 115.367 159.778 115.651 159.352C115.888 158.73 115.985 158.063 115.935 157.399C115.886 156.735 115.692 156.09 115.367 155.509C114.952 154.786 114.297 154.232 113.516 153.943C113.025 153.913 112.535 154.011 112.093 154.227L111.239 154.939C110.096 155.941 109.091 157.09 108.249 158.356C106.463 161.138 105.208 164.227 104.548 167.466C103.69 169.984 103.494 172.68 103.979 175.296C104.128 175.809 104.369 176.291 104.691 176.718C104.833 177.004 105.118 177.004 105.26 177.146L105.829 177.43C106.506 177.581 107.215 177.48 107.822 177.146C108.618 176.817 109.307 176.275 109.815 175.58C110.286 174.941 110.625 174.215 110.812 173.444C111.096 172.449 110.812 172.591 110.242 173.302C109.452 174.279 108.486 175.099 107.395 175.722C107.273 175.809 107.132 175.867 106.984 175.892C106.836 175.916 106.685 175.907 106.541 175.865H105.829C105.829 175.722 105.687 175.58 105.687 175.438C105.687 175.296 105.545 174.868 105.545 174.441C105.472 173.969 105.472 173.49 105.545 173.018V172.021ZM225.686 170.313C225.515 169.561 225.227 168.84 224.833 168.177C224.105 166.563 223.197 165.035 222.128 163.622C221.595 162.667 220.975 161.761 220.278 160.917C219.489 159.811 218.469 158.888 217.289 158.214C216.024 157.674 214.604 157.623 213.303 158.07C212.69 158.217 212.116 158.496 211.623 158.891C211.131 159.284 210.733 159.782 210.456 160.348C210.026 160.981 209.779 161.721 209.743 162.483C209.887 162.911 210.029 162.911 210.171 162.769C210.313 162.625 211.168 161.345 212.448 160.633C213.198 160.168 214.094 159.998 214.962 160.156C215.829 160.313 216.608 160.787 217.145 161.487C218.011 162.485 218.819 163.53 219.567 164.619L222.128 167.893C223.443 169.494 224.326 171.405 224.691 173.444C224.574 173.97 224.33 174.459 223.978 174.868C223.708 175.124 223.354 175.275 222.983 175.296L220.989 175.58C220.37 175.664 219.738 175.615 219.139 175.438H218.428C218.433 175.583 218.473 175.725 218.548 175.849C218.623 175.973 218.729 176.077 218.854 176.149C219.379 176.601 220.021 176.898 220.705 177.004H222.983C223.474 176.927 223.953 176.784 224.406 176.576C224.922 176.311 225.364 175.92 225.686 175.438C226.206 174.638 226.409 173.674 226.256 172.733C226.256 172.152 226.161 171.575 225.972 171.024C225.938 170.767 225.839 170.524 225.686 170.313ZM66.1132 237.218V235.225C66.2556 234.655 62.2698 235.225 62.1274 236.221C60.2745 243.915 60.72 251.982 63.4086 259.425C63.6933 260.278 67.252 259.281 67.5367 258.57L75.2236 233.802L71.0955 234.797C71.0955 239.638 71.2378 244.477 71.3802 249.318L71.8072 256.292C71.8072 257.859 71.8072 259.851 73.6578 260.278C75.5083 260.706 77.2165 259.993 77.3589 258.854C78.213 249.744 79.3518 240.777 81.06 231.666L76.9318 232.663C77.2981 241.476 78.6834 250.217 81.06 258.712C81.3447 259.709 85.1881 258.57 85.1881 257.715C85.6152 250.171 85.7575 242.769 85.8999 235.225L81.7717 236.363L89.601 261.132C90.028 262.128 93.7291 260.99 93.7291 259.993C94.8231 252.661 94.6304 245.195 93.1597 237.93L89.0316 238.925C91.712 245.975 95.2499 252.668 99.5655 258.854C100.135 259.709 103.694 258.854 103.694 257.859C103.89 248.578 103.367 239.298 102.128 230.1L97.9996 231.239C101.274 240.491 104.69 249.887 110.384 258.001C110.954 258.712 114.797 257.715 114.512 256.862L104.263 221.701L100.135 222.84L117.074 251.168C117.502 252.165 121.487 250.74 121.203 250.171L108.391 223.979L104.263 225.117C108.438 230.716 112.856 236.131 117.502 241.346C118.213 241.915 121.487 241.061 121.63 240.065C122.057 233.089 114.797 228.819 113.943 222.128L109.815 223.267C112.071 226.405 114.925 229.066 118.213 231.097C118.783 231.524 122.626 230.527 122.199 229.958C120.041 226.399 118.501 222.501 117.644 218.428C117.359 217.573 113.231 218.57 113.516 219.567C114.398 223.587 115.937 227.435 118.071 230.955L122.199 229.816C118.99 227.792 116.19 225.185 113.943 222.128C113.373 221.417 109.672 222.27 109.815 223.267C110.669 229.958 117.929 234.228 117.502 241.204L121.487 239.922C116.808 234.873 112.435 229.549 108.391 223.979C107.679 223.125 103.836 224.406 104.263 225.117L117.074 251.168L121.203 250.171L104.263 221.701C103.694 220.99 99.8502 221.986 100.135 222.84L110.384 258.001L114.512 256.862C108.818 248.748 105.402 239.352 102.128 230.1C101.843 229.247 97.8573 230.242 97.9996 231.239C99.2814 240.386 99.8525 249.619 99.7078 258.854L103.836 257.859C99.577 251.639 96.0428 244.952 93.3021 237.93C93.0174 237.075 89.0316 238.072 89.1739 238.925C90.644 246.239 90.8367 253.752 89.7433 261.132L93.8715 259.993L86.0422 235.225C85.7575 234.371 81.9141 235.367 81.9141 236.363C81.7717 243.766 81.6294 251.31 81.2023 258.712L85.3305 257.715C82.9653 249.17 81.5804 240.383 81.2023 231.524C81.2023 230.811 77.3589 231.666 77.2165 232.378C75.5083 241.63 74.2272 250.74 73.3731 259.993L77.0742 258.712C75.6507 258.286 75.9354 254.584 75.9354 253.445C75.9354 252.307 75.793 249.032 75.6507 246.898C75.5083 242.485 75.366 238.072 75.366 233.658C75.366 232.947 71.5225 233.802 71.2378 234.513L63.5509 259.281L67.6791 258.285C64.9329 250.957 64.4372 242.977 66.2556 235.367L62.2698 236.363L61.9851 238.214C61.9851 238.783 66.1132 238.357 66.1132 237.218ZM203.623 238.783C206.891 245.653 210.901 252.145 215.581 258.143C216.292 258.997 219.851 258.143 219.567 256.72L214.157 232.378L210.029 233.516C214.59 242.067 219.877 250.211 225.83 257.859C226.541 258.712 230.243 257.717 229.816 256.434C226.683 246.898 223.41 237.36 219.567 227.964L215.437 229.103C220.278 238.499 226.399 247.04 232.519 255.723C233.089 256.578 236.933 255.581 236.507 254.3L225.83 227.822L221.844 229.247C227.376 237.936 233.716 246.085 240.776 253.587C241.488 254.442 245.332 253.587 244.762 252.307C240.374 242.792 235.382 233.568 229.816 224.691C229.246 223.553 225.261 224.975 225.83 225.972C231.382 235.794 239.21 243.766 247.04 251.737C247.751 252.592 251.595 251.595 251.026 250.456L230.385 212.734L226.399 214.157L246.612 238.072C247.467 239.068 251.311 237.788 250.456 236.363C244.62 227.538 239.21 218.285 234.227 208.89L230.243 210.313L242.485 222.27C243.196 222.983 247.04 222.128 246.47 220.848L241.346 211.026C240.634 209.602 236.649 210.882 237.218 212.021L242.343 221.986L246.328 220.706L234.086 208.605C233.374 207.893 229.53 208.748 230.1 210.029C235.224 219.567 240.776 228.961 246.612 238.072L250.456 236.363L230.243 212.449C229.53 211.595 225.688 212.734 226.257 213.873L246.898 251.595L250.884 250.171C243.196 242.343 235.366 234.513 229.958 224.833L225.972 226.256C231.36 235.04 236.255 244.117 240.634 253.445L244.62 252.023C237.559 244.52 231.22 236.37 225.686 227.68C224.975 226.684 221.133 227.822 221.702 228.961L232.377 255.439L236.363 254.157C230.385 245.616 224.406 237.218 219.567 227.964C218.997 226.684 215.011 227.822 215.437 229.103C219.281 238.499 222.698 247.893 225.686 257.573L229.672 256.15C223.833 248.683 218.643 240.73 214.157 232.378C213.587 231.097 209.743 231.95 210.029 233.516L215.437 257.859L219.425 256.578C214.839 250.722 210.923 244.372 207.751 237.644C207.04 236.221 203.054 237.502 203.623 238.783Z" fill="#1E1D1C"/>
</svg>
