<svg width="167" height="173" viewBox="0 0 167 173" fill="none" xmlns="http://www.w3.org/2000/svg">
<g clip-path="url(#clip0_3641_68633)">
<path d="M57.2731 34.9609C44.9192 63.2134 48.7012 111.266 72.6099 140.392C72.6099 140.392 71.5007 132.751 80.3375 114.396L89.0316 93.4533C89.0316 93.4533 93.1634 105.683 103.985 116.39C110.619 122.875 122.403 132.603 130.81 136.54C126.029 109.638 129.712 62.5346 141.436 38.3302L57.2731 34.9609Z" fill="#5158F6"/>
<path d="M77.5473 49.7969C78.0202 50.4883 78.4408 51.2138 78.8045 51.9681L79.1222 52.4524C79.1141 52.5685 79.1069 52.6838 78.9986 52.5604L78.7666 52.546L78.2017 52.2769L77.6222 52.24L76.2449 51.9186L73.6068 51.284C70.3216 50.6422 66.9614 50.464 63.6257 50.7556C61.1608 51.0608 60.3115 51.5865 60.5128 52.0635C60.715 52.5406 62.0841 52.9781 64.1491 53.4597L71.9525 55.2402L76.7486 56.7111L77.3289 56.7489L78.5816 57.1774L81.3046 58.2818L86.7595 60.3756L86.4563 59.66L86.0528 58.7049L85.3461 57.0342L84.6313 55.4787L84.3362 54.647L83.9255 53.8071L82.6764 51.5216L82.366 50.9212L82.1484 50.6746L82.0329 50.6674L81.606 50.0598L79.8786 47.9741C78.9652 46.9155 77.9796 45.9208 76.9282 44.9973C75.6014 43.8064 74.1935 42.7064 72.716 41.7072C71.077 40.4605 69.0833 39.7628 67.0219 39.7142C65.7466 39.6323 65.9488 40.1094 66.9551 40.7548C67.9606 41.4002 69.5319 42.3148 71.1971 43.5831C72.818 44.7821 74.328 46.1225 75.7115 47.5888L77.0049 49.1821L77.5473 49.7969Z" fill="#1E1D1C"/>
<path d="M108.73 56.9326L106.919 57.1901L104.776 57.6284L103.353 58.2387C102.667 58.4899 102.052 58.9049 101.561 59.4477L104.668 61.1012C104.978 60.5008 105.347 59.9337 105.77 59.4081C106.406 58.7104 107.097 58.0668 107.838 57.4844C109.703 56.1819 111.637 54.9829 113.633 53.8946L116.848 52.0762C117.801 51.4569 118.8 50.9123 119.836 50.447C121.933 49.3713 123.896 48.5998 125.755 47.8185C127.613 47.0372 129.397 45.9326 128.789 45.6662C128.183 45.4007 126.193 45.325 123.195 45.8975C121.474 46.2018 119.78 46.6483 118.131 47.2325L115.278 48.5566L112.518 49.9942C110.379 50.9933 108.333 52.1861 106.409 53.5561C105.353 54.3428 104.389 55.2466 103.535 56.2503C102.511 57.3197 101.776 58.633 101.398 60.0661L99.8965 66.1566L104.193 61.6918C104.222 61.6945 104.249 61.6855 104.271 61.6684C104.292 61.6495 104.305 61.6242 104.309 61.5963C104.54 61.2957 104.852 61.0679 105.21 60.9392L106.528 60.3208L109.222 59.6151L113.81 58.8707C115.692 58.5691 117.61 58.6006 119.48 58.9625L122.58 59.5602L125.992 60.1867C127.538 60.5378 127.367 60.1003 126.182 59.2541C123.122 57.3899 119.621 56.3799 116.039 56.3286L112.342 56.5212C111.131 56.5878 109.925 56.7247 108.73 56.9326Z" fill="#1E1D1C"/>
<path d="M99.0209 77.1051L98.0894 77.5101L95.6472 78.5156C92.8502 79.4284 89.8809 79.7002 86.9629 79.3086C83.3736 78.701 80.0531 77.0268 77.4358 74.5045C74.7931 72.0822 72.5603 69.2485 70.8265 66.1141C69.1478 63.4199 68.4023 62.4748 68.1396 63.1409C67.877 63.807 68.099 66.0844 69.2931 69.3205C69.9429 71.2036 70.8861 72.9742 72.0873 74.5657C73.4845 76.6433 75.2372 78.4607 77.2643 79.9352C79.573 81.6401 82.2282 82.8229 85.0433 83.4017C87.9756 83.904 90.9847 83.7113 93.8285 82.8409C96.1995 82.055 98.4694 80.9947 100.591 79.6804C102.108 78.6623 103.571 77.5668 104.971 76.3966C107.239 74.3614 108.682 72.8509 109.764 71.7734C111.577 69.9371 113.039 67.7857 114.077 65.4264C114.835 63.9924 114.262 64.0761 113.073 65.0339L108.151 69.9902C106.304 71.8526 104.312 73.5674 102.195 75.1184C101.182 75.8493 100.121 76.5136 99.0209 77.1051Z" fill="#1E1D1C"/>
<path d="M39.6943 87.9325C43.5855 80.7816 48.5117 74.179 53.9486 68.0003C59.8765 78.1397 38.1623 90.9336 36.3774 107.462C35.8935 108.794 35.9542 110.641 33.9397 111.268C27.4994 112.628 39.1107 88.7517 39.6943 87.9325Z" fill="#1E1D1C"/>
<path d="M111.398 101.17C117.765 94.8799 123.142 87.7865 127.862 80.3518C114.536 78.2331 108.688 103.712 91.2645 111.299C89.9887 112.238 87.9439 112.835 88.0134 115C88.9444 121.693 110.72 102.023 111.398 101.17Z" fill="#1E1D1C"/>
<path d="M138.844 148.16C138.841 148.28 138.792 148.392 138.708 148.476L138.142 149.433C137.195 150.416 136.015 151.144 134.713 151.548L131.446 152.343L127.403 153.026C124.313 153.544 121.198 153.894 118.071 154.074L112.93 154.355L110.621 154.328C110.097 154.269 109.603 154.054 109.203 153.711C108.4 153.06 107.787 151.629 107.238 149.961L106.867 148.747C106.743 148.401 106.648 148.046 106.581 147.684C106.557 147.451 106.571 147.215 106.621 146.987C106.651 146.744 106.717 146.507 106.816 146.283C107.145 145.646 107.554 145.054 108.032 144.521C108.558 143.962 109.122 143.441 109.72 142.963C110.951 142.061 112.317 141.361 113.767 140.891C116.465 140.03 119.374 140.116 122.013 141.135C123.731 141.8 125.336 142.728 126.773 143.883C127.653 144.529 127.964 144.589 127.935 144.052C127.533 142.881 126.843 141.831 125.929 140.998C124.075 139.212 121.778 137.953 119.276 137.351C115.551 136.589 111.672 137.212 108.365 139.103C107.438 139.689 106.547 140.331 105.695 141.022C104.823 141.85 104.045 142.772 103.376 143.771C103.013 144.372 102.712 145.009 102.475 145.671C102.294 146.432 102.231 147.216 102.288 147.995C102.32 148.668 102.432 149.335 102.623 149.981C102.804 150.512 102.909 151.046 103.091 151.576C103.459 152.819 103.987 154.008 104.66 155.115C105.428 156.55 106.689 157.659 108.208 158.237C109.569 158.742 111.023 158.952 112.472 158.853L116.078 158.657C120.963 158.284 125.811 157.53 130.58 156.4C132.567 155.932 134.516 155.311 136.407 154.54C138.289 153.784 139.889 152.457 140.98 150.744C141.813 149.249 142.304 147.589 142.419 145.883C142.595 144.5 142.625 143.103 142.51 141.714C142.355 139.47 142.008 137.244 141.47 135.062C141.193 134.151 140.995 133.313 140.724 132.557C140.454 131.8 140.079 130.51 139.801 129.6L136.913 130.297L135.088 130.705L132.043 131.334L129.378 131.866L127.705 132.264L126.033 132.664C126.482 133.873 127.091 135.229 127.615 136.434C128.14 137.639 128.722 138.456 128.758 137.682C128.698 137.038 128.587 136.4 128.428 135.772C128.424 135.564 128.388 135.358 128.319 135.161L128.298 134.777C128.222 134.53 128.183 134.272 128.181 134.012L129.639 133.932L132.769 133.453L136.126 132.885L137.652 132.647L138.112 132.622C138.308 133.221 138.468 133.83 138.591 134.447C138.878 135.511 139.088 136.579 139.297 137.648C139.631 139.471 139.779 141.323 139.739 143.176C139.741 144.454 139.601 145.729 139.322 146.978C139.195 147.384 139.035 147.78 138.844 148.16Z" fill="#1E1D1C"/>
<path d="M108.11 144.087C109.643 147.823 111.676 151.443 114.17 154.884C114.554 155.38 116.873 155.305 116.804 154.57L115.274 141.937L112.574 142.098C114.795 146.797 117.507 151.364 120.679 155.75C121.063 156.245 123.484 156.114 123.313 155.433C122.072 150.386 120.743 145.323 119.041 140.275L116.34 140.436C118.672 145.581 121.882 150.428 125.079 155.346C125.373 155.827 127.884 155.709 127.714 155.031L123.017 140.82L120.384 141.137C123.208 145.999 126.586 150.673 130.472 155.096C130.855 155.59 133.355 155.543 133.094 154.85C131.057 149.69 128.616 144.614 125.783 139.655C125.511 139.033 122.879 139.348 123.161 139.9C125.911 145.328 130.245 150.06 134.58 154.791C134.964 155.286 137.475 155.168 137.202 154.546L127.075 133.767L124.441 134.083L135.373 147.957C135.837 148.536 138.368 148.277 137.939 147.484C134.932 142.524 132.228 137.393 129.806 132.234L127.173 132.55L133.99 139.696C134.385 140.12 136.884 140.073 136.623 139.381L134.144 133.995C133.805 133.217 131.183 133.462 131.455 134.084L133.922 139.541L136.545 139.295L129.738 132.078C129.343 131.654 126.844 131.702 127.105 132.395C129.606 137.639 132.389 142.854 135.373 147.957L137.939 147.484L127.007 133.611C126.622 133.117 124.101 133.305 124.373 133.927L134.501 154.707L137.135 154.391C132.878 149.744 128.532 145.082 125.862 139.74L123.229 140.055C125.956 144.951 128.348 149.944 130.393 155.011L133.026 154.696C129.141 150.273 125.764 145.599 122.937 140.735C122.565 140.169 120.044 140.358 120.316 140.98L125.011 155.191L127.634 154.945C124.515 150.113 121.384 145.351 119.041 140.275C118.781 139.583 116.17 139.757 116.34 140.436C118.042 145.484 119.473 150.489 120.611 155.594L123.244 155.279C120.13 150.994 117.464 146.53 115.274 141.937C115.013 141.245 112.514 141.291 112.574 142.098L114.101 154.729L116.725 154.484C114.278 151.124 112.294 147.582 110.81 143.926C110.471 143.149 107.849 143.394 108.11 144.087Z" fill="#1E1D1C"/>
<path d="M76.7663 155.214C76.7629 155.334 76.714 155.446 76.6299 155.53L76.0641 156.487C75.1168 157.47 73.9371 158.197 72.6344 158.601L69.3679 159.396L65.3249 160.08C62.235 160.598 59.1198 160.947 55.993 161.128L50.8522 161.409L48.5425 161.381C48.0184 161.323 47.5244 161.108 47.1248 160.764C46.3214 160.114 45.7088 158.682 45.1598 157.015L44.7889 155.801C44.665 155.455 44.5698 155.1 44.503 154.738C44.4784 154.505 44.4927 154.269 44.5434 154.041C44.5727 153.798 44.6387 153.56 44.7379 153.336C45.0665 152.7 45.4755 152.107 45.9534 151.574C46.4794 151.016 47.0435 150.495 47.642 150.016C48.8732 149.114 50.2389 148.415 51.6893 147.945C54.3873 147.084 57.296 147.17 59.9347 148.188C61.6529 148.854 63.2583 149.782 64.6946 150.937C65.5749 151.583 65.8854 151.643 65.8571 151.105C65.4551 149.935 64.7651 148.885 63.8513 148.052C61.9971 146.266 59.7003 145.007 57.1983 144.404C53.4725 143.643 49.5944 144.266 46.2871 146.157C45.3599 146.743 44.4684 147.384 43.6166 148.076C42.7445 148.904 41.9665 149.825 41.2976 150.825C40.9352 151.426 40.6337 152.063 40.3966 152.725C40.216 153.486 40.153 154.27 40.2102 155.049C40.2416 155.722 40.3537 156.388 40.5448 157.035C40.7263 157.565 40.8309 158.1 41.0127 158.63C41.3812 159.873 41.9091 161.061 42.5821 162.169C43.3501 163.604 44.6104 164.713 46.1299 165.291C47.4913 165.796 48.9447 166.005 50.3944 165.907L54.0003 165.711C58.8845 165.338 63.7333 164.584 68.5018 163.453C70.489 162.986 72.4378 162.365 74.3292 161.594C76.2111 160.838 77.8104 159.51 78.902 157.797C79.7344 156.303 80.2257 154.642 80.3411 152.936C80.5167 151.554 80.5468 150.156 80.4316 148.768C80.277 146.524 79.9294 144.297 79.3923 142.115C79.1144 141.205 78.9168 140.367 78.6462 139.611C78.376 138.854 78.0005 137.564 77.7226 136.653L74.8347 137.351L73.01 137.759L69.9644 138.387L67.2999 138.919L65.6273 139.318L63.9552 139.717C64.4038 140.927 65.0127 142.282 65.5373 143.487C66.0617 144.693 66.6436 145.509 66.6797 144.736C66.6195 144.092 66.5085 143.453 66.3496 142.826C66.3464 142.618 66.3097 142.412 66.2404 142.215L66.2197 141.831C66.1438 141.584 66.1049 141.325 66.1032 141.066L67.5612 140.986L70.6913 140.507L74.0474 139.938L75.5738 139.7L76.0343 139.676C76.2301 140.274 76.3901 140.884 76.5133 141.501C76.8 142.565 77.0098 143.633 77.2194 144.702C77.5528 146.524 77.7005 148.377 77.6609 150.229C77.6629 151.508 77.5226 152.783 77.2442 154.031C77.1165 154.438 76.9572 154.834 76.7663 155.214Z" fill="#1E1D1C"/>
<path d="M46.0314 151.141C47.5649 154.877 49.5975 158.497 52.0921 161.938C52.4758 162.434 54.7949 162.358 54.7255 161.623L53.196 148.991L50.4954 149.151C52.7166 153.85 55.4288 158.417 58.6013 162.804C58.9853 163.299 61.4059 163.167 61.2345 162.487C59.994 157.44 58.6653 152.376 56.9633 147.328L54.2616 147.489C56.5942 152.635 59.8034 157.482 63.001 162.4C63.295 162.881 65.8058 162.763 65.6355 162.085L60.9388 147.874L58.3057 148.19C61.1303 153.053 64.5081 157.726 68.3936 162.149C68.7767 162.644 71.2767 162.597 71.0159 161.904C68.9789 156.744 66.5378 151.668 63.7049 146.709C63.4332 146.087 60.8006 146.402 61.0829 146.954C63.8327 152.382 68.1666 157.113 72.5017 161.845C72.8857 162.34 75.3966 162.221 75.1237 161.6L64.9964 140.821L62.3627 141.137L73.295 155.01C73.7584 155.59 76.2904 155.331 75.8604 154.538C72.8535 149.578 70.15 144.447 67.7274 139.287L65.0945 139.603L71.9121 146.75C72.3069 147.174 74.8061 147.127 74.5449 146.434L72.0663 141.048C71.7269 140.271 69.1049 140.515 69.3766 141.138L71.8443 146.595L74.4667 146.349L67.6597 139.132C67.2648 138.708 64.7657 138.755 65.0265 139.449C67.5277 144.693 70.3106 149.908 73.295 155.01L75.8604 154.538L64.929 140.665C64.5439 140.17 62.0233 140.359 62.295 140.981L72.4231 161.76L75.0568 161.445C70.8003 156.798 66.4541 152.136 63.7843 146.793L61.1506 147.109C63.8778 152.004 66.2696 156.998 68.315 162.065L70.9478 161.749C67.0632 157.327 63.6854 152.653 60.8586 147.789C60.4871 147.223 57.9657 147.412 58.2383 148.034L62.9332 162.245L65.5559 161.998C62.4371 157.166 59.3062 152.404 56.9633 147.328C56.703 146.636 54.0916 146.811 54.2616 147.489C55.9635 152.537 57.3946 157.543 58.5328 162.648L61.1656 162.332C58.0515 158.047 55.3854 153.584 53.196 148.991C52.9348 148.299 50.436 148.345 50.4954 149.151L52.0233 161.783L54.6464 161.538C52.2 158.177 50.2164 154.635 48.7323 150.979C48.3926 150.203 45.7706 150.447 46.0314 151.141Z" fill="#1E1D1C"/>
<path d="M84.2435 14.1938C84.1622 14.3144 84.1252 14.4593 84.1406 14.6033C84.1406 14.8086 84.0377 15.1155 84.0377 15.6277C84.1135 16.6836 84.3554 17.7206 84.7552 18.6999C84.9871 19.1824 85.1252 19.7036 85.1659 20.2365C85.2769 20.6038 85.2769 20.9963 85.1659 21.3635H84.8581C84.6532 21.4661 84.1406 21.2609 83.5259 20.9539L82.5007 20.2365L81.0656 19.52C80.4555 19.2076 79.7976 19.0006 79.1189 18.9052C78.2867 18.7585 77.4293 18.8656 76.6585 19.2121L75.5313 20.0322L75.0186 20.5444L74.7118 21.1583C74.4825 21.5319 74.3426 21.9522 74.3011 22.3879C74.3011 22.7975 74.1991 23.207 74.1991 23.514C74.3047 24.5897 74.5114 25.6519 74.8137 26.6889C75.0168 27.283 75.1206 27.9059 75.1215 28.5324C75.1215 28.7376 75.1215 28.635 75.0186 28.7376L74.7118 28.942C73.9581 29.0014 73.2009 28.9672 72.4563 28.8403C71.4834 28.8096 70.5123 28.9483 69.5872 29.2498C68.3714 29.5442 67.2676 30.1842 66.4093 31.0934C65.9996 31.6055 65.9996 31.8099 66.3073 31.9125C66.6151 32.0151 69.0745 31.0934 71.8417 31.6055L74.3011 32.1177C74.9563 32.1411 75.6125 32.0718 76.2488 31.9125C77.0105 31.6073 77.6558 31.0699 78.0936 30.3759C78.5304 29.7089 78.7461 28.9204 78.7082 28.1228C78.7281 27.4729 78.6938 26.8221 78.6062 26.1767C78.3463 25.2432 78.2091 24.2791 78.1965 23.3097C78.1802 23.1647 78.2172 23.0198 78.2984 22.9001H78.4013C79.173 23.0612 79.9041 23.3745 80.5539 23.8219C81.1505 24.2296 81.8066 24.5402 82.5007 24.7436C83.3265 25.1505 84.2471 25.3269 85.1659 25.2549C85.7372 25.1802 86.2922 25.0065 86.8049 24.7436C87.2886 24.4133 87.7047 23.9965 88.035 23.514C88.3446 23.0504 88.5549 22.5274 88.6496 21.9774V20.6461C88.5675 19.8999 88.3599 19.1725 88.035 18.4956C87.9421 18.1707 87.804 17.861 87.6253 17.5738L87.3175 16.959C86.9448 16.2686 86.7678 15.49 86.8049 14.7059C86.9077 14.1938 87.2155 13.9894 87.8292 13.7842C88.4195 13.6978 89.0206 13.7689 89.5729 13.9894C90.7453 14.3801 91.9439 14.6879 93.1596 14.9112C94.1587 15.1191 95.1967 15.0111 96.1326 14.6033C96.8221 14.2217 97.3898 13.6537 97.7725 12.965C98.0035 12.4636 98.2075 11.9505 98.3862 11.4285C98.462 10.9685 98.6001 10.5202 98.7969 10.0971C98.9214 9.81086 99.1046 9.55432 99.3339 9.34278C99.5631 9.13125 99.8339 8.97012 100.129 8.86841C100.949 8.56055 101.358 8.86841 101.358 8.66317C101.358 8.45794 101.256 8.45793 100.949 8.2536C100.77 8.13478 100.568 8.05555 100.356 8.02135C100.143 7.98534 99.9268 7.99524 99.7184 8.04835C99.1471 8.05105 98.5974 8.2707 98.1822 8.66317L97.4647 9.3806L97.157 9.79017L96.8492 10.1997C96.619 10.7335 96.3447 11.2475 96.0288 11.7354C95.9033 12.1162 95.6506 12.442 95.3122 12.6572C94.397 12.9407 93.4087 12.8678 92.545 12.4528C91.3374 11.91 90.0612 11.5311 88.7534 11.3258C88.0287 11.2403 87.2949 11.3105 86.6 11.5311C85.9646 11.7588 85.4005 12.1468 84.9601 12.6572C84.5711 13.0857 84.322 13.6213 84.2435 14.1938ZM129.646 14.2964L129.032 14.5016C128.411 14.7554 127.851 15.1398 127.392 15.6277C126.803 16.3604 126.445 17.2516 126.367 18.1887C126.192 19.0645 126.124 19.9584 126.162 20.8513C126.154 21.6795 126.051 22.5049 125.854 23.3097C125.854 23.4114 125.854 23.4114 125.752 23.4114H125.546L125.239 23.2071L124.42 22.7975L122.882 21.8757L122.676 21.6705L122.266 21.4661L121.447 21.1583C120.92 20.9765 120.352 20.9414 119.807 21.0557C119.303 21.1358 118.826 21.3356 118.415 21.6381C118.006 21.9414 117.674 22.3393 117.451 22.7975C117.132 23.2089 116.951 23.7111 116.937 24.2314C116.859 24.497 116.825 24.7733 116.835 25.0506V25.7671C116.896 26.2865 116.999 26.8005 117.143 27.3037C117.16 27.5809 117.125 27.8591 117.041 28.1228C116.821 28.7979 116.472 29.4235 116.015 29.9663C115.425 30.4911 114.771 30.9385 114.068 31.2986C112.428 32.1177 111.404 32.6299 111.301 33.0395C111.198 33.4491 111.915 33.5517 113.247 33.5517C114.117 33.5436 114.981 33.405 115.811 33.1421C117.013 32.7631 118.104 32.0952 118.988 31.196C119.534 30.5866 119.985 29.8952 120.32 29.1472L120.627 27.9185C120.73 27.4459 120.73 26.9571 120.627 26.4845V25.1532H120.832L122.164 25.8697L123.497 26.6889L124.83 27.4063L126.264 28.2254L127.596 28.8403H127.904V28.5333L128.211 27.7133C128.615 26.7456 128.957 25.7536 129.236 24.7436V22.5922C129.287 21.945 129.287 21.2942 129.236 20.6461C129.107 19.799 129.072 18.9403 129.134 18.086C129.169 17.816 129.286 17.563 129.47 17.3614C129.653 17.1598 129.894 17.0193 130.159 16.959C130.637 16.8429 131.137 16.8789 131.594 17.0617L132.003 17.2669L132.721 17.6765L133.849 18.4956H134.156L134.565 18.2904L135.284 17.6765C135.622 17.2552 135.868 16.7664 136.001 16.2425C136.103 15.9347 136.103 15.7303 136.205 15.4234C136.309 15.1155 136.309 15.0138 136.309 14.8086C136.292 14.498 136.326 14.1865 136.411 13.8868C136.34 13.0352 136.518 12.181 136.923 11.4285C137.055 11.2187 137.236 11.0441 137.45 10.919C137.665 10.7947 137.906 10.7236 138.153 10.7119C138.974 10.7038 139.796 10.738 140.613 10.8136C141.125 10.7119 141.433 10.5067 141.433 10.4041C141.433 10.3024 141.433 10.1997 141.229 10.0971L140.305 9.68754L138.461 9.07273C137.854 8.95931 137.227 9.01332 136.649 9.23026C136.071 9.4463 135.563 9.81718 135.181 10.3024C134.624 11.1962 134.306 12.2197 134.258 13.272L134.054 14.6033C133.98 14.7636 133.944 14.9391 133.952 15.1155C133.849 15.2181 133.849 15.3208 133.746 15.3208C133.644 15.3208 133.541 15.5251 133.541 15.3208H133.029L131.491 14.8086C131.06 14.6807 130.606 14.6456 130.159 14.7059L129.646 14.2964ZM104.331 14.2964L103.614 14.5016C103.007 14.7807 102.452 15.1614 101.974 15.6277C101.425 16.3829 101.073 17.2633 100.949 18.1887C100.776 19.0645 100.707 19.9584 100.744 20.8513C100.736 21.6795 100.634 22.5049 100.437 23.3097H100.13L99.8222 23.1044L99.0018 22.6949L97.4647 21.7731L97.2598 21.5679L96.8501 21.3635L96.0297 21.0557C95.5035 20.8738 94.9358 20.8387 94.3907 20.9539C93.8916 21.0485 93.4214 21.2546 93.0116 21.5562C92.6046 21.8577 92.2697 22.2466 92.0333 22.6949C91.758 23.1287 91.5829 23.6184 91.5206 24.1288C91.4421 24.3944 91.4069 24.6716 91.4168 24.948C91.4168 25.2549 91.4168 25.5628 91.5206 25.6654C91.5594 26.1803 91.628 26.6934 91.7246 27.2011C91.7417 27.4783 91.7065 27.7565 91.6226 28.0211C91.443 28.7124 91.0901 29.347 90.5973 29.8646C90.026 30.3651 89.4078 30.8107 88.7534 31.196C87.0106 32.0151 85.9854 32.5273 85.8834 32.9369C85.7814 33.3464 86.498 33.4491 87.831 33.4491C88.7002 33.441 89.5639 33.3032 90.3924 33.0395C91.5955 32.6605 92.6867 31.9926 93.5703 31.0934C94.1515 30.5101 94.6046 29.8124 94.9024 29.0446C95.0522 28.6485 95.1551 28.2362 95.2102 27.8159C95.2914 27.3424 95.3257 26.8617 95.3122 26.3819C95.2273 26.048 95.193 25.7023 95.2102 25.3575V25.1532H95.4151L96.7472 25.8697L98.0803 26.6889L99.4124 27.4063L100.847 28.2254L102.18 28.8403H102.486V28.5324L102.794 27.7133C103.242 26.7636 103.586 25.7671 103.819 24.7436V23.514C103.802 23.2034 103.838 22.892 103.921 22.5922C103.939 21.9423 103.904 21.2915 103.819 20.6461C103.69 19.799 103.654 18.9403 103.717 18.086C103.727 17.852 103.799 17.6243 103.924 17.4262C104.05 17.2282 104.226 17.0671 104.434 16.959C104.912 16.8429 105.413 16.8789 105.869 17.0617L106.28 17.2669L106.996 17.6765L108.124 18.4956H108.431L108.841 18.2904L109.559 17.6765C109.897 17.2543 110.142 16.7655 110.275 16.2425C110.391 15.9833 110.46 15.706 110.481 15.4225C110.481 15.2181 110.583 15.0129 110.583 14.8086C110.568 14.498 110.601 14.1865 110.686 13.8868C110.666 13.0388 110.841 12.1981 111.199 11.4285C111.337 11.2241 111.519 11.0531 111.732 10.9298C111.945 10.8055 112.183 10.7308 112.429 10.7119C113.25 10.702 114.071 10.7362 114.888 10.8136C115.401 10.7119 115.708 10.5067 115.708 10.4041C115.708 10.3015 115.709 10.1997 115.503 10.0971L114.58 9.68754L112.736 9.07273C112.19 8.95751 111.624 8.99352 111.096 9.17535C110.777 9.25186 110.478 9.3905 110.214 9.58403C109.95 9.77667 109.727 10.0215 109.559 10.3015C108.931 11.1692 108.575 12.2026 108.533 13.272L108.329 14.6033C108.329 14.9112 108.226 14.9112 108.226 15.1155L108.022 15.3208C108.022 15.4225 107.919 15.5251 107.816 15.3208H107.611L106.074 14.8086C105.643 14.6771 105.188 14.642 104.742 14.7059L104.331 14.2964Z" fill="#1E1D1C"/>
<path d="M114.893 16.0364H113.149C112.54 16.0904 111.948 16.2641 111.407 16.5486C110.641 16.9267 110.053 17.5883 109.768 18.3921C109.494 19.0411 109.355 19.7379 109.358 20.4409C109.255 21.1574 109.358 21.6696 109.255 22.1818C109.272 22.7642 109.238 23.3466 109.153 23.9236C109.135 24.5087 109.066 25.0911 108.948 25.6645C108.948 25.9715 108.845 26.2784 108.845 26.5863C108.845 26.8932 108.743 27.2002 108.64 27.508C108.552 27.9473 108.379 28.365 108.128 28.7368C107.924 29.1463 107.82 29.1463 107.718 29.1463C107.616 29.1463 107.41 29.249 106.795 29.0446C105.954 28.8655 105.093 28.7962 104.234 28.8394C102.641 29.0266 101.158 29.7485 100.03 30.8881C99.3495 31.5416 98.9154 32.4094 98.8008 33.3456C98.8008 33.9604 99.0066 34.063 99.2105 33.9604C99.4163 33.8578 100.85 32.5264 102.696 32.1169C103.616 31.8783 104.589 31.9503 105.463 32.3221C106.353 32.7632 107.341 32.9747 108.333 32.936C109.03 32.7956 109.692 32.5174 110.279 32.1169C110.744 31.7262 111.157 31.2788 111.509 30.7855C112.046 29.8638 112.427 28.8601 112.637 27.815C112.841 26.9076 112.944 25.9805 112.944 25.0497C113.03 24.1306 113.064 23.2071 113.047 22.2844C112.944 21.26 112.842 20.4409 112.842 19.9287V19.3139C112.944 19.2122 112.944 19.1095 113.047 19.1095C113.605 18.9133 114.201 18.8431 114.789 18.9043C115.554 18.9538 116.321 18.8494 117.045 18.5974C117.671 18.4029 118.235 18.0501 118.685 17.573C119.333 16.8474 119.853 16.0166 120.223 15.1146C120.463 14.4863 120.634 13.8346 120.734 13.1694C120.74 12.4412 120.843 11.7183 121.042 11.018C121.078 10.7867 121.185 10.5715 121.349 10.4041C121.517 10.2628 121.72 10.1701 121.936 10.134C122.152 10.098 122.374 10.1205 122.579 10.1989C122.887 10.1989 122.988 10.5058 123.092 10.6084C123.194 10.7111 123.297 10.8137 123.399 10.7111C123.469 10.549 123.504 10.3753 123.501 10.1989C123.472 10.0098 123.4 9.8298 123.294 9.67137C123.188 9.51204 123.049 9.37701 122.887 9.2771C122.465 8.98905 121.962 8.84502 121.452 8.86752C121.119 8.86662 120.79 8.93954 120.489 9.08177C120.187 9.22309 119.921 9.43013 119.709 9.68667C119.297 10.1124 119.013 10.6444 118.889 11.2232C118.757 11.7282 118.654 12.2413 118.582 12.7589C118.53 13.4178 118.329 14.0569 117.991 14.6249C117.654 15.1938 117.189 15.6763 116.635 16.0364C116.283 16.2011 115.894 16.2713 115.507 16.2416L114.893 16.0364Z" fill="#1E1D1C"/>
<path d="M19.5801 81.8501L20.4511 79.848C20.5616 79.458 20.7241 79.081 20.9386 78.7365C21.6146 77.625 22.7651 76.7995 24.2081 76.6175L58.3401 72.2559C60.2512 72.0089 62.1037 73.0099 62.9487 74.739L97.5487 145.616C98.0167 146.572 98.1077 147.586 97.9062 148.522L97.9517 148.528L97.8282 148.827C97.7372 149.146 97.6072 149.458 97.4512 149.744L96.5022 152.045L95.4037 151.668C95.0007 151.856 94.5587 151.986 94.0841 152.045L59.9522 156.406C58.0411 156.653 56.1886 155.652 55.3436 153.923L20.7371 83.0461C20.5421 82.6561 20.4186 82.2531 20.3471 81.8436L19.5801 81.8501Z" fill="#383838"/>
<path d="M58.666 159.176L92.798 154.814C95.853 154.424 97.6146 151.155 96.269 148.386L61.669 77.5085C60.824 75.7795 58.9715 74.7785 57.0605 75.0255L22.9285 79.387C19.8734 79.777 18.1119 83.0466 19.4574 85.8156L54.0574 156.693C54.9089 158.422 56.7615 159.423 58.666 159.176Z" fill="#1F1F1F"/>
<path opacity="0.15" d="M34.9147 117.47L90.2825 136.125L82.9049 121.012L27.5371 102.351L34.9147 117.47Z" fill="white"/>
<path opacity="0.15" d="M26.1376 99.4977L81.5119 118.159L78.3919 111.763L23.0176 93.1016L26.1376 99.4977Z" fill="white"/>
<path d="M85.3143 117.631C84.3246 115.852 83.7803 114.1 83.6672 112.733C83.5459 111.267 83.93 110.654 84.2239 110.49C84.5179 110.326 85.24 110.321 86.4214 111.196C87.5221 112.011 88.7228 113.396 89.7126 115.176C90.7023 116.955 91.2467 118.706 91.3597 120.073C91.481 121.54 91.0969 122.152 90.803 122.316C90.5089 122.48 89.7866 122.485 88.6055 121.61C87.5048 120.795 86.3041 119.41 85.3143 117.631Z" stroke="#11151A" stroke-width="2"/>
</g>
<defs>
<clipPath id="clip0_3641_68633">
<rect width="167" height="173" fill="white"/>
</clipPath>
</defs>
</svg>
