<svg width="240" height="240" viewBox="0 0 240 240" fill="none" xmlns="http://www.w3.org/2000/svg">
<g opacity="0.5">
<path d="M40.4 143.917L57.8279 202.877C59.4411 208.334 64.7654 211.827 70.4114 211.134L188.299 196.645C194.36 195.903 198.673 190.664 198.523 184.808C198.502 184.064 198.411 183.304 198.24 182.549L179.243 97.6244C177.894 91.5972 172.072 87.6708 165.98 88.6796L143.65 92.3778C139.229 93.1092 135.618 96.3095 134.371 100.615L132.649 106.546C131.43 110.737 127.973 113.896 123.694 114.726L73.1941 124.552L49.3396 129.194C42.6018 130.507 38.4523 137.338 40.4 143.923V143.917ZM101.232 157.632L101.258 157.717C101.795 159.582 100.674 161.522 98.7941 161.989L70.4166 169.04C68.653 169.478 66.8584 168.464 66.3189 166.732C66.2126 166.395 66.1633 166.05 66.1633 165.715C66.1633 164.188 67.1929 162.79 68.7542 162.396L97.1083 155.264C98.8978 154.813 100.724 155.863 101.232 157.637V157.632ZM67.5845 144.153L89.0246 138.863C92.3805 138.03 95.7442 140.198 96.377 143.601C96.447 143.969 96.4807 144.34 96.4807 144.701C96.4807 147.364 94.7042 149.773 92.0511 150.494L70.7355 156.319C67.4289 157.219 64.0419 155.186 63.2872 151.843L63.1679 151.317C62.4469 148.121 64.4101 144.939 67.5871 144.153H67.5845Z" fill="#E3E2E2"/>
</g>
<path d="M167.883 87.7419C173.599 87.7419 178.711 91.7046 180 97.4543L198.997 182.377C199.173 183.16 199.274 183.969 199.298 184.784C199.461 191.207 194.772 196.638 188.39 197.416L70.5018 211.906C64.4512 212.648 58.8053 208.944 57.0755 203.098L39.6501 144.136C38.6594 140.791 39.1314 137.16 40.9416 134.175C42.7545 131.19 45.7577 129.094 49.1862 128.425L73.0382 123.786L123.538 113.959C127.55 113.181 130.753 110.256 131.896 106.324L133.619 100.395C134.941 95.836 138.829 92.3841 143.518 91.6061L165.847 87.9078C166.529 87.7963 167.209 87.7393 167.881 87.7393L167.883 87.7419ZM68.969 210.446C69.4125 210.446 69.8612 210.42 70.3124 210.363L188.2 195.873C193.781 195.191 197.884 190.442 197.742 184.828C197.721 184.114 197.633 183.404 197.477 182.719L178.48 97.7966C177.222 92.1766 171.784 88.5069 166.101 89.4457L143.772 93.144C139.672 93.8235 136.272 96.8423 135.112 100.831L133.39 106.76C132.083 111.254 128.421 114.597 123.833 115.487L49.4819 129.955C46.4838 130.539 43.8541 132.373 42.2695 134.984C40.6849 137.596 40.2751 140.77 41.1387 143.696L58.5641 202.658C59.9464 207.334 64.1971 210.443 68.9638 210.443L68.969 210.446Z" fill="#E3E2E2"/>
<g opacity="0.75">
<path d="M73.1874 124.551L76.5408 98.3362C77.2903 92.4958 82.0467 87.9884 87.9182 87.563L208.361 78.7894C211.867 78.5352 214.699 81.6111 214.152 85.0837L198.516 184.81C198.495 184.065 198.404 183.305 198.233 182.551L179.236 97.6256C177.888 91.5984 172.065 87.672 165.973 88.6808L143.644 92.3791C139.222 93.1104 135.612 96.3107 134.364 100.616L132.642 106.547C131.423 110.738 127.966 113.897 123.687 114.727L73.1874 124.553V124.551Z" fill="#E3E2E2"/>
</g>
<path d="M208.766 77.995C210.509 77.995 212.158 78.716 213.351 80.0127C214.648 81.4209 215.221 83.3142 214.923 85.2048L199.289 184.931L197.744 184.832C197.726 184.129 197.637 183.419 197.482 182.721L178.485 97.796C177.227 92.176 171.791 88.5088 166.109 89.4477L143.779 93.1459C139.676 93.8254 136.276 96.8416 135.12 100.83L133.398 106.762C132.091 111.253 128.431 114.596 123.843 115.488L72.2882 125.52L75.779 98.2395C76.5726 92.0567 81.6583 87.2406 87.8722 86.7868L208.315 78.0132C208.468 78.0028 208.623 77.9976 208.776 77.9976L208.766 77.995ZM198.475 180.055L213.382 84.9636C213.605 83.545 213.175 82.1238 212.202 81.0656C211.23 80.0075 209.847 79.4603 208.416 79.564L87.9734 88.3377C82.4934 88.7371 78.0093 92.9825 77.3117 98.434L74.0958 123.58L123.537 113.958C127.549 113.18 130.752 110.255 131.893 106.326L133.615 100.395C134.938 95.8327 138.826 92.3834 143.515 91.608L165.844 87.9097C172.341 86.8387 178.555 91.0271 179.994 97.4536L198.472 180.055H198.475Z" fill="#E3E2E2"/>
<g opacity="0.25">
<path d="M67.5789 144.151L89.0189 138.861C92.3748 138.028 95.7385 140.196 96.3713 143.599C96.4414 143.967 96.4751 144.338 96.4751 144.699C96.4751 147.362 94.6986 149.771 92.0455 150.492L70.7299 156.317C67.4233 157.217 64.0362 155.184 63.2815 151.841L63.1622 151.314C62.4412 148.119 64.4045 144.937 67.5814 144.151H67.5789ZM66.1576 165.711C66.1576 164.183 67.1872 162.785 68.7485 162.391L97.1027 155.259C98.8922 154.808 100.718 155.858 101.226 157.632L101.252 157.718C101.789 159.582 100.669 161.522 98.7884 161.989L70.4109 169.041C68.6474 169.479 66.8527 168.465 66.3133 166.733C66.2069 166.395 66.1576 166.05 66.1576 165.716V165.711Z" fill="#E3E2E2"/>
</g>
<path d="M90.4878 137.905C91.7716 137.905 93.0294 138.273 94.1394 138.989C95.7292 140.013 96.7951 141.6 97.14 143.46C97.2178 143.864 97.2567 144.285 97.2567 144.702C97.2567 147.755 95.2001 150.447 92.254 151.248L70.9384 157.073C69.1308 157.566 67.2531 157.306 65.6504 156.341C64.0476 155.379 62.9376 153.841 62.5253 152.018L62.406 151.492C61.5968 147.91 63.835 144.282 67.3984 143.403L88.8384 138.112C89.3856 137.977 89.9406 137.91 90.4878 137.91V137.905ZM69.136 155.758C69.6002 155.758 70.067 155.696 70.5261 155.571L91.8416 149.746C94.1135 149.129 95.6981 147.054 95.6981 144.702C95.6981 144.38 95.667 144.059 95.6099 143.748C95.3428 142.311 94.5206 141.087 93.2965 140.298C92.0724 139.51 90.6227 139.269 89.2093 139.619L67.7692 144.91C65.0228 145.589 63.2981 148.385 63.9231 151.144L64.0424 151.671C64.3614 153.079 65.2147 154.262 66.4517 155.003C67.2791 155.501 68.1997 155.755 69.136 155.755V155.758ZM97.957 154.376C99.7879 154.376 101.448 155.574 101.979 157.418L102.003 157.49C102.324 158.611 102.184 159.77 101.609 160.769C101.033 161.767 100.099 162.467 98.984 162.745L70.6065 169.796C68.4487 170.333 66.2391 169.088 65.5778 166.964C65.4507 166.56 65.3858 166.14 65.3858 165.717C65.3858 163.79 66.6929 162.115 68.5654 161.643L96.9196 154.508C97.2671 154.42 97.6172 154.378 97.9596 154.378L97.957 154.376ZM69.5924 168.362C69.8025 168.362 70.0177 168.336 70.2304 168.284L98.6079 161.233C99.3108 161.059 99.8995 160.615 100.26 159.988C100.623 159.36 100.711 158.629 100.512 157.931L100.488 157.859C100.086 156.466 98.6857 155.662 97.2956 156.012L68.9415 163.144C67.7614 163.442 66.9393 164.498 66.9393 165.709C66.9393 165.976 66.9808 166.238 67.0586 166.492C67.4113 167.623 68.4565 168.357 69.5898 168.357L69.5924 168.362Z" fill="#E3E2E2"/>
<path d="M189.792 186.519C190.173 186.519 190.505 186.799 190.562 187.185C190.624 187.611 190.329 188.005 189.903 188.067L73.3044 204.816C72.8791 204.875 72.4849 204.582 72.4227 204.157C72.3604 203.731 72.6561 203.337 73.0814 203.275L189.68 186.527C189.717 186.521 189.755 186.519 189.792 186.519ZM185.73 174.846C186.112 174.846 186.444 175.126 186.501 175.512C186.563 175.937 186.267 176.332 185.842 176.394L148.792 181.723C148.367 181.786 147.972 181.49 147.91 181.065C147.848 180.639 148.144 180.245 148.569 180.183L185.619 174.853C185.658 174.848 185.694 174.846 185.73 174.846ZM132.645 105.764C132.718 105.764 132.793 105.774 132.868 105.798C133.281 105.92 133.514 106.355 133.392 106.765L123.796 138.906C123.674 139.318 123.241 139.551 122.829 139.43C122.417 139.308 122.183 138.872 122.305 138.462L131.901 106.322C132.002 105.984 132.311 105.767 132.645 105.767V105.764Z" fill="#E3E2E2"/>
<path d="M61.0404 73.8853C68.4836 73.8853 77.693 75.3739 85.7508 81.0432C94.872 87.4594 100.904 97.1667 101.892 107.011C101.937 107.439 101.623 107.821 101.195 107.862C100.764 107.901 100.386 107.592 100.344 107.164C99.4027 97.7631 93.6115 88.4734 84.8561 82.314C75.39 75.6566 64.2148 75.0005 56.5071 75.6255C45.8688 76.4865 36.9888 80.8798 31.5036 87.9988C26.2286 94.8455 25.02 105.142 28.5653 113.039C31.3792 119.307 36.7165 123.029 43.5995 123.514C47.9228 123.82 52.259 122.349 55.1974 119.582C58.2966 116.664 59.8163 112.224 59.072 108.277C58.2914 104.135 55.0003 100.665 51.0712 99.8379C47.2303 99.0287 43.1482 100.969 41.7789 104.252C41.0786 105.93 41.255 108.062 42.2405 109.815C43.1171 111.374 44.4942 112.403 46.0244 112.639C46.4497 112.704 46.7401 113.101 46.6753 113.526C46.6105 113.951 46.2111 114.245 45.7883 114.177C43.7836 113.868 41.9941 112.556 40.8841 110.577C39.6523 108.383 39.45 105.798 40.3447 103.655C41.9915 99.7056 46.8439 97.3586 51.3928 98.3181C55.9209 99.2699 59.7074 103.248 60.6021 107.992C61.4424 112.447 59.7411 117.445 56.2659 120.718C53.0163 123.778 48.2418 125.407 43.4932 125.07C36.0136 124.541 30.2095 120.495 27.1492 113.679C23.381 105.282 24.6673 94.332 30.2743 87.0522C36.0292 79.5831 45.3034 74.9745 56.3852 74.0772C57.8297 73.9605 59.3936 73.8879 61.043 73.8879L61.0404 73.8853ZM124.354 32.1359C126.152 32.1359 127.907 32.569 129.575 33.4404C133.517 35.4945 136.492 39.9059 137.34 44.9476C137.915 48.3683 137.423 51.732 135.955 54.4188C134.318 57.4117 131.637 59.3256 128.203 59.9507C125.519 60.4408 123.247 59.6758 121.805 57.8007C120.15 55.6455 119.894 52.3856 121.167 49.6884C122.396 47.0846 124.813 45.5337 127.804 45.4325C128.234 45.4274 128.592 45.7541 128.608 46.1846C128.623 46.6151 128.286 46.9731 127.855 46.9886C124.588 47.1001 123.143 49.1438 122.573 50.3523C121.559 52.5023 121.75 55.1761 123.037 56.8541C124.121 58.2649 125.809 58.8095 127.923 58.4231C134.658 57.1938 136.73 50.7128 135.804 45.2069C135.037 40.6347 132.373 36.6563 128.854 34.8202C125.975 33.3186 122.767 33.3237 119.582 34.8357C105.853 41.3505 105.054 61.7842 105.801 73.3821C106.576 85.4365 108.503 94.7547 111.867 102.709C112.035 103.106 111.849 103.562 111.454 103.728C111.06 103.897 110.601 103.71 110.435 103.316C107.002 95.1982 105.036 85.7192 104.25 73.4833C103.871 67.6091 103.85 58.9677 105.899 51.1615C108.197 42.4034 112.577 36.4385 118.916 33.4301C120.734 32.5664 122.562 32.1359 124.354 32.1359ZM93.8164 28.1576C94.2469 28.1576 94.5945 28.5077 94.5919 28.9382C94.527 48.1323 95.5359 70.4567 103.485 90.517C103.643 90.9164 103.448 91.3677 103.049 91.5259C102.65 91.6841 102.198 91.4896 102.04 91.0902C93.9928 70.7861 92.9736 48.275 93.0384 28.933C93.0384 28.5051 93.3885 28.1576 93.8164 28.1576ZM76.7204 62.8553C76.8345 62.8553 76.9486 62.8813 77.0576 62.9331C84.0469 66.2994 90.1519 71.7794 94.2495 78.3642C94.4778 78.7298 94.3637 79.2096 94.0006 79.4352C93.6349 79.6635 93.1551 79.5494 92.9295 79.1863C88.9848 72.8479 83.1081 67.5728 76.3833 64.3336C75.9968 64.1469 75.8335 63.6826 76.0202 63.2962C76.155 63.0187 76.4325 62.8553 76.723 62.8553H76.7204Z" fill="#E3E2E2"/>
</svg>
