<svg width="240" height="240" viewBox="0 0 240 240" fill="none" xmlns="http://www.w3.org/2000/svg">
<path d="M161.239 105.306L150.682 106.761L141.552 108.016C142.519 101.07 141.845 93.5487 139.255 86.1567C136.99 79.6983 133.526 74.0727 129.283 69.5391L145.039 60.1719C141.95 67.5615 141.588 76.6455 144.686 85.4919C147.418 93.2799 152.359 99.5391 158.297 103.545C159.252 104.193 160.236 104.783 161.239 105.309V105.306Z" fill="#E3E2E2"/>
<g opacity="0.75">
<path d="M191.72 106.129C186.795 107.797 176.818 108.301 176.472 108.315C176.465 108.317 176.463 108.317 176.463 108.317C171.845 108.857 167.165 108.032 162.809 106.066C162.284 105.826 161.76 105.572 161.244 105.301C160.241 104.775 159.257 104.185 158.302 103.537C152.364 99.531 147.425 93.2718 144.692 85.4838C141.593 76.6374 141.956 67.5534 145.044 60.1638C147.094 55.2678 150.336 51.1158 154.565 48.2694C154.808 48.0942 155.06 47.931 155.314 47.7846C155.343 47.7654 155.367 47.7534 155.396 47.7366C155.398 47.7366 155.398 47.7342 155.4 47.7342C155.981 47.3742 156.581 47.0382 157.198 46.7334C164.352 42.8262 169.1 41.1726 169.39 41.0742C164.086 43.5414 159.91 47.751 157.133 52.9782C152.758 61.2054 151.86 71.9574 155.52 82.3974C158.943 92.1654 165.648 99.6582 173.504 103.609C179.242 106.503 185.592 107.504 191.72 106.126V106.129Z" fill="#E3E2E2"/>
</g>
<path d="M173.697 109.2C169.951 109.2 166.135 108.36 162.511 106.726C161.93 106.462 161.407 106.205 160.905 105.941C159.881 105.403 158.865 104.796 157.893 104.136C151.62 99.9025 146.688 93.3649 144.009 85.7257C140.942 76.9705 141.072 67.7953 144.377 59.8897C146.52 54.7681 149.899 50.5465 154.149 47.6833C154.406 47.4961 154.673 47.3257 154.941 47.1697C154.946 47.1673 154.951 47.1625 154.956 47.1601L155.097 47.0185H155.193C155.748 46.6801 156.309 46.3705 156.864 46.0969C164.186 42.0985 168.957 40.4617 169.157 40.3945L169.692 41.7289C164.678 44.0617 160.555 48.0697 157.766 53.3185C153.293 61.7329 152.719 72.2449 156.197 82.1617C159.425 91.3729 165.849 98.9569 173.825 102.967C179.606 105.883 185.738 106.733 191.561 105.427L191.949 106.812C187.101 108.454 177.667 108.977 176.601 109.032L176.585 109.037H176.51C175.579 109.145 174.641 109.2 173.695 109.2H173.697ZM155.589 48.4585C155.385 48.5785 155.181 48.7129 154.985 48.8569L154.963 48.8713C150.943 51.5785 147.741 55.5793 145.706 60.4465C142.584 67.9129 142.461 76.9537 145.37 85.2505C147.948 92.5993 152.683 98.8825 158.702 102.946C159.631 103.577 160.598 104.155 161.575 104.669C162.053 104.921 162.554 105.166 163.106 105.418C167.39 107.352 171.957 108.111 176.313 107.616L176.345 107.607L176.441 107.602C176.491 107.602 178.98 107.475 182.071 107.153C179.071 106.69 176.083 105.723 173.181 104.259C164.877 100.083 158.191 92.2033 154.843 82.6417C151.233 72.3457 151.838 61.4137 156.501 52.6465C158.109 49.6177 160.145 46.9801 162.528 44.8081C161.047 45.5233 159.374 46.3753 157.548 47.3713L157.521 47.3857C156.969 47.6593 156.408 47.9689 155.851 48.3121L155.7 48.4633H155.594L155.589 48.4585Z" fill="#E3E2E2"/>
<g opacity="0.5">
<path d="M210.679 63.0754C204.372 45.0754 186.912 34.8082 171.679 40.1458C170.899 40.4194 170.138 40.729 169.399 41.0722C169.394 41.0722 169.389 41.0746 169.387 41.077C155.736 47.4298 149.534 65.329 155.515 82.4002C161.438 99.3082 177.201 109.391 191.717 106.131C192.657 105.92 193.591 105.654 194.515 105.33C209.75 99.9922 216.986 81.073 210.679 63.0754ZM196.233 93.0586C195.091 93.781 193.86 94.3834 192.545 94.8418C190.829 95.4442 189.067 95.773 187.308 95.8426C177.816 96.2386 168.249 89.257 164.412 78.3058C160.574 67.3546 163.692 55.9282 171.355 50.3098C172.773 49.2682 174.353 48.4258 176.073 47.8234C177.18 47.437 178.303 47.161 179.433 46.9978C189.516 45.5242 200.114 52.6882 204.204 64.3618C208.212 75.793 204.643 87.7354 196.233 93.0562V93.0586Z" fill="#E3E2E2"/>
</g>
<path d="M186.192 107.46C180.686 107.46 175.094 105.744 170.002 102.429C163.126 97.9558 157.74 90.9262 154.836 82.6342C151.901 74.2582 151.747 65.3278 154.406 57.4846C157.058 49.663 162.257 43.6102 169.051 40.4374L169.097 40.4134C169.836 40.0702 170.623 39.7486 171.442 39.4606C179.011 36.8062 187.339 37.7926 194.892 42.2326C202.404 46.6486 208.253 53.9662 211.358 62.8318C217.788 81.1774 210.338 100.545 194.755 106.005C193.834 106.327 192.864 106.605 191.875 106.829C190.008 107.249 188.105 107.455 186.192 107.455V107.46ZM169.819 41.671L169.694 41.731C156.355 47.9374 150.427 65.695 156.199 82.1614C161.976 98.6542 177.18 108.657 191.561 105.432C192.494 105.221 193.411 104.957 194.28 104.654C209.114 99.4558 216.166 80.911 210 63.3142C207.005 54.7678 201.382 47.7262 194.162 43.4806C186.982 39.259 179.083 38.3158 171.922 40.8262C171.192 41.083 170.484 41.3686 169.822 41.6734L169.819 41.671Z" fill="#E3E2E2"/>
<path d="M194.249 67.8519C190.411 56.9031 180.85 49.9191 171.355 50.3127C163.692 55.9311 160.575 67.3551 164.412 78.3087C168.25 89.2623 177.814 96.2415 187.308 95.8455C194.974 90.2295 198.087 78.8055 194.249 67.8543V67.8519ZM172.289 80.7615C171.144 81.1623 169.879 80.5239 169.462 79.3335C169.042 78.1431 169.635 76.8543 170.779 76.4511C171.924 76.0503 173.191 76.6911 173.609 77.8791C174.027 79.0695 173.434 80.3607 172.289 80.7615ZM174.804 72.9855C171.768 74.0511 168.413 72.3567 167.307 69.2007C166.203 66.0471 167.767 62.6295 170.803 61.5663C173.839 60.5031 177.195 62.1999 178.301 65.3511C179.405 68.5047 177.84 71.9247 174.804 72.9855Z" fill="#E3E2E2"/>
<g opacity="0.75">
<path d="M204.204 64.3625C208.755 77.3465 203.532 90.9929 192.545 94.8425C190.827 95.4449 189.067 95.7712 187.308 95.8432C194.974 90.2272 198.087 78.8033 194.249 67.8521C190.411 56.9009 180.85 49.9192 171.355 50.3128C172.776 49.2712 174.355 48.4289 176.071 47.8265C187.059 43.9769 199.654 51.3832 204.204 64.3648V64.3625Z" fill="#E3E2E2"/>
</g>
<path d="M186.528 96.5787C176.784 96.5787 167.494 89.2731 163.735 78.5427C159.871 67.5171 162.83 55.6659 170.93 49.7283L171.125 49.5891C172.577 48.5523 174.161 47.7291 175.836 47.1459C181.351 45.2139 187.418 45.9291 192.919 49.1619C198.379 52.3707 202.63 57.6867 204.883 64.1259C207.139 70.5651 207.137 77.3691 204.874 83.2851C202.596 89.2419 198.3 93.5883 192.785 95.5203C191.033 96.1347 189.199 96.4851 187.337 96.5619C187.066 96.5739 186.797 96.5787 186.526 96.5787H186.528ZM171.598 51.0267C164.143 56.6379 161.467 67.7187 165.094 78.0675C168.65 88.2219 177.389 95.1387 186.526 95.1387C186.778 95.1387 187.027 95.1339 187.279 95.1219C189 95.0523 190.692 94.7283 192.31 94.1619C197.422 92.3715 201.406 88.3251 203.53 82.7715C205.67 77.1747 205.668 70.7211 203.525 64.6035C201.382 58.4835 197.354 53.4411 192.19 50.4051C187.061 47.3907 181.423 46.7163 176.314 48.5067C174.698 49.0707 173.174 49.8723 171.785 50.8923L171.6 51.0291L171.598 51.0267Z" fill="#E3E2E2"/>
<g opacity="0.75">
<path d="M174.802 72.9825C171.766 74.0481 168.411 72.3537 167.304 69.1977C166.2 66.0441 167.765 62.6265 170.801 61.5633C173.837 60.5001 177.192 62.1969 178.299 65.3481C179.403 68.5017 177.838 71.9217 174.802 72.9825ZM172.289 80.7585C171.144 81.1593 169.879 80.5209 169.462 79.3305C169.042 78.1401 169.635 76.8513 170.779 76.4481C171.924 76.0473 173.191 76.6881 173.609 77.8761C174.027 79.0665 173.434 80.3577 172.289 80.7585Z" fill="#E3E2E2"/>
</g>
<path d="M80.2628 136.541L58.4156 139.551L45.6188 141.312C37.0172 142.493 28.7924 137.367 26.0708 129.123L23.5076 121.354C20.8652 113.338 24.146 104.556 31.4036 100.243L60.9356 82.6875C57.2492 91.5051 56.8148 102.344 60.5132 112.901C64.2956 123.692 71.6348 132.017 80.2604 136.543L80.2628 136.541Z" fill="#E3E2E2"/>
<g opacity="0.75">
<path d="M116.63 137.526C110.758 139.516 98.8536 140.113 98.4384 140.135H98.4288C92.2488 140.86 85.9752 139.53 80.268 136.537C71.6424 132.013 64.3032 123.685 60.5184 112.895C56.82 102.34 57.252 91.499 60.9408 82.6838C63.384 76.8422 67.2528 71.8886 72.2976 68.4926C72.588 68.2814 72.888 68.0894 73.1928 67.9142C73.2264 67.8926 73.2576 67.8758 73.2912 67.8566C73.2936 67.8566 73.2936 67.8542 73.296 67.8542C73.9896 67.4246 74.7048 67.0238 75.4416 66.6614C83.9784 62.0006 89.6424 60.0278 89.9904 59.9102C83.664 62.8526 78.6792 67.8758 75.3648 74.111C70.1472 83.9294 69.072 96.7574 73.44 109.213C77.5224 120.87 85.5264 129.808 94.9008 134.524C101.746 137.975 109.322 139.17 116.633 137.529L116.63 137.526Z" fill="#E3E2E2"/>
</g>
<path d="M95.0998 141.051C89.9902 141.051 84.8086 139.734 79.9318 137.178C70.8502 132.414 63.5255 123.651 59.8391 113.137C56.191 102.721 56.3446 91.8081 60.2758 82.4097C62.8198 76.3233 66.835 71.3097 71.8846 67.9065C72.1774 67.6929 72.4943 67.4913 72.8207 67.3017L72.9335 67.1673L73.063 67.1553C73.7446 66.7401 74.431 66.3609 75.1102 66.0249C83.8342 61.2633 89.5199 59.3121 89.7598 59.2305L90.2951 60.5649C84.2855 63.3609 79.3438 68.1633 76.003 74.4513C70.6486 84.5265 69.9622 97.1097 74.1215 108.978C77.983 120.001 85.675 129.078 95.2246 133.882C102.151 137.374 109.5 138.394 116.477 136.83L116.865 138.214C111.108 140.163 99.8015 140.792 98.4935 140.859C97.3703 140.989 96.2374 141.056 95.1046 141.056L95.0998 141.051ZM73.5142 68.5593C73.2358 68.7225 72.967 68.8953 72.7174 69.0777L72.6958 69.0921C67.8742 72.3369 64.0367 77.1345 61.6007 82.9641C57.8615 91.9017 57.715 102.726 61.195 112.659C64.7638 122.833 71.8342 131.305 80.599 135.901C86.3086 138.896 92.4455 140.113 98.3423 139.422L98.4046 139.417C99.0742 139.383 102.434 139.198 106.284 138.759C102.333 138.294 98.3902 137.089 94.5718 135.164C84.691 130.194 76.7398 120.822 72.7558 109.448C68.4646 97.2033 69.1822 84.2001 74.7262 73.7697C76.8046 69.8553 79.483 66.4905 82.639 63.7905C80.6662 64.7241 78.3622 65.8809 75.7846 67.2897L75.7583 67.3041C75.1007 67.6305 74.431 68.0001 73.7662 68.4057L73.6486 68.5449L73.5118 68.5569L73.5142 68.5593Z" fill="#E3E2E2"/>
<g opacity="0.5">
<path d="M122.019 121.926C120.658 122.79 119.187 123.506 117.617 124.055C115.567 124.775 113.467 125.166 111.37 125.248C100.044 125.721 88.6299 117.39 84.0531 104.325C79.4763 91.2568 83.1915 77.6272 92.3379 70.924C94.0323 69.6808 95.9163 68.6776 97.9659 67.9576C99.2859 67.4944 100.627 67.168 101.974 66.9712C114.003 65.212 126.648 73.7584 131.528 87.6904C136.308 101.33 132.051 115.578 122.019 121.926ZM139.255 86.152C136.99 79.6936 133.527 74.068 129.283 69.5344C119.439 58.9888 105.43 54.34 92.7195 58.7944C91.7883 59.1232 90.8811 59.4904 90.0003 59.8984C89.9955 59.8984 89.9907 59.9032 89.9835 59.9056C73.6971 67.4872 66.2955 88.84 73.4355 109.209C80.5011 129.383 99.3099 141.412 116.626 137.524C117.747 137.274 118.86 136.955 119.967 136.569C131.887 132.39 139.704 121.247 141.55 108.011C142.517 101.066 141.843 93.544 139.253 86.152H139.255Z" fill="#E3E2E2"/>
</g>
<path d="M110.035 138.975C103.495 138.975 96.8496 136.935 90.7968 132.997C82.62 127.676 76.212 119.312 72.7584 109.45C69.2664 99.4855 69.084 88.8607 72.2448 79.5343C75.3936 70.2415 81.5688 63.0511 89.6328 59.2783L89.772 59.1847H89.8344C90.6864 58.7935 91.5744 58.4359 92.4792 58.1167C105.086 53.6983 119.388 57.8863 129.809 69.0439C134.213 73.7527 137.714 79.5871 139.932 85.9159C142.471 93.1615 143.278 100.837 142.262 108.114C141.324 114.846 138.852 121.071 135.115 126.118C131.251 131.338 126.094 135.188 120.206 137.252C119.09 137.643 117.938 137.972 116.786 138.231C114.566 138.73 112.308 138.975 110.035 138.975ZM90.3144 60.5503L90.2904 60.5623C74.3136 67.9975 67.2096 89.2639 74.1168 108.975C81.0336 128.722 99.2424 140.696 116.472 136.827C117.571 136.58 118.668 136.268 119.731 135.896C131.059 131.926 138.948 121.467 140.839 107.919C141.821 100.87 141.038 93.4255 138.576 86.3959C136.423 80.2543 133.027 74.5951 128.758 70.0303C118.735 59.2951 105.017 55.2535 92.9592 59.4799C92.0544 59.7991 91.164 60.1615 90.3144 60.5551V60.5503ZM110.436 125.989C98.8704 125.989 87.84 117.313 83.3736 104.564C78.7848 91.4647 82.296 77.3911 91.9104 70.3423C93.6864 69.0391 95.6448 68.0071 97.7256 67.2775C99.072 66.8071 100.466 66.4639 101.868 66.2599C107.911 65.3767 114.293 67.0087 119.842 70.8559C125.422 74.7271 129.814 80.6191 132.206 87.4519C137.009 101.149 132.886 115.902 122.402 122.535C120.982 123.435 119.453 124.174 117.854 124.734C115.774 125.463 113.599 125.878 111.398 125.967C111.077 125.982 110.755 125.986 110.436 125.986V125.989ZM105.199 67.4575C104.16 67.4575 103.118 67.5319 102.079 67.6831C100.769 67.8751 99.4632 68.1943 98.2032 68.6359C96.2544 69.3199 94.4256 70.2823 92.7624 71.5039C83.652 78.1807 80.3496 91.5799 84.732 104.086C89.1144 116.595 100.051 125 111.341 124.53C113.402 124.448 115.433 124.059 117.382 123.375C118.877 122.852 120.31 122.161 121.637 121.318C131.558 115.04 135.432 100.998 130.85 87.9271C126.54 75.6223 116.081 67.4551 105.199 67.4551V67.4575Z" fill="#E3E2E2"/>
<path d="M119.65 91.853C115.073 78.7874 103.663 70.457 92.3378 70.925C83.1938 77.6282 79.4762 91.2578 84.0554 104.323C88.6346 117.391 100.044 125.722 111.37 125.251C120.514 118.551 124.229 104.921 119.65 91.853ZM93.449 107.256C92.0834 107.736 90.5714 106.973 90.0722 105.552C89.5754 104.134 90.281 102.593 91.6466 102.113C93.0122 101.635 94.5266 102.399 95.0234 103.817C95.5202 105.238 94.8146 106.776 93.449 107.256ZM96.449 97.9778C92.8274 99.245 88.8242 97.2266 87.5066 93.461C86.1866 89.7002 88.0538 85.6202 91.6754 84.353C95.297 83.0834 99.3026 85.1042 100.62 88.8674C101.94 92.6306 100.071 96.7106 96.449 97.9778Z" fill="#E3E2E2"/>
<g opacity="0.75">
<path d="M131.527 87.6912C136.956 103.183 130.726 119.465 117.617 124.058C115.567 124.776 113.467 125.167 111.367 125.254C120.511 118.553 124.227 104.923 119.647 91.8552C115.071 78.7896 103.661 70.4568 92.333 70.9272C94.0274 69.684 95.9114 68.6784 97.961 67.9608C111.07 63.3672 126.099 72.204 131.527 87.6936V87.6912Z" fill="#E3E2E2"/>
</g>
<g opacity="0.75">
<path d="M96.4462 97.9768C92.8246 99.244 88.8214 97.2256 87.5038 93.46C86.1838 89.6992 88.051 85.6192 91.6726 84.352C95.2942 83.0824 99.2998 85.1032 100.617 88.8664C101.937 92.6296 100.068 96.7096 96.4462 97.9768ZM93.4462 107.253C92.0806 107.733 90.5686 106.97 90.0694 105.549C89.5726 104.13 90.2782 102.59 91.6438 102.11C93.0094 101.632 94.5238 102.395 95.0206 103.814C95.5174 105.234 94.8118 106.773 93.4462 107.253Z" fill="#E3E2E2"/>
</g>
<g opacity="0.5">
<path d="M76.7467 179.784C79.6459 181.886 82.7779 183.629 86.0587 184.949C86.0539 184.958 86.0491 184.973 86.0419 184.982L82.0363 194.69C48.1771 184.178 45.6211 141.309 45.6211 141.309L58.4179 139.548C59.5603 150.153 63.4531 170.141 76.7491 179.784H76.7467ZM162.806 106.07C162.686 120.869 159.708 175.569 122.887 192.117L120.391 183.384C120.297 183.062 120.168 182.76 120.002 182.489C127.259 178.128 133.958 170.947 139.269 160.375C153.038 132.972 151.353 111.787 150.683 106.759L161.241 105.305C161.76 105.576 162.28 105.83 162.806 106.07Z" fill="#E3E2E2"/>
</g>
<path d="M82.4515 195.574L81.8228 195.379C73.9747 192.943 67.1492 188.575 61.5308 182.4C57.0476 177.473 53.3252 171.394 50.4644 164.328C45.6044 152.326 44.9084 141.461 44.9012 141.353L44.8604 140.688L59.0516 138.737L59.1308 139.474C60.2924 150.269 64.1828 169.783 77.1692 179.203C80.0348 181.282 83.1164 182.991 86.3276 184.282L87.0524 184.572L86.7043 185.268L82.4515 195.574ZM46.394 141.931C46.6268 144.442 47.7164 153.723 51.8156 163.829C56.15 174.514 64.8308 188.321 81.6236 193.807L85.118 185.343C82.0412 184.042 79.0868 182.371 76.3243 180.37C63.1819 170.837 59.0684 151.529 57.7819 140.364L46.394 141.931ZM122.424 193.114L119.697 183.581C119.623 183.322 119.517 183.077 119.385 182.861L119.008 182.242L119.63 181.87C127.264 177.281 133.656 169.942 138.624 160.051C152.14 133.152 150.724 112.531 149.968 106.853L149.875 106.143L161.371 104.559L161.575 104.667C162.052 104.919 162.552 105.163 163.106 105.415L163.531 105.61L163.526 106.075C163.471 112.913 162.753 130.75 157.298 148.647C150.552 170.784 139.072 185.631 123.182 192.773L122.424 193.114ZM120.938 182.758C120.993 182.895 121.041 183.036 121.084 183.183L123.35 191.112C158.436 174.631 161.894 122.88 162.081 106.527C161.743 106.366 161.421 106.207 161.112 106.049L151.485 107.374C152.253 114.022 153.103 134.448 139.912 160.697C134.942 170.592 128.56 178.011 120.938 182.758Z" fill="#E3E2E2"/>
<g opacity="0.75">
<path d="M120.852 196.973C117.365 198.401 111.041 200.52 102.763 201.305C95.0015 202.042 88.4543 201.06 84.4583 200.158C82.2191 199.654 80.9735 197.264 81.8495 195.142L82.0367 194.688L86.0423 184.98C86.0423 184.98 86.0519 184.956 86.0591 184.947C86.7623 183.281 88.5695 182.372 90.3263 182.799C94.4495 183.802 101.966 185.146 107.789 183.461C111.216 182.465 113.745 181.608 115.543 180.939C117.25 180.3 119.107 181.006 120 182.487C120.166 182.758 120.295 183.06 120.389 183.382L122.885 192.116L123.005 192.538C123.523 194.352 122.594 196.258 120.85 196.973H120.852Z" fill="#E3E2E2"/>
</g>
<path d="M97.2689 202.283C91.9217 202.283 87.4241 201.566 84.3017 200.86C83.0249 200.572 81.9497 199.744 81.3473 198.585C80.7473 197.428 80.6873 196.075 81.1865 194.867L85.4009 184.663C86.2481 182.666 88.3913 181.588 90.5009 182.099C94.4393 183.057 101.899 184.418 107.591 182.769C110.517 181.919 113.109 181.077 115.295 180.263C117.285 179.522 119.524 180.299 120.621 182.114C120.818 182.438 120.974 182.798 121.087 183.182L123.705 192.34C124.322 194.507 123.215 196.785 121.13 197.639C117.287 199.211 110.995 201.249 102.837 202.022C100.903 202.204 99.0425 202.283 97.2737 202.283H97.2689ZM86.7065 185.267L82.5185 195.417C82.1825 196.231 82.2233 197.143 82.6265 197.923C83.0321 198.703 83.7593 199.262 84.6185 199.456C88.6721 200.371 95.0993 201.309 102.695 200.589C110.678 199.833 116.827 197.843 120.578 196.307C121.984 195.731 122.731 194.195 122.313 192.736L119.697 183.583C119.623 183.323 119.517 183.079 119.385 182.863C118.646 181.639 117.136 181.115 115.795 181.617C113.575 182.443 110.949 183.297 107.99 184.156C101.973 185.899 94.2353 184.495 90.1577 183.503C88.7369 183.158 87.2921 183.885 86.7233 185.231L86.7065 185.27V185.267Z" fill="#E3E2E2"/>
<path d="M49.879 186.334C49.4614 186.334 49.0462 186.33 48.6286 186.322C48.2302 186.315 47.9158 185.986 47.923 185.588C47.9302 185.19 48.2614 184.885 48.6574 184.882C50.551 184.918 52.4638 184.87 54.3502 184.741C54.7462 184.712 55.0894 185.014 55.1182 185.41C55.1446 185.806 54.847 186.15 54.4486 186.178C52.9342 186.282 51.3982 186.334 49.879 186.334ZM42.8974 185.962C42.871 185.962 42.847 185.962 42.8206 185.958C40.891 185.751 38.9542 185.456 37.0654 185.082C36.6766 185.005 36.4222 184.626 36.499 184.234C36.5758 183.843 36.9574 183.591 37.3462 183.668C39.1942 184.035 41.0878 184.323 42.9766 184.525C43.3726 184.568 43.6582 184.923 43.615 185.317C43.5766 185.686 43.2622 185.96 42.8998 185.96L42.8974 185.962ZM60.1198 185.538C59.7718 185.538 59.4646 185.283 59.4094 184.928C59.347 184.534 59.6158 184.167 60.0094 184.105C61.8814 183.812 63.7582 183.433 65.5918 182.979C65.9782 182.883 66.367 183.118 66.463 183.505C66.559 183.891 66.3238 184.282 65.9374 184.376C64.063 184.839 62.1454 185.228 60.2302 185.528C60.1918 185.533 60.1558 185.538 60.1174 185.538H60.1198ZM71.287 182.768C70.987 182.768 70.7086 182.581 70.6054 182.281C70.4758 181.904 70.675 181.496 71.0518 181.366C71.419 181.239 71.7862 181.11 72.151 180.978C73.5718 180.459 74.9854 179.886 76.3462 179.274C76.7086 179.11 77.1358 179.274 77.299 179.636C77.4622 179.998 77.299 180.426 76.9366 180.589C75.5422 181.215 74.0974 181.801 72.6454 182.331C72.271 182.468 71.899 182.6 71.5222 182.73C71.4454 182.756 71.3662 182.768 71.287 182.768ZM81.775 178.042C81.5254 178.042 81.283 177.913 81.151 177.68C80.9518 177.334 81.0718 176.895 81.4174 176.698C83.1166 175.722 84.715 174.678 86.1646 173.595C86.4838 173.358 86.935 173.422 87.1726 173.742C87.4102 174.061 87.3454 174.512 87.0262 174.75C85.5286 175.868 83.8846 176.943 82.135 177.949C82.0222 178.014 81.8998 178.045 81.7774 178.045L81.775 178.042ZM124.932 174.637C124.543 174.637 124.224 174.327 124.212 173.936C124.202 173.538 124.514 173.206 124.913 173.197C126.801 173.146 128.724 173.043 130.627 172.89C131.023 172.856 131.371 173.154 131.402 173.55C131.433 173.946 131.138 174.294 130.742 174.325C128.813 174.481 126.864 174.586 124.951 174.637C124.944 174.637 124.937 174.637 124.932 174.637ZM119.172 174.632C119.172 174.632 119.157 174.632 119.15 174.632C117.206 174.574 115.257 174.462 113.359 174.296C112.963 174.262 112.67 173.912 112.704 173.516C112.737 173.12 113.085 172.825 113.484 172.861C115.353 173.024 117.273 173.137 119.191 173.192C119.589 173.204 119.901 173.535 119.889 173.934C119.877 174.325 119.558 174.632 119.169 174.632H119.172ZM136.409 173.713C136.053 173.713 135.744 173.451 135.696 173.089C135.643 172.695 135.919 172.333 136.313 172.28C138.197 172.028 140.097 171.721 141.962 171.37C142.353 171.296 142.73 171.555 142.802 171.944C142.877 172.335 142.617 172.712 142.229 172.784C140.34 173.139 138.413 173.449 136.505 173.706C136.471 173.71 136.44 173.713 136.409 173.713ZM107.705 173.619C107.669 173.619 107.633 173.617 107.594 173.612C105.545 173.298 103.675 172.928 101.88 172.479C101.493 172.383 101.261 171.992 101.357 171.606C101.453 171.219 101.844 170.984 102.23 171.082C103.982 171.519 105.809 171.882 107.813 172.189C108.206 172.249 108.475 172.616 108.415 173.01C108.36 173.365 108.053 173.622 107.705 173.622V173.619ZM147.727 171.584C147.403 171.584 147.108 171.363 147.029 171.034C146.935 170.648 147.173 170.259 147.559 170.166C149.414 169.714 151.269 169.208 153.079 168.663C153.461 168.548 153.861 168.764 153.977 169.146C154.092 169.527 153.876 169.928 153.494 170.043C151.661 170.598 149.777 171.109 147.897 171.567C147.84 171.582 147.782 171.589 147.727 171.589V171.584ZM90.9334 171.114C90.7534 171.114 90.5758 171.046 90.4366 170.914C90.1486 170.638 90.139 170.185 90.415 169.897C90.847 169.446 91.2526 168.982 91.6342 168.512C91.4278 168.397 91.2262 168.279 91.0246 168.159C90.6838 167.955 90.571 167.514 90.7726 167.173C90.9766 166.832 91.4182 166.719 91.759 166.921C92.0038 167.065 92.251 167.209 92.503 167.348C92.9398 166.717 93.331 166.074 93.6742 165.416C93.859 165.063 94.2934 164.926 94.6462 165.111C94.999 165.296 95.1358 165.73 94.951 166.083C94.6054 166.743 94.2166 167.391 93.787 168.025C94.7614 168.512 95.779 168.966 96.8326 169.376C97.2022 169.52 97.387 169.938 97.2406 170.31C97.0966 170.679 96.679 170.864 96.307 170.718C95.1334 170.259 94.0006 169.753 92.923 169.201C92.4694 169.779 91.9798 170.343 91.4566 170.89C91.315 171.039 91.1254 171.114 90.9358 171.114H90.9334ZM158.755 168.255C158.46 168.255 158.184 168.073 158.078 167.78C157.941 167.406 158.136 166.993 158.508 166.858C160.305 166.206 162.093 165.495 163.824 164.751C164.189 164.593 164.613 164.763 164.769 165.128C164.928 165.493 164.757 165.918 164.393 166.074C162.636 166.83 160.821 167.55 158.997 168.212C158.916 168.241 158.834 168.255 158.753 168.255H158.755ZM86.9014 164.684C86.7046 164.684 86.5078 164.602 86.3638 164.444C84.9454 162.86 84.0382 161.146 83.6638 159.351C83.6398 159.241 83.6206 159.128 83.6038 159.015C83.5414 158.622 83.8102 158.254 84.2038 158.192C84.5974 158.132 84.9646 158.398 85.027 158.792C85.0414 158.881 85.0558 158.97 85.075 159.056C85.3942 160.602 86.1886 162.09 87.4366 163.482C87.7006 163.777 87.6766 164.233 87.3814 164.499C87.2446 164.622 87.0718 164.684 86.9014 164.684ZM169.329 163.693C169.065 163.693 168.813 163.549 168.686 163.297C168.506 162.942 168.65 162.51 169.003 162.33C170.712 161.466 172.399 160.544 174.019 159.591C174.362 159.39 174.804 159.502 175.005 159.846C175.207 160.189 175.094 160.63 174.751 160.832C173.107 161.802 171.391 162.738 169.653 163.616C169.55 163.669 169.437 163.693 169.329 163.693ZM96.007 161.002C95.983 161.002 95.959 161.002 95.935 161C95.539 160.959 95.251 160.606 95.2894 160.21C95.323 159.884 95.3422 159.553 95.3494 159.226C95.3494 159.176 95.3494 159.128 95.3494 159.078C95.3494 157.705 94.9942 156.27 94.3462 155.034C94.1614 154.681 94.2982 154.246 94.651 154.062C95.0038 153.877 95.4382 154.014 95.623 154.366C96.3766 155.804 96.7894 157.477 96.7894 159.078C96.7894 159.138 96.7894 159.195 96.7894 159.255C96.7822 159.62 96.7606 159.99 96.7222 160.354C96.6838 160.726 96.3718 161.002 96.007 161.002ZM179.246 157.839C179.016 157.839 178.793 157.729 178.651 157.527C178.425 157.198 178.509 156.752 178.838 156.526C180.417 155.442 181.961 154.299 183.425 153.128C183.734 152.881 184.188 152.931 184.437 153.241C184.685 153.55 184.637 154.004 184.325 154.254C182.834 155.446 181.262 156.61 179.654 157.714C179.529 157.801 179.388 157.842 179.249 157.842L179.246 157.839ZM85.6894 154.177C85.5406 154.177 85.3918 154.131 85.2622 154.038C84.943 153.802 84.8734 153.351 85.1086 153.032C86.3446 151.354 88.0366 150.43 89.8798 150.43H89.935C90.2158 150.433 90.5014 150.457 90.7822 150.502C91.1758 150.567 91.4398 150.937 91.3774 151.328C91.3126 151.722 90.9406 151.986 90.5518 151.923C90.3454 151.89 90.1318 151.87 89.9206 151.87H89.8846C88.5118 151.87 87.2302 152.586 86.275 153.886C86.1334 154.078 85.915 154.179 85.6942 154.179L85.6894 154.177ZM188.227 150.642C188.035 150.642 187.843 150.565 187.701 150.414C187.43 150.123 187.445 149.667 187.735 149.396C189.127 148.09 190.471 146.722 191.726 145.33C191.993 145.035 192.449 145.011 192.744 145.278C193.039 145.544 193.063 146 192.797 146.295C191.515 147.716 190.142 149.113 188.721 150.445C188.582 150.574 188.405 150.639 188.229 150.639L188.227 150.642ZM195.924 142.095C195.773 142.095 195.621 142.047 195.492 141.951C195.175 141.711 195.11 141.26 195.35 140.943C196.495 139.424 197.575 137.845 198.561 136.249C198.77 135.91 199.214 135.807 199.553 136.016C199.891 136.225 199.997 136.669 199.785 137.007C198.775 138.642 197.669 140.257 196.5 141.81C196.358 141.997 196.142 142.095 195.924 142.095ZM201.965 132.315C201.857 132.315 201.749 132.291 201.645 132.241C201.288 132.066 201.144 131.634 201.319 131.276C202.073 129.752 202.766 128.178 203.385 126.594L203.568 126.121C203.712 125.749 204.127 125.566 204.499 125.708C204.871 125.852 205.056 126.267 204.912 126.639L204.729 127.114C204.096 128.739 203.383 130.352 202.613 131.914C202.488 132.169 202.231 132.315 201.967 132.315H201.965Z" fill="#E3E2E2"/>
<g opacity="0.5">
<path d="M210.592 120.422C211.804 117.725 208.192 113.475 202.526 110.931C196.86 108.387 191.284 108.511 190.073 111.209C188.862 113.907 192.473 118.156 198.14 120.7C203.806 123.244 209.381 123.12 210.592 120.422Z" fill="#E3E2E2"/>
</g>
<g opacity="0.5">
<path d="M203.03 134.288C202.152 134.288 201.343 134.081 200.63 133.678C198.998 132.752 198.031 130.88 197.901 128.405C197.772 125.912 198.511 123.108 199.982 120.516C202.291 116.448 206.001 113.715 209.215 113.715C210.093 113.715 210.902 113.919 211.612 114.324C214.999 116.247 215.289 122.151 212.26 127.486C209.952 131.554 206.241 134.288 203.028 134.288H203.03Z" fill="#E3E2E2"/>
<path d="M209.217 113.838C210.077 113.838 210.864 114.037 211.557 114.43C214.886 116.319 215.155 122.151 212.16 127.429C209.87 131.461 206.203 134.168 203.03 134.168C202.171 134.168 201.384 133.969 200.69 133.575C197.361 131.686 197.093 125.854 200.088 120.577C202.377 116.545 206.045 113.838 209.217 113.838ZM209.217 113.598C206.042 113.598 202.281 116.228 199.879 120.459C196.812 125.862 197.124 131.828 200.57 133.784C201.317 134.209 202.149 134.408 203.028 134.408C206.203 134.408 209.964 131.778 212.366 127.546C215.433 122.144 215.121 116.178 211.675 114.222C210.929 113.797 210.096 113.598 209.217 113.598Z" fill="#E3E2E2"/>
</g>
<path d="M212.368 127.547C215.434 122.145 215.123 116.179 211.674 114.222C208.225 112.264 202.944 115.056 199.878 120.458C196.812 125.859 197.122 131.825 200.571 133.783C204.02 135.741 209.302 132.949 212.368 127.547Z" fill="#E3E2E2"/>
<g opacity="0.5">
<path d="M201.258 126.644C207.377 125.581 211.928 122.357 211.421 119.443C210.915 116.53 205.543 115.03 199.424 116.094C193.305 117.157 188.754 120.381 189.261 123.295C189.767 126.208 195.138 127.708 201.258 126.644Z" fill="#E3E2E2"/>
</g>
</svg>
