<svg width="130" height="136" viewBox="0 0 130 136" fill="none" xmlns="http://www.w3.org/2000/svg">
<path d="M79.333 22.666C51.1697 22.666 28.333 45.5027 28.333 73.666C28.333 89.5893 35.643 103.813 47.0897 113.163C55.8163 120.359 67.093 124.666 79.333 124.666C91.573 124.666 102.85 120.359 111.576 113.163C123.023 103.813 130.333 89.5893 130.333 73.666C130.333 45.5027 107.496 22.666 79.333 22.666Z" fill="white" fill-opacity="0.2"/>
<path d="M32.1461 111.866C42.1512 120.121 54.8842 124.666 67.9997 124.666C69.639 124.666 71.2727 124.596 72.8957 124.455C82.6389 123.612 91.9991 120.268 99.9778 114.787C101.309 113.872 102.603 112.898 103.854 111.866L103.874 111.844C117.089 101.027 124.666 85.0524 124.666 67.9997C124.666 36.7525 99.244 11.333 67.9997 11.333C36.7554 11.333 11.333 36.7525 11.333 67.9997C11.333 85.0716 18.9252 101.065 32.1461 111.866ZM93.7654 105.287C78.8088 115.682 57.2075 115.687 42.2373 105.289C42.1891 105.256 42.1449 105.217 42.0973 105.184C43.9849 98.4263 49.413 93.2571 56.1909 91.8586C64.1152 90.2759 71.9238 90.2844 79.7705 91.8501C83.2679 92.5749 86.4719 94.3157 89.0394 96.8861C91.348 99.189 93.0089 102.03 93.8963 105.188C93.8516 105.219 93.8102 105.256 93.7654 105.287ZM67.9997 22.6663C92.9959 22.6663 113.333 43.0034 113.333 67.9997C113.333 78.7278 109.536 88.8921 102.778 96.9767C101.317 94 99.4287 91.2432 97.0521 88.8706C92.9183 84.7367 87.7384 81.9283 82.0332 80.7468C72.6475 78.8706 63.3842 78.8655 53.9322 80.7525C44.776 82.6389 37.2319 88.7505 33.2109 96.9694C26.4636 88.8921 22.6663 78.7284 22.6663 67.9997C22.6663 43.0034 43.0034 22.6663 67.9997 22.6663Z" fill="#E0A927"/>
<path d="M67.9997 73.6663C80.5009 73.6663 90.6663 63.4981 90.6663 50.9997C90.6663 38.5013 80.5009 28.333 67.9997 28.333C55.4984 28.333 45.333 38.5013 45.333 50.9997C45.333 63.4981 55.4984 73.6663 67.9997 73.6663ZM67.9997 39.6663C74.2472 39.6663 79.333 44.7493 79.333 50.9997C79.333 57.25 74.2472 62.333 67.9997 62.333C61.7522 62.333 56.6663 57.25 56.6663 50.9997C56.6663 44.7493 61.7522 39.6663 67.9997 39.6663Z" fill="#E0A927"/>
</svg>
