<svg width="189" height="189" viewBox="0 0 189 189" fill="none" xmlns="http://www.w3.org/2000/svg">
<path d="M128.393 133.822L128.39 133.798C128.029 130.084 131.414 126.964 135.275 126.964H160.944C164.758 126.964 167.827 130.033 167.827 133.847V163.729H128.393V133.822Z" fill="#FFAB61" stroke="#11151A"/>
<path d="M83.1406 82.6675H105.856C109.67 82.6675 112.739 85.7364 112.739 89.5503V163.728H76.2578V89.5503C76.2578 85.7364 79.3267 82.6675 83.1406 82.6675Z" fill="#64D0C5" stroke="#11151A"/>
<path d="M94.4463 6.40234H94.4473C94.8235 6.40077 95.2731 6.54509 95.7979 6.85938C96.3193 7.17176 96.8826 7.63251 97.4775 8.21191C98.6682 9.3715 99.9333 10.9557 101.192 12.6377C102.428 14.2889 103.705 16.1001 104.818 17.5693C105.936 19.0443 106.993 20.3171 107.877 20.9561C108.761 21.5948 110.3 22.1991 112.05 22.7988C113.794 23.3964 115.912 24.0416 117.867 24.6982C119.859 25.3671 121.76 26.0724 123.234 26.8398C123.971 27.2233 124.585 27.6135 125.046 28.0107C125.509 28.4104 125.788 28.7916 125.905 29.1494V29.1504C126.022 29.5082 126.023 29.98 125.886 30.5762C125.749 31.169 125.485 31.8468 125.118 32.5918C124.383 34.0829 123.268 35.7768 122.058 37.4941C120.869 39.18 119.542 40.9526 118.489 42.4658C117.432 43.9847 116.549 45.3822 116.214 46.4199C115.879 47.4576 115.78 49.108 115.751 50.958C115.722 52.8012 115.763 55.0157 115.742 57.0781C115.721 59.179 115.638 61.205 115.364 62.8447C115.227 63.6641 115.045 64.3688 114.81 64.9297C114.573 65.4938 114.296 65.8766 113.992 66.0986C113.688 66.3206 113.239 66.4667 112.63 66.5205C112.024 66.574 111.298 66.5323 110.476 66.4131C108.83 66.1746 106.875 65.637 104.868 65.0166C102.898 64.4075 100.801 63.6938 99.0361 63.1602C97.2654 62.6246 95.6636 62.2164 94.5732 62.2188H94.5723C93.4824 62.2233 91.882 62.6396 90.1133 63.1836C88.3532 63.725 86.2568 64.4495 84.291 65.0664C82.2866 65.6954 80.3336 66.241 78.6895 66.4863C77.8679 66.6089 77.1414 66.6535 76.5352 66.6025C75.9255 66.5513 75.476 66.4072 75.1709 66.1865V66.1855C74.8658 65.9649 74.5881 65.5835 74.3486 65.0205C74.1105 64.4607 73.9249 63.7572 73.7842 62.9385C73.5026 61.3 73.4101 59.2745 73.3799 57.1738C73.3502 55.1115 73.3815 52.8978 73.3438 51.0547C73.3059 49.2051 73.1996 47.5549 72.8604 46.5186C72.5211 45.4823 71.6309 44.0883 70.5674 42.5742C69.5077 41.0656 68.1725 39.2987 66.9766 37.6182C65.7585 35.9064 64.6355 34.2182 63.8936 32.7305C63.5228 31.9871 63.2563 31.31 63.1172 30.7178C62.9948 30.1964 62.9784 29.7702 63.0537 29.4316L63.0908 29.292C63.2064 28.9336 63.4837 28.5513 63.9453 28.1494C64.4041 27.75 65.0159 27.3565 65.751 26.9697C67.2222 26.1956 69.1199 25.4816 71.1084 24.8037C73.0607 24.1382 75.1767 23.4834 76.918 22.8779C78.6653 22.2703 80.2014 21.6594 81.082 21.0166C81.9627 20.3737 83.0136 19.0966 84.125 17.6172C85.2322 16.1433 86.4998 14.3275 87.7285 12.6709C88.98 10.9836 90.2382 9.3939 91.4238 8.22852C92.0163 7.64612 92.5783 7.1825 93.0986 6.86719C93.6217 6.55029 94.0699 6.40331 94.4463 6.40234Z" fill="#EDC446" stroke="#11151A"/>
<path d="M28.0547 103.339H53.7236C57.5375 103.339 60.6064 106.408 60.6064 110.222V163.729H21.1719V110.222C21.1719 106.408 24.2408 103.339 28.0547 103.339Z" fill="#BFDD78" stroke="#11151A"/>
<path d="M16.6309 161.775H172.11C177.877 161.775 182.518 166.417 182.519 172.184C182.519 177.951 177.877 182.592 172.11 182.592H16.6309C10.8638 182.592 6.22266 177.951 6.22266 172.184C6.22273 166.417 10.8639 161.776 16.6309 161.775Z" fill="url(#paint0_linear_3129_72993)" stroke="#11151A"/>
<defs>
<linearGradient id="paint0_linear_3129_72993" x1="101.909" y1="157.698" x2="101.909" y2="183.09" gradientUnits="userSpaceOnUse">
<stop stop-color="#F5F8FF"/>
<stop offset="1" stop-color="#A0C9FF"/>
</linearGradient>
</defs>
</svg>
