<svg width="1440" height="1008" viewBox="0 0 1440 1008" fill="none" xmlns="http://www.w3.org/2000/svg">
<path d="M151.807 870.285C139.563 864.598 121.562 875.549 105.512 896.346C103.021 855.315 70.6141 864.457 46.7617 896.346C46.1272 883.398 41.9911 873.857 34.3066 870.285C16.8461 862.177 -12.3409 887.91 -30.8823 927.813C-62.8188 994.506 -38.9428 1052.81 13.4856 988.678C15.9767 1029.71 48.3831 1020.57 72.2356 988.678C72.8701 1001.63 77.0061 1011.17 84.6906 1014.74C127.837 1031.26 192.25 892.586 151.807 870.308V870.285Z" fill="white" fill-opacity="0.08"/>
<path d="M1199.66 635C1199.66 632.24 1197.42 630 1194.66 630H1190.08L1193.32 626.755C1195.28 624.8 1195.28 621.635 1193.32 619.685C1191.37 617.735 1188.2 617.73 1186.25 619.685L1183.01 622.93V618.345C1183.01 615.585 1180.77 613.345 1178.01 613.345C1175.25 613.345 1173.01 615.585 1173.01 618.345V622.93L1169.76 619.685C1167.81 617.73 1164.64 617.73 1162.69 619.685C1160.74 621.64 1160.74 624.805 1162.69 626.755L1165.94 630H1161.35C1158.59 630 1156.35 632.24 1156.35 635C1156.35 637.76 1158.59 640 1161.35 640H1165.94L1162.69 643.245C1160.74 645.2 1160.74 648.365 1162.69 650.315C1164.65 652.27 1167.81 652.27 1169.76 650.315L1173.01 647.07V651.655C1173.01 654.415 1175.25 656.655 1178.01 656.655C1180.77 656.655 1183.01 654.415 1183.01 651.655V647.07L1186.25 650.315C1188.21 652.27 1191.37 652.27 1193.32 650.315C1195.28 648.36 1195.28 645.195 1193.32 643.245L1190.08 640H1194.66C1197.42 640 1199.66 637.76 1199.66 635Z" fill="white" fill-opacity="0.08"/>
<path d="M366.662 500C366.662 497.24 364.422 495 361.662 495H357.077L360.322 491.755C362.277 489.8 362.277 486.635 360.322 484.685C358.367 482.735 355.202 482.73 353.252 484.685L350.007 487.93V483.345C350.007 480.585 347.767 478.345 345.007 478.345C342.247 478.345 340.007 480.585 340.007 483.345V487.93L336.762 484.685C334.807 482.73 331.642 482.73 329.692 484.685C327.742 486.64 327.737 489.805 329.692 491.755L332.937 495H328.352C325.592 495 323.352 497.24 323.352 500C323.352 502.76 325.592 505 328.352 505H332.937L329.692 508.245C327.737 510.2 327.737 513.365 329.692 515.315C331.647 517.27 334.812 517.27 336.762 515.315L340.007 512.07V516.655C340.007 519.415 342.247 521.655 345.007 521.655C347.767 521.655 350.007 519.415 350.007 516.655V512.07L353.252 515.315C355.207 517.27 358.372 517.27 360.322 515.315C362.277 513.36 362.277 510.195 360.322 508.245L357.077 505H361.662C364.422 505 366.662 502.76 366.662 500Z" fill="white" fill-opacity="0.08"/>
<path d="M1188.68 251.45C1171.92 251.648 1160.3 232.275 1174.03 219.753C1179.48 214.935 1188.52 215.678 1193.11 221.323C1197 225.728 1196.41 233.032 1191.84 236.741C1188.05 239.957 1182.34 239.487 1179.13 235.694C1177.87 234.211 1178.06 231.989 1179.54 230.731C1181.02 229.472 1183.25 229.657 1184.5 231.14C1185.17 231.963 1186.5 232.077 1187.29 231.369C1188.92 230.044 1189.13 227.444 1187.74 225.873C1185.54 223.163 1181.2 222.806 1178.59 225.121C1174.38 228.685 1173.86 235.007 1177.42 239.214C1182.67 245.409 1191.99 246.175 1198.18 240.921C1199.66 239.663 1201.88 239.847 1203.14 241.33C1204.4 242.813 1204.22 245.035 1202.73 246.293C1198.65 249.756 1193.65 251.446 1188.68 251.446V251.45Z" fill="white" fill-opacity="0.08"/>
<path d="M441.675 886.45C424.916 886.648 413.295 867.275 427.032 854.753C432.484 849.935 441.521 850.678 446.11 856.323C450.004 860.728 449.406 868.032 444.839 871.741C441.046 874.957 435.344 874.487 432.132 870.694C430.873 869.211 431.058 866.989 432.541 865.731C434.024 864.472 436.246 864.657 437.504 866.14C438.173 866.963 439.497 867.077 440.289 866.369C441.917 865.044 442.133 862.444 440.742 860.873C438.538 858.163 434.204 857.806 431.586 860.121C427.38 863.685 426.86 870.007 430.424 874.214C435.674 880.409 444.988 881.175 451.179 875.921C452.662 874.663 454.884 874.847 456.142 876.33C457.401 877.813 457.216 880.035 455.733 881.293C451.65 884.756 446.647 886.446 441.675 886.446V886.45Z" fill="white" fill-opacity="0.08"/>
<path d="M1346.09 474.872C1340.02 474.808 1336.69 470.263 1336.74 463.723C1336.77 456.808 1339.59 450.031 1344.47 445.134C1347.82 442.029 1352.44 446.639 1349.34 449.993C1345.73 453.618 1343.64 458.627 1343.62 463.748C1343.68 468.164 1345.17 468.702 1349 467.36C1347.95 464.359 1348.1 460.639 1349.46 456.387C1350.2 454.082 1351.26 451.472 1353.56 449.593C1356.22 447.408 1360.72 446.781 1363.64 449.511C1368.44 453.876 1364.66 462.854 1360.81 467.197C1362.77 466.53 1364.48 464.896 1365.82 462.523C1366.74 460.863 1368.83 460.265 1370.49 461.19C1372.15 462.114 1372.75 464.208 1371.83 465.868C1370.36 468.496 1367.72 471.966 1363.42 473.57C1360.05 474.825 1356.39 474.52 1353.53 472.886C1351.3 474.004 1348.46 474.898 1346.08 474.872H1346.09ZM1358.87 454.564C1356.56 454.594 1355.18 460.743 1355.21 463.129C1356.86 461.319 1358.12 459.139 1358.78 456.8C1359.12 455.591 1359.05 454.813 1358.95 454.568H1358.87V454.564Z" fill="white" fill-opacity="0.08"/>
<path d="M225.087 701.872C219.019 701.808 215.691 697.263 215.743 690.723C215.769 683.808 218.585 677.031 223.47 672.134C226.815 669.029 231.438 673.639 228.342 676.993C224.725 680.618 222.644 685.627 222.623 690.748C222.683 695.164 224.171 695.702 227.998 694.36C226.953 691.359 227.099 687.639 228.462 683.387C229.202 681.082 230.264 678.472 232.556 676.593C235.222 674.408 239.724 673.781 242.639 676.511C247.438 680.876 243.663 689.854 239.814 694.197C241.775 693.53 243.478 691.896 244.815 689.523C245.74 687.863 247.834 687.265 249.493 688.19C251.153 689.114 251.751 691.208 250.826 692.868C249.364 695.496 246.716 698.966 242.42 700.57C239.053 701.825 235.385 701.52 232.534 699.886C230.303 701.004 227.465 701.898 225.082 701.872H225.087ZM237.866 681.564C235.561 681.594 234.181 687.743 234.207 690.129C235.862 688.319 237.118 686.139 237.78 683.8C238.12 682.591 238.051 681.813 237.952 681.568H237.866V681.564Z" fill="white" fill-opacity="0.08"/>
<path d="M873.087 111.872C867.019 111.808 863.691 107.263 863.743 100.723C863.769 93.8081 866.585 87.0313 871.47 82.1336C874.815 79.029 879.438 83.6386 876.342 86.9926C872.725 90.6175 870.644 95.627 870.623 100.748C870.683 105.164 872.171 105.702 875.998 104.36C874.953 101.359 875.099 97.6394 876.462 93.3867C877.202 91.0819 878.264 88.4718 880.556 86.5927C883.222 84.4083 887.724 83.7805 890.639 86.511C895.438 90.8755 891.663 99.8539 887.814 104.197C889.775 103.53 891.478 101.896 892.815 99.5228C893.74 97.863 895.834 97.2653 897.493 98.1898C899.153 99.1143 899.751 101.208 898.826 102.868C897.364 105.496 894.716 108.966 890.42 110.57C887.053 111.825 883.385 111.52 880.534 109.886C878.303 111.004 875.465 111.898 873.082 111.872H873.087ZM885.866 91.5635C883.561 91.5936 882.181 97.7426 882.207 100.129C883.862 98.3188 885.118 96.1387 885.78 93.7995C886.12 92.5912 886.051 91.8129 885.952 91.5678H885.866V91.5635Z" fill="white" fill-opacity="0.08"/>
<path d="M1454.14 860.157C1446.48 860.157 1439.91 854.354 1439.11 846.586L1436.24 818.652L1412.88 827.422C1408.14 829.198 1402.81 828.48 1398.69 825.513C1394.58 822.527 1392.24 817.688 1392.45 812.623L1393.05 798.637L1378.54 808.579C1368.48 815.704 1354.01 807.558 1354.89 795.254L1359.2 719.03C1361.11 699.072 1389.73 700.66 1389.39 720.731L1386.82 766.243L1400.9 756.604C1405.62 753.372 1411.76 753.088 1416.77 755.848C1421.78 758.626 1424.79 763.993 1424.54 769.72L1423.63 791.077L1443.95 783.442C1452.85 779.832 1463.57 786.466 1464.31 796.048L1469.18 843.487C1470.15 852.332 1463.02 860.213 1454.12 860.157H1454.14Z" fill="white" fill-opacity="0.08"/>
<path d="M1186.17 965.229C1196.19 959.461 1202.91 948.313 1203.31 936.75C1203.55 929.813 1201.32 922.375 1195.76 918.211C1190.2 914.046 1181.03 914.673 1177.44 920.613C1174.62 925.286 1175.67 931.853 1171.97 935.859C1168.24 939.911 1161.75 939.245 1156.59 941.179C1146.42 945 1142.7 960.688 1152.08 967.354C1160.38 973.248 1178.33 969.73 1186.17 965.222V965.229Z" fill="white" fill-opacity="0.08"/>
<path d="M1056.74 360.765C1059.32 360.768 1061.81 361.798 1063.64 363.628C1065.47 365.458 1066.5 367.94 1066.5 370.529C1066.5 370.927 1066.66 371.308 1066.94 371.59C1067.22 371.871 1067.6 372.029 1068 372.029C1068.4 372.029 1068.78 371.871 1069.06 371.59C1069.34 371.308 1069.5 370.927 1069.5 370.529C1069.5 367.94 1070.53 365.458 1072.36 363.628C1074.19 361.798 1076.68 360.768 1079.26 360.765C1079.66 360.765 1080.04 360.607 1080.33 360.326C1080.61 360.044 1080.76 359.663 1080.76 359.265C1080.76 358.867 1080.61 358.486 1080.33 358.204C1080.04 357.923 1079.66 357.765 1079.26 357.765C1076.68 357.762 1074.19 356.732 1072.36 354.902C1070.53 353.071 1069.5 350.589 1069.5 348C1069.5 347.602 1069.34 347.221 1069.06 346.939C1068.78 346.658 1068.4 346.5 1068 346.5C1067.6 346.5 1067.22 346.658 1066.94 346.939C1066.66 347.221 1066.5 347.602 1066.5 348C1066.5 350.589 1065.47 353.071 1063.64 354.902C1061.81 356.732 1059.32 357.762 1056.74 357.765C1056.34 357.765 1055.96 357.923 1055.67 358.204C1055.39 358.486 1055.24 358.867 1055.24 359.265C1055.24 359.663 1055.39 360.044 1055.67 360.326C1055.96 360.607 1056.34 360.765 1056.74 360.765ZM1068 354C1069.2 356.236 1071.03 358.068 1073.26 359.265C1071.03 360.462 1069.2 362.293 1068 364.529C1066.8 362.293 1064.97 360.462 1062.74 359.265C1064.97 358.068 1066.8 356.236 1068 354ZM1086.24 364.735C1086.24 364.337 1086.08 363.956 1085.8 363.674C1085.51 363.393 1085.13 363.235 1084.74 363.235C1084.34 363.235 1083.96 363.393 1083.67 363.674C1083.39 363.956 1083.24 364.337 1083.24 364.735C1083.23 367.324 1082.2 369.806 1080.37 371.636C1078.54 373.467 1076.06 374.497 1073.47 374.5C1073.07 374.5 1072.69 374.658 1072.41 374.939C1072.13 375.221 1071.97 375.602 1071.97 376C1071.97 376.398 1072.13 376.779 1072.41 377.061C1072.69 377.342 1073.07 377.5 1073.47 377.5C1076.06 377.503 1078.54 378.533 1080.37 380.364C1082.2 382.194 1083.23 384.676 1083.24 387.265C1083.24 387.663 1083.39 388.044 1083.67 388.326C1083.96 388.607 1084.34 388.765 1084.74 388.765C1085.13 388.765 1085.51 388.607 1085.8 388.326C1086.08 388.044 1086.24 387.663 1086.24 387.265C1086.24 384.676 1087.27 382.194 1089.1 380.363C1090.93 378.533 1093.41 377.503 1096 377.5C1096.4 377.5 1096.78 377.342 1097.06 377.061C1097.34 376.779 1097.5 376.398 1097.5 376C1097.5 375.602 1097.34 375.221 1097.06 374.939C1096.78 374.658 1096.4 374.5 1096 374.5C1093.41 374.497 1090.93 373.467 1089.1 371.637C1087.27 369.806 1086.24 367.324 1086.24 364.735ZM1084.74 381.265C1083.54 379.029 1081.71 377.197 1079.47 376C1081.71 374.803 1083.54 372.971 1084.74 370.735C1085.93 372.971 1087.76 374.803 1090 376C1087.76 377.197 1085.93 379.029 1084.74 381.265ZM1040 377.5C1042.59 377.503 1045.07 378.533 1046.9 380.363C1048.73 382.194 1049.76 384.676 1049.77 387.265C1049.77 387.663 1049.92 388.044 1050.2 388.326C1050.49 388.607 1050.87 388.765 1051.27 388.765C1051.66 388.765 1052.04 388.607 1052.33 388.326C1052.61 388.044 1052.76 387.663 1052.76 387.265C1052.77 384.676 1053.8 382.194 1055.63 380.364C1057.46 378.533 1059.94 377.503 1062.53 377.5C1062.93 377.5 1063.31 377.342 1063.59 377.061C1063.87 376.779 1064.03 376.398 1064.03 376C1064.03 375.602 1063.87 375.221 1063.59 374.939C1063.31 374.658 1062.93 374.5 1062.53 374.5C1059.94 374.497 1057.46 373.467 1055.63 371.636C1053.8 369.806 1052.77 367.324 1052.76 364.735C1052.76 364.337 1052.61 363.956 1052.33 363.674C1052.04 363.393 1051.66 363.235 1051.27 363.235C1050.87 363.235 1050.49 363.393 1050.2 363.674C1049.92 363.956 1049.77 364.337 1049.77 364.735C1049.76 367.324 1048.73 369.806 1046.9 371.637C1045.07 373.467 1042.59 374.497 1040 374.5C1039.6 374.5 1039.22 374.658 1038.94 374.939C1038.66 375.221 1038.5 375.602 1038.5 376C1038.5 376.398 1038.66 376.779 1038.94 377.061C1039.22 377.342 1039.6 377.5 1040 377.5ZM1051.27 370.735C1052.46 372.971 1054.29 374.803 1056.53 376C1054.29 377.197 1052.46 379.029 1051.27 381.265C1050.07 379.029 1048.24 377.197 1046 376C1048.24 374.803 1050.07 372.971 1051.27 370.735ZM1056.74 391.235C1056.34 391.235 1055.96 391.393 1055.67 391.674C1055.39 391.956 1055.24 392.337 1055.24 392.735C1055.24 393.133 1055.39 393.514 1055.67 393.796C1055.96 394.077 1056.34 394.235 1056.74 394.235C1059.32 394.238 1061.81 395.268 1063.64 397.098C1065.47 398.929 1066.5 401.411 1066.5 404C1066.5 404.398 1066.66 404.779 1066.94 405.061C1067.22 405.342 1067.6 405.5 1068 405.5C1068.4 405.5 1068.78 405.342 1069.06 405.061C1069.34 404.779 1069.5 404.398 1069.5 404C1069.5 401.411 1070.53 398.929 1072.36 397.098C1074.19 395.268 1076.68 394.238 1079.26 394.235C1079.66 394.235 1080.04 394.077 1080.33 393.796C1080.61 393.514 1080.76 393.133 1080.76 392.735C1080.76 392.337 1080.61 391.956 1080.33 391.674C1080.04 391.393 1079.66 391.235 1079.26 391.235C1076.68 391.232 1074.19 390.202 1072.36 388.372C1070.53 386.542 1069.5 384.06 1069.5 381.471C1069.5 381.073 1069.34 380.692 1069.06 380.41C1068.78 380.129 1068.4 379.971 1068 379.971C1067.6 379.971 1067.22 380.129 1066.94 380.41C1066.66 380.692 1066.5 381.073 1066.5 381.471C1066.5 384.06 1065.47 386.542 1063.64 388.372C1061.81 390.202 1059.32 391.232 1056.74 391.235ZM1068 387.471C1069.2 389.707 1071.03 391.538 1073.26 392.735C1071.03 393.932 1069.2 395.764 1068 398C1066.8 395.764 1064.97 393.932 1062.74 392.735C1064.97 391.538 1066.8 389.707 1068 387.471Z" fill="white" fill-opacity="0.08"/>
<path d="M1321.05 50.0001C1329.58 42.6001 1327.02 27.6601 1316.23 16.7601C1305.33 5.97011 1290.4 3.41011 1282.99 11.9401C1275.59 3.41011 1260.65 5.97011 1249.75 16.7601C1238.96 27.6601 1236.4 42.5901 1244.93 50.0001C1236.4 57.4001 1238.96 72.3401 1249.75 83.2401C1260.65 94.0301 1275.58 96.5901 1282.99 88.0601C1290.39 96.5901 1305.33 94.0301 1316.23 83.2401C1327.02 72.3401 1329.58 57.4101 1321.05 50.0001ZM1289.39 56.3901C1286.74 59.0401 1284.6 61.9401 1283 64.9201C1279.89 58.9801 1274.01 53.1101 1268.08 50.0001C1274.02 46.8901 1279.89 41.0101 1283 35.0801C1286.11 41.0201 1291.99 46.8901 1297.92 50.0001C1294.94 51.6001 1292.04 53.7501 1289.39 56.3901Z" fill="white" fill-opacity="0.08"/>
<path d="M148.421 325.11C141.461 325.11 134.991 323.64 129.951 319.78C121.941 312.84 122.021 301.97 129.841 293.28C142.071 280.34 161.831 277.42 175.461 267.78C175.611 267.58 175.731 267.39 175.831 267.23C174.691 266.89 172.681 266.67 170.171 267.39C155.801 270.34 141.301 273.58 127.091 277.24C122.811 278.34 118.451 275.76 117.351 271.48C116.251 267.2 118.831 262.84 123.111 261.74C137.291 258.11 151.741 254.8 166.091 251.91C175.831 249.24 185.611 252 189.981 258.67C191.901 261.08 195.231 271.01 186.071 279.79C173.221 290.33 152.941 293.19 141.501 304.21C140.131 305.89 139.931 306.91 139.961 307.1C139.961 307.13 140.021 307.23 140.131 307.38C146.301 311.28 163.141 308.36 181.601 300.12C191.451 296.18 197.641 310.01 188.131 314.73C177.971 319.27 162.241 325.09 148.411 325.09L148.421 325.11Z" fill="white" fill-opacity="0.08"/>
<path d="M504.421 36.0698C497.171 36.0698 491.091 48.2398 489.471 64.5998C464.461 35.8598 446.541 48.4298 464.991 81.7398C449.061 77.6598 435.551 79.2098 433.071 86.0298C427.381 105.62 495.671 130.56 503.151 111.02C503.431 110.87 503.701 110.68 503.941 110.47C524.871 110.11 524.761 37.3998 504.421 36.0698Z" fill="white" fill-opacity="0.08"/>
<path d="M779.879 969.95C777.829 969.95 775.789 969.17 774.219 967.61C768.489 961.88 768.769 955.44 768.929 951.59C769.069 948.33 768.929 948.18 768.319 947.57C767.709 946.96 767.559 946.81 764.299 946.95C760.449 947.11 754.009 947.39 748.279 941.66C742.549 935.93 742.829 929.49 742.999 925.64C743.139 922.38 742.999 922.24 742.389 921.63C741.779 921.02 741.639 920.87 738.369 921.02C734.519 921.18 728.079 921.46 722.349 915.74C716.619 910.01 716.899 903.57 717.069 899.72C717.209 896.46 717.069 896.32 716.459 895.71C709.259 887.95 719.959 877.18 727.769 884.4C733.499 890.13 733.219 896.57 733.049 900.42C732.909 903.68 733.049 903.82 733.659 904.43C734.269 905.04 734.419 905.19 737.669 905.04C750.729 903.73 760.289 913.32 758.969 926.34C758.829 929.6 758.969 929.74 759.579 930.35C760.189 930.96 760.329 931.1 763.599 930.96C776.639 929.66 786.209 939.19 784.909 952.27C784.769 955.53 784.909 955.68 785.519 956.29C790.559 961.25 786.869 970.03 779.859 969.95H779.879Z" fill="white" fill-opacity="0.05"/>
<path d="M779.879 969.95C777.829 969.95 775.789 969.17 774.219 967.61C768.489 961.88 768.769 955.44 768.929 951.59C769.069 948.33 768.929 948.18 768.319 947.57C767.709 946.96 767.559 946.81 764.299 946.95C760.449 947.11 754.009 947.39 748.279 941.66C742.549 935.93 742.829 929.49 742.999 925.64C743.139 922.38 742.999 922.24 742.389 921.63C741.779 921.02 741.639 920.87 738.369 921.02C734.519 921.18 728.079 921.46 722.349 915.74C716.619 910.01 716.899 903.57 717.069 899.72C717.209 896.46 717.069 896.32 716.459 895.71C709.259 887.95 719.959 877.18 727.769 884.4C733.499 890.13 733.219 896.57 733.049 900.42C732.909 903.68 733.049 903.82 733.659 904.43C734.269 905.04 734.419 905.19 737.669 905.04C750.729 903.73 760.289 913.32 758.969 926.34C758.829 929.6 758.969 929.74 759.579 930.35C760.189 930.96 760.329 931.1 763.599 930.96C776.639 929.66 786.209 939.19 784.909 952.27C784.769 955.53 784.909 955.68 785.519 956.29C790.559 961.25 786.869 970.03 779.859 969.95H779.879Z" fill="white" fill-opacity="0.05"/>
<path d="M779.879 969.95C777.829 969.95 775.789 969.17 774.219 967.61C768.489 961.88 768.769 955.44 768.929 951.59C769.069 948.33 768.929 948.18 768.319 947.57C767.709 946.96 767.559 946.81 764.299 946.95C760.449 947.11 754.009 947.39 748.279 941.66C742.549 935.93 742.829 929.49 742.999 925.64C743.139 922.38 742.999 922.24 742.389 921.63C741.779 921.02 741.639 920.87 738.369 921.02C734.519 921.18 728.079 921.46 722.349 915.74C716.619 910.01 716.899 903.57 717.069 899.72C717.209 896.46 717.069 896.32 716.459 895.71C709.259 887.95 719.959 877.18 727.769 884.4C733.499 890.13 733.219 896.57 733.049 900.42C732.909 903.68 733.049 903.82 733.659 904.43C734.269 905.04 734.419 905.19 737.669 905.04C750.729 903.73 760.289 913.32 758.969 926.34C758.829 929.6 758.969 929.74 759.579 930.35C760.189 930.96 760.329 931.1 763.599 930.96C776.639 929.66 786.209 939.19 784.909 952.27C784.769 955.53 784.909 955.68 785.519 956.29C790.559 961.25 786.869 970.03 779.859 969.95H779.879Z" fill="white" fill-opacity="0.05"/>
</svg>
