<svg width="24" height="24" viewBox="0 0 24 24" fill="none" xmlns="http://www.w3.org/2000/svg">
<path fill-rule="evenodd" clip-rule="evenodd" d="M13.2138 4.8778C9.54152 5.88889 5.71911 7.24671 4.05313 8.20835C3.65519 8.43807 3.56732 8.59133 3.55163 8.62507C3.55903 8.65097 3.58803 8.71317 3.68912 8.8204C3.87441 9.01693 4.20087 9.24743 4.67124 9.49508C5.13156 9.73744 5.68538 9.97349 6.28616 10.1969C7.48745 10.6435 8.82561 11.0207 9.87194 11.2876C10.3932 11.4205 10.8382 11.5252 11.1523 11.5964C11.3093 11.632 11.4334 11.6592 11.5178 11.6775L11.6137 11.698L11.6377 11.703L11.6446 11.7045C11.9376 11.7651 12.1667 11.994 12.2273 12.287L12.2288 12.2942L12.2339 12.3182L12.2544 12.4141C12.2726 12.4985 12.2998 12.6226 12.3355 12.7796C12.4067 13.0936 12.5113 13.5386 12.6443 14.0599C12.9112 15.1062 13.2884 16.4444 13.735 17.6457C13.9583 18.2465 14.1944 18.8003 14.4368 19.2606C14.6844 19.731 14.9149 20.0574 15.1114 20.2427C15.2187 20.3438 15.2809 20.3728 15.3068 20.3802C15.3405 20.3645 15.4938 20.2766 15.7235 19.8787C16.6851 18.2127 18.0429 14.3903 19.054 10.7181C19.5561 8.89441 19.9634 7.14131 20.1893 5.75006C20.3026 5.05275 20.3672 4.46439 20.3791 4.01204C20.3838 3.83171 20.3798 3.68237 20.3694 3.5624C20.2495 3.55201 20.1001 3.54803 19.9198 3.55275C19.4674 3.56459 18.8791 3.62925 18.1818 3.74248C16.7905 3.96841 15.0374 4.37569 13.2138 4.8778ZM15.321 20.3821C15.321 20.3821 15.3179 20.3829 15.311 20.3813C15.3175 20.3807 15.321 20.3821 15.321 20.3821ZM10.863 13.0689C10.8491 13.0657 10.8349 13.0625 10.8205 13.0592C10.4959 12.9856 10.0377 12.8779 9.5012 12.741C8.43197 12.4683 7.03609 12.076 5.76346 11.6028C5.12728 11.3663 4.50918 11.105 3.97242 10.8224C3.44572 10.5451 2.94996 10.223 2.59772 9.8494C2.24667 9.47706 1.93495 8.93391 2.08941 8.28469C2.23273 7.68233 2.72501 7.24305 3.30324 6.90925C5.14941 5.8436 9.13506 4.44498 12.8156 3.43162C14.6683 2.92151 16.4778 2.49955 17.9413 2.26188C18.6715 2.14332 19.3336 2.06758 19.8805 2.05327C20.1541 2.04611 20.4135 2.05384 20.6465 2.08378C20.8704 2.11257 21.1182 2.16759 21.3378 2.28458C21.4694 2.35467 21.5772 2.46239 21.6473 2.59399C21.7642 2.81366 21.8193 3.06145 21.8481 3.28537C21.878 3.51831 21.8857 3.77777 21.8786 4.05128C21.8643 4.59826 21.7885 5.26038 21.67 5.99049C21.4323 7.45408 21.0103 9.26355 20.5002 11.1163C19.4869 14.7968 18.0882 18.7824 17.0226 20.6286C16.6888 21.2068 16.2495 21.6991 15.6471 21.8424C14.9979 21.9969 14.4548 21.6852 14.0824 21.3341C13.7088 20.9819 13.3868 20.4861 13.1095 19.9594C12.8269 19.4227 12.5655 18.8046 12.329 18.1684C11.8559 16.8958 11.4636 15.4999 11.1908 14.4307C11.054 13.8942 10.9463 13.436 10.8726 13.1114C10.8693 13.0969 10.8661 13.0828 10.863 13.0689ZM3.54978 8.61079C3.54978 8.61079 3.55113 8.61434 3.55054 8.62087C3.54894 8.61396 3.54978 8.61079 3.54978 8.61079Z" fill="#191A20"/>
<path fill-rule="evenodd" clip-rule="evenodd" d="M21.5158 2.41499C21.8087 2.70788 21.8087 3.18275 21.5158 3.47565L12.0234 12.968C11.7305 13.2609 11.2557 13.2609 10.9628 12.968C10.6699 12.6751 10.6699 12.2002 10.9628 11.9073L20.4552 2.41499C20.7481 2.12209 21.2229 2.12209 21.5158 2.41499Z" fill="#191A20"/>
</svg>
