<svg width="59" height="52" viewBox="0 0 59 52" fill="none" xmlns="http://www.w3.org/2000/svg">
<path d="M29.5004 4C29.8004 4 30.1004 4.2 30.1004 4.6C30.1004 4.7 30.0004 5.7 30.0004 6.8C30.0004 8 30.1004 9.1 30.1004 9.2C30.1004 9.5 29.8004 9.8 29.5004 9.8C29.2004 9.8 28.9004 9.6 28.9004 9.2C28.9004 9.1 29.0004 8.1 29.0004 7C29.0004 5.8 28.9004 4.7 28.9004 4.6C28.9004 4.2 29.2004 4 29.5004 4Z" fill="#2E3192"/>
<path d="M30.4998 40.0998C30.5998 40.1998 35.1998 37.2998 35.1998 37.3998C35.1998 37.4998 30.5998 40.1998 30.6998 40.2998C30.7998 40.3998 35.1998 37.5998 35.2998 37.6998C35.2998 37.7998 31.0998 40.5998 31.1998 40.6998C31.2998 40.7998 35.3998 38.0998 35.4998 38.1998C35.4998 38.2998 31.5998 40.8998 31.5998 40.9998C31.5998 41.0998 35.5998 38.5998 35.5998 38.6998C35.5998 38.7998 32.0998 41.3998 32.0998 41.3998C32.0998 41.4998 35.6998 39.1998 35.7998 39.2998C35.7998 39.3998 33.6998 42.4998 33.6998 42.5998C33.6998 42.6998 36.2998 40.9998 36.2998 41.0998L34.4998 43.1998C34.4998 43.2998 36.4998 41.8998 36.5998 41.9998L36.4998 43.9998C36.4998 43.9998 36.4998 43.8998 36.5998 43.9998M16.7998 25.9998C16.7998 26.0998 18.4998 24.9998 18.4998 24.9998C18.4998 24.9998 17.5998 27.4998 17.5998 27.5998C17.6998 27.6998 21.9998 24.8998 22.0998 24.9998C22.0998 25.0998 18.1998 28.2998 18.1998 28.3998C18.2998 28.5998 29.8998 21.2998 30.0998 21.5998C30.1998 21.7998 18.5998 28.8998 18.6998 29.0998C18.7998 29.2998 30.1998 22.1998 30.2998 22.3998C30.3998 22.5998 19.0998 29.6998 19.1998 29.8998C19.2998 30.0998 30.4998 23.0998 30.5998 23.2998C30.6998 23.4998 19.4998 30.0998 19.5998 30.2998C19.6998 30.4998 30.6998 23.5998 30.7998 23.7998C30.8998 23.9998 19.8998 30.5998 19.9998 30.6998C20.0998 30.8998 30.8998 24.1998 30.9998 24.3998C31.0998 24.5998 19.9998 30.6998 20.0998 30.7998C20.1998 30.9998 30.8998 24.2998 30.9998 24.4998C31.0998 24.6998 20.6998 31.4998 20.7998 31.6998C20.8998 31.8998 32.0998 24.8998 32.2998 25.0998C32.3998 25.2998 21.2998 32.1998 21.3998 32.3998C21.4998 32.5998 33.8998 24.8998 33.9998 25.0998C34.0998 25.2998 21.1998 33.5998 21.3998 33.7998C21.4998 34.0998 36.2998 24.7998 36.4998 25.0998C36.5998 25.2998 20.8998 35.4998 20.9998 35.6998C21.1998 35.9998 39.1998 24.7998 39.3998 25.0998C39.5998 25.3998 20.3998 37.2998 20.4998 37.5998C20.6998 37.8998 41.2998 25.0998 41.4998 25.4998C41.6998 25.7998 20.1998 37.9998 20.2998 38.3998C20.4998 38.7998 41.7998 25.4998 41.9998 25.7998C42.3998 25.9998 19.7998 39.8998 19.9998 40.2998C20.1998 40.6998 42.7998 26.5998 43.0998 26.9998C43.2998 27.3998 19.8998 40.7998 20.0998 41.0998C20.2998 41.4998 43.0998 27.2998 43.2998 27.6998C43.4998 27.9998 20.9998 42.2998 21.1998 42.5998C21.3998 42.8998 40.8998 30.7998 41.0998 31.0998C41.2998 31.3998 21.4998 42.5998 21.6998 42.8998C21.8998 43.1998 38.0998 32.9998 38.2998 33.2998C38.3998 33.4998 21.6998 42.6998 21.7998 42.9998C21.9998 43.2998 37.3998 33.5998 37.5998 33.8998C37.6998 34.0998 23.0998 43.2998 23.1998 43.4998C23.2998 43.6998 34.8998 36.4998 34.9998 36.6998C35.0998 36.8998 25.2998 43.0998 25.3998 43.2998L26.6998 42.4998" stroke="#5158F6" stroke-width="0.6" stroke-linecap="round" stroke-linejoin="round"/>
<path d="M27.6002 17.7001L28.6002 17.1001M27.6002 17.7001C27.6002 17.7001 28.7002 17.1001 28.6002 17.1001M27.6002 17.7001C27.6002 17.8001 28.6002 17.1001 28.6002 17.1001M28.6002 17.1001C28.6002 17.2001 26.0002 20.2001 26.0002 20.3001C26.0002 20.4001 29.0002 18.5001 29.0002 18.5001C29.0002 18.6001 24.7002 22.7001 24.7002 22.8001C24.8002 22.9001 29.4002 20.0001 29.5002 20.0001C29.5002 20.1001 24.2002 23.6001 24.3002 23.7001C24.4002 23.8001 29.6002 20.5001 29.7002 20.6001" stroke="#5158F6" stroke-width="0.6" stroke-linecap="round" stroke-linejoin="round"/>
<path d="M43.9004 25.9999C44.0004 25.9999 44.2004 26.1999 44.4004 26.6999C44.6004 27.1999 44.6004 28.0999 44.1004 28.9999C43.6004 29.8999 42.8004 30.6999 41.9004 31.3999C41.0004 32.1999 40.0004 32.9999 38.9004 33.7999C38.7004 33.9999 38.3004 34.2999 36.4004 35.7999C36.6004 36.3999 37.0004 37.5999 37.5004 39.1999C37.6004 39.5999 37.8004 40.0999 38.0004 40.5999C38.1004 40.8999 38.2004 41.0999 38.3004 41.3999C38.4004 41.6999 38.4004 42.0999 38.4004 42.3999C38.4004 43.0999 38.1004 43.8999 37.4004 44.3999C37.1004 44.6999 36.6004 44.7999 36.2004 44.8999C35.8004 44.8999 35.4004 44.7999 35.0004 44.6999C34.3004 44.3999 33.6004 43.9999 33.0004 43.4999C32.4004 43.0999 31.8004 42.5999 31.1004 42.0999C30.8004 41.8999 30.5004 41.5999 30.1004 41.3999L29.6004 40.9999H29.5004C29.2004 41.1999 29.0004 41.3999 28.7004 41.5999C28.4004 41.8999 28.0004 42.0999 27.7004 42.3999C26.3004 43.3999 24.5004 44.4999 22.4004 44.3999C21.3004 44.2999 20.3004 43.7999 19.6004 42.9999C19.2004 42.5999 18.9004 42.0999 18.8004 41.5999C18.6004 40.9999 18.6004 40.3999 18.9004 39.7999V39.8999C19.1004 38.8999 19.5004 37.3999 19.8004 35.7999L20.4004 33.0999V32.9999H20.1004L19.6004 32.4999C19.3004 32.1999 19.0004 31.7999 18.7004 31.4999C18.1004 30.7999 17.5004 30.0999 17.0004 29.3999C16.5004 28.6999 15.9004 27.9999 15.5004 27.0999C15.3004 26.6999 15.2004 26.0999 15.3004 25.5999C15.4004 24.9999 15.9004 24.4999 16.4004 24.2999C17.4004 23.8999 18.2004 23.9999 19.0004 23.9999H23.1004L23.4004 23.3999C23.5004 23.0999 23.7004 22.7999 23.8004 22.4999C24.1004 21.8999 24.4004 21.2999 24.6004 20.7999C25.2004 19.6999 25.8004 18.6999 26.4004 17.6999C26.7004 17.1999 27.0004 16.7999 27.3004 16.2999L27.5004 15.9999L27.6004 15.7999C27.7004 15.6999 27.7004 15.5999 27.8004 15.5999C28.1004 15.2999 28.6004 15.1999 29.0004 15.2999C29.4004 15.3999 29.8004 15.6999 29.9004 16.0999C30.0004 16.3999 30.1004 16.5999 30.1004 16.7999C30.2004 17.1999 30.4004 17.6999 30.5004 18.0999C31.5004 21.0999 32.2004 23.1999 32.4004 23.9999H38.3004C38.9004 23.9999 39.4004 23.9999 40.0004 24.0999C40.5004 24.0999 41.0004 24.0999 41.5004 24.1999C42.5004 24.3999 43.1004 24.9999 43.4004 25.3999C43.9004 25.6999 43.9004 25.9999 43.9004 25.9999C43.8004 25.9999 43.6004 25.7999 43.3004 25.4999C42.9004 25.1999 42.3004 24.8999 41.5004 24.7999H40.1004C39.6004 24.7999 39.0004 24.7999 38.4004 24.8999C37.2004 24.8999 35.9004 24.9999 34.6004 24.9999H31.7004C31.4004 24.0999 30.7004 21.6999 29.6004 18.2999C29.5004 17.8999 29.3004 17.4999 29.2004 16.9999C29.1004 16.7999 29.1004 16.5999 29.0004 16.3999C29.0004 16.2999 28.9004 16.2999 28.8004 16.2999H28.6004C28.6004 16.2999 28.4004 16.5999 28.2004 16.7999C27.9004 17.1999 27.6004 17.6999 27.3004 18.0999C26.7004 18.9999 26.1004 19.9999 25.6004 21.0999C25.3004 21.5999 25.0004 22.1999 24.8004 22.7999C24.7004 23.0999 24.5004 23.3999 24.4004 23.6999C24.2004 24.0999 24.0004 24.4999 23.9004 24.8999H17.9004C17.3004 24.8999 16.7004 25.0999 16.5004 25.4999C16.3004 25.8999 16.5004 26.4999 16.9004 27.0999C17.3004 27.6999 17.7004 28.2999 18.2004 28.8999C18.7004 29.4999 19.1004 30.0999 19.7004 30.6999L20.5004 31.5999L21.4004 32.5999C21.6004 32.6999 21.5004 32.8999 21.5004 32.9999L21.4004 33.3999L21.1004 33.9999C21.0004 34.2999 20.9004 34.6999 20.9004 34.9999C20.8004 35.6999 20.6004 36.2999 20.5004 36.8999C20.2004 38.0999 20.0004 39.2999 19.8004 40.1999C19.5004 40.8999 19.8004 41.7999 20.4004 42.3999C21.0004 42.9999 21.8004 43.3999 22.6004 43.4999C24.3004 43.5999 25.9004 42.6999 27.2004 41.6999C27.5004 41.3999 27.9004 41.1999 28.2004 40.8999L29.4004 39.9999C29.7004 39.4999 30.0004 39.9999 30.3004 40.1999L30.8004 40.5999C31.1004 40.7999 31.5004 41.0999 31.8004 41.2999C32.4004 41.7999 33.1004 42.1999 33.7004 42.6999C34.3004 43.0999 34.9004 43.4999 35.4004 43.6999C36.0004 43.8999 36.5004 43.8999 36.8004 43.5999C37.2004 43.2999 37.4004 42.8999 37.4004 42.3999C37.4004 42.1999 37.4004 41.8999 37.3004 41.6999C37.2004 41.3999 37.1004 41.1999 37.0004 40.8999C36.8004 40.3999 36.7004 39.8999 36.5004 39.4999C35.9004 37.4999 35.4004 36.0999 35.1004 35.2999C37.5004 33.3999 38.0004 32.9999 38.2004 32.7999C39.3004 31.9999 40.3004 31.1999 41.2004 30.4999C42.1004 29.7999 42.9004 29.1999 43.4004 28.4999C43.9004 27.7999 44.0004 27.1999 43.9004 26.7999C43.9004 26.3999 43.8004 26.0999 43.9004 25.9999ZM42.5004 8.59995C42.8004 8.79995 42.8004 9.19995 42.5004 9.59995C42.4004 9.69995 41.6004 10.6999 41.1004 12.1999C40.5004 13.6999 40.5004 15.1999 40.5004 15.2999C40.5004 15.6999 40.2004 15.9999 39.9004 15.9999C39.6004 15.9999 39.3004 15.5999 39.4004 15.1999C39.4004 14.9999 39.6004 13.5999 40.2004 12.0999C40.8004 10.3999 41.6004 9.09995 41.7004 8.99995C41.8004 8.59995 42.3004 8.39995 42.5004 8.59995ZM56.6004 20.1999C56.7004 20.4999 56.3004 20.7999 55.9004 20.8999C55.7004 20.8999 54.3004 21.0999 52.7004 21.3999C50.9004 21.6999 49.4004 22.0999 49.2004 22.0999C48.8004 22.1999 48.3004 21.9999 48.3004 21.6999C48.2004 21.3999 48.6004 21.0999 49.0004 20.9999C49.2004 20.9999 50.6004 20.7999 52.2004 20.4999C54.0004 20.1999 55.5004 19.7999 55.7004 19.7999C56.1004 19.6999 56.5004 19.8999 56.6004 20.1999ZM15.0004 10.4999C15.3004 10.2999 15.6004 10.2999 15.8004 10.5999C15.9004 10.6999 16.5004 11.4999 17.4004 12.3999C18.3004 13.2999 19.3004 13.8999 19.4004 13.9999C19.7004 14.1999 19.7004 14.5999 19.6004 14.7999C19.4004 15.0999 19.0004 15.0999 18.8004 14.8999C18.7004 14.7999 17.9004 14.0999 16.9004 13.1999C15.9004 12.2999 15.0004 11.3999 15.0004 11.2999C14.8004 11.0999 14.8004 10.6999 15.0004 10.4999ZM3.40039 20.5999C3.40039 20.2999 3.70039 19.9999 4.20039 19.8999C4.40039 19.8999 5.90039 19.8999 7.60039 19.9999C9.50039 20.1999 11.1004 20.4999 11.3004 20.5999C11.8004 20.6999 12.0004 21.0999 11.9004 21.3999C11.8004 21.6999 11.4004 21.7999 10.9004 21.6999C10.7004 21.6999 9.40039 21.1999 7.70039 20.9999C5.90039 20.7999 4.30039 20.9999 4.20039 20.9999C3.80039 21.0999 3.50039 20.8999 3.40039 20.5999Z" fill="#2E3192"/>
</svg>
