<svg width="537" height="512" viewBox="0 0 537 512" fill="none" xmlns="http://www.w3.org/2000/svg">
<g clip-path="url(#clip0_3538_72626)">
<path d="M527.83 328.08L527.4 326.52L527.13 325.66L526.03 322.24L523.83 315.4L515 288.07L500.41 243.39C503.256 240.164 505.569 236.505 507.26 232.55C511.54 222.72 516.1 212.98 520.11 203.05C522.11 198.05 523.98 193.05 525.59 187.96L526.19 186.04L526.48 185.04L526.67 184.38L526.89 183.52C527.201 182.374 527.432 181.208 527.58 180.03L527.8 178.26C527.8 177.67 527.85 177.07 527.87 176.47C527.979 171.737 526.976 167.044 524.94 162.77C523.482 158.319 521.054 154.247 517.83 150.85C515.207 148.112 512.119 145.86 508.71 144.2C507.11 143.42 504.85 142.59 504.22 142.35L501.22 141.26C497.22 139.83 493.27 138.49 489.22 137.26C481.163 134.815 472.913 133.055 464.56 132C464.115 131.949 463.668 131.922 463.22 131.92C462.406 129.533 461.596 127.143 460.79 124.75C446.79 83.6598 432.51 50.2998 426.87 55.4898C421.73 60.2098 426.61 90.9698 439.41 133.68C450.903 172.02 462.473 210.46 474.12 249C479.973 268.246 485.88 287.476 491.84 306.69L500.72 335.16C501.036 336.317 500.999 337.542 500.612 338.678C500.225 339.813 499.507 340.807 498.55 341.53C498.237 341.763 497.902 341.964 497.55 342.13C497.39 342.25 497.16 342.26 496.99 342.36L496.85 342.43L496.4 342.57L495.5 342.86C433.946 362.566 372.493 382.496 311.14 402.65L219.07 432.81L173.07 447.89L150.07 455.42L144.31 457.3L141.43 458.24L140.71 458.48L140.35 458.6L140.06 458.69C139.83 458.74 139.6 458.81 139.37 458.88C137.523 459.322 135.582 459.139 133.85 458.36C134.103 458.684 134.38 458.988 134.68 459.27C134.373 458.996 134.094 458.691 133.85 458.36C133.102 457.957 132.426 457.433 131.85 456.81C131.268 456.227 130.788 455.551 130.43 454.81C130.245 454.453 130.082 454.086 129.94 453.71C129.94 453.51 129.84 453.31 129.78 453.12V452.98V452.91V452.75L129.6 452.1L128 446.9L122 426C118.06 412 114.06 398.016 110 384.05C101.846 356.11 93.5131 328.16 84.9998 300.2C76.4864 272.24 67.8964 244.273 59.2298 216.3L46.5598 175.76C46.5357 175.427 46.5357 175.093 46.5598 174.76C46.6184 174.421 46.702 174.087 46.8098 173.76C46.9615 173.455 47.1388 173.164 47.3398 172.89C47.5584 172.647 47.8033 172.429 48.0698 172.24C48.1435 172.208 48.2112 172.164 48.2698 172.11C48.3298 172.06 48.4298 172.06 48.4998 172.01L48.5998 171.94H48.7298H48.8498H48.9098H49.0598L54.3098 170.28L64.7998 166.95C176.73 131.45 288.72 95.0098 400.6 60.4098C401.84 60.0298 403.16 59.5698 404.53 59.0698L406.53 58.3098C406.66 58.3098 406.78 58.0898 406.92 58.0398C407.528 57.5434 408.238 57.1882 409 56.9998C409.927 56.8152 410.882 56.8152 411.81 56.9998C412.637 57.1942 413.449 57.4482 414.24 57.7598C414.547 57.8876 414.86 57.9978 415.18 58.0898C415.439 58.1961 415.706 58.2797 415.98 58.3398C416.439 58.4581 416.923 58.4372 417.37 58.2798C417.822 58.092 418.182 57.7324 418.37 57.2798C418.656 56.6219 418.783 55.9058 418.74 55.1898C418.51 52.7186 417.378 50.4187 415.56 48.7298C414.147 47.387 412.479 46.3412 410.655 45.6541C408.831 44.9671 406.887 44.6528 404.94 44.7298C403.954 44.7401 402.971 44.8304 402 44.9998L398.94 45.5998L392.77 46.8298L380.23 49.4198C371.79 51.2131 363.19 53.1231 354.43 55.1498C336.93 59.1498 318.85 63.6798 300.43 68.5198C287.87 71.8131 275.14 75.2631 262.24 78.8698C254.15 70.9998 244 65.2098 233.18 60.9998C217.18 54.7398 201.18 48.2098 185.02 42.2198C176.94 39.2198 168.81 36.3698 160.58 33.7598C156.466 32.4264 152.333 31.1864 148.18 30.0398L147.4 29.8198L146 29.4698C145.081 29.2272 144.15 29.0369 143.21 28.8998C142.26 28.7798 141.32 28.6198 140.37 28.5798C139.42 28.5398 138.46 28.5098 137.51 28.5098C133.734 28.6168 130.008 29.4027 126.51 30.8298C119.266 33.1 113.061 37.8658 109 44.2798C108.583 44.9246 108.202 45.5923 107.86 46.2798C107.51 46.9498 107.14 47.6198 106.86 48.2798C106.3 49.5898 105.63 51.3598 105.44 51.8798L103.7 56.6698C102.553 59.8631 101.426 63.0631 100.32 66.2698C98.1064 72.6831 95.9998 79.1264 93.9998 85.5998C89.9742 98.5476 86.6362 111.699 83.9998 125C83.4963 127.426 83.3648 129.914 83.6098 132.38L46.8498 143.57L42.4898 144.9L41.3998 145.23L40.8498 145.4C40.6698 145.45 40.5198 145.5 40.1698 145.62C38.9698 146.009 37.7944 146.47 36.6498 147C32.0069 149.157 27.9674 152.425 24.8888 156.515C21.8102 160.605 19.7875 165.391 18.9998 170.45C18.5991 172.986 18.5118 175.562 18.7398 178.12C18.8798 179.39 19.0598 180.67 19.3298 181.91L19.7998 183.76L20.0398 184.63L20.2098 185.17L30.8698 220.06L45.3098 267.06C42.0642 270.493 39.4537 274.474 37.5998 278.82C33.3198 288.65 28.7598 298.39 24.7498 308.32C22.7498 313.32 20.8798 318.32 19.2698 323.41L18.6698 325.33L18.3798 326.33L18.1898 326.99L17.9698 327.85C17.6581 328.995 17.4276 330.162 17.2798 331.34L17.0598 333.11C17.0598 333.7 17.0098 334.3 16.9898 334.9C16.8786 339.636 17.8823 344.332 19.9198 348.61C21.3768 353.061 23.8054 357.133 27.0298 360.53C29.6527 363.268 32.7405 365.52 36.1498 367.18C37.7498 367.96 40.0098 368.79 40.6398 369.03L43.6398 370.12C47.6398 371.55 51.5898 372.89 55.6398 374.12C63.6726 376.58 71.8983 378.36 80.2298 379.44C85.4631 396.106 90.7231 412.773 96.0098 429.44L101.56 446.87L104.35 455.59L105.75 459.95L105.92 460.49L106.24 461.4L106.96 463.29C107.497 464.536 108.098 465.755 108.76 466.94C111.471 471.67 115.313 475.654 119.941 478.537C124.569 481.42 129.839 483.111 135.28 483.46C137.993 483.629 140.716 483.468 143.39 482.98C144.717 482.718 146.029 482.384 147.32 481.98L149.57 481.26L158.28 478.44C181.513 470.906 204.736 463.286 227.95 455.58L288 437.22C295.196 442.766 303.176 447.211 311.68 450.41C327.68 456.67 343.68 463.2 359.84 469.19C367.92 472.19 376.05 475.04 384.28 477.65C388.393 478.983 392.526 480.223 396.68 481.37L397.46 481.59L398.82 481.94C399.738 482.182 400.67 482.372 401.61 482.51C402.56 482.63 403.5 482.79 404.45 482.83C405.4 482.87 406.36 482.9 407.31 482.9C411.086 482.792 414.812 482.007 418.31 480.58C425.565 478.316 431.781 473.549 435.85 467.13C436.267 466.485 436.647 465.817 436.99 465.13C437.34 464.46 437.71 463.79 437.99 463.13C438.55 461.82 439.22 460.05 439.41 459.53L441.15 454.74C442.296 451.546 443.423 448.346 444.53 445.14C446.743 438.726 448.85 432.283 450.85 425.81C454.876 412.859 458.214 399.704 460.85 386.4C461.054 385.349 461.201 384.287 461.29 383.22L462.08 382.97L489.49 374.28L503.19 369.92L504.9 369.37L505.36 369.22L506.13 368.95L507.66 368.38C509.694 367.574 511.643 366.569 513.48 365.38C519.029 361.779 523.406 356.635 526.07 350.58C528.735 344.526 529.573 337.824 528.48 331.3C528.333 330.214 528.115 329.138 527.83 328.08ZM473.15 161.27C476.09 162.519 479.094 163.61 482.15 164.54C485.55 165.54 488.97 166.48 492.41 167.36L497.19 168.55C497.849 168.646 498.492 168.835 499.1 169.11C500.492 169.766 501.658 170.822 502.447 172.144C503.236 173.466 503.613 174.993 503.53 176.53C503.82 176.53 504.11 176.53 504.4 176.53C504.12 176.53 503.83 176.53 503.53 176.53C503.36 176.69 503.16 176.83 502.99 176.97C502.763 177.132 502.572 177.34 502.43 177.58C501.956 178.246 501.493 178.933 501.04 179.64C500.133 181.02 499.27 182.42 498.45 183.84C496.81 186.67 495.34 189.56 493.99 192.49C491.866 197.191 489.984 201.997 488.35 206.89C483.33 191.663 478.263 176.456 473.15 161.27ZM121.46 91.8198C123.126 86.3531 124.723 80.8664 126.25 75.3598L128.53 67.0998L130.72 58.9998C130.955 57.9108 131.426 56.8867 132.1 55.9998C132.826 55.0472 133.774 54.2854 134.86 53.7798C135.982 53.2194 137.226 52.9479 138.48 52.9898C138.815 52.9897 139.15 53.0198 139.48 53.0798L139.97 53.1498L140.97 53.4098L145.11 54.5198C172.31 70.0398 202.34 78.3698 232.04 87.5198C216.9 91.9198 201.68 96.4564 186.38 101.13L109 124.63C113.721 113.917 117.88 102.966 121.46 91.8198ZM62.6798 346.82C59.2798 345.82 55.8598 344.88 52.4198 344L47.6398 342.81C46.98 342.713 46.3371 342.525 45.7298 342.25C44.3372 341.594 43.1719 340.537 42.3828 339.216C41.5937 337.894 41.2166 336.367 41.2998 334.83C41.0098 334.83 40.7198 334.83 40.4298 334.83C40.7098 334.83 40.9998 334.83 41.2998 334.83C41.4698 334.67 41.6698 334.53 41.8398 334.39C42.0669 334.228 42.2577 334.02 42.3998 333.78C42.8731 333.113 43.3364 332.426 43.7898 331.72C44.6964 330.34 45.5598 328.94 46.3798 327.52C48.0198 324.69 49.4898 321.8 50.8398 318.87C53.044 313.975 54.99 308.968 56.6698 303.87C61.4031 319.156 66.1531 334.443 70.9198 349.73C68.2198 348.7 65.4798 347.69 62.6798 346.86V346.82ZM423.41 419.54C421.743 425.006 420.146 430.493 418.62 436L416.34 444.26L414.15 452.4C413.915 453.489 413.444 454.513 412.77 455.4C412.05 456.383 411.099 457.173 410 457.7C408.878 458.261 407.633 458.532 406.38 458.49C406.044 458.49 405.71 458.459 405.38 458.4L404.89 458.33C404.62 458.27 404.22 458.15 403.89 458.07L399.79 457C375.38 443 348.7 434.9 322 426.74C350.433 417.94 378.846 409.103 407.24 400.23L433.65 391.92C429.88 401 426.27 410.2 423.42 419.58L423.41 419.54Z" fill="white" fill-opacity="0.2"/>
<path d="M368 173.49C369.8 176.23 373.94 177.67 380.49 175.34C386.49 173.22 390.23 169.68 389.95 166.34C389.46 160.39 389.07 154.34 387.14 148.86C384.04 139.99 379.74 131.52 375.94 122.86L376.14 121.62V121.56C376.321 120.314 376.002 119.047 375.253 118.036C374.504 117.024 373.385 116.35 372.14 116.16L363.08 114.84C344.98 112.19 330.38 121.84 313.98 125.12C313.23 125.27 312.9 128.12 313.11 130.12C313.459 133.358 315.024 136.343 317.49 138.47C324.4 144.55 330.94 146.11 336.81 145.21C339.22 144.84 341.64 144.51 344.06 144.21C335.95 157.45 327.9 170.81 320.89 184.63C312.33 201.49 304.24 218.58 296.18 235.68L279.78 232.9L280.25 233.64C280.08 233.4 279.92 233.15 279.78 232.9C265.503 227.49 250.929 222.896 236.13 219.14C233.424 218.442 230.568 218.603 227.957 219.601C225.347 220.599 223.111 222.385 221.56 224.71L220.78 225.88C199.26 258.29 181.08 293.13 160.02 325.88C158.72 327.88 159.02 332.52 160.02 334.51C162.02 338.44 166.31 337.43 170.7 334.72C185.22 325.72 197.6 311.72 207.95 296.17C218.3 280.62 229.1 264.82 239.47 249C258.57 253.54 277.81 257.57 297.33 260.51L299.68 261.12C302.398 261.818 305.269 261.61 307.858 260.527C310.446 259.444 312.61 257.545 314.02 255.12L314.7 253.95L322 241.59C336.53 215.9 350.51 189.92 362.56 163.05C364.046 166.691 365.867 170.186 368 173.49ZM382.06 295.18C382.38 297.12 382.63 299.08 383.06 301C385.56 313.16 388.92 325 395.62 335.8C397.52 338.86 401.74 340.57 408.29 338.23C414.29 336.1 417.95 332.33 417.58 328.69C416.91 322.15 416.33 315.52 414.22 309.42C410.83 299.59 406.22 290.15 402.13 280.55C404.87 260.15 394.34 243.55 390.4 224.99C390.22 224.17 387.29 223.72 385.4 223.89C383.778 224.035 382.203 224.514 380.775 225.297C379.346 226.08 378.095 227.15 377.1 228.44C371.17 235.83 369.8 242.97 370.88 249.44C373.43 265 374.92 280.93 382.06 295.18ZM342.2 289.44C342.13 288.95 339.36 289.01 337.49 289.35C334.371 289.885 331.437 291.199 328.96 293.17C322.37 298.48 320.2 303.1 320.47 307C321.13 316.4 320.67 326.17 325.84 334.21C325.92 335.38 325.93 336.57 326.08 337.72C327 345 328.87 352 334 358C335.47 359.68 339.33 360.25 345.9 358C351.9 356 355.9 353.17 355.97 350.95C356.1 346.95 356.33 342.88 355.03 339.32C352.93 333.59 349.63 328.25 346.83 322.74C351.94 309.66 343.79 300.52 342.2 289.44ZM275.4 295C275.3 294.4 272.47 294.31 270.59 294.59C267.426 295.046 264.478 296.459 262.14 298.64C255.76 304.64 253.84 310.02 254.37 314.74C255.64 326.09 255.8 337.81 261.59 347.81C261.74 349.22 261.83 350.66 262.06 352.05C263.51 360.88 265.81 369.43 271.46 376.88C273.07 379 277.04 379.88 283.61 377.66C289.61 375.59 293.5 372.49 293.44 369.82C293.32 365.02 293.29 360.14 291.73 355.82C289.22 348.82 285.5 342.16 282.3 335.36C286.64 320 277.73 308.47 275.4 295ZM203.2 382.57C203.65 388.3 204.96 393.77 209.63 398.16C210.96 399.41 214.7 399.62 221.29 397.44C227.29 395.44 231.41 392.99 231.63 391.21C232.03 388.02 232.53 384.78 231.49 382.03C229.82 377.6 226.94 373.56 224.57 369.36C230.41 358.67 223.04 351.91 222.23 343.2C222.23 342.81 219.47 343.04 217.62 343.42C214.54 344.035 211.611 345.251 209 347C202.19 351.63 199.75 355.43 199.76 358.52C199.76 365.96 198.66 373.74 203.19 379.82C203.2 380.72 203.13 381.66 203.2 382.57Z" fill="white" fill-opacity="0.1"/>
</g>
<g clip-path="url(#clip1_3538_72626)">
<path d="M510.83 328.08L510.4 326.52L510.13 325.66L509.03 322.24L506.83 315.4L498 288.07L483.41 243.39C486.256 240.164 488.569 236.505 490.26 232.55C494.54 222.72 499.1 212.98 503.11 203.05C505.11 198.05 506.98 193.05 508.59 187.96L509.19 186.04L509.48 185.04L509.67 184.38L509.89 183.52C510.201 182.374 510.432 181.208 510.58 180.03L510.8 178.26C510.8 177.67 510.85 177.07 510.87 176.47C510.979 171.737 509.976 167.044 507.94 162.77C506.482 158.319 504.054 154.247 500.83 150.85C498.207 148.112 495.119 145.86 491.71 144.2C490.11 143.42 487.85 142.59 487.22 142.35L484.22 141.26C480.22 139.83 476.27 138.49 472.22 137.26C464.163 134.815 455.913 133.055 447.56 132C447.115 131.949 446.668 131.922 446.22 131.92C445.406 129.533 444.596 127.143 443.79 124.75C429.79 83.6598 415.51 50.2998 409.87 55.4898C404.73 60.2098 409.61 90.9698 422.41 133.68C433.903 172.02 445.473 210.46 457.12 249C462.973 268.246 468.88 287.476 474.84 306.69L483.72 335.16C484.036 336.317 483.999 337.542 483.612 338.678C483.225 339.813 482.507 340.807 481.55 341.53C481.237 341.763 480.902 341.964 480.55 342.13C480.39 342.25 480.16 342.26 479.99 342.36L479.85 342.43L479.4 342.57L478.5 342.86C416.946 362.566 355.493 382.496 294.14 402.65L202.07 432.81L156.07 447.89L133.07 455.42L127.31 457.3L124.43 458.24L123.71 458.48L123.35 458.6L123.06 458.69C122.83 458.74 122.6 458.81 122.37 458.88C120.523 459.322 118.582 459.139 116.85 458.36C117.103 458.684 117.38 458.988 117.68 459.27C117.373 458.996 117.094 458.691 116.85 458.36C116.102 457.957 115.426 457.433 114.85 456.81C114.268 456.227 113.788 455.551 113.43 454.81C113.245 454.453 113.082 454.086 112.94 453.71C112.94 453.51 112.84 453.31 112.78 453.12V452.98V452.91V452.75L112.6 452.1L111 446.9L105 426C101.06 412 97.0598 398.016 92.9998 384.05C84.8464 356.11 76.5131 328.16 67.9998 300.2C59.4864 272.24 50.8964 244.273 42.2298 216.3L29.5598 175.76C29.5357 175.427 29.5357 175.093 29.5598 174.76C29.6184 174.421 29.702 174.087 29.8098 173.76C29.9615 173.455 30.1388 173.164 30.3398 172.89C30.5584 172.647 30.8033 172.429 31.0698 172.24C31.1435 172.208 31.2112 172.164 31.2698 172.11C31.3298 172.06 31.4298 172.06 31.4998 172.01L31.5998 171.94H31.7298H31.8498H31.9098H32.0598L37.3098 170.28L47.7998 166.95C159.73 131.45 271.72 95.0098 383.6 60.4098C384.84 60.0298 386.16 59.5698 387.53 59.0698L389.53 58.3098C389.66 58.3098 389.78 58.0898 389.92 58.0398C390.528 57.5434 391.238 57.1882 392 56.9998C392.927 56.8152 393.882 56.8152 394.81 56.9998C395.637 57.1942 396.449 57.4482 397.24 57.7598C397.547 57.8876 397.86 57.9978 398.18 58.0898C398.439 58.1961 398.706 58.2797 398.98 58.3398C399.439 58.4581 399.923 58.4372 400.37 58.2798C400.822 58.092 401.182 57.7324 401.37 57.2798C401.656 56.6219 401.783 55.9058 401.74 55.1898C401.51 52.7186 400.378 50.4187 398.56 48.7298C397.147 47.387 395.479 46.3412 393.655 45.6541C391.831 44.9671 389.887 44.6528 387.94 44.7298C386.954 44.7401 385.971 44.8304 385 44.9998L381.94 45.5998L375.77 46.8298L363.23 49.4198C354.79 51.2131 346.19 53.1231 337.43 55.1498C319.93 59.1498 301.85 63.6798 283.43 68.5198C270.87 71.8131 258.14 75.2631 245.24 78.8698C237.15 70.9998 227 65.2098 216.18 60.9998C200.18 54.7398 184.18 48.2098 168.02 42.2198C159.94 39.2198 151.81 36.3698 143.58 33.7598C139.466 32.4264 135.333 31.1864 131.18 30.0398L130.4 29.8198L129 29.4698C128.081 29.2272 127.15 29.0369 126.21 28.8998C125.26 28.7798 124.32 28.6198 123.37 28.5798C122.42 28.5398 121.46 28.5098 120.51 28.5098C116.734 28.6168 113.008 29.4027 109.51 30.8298C102.266 33.1 96.0611 37.8658 91.9998 44.2798C91.5827 44.9246 91.2021 45.5923 90.8598 46.2798C90.5098 46.9498 90.1398 47.6198 89.8598 48.2798C89.2998 49.5898 88.6298 51.3598 88.4398 51.8798L86.6998 56.6698C85.5531 59.8631 84.4264 63.0631 83.3198 66.2698C81.1064 72.6831 78.9998 79.1264 76.9998 85.5998C72.9742 98.5476 69.6362 111.699 66.9998 125C66.4963 127.426 66.3648 129.914 66.6098 132.38L29.8498 143.57L25.4898 144.9L24.3998 145.23L23.8498 145.4C23.6698 145.45 23.5198 145.5 23.1698 145.62C21.9698 146.009 20.7944 146.47 19.6498 147C15.0069 149.157 10.9674 152.425 7.88878 156.515C4.81019 160.605 2.7875 165.391 1.99977 170.45C1.59911 172.986 1.51179 175.562 1.73977 178.12C1.87977 179.39 2.05977 180.67 2.32977 181.91L2.79977 183.76L3.03977 184.63L3.20977 185.17L13.8698 220.06L28.3098 267.06C25.0642 270.493 22.4537 274.474 20.5998 278.82C16.3198 288.65 11.7598 298.39 7.74977 308.32C5.74977 313.32 3.87977 318.32 2.26977 323.41L1.66977 325.33L1.37977 326.33L1.18977 326.99L0.96977 327.85C0.65813 328.995 0.42756 330.162 0.27977 331.34L0.0597697 333.11C0.0597697 333.7 0.00976973 334.3 -0.0102303 334.9C-0.1214 339.636 0.882255 344.332 2.91977 348.61C4.37681 353.061 6.80542 357.133 10.0298 360.53C12.6527 363.268 15.7405 365.52 19.1498 367.18C20.7498 367.96 23.0098 368.79 23.6398 369.03L26.6398 370.12C30.6398 371.55 34.5898 372.89 38.6398 374.12C46.6726 376.58 54.8983 378.36 63.2298 379.44C68.4631 396.106 73.7231 412.773 79.0098 429.44L84.5598 446.87L87.3498 455.59L88.7498 459.95L88.9198 460.49L89.2398 461.4L89.9598 463.29C90.4972 464.536 91.098 465.755 91.7598 466.94C94.4715 471.67 98.3129 475.654 102.941 478.537C107.569 481.42 112.839 483.111 118.28 483.46C120.993 483.629 123.716 483.468 126.39 482.98C127.717 482.718 129.029 482.384 130.32 481.98L132.57 481.26L141.28 478.44C164.513 470.906 187.736 463.286 210.95 455.58L271 437.22C278.196 442.766 286.176 447.211 294.68 450.41C310.68 456.67 326.68 463.2 342.84 469.19C350.92 472.19 359.05 475.04 367.28 477.65C371.393 478.983 375.526 480.223 379.68 481.37L380.46 481.59L381.82 481.94C382.738 482.182 383.67 482.372 384.61 482.51C385.56 482.63 386.5 482.79 387.45 482.83C388.4 482.87 389.36 482.9 390.31 482.9C394.086 482.792 397.812 482.007 401.31 480.58C408.565 478.316 414.781 473.549 418.85 467.13C419.267 466.485 419.647 465.817 419.99 465.13C420.34 464.46 420.71 463.79 420.99 463.13C421.55 461.82 422.22 460.05 422.41 459.53L424.15 454.74C425.296 451.546 426.423 448.346 427.53 445.14C429.743 438.726 431.85 432.283 433.85 425.81C437.876 412.859 441.214 399.704 443.85 386.4C444.054 385.349 444.201 384.287 444.29 383.22L445.08 382.97L472.49 374.28L486.19 369.92L487.9 369.37L488.36 369.22L489.13 368.95L490.66 368.38C492.694 367.574 494.643 366.569 496.48 365.38C502.029 361.779 506.406 356.635 509.07 350.58C511.735 344.526 512.573 337.824 511.48 331.3C511.333 330.214 511.115 329.138 510.83 328.08ZM456.15 161.27C459.09 162.519 462.094 163.61 465.15 164.54C468.55 165.54 471.97 166.48 475.41 167.36L480.19 168.55C480.849 168.646 481.492 168.835 482.1 169.11C483.492 169.766 484.658 170.822 485.447 172.144C486.236 173.466 486.613 174.993 486.53 176.53C486.82 176.53 487.11 176.53 487.4 176.53C487.12 176.53 486.83 176.53 486.53 176.53C486.36 176.69 486.16 176.83 485.99 176.97C485.763 177.132 485.572 177.34 485.43 177.58C484.956 178.246 484.493 178.933 484.04 179.64C483.133 181.02 482.27 182.42 481.45 183.84C479.81 186.67 478.34 189.56 476.99 192.49C474.866 197.191 472.984 201.997 471.35 206.89C466.33 191.663 461.263 176.456 456.15 161.27ZM104.46 91.8198C106.126 86.3531 107.723 80.8664 109.25 75.3598L111.53 67.0998L113.72 58.9998C113.955 57.9108 114.426 56.8867 115.1 55.9998C115.826 55.0472 116.774 54.2854 117.86 53.7798C118.982 53.2194 120.226 52.9479 121.48 52.9898C121.815 52.9897 122.15 53.0198 122.48 53.0798L122.97 53.1498L123.97 53.4098L128.11 54.5198C155.31 70.0398 185.34 78.3698 215.04 87.5198C199.9 91.9198 184.68 96.4564 169.38 101.13L91.9998 124.63C96.7209 113.917 100.88 102.966 104.46 91.8198ZM45.6798 346.82C42.2798 345.82 38.8598 344.88 35.4198 344L30.6398 342.81C29.98 342.713 29.3371 342.525 28.7298 342.25C27.3372 341.594 26.1719 340.537 25.3828 339.216C24.5937 337.894 24.2166 336.367 24.2998 334.83C24.0098 334.83 23.7198 334.83 23.4298 334.83C23.7098 334.83 23.9998 334.83 24.2998 334.83C24.4698 334.67 24.6698 334.53 24.8398 334.39C25.0669 334.228 25.2577 334.02 25.3998 333.78C25.8731 333.113 26.3364 332.426 26.7898 331.72C27.6964 330.34 28.5598 328.94 29.3798 327.52C31.0198 324.69 32.4898 321.8 33.8398 318.87C36.044 313.975 37.99 308.968 39.6698 303.87C44.4031 319.156 49.1531 334.443 53.9198 349.73C51.2198 348.7 48.4798 347.69 45.6798 346.86V346.82ZM406.41 419.54C404.743 425.006 403.146 430.493 401.62 436L399.34 444.26L397.15 452.4C396.915 453.489 396.444 454.513 395.77 455.4C395.05 456.383 394.099 457.173 393 457.7C391.878 458.261 390.633 458.532 389.38 458.49C389.044 458.49 388.71 458.459 388.38 458.4L387.89 458.33C387.62 458.27 387.22 458.15 386.89 458.07L382.79 457C358.38 443 331.7 434.9 305 426.74C333.433 417.94 361.846 409.103 390.24 400.23L416.65 391.92C412.88 401 409.27 410.2 406.42 419.58L406.41 419.54Z" fill="#7B9836"/>
<path d="M343 173.49C344.8 176.23 348.94 177.67 355.49 175.34C361.49 173.22 365.23 169.68 364.95 166.34C364.46 160.39 364.07 154.34 362.14 148.86C359.04 139.99 354.74 131.52 350.94 122.86L351.14 121.62V121.56C351.321 120.314 351.002 119.047 350.253 118.036C349.504 117.024 348.385 116.35 347.14 116.16L338.08 114.84C319.98 112.19 305.38 121.84 288.98 125.12C288.23 125.27 287.9 128.12 288.11 130.12C288.459 133.358 290.024 136.343 292.49 138.47C299.4 144.55 305.94 146.11 311.81 145.21C314.22 144.84 316.64 144.51 319.06 144.21C310.95 157.45 302.9 170.81 295.89 184.63C287.33 201.49 279.24 218.58 271.18 235.68L254.78 232.9L255.25 233.64C255.08 233.4 254.92 233.15 254.78 232.9C240.503 227.49 225.929 222.896 211.13 219.14C208.424 218.442 205.568 218.603 202.957 219.601C200.347 220.599 198.111 222.385 196.56 224.71L195.78 225.88C174.26 258.29 156.08 293.13 135.02 325.88C133.72 327.88 134.02 332.52 135.02 334.51C137.02 338.44 141.31 337.43 145.7 334.72C160.22 325.72 172.6 311.72 182.95 296.17C193.3 280.62 204.1 264.82 214.47 249C233.57 253.54 252.81 257.57 272.33 260.51L274.68 261.12C277.398 261.818 280.269 261.61 282.858 260.527C285.446 259.444 287.61 257.545 289.02 255.12L289.7 253.95L297 241.59C311.53 215.9 325.51 189.92 337.56 163.05C339.046 166.691 340.867 170.186 343 173.49ZM357.06 295.18C357.38 297.12 357.63 299.08 358.06 301C360.56 313.16 363.92 325 370.62 335.8C372.52 338.86 376.74 340.57 383.29 338.23C389.29 336.1 392.95 332.33 392.58 328.69C391.91 322.15 391.33 315.52 389.22 309.42C385.83 299.59 381.22 290.15 377.13 280.55C379.87 260.15 369.34 243.55 365.4 224.99C365.22 224.17 362.29 223.72 360.4 223.89C358.778 224.035 357.203 224.514 355.775 225.297C354.346 226.08 353.095 227.15 352.1 228.44C346.17 235.83 344.8 242.97 345.88 249.44C348.43 265 349.92 280.93 357.06 295.18ZM317.2 289.44C317.13 288.95 314.36 289.01 312.49 289.35C309.371 289.885 306.437 291.199 303.96 293.17C297.37 298.48 295.2 303.1 295.47 307C296.13 316.4 295.67 326.17 300.84 334.21C300.92 335.38 300.93 336.57 301.08 337.72C302 345 303.87 352 309 358C310.47 359.68 314.33 360.25 320.9 358C326.9 356 330.9 353.17 330.97 350.95C331.1 346.95 331.33 342.88 330.03 339.32C327.93 333.59 324.63 328.25 321.83 322.74C326.94 309.66 318.79 300.52 317.2 289.44ZM250.4 295C250.3 294.4 247.47 294.31 245.59 294.59C242.426 295.046 239.478 296.459 237.14 298.64C230.76 304.64 228.84 310.02 229.37 314.74C230.64 326.09 230.8 337.81 236.59 347.81C236.74 349.22 236.83 350.66 237.06 352.05C238.51 360.88 240.81 369.43 246.46 376.88C248.07 379 252.04 379.88 258.61 377.66C264.61 375.59 268.5 372.49 268.44 369.82C268.32 365.02 268.29 360.14 266.73 355.82C264.22 348.82 260.5 342.16 257.3 335.36C261.64 320 252.73 308.47 250.4 295ZM178.2 382.57C178.65 388.3 179.96 393.77 184.63 398.16C185.96 399.41 189.7 399.62 196.29 397.44C202.29 395.44 206.41 392.99 206.63 391.21C207.03 388.02 207.53 384.78 206.49 382.03C204.82 377.6 201.94 373.56 199.57 369.36C205.41 358.67 198.04 351.91 197.23 343.2C197.23 342.81 194.47 343.04 192.62 343.42C189.54 344.035 186.611 345.251 184 347C177.19 351.63 174.75 355.43 174.76 358.52C174.76 365.96 173.66 373.74 178.19 379.82C178.2 380.72 178.13 381.66 178.2 382.57Z" fill="#7B9836"/>
</g>
<defs>
<clipPath id="clip0_3538_72626">
<rect width="512" height="512" fill="white" transform="translate(25)"/>
</clipPath>
<clipPath id="clip1_3538_72626">
<rect width="512" height="512" fill="white"/>
</clipPath>
</defs>
</svg>
