<svg width="98" height="15" viewBox="0 0 98 15" fill="none" xmlns="http://www.w3.org/2000/svg">
<path d="M1.098 13.594C0.882 13.474 0.762 13.342 0.738 13.198C0.726 13.054 0.81 12.802 0.99 12.442C1.17 12.082 1.452 11.524 1.836 10.768C2.124 10.228 2.316 9.808 2.412 9.508C2.52 9.196 2.58 8.974 2.592 8.842C2.604 8.71 2.61 8.626 2.61 8.59C2.586 8.482 2.598 8.398 2.646 8.338C2.694 8.266 2.772 8.206 2.88 8.158C2.94 8.098 3.078 7.99 3.294 7.834C3.51 7.678 3.678 7.492 3.798 7.276C3.906 7.024 4.026 6.766 4.158 6.502C4.302 6.238 4.488 5.908 4.716 5.512C4.944 5.104 5.25 4.576 5.634 3.928C5.874 3.508 6.156 3.034 6.48 2.506C6.816 1.978 7.146 1.498 7.47 1.066C7.602 0.897999 7.74 0.765999 7.884 0.669999C8.028 0.573999 8.154 0.526 8.262 0.526C8.526 0.526 8.79 0.597999 9.054 0.741999C9.318 0.873999 9.552 1.042 9.756 1.246C9.96 1.45 10.098 1.642 10.17 1.822C10.23 1.918 10.254 2.122 10.242 2.434C10.23 2.746 10.206 3.124 10.17 3.568C10.134 4.012 10.092 4.486 10.044 4.99C10.008 5.482 9.954 6.064 9.882 6.736C9.81 7.408 9.738 8.11 9.666 8.842C9.606 9.574 9.558 10.282 9.522 10.966C9.486 11.638 9.486 12.226 9.522 12.73C9.534 12.838 9.534 12.94 9.522 13.036C9.51 13.132 9.504 13.21 9.504 13.27C9.432 13.342 9.276 13.372 9.036 13.36C8.796 13.36 8.562 13.324 8.334 13.252C8.106 13.18 7.98 13.09 7.956 12.982C7.92 12.946 7.896 12.916 7.884 12.892C7.872 12.868 7.872 12.754 7.884 12.55C7.896 12.334 7.914 11.944 7.938 11.38L8.028 8.626L7.794 8.644C7.686 8.644 7.488 8.656 7.2 8.68C6.924 8.704 6.618 8.74 6.282 8.788C5.958 8.824 5.658 8.866 5.382 8.914C5.106 8.95 4.914 8.986 4.806 9.022C4.698 9.022 4.566 9.094 4.41 9.238C4.266 9.382 4.128 9.568 3.996 9.796C3.948 9.964 3.858 10.144 3.726 10.336C3.606 10.516 3.546 10.636 3.546 10.696C3.462 10.756 3.39 10.828 3.33 10.912C3.282 10.996 3.258 11.038 3.258 11.038C3.258 11.11 3.204 11.29 3.096 11.578C2.988 11.854 2.856 12.166 2.7 12.514C2.544 12.85 2.382 13.144 2.214 13.396L1.728 14.08L1.098 13.594ZM5.4 7.402C5.4 7.402 5.466 7.39 5.598 7.366C5.73 7.342 5.886 7.318 6.066 7.294C6.258 7.258 6.426 7.24 6.57 7.24C6.846 7.168 7.074 7.114 7.254 7.078C7.446 7.042 7.602 7.024 7.722 7.024C7.842 7.012 7.938 7.024 8.01 7.06C8.058 7.12 8.1 7.156 8.136 7.168C8.184 7.18 8.208 7.186 8.208 7.186C8.22 7.162 8.244 7.036 8.28 6.808C8.316 6.58 8.358 6.298 8.406 5.962C8.454 5.626 8.502 5.278 8.55 4.918C8.598 4.546 8.64 4.204 8.676 3.892C8.712 3.568 8.736 3.316 8.748 3.136C8.76 2.908 8.754 2.704 8.73 2.524C8.706 2.332 8.694 2.236 8.694 2.236C8.622 2.236 8.484 2.368 8.28 2.632C8.088 2.884 7.86 3.226 7.596 3.658C7.344 4.078 7.092 4.534 6.84 5.026C6.72 5.254 6.606 5.434 6.498 5.566C6.402 5.698 6.324 5.764 6.264 5.764C6.24 5.788 6.174 5.884 6.066 6.052C5.97 6.208 5.862 6.388 5.742 6.592C5.634 6.784 5.538 6.964 5.454 7.132C5.382 7.288 5.364 7.378 5.4 7.402ZM11.6954 12.316C11.6114 12.328 11.5154 12.298 11.4074 12.226C11.3114 12.142 11.2214 12.07 11.1374 12.01C11.0174 11.866 10.9334 11.74 10.8854 11.632C10.8374 11.524 10.8134 11.404 10.8134 11.272C10.8134 11.14 10.8254 10.984 10.8494 10.804C10.9094 10.612 10.9814 10.354 11.0654 10.03C11.1494 9.706 11.2514 9.358 11.3714 8.986C11.3954 8.842 11.4374 8.674 11.4974 8.482C11.5694 8.278 11.6414 8.086 11.7134 7.906C11.7854 7.714 11.8394 7.57 11.8754 7.474C11.9594 7.174 12.0434 6.886 12.1274 6.61C12.2234 6.334 12.3374 6.016 12.4694 5.656C12.6014 5.296 12.7634 4.84 12.9554 4.288C13.2194 3.568 13.4174 3.028 13.5494 2.668C13.6814 2.308 13.7774 2.05 13.8374 1.894C13.8974 1.738 13.9394 1.612 13.9634 1.516C13.9634 1.42 14.0294 1.33 14.1614 1.246C14.3054 1.15 14.4314 1.102 14.5394 1.102C14.7074 1.114 14.8694 1.216 15.0254 1.408C15.1814 1.588 15.2894 1.81 15.3494 2.074C15.4094 2.326 15.3674 2.572 15.2234 2.812C15.0314 3.244 14.8394 3.73 14.6474 4.27C14.4674 4.798 14.2874 5.326 14.1074 5.854C13.9274 6.382 13.7474 6.868 13.5674 7.312C13.5554 7.372 13.5134 7.474 13.4414 7.618C13.3814 7.762 13.3274 7.882 13.2794 7.978C13.2314 8.074 13.1834 8.164 13.1354 8.248C13.0994 8.332 13.0814 8.374 13.0814 8.374C13.0694 8.446 13.0454 8.548 13.0094 8.68C12.9734 8.812 12.9374 8.926 12.9014 9.022C12.8894 9.082 12.8714 9.16 12.8474 9.256C12.8234 9.352 12.8054 9.448 12.7934 9.544C12.8534 9.472 12.9374 9.388 13.0454 9.292C13.1534 9.184 13.2914 9.052 13.4594 8.896C13.6514 8.728 13.8194 8.584 13.9634 8.464C14.1074 8.344 14.2514 8.236 14.3954 8.14C14.5274 8.044 14.6474 7.954 14.7554 7.87C14.8754 7.786 14.9354 7.744 14.9354 7.744C14.9594 7.708 14.9834 7.666 15.0074 7.618C15.0434 7.57 15.0794 7.54 15.1154 7.528C15.1394 7.504 15.1814 7.474 15.2414 7.438C15.3014 7.39 15.3614 7.342 15.4214 7.294C15.5294 7.222 15.6434 7.162 15.7634 7.114C15.8834 7.066 16.0094 7.03 16.1414 7.006C16.2734 6.982 16.3994 6.97 16.5194 6.97C16.6634 6.97 16.8134 7.03 16.9694 7.15C17.1254 7.258 17.2694 7.414 17.4014 7.618C17.5214 7.774 17.5934 7.96 17.6174 8.176C17.6534 8.38 17.6594 8.656 17.6354 9.004C17.6354 9.1 17.6054 9.28 17.5454 9.544C17.4974 9.808 17.4614 10.006 17.4374 10.138L17.2754 10.75H17.4194C17.5514 10.702 17.6774 10.696 17.7974 10.732C17.9294 10.768 17.9954 10.786 17.9954 10.786C18.0554 10.822 18.1094 10.864 18.1574 10.912C18.2174 10.96 18.2714 10.996 18.3194 11.02C18.3914 11.116 18.3794 11.254 18.2834 11.434C18.1874 11.614 18.0794 11.74 17.9594 11.812C17.6714 12.004 17.4134 12.124 17.1854 12.172C16.9694 12.22 16.7414 12.178 16.5014 12.046C16.2734 11.89 16.1174 11.704 16.0334 11.488C15.9614 11.272 15.9314 10.978 15.9434 10.606C15.9914 10.078 16.0214 9.7 16.0334 9.472C16.0454 9.232 15.9854 9.112 15.8534 9.112C15.7094 9.112 15.5114 9.184 15.2594 9.328C15.0194 9.46 14.7494 9.646 14.4494 9.886C14.1494 10.114 13.8494 10.372 13.5494 10.66C13.2614 10.936 13.0034 11.218 12.7754 11.506C12.6314 11.686 12.4754 11.866 12.3074 12.046C12.1394 12.214 11.9354 12.304 11.6954 12.316ZM20.7252 12.874C20.5692 12.874 20.4432 12.844 20.3472 12.784C20.2632 12.724 20.1552 12.64 20.0232 12.532C19.7952 12.292 19.6092 12.034 19.4652 11.758C19.3332 11.482 19.2852 11.242 19.3212 11.038C19.3572 10.942 19.3692 10.852 19.3572 10.768C19.3572 10.672 19.3572 10.624 19.3572 10.624C19.2972 10.564 19.2792 10.528 19.3032 10.516C19.3272 10.492 19.3512 10.456 19.3752 10.408C19.4472 10.408 19.4712 10.342 19.4472 10.21C19.4232 10.114 19.4592 9.91 19.5552 9.598C19.6632 9.274 19.8072 8.968 19.9872 8.68C20.0592 8.56 20.1672 8.404 20.3112 8.212C20.4552 8.008 20.6112 7.81 20.7792 7.618C20.9592 7.414 21.1212 7.252 21.2652 7.132C21.5652 6.88 21.8412 6.676 22.0932 6.52C22.3572 6.364 22.6212 6.256 22.8852 6.196C23.1492 6.136 23.4192 6.106 23.6952 6.106C23.9832 6.106 24.2172 6.202 24.3972 6.394C24.6732 6.514 24.8652 6.676 24.9732 6.88C25.0932 7.084 25.1712 7.348 25.2072 7.672C25.2432 8.032 25.2072 8.476 25.0992 9.004C24.9912 9.52 24.6972 10.12 24.2172 10.804C23.9172 11.236 23.6232 11.572 23.3352 11.812C23.0472 12.052 22.7292 12.274 22.3812 12.478C22.1292 12.646 21.8592 12.748 21.5712 12.784C21.2832 12.82 21.0012 12.85 20.7252 12.874ZM22.5612 10.678C22.8252 10.45 23.0112 10.198 23.1192 9.922C23.2392 9.646 23.3652 9.322 23.4972 8.95C23.5452 8.878 23.5752 8.758 23.5872 8.59C23.6112 8.422 23.6172 8.26 23.6052 8.104C23.5932 7.936 23.5512 7.84 23.4792 7.816C23.3712 7.732 23.2632 7.714 23.1552 7.762C23.0472 7.798 22.9092 7.876 22.7412 7.996C22.3812 8.296 22.0452 8.644 21.7332 9.04C21.4332 9.424 21.2232 9.898 21.1032 10.462C21.0672 10.762 21.0972 10.99 21.1932 11.146C21.3012 11.29 21.4692 11.332 21.6972 11.272C21.9372 11.2 22.2252 11.002 22.5612 10.678ZM27.4627 12.622C27.4267 12.634 27.3487 12.628 27.2287 12.604C27.1207 12.58 27.0067 12.55 26.8867 12.514C26.7787 12.478 26.7127 12.448 26.6887 12.424C26.6407 12.376 26.5747 12.292 26.4907 12.172C26.4067 12.04 26.3587 11.866 26.3467 11.65C26.3467 11.434 26.4487 11.176 26.6527 10.876C26.7127 10.756 26.7847 10.576 26.8687 10.336C26.9527 10.096 27.0367 9.844 27.1207 9.58C27.2167 9.304 27.3007 9.058 27.3727 8.842C27.4567 8.626 27.5167 8.476 27.5527 8.392C27.5767 8.188 27.5647 8.044 27.5167 7.96C27.4807 7.864 27.3787 7.81 27.2107 7.798C27.0907 7.798 26.9947 7.756 26.9227 7.672C26.8627 7.588 26.8327 7.438 26.8327 7.222C26.8567 7.054 26.8987 6.91 26.9587 6.79C27.0307 6.658 27.1267 6.55 27.2467 6.466C27.3667 6.406 27.5167 6.364 27.6967 6.34C27.8887 6.316 28.0747 6.31 28.2547 6.322C28.4347 6.334 28.5607 6.376 28.6327 6.448C28.7167 6.496 28.7827 6.604 28.8307 6.772C28.8907 6.928 28.9387 7.09 28.9747 7.258C29.0107 7.426 29.0347 7.552 29.0467 7.636C29.1667 7.54 29.2987 7.408 29.4427 7.24C29.5987 7.06 29.7547 6.892 29.9107 6.736C30.1027 6.604 30.3307 6.472 30.5947 6.34C30.8587 6.196 31.0507 6.124 31.1707 6.124C31.3027 6.124 31.4647 6.19 31.6567 6.322C31.8487 6.442 31.9687 6.55 32.0167 6.646C32.1367 6.85 32.2207 7.066 32.2687 7.294C32.3287 7.51 32.2927 7.702 32.1607 7.87C32.0407 8.026 31.8727 8.182 31.6567 8.338C31.4407 8.482 31.1707 8.524 30.8467 8.464C30.7747 8.44 30.6967 8.35 30.6127 8.194C30.5407 8.038 30.4987 7.924 30.4867 7.852C30.4867 7.816 30.4327 7.852 30.3247 7.96C30.2287 8.056 30.1087 8.176 29.9647 8.32C29.8327 8.464 29.7067 8.596 29.5867 8.716C29.3827 8.968 29.1667 9.31 28.9387 9.742C28.7107 10.174 28.4407 10.696 28.1287 11.308C27.9847 11.608 27.8647 11.896 27.7687 12.172C27.6727 12.436 27.5707 12.586 27.4627 12.622ZM33.049 12.73C32.965 12.73 32.851 12.67 32.707 12.55C32.575 12.43 32.497 12.322 32.473 12.226C32.437 12.13 32.437 11.992 32.473 11.812C32.521 11.62 32.587 11.398 32.671 11.146C32.767 10.75 32.833 10.462 32.869 10.282C32.905 10.102 32.941 9.946 32.977 9.814C33.013 9.682 33.061 9.49 33.121 9.238C33.193 9.082 33.247 8.932 33.283 8.788C33.331 8.632 33.379 8.476 33.427 8.32C33.487 8.164 33.553 8.008 33.625 7.852C33.709 7.54 33.811 7.246 33.931 6.97C34.063 6.682 34.189 6.442 34.309 6.25C34.333 6.214 34.387 6.148 34.471 6.052C34.555 5.956 34.621 5.908 34.669 5.908C34.765 5.812 34.897 5.782 35.065 5.818C35.233 5.842 35.377 5.902 35.497 5.998C35.641 6.154 35.719 6.34 35.731 6.556C35.755 6.76 35.671 7.048 35.479 7.42C35.335 7.792 35.197 8.086 35.065 8.302C34.945 8.506 34.825 8.746 34.705 9.022C34.837 8.83 34.999 8.632 35.191 8.428C35.383 8.224 35.533 8.062 35.641 7.942C35.797 7.774 35.941 7.642 36.073 7.546C36.217 7.438 36.409 7.306 36.649 7.15C36.853 7.006 37.057 6.874 37.261 6.754C37.477 6.634 37.735 6.598 38.035 6.646C38.155 6.634 38.281 6.694 38.413 6.826C38.557 6.958 38.665 7.132 38.737 7.348C38.821 7.552 38.821 7.774 38.737 8.014C38.461 7.954 38.215 7.966 37.999 8.05C37.783 8.122 37.597 8.212 37.441 8.32C37.297 8.428 37.183 8.512 37.099 8.572C36.979 8.644 36.841 8.74 36.685 8.86C36.529 8.968 36.361 9.094 36.181 9.238C36.001 9.37 35.809 9.52 35.605 9.688C35.317 9.928 35.101 10.138 34.957 10.318C34.813 10.498 34.699 10.69 34.615 10.894C34.543 11.074 34.453 11.29 34.345 11.542C34.237 11.794 34.135 12.022 34.039 12.226C33.943 12.418 33.865 12.538 33.805 12.586C33.745 12.706 33.619 12.772 33.427 12.784C33.247 12.796 33.121 12.778 33.049 12.73ZM40.5973 12.748C40.5013 12.772 40.3753 12.784 40.2193 12.784C40.0633 12.772 39.9253 12.754 39.8053 12.73C39.6973 12.694 39.6433 12.658 39.6433 12.622C39.6433 12.562 39.6133 12.532 39.5533 12.532C39.5533 12.532 39.4873 12.484 39.3553 12.388C39.2233 12.28 39.1033 12.202 38.9953 12.154C38.8873 11.986 38.8153 11.794 38.7793 11.578C38.7553 11.35 38.8273 10.954 38.9953 10.39C39.0073 10.006 39.1153 9.604 39.3193 9.184C39.5233 8.752 39.7813 8.332 40.0933 7.924C40.4053 7.516 40.7293 7.156 41.0653 6.844C41.4013 6.52 41.7013 6.28 41.9653 6.124C42.1333 5.956 42.3553 5.866 42.6313 5.854C42.9193 5.842 43.1713 5.896 43.3873 6.016C43.5073 6.076 43.6393 6.196 43.7833 6.376C43.9273 6.556 44.0653 6.748 44.1973 6.952C44.3293 7.144 44.4313 7.318 44.5033 7.474C44.5393 7.606 44.5693 7.726 44.5933 7.834C44.6293 7.93 44.6533 8.05 44.6653 8.194C44.6773 8.338 44.6653 8.554 44.6293 8.842C44.5693 9.058 44.5153 9.28 44.4673 9.508C44.4313 9.724 44.4133 9.946 44.4133 10.174C44.3893 10.402 44.4133 10.564 44.4853 10.66C44.5693 10.756 44.6893 10.762 44.8453 10.678C44.9893 10.606 45.1393 10.6 45.2953 10.66C45.4513 10.708 45.5593 10.804 45.6193 10.948C45.6913 11.08 45.6733 11.254 45.5653 11.47C45.4933 11.626 45.3793 11.776 45.2233 11.92C45.0673 12.064 44.8933 12.184 44.7013 12.28C44.5093 12.364 44.3233 12.406 44.1433 12.406C44.0113 12.406 43.8793 12.358 43.7473 12.262C43.6153 12.154 43.4953 12.01 43.3873 11.83C43.2793 11.65 43.1893 11.452 43.1173 11.236L43.0093 10.822L42.3613 11.416C42.2053 11.584 42.0493 11.74 41.8933 11.884C41.7493 12.016 41.6593 12.112 41.6233 12.172C41.5633 12.28 41.4433 12.376 41.2633 12.46C41.0953 12.544 40.8733 12.64 40.5973 12.748ZM41.0833 11.02C41.2873 10.9 41.4613 10.756 41.6053 10.588C41.7613 10.42 41.9113 10.234 42.0553 10.03C42.1993 9.814 42.3553 9.586 42.5233 9.346C42.7273 9.07 42.8713 8.848 42.9553 8.68C43.0513 8.512 43.1233 8.332 43.1713 8.14C43.1233 8.008 43.0573 7.87 42.9733 7.726C42.8893 7.57 42.8053 7.486 42.7213 7.474C42.5533 7.474 42.3493 7.576 42.1093 7.78C41.8813 7.984 41.6293 8.278 41.3533 8.662C41.3053 8.722 41.2453 8.818 41.1733 8.95C41.1013 9.082 41.0293 9.208 40.9573 9.328C40.8973 9.436 40.8553 9.508 40.8313 9.544C40.7953 9.592 40.7413 9.706 40.6693 9.886C40.6093 10.054 40.5553 10.228 40.5073 10.408C40.4593 10.576 40.4353 10.696 40.4353 10.768C40.4353 10.84 40.4413 10.918 40.4533 11.002C40.4773 11.086 40.5373 11.14 40.6333 11.164C40.7293 11.188 40.8793 11.14 41.0833 11.02ZM51.8535 12.856C51.8055 12.832 51.7215 12.766 51.6015 12.658C51.4935 12.55 51.3855 12.43 51.2775 12.298C51.1695 12.154 51.0975 12.046 51.0615 11.974C51.0255 11.914 51.0255 11.806 51.0615 11.65C51.1095 11.494 51.1575 11.416 51.2055 11.416C51.2415 11.44 51.2895 11.398 51.3495 11.29C51.4095 11.182 51.4695 11.068 51.5295 10.948C51.5895 10.816 51.6195 10.738 51.6195 10.714C51.6315 10.666 51.6615 10.63 51.7095 10.606C51.7695 10.57 51.8235 10.534 51.8715 10.498C51.9315 10.402 52.0095 10.306 52.1055 10.21C52.2135 10.102 52.2975 10.012 52.3575 9.94C52.4535 9.82 52.6275 9.64 52.8795 9.4C53.1315 9.16 53.3775 8.914 53.6175 8.662C53.8695 8.386 54.0915 8.146 54.2835 7.942C54.4755 7.726 54.5775 7.576 54.5895 7.492C54.5895 7.492 54.6075 7.474 54.6435 7.438C54.6915 7.39 54.7455 7.348 54.8055 7.312C54.8655 7.276 54.9435 7.216 55.0395 7.132C55.1475 7.048 55.2375 6.97 55.3095 6.898C55.3335 6.802 55.3875 6.694 55.4715 6.574C55.5675 6.442 55.6755 6.316 55.7955 6.196C55.8915 6.052 55.9815 5.896 56.0655 5.728C56.1495 5.548 56.2035 5.416 56.2275 5.332C56.2635 5.2 56.2515 5.122 56.1915 5.098C56.1315 5.062 55.9695 5.002 55.7055 4.918C55.4175 4.822 55.1475 4.804 54.8955 4.864C54.6435 4.924 54.3075 5.104 53.8875 5.404C53.7195 5.44 53.5635 5.488 53.4195 5.548C53.2875 5.608 53.1735 5.632 53.0775 5.62C53.0295 5.596 52.9755 5.542 52.9155 5.458C52.8555 5.374 52.7895 5.296 52.7175 5.224L52.5375 4.45L53.0955 4.144C53.5875 3.832 54.0555 3.598 54.4995 3.442C54.9555 3.274 55.3515 3.244 55.6875 3.352C55.8195 3.352 55.9395 3.37 56.0475 3.406C56.1555 3.43 56.2095 3.442 56.2095 3.442C56.3055 3.43 56.4435 3.478 56.6235 3.586C56.8155 3.694 57.0015 3.832 57.1815 4C57.3735 4.168 57.5055 4.336 57.5775 4.504C57.7695 4.792 57.8415 5.14 57.7935 5.548C57.7455 5.956 57.5715 6.382 57.2715 6.826C57.2115 6.898 57.0795 7.048 56.8755 7.276C56.6715 7.504 56.4375 7.762 56.1735 8.05C55.9215 8.326 55.6875 8.572 55.4715 8.788C55.2675 9.004 55.1355 9.142 55.0755 9.202C54.9915 9.238 54.8475 9.352 54.6435 9.544C54.4515 9.736 54.2415 9.952 54.0135 10.192C53.7975 10.42 53.6115 10.624 53.4555 10.804C53.3115 10.972 53.2515 11.056 53.2755 11.056C53.2635 11.104 53.3235 11.104 53.4555 11.056C53.5995 10.996 53.7255 10.948 53.8335 10.912C54.0135 10.852 54.2235 10.798 54.4635 10.75C54.7155 10.69 54.9675 10.642 55.2195 10.606C55.4715 10.57 55.6875 10.546 55.8675 10.534C56.0595 10.522 56.1735 10.534 56.2095 10.57C56.2335 10.63 56.2515 10.654 56.2635 10.642C56.2875 10.618 56.2995 10.606 56.2995 10.606C56.3235 10.522 56.4735 10.498 56.7495 10.534C57.0375 10.57 57.2955 10.624 57.5235 10.696C57.6555 10.732 57.7575 10.78 57.8295 10.84C57.9135 10.9 57.9555 10.954 57.9555 11.002C57.9555 11.002 57.9675 11.032 57.9915 11.092C58.0275 11.14 58.0815 11.206 58.1535 11.29C58.3455 11.446 58.3455 11.614 58.1535 11.794C57.9735 11.974 57.6435 12.022 57.1635 11.938C56.8515 11.938 56.5935 11.956 56.3895 11.992C56.3415 12.016 56.2395 12.028 56.0835 12.028C55.9275 12.028 55.7775 12.034 55.6335 12.046C55.4175 12.022 55.2015 12.034 54.9855 12.082C54.7695 12.118 54.5115 12.184 54.2115 12.28C54.1035 12.316 53.9355 12.37 53.7075 12.442C53.4795 12.514 53.2335 12.586 52.9695 12.658C52.7055 12.73 52.4655 12.784 52.2495 12.82C52.0455 12.856 51.9135 12.868 51.8535 12.856ZM71.5884 12.568C71.5044 12.544 71.3724 12.466 71.1924 12.334C71.0124 12.202 70.8504 12.004 70.7064 11.74C70.5744 11.476 70.5144 11.134 70.5264 10.714C70.5384 10.354 70.5624 10.102 70.5984 9.958C70.6464 9.802 70.6284 9.718 70.5444 9.706C70.4844 9.694 70.3644 9.748 70.1844 9.868C70.0044 9.988 69.7704 10.18 69.4824 10.444C69.1944 10.708 68.8464 11.056 68.4384 11.488C68.2944 11.608 68.1324 11.758 67.9524 11.938C67.7844 12.106 67.6104 12.232 67.4304 12.316C67.2624 12.4 67.1124 12.382 66.9804 12.262L66.8004 12.1C66.7164 12.028 66.6444 11.932 66.5844 11.812C66.5244 11.692 66.5064 11.59 66.5304 11.506L67.0344 10.102C67.1784 9.79 67.2744 9.562 67.3224 9.418C67.3824 9.274 67.4064 9.184 67.3944 9.148C67.3944 9.112 67.3644 9.1 67.3044 9.112C67.2324 9.124 67.1304 9.19 66.9984 9.31C66.8664 9.418 66.7764 9.508 66.7284 9.58C66.6804 9.58 66.6144 9.628 66.5304 9.724C66.4584 9.82 66.3864 9.904 66.3144 9.976C66.2424 10.048 66.1164 10.186 65.9364 10.39C65.7564 10.582 65.5644 10.786 65.3604 11.002C65.2044 11.146 65.0244 11.338 64.8204 11.578C64.6164 11.818 64.4364 12.034 64.2804 12.226C64.1244 12.418 64.0284 12.514 63.9924 12.514C63.7764 12.502 63.5784 12.43 63.3984 12.298C63.2304 12.166 63.1164 12.004 63.0564 11.812C62.9844 11.68 62.9784 11.44 63.0384 11.092C63.0984 10.732 63.2124 10.162 63.3804 9.382C63.4284 9.202 63.4704 9.046 63.5064 8.914C63.5544 8.782 63.6024 8.65 63.6504 8.518C63.6984 8.386 63.7524 8.236 63.8124 8.068C63.8844 7.9 63.9744 7.696 64.0824 7.456C64.1424 7.288 64.1664 7.132 64.1544 6.988C64.1424 6.832 64.1304 6.706 64.1184 6.61C64.1184 6.43 64.1724 6.286 64.2804 6.178C64.4004 6.07 64.5324 5.998 64.6764 5.962C64.8204 5.914 64.9344 5.902 65.0184 5.926C65.3544 5.962 65.5824 6.082 65.7024 6.286C65.8224 6.49 65.8884 6.688 65.9004 6.88C65.9124 7.06 65.8884 7.222 65.8284 7.366C65.7684 7.51 65.7204 7.63 65.6844 7.726L65.4864 8.212C65.3664 8.488 65.2764 8.692 65.2164 8.824C65.1684 8.944 65.1384 9.028 65.1264 9.076C65.1264 9.112 65.1264 9.148 65.1264 9.184C65.1384 9.22 65.1924 9.202 65.2884 9.13C65.3844 9.058 65.4984 8.962 65.6304 8.842C65.7744 8.71 65.9064 8.596 66.0264 8.5C66.2424 8.32 66.4704 8.14 66.7104 7.96C66.9624 7.768 67.2084 7.6 67.4484 7.456C67.6884 7.312 67.8864 7.216 68.0424 7.168C68.2464 7.204 68.4324 7.306 68.6004 7.474C68.7804 7.642 68.8944 7.786 68.9424 7.906C69.0024 8.086 69.0084 8.248 68.9604 8.392C68.9244 8.536 68.8944 8.668 68.8704 8.788C68.8584 8.836 68.8344 8.926 68.7984 9.058C68.7624 9.19 68.7264 9.316 68.6904 9.436C68.6544 9.544 68.6364 9.598 68.6364 9.598C68.6364 9.598 68.6724 9.562 68.7444 9.49C68.8164 9.418 68.9124 9.334 69.0324 9.238C69.1524 9.13 69.2724 9.034 69.3924 8.95C69.9924 8.494 70.4664 8.206 70.8144 8.086C71.1744 7.954 71.4804 8.056 71.7324 8.392C71.8764 8.524 71.9664 8.704 72.0024 8.932C72.0504 9.16 72.0744 9.466 72.0744 9.85C72.0864 10.006 72.0984 10.18 72.1104 10.372C72.1344 10.564 72.1584 10.732 72.1824 10.876C72.2184 11.02 72.2484 11.11 72.2724 11.146C72.3084 11.194 72.3744 11.242 72.4704 11.29C72.5664 11.326 72.6564 11.356 72.7404 11.38C72.9084 11.464 72.9984 11.62 73.0104 11.848C73.0344 12.064 72.9504 12.232 72.7584 12.352C72.5784 12.46 72.3864 12.526 72.1824 12.55C71.9904 12.574 71.7924 12.58 71.5884 12.568ZM76.9224 12.64C76.5624 12.844 76.1784 12.964 75.7704 13C75.3744 13.024 75.0024 12.97 74.6544 12.838C74.3064 12.694 74.0244 12.484 73.8084 12.208C73.6884 12.052 73.5744 11.806 73.4664 11.47C73.3584 11.122 73.3404 10.654 73.4124 10.066C73.4844 9.514 73.6524 8.956 73.9164 8.392C74.1924 7.828 74.5284 7.33 74.9244 6.898C75.3204 6.466 75.7524 6.172 76.2204 6.016C76.3884 5.956 76.5564 5.914 76.7244 5.89C76.9044 5.854 77.1384 5.848 77.4264 5.872C77.7024 5.908 77.9484 5.98 78.1644 6.088C78.3804 6.184 78.5364 6.292 78.6324 6.412C78.8244 6.604 78.9504 6.79 79.0104 6.97C79.0704 7.15 79.0944 7.324 79.0824 7.492C79.0224 7.876 78.8484 8.29 78.5604 8.734C78.2844 9.178 77.8944 9.508 77.3904 9.724C77.1864 9.808 76.9464 9.862 76.6704 9.886C76.3944 9.91 76.0164 9.874 75.5364 9.778C75.2484 9.718 75.0564 9.748 74.9604 9.868C74.8764 9.988 74.8404 10.222 74.8524 10.57C74.8764 10.786 74.9244 10.978 74.9964 11.146C75.0804 11.302 75.2304 11.41 75.4464 11.47C75.7224 11.518 75.9204 11.524 76.0404 11.488C76.1604 11.44 76.3104 11.374 76.4904 11.29C76.5864 11.23 76.6764 11.164 76.7604 11.092C76.8564 11.02 76.9464 10.948 77.0304 10.876C77.1264 10.804 77.2044 10.75 77.2644 10.714C77.3244 10.666 77.3844 10.636 77.4444 10.624C77.5044 10.612 77.5644 10.606 77.6244 10.606C77.7564 10.618 77.8824 10.69 78.0024 10.822C78.1224 10.954 78.2004 11.08 78.2364 11.2C78.2364 11.296 78.1764 11.434 78.0564 11.614C77.9364 11.782 77.7744 11.962 77.5704 12.154C77.3784 12.334 77.1624 12.496 76.9224 12.64ZM76.6884 8.626C76.7724 8.59 76.8924 8.506 77.0484 8.374C77.2164 8.242 77.3664 8.104 77.4984 7.96C77.6304 7.804 77.6964 7.684 77.6964 7.6C77.6964 7.468 77.6064 7.354 77.4264 7.258C77.2584 7.162 77.0364 7.144 76.7604 7.204C76.6644 7.228 76.5504 7.294 76.4184 7.402C76.2864 7.51 76.1544 7.636 76.0224 7.78C75.8904 7.912 75.7764 8.044 75.6804 8.176C75.5844 8.296 75.5184 8.392 75.4824 8.464C75.5304 8.524 75.6264 8.572 75.7704 8.608C75.9144 8.644 76.0704 8.662 76.2384 8.662C76.4184 8.662 76.5684 8.65 76.6884 8.626ZM81.1522 13.108C80.7682 13.108 80.4142 13.024 80.0902 12.856C79.7782 12.676 79.5262 12.46 79.3342 12.208C79.1422 11.944 79.0462 11.692 79.0462 11.452C79.0462 11.344 79.0642 11.266 79.1002 11.218C79.1482 11.17 79.2142 11.146 79.2982 11.146C79.3582 11.158 79.4302 11.188 79.5142 11.236C79.5982 11.284 79.6822 11.338 79.7662 11.398C79.9582 11.53 80.1682 11.614 80.3962 11.65C80.6242 11.686 80.8282 11.674 81.0082 11.614C81.1882 11.542 81.2902 11.434 81.3142 11.29C81.3142 11.242 81.2902 11.14 81.2422 10.984C81.1942 10.828 81.1342 10.678 81.0622 10.534C80.7622 10.09 80.5762 9.67 80.5042 9.274C80.4322 8.866 80.3842 8.458 80.3602 8.05C80.3602 7.882 80.4382 7.696 80.5942 7.492C80.7502 7.276 80.9422 7.066 81.1702 6.862C81.4222 6.646 81.6982 6.442 81.9982 6.25C82.3102 6.058 82.6162 5.896 82.9162 5.764C83.2162 5.632 83.4682 5.554 83.6722 5.53C83.8882 5.53 84.1162 5.542 84.3562 5.566C84.6082 5.578 84.7762 5.62 84.8602 5.692C85.0282 5.824 85.1842 6.04 85.3282 6.34C85.4722 6.64 85.5442 6.892 85.5442 7.096C85.5442 7.192 85.4902 7.312 85.3822 7.456C85.2862 7.588 85.1962 7.738 85.1122 7.906C85.0642 7.99 85.0222 8.08 84.9862 8.176C84.9502 8.272 84.9082 8.368 84.8602 8.464C84.7882 8.632 84.6562 8.704 84.4642 8.68C84.2842 8.644 84.1162 8.548 83.9602 8.392C83.8042 8.224 83.7262 8.032 83.7262 7.816C83.7262 7.636 83.7802 7.48 83.8882 7.348C83.9962 7.216 84.0502 7.126 84.0502 7.078C84.0502 7.054 84.0382 7.036 84.0142 7.024C83.9902 7.012 83.9482 7.006 83.8882 7.006C83.8042 7.006 83.6662 7.042 83.4742 7.114C83.2942 7.174 83.1022 7.264 82.8982 7.384C82.6942 7.504 82.5082 7.648 82.3402 7.816C82.2202 7.948 82.1182 8.092 82.0342 8.248C81.9622 8.392 81.9262 8.548 81.9262 8.716C81.9262 8.884 81.9562 9.082 82.0162 9.31C82.0882 9.526 82.1662 9.706 82.2502 9.85C82.2742 9.874 82.3102 9.94 82.3582 10.048C82.4182 10.144 82.4842 10.264 82.5562 10.408C83.0002 11.32 83.0722 11.998 82.7722 12.442C82.4842 12.886 81.9442 13.108 81.1522 13.108ZM87.5711 13.324C86.9111 13.324 86.4011 13.132 86.0411 12.748C85.6931 12.364 85.5191 11.776 85.5191 10.984C85.5191 10.552 85.5971 10.078 85.7531 9.562C85.9211 9.046 86.1371 8.542 86.4011 8.05C86.6771 7.558 86.9771 7.132 87.3011 6.772C87.6251 6.4 87.9491 6.142 88.2731 5.998C88.3931 5.938 88.5191 5.896 88.6511 5.872C88.7951 5.836 88.9331 5.818 89.0651 5.818C89.2091 5.818 89.3651 5.83 89.5331 5.854C89.7131 5.866 89.8811 5.902 90.0371 5.962C90.3131 6.046 90.5531 6.208 90.7571 6.448C90.9731 6.688 91.0811 7.036 91.0811 7.492C91.0811 7.612 91.0691 7.744 91.0451 7.888C91.0211 8.02 90.9791 8.152 90.9191 8.284C90.7631 8.68 90.5231 9.058 90.1991 9.418C89.8871 9.778 89.5571 10.03 89.2091 10.174C89.1131 10.222 89.0171 10.258 88.9211 10.282C88.8371 10.294 88.7471 10.3 88.6511 10.3C88.3991 10.3 88.1711 10.264 87.9671 10.192C87.7751 10.12 87.5951 10.024 87.4271 9.904L87.2831 9.778L87.1931 9.958C87.1091 10.186 87.0491 10.378 87.0131 10.534C86.9891 10.69 86.9771 10.804 86.9771 10.876C86.9771 11.02 86.9831 11.17 86.9951 11.326C87.0071 11.47 87.0431 11.59 87.1031 11.686C87.1511 11.746 87.2111 11.794 87.2831 11.83C87.3671 11.866 87.4691 11.884 87.5891 11.884C87.6611 11.884 87.7271 11.884 87.7871 11.884C87.8591 11.872 87.9191 11.86 87.9671 11.848C88.1831 11.8 88.3571 11.722 88.4891 11.614C88.6331 11.494 88.7831 11.392 88.9391 11.308L89.0111 11.272L88.9931 11.218C89.1971 11.11 89.3351 11.044 89.4071 11.02C89.4791 10.984 89.5331 10.954 89.5691 10.93C89.6171 10.882 89.6711 10.858 89.7311 10.858C89.8991 10.834 90.0611 10.882 90.2171 11.002C90.3851 11.11 90.4691 11.248 90.4691 11.416C90.4691 11.488 90.4151 11.602 90.3071 11.758C90.2111 11.914 90.0851 12.07 89.9291 12.226C89.7851 12.37 89.6351 12.484 89.4791 12.568C89.4431 12.58 89.4071 12.598 89.3711 12.622C89.3351 12.634 89.2991 12.652 89.2631 12.676H89.2811C89.1731 12.82 89.0651 12.892 88.9571 12.892H88.8131C88.7651 12.976 88.6091 13.066 88.3451 13.162C88.0811 13.27 87.8231 13.324 87.5711 13.324ZM88.5071 8.986C88.6151 8.986 88.7111 8.968 88.7951 8.932C88.8911 8.896 88.9811 8.854 89.0651 8.806C89.3531 8.602 89.5391 8.338 89.6231 8.014C89.7071 7.69 89.6771 7.444 89.5331 7.276C89.5091 7.24 89.4791 7.216 89.4431 7.204C89.4071 7.18 89.3651 7.168 89.3171 7.168C89.1851 7.168 89.0351 7.21 88.8671 7.294C88.7111 7.378 88.5551 7.498 88.3991 7.654C88.2431 7.81 88.0991 7.996 87.9671 8.212L87.7331 8.59C87.7571 8.578 87.7751 8.572 87.7871 8.572C87.8111 8.56 87.8291 8.554 87.8411 8.554C87.9491 8.554 88.0211 8.59 88.0571 8.662C88.0931 8.734 88.1351 8.806 88.1831 8.878C88.2431 8.95 88.3511 8.986 88.5071 8.986ZM93.5468 13.126C92.9108 13.126 92.4428 12.922 92.1428 12.514C92.0588 12.322 92.0168 12.13 92.0168 11.938C92.0288 11.734 92.0768 11.59 92.1608 11.506C92.2448 11.41 92.3468 11.428 92.4668 11.56C92.6228 11.656 92.8448 11.704 93.1328 11.704C93.2768 11.704 93.4028 11.704 93.5108 11.704C93.6308 11.692 93.7688 11.68 93.9248 11.668C94.2008 11.644 94.3748 11.56 94.4468 11.416C94.5308 11.272 94.5128 11.152 94.3928 11.056H94.4108C94.0868 10.972 93.7688 10.852 93.4568 10.696C93.1448 10.54 92.8808 10.366 92.6648 10.174C92.4488 9.97 92.3228 9.778 92.2868 9.598C92.1908 9.202 92.2148 8.794 92.3588 8.374C92.5028 7.954 92.7128 7.588 92.9888 7.276C93.0968 7.204 93.2468 7.102 93.4388 6.97C93.6308 6.826 93.7688 6.748 93.8528 6.736V6.754C94.0808 6.514 94.3388 6.322 94.6268 6.178C94.9148 6.022 95.2508 5.878 95.6348 5.746L95.9228 5.71C96.0668 5.686 96.1928 5.674 96.3008 5.674C96.2888 5.674 96.3188 5.686 96.3908 5.71C96.4628 5.734 96.5228 5.752 96.5708 5.764C96.6428 5.8 96.7148 5.818 96.7868 5.818C96.9548 5.842 97.1168 5.932 97.2728 6.088C97.4408 6.232 97.5728 6.406 97.6688 6.61C97.7768 6.802 97.8188 6.982 97.7948 7.15C97.7588 7.426 97.6568 7.702 97.4888 7.978C97.3208 8.242 97.1408 8.392 96.9488 8.428C96.9728 8.416 96.9488 8.392 96.8768 8.356C96.8048 8.32 96.7388 8.284 96.6788 8.248L96.6068 8.284C96.6068 8.284 96.6008 8.266 96.5888 8.23C96.5888 8.194 96.5768 8.152 96.5528 8.104C96.5048 8.02 96.4688 7.93 96.4448 7.834C96.4328 7.738 96.4328 7.63 96.4448 7.51C96.4688 7.378 96.4748 7.3 96.4628 7.276C96.4508 7.252 96.3788 7.234 96.2468 7.222C96.0908 7.186 95.8928 7.204 95.6528 7.276C95.4128 7.336 95.1908 7.444 94.9868 7.6C94.7468 7.756 94.5668 7.882 94.4468 7.978C94.3388 8.074 94.2548 8.17 94.1948 8.266C94.1348 8.35 94.0688 8.476 93.9968 8.644C93.9488 8.728 93.9068 8.806 93.8708 8.878C93.8348 8.938 93.8168 8.998 93.8168 9.058C93.8168 9.178 93.9188 9.304 94.1228 9.436C94.3268 9.556 94.6328 9.7 95.0408 9.868C95.3648 10 95.5748 10.18 95.6708 10.408C95.7788 10.636 95.8748 10.852 95.9588 11.056C95.9828 11.104 96.0068 11.194 96.0308 11.326C96.0668 11.446 96.0728 11.518 96.0488 11.542C96.0728 11.566 96.0848 11.59 96.0848 11.614V11.596C96.1808 11.776 96.1628 11.968 96.0308 12.172C95.9108 12.364 95.7188 12.544 95.4548 12.712C95.1908 12.868 94.8908 12.982 94.5548 13.054H94.5728C94.3928 13.078 94.2128 13.096 94.0328 13.108C93.8648 13.12 93.7028 13.126 93.5468 13.126Z" fill="#5158F6"/>
</svg>
