<svg width="82" height="15" viewBox="0 0 82 15" fill="none" xmlns="http://www.w3.org/2000/svg">
<path d="M0.378274 13.0681C0.162273 12.9481 0.0422735 12.8161 0.0182735 12.6721C0.00627348 12.5281 0.0902735 12.2761 0.270273 11.9161C0.450273 11.5561 0.732273 10.9981 1.11627 10.2421C1.40427 9.70212 1.59627 9.28212 1.69227 8.98212C1.80027 8.67012 1.86027 8.44812 1.87227 8.31612C1.88427 8.18412 1.89027 8.10012 1.89027 8.06412C1.86627 7.95612 1.87827 7.87212 1.92627 7.81212C1.97427 7.74012 2.05227 7.68012 2.16027 7.63212C2.22027 7.57212 2.35827 7.46412 2.57427 7.30812C2.79027 7.15212 2.95827 6.96612 3.07827 6.75012C3.18627 6.49812 3.30627 6.24012 3.43827 5.97612C3.58227 5.71212 3.76827 5.38212 3.99627 4.98612C4.22427 4.57812 4.53027 4.05012 4.91427 3.40212C5.15427 2.98212 5.43627 2.50812 5.76027 1.98012C6.09627 1.45212 6.42627 0.97212 6.75027 0.54012C6.88227 0.37212 7.02027 0.24012 7.16427 0.14412C7.30827 0.0481205 7.43427 0.000120759 7.54227 0.000120759C7.80627 0.000120759 8.07027 0.0721205 8.33427 0.21612C8.59827 0.348121 8.83227 0.516121 9.03627 0.72012C9.24027 0.92412 9.37827 1.11612 9.45027 1.29612C9.51027 1.39212 9.53427 1.59612 9.52227 1.90812C9.51027 2.22012 9.48627 2.59812 9.45027 3.04212C9.41427 3.48612 9.37227 3.96012 9.32427 4.46412C9.28827 4.95612 9.23427 5.53812 9.16227 6.21012C9.09027 6.88212 9.01827 7.58412 8.94627 8.31612C8.88627 9.04812 8.83827 9.75612 8.80227 10.4401C8.76627 11.1121 8.76627 11.7001 8.80227 12.2041C8.81427 12.3121 8.81427 12.4141 8.80227 12.5101C8.79027 12.6061 8.78427 12.6841 8.78427 12.7441C8.71227 12.8161 8.55627 12.8461 8.31627 12.8341C8.07627 12.8341 7.84227 12.7981 7.61427 12.7261C7.38627 12.6541 7.26027 12.5641 7.23627 12.4561C7.20027 12.4201 7.17627 12.3901 7.16427 12.3661C7.15227 12.3421 7.15227 12.2281 7.16427 12.0241C7.17627 11.8081 7.19427 11.4181 7.21827 10.8541L7.30827 8.10012L7.07427 8.11812C6.96627 8.11812 6.76827 8.13012 6.48027 8.15412C6.20427 8.17812 5.89827 8.21412 5.56227 8.26212C5.23827 8.29812 4.93827 8.34012 4.66227 8.38812C4.38627 8.42412 4.19427 8.46012 4.08627 8.49612C3.97827 8.49612 3.84627 8.56812 3.69027 8.71212C3.54627 8.85612 3.40827 9.04212 3.27627 9.27012C3.22827 9.43812 3.13827 9.61812 3.00627 9.81012C2.88627 9.99012 2.82627 10.1101 2.82627 10.1701C2.74227 10.2301 2.67027 10.3021 2.61027 10.3861C2.56227 10.4701 2.53827 10.5121 2.53827 10.5121C2.53827 10.5841 2.48427 10.7641 2.37627 11.0521C2.26827 11.3281 2.13627 11.6401 1.98027 11.9881C1.82427 12.3241 1.66227 12.6181 1.49427 12.8701L1.00827 13.5541L0.378274 13.0681ZM4.68027 6.87612C4.68027 6.87612 4.74627 6.86412 4.87827 6.84012C5.01027 6.81612 5.16627 6.79212 5.34627 6.76812C5.53827 6.73212 5.70627 6.71412 5.85027 6.71412C6.12627 6.64212 6.35427 6.58812 6.53427 6.55212C6.72627 6.51612 6.88227 6.49812 7.00227 6.49812C7.12227 6.48612 7.21827 6.49812 7.29027 6.53412C7.33827 6.59412 7.38027 6.63012 7.41627 6.64212C7.46427 6.65412 7.48827 6.66012 7.48827 6.66012C7.50027 6.63612 7.52427 6.51012 7.56027 6.28212C7.59627 6.05412 7.63827 5.77212 7.68627 5.43612C7.73427 5.10012 7.78227 4.75212 7.83027 4.39212C7.87827 4.02012 7.92027 3.67812 7.95627 3.36612C7.99227 3.04212 8.01627 2.79012 8.02827 2.61012C8.04027 2.38212 8.03427 2.17812 8.01027 1.99812C7.98627 1.80612 7.97427 1.71012 7.97427 1.71012C7.90227 1.71012 7.76427 1.84212 7.56027 2.10612C7.36827 2.35812 7.14027 2.70012 6.87627 3.13212C6.62427 3.55212 6.37227 4.00812 6.12027 4.50012C6.00027 4.72812 5.88627 4.90812 5.77827 5.04012C5.68227 5.17212 5.60427 5.23812 5.54427 5.23812C5.52027 5.26212 5.45427 5.35812 5.34627 5.52612C5.25027 5.68212 5.14227 5.86212 5.02227 6.06612C4.91427 6.25812 4.81827 6.43812 4.73427 6.60612C4.66227 6.76212 4.64427 6.85212 4.68027 6.87612ZM10.9756 11.7901C10.8916 11.8021 10.7956 11.7721 10.6876 11.7001C10.5916 11.6161 10.5016 11.5441 10.4176 11.4841C10.2976 11.3401 10.2136 11.2141 10.1656 11.1061C10.1176 10.9981 10.0936 10.8781 10.0936 10.7461C10.0936 10.6141 10.1056 10.4581 10.1296 10.2781C10.1896 10.0861 10.2616 9.82812 10.3456 9.50412C10.4296 9.18012 10.5316 8.83212 10.6516 8.46012C10.6756 8.31612 10.7176 8.14812 10.7776 7.95612C10.8496 7.75212 10.9216 7.56012 10.9936 7.38012C11.0656 7.18812 11.1196 7.04412 11.1556 6.94812C11.2396 6.64812 11.3236 6.36012 11.4076 6.08412C11.5036 5.80812 11.6176 5.49012 11.7496 5.13012C11.8816 4.77012 12.0436 4.31412 12.2356 3.76212C12.4996 3.04212 12.6976 2.50212 12.8296 2.14212C12.9616 1.78212 13.0576 1.52412 13.1176 1.36812C13.1776 1.21212 13.2196 1.08612 13.2436 0.990121C13.2436 0.894121 13.3096 0.80412 13.4416 0.72012C13.5856 0.624121 13.7116 0.576121 13.8196 0.576121C13.9876 0.588121 14.1496 0.69012 14.3056 0.88212C14.4616 1.06212 14.5696 1.28412 14.6296 1.54812C14.6896 1.80012 14.6476 2.04612 14.5036 2.28612C14.3116 2.71812 14.1196 3.20412 13.9276 3.74412C13.7476 4.27212 13.5676 4.80012 13.3876 5.32812C13.2076 5.85612 13.0276 6.34212 12.8476 6.78612C12.8356 6.84612 12.7936 6.94812 12.7216 7.09212C12.6616 7.23612 12.6076 7.35612 12.5596 7.45212C12.5116 7.54812 12.4636 7.63812 12.4156 7.72212C12.3796 7.80612 12.3616 7.84812 12.3616 7.84812C12.3496 7.92012 12.3256 8.02212 12.2896 8.15412C12.2536 8.28612 12.2176 8.40012 12.1816 8.49612C12.1696 8.55612 12.1516 8.63412 12.1276 8.73012C12.1036 8.82612 12.0856 8.92212 12.0736 9.01812C12.1336 8.94612 12.2176 8.86212 12.3256 8.76612C12.4336 8.65812 12.5716 8.52612 12.7396 8.37012C12.9316 8.20212 13.0996 8.05812 13.2436 7.93812C13.3876 7.81812 13.5316 7.71012 13.6756 7.61412C13.8076 7.51812 13.9276 7.42812 14.0356 7.34412C14.1556 7.26012 14.2156 7.21812 14.2156 7.21812C14.2396 7.18212 14.2636 7.14012 14.2876 7.09212C14.3236 7.04412 14.3596 7.01412 14.3956 7.00212C14.4196 6.97812 14.4616 6.94812 14.5216 6.91212C14.5816 6.86412 14.6416 6.81612 14.7016 6.76812C14.8096 6.69612 14.9236 6.63612 15.0436 6.58812C15.1636 6.54012 15.2896 6.50412 15.4216 6.48012C15.5536 6.45612 15.6796 6.44412 15.7996 6.44412C15.9436 6.44412 16.0936 6.50412 16.2496 6.62412C16.4056 6.73212 16.5496 6.88812 16.6816 7.09212C16.8016 7.24812 16.8736 7.43412 16.8976 7.65012C16.9336 7.85412 16.9396 8.13012 16.9156 8.47812C16.9156 8.57412 16.8856 8.75412 16.8256 9.01812C16.7776 9.28212 16.7416 9.48012 16.7176 9.61212L16.5556 10.2241H16.6996C16.8316 10.1761 16.9576 10.1701 17.0776 10.2061C17.2096 10.2421 17.2756 10.2601 17.2756 10.2601C17.3356 10.2961 17.3896 10.3381 17.4376 10.3861C17.4976 10.4341 17.5516 10.4701 17.5996 10.4941C17.6716 10.5901 17.6596 10.7281 17.5636 10.9081C17.4676 11.0881 17.3596 11.2141 17.2396 11.2861C16.9516 11.4781 16.6936 11.5981 16.4656 11.6461C16.2496 11.6941 16.0216 11.6521 15.7816 11.5201C15.5536 11.3641 15.3976 11.1781 15.3136 10.9621C15.2416 10.7461 15.2116 10.4521 15.2236 10.0801C15.2716 9.55212 15.3016 9.17412 15.3136 8.94612C15.3256 8.70612 15.2656 8.58612 15.1336 8.58612C14.9896 8.58612 14.7916 8.65812 14.5396 8.80212C14.2996 8.93412 14.0296 9.12012 13.7296 9.36012C13.4296 9.58812 13.1296 9.84612 12.8296 10.1341C12.5416 10.4101 12.2836 10.6921 12.0556 10.9801C11.9116 11.1601 11.7556 11.3401 11.5876 11.5201C11.4196 11.6881 11.2156 11.7781 10.9756 11.7901ZM20.0054 12.3481C19.8494 12.3481 19.7234 12.3181 19.6274 12.2581C19.5434 12.1981 19.4354 12.1141 19.3034 12.0061C19.0754 11.7661 18.8894 11.5081 18.7454 11.2321C18.6134 10.9561 18.5654 10.7161 18.6014 10.5121C18.6374 10.4161 18.6494 10.3261 18.6374 10.2421C18.6374 10.1461 18.6374 10.0981 18.6374 10.0981C18.5774 10.0381 18.5594 10.0021 18.5834 9.99012C18.6074 9.96612 18.6314 9.93012 18.6554 9.88212C18.7274 9.88212 18.7514 9.81612 18.7274 9.68412C18.7034 9.58812 18.7394 9.38412 18.8354 9.07212C18.9434 8.74812 19.0874 8.44212 19.2674 8.15412C19.3394 8.03412 19.4474 7.87812 19.5914 7.68612C19.7354 7.48212 19.8914 7.28412 20.0594 7.09212C20.2394 6.88812 20.4014 6.72612 20.5454 6.60612C20.8454 6.35412 21.1214 6.15012 21.3734 5.99412C21.6374 5.83812 21.9014 5.73012 22.1654 5.67012C22.4294 5.61012 22.6994 5.58012 22.9754 5.58012C23.2634 5.58012 23.4974 5.67612 23.6774 5.86812C23.9534 5.98812 24.1454 6.15012 24.2534 6.35412C24.3734 6.55812 24.4514 6.82212 24.4874 7.14612C24.5234 7.50612 24.4874 7.95012 24.3794 8.47812C24.2714 8.99412 23.9774 9.59412 23.4974 10.2781C23.1974 10.7101 22.9034 11.0461 22.6154 11.2861C22.3274 11.5261 22.0094 11.7481 21.6614 11.9521C21.4094 12.1201 21.1394 12.2221 20.8514 12.2581C20.5634 12.2941 20.2814 12.3241 20.0054 12.3481ZM21.8414 10.1521C22.1054 9.92412 22.2914 9.67212 22.3994 9.39612C22.5194 9.12012 22.6454 8.79612 22.7774 8.42412C22.8254 8.35212 22.8554 8.23212 22.8674 8.06412C22.8914 7.89612 22.8974 7.73412 22.8854 7.57812C22.8734 7.41012 22.8314 7.31412 22.7594 7.29012C22.6514 7.20612 22.5434 7.18812 22.4354 7.23612C22.3274 7.27212 22.1894 7.35012 22.0214 7.47012C21.6614 7.77012 21.3254 8.11812 21.0134 8.51412C20.7134 8.89812 20.5034 9.37212 20.3834 9.93612C20.3474 10.2361 20.3774 10.4641 20.4734 10.6201C20.5814 10.7641 20.7494 10.8061 20.9774 10.7461C21.2174 10.6741 21.5054 10.4761 21.8414 10.1521ZM26.7429 12.0961C26.7069 12.1081 26.6289 12.1021 26.5089 12.0781C26.4009 12.0541 26.2869 12.0241 26.1669 11.9881C26.0589 11.9521 25.9929 11.9221 25.9689 11.8981C25.9209 11.8501 25.8549 11.7661 25.7709 11.6461C25.6869 11.5141 25.6389 11.3401 25.6269 11.1241C25.6269 10.9081 25.7289 10.6501 25.9329 10.3501C25.9929 10.2301 26.0649 10.0501 26.1489 9.81012C26.2329 9.57012 26.3169 9.31812 26.4009 9.05412C26.4969 8.77812 26.5809 8.53212 26.6529 8.31612C26.7369 8.10012 26.7969 7.95012 26.8329 7.86612C26.8569 7.66212 26.8449 7.51812 26.7969 7.43412C26.7609 7.33812 26.6589 7.28412 26.4909 7.27212C26.3709 7.27212 26.2749 7.23012 26.2029 7.14612C26.1429 7.06212 26.1129 6.91212 26.1129 6.69612C26.1369 6.52812 26.1789 6.38412 26.2389 6.26412C26.3109 6.13212 26.4069 6.02412 26.5269 5.94012C26.6469 5.88012 26.7969 5.83812 26.9769 5.81412C27.1689 5.79012 27.3549 5.78412 27.5349 5.79612C27.7149 5.80812 27.8409 5.85012 27.9129 5.92212C27.9969 5.97012 28.0629 6.07812 28.1109 6.24612C28.1709 6.40212 28.2189 6.56412 28.2549 6.73212C28.2909 6.90012 28.3149 7.02612 28.3269 7.11012C28.4469 7.01412 28.5789 6.88212 28.7229 6.71412C28.8789 6.53412 29.0349 6.36612 29.1909 6.21012C29.3829 6.07812 29.6109 5.94612 29.8749 5.81412C30.1389 5.67012 30.3309 5.59812 30.4509 5.59812C30.5829 5.59812 30.7449 5.66412 30.9369 5.79612C31.1289 5.91612 31.2489 6.02412 31.2969 6.12012C31.4169 6.32412 31.5009 6.54012 31.5489 6.76812C31.6089 6.98412 31.5729 7.17612 31.4409 7.34412C31.3209 7.50012 31.1529 7.65612 30.9369 7.81212C30.7209 7.95612 30.4509 7.99812 30.1269 7.93812C30.0549 7.91412 29.9769 7.82412 29.8929 7.66812C29.8209 7.51212 29.7789 7.39812 29.7669 7.32612C29.7669 7.29012 29.7129 7.32612 29.6049 7.43412C29.5089 7.53012 29.3889 7.65012 29.2449 7.79412C29.1129 7.93812 28.9869 8.07012 28.8669 8.19012C28.6629 8.44212 28.4469 8.78412 28.2189 9.21612C27.9909 9.64812 27.7209 10.1701 27.4089 10.7821C27.2649 11.0821 27.1449 11.3701 27.0489 11.6461C26.9529 11.9101 26.8509 12.0601 26.7429 12.0961ZM32.3293 12.2041C32.2453 12.2041 32.1313 12.1441 31.9873 12.0241C31.8553 11.9041 31.7773 11.7961 31.7533 11.7001C31.7173 11.6041 31.7173 11.4661 31.7533 11.2861C31.8013 11.0941 31.8673 10.8721 31.9513 10.6201C32.0473 10.2241 32.1133 9.93612 32.1493 9.75612C32.1853 9.57612 32.2213 9.42012 32.2573 9.28812C32.2933 9.15612 32.3413 8.96412 32.4013 8.71212C32.4733 8.55612 32.5273 8.40612 32.5633 8.26212C32.6113 8.10612 32.6593 7.95012 32.7073 7.79412C32.7673 7.63812 32.8333 7.48212 32.9053 7.32612C32.9893 7.01412 33.0913 6.72012 33.2113 6.44412C33.3433 6.15612 33.4693 5.91612 33.5893 5.72412C33.6133 5.68812 33.6673 5.62212 33.7513 5.52612C33.8353 5.43012 33.9013 5.38212 33.9493 5.38212C34.0453 5.28612 34.1773 5.25612 34.3453 5.29212C34.5133 5.31612 34.6573 5.37612 34.7773 5.47212C34.9213 5.62812 34.9993 5.81412 35.0113 6.03012C35.0353 6.23412 34.9513 6.52212 34.7593 6.89412C34.6153 7.26612 34.4773 7.56012 34.3453 7.77612C34.2253 7.98012 34.1053 8.22012 33.9853 8.49612C34.1173 8.30412 34.2793 8.10612 34.4713 7.90212C34.6633 7.69812 34.8133 7.53612 34.9213 7.41612C35.0773 7.24812 35.2213 7.11612 35.3533 7.02012C35.4973 6.91212 35.6893 6.78012 35.9293 6.62412C36.1333 6.48012 36.3373 6.34812 36.5413 6.22812C36.7573 6.10812 37.0153 6.07212 37.3153 6.12012C37.4353 6.10812 37.5613 6.16812 37.6933 6.30012C37.8373 6.43212 37.9453 6.60612 38.0173 6.82212C38.1013 7.02612 38.1013 7.24812 38.0173 7.48812C37.7413 7.42812 37.4953 7.44012 37.2793 7.52412C37.0633 7.59612 36.8773 7.68612 36.7213 7.79412C36.5773 7.90212 36.4633 7.98612 36.3793 8.04612C36.2593 8.11812 36.1213 8.21412 35.9653 8.33412C35.8093 8.44212 35.6413 8.56812 35.4613 8.71212C35.2813 8.84412 35.0893 8.99412 34.8853 9.16212C34.5973 9.40212 34.3813 9.61212 34.2373 9.79212C34.0933 9.97212 33.9793 10.1641 33.8953 10.3681C33.8233 10.5481 33.7333 10.7641 33.6253 11.0161C33.5173 11.2681 33.4153 11.4961 33.3193 11.7001C33.2233 11.8921 33.1453 12.0121 33.0853 12.0601C33.0253 12.1801 32.8993 12.2461 32.7073 12.2581C32.5273 12.2701 32.4013 12.2521 32.3293 12.2041ZM39.8776 12.2221C39.7816 12.2461 39.6556 12.2581 39.4996 12.2581C39.3436 12.2461 39.2056 12.2281 39.0856 12.2041C38.9776 12.1681 38.9236 12.1321 38.9236 12.0961C38.9236 12.0361 38.8936 12.0061 38.8336 12.0061C38.8336 12.0061 38.7676 11.9581 38.6356 11.8621C38.5036 11.7541 38.3836 11.6761 38.2756 11.6281C38.1676 11.4601 38.0956 11.2681 38.0596 11.0521C38.0356 10.8241 38.1076 10.4281 38.2756 9.86412C38.2876 9.48012 38.3956 9.07812 38.5996 8.65812C38.8036 8.22612 39.0616 7.80612 39.3736 7.39812C39.6856 6.99012 40.0096 6.63012 40.3456 6.31812C40.6816 5.99412 40.9816 5.75412 41.2456 5.59812C41.4136 5.43012 41.6356 5.34012 41.9116 5.32812C42.1996 5.31612 42.4516 5.37012 42.6676 5.49012C42.7876 5.55012 42.9196 5.67012 43.0636 5.85012C43.2076 6.03012 43.3456 6.22212 43.4776 6.42612C43.6096 6.61812 43.7116 6.79212 43.7836 6.94812C43.8196 7.08012 43.8496 7.20012 43.8736 7.30812C43.9096 7.40412 43.9336 7.52412 43.9456 7.66812C43.9576 7.81212 43.9456 8.02812 43.9096 8.31612C43.8496 8.53212 43.7956 8.75412 43.7476 8.98212C43.7116 9.19812 43.6936 9.42012 43.6936 9.64812C43.6696 9.87612 43.6936 10.0381 43.7656 10.1341C43.8496 10.2301 43.9696 10.2361 44.1256 10.1521C44.2696 10.0801 44.4196 10.0741 44.5756 10.1341C44.7316 10.1821 44.8396 10.2781 44.8996 10.4221C44.9716 10.5541 44.9536 10.7281 44.8456 10.9441C44.7736 11.1001 44.6596 11.2501 44.5036 11.3941C44.3476 11.5381 44.1736 11.6581 43.9816 11.7541C43.7896 11.8381 43.6036 11.8801 43.4236 11.8801C43.2916 11.8801 43.1596 11.8321 43.0276 11.7361C42.8956 11.6281 42.7756 11.4841 42.6676 11.3041C42.5596 11.1241 42.4696 10.9261 42.3976 10.7101L42.2896 10.2961L41.6416 10.8901C41.4856 11.0581 41.3296 11.2141 41.1736 11.3581C41.0296 11.4901 40.9396 11.5861 40.9036 11.6461C40.8436 11.7541 40.7236 11.8501 40.5436 11.9341C40.3756 12.0181 40.1536 12.1141 39.8776 12.2221ZM40.3636 10.4941C40.5676 10.3741 40.7416 10.2301 40.8856 10.0621C41.0416 9.89412 41.1916 9.70812 41.3356 9.50412C41.4796 9.28812 41.6356 9.06012 41.8036 8.82012C42.0076 8.54412 42.1516 8.32212 42.2356 8.15412C42.3316 7.98612 42.4036 7.80612 42.4516 7.61412C42.4036 7.48212 42.3376 7.34412 42.2536 7.20012C42.1696 7.04412 42.0856 6.96012 42.0016 6.94812C41.8336 6.94812 41.6296 7.05012 41.3896 7.25412C41.1616 7.45812 40.9096 7.75212 40.6336 8.13612C40.5856 8.19612 40.5256 8.29212 40.4536 8.42412C40.3816 8.55612 40.3096 8.68212 40.2376 8.80212C40.1776 8.91012 40.1356 8.98212 40.1116 9.01812C40.0756 9.06612 40.0216 9.18012 39.9496 9.36012C39.8896 9.52812 39.8356 9.70212 39.7876 9.88212C39.7396 10.0501 39.7156 10.1701 39.7156 10.2421C39.7156 10.3141 39.7216 10.3921 39.7336 10.4761C39.7576 10.5601 39.8176 10.6141 39.9136 10.6381C40.0096 10.6621 40.1596 10.6141 40.3636 10.4941ZM51.1338 12.3301C51.0858 12.3061 51.0018 12.2401 50.8818 12.1321C50.7738 12.0241 50.6658 11.9041 50.5578 11.7721C50.4498 11.6281 50.3778 11.5201 50.3418 11.4481C50.3058 11.3881 50.3058 11.2801 50.3418 11.1241C50.3898 10.9681 50.4378 10.8901 50.4858 10.8901C50.5218 10.9141 50.5698 10.8721 50.6298 10.7641C50.6898 10.6561 50.7498 10.5421 50.8098 10.4221C50.8698 10.2901 50.8998 10.2121 50.8998 10.1881C50.9118 10.1401 50.9418 10.1041 50.9898 10.0801C51.0498 10.0441 51.1038 10.0081 51.1518 9.97212C51.2118 9.87612 51.2898 9.78012 51.3858 9.68412C51.4938 9.57612 51.5778 9.48612 51.6378 9.41412C51.7338 9.29412 51.9078 9.11412 52.1598 8.87412C52.4118 8.63412 52.6578 8.38812 52.8978 8.13612C53.1498 7.86012 53.3718 7.62012 53.5638 7.41612C53.7558 7.20012 53.8578 7.05012 53.8698 6.96612C53.8698 6.96612 53.8878 6.94812 53.9238 6.91212C53.9718 6.86412 54.0258 6.82212 54.0858 6.78612C54.1458 6.75012 54.2238 6.69012 54.3198 6.60612C54.4278 6.52212 54.5178 6.44412 54.5898 6.37212C54.6138 6.27612 54.6678 6.16812 54.7518 6.04812C54.8478 5.91612 54.9558 5.79012 55.0758 5.67012C55.1718 5.52612 55.2618 5.37012 55.3458 5.20212C55.4298 5.02212 55.4838 4.89012 55.5078 4.80612C55.5438 4.67412 55.5318 4.59612 55.4718 4.57212C55.4118 4.53612 55.2498 4.47612 54.9858 4.39212C54.6978 4.29612 54.4278 4.27812 54.1758 4.33812C53.9238 4.39812 53.5878 4.57812 53.1678 4.87812C52.9998 4.91412 52.8438 4.96212 52.6998 5.02212C52.5678 5.08212 52.4538 5.10612 52.3578 5.09412C52.3098 5.07012 52.2558 5.01612 52.1958 4.93212C52.1358 4.84812 52.0698 4.77012 51.9978 4.69812L51.8178 3.92412L52.3758 3.61812C52.8678 3.30612 53.3358 3.07212 53.7798 2.91612C54.2358 2.74812 54.6318 2.71812 54.9678 2.82612C55.0998 2.82612 55.2198 2.84412 55.3278 2.88012C55.4358 2.90412 55.4898 2.91612 55.4898 2.91612C55.5858 2.90412 55.7238 2.95212 55.9038 3.06012C56.0958 3.16812 56.2818 3.30612 56.4618 3.47412C56.6538 3.64212 56.7858 3.81012 56.8578 3.97812C57.0498 4.26612 57.1218 4.61412 57.0738 5.02212C57.0258 5.43012 56.8518 5.85612 56.5518 6.30012C56.4918 6.37212 56.3598 6.52212 56.1558 6.75012C55.9518 6.97812 55.7178 7.23612 55.4538 7.52412C55.2018 7.80012 54.9678 8.04612 54.7518 8.26212C54.5478 8.47812 54.4158 8.61612 54.3558 8.67612C54.2718 8.71212 54.1278 8.82612 53.9238 9.01812C53.7318 9.21012 53.5218 9.42612 53.2938 9.66612C53.0778 9.89412 52.8918 10.0981 52.7358 10.2781C52.5918 10.4461 52.5318 10.5301 52.5558 10.5301C52.5438 10.5781 52.6038 10.5781 52.7358 10.5301C52.8798 10.4701 53.0058 10.4221 53.1138 10.3861C53.2938 10.3261 53.5038 10.2721 53.7438 10.2241C53.9958 10.1641 54.2478 10.1161 54.4998 10.0801C54.7518 10.0441 54.9678 10.0201 55.1478 10.0081C55.3398 9.99612 55.4538 10.0081 55.4898 10.0441C55.5138 10.1041 55.5318 10.1281 55.5438 10.1161C55.5678 10.0921 55.5798 10.0801 55.5798 10.0801C55.6038 9.99612 55.7538 9.97212 56.0298 10.0081C56.3178 10.0441 56.5758 10.0981 56.8038 10.1701C56.9358 10.2061 57.0378 10.2541 57.1098 10.3141C57.1938 10.3741 57.2358 10.4281 57.2358 10.4761C57.2358 10.4761 57.2478 10.5061 57.2718 10.5661C57.3078 10.6141 57.3618 10.6801 57.4338 10.7641C57.6258 10.9201 57.6258 11.0881 57.4338 11.2681C57.2538 11.4481 56.9238 11.4961 56.4438 11.4121C56.1318 11.4121 55.8738 11.4301 55.6698 11.4661C55.6218 11.4901 55.5198 11.5021 55.3638 11.5021C55.2078 11.5021 55.0578 11.5081 54.9138 11.5201C54.6978 11.4961 54.4818 11.5081 54.2658 11.5561C54.0498 11.5921 53.7918 11.6581 53.4918 11.7541C53.3838 11.7901 53.2158 11.8441 52.9878 11.9161C52.7598 11.9881 52.5138 12.0601 52.2498 12.1321C51.9858 12.2041 51.7458 12.2581 51.5298 12.2941C51.3258 12.3301 51.1938 12.3421 51.1338 12.3301ZM61.5953 12.4201C61.5113 12.4201 61.3553 12.3901 61.1273 12.3301C60.9113 12.2701 60.6833 12.1981 60.4433 12.1141C60.2153 12.0181 60.0353 11.9161 59.9033 11.8081C59.4953 11.4601 59.2013 11.0761 59.0213 10.6561C58.8413 10.2241 58.7333 9.78612 58.6973 9.34212C58.6733 8.89812 58.6913 8.47812 58.7513 8.08212C58.8833 7.31412 59.1593 6.55212 59.5793 5.79612C59.9993 5.02812 60.5033 4.39212 61.0913 3.88812C61.4033 3.61212 61.7153 3.37812 62.0273 3.18612C62.3393 2.99412 62.6753 2.85612 63.0353 2.77212C63.1673 2.73612 63.3533 2.71812 63.5933 2.71812C63.8453 2.70612 64.0133 2.70012 64.0973 2.70012C64.3373 2.70012 64.6013 2.75412 64.8893 2.86212C65.1893 2.95812 65.4473 3.07812 65.6633 3.22212C65.8793 3.35412 65.9873 3.48012 65.9873 3.60012C65.9873 3.68412 65.9813 3.76812 65.9693 3.85212C65.9573 3.93612 65.9033 3.95412 65.8073 3.90612H65.6273L65.8073 4.44612C65.8553 4.54212 65.8973 4.67412 65.9333 4.84212C65.9693 4.99812 65.9873 5.14212 65.9873 5.27412C65.9873 5.39412 65.9693 5.57412 65.9333 5.81412C65.9093 6.04212 65.8673 6.28812 65.8073 6.55212C65.7593 6.81612 65.7053 7.06212 65.6453 7.29012C65.5973 7.51812 65.5493 7.68612 65.5013 7.79412C65.4653 7.86612 65.4413 7.93812 65.4293 8.01012C65.4293 8.07012 65.4293 8.12412 65.4293 8.17212C65.3813 8.26812 65.3033 8.43612 65.1953 8.67612C65.0873 8.91612 65.0093 9.08412 64.9613 9.18012C64.9133 9.22812 64.8713 9.27012 64.8353 9.30612C64.8113 9.34212 64.8233 9.38412 64.8713 9.43212C64.8713 9.46812 64.8413 9.55212 64.7813 9.68412C64.7213 9.80412 64.6553 9.91812 64.5833 10.0261C64.5233 10.1341 64.4753 10.1881 64.4393 10.1881C64.4393 10.1881 64.4213 10.1941 64.3853 10.2061C64.3613 10.2061 64.3493 10.2241 64.3493 10.2601C64.3493 10.3081 64.2653 10.4341 64.0973 10.6381C63.9413 10.8421 63.7553 11.0521 63.5393 11.2681C63.4193 11.3881 63.2273 11.5441 62.9633 11.7361C62.6993 11.9161 62.4353 12.0781 62.1713 12.2221C61.9193 12.3541 61.7273 12.4201 61.5953 12.4201ZM61.5593 10.6921C61.6913 10.6921 61.8173 10.6741 61.9373 10.6381C62.0573 10.5901 62.1593 10.5241 62.2433 10.4401C62.4593 10.2961 62.6633 10.1041 62.8553 9.86412C63.0593 9.62412 63.2273 9.34812 63.3593 9.03612C63.4913 8.85612 63.5933 8.67012 63.6653 8.47812C63.7493 8.27412 63.8753 7.93212 64.0433 7.45212C64.1393 7.32012 64.2053 7.15812 64.2413 6.96612C64.2773 6.77412 64.2953 6.61212 64.2953 6.48012C64.2953 6.34812 64.2953 6.16812 64.2953 5.94012C64.3073 5.71212 64.3373 5.52012 64.3853 5.36412C64.3853 5.05212 64.3793 4.87212 64.3673 4.82412C64.3553 4.76412 64.3073 4.68612 64.2233 4.59012C64.1753 4.55412 64.1093 4.51812 64.0253 4.48212C63.9533 4.44612 63.8753 4.42812 63.7913 4.42812C63.7073 4.42812 63.5933 4.45212 63.4493 4.50012C63.3173 4.53612 63.2033 4.58412 63.1073 4.64412C63.0233 4.69212 62.9273 4.69812 62.8193 4.66212C62.7233 4.62612 62.6753 4.57812 62.6753 4.51812C62.6753 4.35012 62.5913 4.36212 62.4233 4.55412C62.2673 4.73412 62.0573 4.98612 61.7933 5.31012C61.5773 5.52612 61.3913 5.74812 61.2353 5.97612C61.0913 6.19212 61.0193 6.32412 61.0193 6.37212C61.0193 6.42012 61.0013 6.48012 60.9653 6.55212C60.9293 6.62412 60.8933 6.70812 60.8573 6.80412C60.7973 6.88812 60.7253 7.02612 60.6413 7.21812C60.5573 7.41012 60.4733 7.60212 60.3893 7.79412C60.3173 7.97412 60.2693 8.11212 60.2453 8.20812C60.2453 8.25612 60.2453 8.38812 60.2453 8.60412C60.2453 8.80812 60.2453 9.00012 60.2453 9.18012C60.2453 9.38412 60.2513 9.53412 60.2633 9.63012C60.2753 9.72612 60.2933 9.80412 60.3173 9.86412C60.3533 9.92412 60.4013 10.0141 60.4613 10.1341C60.5093 10.2181 60.5813 10.3201 60.6773 10.4401C60.7853 10.5481 60.8573 10.6261 60.8933 10.6741C61.0253 10.7941 61.1093 10.8421 61.1453 10.8181C61.1933 10.7821 61.3313 10.7401 61.5593 10.6921ZM71.3042 14.1121C71.0762 14.0881 70.8902 13.9981 70.7462 13.8421C70.6142 13.6861 70.5722 13.4581 70.6202 13.1581C70.6682 12.8701 70.8482 12.5101 71.1602 12.0781C71.2562 11.9821 71.3402 11.8861 71.4122 11.7901C71.4962 11.6941 71.5502 11.6101 71.5742 11.5381C71.6342 11.4661 71.7602 11.3101 71.9522 11.0701C72.1562 10.8301 72.3902 10.5601 72.6542 10.2601C72.9302 9.94812 73.2002 9.64212 73.4642 9.34212C73.7282 9.04212 73.9502 8.79012 74.1302 8.58612C74.3222 8.37012 74.4302 8.24412 74.4542 8.20812C74.5022 8.22012 74.5562 8.20212 74.6162 8.15412C74.6762 8.09412 74.7182 8.02212 74.7422 7.93812C74.7782 7.84212 74.8322 7.75812 74.9042 7.68612C74.9882 7.61412 75.0602 7.57212 75.1202 7.56012C75.1442 7.50012 75.1802 7.44612 75.2282 7.39812C75.2882 7.35012 75.3242 7.30212 75.3362 7.25412C75.3482 7.21812 75.3722 7.18812 75.4082 7.16412C75.4562 7.12812 75.4862 7.08612 75.4982 7.03812C75.6062 6.95412 75.7862 6.78012 76.0382 6.51612C76.3022 6.25212 76.6082 5.94012 76.9562 5.58012C77.3042 5.20812 77.6582 4.82412 78.0182 4.42812C78.3902 4.03212 78.7322 3.66012 79.0442 3.31212C79.3682 2.96412 79.6322 2.67612 79.8362 2.44812C80.0402 2.20812 80.1482 2.07012 80.1602 2.03412C80.2082 1.87812 80.3282 1.83012 80.5202 1.89012C80.6042 1.84212 80.7002 1.84212 80.8082 1.89012C80.8082 1.89012 80.8562 1.95012 80.9522 2.07012C81.0602 2.19012 81.1442 2.30412 81.2042 2.41212C81.2762 2.52012 81.3122 2.62812 81.3122 2.73612C81.3242 2.84412 81.3002 2.94612 81.2402 3.04212C81.1922 3.17412 81.1262 3.28812 81.0422 3.38412C80.9702 3.46812 80.8442 3.58812 80.6642 3.74412C80.4962 3.90012 80.2322 4.14012 79.8722 4.46412C79.7882 4.54812 79.6322 4.70412 79.4042 4.93212C79.1882 5.16012 78.9542 5.40612 78.7022 5.67012C78.4502 5.92212 78.2342 6.15012 78.0542 6.35412C77.8742 6.54612 77.7842 6.65412 77.7842 6.67812C77.7482 6.70212 77.6942 6.75012 77.6222 6.82212C77.5622 6.88212 77.4902 6.96612 77.4062 7.07412C77.3102 7.15812 77.1542 7.30212 76.9382 7.50612C76.7342 7.69812 76.5482 7.87812 76.3802 8.04612C76.2122 8.21412 76.1222 8.31612 76.1102 8.35212C76.0862 8.37612 76.0622 8.40612 76.0382 8.44212C76.0142 8.47812 75.9662 8.50812 75.8942 8.53212C75.8702 8.52012 75.8402 8.53812 75.8042 8.58612C75.7802 8.62212 75.7682 8.64012 75.7682 8.64012C75.7682 8.68812 75.7142 8.77812 75.6062 8.91012C75.4982 9.04212 75.3542 9.19212 75.1742 9.36012C74.9822 9.58812 74.7242 9.90012 74.4002 10.2961C74.0762 10.6921 73.7402 11.1001 73.3922 11.5201C73.0562 11.9401 72.7622 12.3181 72.5102 12.6541C72.2582 13.0021 72.1022 13.2421 72.0422 13.3741C71.9582 13.6021 71.8382 13.7761 71.6822 13.8961C71.5262 14.0161 71.4002 14.0881 71.3042 14.1121ZM77.4062 11.8261C77.5862 11.6221 77.7302 11.4301 77.8382 11.2501C77.9582 11.0581 78.0662 10.8121 78.1622 10.5121C78.1982 10.3801 78.2162 10.2061 78.2162 9.99012C78.2162 9.77412 78.1922 9.64812 78.1442 9.61212C78.0482 9.56412 77.9282 9.55212 77.7842 9.57612C77.6522 9.58812 77.5142 9.66612 77.3702 9.81012C77.1182 10.0021 76.9022 10.2541 76.7222 10.5661C76.5542 10.8781 76.3802 11.2261 76.2002 11.6101C76.0802 11.8861 76.0502 12.1141 76.1102 12.2941C76.1822 12.4621 76.3322 12.5221 76.5602 12.4741C76.7882 12.4141 77.0702 12.1981 77.4062 11.8261ZM75.9122 13.9321C75.7922 13.9321 75.6902 13.9081 75.6062 13.8601C75.5222 13.8121 75.4322 13.7401 75.3362 13.6441C75.1442 13.4521 74.9882 13.2361 74.8682 12.9961C74.7482 12.7681 74.7062 12.5701 74.7422 12.4021C74.7662 12.3181 74.7722 12.2461 74.7602 12.1861C74.7602 12.1141 74.7602 12.0781 74.7602 12.0781C74.7122 12.0181 74.7002 11.9821 74.7242 11.9701C74.7482 11.9581 74.7662 11.9341 74.7782 11.8981C74.8382 11.8981 74.8562 11.8381 74.8322 11.7181C74.8202 11.6461 74.8622 11.4781 74.9582 11.2141C75.0662 10.9381 75.1922 10.6801 75.3362 10.4401C75.3962 10.3441 75.4922 10.1821 75.6242 9.95412C75.7682 9.72612 75.9182 9.49812 76.0742 9.27012C76.2422 9.04212 76.3862 8.88012 76.5062 8.78412C76.7582 8.56812 76.9922 8.41212 77.2082 8.31612C77.4242 8.20812 77.6462 8.13012 77.8742 8.08212C78.1022 8.02212 78.2582 7.99212 78.3422 7.99212C78.4262 7.99212 78.5402 8.07612 78.6842 8.24412C78.9122 8.32812 79.1282 8.49012 79.3322 8.73012C79.5482 8.97012 79.6682 9.22812 79.6922 9.50412C79.7162 9.80412 79.6922 10.1461 79.6202 10.5301C79.5482 10.9021 79.3202 11.3701 78.9362 11.9341C78.6842 12.2821 78.4502 12.5641 78.2342 12.7801C78.0182 12.9961 77.7722 13.1881 77.4962 13.3561C77.2922 13.4881 77.0342 13.6141 76.7222 13.7341C76.4102 13.8541 76.1402 13.9201 75.9122 13.9321ZM74.7782 5.13012C74.9582 4.92612 75.1082 4.73412 75.2282 4.55412C75.3482 4.36212 75.4502 4.11612 75.5342 3.81612C75.5822 3.68412 75.6062 3.51012 75.6062 3.29412C75.6062 3.07812 75.5762 2.95212 75.5162 2.91612C75.4322 2.86812 75.3182 2.85612 75.1742 2.88012C75.0422 2.89212 74.9042 2.97012 74.7602 3.11412C74.4962 3.30612 74.2742 3.55812 74.0942 3.87012C73.9262 4.18212 73.7522 4.53012 73.5722 4.91412C73.4642 5.19012 73.4402 5.41812 73.5002 5.59812C73.5722 5.76612 73.7162 5.82612 73.9322 5.77812C74.1602 5.71812 74.4422 5.50212 74.7782 5.13012ZM73.2842 7.21812C73.1642 7.21812 73.0622 7.19412 72.9782 7.14612C72.8942 7.09812 72.8042 7.02612 72.7082 6.93012C72.5162 6.73812 72.3602 6.52812 72.2402 6.30012C72.1202 6.07212 72.0782 5.87412 72.1142 5.70612C72.1382 5.62212 72.1442 5.55012 72.1322 5.49012C72.1322 5.41812 72.1322 5.38212 72.1322 5.38212C72.0842 5.32212 72.0722 5.28612 72.0962 5.27412C72.1202 5.26212 72.1382 5.23812 72.1502 5.20212C72.2102 5.20212 72.2282 5.14212 72.2042 5.02212C72.1922 4.95012 72.2342 4.78212 72.3302 4.51812C72.4382 4.24212 72.5642 3.98412 72.7082 3.74412C72.7682 3.64812 72.8642 3.48612 72.9962 3.25812C73.1402 3.01812 73.2902 2.78412 73.4462 2.55612C73.6142 2.32812 73.7582 2.16612 73.8782 2.07012C74.1302 1.85412 74.3642 1.69812 74.5802 1.60212C74.7962 1.50612 75.0182 1.43412 75.2462 1.38612C75.4742 1.32612 75.6302 1.29612 75.7142 1.29612C75.7982 1.29612 75.9122 1.38012 76.0562 1.54812C76.2842 1.63212 76.5002 1.79412 76.7042 2.03412C76.9202 2.26212 77.0402 2.51412 77.0642 2.79012C77.0882 3.09012 77.0642 3.43212 76.9922 3.81612C76.9202 4.18812 76.6922 4.65612 76.3082 5.22012C76.0562 5.56812 75.8222 5.85612 75.6062 6.08412C75.3902 6.30012 75.1442 6.49212 74.8682 6.66012C74.6642 6.79212 74.4062 6.91812 74.0942 7.03812C73.7822 7.14612 73.5122 7.20612 73.2842 7.21812Z" fill="#5158F6"/>
</svg>
