<svg width="24" height="24" viewBox="0 0 24 24" fill="none" xmlns="http://www.w3.org/2000/svg">
<path d="M20 5.86322V5.48052C16.6974 4.83983 13.3026 4.83983 10 5.48052C8.7194 6.72273 8 8.40733 8 10.164V10.3304L8.1801 10.8112C8.7111 12.2291 9.7046 13.4266 11 14.2104C9.6959 16.1079 9 18.3372 9 20.6177V21.0003L9.8433 20.7666C13.8483 19.6566 17.398 17.3653 20 14.2104L19.8735 13.9308C19.3157 12.698 18.2772 11.7474 17 11.3004C18.8742 10.0884 20 8.04813 20 5.86322Z" fill="white" fill-opacity="0.3"/>
<path d="M19 4.47917C19 4.00017 18.6602 3.58857 18.1904 3.49777C14.747 2.82887 11.2529 2.82887 7.8095 3.49777C7.6191 3.53427 7.4434 3.62607 7.3037 3.76137C5.8398 5.18127 5 7.15007 5 9.16227V9.32877C5 9.44837 5.0215 9.56657 5.0635 9.67887L5.2432 10.1608C5.7315 11.4626 6.5694 12.6134 7.6475 13.4801C6.5674 15.3522 6 17.4543 6 19.6159V19.9987C6 20.3112 6.1465 20.6056 6.3945 20.7946C6.5703 20.9284 6.7842 20.9987 7 20.9987C7.0898 20.9987 7.1797 20.9865 7.2676 20.9621L8.1094 20.7287C12.3379 19.5573 16.0244 17.1769 18.7715 13.8449C19.0147 13.55 19.0684 13.1428 18.9102 12.7951L18.7842 12.5173C18.3477 11.5525 17.6582 10.7258 16.8067 10.1198C18.2012 8.72817 19 6.85167 19 4.86147V4.47917ZM14.457 9.45907C14.1367 9.66657 13.9619 10.0382 14.0068 10.4176C14.0527 10.7965 14.3095 11.1168 14.6699 11.2428C15.582 11.5616 16.3496 12.213 16.8174 13.0543C14.4863 15.6964 11.4727 17.6241 8.044 18.6651C8.2061 16.9205 8.8135 15.2462 9.8243 13.775C9.9806 13.5479 10.0352 13.2667 9.9776 12.9977C9.92 12.7287 9.753 12.4953 9.5176 12.3532C8.419 11.6886 7.5664 10.6613 7.1162 9.45957L7 9.14807C7.0039 7.75257 7.5313 6.43417 8.4932 5.40397C11.3116 4.89227 14.1621 4.86247 16.9805 5.31417C16.8398 6.98837 15.9189 8.51377 14.457 9.45907Z" fill="#AB8C2C"/>
</svg>
