<svg width="32" height="32" viewBox="0 0 32 32" fill="none" xmlns="http://www.w3.org/2000/svg">
<path d="M28.7499 15.8935C28.7499 14.8242 28.6611 14.044 28.4689 13.2349H15.9746V18.0608H23.3085C23.1607 19.2601 22.3622 21.0662 20.5879 22.2799L20.563 22.4415L24.5135 25.4321L24.7872 25.4588C27.3008 23.1902 28.7499 19.8525 28.7499 15.8935Z" fill="#4285F4"/>
<path d="M15.975 28.609C19.568 28.609 22.5844 27.453 24.7876 25.4591L20.5883 22.2802C19.4646 23.046 17.9563 23.5806 15.975 23.5806C12.456 23.5806 9.46917 21.3122 8.40446 18.1768L8.2484 18.1897L4.14063 21.2963L4.08691 21.4422C6.27525 25.6902 10.7703 28.609 15.975 28.609Z" fill="#34A853"/>
<path d="M8.40398 18.1768C8.12304 17.3676 7.96046 16.5006 7.96046 15.6048C7.96046 14.7089 8.12304 13.842 8.3892 13.0329L8.38175 12.8606L4.22251 9.7041L4.08643 9.76735C3.18451 11.5302 2.66699 13.5097 2.66699 15.6048C2.66699 17.6999 3.18451 19.6794 4.08643 21.4422L8.40398 18.1768Z" fill="#FBBC05"/>
<path d="M15.975 7.62883C18.4739 7.62883 20.1595 8.6836 21.1206 9.56506L24.8763 5.98167C22.5697 3.88656 19.568 2.60059 15.975 2.60059C10.7703 2.60059 6.27525 5.51927 4.08691 9.76727L8.38968 13.0328C9.46917 9.89736 12.456 7.62883 15.975 7.62883Z" fill="#EB4335"/>
</svg>
