<svg width="33" height="32" viewBox="0 0 33 32" fill="none" xmlns="http://www.w3.org/2000/svg">
<path d="M17.334 15.1665H29.834V3.49984C29.834 3.27882 29.7462 3.06686 29.5899 2.91058C29.4336 2.7543 29.2217 2.6665 29.0007 2.6665H17.334V15.1665Z" fill="#4CAF50"/>
<path d="M15.667 15.1665V2.6665H4.00033C3.77931 2.6665 3.56735 2.7543 3.41107 2.91058C3.25479 3.06686 3.16699 3.27882 3.16699 3.49984V15.1665H15.667Z" fill="#F44336"/>
<path d="M15.667 16.833H3.16699V28.4997C3.16699 28.7207 3.25479 28.9327 3.41107 29.0889C3.56735 29.2452 3.77931 29.333 4.00033 29.333H15.667V16.833Z" fill="#2196F3"/>
<path d="M17.334 16.833V29.333H29.0007C29.2217 29.333 29.4336 29.2452 29.5899 29.0889C29.7462 28.9327 29.834 28.7207 29.834 28.4997V16.833H17.334Z" fill="#FFC107"/>
</svg>
