<svg width="32" height="32" viewBox="0 0 32 32" fill="none" xmlns="http://www.w3.org/2000/svg">
<g clip-path="url(#clip0_725_321)">
<path d="M16.0011 4.57244C17.2637 4.57244 18.2873 3.54887 18.2873 2.28622C18.2873 1.02358 17.2637 0 16.0011 0C14.7384 0 13.7148 1.02358 13.7148 2.28622C13.7148 3.54887 14.7384 4.57244 16.0011 4.57244Z" fill="#59C173"/>
<path d="M24.0826 4.68607C23.1899 5.57869 23.1899 7.02598 24.0826 7.91842C24.9752 8.81104 26.4225 8.81104 27.3149 7.91842C28.2075 7.0258 28.2075 5.57851 27.3149 4.68607C26.4225 3.79345 24.9752 3.79345 24.0826 4.68607Z" fill="#4285F4"/>
<path d="M29.713 18.2858C30.9756 18.2858 31.9992 17.2622 31.9992 15.9996C31.9992 14.737 30.9756 13.7134 29.713 13.7134C28.4503 13.7134 27.4268 14.737 27.4268 15.9996C27.4268 17.2622 28.4503 18.2858 29.713 18.2858Z" fill="#FBBC05"/>
<path d="M25.6993 27.9841C26.962 27.9841 27.9855 26.9605 27.9855 25.6978C27.9855 24.4352 26.962 23.4116 25.6993 23.4116C24.4367 23.4116 23.4131 24.4352 23.4131 25.6978C23.4131 26.9605 24.4367 27.9841 25.6993 27.9841Z" fill="#EB4335"/>
<path d="M16.0005 32.0003C17.2629 32.0003 18.2862 30.977 18.2862 29.7146C18.2862 28.4522 17.2629 27.4287 16.0005 27.4287C14.7381 27.4287 13.7148 28.4522 13.7148 29.7146C13.7148 30.977 14.7381 32.0003 16.0005 32.0003Z" fill="#4285F4"/>
<path d="M6.3038 27.9841C7.56645 27.9841 8.59002 26.9605 8.59002 25.6978C8.59002 24.4352 7.56645 23.4116 6.3038 23.4116C5.04116 23.4116 4.01758 24.4352 4.01758 25.6978C4.01758 26.9605 5.04116 27.9841 6.3038 27.9841Z" fill="#FBBC05"/>
<path d="M2.28622 18.2858C3.54887 18.2858 4.57244 17.2622 4.57244 15.9996C4.57244 14.737 3.54887 13.7134 2.28622 13.7134C1.02358 13.7134 0 14.737 0 15.9996C0 17.2622 1.02358 18.2858 2.28622 18.2858Z" fill="#59C173"/>
<path d="M4.68704 4.68607C3.79442 5.57869 3.79442 7.02598 4.68704 7.91842C5.57967 8.81104 7.02695 8.81104 7.9194 7.91842C8.81202 7.0258 8.81202 5.57851 7.9194 4.68607C7.02695 3.79345 5.57967 3.79345 4.68704 4.68607Z" fill="#EB4335"/>
</g>
<defs>
<clipPath id="clip0_725_321">
<rect width="32" height="32" fill="white"/>
</clipPath>
</defs>
</svg>
