<svg width="48" height="48" viewBox="0 0 48 48" fill="none" xmlns="http://www.w3.org/2000/svg">
<rect width="48" height="48" rx="24" fill="white"/>
<path d="M33 26C32.7348 26 32.4804 26.1054 32.2929 26.2929C32.1054 26.4804 32 26.7348 32 27V31C32 31.2652 31.8946 31.5196 31.7071 31.7071C31.5196 31.8946 31.2652 32 31 32H17C16.7348 32 16.4804 31.8946 16.2929 31.7071C16.1054 31.5196 16 31.2652 16 31V27C16 26.7348 15.8946 26.4804 15.7071 26.2929C15.5196 26.1054 15.2652 26 15 26C14.7348 26 14.4804 26.1054 14.2929 26.2929C14.1054 26.4804 14 26.7348 14 27V31C14 31.7956 14.3161 32.5587 14.8787 33.1213C15.4413 33.6839 16.2044 34 17 34H31C31.7956 34 32.5587 33.6839 33.1213 33.1213C33.6839 32.5587 34 31.7956 34 31V27C34 26.7348 33.8946 26.4804 33.7071 26.2929C33.5196 26.1054 33.2652 26 33 26ZM23.29 27.71C23.3851 27.801 23.4972 27.8724 23.62 27.92C23.7397 27.9729 23.8691 28.0002 24 28.0002C24.1309 28.0002 24.2603 27.9729 24.38 27.92C24.5028 27.8724 24.6149 27.801 24.71 27.71L28.71 23.71C28.8983 23.5217 29.0041 23.2663 29.0041 23C29.0041 22.7337 28.8983 22.4783 28.71 22.29C28.5217 22.1017 28.2663 21.9959 28 21.9959C27.7337 21.9959 27.4783 22.1017 27.29 22.29L25 24.59V15C25 14.7348 24.8946 14.4804 24.7071 14.2929C24.5196 14.1054 24.2652 14 24 14C23.7348 14 23.4804 14.1054 23.2929 14.2929C23.1054 14.4804 23 14.7348 23 15V24.59L20.71 22.29C20.6168 22.1968 20.5061 22.1228 20.3842 22.0723C20.2624 22.0219 20.1319 21.9959 20 21.9959C19.8681 21.9959 19.7376 22.0219 19.6158 22.0723C19.4939 22.1228 19.3832 22.1968 19.29 22.29C19.1968 22.3832 19.1228 22.4939 19.0723 22.6158C19.0219 22.7376 18.9959 22.8681 18.9959 23C18.9959 23.1319 19.0219 23.2624 19.0723 23.3842C19.1228 23.5061 19.1968 23.6168 19.29 23.71L23.29 27.71Z" fill="#4B5563"/>
</svg>
