<svg width="48" height="48" viewBox="0 0 48 48" fill="none" xmlns="http://www.w3.org/2000/svg">
<rect width="48" height="48" rx="24" fill="white"/>
<path d="M17.0362 34.748C17.7997 34.748 18.5631 34.748 19.3266 34.748C21.1098 34.748 22.8929 34.748 24.6761 34.748C26.718 34.748 28.7599 34.748 30.8018 34.748C32.3414 34.748 33.8811 34.748 35.4207 34.748C35.7925 34.748 36.1644 34.748 36.5361 34.748C37.0131 34.748 37.4111 34.35 37.4111 33.873C37.4111 33.396 37.0131 32.998 36.5361 32.998C35.7726 32.998 35.0092 32.998 34.2457 32.998C32.4625 32.998 30.6794 32.998 28.8962 32.998C26.8543 32.998 24.8124 32.998 22.7705 32.998C21.2309 32.998 19.6912 32.998 18.1515 32.998C17.7798 32.998 17.4079 32.998 17.0361 32.998C16.5592 32.998 16.1611 33.396 16.1611 33.873C16.1611 34.35 16.5592 34.748 17.0362 34.748Z" fill="#4B5563"/>
<path d="M14.4224 36.4209C15.8287 36.4209 16.9687 35.2808 16.9687 33.8745C16.9687 32.4682 15.8287 31.3281 14.4224 31.3281C13.016 31.3281 11.876 32.4682 11.876 33.8745C11.876 35.2808 13.016 36.4209 14.4224 36.4209Z" fill="#4B5563"/>
<path d="M14.4224 31.7646C14.5095 31.7654 14.596 31.7697 14.6827 31.7778C14.8222 31.7908 14.5985 31.763 14.7359 31.7851C14.7777 31.7919 14.8192 31.8007 14.8606 31.8095C14.9426 31.827 15.0232 31.8506 15.103 31.8762C15.1426 31.8889 15.1815 31.9035 15.2204 31.9181C15.2684 31.9373 15.2718 31.9384 15.2307 31.9214C15.2558 31.9325 15.2808 31.9441 15.3055 31.956C15.4539 32.026 15.5932 32.1137 15.7251 32.2107C15.6535 32.1581 15.7589 32.2399 15.764 32.2441C15.7952 32.2703 15.8252 32.298 15.8551 32.3256C15.9249 32.3901 15.9895 32.46 16.0517 32.5319C16.0559 32.5367 16.139 32.6416 16.0851 32.5707C16.1098 32.6032 16.133 32.6369 16.1561 32.6705C16.2025 32.7381 16.244 32.8089 16.2837 32.8805C16.3036 32.9165 16.3218 32.9534 16.3399 32.9903C16.3428 32.9962 16.397 33.1202 16.3626 33.0368C16.3997 33.1267 16.4294 33.2194 16.4559 33.3128C16.479 33.3941 16.4959 33.4769 16.5108 33.56C16.5353 33.6969 16.5028 33.4739 16.5181 33.6131C16.5229 33.6561 16.5254 33.6993 16.528 33.7424C16.5331 33.8297 16.5317 33.9172 16.528 34.0045C16.5261 34.0477 16.5221 34.0908 16.5181 34.1338C16.512 34.187 16.5118 34.1907 16.5176 34.145C16.5133 34.173 16.5085 34.2009 16.5033 34.2288C16.4739 34.3937 16.424 34.5545 16.3626 34.7101C16.3957 34.6264 16.3428 34.7505 16.3399 34.7566C16.3224 34.7938 16.303 34.8301 16.2837 34.8664C16.2388 34.9508 16.1871 35.0313 16.133 35.11C16.1294 35.1153 16.0486 35.2222 16.1037 35.1522C16.0785 35.1843 16.0518 35.2151 16.0251 35.2459C15.9718 35.3075 15.9141 35.3652 15.8551 35.4214C15.8256 35.4495 15.7948 35.4762 15.764 35.5028C15.7592 35.507 15.6543 35.5901 15.7252 35.5362C15.6492 35.594 15.5687 35.6455 15.4869 35.6944C15.4162 35.7366 15.3427 35.7735 15.2683 35.8086C15.1464 35.8661 15.3464 35.7793 15.2205 35.8289C15.1819 35.8441 15.1424 35.8575 15.1031 35.8708C15.0236 35.8976 14.9423 35.9185 14.8606 35.9374C14.8194 35.947 14.7776 35.9544 14.7359 35.9618C14.6834 35.9699 14.6799 35.9708 14.7255 35.9645C14.697 35.9679 14.6684 35.9708 14.6399 35.9732C14.4667 35.9893 14.292 35.9835 14.1194 35.9645C14.2119 35.9747 14.0741 35.9556 14.0671 35.9544C14.0255 35.947 13.9844 35.9375 13.9432 35.9279C13.8481 35.906 13.755 35.8762 13.6632 35.8435C13.6373 35.834 13.6115 35.824 13.5858 35.8137C13.6696 35.8467 13.5454 35.7939 13.5393 35.791C13.4774 35.7617 13.4174 35.7285 13.358 35.6944C13.2989 35.6604 13.242 35.6226 13.1859 35.584C13.1635 35.5685 13.1415 35.5525 13.1197 35.5362C13.1913 35.5889 13.0859 35.507 13.0808 35.5028C12.9767 35.4155 12.8819 35.3176 12.7931 35.2151C12.7754 35.1944 12.7581 35.1734 12.7412 35.1522C12.7972 35.2212 12.7156 35.1154 12.7119 35.11C12.6723 35.0545 12.6364 34.9964 12.6015 34.9378C12.5664 34.879 12.5351 34.818 12.5049 34.7566C12.493 34.7318 12.4815 34.7069 12.4704 34.6817C12.5075 34.7639 12.4548 34.6389 12.4524 34.6327C12.4033 34.5017 12.3684 34.3659 12.3415 34.2287C12.3363 34.2009 12.3316 34.1729 12.3273 34.1449C12.3422 34.2371 12.3234 34.0976 12.3227 34.0909C12.316 34.0186 12.3142 33.946 12.3136 33.8734C12.3129 33.8009 12.3172 33.7283 12.3227 33.656C12.3251 33.6274 12.328 33.5989 12.3314 33.5704C12.3212 33.6629 12.3403 33.5251 12.3415 33.5181C12.3661 33.3804 12.4055 33.2458 12.4524 33.1142C12.4619 33.0882 12.4719 33.0624 12.4822 33.0368C12.4492 33.1205 12.502 32.9964 12.5049 32.9903C12.5342 32.9283 12.5674 32.8684 12.6015 32.809C12.6355 32.7499 12.6732 32.693 12.7119 32.6368C12.7274 32.6145 12.7434 32.5925 12.7597 32.5707C12.707 32.6422 12.7889 32.5369 12.7931 32.5318C12.8804 32.4277 12.9783 32.3329 13.0808 32.244C13.1015 32.2264 13.1225 32.2091 13.1437 32.1921C13.0747 32.2482 13.1805 32.1666 13.1859 32.1628C13.2414 32.1233 13.2995 32.0874 13.358 32.0525C13.4169 32.0174 13.4779 31.9861 13.5393 31.9559C13.564 31.944 13.589 31.9325 13.6142 31.9213C13.532 31.9585 13.657 31.9058 13.6632 31.9035C13.7941 31.8543 13.93 31.8194 14.0671 31.7925C14.095 31.7873 14.1229 31.7826 14.1509 31.7783C14.0587 31.7932 14.1982 31.7744 14.205 31.7737C14.2772 31.7671 14.3498 31.7652 14.4224 31.7646C14.6608 31.7626 14.8599 31.5672 14.8599 31.3271C14.8599 31.0902 14.6609 30.8876 14.4224 30.8896C13.6429 30.8962 12.9052 31.1975 12.3414 31.735C11.7819 32.2685 11.4723 33.0195 11.4399 33.786C11.4071 34.5634 11.7143 35.3206 12.2281 35.895C12.7436 36.4714 13.4854 36.7935 14.248 36.8515C15.0279 36.9109 15.791 36.6178 16.3827 36.1216C16.9759 35.6241 17.3096 34.8925 17.3931 34.1339C17.4792 33.352 17.2005 32.5846 16.7224 31.9761C16.2485 31.3732 15.5193 31.0084 14.7679 30.9129C14.653 30.8983 14.5382 30.8906 14.4224 30.8897C14.1839 30.8877 13.9849 31.0902 13.9849 31.3272C13.9849 31.5672 14.1839 31.7626 14.4224 31.7646ZM31.8283 24.9199C33.3399 24.9199 34.8515 24.9199 36.3632 24.9199C36.4207 24.9199 36.4782 24.9199 36.5357 24.9199C37.0127 24.9199 37.4107 24.5219 37.4107 24.0449C37.4107 23.568 37.0127 23.1699 36.5357 23.1699C35.0241 23.1699 33.5125 23.1699 32.0009 23.1699C31.9433 23.1699 31.8858 23.1699 31.8283 23.1699C31.3513 23.1699 30.9533 23.568 30.9533 24.0449C30.9533 24.5219 31.3513 24.9199 31.8283 24.9199ZM11.876 24.9199C12.8365 24.9199 13.797 24.9199 14.7575 24.9199C16.7382 24.9199 18.7189 24.9199 20.6996 24.9199C22.3493 24.9199 23.9989 24.9199 25.6486 24.9199C25.9271 24.9199 26.2057 24.9199 26.4842 24.9199C26.9612 24.9199 27.3592 24.5219 27.3592 24.0449C27.3592 23.568 26.9612 23.1699 26.4842 23.1699C25.5237 23.1699 24.5632 23.1699 23.6027 23.1699C21.6219 23.1699 19.6413 23.1699 17.6605 23.1699C16.0109 23.1699 14.3612 23.1699 12.7116 23.1699C12.433 23.1699 12.1545 23.1699 11.876 23.1699C11.399 23.1699 11.001 23.568 11.001 24.0449C11.001 24.5219 11.399 24.9199 11.876 24.9199Z" fill="#4B5563"/>
<path d="M29.1645 26.5908C30.5709 26.5908 31.7109 25.4507 31.7109 24.0444C31.7109 22.6381 30.5709 21.498 29.1645 21.498C27.7582 21.498 26.6182 22.6381 26.6182 24.0444C26.6182 25.4507 27.7582 26.5908 29.1645 26.5908Z" fill="#4B5563"/>
<path d="M29.1646 21.9365C29.2517 21.9372 29.3383 21.9416 29.425 21.9497C29.5645 21.9626 29.3408 21.9349 29.4781 21.957C29.52 21.9638 29.5614 21.9726 29.6028 21.9815C29.6849 21.999 29.7654 22.0225 29.8453 22.0481C29.8849 22.0608 29.9238 22.0754 29.9627 22.09C30.0107 22.1093 30.0141 22.1104 29.9729 22.0933C29.9981 22.1045 30.023 22.116 30.0478 22.1279C30.1961 22.1979 30.3354 22.2857 30.4674 22.3827C30.3958 22.33 30.5012 22.4119 30.5063 22.4161C30.5375 22.4423 30.5674 22.4699 30.5974 22.4975C30.6672 22.562 30.7318 22.632 30.794 22.7038C30.7982 22.7087 30.8813 22.8136 30.8274 22.7427C30.8521 22.7752 30.8752 22.8089 30.8983 22.8425C30.9448 22.9101 30.9863 22.9809 31.0259 23.0525C31.0459 23.0885 31.064 23.1254 31.0821 23.1623C31.085 23.1682 31.1393 23.2922 31.1049 23.2088C31.142 23.2987 31.1717 23.3914 31.1982 23.4848C31.2212 23.566 31.2382 23.6489 31.253 23.7319C31.2775 23.8689 31.245 23.6459 31.2604 23.7851C31.2651 23.8281 31.2676 23.8713 31.2702 23.9144C31.2754 24.0017 31.2739 24.0892 31.2702 24.1765C31.2684 24.2197 31.2643 24.2628 31.2604 24.3058C31.2542 24.359 31.254 24.3627 31.2598 24.317C31.2555 24.345 31.2508 24.3729 31.2455 24.4008C31.2161 24.5657 31.1662 24.7265 31.1048 24.8821C31.1378 24.7984 31.085 24.9225 31.0821 24.9286C31.0645 24.9658 31.0452 25.0021 31.0259 25.0384C30.9809 25.1228 30.9293 25.2033 30.8752 25.282C30.8716 25.2873 30.7908 25.3942 30.8459 25.3242C30.8207 25.3563 30.794 25.3871 30.7673 25.4179C30.7139 25.4795 30.6562 25.5372 30.5973 25.5934C30.5678 25.6215 30.537 25.6482 30.5062 25.6748C30.5014 25.679 30.3965 25.7621 30.4674 25.7082C30.3914 25.766 30.3109 25.8175 30.229 25.8664C30.1584 25.9086 30.0848 25.9455 30.0105 25.9806C29.8886 26.0381 30.0885 25.9513 29.9627 26.0009C29.924 26.0161 29.8846 26.0295 29.8453 26.0428C29.7658 26.0696 29.6845 26.0905 29.6028 26.1094C29.5615 26.119 29.5198 26.1264 29.4781 26.1338C29.4256 26.1419 29.4221 26.1428 29.4677 26.1365C29.4392 26.1399 29.4107 26.1428 29.3821 26.1452C29.2089 26.1613 29.0342 26.1555 28.8616 26.1365C28.9541 26.1467 28.8164 26.1276 28.8093 26.1264C28.7677 26.119 28.7265 26.1095 28.6854 26.0999C28.5903 26.078 28.4972 26.0482 28.4054 26.0155C28.3794 26.006 28.3536 25.996 28.328 25.9857C28.4117 26.0187 28.2876 25.9659 28.2815 25.963C28.2195 25.9337 28.1596 25.9005 28.1002 25.8664C28.0411 25.8324 27.9842 25.7946 27.928 25.756C27.9057 25.7405 27.8837 25.7245 27.8619 25.7082C27.9335 25.7609 27.8281 25.679 27.823 25.6748C27.7189 25.5875 27.6241 25.4896 27.5353 25.3871C27.5176 25.3664 27.5003 25.3454 27.4834 25.3242C27.5394 25.3932 27.4579 25.2874 27.454 25.282C27.4145 25.2265 27.3786 25.1684 27.3437 25.1098C27.3086 25.051 27.2774 24.99 27.2471 24.9286C27.2352 24.9038 27.2237 24.8789 27.2125 24.8537C27.2497 24.9359 27.197 24.8109 27.1947 24.8047C27.1455 24.6737 27.1106 24.5379 27.0837 24.4007C27.0785 24.3729 27.0738 24.3449 27.0695 24.3169C27.0844 24.4091 27.0656 24.2696 27.0649 24.2629C27.0582 24.1906 27.0564 24.118 27.0558 24.0454C27.0551 23.9728 27.0594 23.9003 27.0649 23.828C27.0673 23.7994 27.0702 23.7709 27.0736 23.7424C27.0634 23.8349 27.0824 23.6971 27.0837 23.6901C27.1083 23.5525 27.1477 23.4178 27.1946 23.2862C27.2041 23.2603 27.2141 23.2345 27.2244 23.2088C27.1914 23.2926 27.2442 23.1684 27.2471 23.1623C27.2764 23.1004 27.3096 23.0404 27.3437 22.981C27.3777 22.9219 27.4154 22.865 27.454 22.8089C27.4696 22.7865 27.4856 22.7645 27.5019 22.7427C27.4492 22.8143 27.531 22.7089 27.5353 22.7038C27.6226 22.5997 27.7204 22.505 27.823 22.4161C27.8437 22.3985 27.8647 22.3811 27.8859 22.3642C27.8169 22.4202 27.9227 22.3386 27.9281 22.3349C27.9836 22.2953 28.0417 22.2594 28.1003 22.2245C28.1591 22.1894 28.2201 22.1581 28.2815 22.1279C28.3063 22.116 28.3312 22.1045 28.3564 22.0933C28.2742 22.1305 28.3992 22.0778 28.4054 22.0754C28.5364 22.0263 28.6722 21.9914 28.8094 21.9645C28.8372 21.9593 28.8652 21.9545 28.8932 21.9503C28.801 21.9651 28.9404 21.9463 28.9472 21.9457C29.0194 21.939 29.0921 21.9371 29.1646 21.9365C29.4031 21.9345 29.6021 21.739 29.6021 21.499C29.6021 21.262 29.4031 21.0595 29.1646 21.0615C28.3852 21.0681 27.6475 21.3694 27.0837 21.9069C26.5241 22.4405 26.2146 23.1914 26.1822 23.9579C26.1494 24.7352 26.4566 25.4925 26.9704 26.0669C27.4859 26.6432 28.2277 26.9654 28.9903 27.0234C29.7702 27.0827 30.5333 26.7897 31.125 26.2935C31.7181 25.796 32.0519 25.0643 32.1354 24.3058C32.2214 23.5238 31.9429 22.7565 31.4646 22.148C30.9908 21.5451 30.2616 21.1803 29.5102 21.0848C29.3952 21.0702 29.2805 21.0625 29.1646 21.0615C28.9261 21.0595 28.7271 21.2621 28.7271 21.499C28.7271 21.739 28.9262 21.9345 29.1646 21.9365ZM22.4468 15.0918C23.4343 15.0918 24.4217 15.0918 25.4091 15.0918C27.4027 15.0918 29.3963 15.0918 31.3899 15.0918C32.9368 15.0918 34.4836 15.0918 36.0304 15.0918C36.1989 15.0918 36.3673 15.0918 36.5357 15.0918C37.0127 15.0918 37.4107 14.6938 37.4107 14.2168C37.4107 13.7398 37.0127 13.3418 36.5357 13.3418C35.5483 13.3418 34.5609 13.3418 33.5734 13.3418C31.5798 13.3418 29.5862 13.3418 27.5926 13.3418C26.0458 13.3418 24.4989 13.3418 22.9521 13.3418C22.7837 13.3418 22.6152 13.3418 22.4468 13.3418C21.9698 13.3418 21.5718 13.7398 21.5718 14.2168C21.5718 14.6938 21.9699 15.0918 22.4468 15.0918ZM11.876 15.0918C13.4317 15.0918 14.9874 15.0918 16.5431 15.0918C16.7297 15.0918 16.9162 15.0918 17.1028 15.0918C17.5798 15.0918 17.9778 14.6938 17.9778 14.2168C17.9778 13.7398 17.5798 13.3418 17.1028 13.3418C15.5471 13.3418 13.9914 13.3418 12.4357 13.3418C12.2491 13.3418 12.0625 13.3418 11.876 13.3418C11.399 13.3418 11.001 13.7398 11.001 14.2168C11.001 14.6938 11.399 15.0918 11.876 15.0918Z" fill="#4B5563"/>
<path d="M19.7827 16.7627C21.1891 16.7627 22.3291 15.6227 22.3291 14.2163C22.3291 12.81 21.1891 11.6699 19.7827 11.6699C18.3764 11.6699 17.2363 12.81 17.2363 14.2163C17.2363 15.6227 18.3764 16.7627 19.7827 16.7627Z" fill="#4B5563"/>
<path d="M19.7827 12.1075C19.8698 12.1082 19.9563 12.1126 20.043 12.1206C20.1825 12.1336 19.9588 12.1058 20.0962 12.128C20.138 12.1347 20.1795 12.1436 20.2209 12.1524C20.3029 12.1699 20.3835 12.1935 20.4633 12.2191C20.5029 12.2317 20.5418 12.2464 20.5807 12.261C20.6287 12.2802 20.6321 12.2813 20.591 12.2643C20.6161 12.2754 20.6411 12.2869 20.6658 12.2989C20.8142 12.3688 20.9535 12.4566 21.0854 12.5537C21.0138 12.501 21.1192 12.5828 21.1243 12.587C21.1555 12.6132 21.1855 12.6409 21.2154 12.6685C21.2852 12.733 21.3498 12.803 21.412 12.8748C21.4162 12.8796 21.4993 12.9845 21.4454 12.9137C21.4701 12.9462 21.4933 12.9798 21.5164 13.0135C21.5628 13.081 21.6043 13.1518 21.644 13.2234C21.6639 13.2594 21.6821 13.2963 21.7002 13.3332C21.7031 13.3392 21.7573 13.4631 21.7229 13.3798C21.76 13.4696 21.7897 13.5623 21.8162 13.6558C21.8393 13.737 21.8562 13.8198 21.8711 13.9029C21.8956 14.0398 21.8631 13.8168 21.8784 13.9561C21.8832 13.999 21.8857 14.0422 21.8883 14.0854C21.8934 14.1727 21.892 14.2602 21.8883 14.3475C21.8864 14.3907 21.8824 14.4337 21.8784 14.4768C21.8723 14.53 21.8721 14.5337 21.8779 14.4879C21.8736 14.5159 21.8688 14.5439 21.8636 14.5717C21.8342 14.7367 21.7843 14.8974 21.7229 15.0531C21.756 14.9693 21.7031 15.0935 21.7002 15.0996C21.6827 15.1368 21.6633 15.1731 21.644 15.2094C21.5991 15.2937 21.5474 15.3743 21.4933 15.453C21.4897 15.4582 21.4089 15.5652 21.464 15.4952C21.4388 15.5272 21.4121 15.558 21.3854 15.5888C21.3321 15.6504 21.2744 15.7081 21.2154 15.7643C21.1859 15.7924 21.1551 15.8191 21.1243 15.8458C21.1195 15.85 21.0146 15.933 21.0855 15.8792C21.0095 15.9369 20.929 15.9885 20.8472 16.0374C20.7765 16.0795 20.703 16.1165 20.6286 16.1515C20.5067 16.2091 20.7067 16.1222 20.5808 16.1718C20.5422 16.1871 20.5027 16.2004 20.4634 16.2137C20.3839 16.2406 20.3026 16.2616 20.2209 16.2804C20.1797 16.2899 20.1379 16.2974 20.0962 16.3048C20.0437 16.3129 20.0402 16.3138 20.0858 16.3075C20.0573 16.3108 20.0287 16.3137 20.0002 16.3162C19.827 16.3323 19.6523 16.3265 19.4797 16.3075C19.5722 16.3177 19.4344 16.2986 19.4274 16.2973C19.3858 16.2899 19.3447 16.2804 19.3035 16.2709C19.2084 16.249 19.1153 16.2192 19.0235 16.1864C18.9976 16.1769 18.9718 16.167 18.9461 16.1566C19.0299 16.1897 18.9057 16.1368 18.8996 16.1339C18.8377 16.1047 18.7777 16.0715 18.7183 16.0373C18.6592 16.0033 18.6023 15.9656 18.5462 15.927C18.5238 15.9114 18.5018 15.8954 18.48 15.8791C18.5516 15.9318 18.4462 15.85 18.4411 15.8457C18.337 15.7584 18.2422 15.6606 18.1534 15.558C18.1357 15.5373 18.1184 15.5163 18.1015 15.4951C18.1575 15.5641 18.0759 15.4583 18.0722 15.453C18.0326 15.3974 17.9967 15.3393 17.9618 15.2808C17.9267 15.222 17.8954 15.161 17.8652 15.0996C17.8533 15.0748 17.8417 15.0498 17.8306 15.0247C17.8678 15.1068 17.8151 14.9818 17.8127 14.9756C17.7636 14.8447 17.7287 14.7088 17.7018 14.5717C17.6966 14.5438 17.6918 14.5159 17.6876 14.4879C17.7024 14.5801 17.6836 14.4407 17.683 14.4338C17.6763 14.3616 17.6745 14.2889 17.6738 14.2164C17.6732 14.1438 17.6775 14.0713 17.683 13.999C17.6854 13.9704 17.6883 13.9418 17.6917 13.9134C17.6815 14.0058 17.7005 13.8681 17.7018 13.8611C17.7264 13.7234 17.7658 13.5888 17.8127 13.4572C17.8222 13.4312 17.8322 13.4055 17.8425 13.3798C17.8095 13.4636 17.8623 13.3394 17.8652 13.3333C17.8944 13.2713 17.9277 13.2114 17.9618 13.152C17.9958 13.0929 18.0335 13.036 18.0722 12.9798C18.0877 12.9575 18.1037 12.9355 18.12 12.9137C18.0673 12.9853 18.1492 12.8798 18.1534 12.8748C18.2407 12.7707 18.3386 12.6759 18.4411 12.5871C18.4618 12.5694 18.4828 12.5521 18.504 12.5352C18.435 12.5912 18.5408 12.5096 18.5462 12.5058C18.6017 12.4663 18.6598 12.4304 18.7183 12.3955C18.7772 12.3604 18.8382 12.3291 18.8996 12.2989C18.9243 12.287 18.9493 12.2754 18.9745 12.2643C18.8923 12.3015 19.0173 12.2487 19.0235 12.2464C19.1544 12.1972 19.2903 12.1623 19.4274 12.1355C19.4553 12.1303 19.4832 12.1255 19.5112 12.1212C19.419 12.1361 19.5585 12.1173 19.5653 12.1167C19.6375 12.1099 19.7101 12.1081 19.7827 12.1075C20.0211 12.1055 20.2202 11.91 20.2202 11.67C20.2202 11.433 20.0212 11.2305 19.7827 11.2325C19.0032 11.239 18.2655 11.5404 17.7017 12.0779C17.1422 12.6114 16.8326 13.3624 16.8002 14.1288C16.7674 14.9062 17.0746 15.6634 17.5884 16.2378C18.1039 16.8142 18.8457 17.1363 19.6083 17.1944C20.3882 17.2537 21.1513 16.9607 21.743 16.4644C22.3362 15.9669 22.6699 15.2353 22.7534 14.4767C22.8395 13.6948 22.5608 12.9274 22.0827 12.3189C21.6088 11.716 20.8796 11.3512 20.1282 11.2557C20.0132 11.2411 19.8985 11.2335 19.7827 11.2325C19.5442 11.2305 19.3452 11.433 19.3452 11.6699C19.3452 11.91 19.5442 12.1054 19.7827 12.1075Z" fill="#4B5563"/>
</svg>
