<svg width="32" height="32" viewBox="0 0 32 32" fill="none" xmlns="http://www.w3.org/2000/svg">
<path d="M9.03616 26.748C9.79966 26.748 10.5631 26.748 11.3266 26.748C13.1098 26.748 14.8929 26.748 16.6761 26.748C18.718 26.748 20.7599 26.748 22.8018 26.748C24.3414 26.748 25.8811 26.748 27.4207 26.748C27.7925 26.748 28.1644 26.748 28.5361 26.748C29.0131 26.748 29.4111 26.35 29.4111 25.873C29.4111 25.396 29.0131 24.998 28.5361 24.998C27.7726 24.998 27.0092 24.998 26.2457 24.998C24.4625 24.998 22.6794 24.998 20.8962 24.998C18.8543 24.998 16.8124 24.998 14.7705 24.998C13.2309 24.998 11.6912 24.998 10.1515 24.998C9.77976 24.998 9.40795 24.998 9.03613 24.998C8.55916 24.998 8.16113 25.396 8.16113 25.873C8.16113 26.35 8.5592 26.748 9.03616 26.748Z" fill="#606264"/>
<path d="M6.42235 28.4209C7.82868 28.4209 8.96873 27.2808 8.96873 25.8745C8.96873 24.4682 7.82868 23.3281 6.42235 23.3281C5.01603 23.3281 3.87598 24.4682 3.87598 25.8745C3.87598 27.2808 5.01603 28.4209 6.42235 28.4209Z" fill="#606264"/>
<path d="M6.42235 23.7646C6.50948 23.7654 6.59598 23.7697 6.68273 23.7778C6.8222 23.7908 6.59854 23.763 6.73588 23.7851C6.77769 23.7919 6.81916 23.8007 6.86057 23.8095C6.9426 23.827 7.0232 23.8506 7.10301 23.8762C7.1426 23.8889 7.18154 23.9035 7.22045 23.9181C7.26841 23.9373 7.27182 23.9384 7.23066 23.9214C7.25582 23.9325 7.28076 23.9441 7.30554 23.956C7.45385 24.026 7.5932 24.1137 7.7251 24.2107C7.65351 24.1581 7.75894 24.2399 7.76398 24.2441C7.7952 24.2703 7.82516 24.298 7.85507 24.3256C7.92491 24.3901 7.98954 24.46 8.05173 24.5319C8.05591 24.5367 8.13898 24.6416 8.0851 24.5707C8.10982 24.6032 8.13298 24.6369 8.1561 24.6705C8.20251 24.7381 8.24398 24.8089 8.28366 24.8805C8.3036 24.9165 8.32176 24.9534 8.33988 24.9903C8.34279 24.9962 8.39704 25.1202 8.3626 25.0368C8.39973 25.1267 8.42941 25.2194 8.45595 25.3128C8.47901 25.3941 8.49595 25.4769 8.51079 25.56C8.53526 25.6969 8.50282 25.4739 8.51813 25.6131C8.52285 25.6561 8.52541 25.6993 8.52798 25.7424C8.53313 25.8297 8.53166 25.9172 8.52798 26.0045C8.52613 26.0477 8.52213 26.0908 8.51813 26.1338C8.51198 26.187 8.51179 26.1907 8.51757 26.145C8.51329 26.173 8.50854 26.2009 8.50332 26.2288C8.47388 26.3937 8.42398 26.5545 8.36263 26.7101C8.39566 26.6264 8.34282 26.7505 8.33991 26.7566C8.32235 26.7938 8.30301 26.8301 8.2837 26.8664C8.23876 26.9508 8.1871 27.0313 8.13301 27.11C8.12938 27.1153 8.04863 27.2222 8.10369 27.1522C8.07851 27.1843 8.05179 27.2151 8.0251 27.2459C7.97176 27.3075 7.91407 27.3652 7.85513 27.4214C7.82563 27.4495 7.79482 27.4762 7.76404 27.5028C7.75919 27.507 7.65429 27.5901 7.72516 27.5362C7.6492 27.594 7.56873 27.6455 7.48685 27.6944C7.41623 27.7366 7.34266 27.7735 7.26832 27.8086C7.14638 27.8661 7.34635 27.7793 7.22051 27.8289C7.18185 27.8441 7.14245 27.8575 7.10307 27.8708C7.02363 27.8976 6.94229 27.9185 6.86063 27.9374C6.81935 27.947 6.77763 27.9544 6.73594 27.9618C6.68338 27.9699 6.67988 27.9708 6.72548 27.9645C6.69698 27.9679 6.66845 27.9708 6.63988 27.9732C6.4667 27.9893 6.29201 27.9835 6.11938 27.9645C6.21185 27.9747 6.07413 27.9556 6.06713 27.9544C6.02554 27.947 5.98435 27.9375 5.9432 27.9279C5.84813 27.906 5.75504 27.8762 5.66323 27.8435C5.63726 27.834 5.61148 27.824 5.58582 27.8137C5.66957 27.8467 5.54541 27.7939 5.53929 27.791C5.47735 27.7617 5.41738 27.7285 5.35804 27.6944C5.29891 27.6604 5.24204 27.6226 5.18585 27.584C5.16354 27.5685 5.14151 27.5525 5.11969 27.5362C5.19129 27.5889 5.08585 27.507 5.08082 27.5028C4.9767 27.4155 4.88191 27.3176 4.79307 27.2151C4.77545 27.1944 4.75813 27.1734 4.74116 27.1522C4.7972 27.2212 4.71563 27.1154 4.71185 27.11C4.67232 27.0545 4.63641 26.9964 4.60148 26.9378C4.56638 26.879 4.53513 26.818 4.50495 26.7566C4.49301 26.7318 4.48148 26.7069 4.47035 26.6817C4.50751 26.7639 4.45479 26.6389 4.45245 26.6327C4.40329 26.5017 4.36838 26.3659 4.34154 26.2287C4.33632 26.2009 4.33157 26.1729 4.32729 26.1449C4.34216 26.2371 4.32335 26.0976 4.32273 26.0909C4.31601 26.0186 4.3142 25.946 4.31357 25.8734C4.31295 25.8009 4.31723 25.7283 4.32273 25.656C4.32513 25.6274 4.32804 25.5989 4.33141 25.5704C4.32123 25.6629 4.34026 25.5251 4.34154 25.5181C4.36613 25.3804 4.40551 25.2458 4.45245 25.1142C4.46195 25.0882 4.47188 25.0624 4.48223 25.0368C4.4492 25.1205 4.50204 24.9964 4.50495 24.9903C4.53416 24.9283 4.56738 24.8684 4.60148 24.809C4.63548 24.7499 4.67323 24.693 4.71185 24.6368C4.72745 24.6145 4.74338 24.5925 4.7597 24.5707C4.70704 24.6422 4.78885 24.5369 4.79307 24.5318C4.88038 24.4277 4.97826 24.3329 5.08082 24.244C5.10151 24.2264 5.12248 24.2091 5.1437 24.1921C5.0747 24.2482 5.18051 24.1666 5.18585 24.1628C5.24145 24.1233 5.29948 24.0874 5.35804 24.0525C5.41685 24.0174 5.47785 23.9861 5.53929 23.9559C5.56404 23.944 5.58901 23.9325 5.61416 23.9213C5.53198 23.9585 5.65701 23.9058 5.66319 23.9035C5.79413 23.8543 5.93001 23.8194 6.0671 23.7925C6.09498 23.7873 6.12291 23.7826 6.15095 23.7783C6.05873 23.7932 6.19816 23.7744 6.20498 23.7737C6.2772 23.7671 6.34982 23.7652 6.42235 23.7646C6.66082 23.7626 6.85985 23.5672 6.85985 23.3271C6.85985 23.0902 6.66085 22.8876 6.42235 22.8896C5.64285 22.8962 4.90523 23.1975 4.34145 23.735C3.78185 24.2685 3.47229 25.0195 3.43995 25.786C3.4071 26.5634 3.71432 27.3206 4.2281 27.895C4.74363 28.4714 5.48545 28.7935 6.24801 28.8515C7.02795 28.9109 7.79104 28.6178 8.3827 28.1216C8.97588 27.6241 9.30963 26.8925 9.3931 26.1339C9.47916 25.352 9.20054 24.5846 8.72235 23.9761C8.24854 23.3732 7.51932 23.0084 6.76791 22.9129C6.65298 22.8983 6.53823 22.8906 6.42238 22.8897C6.18388 22.8877 5.98488 23.0902 5.98488 23.3272C5.98485 23.5672 6.18388 23.7626 6.42235 23.7646ZM23.8283 16.9199C25.3399 16.9199 26.8515 16.9199 28.3632 16.9199C28.4207 16.9199 28.4782 16.9199 28.5357 16.9199C29.0127 16.9199 29.4107 16.5219 29.4107 16.0449C29.4107 15.568 29.0127 15.1699 28.5357 15.1699C27.0241 15.1699 25.5125 15.1699 24.0009 15.1699C23.9433 15.1699 23.8858 15.1699 23.8283 15.1699C23.3513 15.1699 22.9533 15.568 22.9533 16.0449C22.9533 16.5219 23.3513 16.9199 23.8283 16.9199ZM3.87598 16.9199C4.83648 16.9199 5.79701 16.9199 6.75751 16.9199C8.73823 16.9199 10.7189 16.9199 12.6996 16.9199C14.3493 16.9199 15.9989 16.9199 17.6486 16.9199C17.9271 16.9199 18.2057 16.9199 18.4842 16.9199C18.9612 16.9199 19.3592 16.5219 19.3592 16.0449C19.3592 15.568 18.9612 15.1699 18.4842 15.1699C17.5237 15.1699 16.5632 15.1699 15.6027 15.1699C13.6219 15.1699 11.6413 15.1699 9.66054 15.1699C8.01088 15.1699 6.36123 15.1699 4.71157 15.1699C4.43304 15.1699 4.15451 15.1699 3.87598 15.1699C3.39901 15.1699 3.00098 15.568 3.00098 16.0449C3.00098 16.5219 3.39901 16.9199 3.87598 16.9199Z" fill="#606264"/>
<path d="M21.1645 18.5908C22.5709 18.5908 23.7109 17.4507 23.7109 16.0444C23.7109 14.6381 22.5709 13.498 21.1645 13.498C19.7582 13.498 18.6182 14.6381 18.6182 16.0444C18.6182 17.4507 19.7582 18.5908 21.1645 18.5908Z" fill="#606264"/>
<path d="M21.1646 13.9365C21.2517 13.9372 21.3383 13.9416 21.425 13.9497C21.5645 13.9626 21.3408 13.9349 21.4781 13.957C21.52 13.9638 21.5614 13.9726 21.6028 13.9815C21.6849 13.999 21.7654 14.0225 21.8453 14.0481C21.8849 14.0608 21.9238 14.0754 21.9627 14.09C22.0107 14.1093 22.0141 14.1104 21.9729 14.0933C21.9981 14.1045 22.023 14.116 22.0478 14.1279C22.1961 14.1979 22.3354 14.2857 22.4674 14.3827C22.3958 14.33 22.5012 14.4119 22.5063 14.4161C22.5375 14.4423 22.5674 14.4699 22.5974 14.4975C22.6672 14.562 22.7318 14.632 22.794 14.7038C22.7982 14.7087 22.8813 14.8136 22.8274 14.7427C22.8521 14.7752 22.8752 14.8089 22.8983 14.8425C22.9448 14.9101 22.9863 14.9809 23.0259 15.0525C23.0459 15.0885 23.064 15.1254 23.0821 15.1623C23.085 15.1682 23.1393 15.2922 23.1049 15.2088C23.142 15.2987 23.1717 15.3914 23.1982 15.4848C23.2212 15.566 23.2382 15.6489 23.253 15.7319C23.2775 15.8689 23.245 15.6459 23.2604 15.7851C23.2651 15.8281 23.2676 15.8713 23.2702 15.9144C23.2754 16.0017 23.2739 16.0892 23.2702 16.1765C23.2684 16.2197 23.2643 16.2628 23.2604 16.3058C23.2542 16.359 23.254 16.3627 23.2598 16.317C23.2555 16.345 23.2508 16.3729 23.2455 16.4008C23.2161 16.5657 23.1662 16.7265 23.1048 16.8821C23.1378 16.7984 23.085 16.9225 23.0821 16.9286C23.0645 16.9658 23.0452 17.0021 23.0259 17.0384C22.9809 17.1228 22.9293 17.2033 22.8752 17.282C22.8716 17.2873 22.7908 17.3942 22.8459 17.3242C22.8207 17.3563 22.794 17.3871 22.7673 17.4179C22.7139 17.4795 22.6562 17.5372 22.5973 17.5934C22.5678 17.6215 22.537 17.6482 22.5062 17.6748C22.5014 17.679 22.3965 17.7621 22.4674 17.7082C22.3914 17.766 22.3109 17.8175 22.229 17.8664C22.1584 17.9086 22.0848 17.9455 22.0105 17.9806C21.8886 18.0381 22.0885 17.9513 21.9627 18.0009C21.924 18.0161 21.8846 18.0295 21.8453 18.0428C21.7658 18.0696 21.6845 18.0905 21.6028 18.1094C21.5615 18.119 21.5198 18.1264 21.4781 18.1338C21.4256 18.1419 21.4221 18.1428 21.4677 18.1365C21.4392 18.1399 21.4107 18.1428 21.3821 18.1452C21.2089 18.1613 21.0342 18.1555 20.8616 18.1365C20.9541 18.1467 20.8164 18.1276 20.8093 18.1264C20.7677 18.119 20.7265 18.1095 20.6854 18.0999C20.5903 18.078 20.4972 18.0482 20.4054 18.0155C20.3794 18.006 20.3536 17.996 20.328 17.9857C20.4117 18.0187 20.2876 17.9659 20.2815 17.963C20.2195 17.9337 20.1596 17.9005 20.1002 17.8664C20.0411 17.8324 19.9842 17.7946 19.928 17.756C19.9057 17.7405 19.8837 17.7245 19.8619 17.7082C19.9335 17.7609 19.8281 17.679 19.823 17.6748C19.7189 17.5875 19.6241 17.4896 19.5353 17.3871C19.5176 17.3664 19.5003 17.3454 19.4834 17.3242C19.5394 17.3932 19.4579 17.2874 19.454 17.282C19.4145 17.2265 19.3786 17.1684 19.3437 17.1098C19.3086 17.051 19.2774 16.99 19.2471 16.9286C19.2352 16.9038 19.2237 16.8789 19.2125 16.8537C19.2497 16.9359 19.197 16.8109 19.1947 16.8047C19.1455 16.6737 19.1106 16.5379 19.0837 16.4007C19.0785 16.3729 19.0738 16.3449 19.0695 16.3169C19.0844 16.4091 19.0656 16.2696 19.0649 16.2629C19.0582 16.1906 19.0564 16.118 19.0558 16.0454C19.0551 15.9728 19.0594 15.9003 19.0649 15.828C19.0673 15.7994 19.0702 15.7709 19.0736 15.7424C19.0634 15.8349 19.0824 15.6971 19.0837 15.6901C19.1083 15.5525 19.1477 15.4178 19.1946 15.2862C19.2041 15.2603 19.2141 15.2345 19.2244 15.2088C19.1914 15.2926 19.2442 15.1684 19.2471 15.1623C19.2764 15.1004 19.3096 15.0404 19.3437 14.981C19.3777 14.9219 19.4154 14.865 19.454 14.8089C19.4696 14.7865 19.4856 14.7645 19.5019 14.7427C19.4492 14.8143 19.531 14.7089 19.5353 14.7038C19.6226 14.5997 19.7204 14.505 19.823 14.4161C19.8437 14.3985 19.8647 14.3811 19.8859 14.3642C19.8169 14.4202 19.9227 14.3386 19.9281 14.3349C19.9836 14.2953 20.0417 14.2594 20.1003 14.2245C20.1591 14.1894 20.2201 14.1581 20.2815 14.1279C20.3063 14.116 20.3312 14.1045 20.3564 14.0933C20.2742 14.1305 20.3992 14.0778 20.4054 14.0754C20.5364 14.0263 20.6722 13.9914 20.8094 13.9645C20.8372 13.9593 20.8652 13.9545 20.8932 13.9503C20.801 13.9651 20.9404 13.9463 20.9472 13.9457C21.0194 13.939 21.0921 13.9371 21.1646 13.9365C21.4031 13.9345 21.6021 13.739 21.6021 13.499C21.6021 13.262 21.4031 13.0595 21.1646 13.0615C20.3852 13.0681 19.6475 13.3694 19.0837 13.9069C18.5241 14.4405 18.2146 15.1914 18.1822 15.9579C18.1494 16.7352 18.4566 17.4925 18.9704 18.0669C19.4859 18.6432 20.2277 18.9654 20.9903 19.0234C21.7702 19.0827 22.5333 18.7897 23.125 18.2935C23.7181 17.796 24.0519 17.0643 24.1354 16.3058C24.2214 15.5238 23.9429 14.7565 23.4646 14.148C22.9908 13.5451 22.2616 13.1803 21.5102 13.0848C21.3952 13.0702 21.2805 13.0625 21.1646 13.0615C20.9261 13.0595 20.7271 13.2621 20.7271 13.499C20.7271 13.739 20.9262 13.9345 21.1646 13.9365ZM14.4468 7.0918C15.4343 7.0918 16.4217 7.0918 17.4091 7.0918C19.4027 7.0918 21.3963 7.0918 23.3899 7.0918C24.9368 7.0918 26.4836 7.0918 28.0304 7.0918C28.1989 7.0918 28.3673 7.0918 28.5357 7.0918C29.0127 7.0918 29.4107 6.69377 29.4107 6.2168C29.4107 5.73983 29.0127 5.3418 28.5357 5.3418C27.5483 5.3418 26.5609 5.3418 25.5734 5.3418C23.5798 5.3418 21.5862 5.3418 19.5926 5.3418C18.0458 5.3418 16.4989 5.3418 14.9521 5.3418C14.7837 5.3418 14.6152 5.3418 14.4468 5.3418C13.9698 5.3418 13.5718 5.73983 13.5718 6.2168C13.5718 6.69377 13.9699 7.0918 14.4468 7.0918ZM3.87598 7.0918C5.4317 7.0918 6.98738 7.0918 8.5431 7.0918C8.72966 7.0918 8.91623 7.0918 9.10279 7.0918C9.57976 7.0918 9.97779 6.69377 9.97779 6.2168C9.97779 5.73983 9.57976 5.3418 9.10279 5.3418C7.54707 5.3418 5.99138 5.3418 4.43566 5.3418C4.2491 5.3418 4.06254 5.3418 3.87598 5.3418C3.39901 5.3418 3.00098 5.73983 3.00098 6.2168C3.00098 6.69377 3.39901 7.0918 3.87598 7.0918Z" fill="#606264"/>
<path d="M11.7827 8.76273C13.1891 8.76273 14.3291 7.62267 14.3291 6.21633C14.3291 4.80999 13.1891 3.66992 11.7827 3.66992C10.3764 3.66992 9.23633 4.80999 9.23633 6.21633C9.23633 7.62267 10.3764 8.76273 11.7827 8.76273Z" fill="#606264"/>
<path d="M11.7827 4.10747C11.8698 4.10819 11.9563 4.11256 12.043 4.12062C12.1825 4.13359 11.9588 4.10581 12.0962 4.12797C12.138 4.13472 12.1795 4.14356 12.2209 4.15241C12.3029 4.16991 12.3835 4.1935 12.4633 4.21906C12.5029 4.23172 12.5418 4.24637 12.5807 4.26097C12.6287 4.28022 12.6321 4.28131 12.591 4.26428C12.6161 4.27541 12.6411 4.28694 12.6658 4.29887C12.8142 4.36884 12.9535 4.45662 13.0854 4.55366C13.0138 4.501 13.1192 4.58281 13.1243 4.58703C13.1555 4.61322 13.1855 4.64087 13.2154 4.6685C13.2852 4.733 13.3498 4.80297 13.412 4.87478C13.4162 4.87962 13.4993 4.98453 13.4454 4.91366C13.4701 4.94619 13.4933 4.97984 13.5164 5.0135C13.5628 5.08103 13.6043 5.15181 13.644 5.22344C13.6639 5.25944 13.6821 5.29634 13.7002 5.33325C13.7031 5.33916 13.7573 5.46312 13.7229 5.37978C13.76 5.46962 13.7897 5.56234 13.8162 5.65578C13.8393 5.737 13.8562 5.81984 13.8711 5.90287C13.8956 6.03984 13.8631 5.81681 13.8784 5.95606C13.8832 5.99903 13.8857 6.04222 13.8883 6.08537C13.8934 6.17266 13.892 6.26019 13.8883 6.34747C13.8864 6.39066 13.8824 6.43375 13.8784 6.47678C13.8723 6.53 13.8721 6.53369 13.8779 6.48791C13.8736 6.51594 13.8688 6.54387 13.8636 6.57175C13.8342 6.73669 13.7843 6.89741 13.7229 7.05306C13.756 6.96931 13.7031 7.09347 13.7002 7.09959C13.6827 7.13678 13.6633 7.17309 13.644 7.20937C13.5991 7.29372 13.5474 7.37431 13.4933 7.453C13.4897 7.45825 13.4089 7.56519 13.464 7.49516C13.4388 7.52722 13.4121 7.55803 13.3854 7.58884C13.3321 7.65044 13.2744 7.70812 13.2154 7.76431C13.1859 7.79244 13.1551 7.81912 13.1243 7.84578C13.1195 7.84997 13.0146 7.93303 13.0855 7.87916C13.0095 7.93694 12.929 7.98853 12.8472 8.03737C12.7765 8.07953 12.703 8.11647 12.6286 8.15153C12.5067 8.20906 12.7067 8.12222 12.5808 8.17184C12.5422 8.18709 12.5027 8.20044 12.4634 8.21375C12.3839 8.24062 12.3026 8.26156 12.2209 8.28041C12.1797 8.28994 12.1379 8.29737 12.0962 8.30484C12.0437 8.31291 12.0402 8.31378 12.0858 8.30747C12.0573 8.31084 12.0287 8.31375 12.0002 8.31616C11.827 8.33228 11.6523 8.32647 11.4797 8.30747C11.5722 8.31766 11.4344 8.29862 11.4274 8.29734C11.3858 8.28994 11.3447 8.28041 11.3035 8.27091C11.2084 8.24897 11.1153 8.21919 11.0235 8.18641C10.9976 8.17691 10.9718 8.16697 10.9461 8.15662C11.0299 8.18966 10.9057 8.13681 10.8996 8.13391C10.8377 8.10469 10.7777 8.07147 10.7183 8.03734C10.6592 8.00334 10.6023 7.96559 10.5462 7.92697C10.5238 7.91137 10.5018 7.89544 10.48 7.87912C10.5516 7.93178 10.4462 7.84997 10.4411 7.84575C10.337 7.75844 10.2422 7.66056 10.1534 7.558C10.1357 7.53731 10.1184 7.51634 10.1015 7.49512C10.1575 7.56412 10.0759 7.45831 10.0722 7.45297C10.0326 7.39741 9.99671 7.33934 9.96178 7.28081C9.92668 7.222 9.89543 7.161 9.86521 7.09956C9.85328 7.07478 9.84175 7.04984 9.83062 7.02469C9.86778 7.10684 9.81506 6.98184 9.81271 6.97562C9.76356 6.84469 9.72865 6.70881 9.70181 6.57172C9.69659 6.54384 9.69184 6.51591 9.68756 6.48787C9.70243 6.58012 9.68362 6.44066 9.683 6.43384C9.67628 6.36156 9.67446 6.28894 9.67384 6.21641C9.67321 6.14381 9.6775 6.07128 9.683 5.99897C9.6854 5.97037 9.68831 5.94184 9.69168 5.91337C9.6815 6.00584 9.70053 5.86812 9.70181 5.86112C9.7264 5.72344 9.76578 5.58878 9.81271 5.45722C9.82221 5.43125 9.83215 5.40547 9.8425 5.37981C9.80946 5.46356 9.86231 5.33941 9.86521 5.33328C9.89443 5.27134 9.92765 5.21137 9.96178 5.15203C9.99578 5.09291 10.0335 5.03603 10.0722 4.97984C10.0877 4.95753 10.1037 4.9355 10.12 4.91369C10.0673 4.98528 10.1492 4.87984 10.1534 4.87481C10.2407 4.77069 10.3386 4.67591 10.4411 4.58706C10.4618 4.56944 10.4828 4.55212 10.504 4.53516C10.435 4.59119 10.5408 4.50962 10.5462 4.50584C10.6017 4.46631 10.6598 4.43041 10.7183 4.39547C10.7772 4.36037 10.8382 4.32912 10.8996 4.29891C10.9243 4.28697 10.9493 4.27544 10.9745 4.26431C10.8923 4.30147 11.0173 4.24875 11.0235 4.24641C11.1544 4.19725 11.2903 4.16234 11.4274 4.1355C11.4553 4.13028 11.4832 4.12553 11.5112 4.12125C11.419 4.13612 11.5585 4.11731 11.5653 4.11669C11.6375 4.10987 11.7101 4.10806 11.7827 4.10747C12.0211 4.10547 12.2202 3.90997 12.2202 3.66997C12.2202 3.433 12.0212 3.23047 11.7827 3.23247C11.0032 3.23903 10.2655 3.54037 9.70175 4.07787C9.14215 4.61141 8.83259 5.36237 8.80025 6.12881C8.7674 6.90619 9.07462 7.66344 9.5884 8.23784C10.1039 8.81419 10.8457 9.13634 11.6083 9.19437C12.3882 9.25372 13.1513 8.96069 13.743 8.46444C14.3362 7.96691 14.6699 7.23528 14.7534 6.47672C14.8395 5.69478 14.5608 4.92744 14.0827 4.31891C13.6088 3.71597 12.8796 3.35122 12.1282 3.25569C12.0132 3.24109 11.8985 3.23347 11.7827 3.23247C11.5442 3.23047 11.3452 3.43297 11.3452 3.66994C11.3452 3.90997 11.5442 4.10544 11.7827 4.10747Z" fill="#606264"/>
</svg>
