<svg width="48" height="48" viewBox="0 0 48 48" fill="none" xmlns="http://www.w3.org/2000/svg">
<rect width="48" height="48" rx="24" fill="white"/>
<path d="M31.53 17.0008H30.93C30.6922 15.3322 29.8604 13.8055 28.5874 12.7009C27.3143 11.5964 25.6854 10.9883 24 10.9883C22.3146 10.9883 20.6857 11.5964 19.4126 12.7009C18.1396 13.8055 17.3078 15.3322 17.07 17.0008H16.47C15.0201 17.0035 13.6303 17.5806 12.605 18.6059C11.5798 19.6311 11.0026 21.0209 11 22.4708V23.5308C11.0026 24.9807 11.5798 26.3705 12.605 27.3958C13.6303 28.421 15.0201 28.9982 16.47 29.0008C16.7352 29.0008 16.9896 28.8955 17.1771 28.7079C17.3646 28.5204 17.47 28.266 17.47 28.0008C17.47 27.7356 17.3646 27.4812 17.1771 27.2937C16.9896 27.1062 16.7352 27.0008 16.47 27.0008C15.5505 26.9982 14.6694 26.6317 14.0193 25.9816C13.3691 25.3314 13.0026 24.4503 13 23.5308V22.4708C13.0026 21.5513 13.3691 20.6702 14.0193 20.0201C14.6694 19.3699 15.5505 19.0034 16.47 19.0008H18C18.2652 19.0008 18.5196 18.8955 18.7071 18.7079C18.8946 18.5204 19 18.266 19 18.0008C19 16.6747 19.5268 15.403 20.4645 14.4653C21.4021 13.5276 22.6739 13.0008 24 13.0008C25.3261 13.0008 26.5979 13.5276 27.5355 14.4653C28.4732 15.403 29 16.6747 29 18.0008C29 18.266 29.1054 18.5204 29.2929 18.7079C29.4804 18.8955 29.7348 19.0008 30 19.0008H31.53C32.4495 19.0034 33.3306 19.3699 33.9807 20.0201C34.6309 20.6702 34.9974 21.5513 35 22.4708V23.5308C34.9974 24.4503 34.6309 25.3314 33.9807 25.9816C33.3306 26.6317 32.4495 26.9982 31.53 27.0008C31.2648 27.0008 31.0104 27.1062 30.8229 27.2937C30.6354 27.4812 30.53 27.7356 30.53 28.0008C30.53 28.266 30.6354 28.5204 30.8229 28.7079C31.0104 28.8955 31.2648 29.0008 31.53 29.0008C32.9799 28.9982 34.3697 28.421 35.395 27.3958C36.4202 26.3705 36.9974 24.9807 37 23.5308V22.4708C36.9974 21.0209 36.4202 19.6311 35.395 18.6059C34.3697 17.5806 32.9799 17.0035 31.53 17.0008Z" fill="#4B5563"/>
<path d="M24.7099 21.2909C24.6148 21.1998 24.5027 21.1285 24.3799 21.0809C24.1365 20.9809 23.8634 20.9809 23.6199 21.0809C23.4972 21.1285 23.385 21.1998 23.2899 21.2909L19.2899 25.2909C19.1962 25.3838 19.1218 25.4944 19.071 25.6163C19.0203 25.7382 18.9941 25.8689 18.9941 26.0009C18.9941 26.1329 19.0203 26.2636 19.071 26.3854C19.1218 26.5073 19.1962 26.6179 19.2899 26.7109C19.3829 26.8046 19.4935 26.879 19.6154 26.9298C19.7372 26.9805 19.8679 27.0067 19.9999 27.0067C20.132 27.0067 20.2627 26.9805 20.3845 26.9298C20.5064 26.879 20.617 26.8046 20.7099 26.7109L22.9999 24.4109V36.0009C22.9999 36.2661 23.1053 36.5204 23.2928 36.708C23.4804 36.8955 23.7347 37.0009 23.9999 37.0009C24.2652 37.0009 24.5195 36.8955 24.707 36.708C24.8946 36.5204 24.9999 36.2661 24.9999 36.0009V24.4109L27.2899 26.7109C27.3829 26.8046 27.4935 26.879 27.6154 26.9298C27.7372 26.9805 27.8679 27.0067 27.9999 27.0067C28.132 27.0067 28.2627 26.9805 28.3845 26.9298C28.5064 26.879 28.617 26.8046 28.7099 26.7109C28.8037 26.6179 28.8781 26.5073 28.9288 26.3854C28.9796 26.2636 29.0057 26.1329 29.0057 26.0009C29.0057 25.8689 28.9796 25.7382 28.9288 25.6163C28.8781 25.4944 28.8037 25.3838 28.7099 25.2909L24.7099 21.2909Z" fill="#4B5563"/>
</svg>
