<svg width="303" height="160" viewBox="0 0 303 160" fill="none" xmlns="http://www.w3.org/2000/svg">
<g clip-path="url(#clip0_1592_4156)">
<g filter="url(#filter0_d_1592_4156)">
<mask id="path-1-inside-1_1592_4156" fill="white">
<path d="M26 43C26 34.1634 33.1634 27 42 27H270C278.837 27 286 34.1634 286 43V201H26V43Z"/>
</mask>
<path d="M26 43C26 34.1634 33.1634 27 42 27H270C278.837 27 286 34.1634 286 43V201H26V43Z" fill="white"/>
<path d="M25 43C25 33.6112 32.6112 26 42 26H270C279.389 26 287 33.6112 287 43H285C285 34.7157 278.284 28 270 28H42C33.7157 28 27 34.7157 27 43H25ZM286 201H26H286ZM25 201V43C25 33.6112 32.6112 26 42 26V28C33.7157 28 27 34.7157 27 43V201H25ZM270 26C279.389 26 287 33.6112 287 43V201H285V43C285 34.7157 278.284 28 270 28V26Z" fill="#F0F0F0" mask="url(#path-1-inside-1_1592_4156)"/>
</g>
<circle cx="62" cy="63" r="12" fill="#5158F6"/>
<path d="M58.0326 57.4987C57.6807 57.4879 57.3285 57.5034 56.9821 57.5701C56.7312 57.6183 56.4732 57.7106 56.2646 57.8606C56.0488 58.0158 55.8694 58.2121 55.7546 58.454C55.6233 58.7307 55.564 59.0129 55.5236 59.3144C55.4841 59.6103 55.4747 59.9094 55.4712 60.2075C55.466 60.6569 55.4464 61.0989 55.3871 61.545C55.3923 61.5063 55.3975 61.4675 55.4027 61.4287C55.3376 61.912 55.2526 62.3923 55.196 62.8767C55.1452 63.3104 55.1371 63.7433 55.1439 64.1794C55.1568 65.0052 55.2005 65.8332 55.3031 66.653C55.3526 67.0484 55.405 67.4508 55.5095 67.8363C55.5996 68.1689 55.7863 68.4898 56.0541 68.7101C56.5952 69.1552 57.3048 69.2463 57.9836 69.2629C58.3056 69.2707 58.6277 69.2594 58.9496 69.2527C59.3207 69.245 59.6916 69.2511 60.0625 69.2651C60.952 69.2986 61.8397 69.3709 62.7275 69.4337C63.1463 69.4633 63.5653 69.4915 63.9846 69.5113C64.4122 69.5316 64.8353 69.5221 65.262 69.4865C65.7186 69.4483 66.1733 69.3894 66.6282 69.3343C66.846 69.3079 67.0639 69.2824 67.2823 69.2606C67.4143 69.2474 67.5474 69.2377 67.6774 69.2099C68.031 69.1344 68.3182 68.9086 68.5159 68.6125C68.7162 68.3124 68.8076 67.9379 68.8654 67.5865C68.9532 67.054 68.9831 66.5137 69.0021 65.9749C69.0272 65.2599 69.032 64.5442 69.0414 63.8288C69.0472 63.3857 69.0539 62.9426 69.0627 62.4995C69.0725 62.0112 69.0917 61.5261 69.0473 61.0388C69.0047 60.5711 68.9258 60.1076 68.8795 59.6402C68.857 59.4123 68.8477 59.1848 68.8447 58.9559C68.8423 58.7713 68.8205 58.5808 68.7684 58.4033C68.7028 58.1797 68.5805 57.9616 68.4049 57.8058C68.224 57.6453 68.0079 57.5403 67.7749 57.4784C67.2944 57.3508 66.7751 57.3736 66.2826 57.3737C66.0441 57.3737 65.8451 57.5727 65.8451 57.8112C65.8451 58.0497 66.0441 58.2487 66.2826 58.2487C66.6565 58.2486 67.0343 58.2395 67.4059 58.2891C67.3671 58.2839 67.3283 58.2787 67.2896 58.2735C67.4094 58.2902 67.5279 58.314 67.6429 58.352C67.682 58.365 67.7939 58.4119 67.6326 58.3438C67.6583 58.3546 67.6833 58.3669 67.7081 58.3797C67.7323 58.3922 67.7556 58.4063 67.7786 58.4208C67.79 58.428 67.801 58.4357 67.812 58.4434C67.8654 58.4808 67.7151 58.3666 67.7659 58.4074C67.8041 58.438 67.8385 58.473 67.8703 58.5102C67.9129 58.5599 67.7962 58.4115 67.8353 58.4643C67.8435 58.4754 67.8512 58.4869 67.8588 58.4984C67.8744 58.5219 67.8882 58.5466 67.9013 58.5716C67.9081 58.5846 67.9143 58.5978 67.9204 58.611C67.9495 58.6735 67.8741 58.4969 67.8995 58.5619C67.911 58.5912 67.9204 58.6212 67.9293 58.6514C67.9488 58.7179 67.961 58.7864 67.9702 58.855C67.965 58.8162 67.9598 58.7774 67.9546 58.7387C67.9789 58.9361 67.9692 59.1361 67.9803 59.3345C67.9934 59.5666 68.0198 59.7979 68.0488 60.0285C68.1081 60.4993 68.1797 60.9686 68.1998 61.4433C68.2202 61.9239 68.1889 62.4087 68.1805 62.8896C68.173 63.3163 68.1675 63.743 68.162 64.1698C68.1543 64.7655 68.148 65.3613 68.1277 65.9567C68.1125 66.4034 68.0908 66.8514 68.032 67.2948C68.0373 67.2561 68.0425 67.2173 68.0477 67.1785C68.0217 67.3718 67.9882 67.5643 67.9374 67.7526C67.9161 67.8317 67.8911 67.9097 67.8619 67.9862C67.8553 68.0033 67.8485 68.0202 67.8414 68.0371C67.9114 67.8689 67.8781 67.9513 67.8606 67.9894C67.8452 68.0229 67.8284 68.0557 67.8107 68.088C67.795 68.1163 67.7781 68.1438 67.7604 68.1708C67.7518 68.1839 67.7428 68.1967 67.7337 68.2094C67.6845 68.2778 67.8176 68.1043 67.7648 68.1693C67.7262 68.2168 67.6827 68.2603 67.6353 68.2991C67.5826 68.3425 67.7487 68.2143 67.684 68.2613C67.6724 68.2698 67.6604 68.2777 67.6484 68.2856C67.6223 68.3026 67.5949 68.3178 67.5671 68.3319C67.5541 68.3384 67.5408 68.3445 67.5275 68.3504C67.4909 68.3666 67.6673 68.2943 67.5842 68.3257C67.5534 68.3372 67.522 68.3468 67.4904 68.3553C67.4441 68.3676 67.3969 68.3763 67.3496 68.3828C67.3883 68.3776 67.4271 68.3724 67.4659 68.3672C67.0704 68.4191 66.6717 68.4541 66.2756 68.5023C65.8226 68.5573 65.3689 68.6101 64.9131 68.6364C64.4985 68.6605 64.0868 68.6434 63.6725 68.6202C63.242 68.596 62.8119 68.5651 62.3818 68.534C61.5012 68.4705 60.6201 68.4023 59.7372 68.3798C59.0699 68.3627 58.4012 68.4163 57.7346 68.3779C57.6164 68.3711 57.4986 68.3601 57.3812 68.3445C57.42 68.3498 57.4588 68.355 57.4975 68.3602C57.2784 68.33 57.0614 68.2821 56.8561 68.1984C57.02 68.2652 56.8528 68.1942 56.812 68.1729C56.7644 68.1479 56.7186 68.1198 56.674 68.0898C56.6564 68.0779 56.6391 68.0653 56.622 68.0525C56.7531 68.15 56.6654 68.0858 56.6362 68.0605C56.5957 68.0255 56.5582 67.9872 56.5226 67.9472C56.5081 67.931 56.4945 67.9141 56.4809 67.8972C56.5825 68.0242 56.5127 67.9375 56.4912 67.9056C56.4593 67.8584 56.4316 67.8084 56.4062 67.7575C56.3904 67.7256 56.3528 67.6358 56.4138 67.7808C56.4019 67.7526 56.3915 67.7237 56.3814 67.6948C56.36 67.6335 56.3436 67.5707 56.3295 67.5074C56.2666 67.2257 56.2169 66.9422 56.1781 66.6562C56.1833 66.6949 56.1885 66.7337 56.1937 66.7725C56.1038 66.1016 56.0586 65.4249 56.0338 64.7487C56.0223 64.435 56.0163 64.1211 56.0156 63.8073C56.0148 63.4218 56.0478 63.0387 56.0986 62.6568C56.0934 62.6955 56.0881 62.7343 56.0829 62.7731C56.1746 62.0932 56.3069 61.4177 56.3385 60.731C56.3603 60.2581 56.3357 59.7853 56.3987 59.3145C56.3935 59.3533 56.3883 59.392 56.3831 59.4308C56.407 59.2571 56.442 59.0848 56.5013 58.9194C56.507 58.9034 56.5132 58.8874 56.5195 58.8716C56.5353 58.8326 56.5254 58.8557 56.4899 58.9411C56.4947 58.9296 56.4999 58.9183 56.505 58.9069C56.5218 58.8699 56.5406 58.8339 56.5607 58.7987C56.5783 58.7678 56.5976 58.7379 56.6179 58.7087C56.6744 58.6276 56.559 58.7823 56.5917 58.7412C56.6038 58.726 56.6165 58.7114 56.6294 58.6969C56.6526 58.6707 56.6775 58.6461 56.7032 58.6224C56.7176 58.6091 56.7326 58.5965 56.7478 58.584C56.7881 58.5508 56.635 58.6674 56.7161 58.6092C56.7803 58.5629 56.8501 58.5248 56.922 58.4919C57.0024 58.4551 56.8176 58.5346 56.8786 58.5101C56.8997 58.5016 56.9211 58.4938 56.9426 58.4862C56.9878 58.4703 57.0338 58.4568 57.0801 58.4445C57.1776 58.4186 57.2772 58.401 57.3772 58.3874C57.3384 58.3926 57.2996 58.3978 57.2609 58.403C57.5166 58.3696 57.7751 58.3658 58.0326 58.3738C58.2711 58.3811 58.4701 58.1692 58.4701 57.9363C58.4701 57.6922 58.2709 57.506 58.0326 57.4987Z" fill="white"/>
<path d="M60.8296 58.3269C61.7134 58.3258 62.5987 58.2253 63.4794 58.3416C63.4406 58.3364 63.4018 58.3312 63.3631 58.326C63.4331 58.3356 63.5029 58.3463 63.5727 58.3582C63.6932 58.3787 63.8007 58.378 63.9098 58.3141C64.0076 58.2568 64.0807 58.162 64.1108 58.0526C64.1692 57.8403 64.0406 57.5545 63.8053 57.5144C63.3041 57.4291 62.8008 57.4018 62.2932 57.4108C61.8051 57.4195 61.3178 57.4513 60.8296 57.4519C60.5911 57.4522 60.3921 57.6507 60.3921 57.8894C60.3921 58.1277 60.5911 58.3272 60.8296 58.3269Z" fill="white"/>
<path d="M64.5953 57.2173C64.5353 57.8993 64.6254 58.5817 64.6265 59.2642C64.6269 59.5026 64.8252 59.7017 65.064 59.7017C65.3022 59.7017 65.5019 59.5027 65.5015 59.2642C65.5004 58.5817 65.4103 57.8993 65.4703 57.2173C65.4912 56.9793 65.2554 56.7798 65.0328 56.7798C64.7785 56.7798 64.6162 56.9798 64.5953 57.2173Z" fill="white"/>
<path d="M64.2515 59.8267C64.8119 59.7652 65.3755 59.7488 65.939 59.7485C66.1775 59.7484 66.3765 59.5496 66.3765 59.311C66.3765 59.0726 66.1775 58.8734 65.939 58.8735C65.3755 58.8738 64.8119 58.8902 64.2515 58.9517C64.1309 58.9649 64.031 58.9909 63.9421 59.0798C63.8604 59.1615 63.814 59.2736 63.814 59.3892C63.814 59.608 64.0139 59.8527 64.2515 59.8267Z" fill="white"/>
<path d="M58.4077 59.827C58.679 59.8263 58.9482 59.7951 59.2178 59.7693C59.5722 59.7354 59.9268 59.7212 60.2827 59.7332C60.5212 59.7413 60.7202 59.5281 60.7202 59.2957C60.7202 59.0511 60.521 58.8663 60.2827 58.8582C59.9336 58.8464 59.5859 58.86 59.2382 58.8924C58.9617 58.9182 58.6859 58.9512 58.4077 58.952C58.1692 58.9526 57.9702 59.1505 57.9702 59.3895C57.9702 59.6275 58.1692 59.8276 58.4077 59.827Z" fill="white"/>
<path d="M58.9701 57.1392C58.9223 57.528 58.9046 57.9176 58.9228 58.3089C58.9376 58.6276 58.9695 58.9449 58.9701 59.2642C58.9706 59.5026 59.1688 59.7017 59.4076 59.7017C59.6458 59.7017 59.8456 59.5027 59.8451 59.2642C59.8446 58.9516 59.8147 58.6407 59.7987 58.3287C59.7785 57.9309 59.7965 57.5344 59.8451 57.1392C59.8584 57.031 59.7905 56.9033 59.717 56.8298C59.6353 56.7481 59.5232 56.7017 59.4076 56.7017C59.2921 56.7017 59.18 56.7481 59.0983 56.8298C59.0085 56.9195 58.985 57.0181 58.9701 57.1392Z" fill="white"/>
<path d="M56.1577 61.9987C58.1673 62.061 60.1779 62.0144 62.1879 62.0143C64.1781 62.0143 66.1683 61.9994 68.1585 61.9987C68.1999 61.9987 68.2413 61.9987 68.2827 61.9987C68.5212 61.9987 68.7202 61.7997 68.7202 61.5612C68.7202 61.3227 68.5212 61.1237 68.2827 61.1237C66.2913 61.1238 64.2999 61.1385 62.3084 61.1393C60.2985 61.1401 58.2878 61.1853 56.2782 61.1274C56.2381 61.1262 56.1979 61.125 56.1577 61.1237C55.9192 61.1163 55.7202 61.3283 55.7202 61.5612C55.7202 61.8053 55.9194 61.9913 56.1577 61.9987Z" fill="white"/>
<path d="M57.9443 64.3281C57.9619 64.3256 57.9796 64.3231 57.9972 64.3207C57.9584 64.3259 57.9197 64.3311 57.8809 64.3364C58.3455 64.2742 58.8144 64.248 59.2826 64.2331C59.5209 64.2255 59.7201 64.0399 59.7201 63.7956C59.7201 63.5629 59.521 63.3505 59.2826 63.3581C58.7567 63.3749 58.2329 63.4109 57.7117 63.4843C57.6063 63.4992 57.5015 63.598 57.4503 63.6854C57.3911 63.7865 57.3751 63.9096 57.4061 64.0225C57.4362 64.1319 57.5094 64.2267 57.6072 64.284C57.7186 64.3492 57.8219 64.3454 57.9443 64.3281Z" fill="white"/>
<path d="M57.9077 66.8739C58.3662 66.8187 58.8233 66.8728 59.2827 66.8739C59.5212 66.8745 59.7202 66.6745 59.7202 66.4364C59.7202 66.1975 59.5212 65.9995 59.2827 65.9989C58.8233 65.9978 58.3662 65.9437 57.9077 65.9989C57.7868 66.0135 57.6879 66.0375 57.5984 66.1271C57.5167 66.2088 57.4702 66.3209 57.4702 66.4364C57.4702 66.6533 57.6704 66.9026 57.9077 66.8739Z" fill="white"/>
<path d="M61.4077 66.8427C61.908 66.8421 62.4095 66.8136 62.9077 66.874C63.145 66.9027 63.3452 66.6532 63.3452 66.4365C63.3452 66.3209 63.2987 66.2088 63.2171 66.1271C63.1275 66.0375 63.0287 66.0136 62.9077 65.999C62.4095 65.9386 61.908 65.9671 61.4077 65.9677C61.1692 65.968 60.9702 66.1665 60.9702 66.4052C60.9702 66.6435 61.1692 66.843 61.4077 66.8427Z" fill="white"/>
<path d="M61.7031 64.3281C62.1217 64.3298 62.5359 64.4033 62.9545 64.405C63.193 64.406 63.392 64.2053 63.392 63.9675C63.392 63.7283 63.193 63.531 62.9545 63.53C62.5359 63.5283 62.1217 63.4548 61.7031 63.4531C61.4646 63.4522 61.2656 63.6529 61.2656 63.8906C61.2656 64.1298 61.4646 64.3272 61.7031 64.3281Z" fill="white"/>
<path d="M65.2031 64.4529C65.643 64.4518 66.0771 64.3747 66.517 64.3735C66.7555 64.3729 66.9545 64.175 66.9545 63.936C66.9545 63.698 66.7555 63.4979 66.517 63.4985C66.0771 63.4997 65.643 63.5768 65.2031 63.5779C64.9646 63.5785 64.7656 63.7764 64.7656 64.0154C64.7656 64.2534 64.9646 64.4535 65.2031 64.4529Z" fill="white"/>
<path d="M82 71C82 59.9543 90.9543 51 102 51H144C150.627 51 156 56.3726 156 63C156 69.6274 150.627 75 144 75H86C83.7909 75 82 73.2091 82 71Z" fill="#F9F9FB"/>
<circle cx="12" cy="12" r="11.5" transform="matrix(-1 0 0 1 262 87)" fill="#F9F9FB" stroke="#F9F9FB"/>
<path d="M230 107C230 95.9543 221.046 87 210 87H168C161.373 87 156 92.3726 156 99C156 105.627 161.373 111 168 111H226C228.209 111 230 109.209 230 107Z" fill="#F9F9FB"/>
<path d="M50 143C50 131.954 58.9543 123 70 123H99C105.627 123 111 128.373 111 135C111 141.627 105.627 147 99 147H54C51.7909 147 50 145.209 50 143Z" fill="#F9F9FB"/>
<circle cx="72" cy="135" r="3" fill="#D6D6DA"/>
<circle cx="82" cy="135" r="3" fill="#D6D6DA"/>
<circle cx="92" cy="135" r="3" fill="#D6D6DA"/>
</g>
<defs>
<filter id="filter0_d_1592_4156" x="-10" y="-13" width="332" height="246" filterUnits="userSpaceOnUse" color-interpolation-filters="sRGB">
<feFlood flood-opacity="0" result="BackgroundImageFix"/>
<feColorMatrix in="SourceAlpha" type="matrix" values="0 0 0 0 0 0 0 0 0 0 0 0 0 0 0 0 0 0 127 0" result="hardAlpha"/>
<feMorphology radius="16" operator="dilate" in="SourceAlpha" result="effect1_dropShadow_1592_4156"/>
<feOffset dy="-4"/>
<feGaussianBlur stdDeviation="10"/>
<feComposite in2="hardAlpha" operator="out"/>
<feColorMatrix type="matrix" values="0 0 0 0 0.8 0 0 0 0 0.8 0 0 0 0 0.8 0 0 0 0.15 0"/>
<feBlend mode="normal" in2="BackgroundImageFix" result="effect1_dropShadow_1592_4156"/>
<feBlend mode="normal" in="SourceGraphic" in2="effect1_dropShadow_1592_4156" result="shape"/>
</filter>
<clipPath id="clip0_1592_4156">
<rect width="303" height="160" fill="white"/>
</clipPath>
</defs>
</svg>
