<svg width="240" height="240" viewBox="0 0 240 240" fill="none" xmlns="http://www.w3.org/2000/svg">
<path d="M187.188 38.3188C181.573 45.7916 179.201 55.6064 178.359 65.0001C172.58 59.9078 163.547 58.932 156.691 63.7813C155.179 64.2918 65.0394 128.57 63.6191 129.583C54.6631 135.927 54.3635 146.627 59.3105 153.807C50.1755 151.505 40.2828 150.419 31.3097 153.425C23.6316 156.034 17.7128 161.588 15.4722 168.278C12.841 176.128 15.8253 184.992 22.4222 188.903C29.6876 193.164 40.5401 190.748 44.2035 181.439C47.3878 184.4 51.7378 186.505 55.4941 185.981C59.4222 185.478 62.8003 182.602 64.4316 178.875C67.4316 181.391 71.6222 182.942 75.516 182.897C77.113 182.871 78.6931 182.626 80.2214 182.284C85.2519 189.046 90.4904 196.062 95.241 202.413C103.619 213.613 119.499 215.729 130.519 207.206C144.637 196.285 134.609 204.09 203.153 155.372C220.021 143.487 228.006 138.137 218.341 119.978C213.578 111.027 206.575 104.002 201.013 96.1282L200.219 95.0054C200.77 93.9571 201.26 92.9093 201.613 91.8782C202.994 87.911 202.76 83.2985 201.197 79.4626C205.466 79.1345 209.488 76.7595 211.297 73.0329C213.057 69.4017 212.357 64.386 210.438 60.2563C220.918 59.8181 227.009 49.8349 225.147 41.2032C223.453 33.4298 215.691 27.5688 207.091 27.5688C199.716 27.5688 192.278 31.586 187.188 38.3188ZM75.4441 178.097C71.4535 178.199 67.2441 175.897 65.4097 172.756C65.2597 171.331 64.8316 169.963 64.1597 168.764C63.616 167.791 62.4566 167.322 61.4003 167.633C60.3285 167.942 59.6097 168.95 59.6691 170.064C59.741 171.447 60.0847 172.795 60.6722 174.049C60.6128 177.181 58.2441 180.789 54.8628 181.224C51.9285 181.617 47.4597 178.816 45.3035 175.378C45.2816 173.424 44.8878 171.488 44.1472 169.739C43.2577 167.62 40.1964 167.867 39.616 170.061C39.0972 172.03 39.391 174.244 40.4691 176.525C40.2503 179.275 38.9972 181.884 37.0535 183.592C33.8191 186.444 28.566 186.945 24.8597 184.769C20.2503 182.036 18.1285 175.463 20.0222 169.803C21.791 164.524 26.5878 160.1 32.8441 157.972C42.4768 154.741 54.2809 156.964 63.8726 160.156C67.3796 164.963 72.0042 171.223 77.0089 177.963C76.4874 178.015 75.9687 178.088 75.4441 178.097ZM214.103 122.234C222.157 137.358 216.047 140.347 200.385 151.453C130.724 200.953 141.733 192.473 127.582 203.409C118.667 210.3 105.843 208.578 99.0847 199.538C85.9785 182.019 69.141 159.417 63.3503 151.227C62.1578 149.541 61.43 147.67 61.1195 145.729C61.4424 145.809 132.311 150.456 132.632 150.456C145.939 150.456 149.512 144.264 153.882 131.474C159.106 116.255 162.427 100.458 172.445 66.7228C174.314 67.6331 175.955 69.0038 177.182 70.7407C177.408 71.0615 197.67 99.7151 197.094 98.9001C202.787 106.957 209.605 113.785 214.103 122.234ZM220.457 42.2188C221.419 46.6829 219.157 51.7767 215.2 54.0688C212.813 55.4548 209.766 55.8423 206.922 55.1298C205.075 53.3048 202.988 52.2673 200.857 52.1204C198.544 51.9781 197.405 54.8085 199.097 56.3079C200.616 57.6579 202.357 58.6767 204.282 59.3454C207.025 62.6673 208.335 68.136 206.978 70.9376C205.507 73.9735 201.263 75.486 197.713 74.3126C196.678 73.3204 195.482 72.5517 194.147 72.0251C193.122 71.6235 191.932 71.9735 191.294 72.8907C190.66 73.8079 190.738 75.0407 191.485 75.8673C192.494 76.9829 193.691 77.847 195.053 78.4423C197.432 81.1704 198.565 86.0584 197.011 90.4688L182.873 70.4724C183.117 60.6386 185.069 49.1305 191.022 41.2079C195.141 35.7563 201.3 32.3688 207.091 32.3688C213.382 32.3688 219.253 36.6985 220.457 42.2188Z" fill="black"/>
<path d="M197.45 130.164C198.8 128.383 199.432 126.547 199.332 124.702C199.066 120.028 196.478 115.524 192.575 112.947C188.669 110.369 183.516 109.752 179.113 111.344C173.941 113.214 169.944 117.95 168.685 123.703C166.102 135.483 175.376 149.538 187.778 149.538C190.56 149.536 193.219 148.778 195.507 147.28C200.057 144.297 203.7 137.522 203.853 137.234C204.475 136.066 204.035 134.614 202.866 133.989C201.688 133.369 200.244 133.809 199.616 134.977C198.732 136.633 195.794 141.352 192.875 143.264C190.25 144.989 186.782 145.208 183.363 143.856C176.544 141.155 171.727 132.255 173.372 124.731C174.269 120.636 177.163 117.153 180.744 115.856C183.75 114.769 187.263 115.191 189.928 116.952C192.591 118.709 194.36 121.783 194.538 124.966C194.6 126.102 193.634 128.743 191.99 126.815C190.382 123.741 186.857 118.835 182.925 118.825H182.913C181.628 118.825 179.282 119.369 177.919 122.983C174.702 131.541 180.553 140.977 186.494 140.977C190.18 140.977 193.84 137.624 193.595 132.415C195.064 132.296 196.423 131.52 197.45 130.164ZM188.569 134.422C187.917 136.247 186.269 137.06 184.26 134.763C181.894 132.077 181.153 128.022 182.413 124.674C182.697 123.914 182.95 123.659 182.938 123.625C183.902 123.689 186.085 126.135 187.417 128.419C188.045 129.776 189.427 132.032 188.569 134.422ZM54.0971 101.539C55.4221 101.469 56.4378 100.339 56.369 99.0157L55.4284 81.186C55.3565 79.8595 54.2096 78.8548 52.9034 78.9157C51.5815 78.986 50.5659 80.1157 50.6346 81.4392L51.5753 99.2688C51.6432 100.533 52.6957 101.593 54.0971 101.539ZM41.2315 108.267C42.5699 108.54 43.8088 107.682 44.0753 106.414C44.3503 105.117 43.5221 103.844 42.2253 103.57L29.0815 100.794C27.7815 100.53 26.5096 101.349 26.2378 102.647C25.9628 103.944 26.7909 105.217 28.0878 105.491L41.2315 108.267Z" fill="black"/>
<path d="M54.0976 101.539C55.4226 101.469 56.4383 100.339 56.3695 99.0157L55.4289 81.186C55.357 79.8595 54.2101 78.8548 52.9039 78.9157C51.582 78.986 50.5664 80.1157 50.6351 81.4392L51.5758 99.2688C51.6437 100.533 52.6962 101.593 54.0976 101.539ZM41.232 108.267C42.5704 108.54 43.8093 107.682 44.0758 106.414C44.3508 105.117 43.5226 103.844 42.2258 103.57L29.082 100.794C27.782 100.53 26.5101 101.349 26.2383 102.647C25.9633 103.944 26.7914 105.217 28.0883 105.491L41.232 108.267Z" fill="#5158F6"/>
</svg>
