<svg xmlns="http://www.w3.org/2000/svg" enable-background="new 0 0 24 24" viewBox="0 0 24 24" id="apple-pay">
  <polygon fill="#212121" points="15.777 15.038 15.777 15.038 15.776 15.038"></polygon>
  <path fill="#212121" d="M2.09 15.045c.498-.019.694-.327 1.294-.327.604 0 .78.327 1.305.32.544-.011.885-.494 1.219-.99.378-.564.536-1.107.544-1.138-.011-.011-1.05-.415-1.061-1.633-.011-1.02.821-1.504.858-1.534C5.779 9.035 5.047 8.959 4.792 8.94l.001.001C4.141 8.903 3.583 9.318 3.275 9.318c-.315 0-.787-.358-1.305-.347C1.3 8.983.677 9.368.336 9.98c-.705 1.229-.184 3.045.498 4.046C1.167 14.521 1.565 15.065 2.09 15.045L2.09 15.045zM14.25 11.187h1.024c.086-.457.502-.757 1.073-.757.694 0 1.084.327 1.084.932v.411l-1.418.088c-1.316.08-2.029.628-2.029 1.579.004.959.738 1.598 1.793 1.598.712 0 1.372-.365 1.672-.947h.023v.891h1.05V11.29c0-1.069-.844-1.762-2.141-1.762C15.176 9.528 14.285 10.228 14.25 11.187L14.25 11.187zM17.434 12.973c0 .693-.581 1.187-1.35 1.187-.604 0-.99-.297-.99-.746 0-.468.371-.738 1.08-.78l1.26-.08V12.973L17.434 12.973zM8.558 7.563v7.418h1.136v-2.534h1.572c1.436 0 2.441-1.002 2.441-2.448 0-1.446-.99-2.436-2.404-2.436H8.558L8.558 7.563zM12.552 10.002c0 .936-.562 1.477-1.553 1.477H9.694V8.534h1.309C11.989 8.534 12.552 9.066 12.552 10.002L12.552 10.002zM21.487 13.98l-1.335-4.381h-1.185l1.92 5.402-.105.327c-.173.556-.454.773-.956.773-.09 0-.262-.011-.333-.019v.891L19.928 17l-.001-.001c1.107 0 1.627-.431 2.082-1.728L24 9.599h-1.155L21.51 13.98H21.487L21.487 13.98z"></path>
  <path fill="#3E3E3E" d="M4.708 8.939c-.616 0-1.139.379-1.433.379-.31 0-.773-.347-1.281-.347-.008 0-.016 0-.024 0C1.3 8.983.677 9.368.336 9.98-.002 10.57-.058 11.295.05 12h5.488c-.088-.2-.146-.44-.149-.723-.011-1.02.821-1.504.858-1.534C5.779 9.035 5.047 8.959 4.792 8.94l.001.001C4.765 8.94 4.736 8.939 4.708 8.939L4.708 8.939zM16.38 9.528c-1.204 0-2.096.7-2.13 1.659h1.024c.086-.457.502-.757 1.073-.757.694 0 1.084.327 1.084.932v.411l-1.418.088c-.319.019-.603.066-.85.14h3.358v-.71C18.522 10.22 17.678 9.528 16.38 9.528L16.38 9.528zM9.694 11.48V8.534h1.309c.986 0 1.549.533 1.549 1.469 0 .936-.562 1.477-1.553 1.477H9.694L9.694 11.48zM11.303 7.563H8.558V12h4.189c.598-.427.959-1.134.959-2.001C13.707 8.553 12.717 7.563 11.303 7.563L11.303 7.563zM20.152 9.599h-1.185L19.821 12h1.063L20.152 9.599 20.152 9.599zM24 9.599h-1.155L22.113 12h1.044L24 9.599 24 9.599z"></path>
  <path fill="#212121" d="M3.203,8.854c0.45,0.038,0.9-0.228,1.182-0.567V8.286C4.662,7.94,4.846,7.471,4.801,7C4.4,7.02,3.909,7.266,3.627,7.613C3.368,7.909,3.147,8.397,3.203,8.854L3.203,8.854z"></path>
  <path fill="#3E3E3E" d="M4.801,7C4.4,7.02,3.909,7.266,3.627,7.613C3.549,7.703,3.474,7.81,3.409,7.929h1.205C4.755,7.647,4.832,7.324,4.801,7L4.801,7z"></path>
</svg>
