<svg xmlns="http://www.w3.org/2000/svg" viewBox="0 0 24 24" id="Doodle">
  <path d="M20.5 16a1.5 1.5 0 0 1-1.5-1.5 5.5 5.5 0 0 0-2.568-4.645A6.5 6.5 0 0 0 4 12.5a.5.5 0 0 0 1 0 5.493 5.493 0 0 1 9.875-3.319A5.478 5.478 0 0 0 8 14.5a3.5 3.5 0 0 0 3.5 3.5 5.506 5.506 0 0 0 5.5-5.5 6.44 6.44 0 0 0-.066-.873A4.453 4.453 0 0 1 18 14.5a2.5 2.5 0 0 0 2.5 2.5.5.5 0 0 0 0-1Zm-9 1A2.5 2.5 0 0 1 9 14.5a4.505 4.505 0 0 1 4.5-4.5 4.437 4.437 0 0 1 2.143.568A5.459 5.459 0 0 1 16 12.5a4.505 4.505 0 0 1-4.5 4.5Z" fill="#fffdfd" class="color000000 svgShape"></path>
</svg>
