<svg width="319" height="227" viewBox="0 0 319 227" fill="none" xmlns="http://www.w3.org/2000/svg">
<g filter="url(#filter0_d_1432_6790)">
<g clip-path="url(#clip0_1432_6790)">
<rect x="16" y="20" width="287" height="195" rx="16" fill="white"/>
<path d="M50.04 111.13V106.648C42.534 106.108 37.728 101.734 37.566 95.146H44.478C44.532 98.224 46.53 100.168 50.04 100.6V89.098L48.312 88.72C41.508 87.262 38.106 83.482 38.106 77.542C38.106 71.224 42.858 66.688 50.04 65.932V61.342H54.198V65.932C61.002 66.634 65.214 70.9 65.43 77.38H58.734C58.626 74.464 57.006 72.574 54.198 71.98V83.59L56.034 84.022C62.946 85.534 66.078 88.882 66.078 94.606C66.078 101.194 61.434 105.73 54.198 106.54V111.13H50.04ZM49.824 82.618L50.04 82.672V71.926C46.8 72.466 44.856 74.41 44.856 77.326C44.856 80.188 46.368 81.862 49.824 82.618ZM54.576 90.07L54.198 89.962V100.492C57.438 99.844 59.382 97.954 59.382 95.2C59.382 92.446 57.816 90.772 54.576 90.07ZM100.843 98.494H96.037V106H89.503V98.494H69.469V92.446L87.343 66.526H96.037V92.446H100.843V98.494ZM76.813 92.446H89.503V73.978L76.813 92.446ZM105.189 86.344C105.189 74.086 111.777 65.77 121.875 65.77C131.973 65.77 138.615 74.086 138.615 86.344C138.615 98.548 132.351 106.702 121.875 106.702C111.399 106.702 105.189 98.548 105.189 86.344ZM111.993 86.344C111.993 95.47 115.665 100.6 121.875 100.6C128.139 100.6 131.811 95.47 131.811 86.344C131.811 77.002 128.139 71.872 121.875 71.872C115.665 71.872 111.993 77.002 111.993 86.344ZM150.985 106H144.451V65.824H150.985V90.502L161.353 79.324H169.615L159.463 89.908L169.399 106H161.839L154.873 94.768L150.985 98.818V106Z" fill="#11151A"/>
<path d="M43.35 131H37.176V120.878H43.35V122.138H38.548V125.302H42.874V126.52H38.548V129.726H43.35V131ZM46.4301 131H45.1141V124.154H46.3041L46.4441 125.204C46.8781 124.42 47.7461 123.958 48.7121 123.958C50.5181 123.958 51.3441 125.064 51.3441 126.814V131H50.0281V127.108C50.0281 125.722 49.3841 125.162 48.3761 125.162C47.1441 125.162 46.4301 126.044 46.4301 127.374V131ZM58.339 131H57.023V120.696H58.339V131ZM59.8282 127.57C59.8282 125.456 61.3402 123.972 63.3982 123.972C65.4422 123.972 66.9542 125.456 66.9542 127.57C66.9542 129.684 65.4422 131.168 63.3982 131.168C61.3402 131.168 59.8282 129.684 59.8282 127.57ZM61.1582 127.57C61.1582 128.998 62.0682 129.992 63.3982 129.992C64.7142 129.992 65.6382 128.998 65.6382 127.57C65.6382 126.142 64.7142 125.148 63.3982 125.148C62.0682 125.148 61.1582 126.142 61.1582 127.57ZM67.851 129.012H69.111C69.111 129.712 69.643 130.132 70.511 130.132C71.435 130.132 71.967 129.754 71.967 129.124C71.967 128.662 71.743 128.382 71.029 128.2L69.825 127.92C68.607 127.626 68.033 127.024 68.033 126.016C68.033 124.756 69.097 123.958 70.609 123.958C72.107 123.958 73.087 124.798 73.115 126.1H71.855C71.827 125.414 71.365 124.98 70.567 124.98C69.741 124.98 69.279 125.344 69.279 125.974C69.279 126.436 69.615 126.744 70.287 126.912L71.491 127.206C72.653 127.486 73.227 128.018 73.227 129.04C73.227 130.342 72.107 131.168 70.483 131.168C68.873 131.168 67.851 130.314 67.851 129.012ZM83.2045 121.494L82.0005 123.356H80.9785L81.9165 121.494H83.2045ZM83.2465 124.154H84.5485V131H83.3725L83.2325 129.964C82.8405 130.678 81.9305 131.168 80.9225 131.168C79.3265 131.168 78.4305 130.09 78.4305 128.41V124.154H79.7465V127.976C79.7465 129.446 80.3765 130.006 81.3845 130.006C82.5885 130.006 83.2465 129.236 83.2465 127.766V124.154ZM87.8019 131H86.4859V120.696H87.8019V131ZM91.6711 131H90.3551V125.26H89.0111V124.154H90.3551V122.012H91.6711V124.154H93.0151V125.26H91.6711V131ZM94.8401 122.53C94.3641 122.53 93.9721 122.138 93.9721 121.662C93.9721 121.172 94.3641 120.794 94.8401 120.794C95.3161 120.794 95.7081 121.172 95.7081 121.662C95.7081 122.138 95.3161 122.53 94.8401 122.53ZM94.1961 131V124.154H95.5121V131H94.1961ZM98.7387 131H97.4227V124.154H98.5987L98.7247 125.05C99.0747 124.406 99.8027 123.958 100.769 123.958C101.833 123.958 102.589 124.49 102.939 125.344C103.261 124.49 104.087 123.958 105.151 123.958C106.719 123.958 107.671 124.938 107.671 126.52V131H106.383V126.842C106.383 125.764 105.781 125.148 104.857 125.148C103.863 125.148 103.205 125.848 103.205 126.94V131H101.903V126.828C101.903 125.75 101.315 125.162 100.391 125.162C99.3967 125.162 98.7387 125.848 98.7387 126.94V131ZM109.047 127.57C109.047 125.456 110.559 123.972 112.617 123.972C114.661 123.972 116.173 125.456 116.173 127.57C116.173 129.684 114.661 131.168 112.617 131.168C110.559 131.168 109.047 129.684 109.047 127.57ZM110.377 127.57C110.377 128.998 111.287 129.992 112.617 129.992C113.933 129.992 114.857 128.998 114.857 127.57C114.857 126.142 113.933 125.148 112.617 125.148C111.287 125.148 110.377 126.142 110.377 127.57ZM117.07 129.012H118.33C118.33 129.712 118.862 130.132 119.73 130.132C120.654 130.132 121.186 129.754 121.186 129.124C121.186 128.662 120.962 128.382 120.248 128.2L119.044 127.92C117.826 127.626 117.252 127.024 117.252 126.016C117.252 124.756 118.316 123.958 119.828 123.958C121.326 123.958 122.306 124.798 122.334 126.1H121.074C121.046 125.414 120.584 124.98 119.786 124.98C118.96 124.98 118.498 125.344 118.498 125.974C118.498 126.436 118.834 126.744 119.506 126.912L120.71 127.206C121.872 127.486 122.446 128.018 122.446 129.04C122.446 130.342 121.326 131.168 119.702 131.168C118.092 131.168 117.07 130.314 117.07 129.012ZM130.365 125.764H129.357V124.854L132.227 122.096H127.677V120.878H133.963V121.984L131.191 124.63C132.913 124.84 134.215 126.002 134.215 127.822C134.215 129.866 132.675 131.168 130.617 131.168C128.629 131.168 127.201 129.95 127.201 127.85H128.559C128.559 129.166 129.371 129.936 130.645 129.936C131.961 129.936 132.815 129.096 132.815 127.794C132.815 126.576 131.975 125.764 130.365 125.764ZM140.834 131H139.518V124.154H140.694L140.82 125.05C141.17 124.406 141.898 123.958 142.864 123.958C143.928 123.958 144.684 124.49 145.034 125.344C145.356 124.49 146.182 123.958 147.246 123.958C148.814 123.958 149.766 124.938 149.766 126.52V131H148.478V126.842C148.478 125.764 147.876 125.148 146.952 125.148C145.958 125.148 145.3 125.848 145.3 126.94V131H143.998V126.828C143.998 125.75 143.41 125.162 142.486 125.162C141.492 125.162 140.834 125.848 140.834 126.94V131ZM154.545 131.168C152.529 131.168 151.143 129.712 151.143 127.584C151.143 125.442 152.501 123.958 154.489 123.958C156.435 123.958 157.709 125.302 157.709 127.332V127.822L152.417 127.836C152.515 129.278 153.271 130.076 154.573 130.076C155.595 130.076 156.267 129.656 156.491 128.872H157.723C157.387 130.342 156.239 131.168 154.545 131.168ZM154.489 125.064C153.341 125.064 152.613 125.75 152.445 126.954H156.393C156.393 125.82 155.651 125.064 154.489 125.064ZM158.619 129.012H159.879C159.879 129.712 160.411 130.132 161.279 130.132C162.203 130.132 162.735 129.754 162.735 129.124C162.735 128.662 162.511 128.382 161.797 128.2L160.593 127.92C159.375 127.626 158.801 127.024 158.801 126.016C158.801 124.756 159.865 123.958 161.377 123.958C162.875 123.958 163.855 124.798 163.883 126.1H162.623C162.595 125.414 162.133 124.98 161.335 124.98C160.509 124.98 160.047 125.344 160.047 125.974C160.047 126.436 160.383 126.744 161.055 126.912L162.259 127.206C163.421 127.486 163.995 128.018 163.995 129.04C163.995 130.342 162.875 131.168 161.251 131.168C159.641 131.168 158.619 130.314 158.619 129.012ZM168.408 131.168C166.392 131.168 165.006 129.712 165.006 127.584C165.006 125.442 166.364 123.958 168.352 123.958C170.298 123.958 171.572 125.302 171.572 127.332V127.822L166.28 127.836C166.378 129.278 167.134 130.076 168.436 130.076C169.458 130.076 170.13 129.656 170.354 128.872H171.586C171.25 130.342 170.102 131.168 168.408 131.168ZM168.352 125.064C167.204 125.064 166.476 125.75 166.308 126.954H170.256C170.256 125.82 169.514 125.064 168.352 125.064ZM172.482 129.012H173.742C173.742 129.712 174.274 130.132 175.142 130.132C176.066 130.132 176.598 129.754 176.598 129.124C176.598 128.662 176.374 128.382 175.66 128.2L174.456 127.92C173.238 127.626 172.664 127.024 172.664 126.016C172.664 124.756 173.728 123.958 175.24 123.958C176.738 123.958 177.718 124.798 177.746 126.1H176.486C176.458 125.414 175.996 124.98 175.198 124.98C174.372 124.98 173.91 125.344 173.91 125.974C173.91 126.436 174.246 126.744 174.918 126.912L176.122 127.206C177.284 127.486 177.858 128.018 177.858 129.04C177.858 130.342 176.738 131.168 175.114 131.168C173.504 131.168 172.482 130.314 172.482 129.012Z" fill="#4B5563"/>
<rect x="36.5" y="147.5" width="90" height="31" rx="15.5" fill="white"/>
<rect x="36.5" y="147.5" width="90" height="31" rx="15.5" stroke="#11151A"/>
<path d="M49.584 162.764H48.576V161.854L51.446 159.096H46.896V157.878H53.182V158.984L50.41 161.63C52.132 161.84 53.434 163.002 53.434 164.822C53.434 166.866 51.894 168.168 49.836 168.168C47.848 168.168 46.42 166.95 46.42 164.85H47.778C47.778 166.166 48.59 166.936 49.864 166.936C51.18 166.936 52.034 166.096 52.034 164.794C52.034 163.576 51.194 162.764 49.584 162.764ZM60.0532 168H58.7372V161.154H59.9132L60.0392 162.05C60.3892 161.406 61.1172 160.958 62.0832 160.958C63.1472 160.958 63.9032 161.49 64.2532 162.344C64.5752 161.49 65.4012 160.958 66.4652 160.958C68.0332 160.958 68.9852 161.938 68.9852 163.52V168H67.6972V163.842C67.6972 162.764 67.0952 162.148 66.1712 162.148C65.1772 162.148 64.5192 162.848 64.5192 163.94V168H63.2172V163.828C63.2172 162.75 62.6292 162.162 61.7052 162.162C60.7112 162.162 60.0532 162.848 60.0532 163.94V168ZM73.7634 168.168C71.7474 168.168 70.3614 166.712 70.3614 164.584C70.3614 162.442 71.7194 160.958 73.7074 160.958C75.6534 160.958 76.9274 162.302 76.9274 164.332V164.822L71.6354 164.836C71.7334 166.278 72.4894 167.076 73.7914 167.076C74.8134 167.076 75.4854 166.656 75.7094 165.872H76.9414C76.6054 167.342 75.4574 168.168 73.7634 168.168ZM73.7074 162.064C72.5594 162.064 71.8314 162.75 71.6634 163.954H75.6114C75.6114 162.82 74.8694 162.064 73.7074 162.064ZM77.8373 166.012H79.0973C79.0973 166.712 79.6293 167.132 80.4973 167.132C81.4213 167.132 81.9533 166.754 81.9533 166.124C81.9533 165.662 81.7293 165.382 81.0153 165.2L79.8113 164.92C78.5933 164.626 78.0193 164.024 78.0193 163.016C78.0193 161.756 79.0833 160.958 80.5953 160.958C82.0933 160.958 83.0733 161.798 83.1013 163.1H81.8413C81.8133 162.414 81.3513 161.98 80.5533 161.98C79.7273 161.98 79.2653 162.344 79.2653 162.974C79.2653 163.436 79.6013 163.744 80.2733 163.912L81.4773 164.206C82.6393 164.486 83.2133 165.018 83.2133 166.04C83.2133 167.342 82.0933 168.168 80.4693 168.168C78.8593 168.168 77.8373 167.314 77.8373 166.012ZM87.6267 168.168C85.6107 168.168 84.2247 166.712 84.2247 164.584C84.2247 162.442 85.5827 160.958 87.5707 160.958C89.5167 160.958 90.7907 162.302 90.7907 164.332V164.822L85.4987 164.836C85.5967 166.278 86.3527 167.076 87.6547 167.076C88.6767 167.076 89.3487 166.656 89.5727 165.872H90.8047C90.4687 167.342 89.3207 168.168 87.6267 168.168ZM87.5707 162.064C86.4227 162.064 85.6947 162.75 85.5267 163.954H89.4747C89.4747 162.82 88.7327 162.064 87.5707 162.064ZM91.7006 166.012H92.9606C92.9606 166.712 93.4926 167.132 94.3606 167.132C95.2846 167.132 95.8166 166.754 95.8166 166.124C95.8166 165.662 95.5926 165.382 94.8786 165.2L93.6746 164.92C92.4566 164.626 91.8826 164.024 91.8826 163.016C91.8826 161.756 92.9466 160.958 94.4586 160.958C95.9566 160.958 96.9366 161.798 96.9646 163.1H95.7046C95.6766 162.414 95.2146 161.98 94.4166 161.98C93.5906 161.98 93.1286 162.344 93.1286 162.974C93.1286 163.436 93.4646 163.744 94.1366 163.912L95.3406 164.206C96.5026 164.486 97.0766 165.018 97.0766 166.04C97.0766 167.342 95.9566 168.168 94.3326 168.168C92.7226 168.168 91.7006 167.314 91.7006 166.012Z" fill="#11151A"/>
<path d="M114.965 161.516L110 166.481L105.034 161.516" stroke="#11151A" stroke-width="2" stroke-miterlimit="10" stroke-linecap="round" stroke-linejoin="round"/>
<rect x="36" y="38" width="25" height="13" rx="6.5" fill="#72D4CA"/>
<path d="M122 228.293C122.262 225.931 125.69 223.106 127.27 221.467C129.725 218.921 133.183 215.078 134.873 211.964C137.254 207.578 141.7 200.487 146.105 197.794C149.458 195.745 152.635 192.488 155.609 195.462C157.919 197.772 167.329 196.879 170.21 196.239C176.211 194.906 175.433 191.711 178.332 187.686C180.989 183.995 183.912 181.31 188.527 180.255C192.865 179.264 197.753 180.071 202.091 179.305C203.397 179.075 205.667 169.374 206.152 167.9C207.87 162.681 209.392 157.751 209.91 152.306C210.303 148.179 211.836 144.364 212.243 140.296C212.429 138.435 213.527 131.814 215.353 130.749C220.407 127.801 225.75 125.869 230.473 122.196C235.373 118.385 236.989 115.064 238.983 109.366C240.302 105.599 241.691 92.2155 246.802 92.2155C250.857 92.2155 254.709 90.6603 258.812 90.6603C264.439 90.6603 266.509 87.3801 269.352 83.2733C272.359 78.93 275.079 76.1553 279.072 72.7327C283.101 69.2791 288.358 68.6039 293.458 68.0671C297.304 67.6623 300.778 65 304.733 65" stroke="#72D4CA" stroke-width="3" stroke-linecap="round"/>
<path d="M137.492 229.154C139.438 224.231 140.574 219.884 146.162 218.642C149.718 217.852 154.297 217.846 157.931 217.846C161.777 217.846 165.517 215.877 167.648 212.736C169.509 209.993 172.201 207.03 175.354 205.784C177.462 204.95 182.646 206.14 184.066 204.862C185.823 203.281 186.9 196.579 188.003 194.098C190.102 189.375 191.948 184.468 194.034 179.774C195.252 177.035 197.311 174.384 198.934 171.858C201.291 168.193 202.671 168.159 206.222 166.916C211.544 165.054 215.796 163.566 221.426 163.566C227.034 163.566 231.016 163.014 236.085 161.136C241.911 158.979 243.015 151.622 246.807 147.357C248.89 145.013 252.716 143.855 255.435 142.457C260.978 139.605 266.097 136.204 271.685 133.41C275.108 131.698 277.148 128.647 280.899 127.965C292.664 125.826 302.97 120.082 314.657 117.578" stroke="black" stroke-opacity="0.05" stroke-width="3" stroke-linecap="round"/>
<path d="M44.318 46.994L41.276 47V46.424L42.71 45.212C43.304 44.708 43.502 44.42 43.502 44C43.502 43.502 43.232 43.22 42.77 43.22C42.29 43.22 41.99 43.556 41.984 44.12H41.222C41.228 43.16 41.84 42.536 42.77 42.536C43.706 42.536 44.288 43.07 44.288 43.958C44.288 44.57 43.952 45.032 43.286 45.602L42.494 46.28H44.318V46.994ZM44.7912 44.816C44.7912 43.454 45.5232 42.53 46.6452 42.53C47.7672 42.53 48.5052 43.454 48.5052 44.816C48.5052 46.172 47.8092 47.078 46.6452 47.078C45.4812 47.078 44.7912 46.172 44.7912 44.816ZM45.5472 44.816C45.5472 45.83 45.9552 46.4 46.6452 46.4C47.3412 46.4 47.7492 45.83 47.7492 44.816C47.7492 43.778 47.3412 43.208 46.6452 43.208C45.9552 43.208 45.5472 43.778 45.5472 44.816ZM52.0817 46.994L49.0397 47V46.424L50.4737 45.212C51.0677 44.708 51.2657 44.42 51.2657 44C51.2657 43.502 50.9957 43.22 50.5337 43.22C50.0537 43.22 49.7537 43.556 49.7477 44.12H48.9857C48.9917 43.16 49.6037 42.536 50.5337 42.536C51.4697 42.536 52.0517 43.07 52.0517 43.958C52.0517 44.57 51.7157 45.032 51.0497 45.602L50.2577 46.28H52.0817V46.994ZM54.0141 47.072C53.0961 47.072 52.4901 46.484 52.4901 45.596H53.2521C53.2521 46.094 53.5461 46.388 54.0321 46.388C54.5481 46.388 54.8781 46.052 54.8781 45.518C54.8781 45.008 54.5721 44.66 54.0441 44.66C53.7081 44.66 53.4021 44.828 53.2461 45.056L52.5681 44.912L53.1081 42.614H55.3941V43.322H53.6601L53.4261 44.234C53.6361 44.096 53.9001 44.018 54.2001 44.018C55.0761 44.018 55.6581 44.612 55.6581 45.476C55.6581 46.424 54.9921 47.072 54.0141 47.072Z" fill="#11151A"/>
</g>
</g>
<defs>
<filter id="filter0_d_1432_6790" x="0" y="0" width="319" height="227" filterUnits="userSpaceOnUse" color-interpolation-filters="sRGB">
<feFlood flood-opacity="0" result="BackgroundImageFix"/>
<feColorMatrix in="SourceAlpha" type="matrix" values="0 0 0 0 0 0 0 0 0 0 0 0 0 0 0 0 0 0 127 0" result="hardAlpha"/>
<feOffset dy="-4"/>
<feGaussianBlur stdDeviation="8"/>
<feComposite in2="hardAlpha" operator="out"/>
<feColorMatrix type="matrix" values="0 0 0 0 0.8 0 0 0 0 0.8 0 0 0 0 0.8 0 0 0 0.25 0"/>
<feBlend mode="normal" in2="BackgroundImageFix" result="effect1_dropShadow_1432_6790"/>
<feBlend mode="normal" in="SourceGraphic" in2="effect1_dropShadow_1432_6790" result="shape"/>
</filter>
<clipPath id="clip0_1432_6790">
<rect x="16" y="20" width="287" height="195" rx="16" fill="white"/>
</clipPath>
</defs>
</svg>
