<svg width="214" height="274" viewBox="0 0 214 274" fill="none" xmlns="http://www.w3.org/2000/svg">
<g filter="url(#filter0_d_965_5397)">
<g clip-path="url(#clip0_965_5397)">
<rect x="16" y="12" width="182" height="242" rx="16" fill="#64D0C5"/>
<path d="M44.32 218.04V215.384C39.872 215.064 37.024 212.472 36.928 208.568H41.024C41.056 210.392 42.24 211.544 44.32 211.8V204.984L43.296 204.76C39.264 203.896 37.248 201.656 37.248 198.136C37.248 194.392 40.064 191.704 44.32 191.256V188.536H46.784V191.256C50.816 191.672 53.312 194.2 53.44 198.04H49.472C49.408 196.312 48.448 195.192 46.784 194.84V201.72L47.872 201.976C51.968 202.872 53.824 204.856 53.824 208.248C53.824 212.152 51.072 214.84 46.784 215.32V218.04H44.32ZM44.192 201.144L44.32 201.176V194.808C42.4 195.128 41.248 196.28 41.248 198.008C41.248 199.704 42.144 200.696 44.192 201.144ZM47.008 205.56L46.784 205.496V211.736C48.704 211.352 49.856 210.232 49.856 208.6C49.856 206.968 48.928 205.976 47.008 205.56ZM63.2255 203.416H60.3775V200.76L66.3935 195.224H56.6655V191.608H71.5135V194.872L65.8175 200.12C69.4015 200.824 72.1855 203.448 72.1855 207.576C72.1855 212.376 68.4415 215.416 63.7055 215.416C59.1295 215.416 55.5775 212.6 55.5775 207.544H59.6095C59.6095 210.232 61.2735 211.768 63.7695 211.768C66.3295 211.768 68.0255 210.104 68.0255 207.512C68.0255 205.144 66.4895 203.416 63.2255 203.416ZM74.5323 203.352C74.5323 196.088 78.4363 191.16 84.4203 191.16C90.4043 191.16 94.3403 196.088 94.3403 203.352C94.3403 210.584 90.6283 215.416 84.4203 215.416C78.2123 215.416 74.5323 210.584 74.5323 203.352ZM78.5643 203.352C78.5643 208.76 80.7403 211.8 84.4203 211.8C88.1323 211.8 90.3083 208.76 90.3083 203.352C90.3083 197.816 88.1323 194.776 84.4203 194.776C80.7403 194.776 78.5643 197.816 78.5643 203.352ZM101.795 213.592C101.795 216.248 99.8745 218.36 97.2825 218.68V217.112C98.7225 216.856 99.8105 215.992 99.8105 214.872C99.5545 215 99.2665 215.064 98.8825 215.064C97.6345 215.064 96.6105 214.136 96.6105 212.856C96.6105 211.32 97.6025 210.296 99.0425 210.296C100.643 210.296 101.795 211.608 101.795 213.592ZM104.095 203.352C104.095 196.088 107.999 191.16 113.983 191.16C119.967 191.16 123.903 196.088 123.903 203.352C123.903 210.584 120.191 215.416 113.983 215.416C107.775 215.416 104.095 210.584 104.095 203.352ZM108.127 203.352C108.127 208.76 110.303 211.8 113.983 211.8C117.695 211.8 119.871 208.76 119.871 203.352C119.871 197.816 117.695 194.776 113.983 194.776C110.303 194.776 108.127 197.816 108.127 203.352ZM126.657 203.352C126.657 196.088 130.561 191.16 136.545 191.16C142.529 191.16 146.465 196.088 146.465 203.352C146.465 210.584 142.753 215.416 136.545 215.416C130.337 215.416 126.657 210.584 126.657 203.352ZM130.689 203.352C130.689 208.76 132.865 211.8 136.545 211.8C140.257 211.8 142.433 208.76 142.433 203.352C142.433 197.816 140.257 194.776 136.545 194.776C132.865 194.776 130.689 197.816 130.689 203.352ZM149.22 203.352C149.22 196.088 153.124 191.16 159.108 191.16C165.092 191.16 169.028 196.088 169.028 203.352C169.028 210.584 165.316 215.416 159.108 215.416C152.9 215.416 149.22 210.584 149.22 203.352ZM153.252 203.352C153.252 208.76 155.428 211.8 159.108 211.8C162.82 211.8 164.996 208.76 164.996 203.352C164.996 197.816 162.82 194.776 159.108 194.776C155.428 194.776 153.252 197.816 153.252 203.352Z" fill="white"/>
<path d="M39.99 170L36.14 159.878H37.61L40.074 166.346C40.298 166.92 40.494 167.494 40.704 168.25C40.942 167.452 41.18 166.78 41.348 166.332L43.798 159.878H45.226L41.418 170H39.99ZM48.1638 170.168C46.1478 170.168 44.7618 168.712 44.7618 166.584C44.7618 164.442 46.1198 162.958 48.1078 162.958C50.0538 162.958 51.3278 164.302 51.3278 166.332V166.822L46.0358 166.836C46.1338 168.278 46.8898 169.076 48.1918 169.076C49.2138 169.076 49.8858 168.656 50.1098 167.872H51.3418C51.0058 169.342 49.8578 170.168 48.1638 170.168ZM48.1078 164.064C46.9598 164.064 46.2318 164.75 46.0638 165.954H50.0118C50.0118 164.82 49.2698 164.064 48.1078 164.064ZM54.1137 170H52.7977V163.154H53.9877L54.1277 164.204C54.5617 163.42 55.4297 162.958 56.3957 162.958C58.2017 162.958 59.0277 164.064 59.0277 165.814V170H57.7117V166.108C57.7117 164.722 57.0677 164.162 56.0597 164.162C54.8277 164.162 54.1137 165.044 54.1137 166.374V170ZM62.7824 170H61.4664V164.26H60.1224V163.154H61.4664V161.012H62.7824V163.154H64.1264V164.26H62.7824V170ZM67.2274 170.168C65.7574 170.168 64.8894 169.342 64.8894 168.096C64.8894 166.836 65.8274 166.052 67.4374 165.926L69.5934 165.758V165.562C69.5934 164.414 68.9074 164.008 67.9834 164.008C66.8774 164.008 66.2474 164.498 66.2474 165.324H65.0994C65.0994 163.896 66.2754 162.958 68.0394 162.958C69.7334 162.958 70.8814 163.854 70.8814 165.702V170H69.7614L69.6214 168.894C69.2714 169.678 68.3334 170.168 67.2274 170.168ZM67.6054 169.146C68.8514 169.146 69.6074 168.334 69.6074 167.046V166.682L67.8574 166.822C66.6954 166.934 66.2194 167.382 66.2194 168.054C66.2194 168.782 66.7514 169.146 67.6054 169.146ZM72.144 168.012H73.404C73.404 168.712 73.936 169.132 74.804 169.132C75.728 169.132 76.26 168.754 76.26 168.124C76.26 167.662 76.036 167.382 75.322 167.2L74.118 166.92C72.9 166.626 72.326 166.024 72.326 165.016C72.326 163.756 73.39 162.958 74.902 162.958C76.4 162.958 77.38 163.798 77.408 165.1H76.148C76.12 164.414 75.658 163.98 74.86 163.98C74.034 163.98 73.572 164.344 73.572 164.974C73.572 165.436 73.908 165.744 74.58 165.912L75.784 166.206C76.946 166.486 77.52 167.018 77.52 168.04C77.52 169.342 76.4 170.168 74.776 170.168C73.166 170.168 72.144 169.314 72.144 168.012ZM85.5515 170.168C83.5635 170.168 82.3595 168.684 82.3595 166.598C82.3595 164.498 83.5775 162.958 85.6075 162.958C86.6575 162.958 87.5395 163.42 88.0015 164.26V159.696H89.3035V170H88.1275L88.0155 168.754C87.5675 169.692 86.6435 170.168 85.5515 170.168ZM85.8175 168.978C87.1615 168.978 87.9875 167.984 87.9875 166.556C87.9875 165.156 87.1615 164.148 85.8175 164.148C84.4735 164.148 83.6895 165.156 83.6895 166.556C83.6895 167.97 84.4735 168.978 85.8175 168.978ZM94.156 170.168C92.14 170.168 90.754 168.712 90.754 166.584C90.754 164.442 92.112 162.958 94.1 162.958C96.046 162.958 97.32 164.302 97.32 166.332V166.822L92.028 166.836C92.126 168.278 92.882 169.076 94.184 169.076C95.206 169.076 95.878 168.656 96.102 167.872H97.334C96.998 169.342 95.85 170.168 94.156 170.168ZM94.1 164.064C92.952 164.064 92.224 164.75 92.056 165.954H96.004C96.004 164.82 95.262 164.064 94.1 164.064ZM100.134 170H98.8179V159.696H100.134V170ZM107.215 170H105.899V163.154H107.075L107.201 164.05C107.551 163.406 108.279 162.958 109.245 162.958C110.309 162.958 111.065 163.49 111.415 164.344C111.737 163.49 112.563 162.958 113.627 162.958C115.195 162.958 116.147 163.938 116.147 165.52V170H114.859V165.842C114.859 164.764 114.257 164.148 113.333 164.148C112.339 164.148 111.681 164.848 111.681 165.94V170H110.379V165.828C110.379 164.75 109.791 164.162 108.867 164.162C107.873 164.162 107.215 164.848 107.215 165.94V170ZM120.926 170.168C118.91 170.168 117.524 168.712 117.524 166.584C117.524 164.442 118.882 162.958 120.87 162.958C122.816 162.958 124.09 164.302 124.09 166.332V166.822L118.798 166.836C118.896 168.278 119.652 169.076 120.954 169.076C121.976 169.076 122.648 168.656 122.872 167.872H124.104C123.768 169.342 122.62 170.168 120.926 170.168ZM120.87 164.064C119.722 164.064 118.994 164.75 118.826 165.954H122.774C122.774 164.82 122.032 164.064 120.87 164.064ZM124.999 168.012H126.259C126.259 168.712 126.791 169.132 127.659 169.132C128.583 169.132 129.115 168.754 129.115 168.124C129.115 167.662 128.891 167.382 128.177 167.2L126.973 166.92C125.755 166.626 125.181 166.024 125.181 165.016C125.181 163.756 126.245 162.958 127.757 162.958C129.255 162.958 130.235 163.798 130.263 165.1H129.003C128.975 164.414 128.513 163.98 127.715 163.98C126.889 163.98 126.427 164.344 126.427 164.974C126.427 165.436 126.763 165.744 127.435 165.912L128.639 166.206C129.801 166.486 130.375 167.018 130.375 168.04C130.375 169.342 129.255 170.168 127.631 170.168C126.021 170.168 124.999 169.314 124.999 168.012Z" fill="white"/>
<path d="M169.723 75.3254C174.042 74.7084 177.25 71.0095 177.25 66.6469V58.8534C177.25 54.4903 174.042 50.7919 169.723 50.1749C148.018 47.0745 125.982 47.0745 104.277 50.1749L96.75 51.2502V74.2502L104.277 75.3254C125.982 78.4264 148.018 78.4264 169.723 75.3254ZM192.187 96.3543C163.152 93.128 133.848 93.128 104.813 96.3543L96.75 97.2502V120.25L104.813 121.146C133.848 124.372 163.152 124.372 192.187 121.146C196.778 120.636 200.25 116.756 200.25 112.137V105.362C200.25 100.744 196.778 96.8643 192.187 96.3543Z" fill="white" fill-opacity="0.2"/>
<path d="M85.25 126C88.1923 126 90.5268 123.759 90.8672 120.908L92.679 121.109C107.382 122.743 122.193 123.56 137 123.56C151.807 123.56 166.618 122.743 181.321 121.109C188.831 120.275 194.5 113.944 194.5 106.389V99.6115C194.5 92.056 188.834 85.7253 181.321 84.891C151.914 81.6227 122.086 81.6227 92.679 84.891L91 85.0773V75.1286L91.9631 75.266C103.089 76.8553 114.295 77.65 125.5 77.65C136.705 77.65 147.911 76.8553 159.037 75.266C166.143 74.25 171.5 68.0733 171.5 60.8968V53.1032C171.5 45.9272 166.143 39.75 159.037 38.734C136.784 35.5559 114.216 35.5559 91.9631 38.734L90.8275 38.8955C90.3997 36.143 88.1227 34 85.25 34C82.0748 34 79.5 36.5748 79.5 39.75V45.5V68.5V91.5V114.5V120.25C79.5 123.425 82.0748 126 85.25 126ZM93.948 96.3179C122.516 93.1479 151.487 93.1428 180.049 96.3179C181.731 96.506 183 97.921 183 99.6109V106.388C183 108.078 181.731 109.493 180.049 109.682C151.478 112.855 122.518 112.855 93.948 109.682L91 109.354V96.6463L93.948 96.3179ZM93.5915 50.1155C114.766 47.0974 136.239 47.0974 157.408 50.1155C158.886 50.3288 160 51.6122 160 53.1032V60.8974C160 62.3883 158.886 63.6712 157.408 63.8845C136.239 66.9055 114.766 66.9113 93.5915 63.8845L91 63.5136V50.4864L93.5915 50.1155Z" fill="#2C968B"/>
</g>
</g>
<defs>
<filter id="filter0_d_965_5397" x="0" y="0" width="214" height="274" filterUnits="userSpaceOnUse" color-interpolation-filters="sRGB">
<feFlood flood-opacity="0" result="BackgroundImageFix"/>
<feColorMatrix in="SourceAlpha" type="matrix" values="0 0 0 0 0 0 0 0 0 0 0 0 0 0 0 0 0 0 127 0" result="hardAlpha"/>
<feOffset dy="4"/>
<feGaussianBlur stdDeviation="8"/>
<feComposite in2="hardAlpha" operator="out"/>
<feColorMatrix type="matrix" values="0 0 0 0 0.8 0 0 0 0 0.8 0 0 0 0 0.8 0 0 0 0.15 0"/>
<feBlend mode="normal" in2="BackgroundImageFix" result="effect1_dropShadow_965_5397"/>
<feBlend mode="normal" in="SourceGraphic" in2="effect1_dropShadow_965_5397" result="shape"/>
</filter>
<clipPath id="clip0_965_5397">
<rect x="16" y="12" width="182" height="242" rx="16" fill="white"/>
</clipPath>
</defs>
</svg>
