<svg width="319" height="227" viewBox="0 0 319 227" fill="none" xmlns="http://www.w3.org/2000/svg">
<g filter="url(#filter0_d_1432_6721)">
<rect x="16" y="20" width="287" height="195" rx="16" fill="white"/>
<path d="M38.9733 38.0044C38.7991 38.0081 38.629 38.0576 38.4799 38.1477C38.3307 38.2379 38.2076 38.3657 38.1229 38.5184L36.8529 40.8504L34.521 42.1203C34.3639 42.2066 34.2328 42.3337 34.1415 42.4883C34.0501 42.6429 34.002 42.8193 34.002 42.999C34.002 43.1788 34.0501 43.3553 34.1415 43.5099C34.2328 43.6645 34.3639 43.7916 34.521 43.8778L36.8529 45.1477L38.1229 47.4797C38.2082 47.639 38.335 47.7721 38.4898 47.8649C38.6445 47.9578 38.8214 48.0068 39.0016 48.0068C39.1818 48.0068 39.3587 47.9578 39.5134 47.8649C39.6682 47.7721 39.795 47.639 39.8803 47.4797L41.1578 45.1477L43.4785 43.8778C43.6356 43.7916 43.7666 43.6645 43.858 43.5099C43.9493 43.3553 43.9975 43.1788 43.9975 42.999C43.9975 42.8193 43.9493 42.6429 43.858 42.4883C43.7666 42.3337 43.6356 42.2066 43.4785 42.1203L41.1578 40.8504L39.8803 38.5184C39.7915 38.3565 39.6597 38.2224 39.4996 38.131C39.3395 38.0396 39.1573 37.9944 38.9733 38.0006V38.0044ZM38.9997 41.0809L39.5402 42.0636C39.632 42.2312 39.7697 42.3689 39.937 42.4605L40.9197 42.9972L39.937 43.5377C39.7697 43.6292 39.632 43.7668 39.5402 43.9344L38.9997 44.9172L38.4706 43.9344C38.3788 43.7668 38.241 43.6292 38.0737 43.5377L37.091 42.9972L38.0737 42.4605C38.2416 42.3679 38.3793 42.2288 38.4706 42.0598L38.9997 41.0809ZM49.0003 41.9993C48.8693 41.9988 48.7395 42.0242 48.6182 42.0741C48.497 42.124 48.3867 42.1974 48.2937 42.29C48.2007 42.3827 48.1268 42.4928 48.0762 42.6141C48.0256 42.7354 47.9993 42.8656 47.9988 42.9972C47.9988 43.129 48.0247 43.2595 48.0751 43.3813C48.1255 43.503 48.1993 43.6137 48.2923 43.7068C48.3854 43.7998 48.4958 43.8735 48.6173 43.9236C48.7388 43.9737 48.869 43.9992 49.0003 43.9987C49.265 43.9987 49.5188 43.8932 49.7059 43.7054C49.893 43.5175 49.9981 43.2628 49.9981 42.9972C49.9971 42.7322 49.8916 42.4784 49.7046 42.2914C49.5175 42.1044 49.2643 41.9993 49.0003 41.9993ZM48.9701 47.9937C48.7945 47.9989 48.6234 48.0506 48.4741 48.1435C48.3247 48.2364 48.2025 48.3673 48.1197 48.5229L46.8498 50.8434L44.5216 52.121C44.3645 52.2072 44.2334 52.3343 44.1421 52.4889C44.0508 52.6435 44.0026 52.8199 44.0026 52.9996C44.0026 53.1794 44.0508 53.3559 44.1421 53.5105C44.2334 53.6651 44.3645 53.7922 44.5216 53.8784L46.8498 55.1483L48.1197 57.4765C48.2051 57.6359 48.3319 57.7689 48.4866 57.8618C48.6413 57.9546 48.8182 58.0036 48.9985 58.0036C49.1787 58.0036 49.3556 57.9546 49.5103 57.8618C49.665 57.7689 49.7918 57.6359 49.8772 57.4765L51.1471 55.1483L53.4791 53.8784C53.6362 53.7922 53.7673 53.6651 53.8586 53.5105C53.9499 53.3559 53.9981 53.1794 53.9981 52.9996C53.9981 52.8199 53.9499 52.6435 53.8586 52.4889C53.7673 52.3343 53.6362 52.2072 53.4791 52.121L51.1471 50.8434L49.8772 48.5191C49.7893 48.3557 49.658 48.2201 49.4978 48.1274C49.3377 48.0346 49.1549 47.9883 48.9701 47.9937ZM49.0003 51.0778L49.537 52.0604C49.6293 52.2299 49.7684 52.3691 49.9377 52.4611L50.9203 52.9978L49.9377 53.5269C49.7684 53.6188 49.6293 53.758 49.537 53.9276L49.0003 54.9103L48.4599 53.9276C48.3681 53.7599 48.2303 53.6222 48.063 53.5307L47.0803 53.0016L48.063 52.4611C48.2309 52.3685 48.3686 52.2294 48.4599 52.0604L49.0003 51.0778ZM39.0035 51.9962C38.8721 51.9957 38.742 52.0212 38.6205 52.0714C38.499 52.1215 38.3886 52.1951 38.2955 52.2882C38.2024 52.3813 38.1286 52.4918 38.0782 52.6136C38.0278 52.7353 38.0019 52.8659 38.0019 52.9978C38.0024 53.1293 38.0287 53.2594 38.0793 53.3807C38.1299 53.502 38.2038 53.6123 38.2968 53.7049C38.3898 53.7976 38.5001 53.8709 38.6214 53.9208C38.7426 53.9706 38.8725 53.9961 39.0035 53.9956C39.2675 53.9956 39.5207 53.8906 39.7077 53.7036C39.8947 53.5165 40.0003 53.2628 40.0013 52.9978C40.0013 52.7321 39.8962 52.4774 39.709 52.2896C39.5219 52.1018 39.2681 51.9962 39.0035 51.9962Z" fill="#11151A"/>
<path d="M75.516 50.14C74.8067 50.14 74.1487 50.014 73.542 49.762C72.9447 49.5007 72.422 49.1413 71.974 48.684C71.526 48.2173 71.1807 47.6807 70.938 47.074C70.6953 46.458 70.574 45.8 70.574 45.1C70.574 44.4 70.6953 43.7467 70.938 43.14C71.1807 42.524 71.526 41.9873 71.974 41.53C72.422 41.0727 72.9447 40.7133 73.542 40.452C74.1487 40.1907 74.8067 40.06 75.516 40.06C76.3093 40.06 76.9953 40.1907 77.574 40.452C78.1527 40.7133 78.666 41.068 79.114 41.516L78.022 42.608C77.7327 42.2907 77.378 42.0433 76.958 41.866C76.5473 41.6887 76.0667 41.6 75.516 41.6C75.0307 41.6 74.5873 41.684 74.186 41.852C73.7847 42.02 73.4347 42.2627 73.136 42.58C72.8467 42.888 72.6227 43.2567 72.464 43.686C72.3053 44.1153 72.226 44.5867 72.226 45.1C72.226 45.6133 72.3053 46.0847 72.464 46.514C72.6227 46.9433 72.8467 47.3167 73.136 47.634C73.4347 47.942 73.7847 48.18 74.186 48.348C74.5873 48.516 75.0307 48.6 75.516 48.6C76.1133 48.6 76.6173 48.5113 77.028 48.334C77.448 48.1473 77.8027 47.8953 78.092 47.578L79.184 48.67C78.736 49.1273 78.2087 49.4867 77.602 49.748C76.9953 50.0093 76.3 50.14 75.516 50.14ZM80.4246 50V43.28H81.9646V50H80.4246ZM81.1946 42.048C80.9333 42.048 80.714 41.9593 80.5366 41.782C80.3686 41.6047 80.2846 41.3853 80.2846 41.124C80.2846 40.8627 80.3686 40.6433 80.5366 40.466C80.714 40.2887 80.9333 40.2 81.1946 40.2C81.4653 40.2 81.6846 40.2887 81.8526 40.466C82.0206 40.6433 82.1046 40.8627 82.1046 41.124C82.1046 41.3853 82.0206 41.6047 81.8526 41.782C81.6846 41.9593 81.4653 42.048 81.1946 42.048ZM84.7139 50V40.48H86.2539V50H84.7139ZM83.1039 44.68V43.28H87.8639V44.68H83.1039ZM91.6055 50.14C90.9988 50.14 90.4482 49.986 89.9535 49.678C89.4682 49.37 89.0808 48.9547 88.7915 48.432C88.5115 47.9 88.3715 47.3073 88.3715 46.654C88.3715 45.9913 88.5115 45.3987 88.7915 44.876C89.0808 44.344 89.4682 43.924 89.9535 43.616C90.4482 43.2987 90.9988 43.14 91.6055 43.14C92.1188 43.14 92.5715 43.252 92.9635 43.476C93.3648 43.6907 93.6822 43.9893 93.9155 44.372C94.1488 44.7547 94.2655 45.1887 94.2655 45.674V47.606C94.2655 48.0913 94.1488 48.5253 93.9155 48.908C93.6915 49.2907 93.3788 49.594 92.9775 49.818C92.5762 50.0327 92.1188 50.14 91.6055 50.14ZM91.8575 48.684C92.4268 48.684 92.8842 48.4927 93.2295 48.11C93.5842 47.7273 93.7615 47.2373 93.7615 46.64C93.7615 46.2387 93.6822 45.884 93.5235 45.576C93.3648 45.268 93.1408 45.03 92.8515 44.862C92.5715 44.6847 92.2402 44.596 91.8575 44.596C91.4842 44.596 91.1528 44.6847 90.8635 44.862C90.5835 45.03 90.3595 45.268 90.1915 45.576C90.0328 45.884 89.9535 46.2387 89.9535 46.64C89.9535 47.0413 90.0328 47.396 90.1915 47.704C90.3595 48.012 90.5835 48.2547 90.8635 48.432C91.1528 48.6 91.4842 48.684 91.8575 48.684ZM93.6635 50V48.194L93.9295 46.556L93.6635 44.932V43.28H95.2035V50H93.6635ZM99.1106 50.14C98.7373 50.14 98.3779 50.0933 98.0326 50C97.6873 49.8973 97.3699 49.7573 97.0806 49.58C96.7913 49.3933 96.5393 49.1693 96.3246 48.908L97.3046 47.928C97.5379 48.1987 97.8039 48.404 98.1026 48.544C98.4106 48.6747 98.7559 48.74 99.1386 48.74C99.4839 48.74 99.7453 48.6887 99.9226 48.586C100.1 48.4833 100.189 48.334 100.189 48.138C100.189 47.9327 100.105 47.774 99.9366 47.662C99.7686 47.55 99.5493 47.4567 99.2786 47.382C99.0173 47.298 98.7373 47.214 98.4386 47.13C98.1493 47.046 97.8693 46.934 97.5986 46.794C97.3373 46.6447 97.1226 46.444 96.9546 46.192C96.7866 45.94 96.7026 45.6133 96.7026 45.212C96.7026 44.7827 96.8006 44.414 96.9966 44.106C97.2019 43.798 97.4866 43.56 97.8506 43.392C98.2239 43.224 98.6673 43.14 99.1806 43.14C99.7219 43.14 100.198 43.238 100.609 43.434C101.029 43.6207 101.379 43.9053 101.659 44.288L100.679 45.268C100.483 45.0253 100.259 44.8433 100.007 44.722C99.7546 44.6007 99.4653 44.54 99.1386 44.54C98.8306 44.54 98.5926 44.5867 98.4246 44.68C98.2566 44.7733 98.1726 44.9087 98.1726 45.086C98.1726 45.2727 98.2566 45.4173 98.4246 45.52C98.5926 45.6227 98.8073 45.7113 99.0686 45.786C99.3393 45.8607 99.6193 45.9447 99.9086 46.038C100.207 46.122 100.487 46.2433 100.749 46.402C101.019 46.5513 101.239 46.7567 101.407 47.018C101.575 47.27 101.659 47.6013 101.659 48.012C101.659 48.6653 101.43 49.1833 100.973 49.566C100.515 49.9487 99.8946 50.14 99.1106 50.14ZM108.545 50.14C107.938 50.14 107.388 49.986 106.893 49.678C106.408 49.37 106.02 48.9547 105.731 48.432C105.451 47.9 105.311 47.3073 105.311 46.654C105.311 45.9913 105.451 45.3987 105.731 44.876C106.02 44.344 106.408 43.924 106.893 43.616C107.388 43.2987 107.938 43.14 108.545 43.14C109.058 43.14 109.511 43.252 109.903 43.476C110.304 43.6907 110.622 43.9893 110.855 44.372C111.088 44.7547 111.205 45.1887 111.205 45.674V47.606C111.205 48.0913 111.088 48.5253 110.855 48.908C110.631 49.2907 110.318 49.594 109.917 49.818C109.516 50.0327 109.058 50.14 108.545 50.14ZM108.797 48.684C109.366 48.684 109.824 48.4927 110.169 48.11C110.524 47.7273 110.701 47.2373 110.701 46.64C110.701 46.2387 110.622 45.884 110.463 45.576C110.304 45.268 110.08 45.03 109.791 44.862C109.511 44.6847 109.18 44.596 108.797 44.596C108.424 44.596 108.092 44.6847 107.803 44.862C107.523 45.03 107.299 45.268 107.131 45.576C106.972 45.884 106.893 46.2387 106.893 46.64C106.893 47.0413 106.972 47.396 107.131 47.704C107.299 48.012 107.523 48.2547 107.803 48.432C108.092 48.6 108.424 48.684 108.797 48.684ZM110.603 50V48.194L110.869 46.556L110.603 44.932V43.28H112.143V50H110.603ZM116.652 52.94C115.943 52.94 115.322 52.8093 114.79 52.548C114.258 52.296 113.829 51.9367 113.502 51.47L114.51 50.462C114.781 50.798 115.089 51.05 115.434 51.218C115.779 51.386 116.195 51.47 116.68 51.47C117.287 51.47 117.767 51.3113 118.122 50.994C118.477 50.686 118.654 50.2613 118.654 49.72V48.068L118.92 46.584L118.654 45.086V43.28H120.194V49.72C120.194 50.364 120.045 50.924 119.746 51.4C119.447 51.8853 119.032 52.2633 118.5 52.534C117.968 52.8047 117.352 52.94 116.652 52.94ZM116.582 49.86C115.985 49.86 115.443 49.7153 114.958 49.426C114.482 49.1273 114.104 48.7213 113.824 48.208C113.553 47.6947 113.418 47.1207 113.418 46.486C113.418 45.8513 113.553 45.282 113.824 44.778C114.104 44.274 114.482 43.8773 114.958 43.588C115.443 43.2893 115.985 43.14 116.582 43.14C117.114 43.14 117.581 43.2473 117.982 43.462C118.383 43.6767 118.696 43.9753 118.92 44.358C119.144 44.7313 119.256 45.17 119.256 45.674V47.326C119.256 47.8207 119.139 48.2593 118.906 48.642C118.682 49.0247 118.369 49.3233 117.968 49.538C117.567 49.7527 117.105 49.86 116.582 49.86ZM116.89 48.404C117.263 48.404 117.59 48.3247 117.87 48.166C118.15 48.0073 118.365 47.788 118.514 47.508C118.673 47.2187 118.752 46.8827 118.752 46.5C118.752 46.1173 118.673 45.786 118.514 45.506C118.365 45.2167 118.15 44.9927 117.87 44.834C117.59 44.6753 117.263 44.596 116.89 44.596C116.517 44.596 116.185 44.6753 115.896 44.834C115.616 44.9927 115.397 45.2167 115.238 45.506C115.079 45.786 115 46.1173 115 46.5C115 46.8733 115.079 47.2047 115.238 47.494C115.397 47.7833 115.616 48.0073 115.896 48.166C116.185 48.3247 116.517 48.404 116.89 48.404ZM125.027 50.14C124.355 50.14 123.748 49.9907 123.207 49.692C122.675 49.384 122.25 48.964 121.933 48.432C121.625 47.9 121.471 47.3027 121.471 46.64C121.471 45.9773 121.625 45.3847 121.933 44.862C122.241 44.33 122.656 43.91 123.179 43.602C123.711 43.294 124.299 43.14 124.943 43.14C125.568 43.14 126.119 43.2847 126.595 43.574C127.08 43.8633 127.458 44.26 127.729 44.764C128.009 45.268 128.149 45.842 128.149 46.486C128.149 46.598 128.139 46.7147 128.121 46.836C128.111 46.948 128.093 47.074 128.065 47.214H122.549V45.954H127.267L126.693 46.458C126.674 46.0473 126.595 45.702 126.455 45.422C126.315 45.142 126.114 44.9273 125.853 44.778C125.601 44.6287 125.288 44.554 124.915 44.554C124.523 44.554 124.182 44.638 123.893 44.806C123.603 44.974 123.379 45.212 123.221 45.52C123.062 45.8187 122.983 46.178 122.983 46.598C122.983 47.018 123.067 47.3867 123.235 47.704C123.403 48.0213 123.641 48.2687 123.949 48.446C124.257 48.614 124.611 48.698 125.013 48.698C125.358 48.698 125.675 48.6373 125.965 48.516C126.263 48.3947 126.515 48.2173 126.721 47.984L127.701 48.978C127.374 49.3607 126.977 49.65 126.511 49.846C126.044 50.042 125.549 50.14 125.027 50.14ZM133.989 50V46.122C133.989 45.674 133.845 45.3053 133.555 45.016C133.275 44.7267 132.911 44.582 132.463 44.582C132.165 44.582 131.899 44.6473 131.665 44.778C131.432 44.9087 131.25 45.0907 131.119 45.324C130.989 45.5573 130.923 45.8233 130.923 46.122L130.321 45.786C130.321 45.2727 130.433 44.82 130.657 44.428C130.881 44.0267 131.189 43.714 131.581 43.49C131.983 43.2567 132.431 43.14 132.925 43.14C133.429 43.14 133.877 43.2707 134.269 43.532C134.661 43.784 134.969 44.1153 135.193 44.526C135.417 44.9273 135.529 45.3473 135.529 45.786V50H133.989ZM129.383 50V43.28H130.923V50H129.383ZM139.908 50.14C139.302 50.14 138.751 49.986 138.256 49.678C137.771 49.37 137.384 48.9547 137.094 48.432C136.814 47.9 136.674 47.3073 136.674 46.654C136.674 45.9913 136.814 45.3987 137.094 44.876C137.384 44.344 137.771 43.924 138.256 43.616C138.751 43.2987 139.302 43.14 139.908 43.14C140.422 43.14 140.874 43.252 141.266 43.476C141.668 43.6907 141.985 43.9893 142.218 44.372C142.452 44.7547 142.568 45.1887 142.568 45.674V47.606C142.568 48.0913 142.452 48.5253 142.218 48.908C141.994 49.2907 141.682 49.594 141.28 49.818C140.879 50.0327 140.422 50.14 139.908 50.14ZM140.16 48.684C140.543 48.684 140.874 48.6 141.154 48.432C141.444 48.2547 141.668 48.012 141.826 47.704C141.985 47.396 142.064 47.0413 142.064 46.64C142.064 46.2387 141.985 45.884 141.826 45.576C141.668 45.268 141.444 45.03 141.154 44.862C140.874 44.6847 140.548 44.596 140.174 44.596C139.792 44.596 139.456 44.6847 139.166 44.862C138.886 45.03 138.662 45.268 138.494 45.576C138.336 45.884 138.256 46.2387 138.256 46.64C138.256 47.0413 138.336 47.396 138.494 47.704C138.662 48.012 138.886 48.2547 139.166 48.432C139.456 48.6 139.787 48.684 140.16 48.684ZM143.506 50H141.966V48.194L142.232 46.556L141.966 44.932V39.92H143.506V50ZM148.029 50.14C147.423 50.14 146.872 49.986 146.377 49.678C145.892 49.37 145.505 48.9547 145.215 48.432C144.935 47.9 144.795 47.3073 144.795 46.654C144.795 45.9913 144.935 45.3987 145.215 44.876C145.505 44.344 145.892 43.924 146.377 43.616C146.872 43.2987 147.423 43.14 148.029 43.14C148.543 43.14 148.995 43.252 149.387 43.476C149.789 43.6907 150.106 43.9893 150.339 44.372C150.573 44.7547 150.689 45.1887 150.689 45.674V47.606C150.689 48.0913 150.573 48.5253 150.339 48.908C150.115 49.2907 149.803 49.594 149.401 49.818C149 50.0327 148.543 50.14 148.029 50.14ZM148.281 48.684C148.851 48.684 149.308 48.4927 149.653 48.11C150.008 47.7273 150.185 47.2373 150.185 46.64C150.185 46.2387 150.106 45.884 149.947 45.576C149.789 45.268 149.565 45.03 149.275 44.862C148.995 44.6847 148.664 44.596 148.281 44.596C147.908 44.596 147.577 44.6847 147.287 44.862C147.007 45.03 146.783 45.268 146.615 45.576C146.457 45.884 146.377 46.2387 146.377 46.64C146.377 47.0413 146.457 47.396 146.615 47.704C146.783 48.012 147.007 48.2547 147.287 48.432C147.577 48.6 147.908 48.684 148.281 48.684ZM150.087 50V48.194L150.353 46.556L150.087 44.932V43.28H151.627V50H150.087ZM156.15 50.14C155.544 50.14 154.993 49.986 154.498 49.678C154.013 49.37 153.626 48.9547 153.336 48.432C153.056 47.9 152.916 47.3073 152.916 46.654C152.916 45.9913 153.056 45.3987 153.336 44.876C153.626 44.344 154.013 43.924 154.498 43.616C154.993 43.2987 155.544 43.14 156.15 43.14C156.664 43.14 157.116 43.252 157.508 43.476C157.91 43.6907 158.227 43.9893 158.46 44.372C158.694 44.7547 158.81 45.1887 158.81 45.674V47.606C158.81 48.0913 158.694 48.5253 158.46 48.908C158.236 49.2907 157.924 49.594 157.522 49.818C157.121 50.0327 156.664 50.14 156.15 50.14ZM156.402 48.684C156.785 48.684 157.116 48.6 157.396 48.432C157.686 48.2547 157.91 48.012 158.068 47.704C158.227 47.396 158.306 47.0413 158.306 46.64C158.306 46.2387 158.227 45.884 158.068 45.576C157.91 45.268 157.686 45.03 157.396 44.862C157.116 44.6847 156.79 44.596 156.416 44.596C156.034 44.596 155.698 44.6847 155.408 44.862C155.128 45.03 154.904 45.268 154.736 45.576C154.578 45.884 154.498 46.2387 154.498 46.64C154.498 47.0413 154.578 47.396 154.736 47.704C154.904 48.012 155.128 48.2547 155.408 48.432C155.698 48.6 156.029 48.684 156.402 48.684ZM159.748 50H158.208V48.194L158.474 46.556L158.208 44.932V39.92H159.748V50ZM164.272 50.14C163.665 50.14 163.114 49.986 162.62 49.678C162.134 49.37 161.747 48.9547 161.458 48.432C161.178 47.9 161.038 47.3073 161.038 46.654C161.038 45.9913 161.178 45.3987 161.458 44.876C161.747 44.344 162.134 43.924 162.62 43.616C163.114 43.2987 163.665 43.14 164.272 43.14C164.785 43.14 165.238 43.252 165.63 43.476C166.031 43.6907 166.348 43.9893 166.582 44.372C166.815 44.7547 166.932 45.1887 166.932 45.674V47.606C166.932 48.0913 166.815 48.5253 166.582 48.908C166.358 49.2907 166.045 49.594 165.644 49.818C165.242 50.0327 164.785 50.14 164.272 50.14ZM164.524 48.684C165.093 48.684 165.55 48.4927 165.896 48.11C166.25 47.7273 166.428 47.2373 166.428 46.64C166.428 46.2387 166.348 45.884 166.19 45.576C166.031 45.268 165.807 45.03 165.518 44.862C165.238 44.6847 164.906 44.596 164.524 44.596C164.15 44.596 163.819 44.6847 163.53 44.862C163.25 45.03 163.026 45.268 162.858 45.576C162.699 45.884 162.62 46.2387 162.62 46.64C162.62 47.0413 162.699 47.396 162.858 47.704C163.026 48.012 163.25 48.2547 163.53 48.432C163.819 48.6 164.15 48.684 164.524 48.684ZM166.33 50V48.194L166.596 46.556L166.33 44.932V43.28H167.87V50H166.33ZM171.777 50.14C171.403 50.14 171.044 50.0933 170.699 50C170.353 49.8973 170.036 49.7573 169.747 49.58C169.457 49.3933 169.205 49.1693 168.991 48.908L169.971 47.928C170.204 48.1987 170.47 48.404 170.769 48.544C171.077 48.6747 171.422 48.74 171.805 48.74C172.15 48.74 172.411 48.6887 172.589 48.586C172.766 48.4833 172.855 48.334 172.855 48.138C172.855 47.9327 172.771 47.774 172.603 47.662C172.435 47.55 172.215 47.4567 171.945 47.382C171.683 47.298 171.403 47.214 171.105 47.13C170.815 47.046 170.535 46.934 170.265 46.794C170.003 46.6447 169.789 46.444 169.621 46.192C169.453 45.94 169.369 45.6133 169.369 45.212C169.369 44.7827 169.467 44.414 169.663 44.106C169.868 43.798 170.153 43.56 170.517 43.392C170.89 43.224 171.333 43.14 171.847 43.14C172.388 43.14 172.864 43.238 173.275 43.434C173.695 43.6207 174.045 43.9053 174.325 44.288L173.345 45.268C173.149 45.0253 172.925 44.8433 172.673 44.722C172.421 44.6007 172.131 44.54 171.805 44.54C171.497 44.54 171.259 44.5867 171.091 44.68C170.923 44.7733 170.839 44.9087 170.839 45.086C170.839 45.2727 170.923 45.4173 171.091 45.52C171.259 45.6227 171.473 45.7113 171.735 45.786C172.005 45.8607 172.285 45.9447 172.575 46.038C172.873 46.122 173.153 46.2433 173.415 46.402C173.685 46.5513 173.905 46.7567 174.073 47.018C174.241 47.27 174.325 47.6013 174.325 48.012C174.325 48.6653 174.096 49.1833 173.639 49.566C173.181 49.9487 172.561 50.14 171.777 50.14Z" fill="#11151A"/>
<path d="M34 137C34 134.791 35.7909 133 38 133H54C56.2091 133 58 134.791 58 137V163H34V137Z" fill="#72D4CA"/>
<path d="M98 102C98 99.7909 99.7909 98 102 98H118C120.209 98 122 99.7909 122 102V163H98V102Z" fill="#72D4CA"/>
<path d="M130 84C130 81.7909 131.791 80 134 80H150C152.209 80 154 81.7909 154 84V163H130V84Z" fill="#2C968B"/>
<path d="M162 125C162 122.791 163.791 121 166 121H182C184.209 121 186 122.791 186 125V163H162V125Z" fill="#72D4CA"/>
<path d="M194 118C194 115.791 195.791 114 198 114H214C216.209 114 218 115.791 218 118V163H194V118Z" fill="#72D4CA"/>
<path d="M226 118C226 115.791 227.791 114 230 114H246C248.209 114 250 115.791 250 118V163H226V118Z" fill="#72D4CA"/>
<path d="M258 95C258 92.7909 259.791 91 262 91H278C280.209 91 282 92.7909 282 95V163H258V95Z" fill="#72D4CA"/>
<path d="M66 118C66 115.791 67.7909 114 70 114H86C88.2091 114 90 115.791 90 118V163H66V118Z" fill="#72D4CA"/>
<path d="M48.658 193.186C48.658 191.968 49.372 190.988 50.492 190.582C49.54 190.176 49.022 189.378 49.022 188.356C49.022 186.774 50.38 185.696 52.396 185.696C54.384 185.696 55.728 186.774 55.728 188.37C55.728 189.406 55.196 190.204 54.244 190.582C55.378 190.946 56.106 191.954 56.106 193.2C56.106 194.978 54.622 196.168 52.382 196.168C50.128 196.168 48.658 194.978 48.658 193.186ZM50.282 188.44C50.282 189.434 51.108 190.078 52.368 190.078C53.642 190.078 54.44 189.448 54.44 188.468C54.44 187.502 53.642 186.886 52.368 186.886C51.108 186.886 50.282 187.502 50.282 188.44ZM50.002 193.088C50.002 194.222 50.94 194.95 52.382 194.95C53.81 194.95 54.748 194.222 54.748 193.088C54.748 191.968 53.824 191.254 52.368 191.254C50.926 191.254 50.002 191.968 50.002 193.088ZM57.436 190.946C57.436 187.81 59.06 185.682 61.608 185.682C64.142 185.682 65.766 187.81 65.766 190.946C65.766 194.096 64.212 196.182 61.608 196.182C58.99 196.182 57.436 194.096 57.436 190.946ZM58.794 190.946C58.794 193.438 59.83 194.95 61.608 194.95C63.386 194.95 64.408 193.438 64.408 190.946C64.408 188.426 63.386 186.914 61.608 186.914C59.83 186.914 58.794 188.426 58.794 190.946ZM70.7892 192.584C70.7892 190.442 72.1472 188.958 74.1492 188.958C75.8712 188.958 77.0752 189.938 77.3132 191.464H75.9972C75.7732 190.596 75.0732 190.134 74.1912 190.134C72.9452 190.134 72.0912 191.086 72.0912 192.57C72.0912 194.04 72.8892 194.992 74.1352 194.992C75.0732 194.992 75.7732 194.502 76.0112 193.69H77.3272C77.0612 195.174 75.7872 196.168 74.1352 196.168C72.1192 196.168 70.7892 194.74 70.7892 192.584ZM79.3597 187.53C78.8837 187.53 78.4917 187.138 78.4917 186.662C78.4917 186.172 78.8837 185.794 79.3597 185.794C79.8357 185.794 80.2277 186.172 80.2277 186.662C80.2277 187.138 79.8357 187.53 79.3597 187.53ZM78.7157 196V189.154H80.0317V196H78.7157ZM83.8742 196H82.5582V190.26H81.2142V189.154H82.5582V187.012H83.8742V189.154H85.2182V190.26H83.8742V196ZM88.3192 196.168C86.8492 196.168 85.9812 195.342 85.9812 194.096C85.9812 192.836 86.9192 192.052 88.5292 191.926L90.6852 191.758V191.562C90.6852 190.414 89.9992 190.008 89.0752 190.008C87.9692 190.008 87.3392 190.498 87.3392 191.324H86.1912C86.1912 189.896 87.3672 188.958 89.1312 188.958C90.8252 188.958 91.9732 189.854 91.9732 191.702V196H90.8532L90.7132 194.894C90.3632 195.678 89.4252 196.168 88.3192 196.168ZM88.6972 195.146C89.9432 195.146 90.6992 194.334 90.6992 193.046V192.682L88.9492 192.822C87.7872 192.934 87.3112 193.382 87.3112 194.054C87.3112 194.782 87.8432 195.146 88.6972 195.146ZM93.2358 194.012H94.4958C94.4958 194.712 95.0278 195.132 95.8958 195.132C96.8198 195.132 97.3518 194.754 97.3518 194.124C97.3518 193.662 97.1278 193.382 96.4138 193.2L95.2098 192.92C93.9918 192.626 93.4178 192.024 93.4178 191.016C93.4178 189.756 94.4818 188.958 95.9938 188.958C97.4918 188.958 98.4718 189.798 98.4998 191.1H97.2398C97.2118 190.414 96.7498 189.98 95.9518 189.98C95.1258 189.98 94.6638 190.344 94.6638 190.974C94.6638 191.436 94.9998 191.744 95.6718 191.912L96.8758 192.206C98.0378 192.486 98.6118 193.018 98.6118 194.04C98.6118 195.342 97.4918 196.168 95.8678 196.168C94.2578 196.168 93.2358 195.314 93.2358 194.012Z" fill="#4B5563"/>
<path d="M140.476 195.986L133.644 196V194.95L136.906 192.136C138.544 190.722 139.006 190.036 139.006 188.958C139.006 187.684 138.278 186.928 137.06 186.928C135.814 186.928 135.002 187.838 134.974 189.28H133.602C133.644 187.11 135.016 185.696 137.074 185.696C139.104 185.696 140.406 186.928 140.406 188.874C140.406 190.316 139.692 191.338 137.9 192.892L135.8 194.712H140.476V195.986ZM141.739 190.946C141.739 187.81 143.363 185.682 145.911 185.682C148.445 185.682 150.069 187.81 150.069 190.946C150.069 194.096 148.515 196.182 145.911 196.182C143.293 196.182 141.739 194.096 141.739 190.946ZM143.097 190.946C143.097 193.438 144.133 194.95 145.911 194.95C147.689 194.95 148.711 193.438 148.711 190.946C148.711 188.426 147.689 186.914 145.911 186.914C144.133 186.914 143.097 188.426 143.097 190.946ZM155.092 192.584C155.092 190.442 156.45 188.958 158.452 188.958C160.174 188.958 161.378 189.938 161.616 191.464H160.3C160.076 190.596 159.376 190.134 158.494 190.134C157.248 190.134 156.394 191.086 156.394 192.57C156.394 194.04 157.192 194.992 158.438 194.992C159.376 194.992 160.076 194.502 160.314 193.69H161.63C161.364 195.174 160.09 196.168 158.438 196.168C156.422 196.168 155.092 194.74 155.092 192.584ZM164.362 196H163.046V185.696H164.362V196ZM166.944 187.53C166.468 187.53 166.076 187.138 166.076 186.662C166.076 186.172 166.468 185.794 166.944 185.794C167.42 185.794 167.812 186.172 167.812 186.662C167.812 187.138 167.42 187.53 166.944 187.53ZM166.3 196V189.154H167.616V196H166.3ZM172.48 196.168C170.464 196.168 169.078 194.712 169.078 192.584C169.078 190.442 170.436 188.958 172.424 188.958C174.37 188.958 175.644 190.302 175.644 192.332V192.822L170.352 192.836C170.45 194.278 171.206 195.076 172.508 195.076C173.53 195.076 174.202 194.656 174.426 193.872H175.658C175.322 195.342 174.174 196.168 172.48 196.168ZM172.424 190.064C171.276 190.064 170.548 190.75 170.38 191.954H174.328C174.328 190.82 173.586 190.064 172.424 190.064ZM178.43 196H177.114V189.154H178.304L178.444 190.204C178.878 189.42 179.746 188.958 180.712 188.958C182.518 188.958 183.344 190.064 183.344 191.814V196H182.028V192.108C182.028 190.722 181.384 190.162 180.376 190.162C179.144 190.162 178.43 191.044 178.43 192.374V196ZM187.099 196H185.783V190.26H184.439V189.154H185.783V187.012H187.099V189.154H188.443V190.26H187.099V196ZM192.51 196.168C190.494 196.168 189.108 194.712 189.108 192.584C189.108 190.442 190.466 188.958 192.454 188.958C194.4 188.958 195.674 190.302 195.674 192.332V192.822L190.382 192.836C190.48 194.278 191.236 195.076 192.538 195.076C193.56 195.076 194.232 194.656 194.456 193.872H195.688C195.352 195.342 194.204 196.168 192.51 196.168ZM192.454 190.064C191.306 190.064 190.578 190.75 190.41 191.954H194.358C194.358 190.82 193.616 190.064 192.454 190.064ZM196.583 194.012H197.843C197.843 194.712 198.375 195.132 199.243 195.132C200.167 195.132 200.699 194.754 200.699 194.124C200.699 193.662 200.475 193.382 199.761 193.2L198.557 192.92C197.339 192.626 196.765 192.024 196.765 191.016C196.765 189.756 197.829 188.958 199.341 188.958C200.839 188.958 201.819 189.798 201.847 191.1H200.587C200.559 190.414 200.097 189.98 199.299 189.98C198.473 189.98 198.011 190.344 198.011 190.974C198.011 191.436 198.347 191.744 199.019 191.912L200.223 192.206C201.385 192.486 201.959 193.018 201.959 194.04C201.959 195.342 200.839 196.168 199.215 196.168C197.605 196.168 196.583 195.314 196.583 194.012Z" fill="#4B5563"/>
<path d="M238.598 197.358V196.154C236.75 196.042 235.532 194.992 235.448 193.354H236.848C236.876 194.25 237.534 194.838 238.598 194.95V191.464L238.094 191.352C236.442 190.974 235.588 190.05 235.588 188.608C235.588 187.012 236.778 185.878 238.598 185.724V184.506H239.494V185.71C241.188 185.864 242.266 186.9 242.364 188.524H241.006C240.95 187.628 240.404 187.054 239.494 186.928V190.4L240.04 190.526C241.72 190.904 242.532 191.786 242.532 193.186C242.532 194.852 241.342 195.972 239.494 196.14V197.358H238.598ZM238.374 190.134L238.598 190.19V186.928C237.562 187.068 236.932 187.67 236.932 188.566C236.932 189.378 237.394 189.896 238.374 190.134ZM239.76 191.744L239.494 191.688V194.922C240.544 194.782 241.188 194.18 241.188 193.298C241.188 192.486 240.726 191.968 239.76 191.744ZM251.312 193.956H250.108V196H248.792V193.956H243.556V192.738L248.33 185.878H250.108V192.738H251.312V193.956ZM245.04 192.738H248.792V187.334L245.04 192.738ZM252.666 190.946C252.666 187.81 254.29 185.682 256.838 185.682C259.372 185.682 260.996 187.81 260.996 190.946C260.996 194.096 259.442 196.182 256.838 196.182C254.22 196.182 252.666 194.096 252.666 190.946ZM254.024 190.946C254.024 193.438 255.06 194.95 256.838 194.95C258.616 194.95 259.638 193.438 259.638 190.946C259.638 188.426 258.616 186.914 256.838 186.914C255.06 186.914 254.024 188.426 254.024 190.946ZM263.984 196H262.668V185.696H263.984V192.374L267.022 189.154H268.674L266.056 191.884L268.66 196H267.148L265.146 192.836L263.984 194.054V196Z" fill="#4B5563"/>
<line x1="120.5" y1="175" x2="120.5" y2="204" stroke="black" stroke-opacity="0.1"/>
<line x1="215.5" y1="178" x2="215.5" y2="204" stroke="black" stroke-opacity="0.1"/>
</g>
<defs>
<filter id="filter0_d_1432_6721" x="0" y="0" width="319" height="227" filterUnits="userSpaceOnUse" color-interpolation-filters="sRGB">
<feFlood flood-opacity="0" result="BackgroundImageFix"/>
<feColorMatrix in="SourceAlpha" type="matrix" values="0 0 0 0 0 0 0 0 0 0 0 0 0 0 0 0 0 0 127 0" result="hardAlpha"/>
<feOffset dy="-4"/>
<feGaussianBlur stdDeviation="8"/>
<feComposite in2="hardAlpha" operator="out"/>
<feColorMatrix type="matrix" values="0 0 0 0 0.8 0 0 0 0 0.8 0 0 0 0 0.8 0 0 0 0.25 0"/>
<feBlend mode="normal" in2="BackgroundImageFix" result="effect1_dropShadow_1432_6721"/>
<feBlend mode="normal" in="SourceGraphic" in2="effect1_dropShadow_1432_6721" result="shape"/>
</filter>
</defs>
</svg>
