<svg width="89" height="44" viewBox="0 0 89 44" fill="none" xmlns="http://www.w3.org/2000/svg">
<path d="M65 24H12C5.37258 24 0 18.6274 0 12V12C0 5.37258 5.37258 0 12 0H45C56.0457 0 65 8.9543 65 20V24Z" fill="#C6A94F"/>
<path d="M12.46 17.168C9.478 17.168 7.546 15.096 7.546 11.89C7.546 8.712 9.548 6.598 12.544 6.598C14.966 6.598 16.772 8.012 17.122 10.21H15.232C14.882 9.02 13.86 8.32 12.502 8.32C10.612 8.32 9.422 9.692 9.422 11.876C9.422 14.046 10.626 15.446 12.502 15.446C13.888 15.446 14.952 14.718 15.288 13.584H17.15C16.758 15.74 14.882 17.168 12.46 17.168ZM20.4263 17.182C18.9563 17.182 18.0603 16.328 18.0603 15.026C18.0603 13.752 18.9843 12.954 20.6223 12.828L22.6943 12.674V12.52C22.6943 11.582 22.1343 11.204 21.2663 11.204C20.2583 11.204 19.6983 11.624 19.6983 12.352H18.2423C18.2423 10.854 19.4743 9.874 21.3503 9.874C23.2123 9.874 24.3603 10.882 24.3603 12.8V17H22.8623L22.7363 15.978C22.4423 16.692 21.5043 17.182 20.4263 17.182ZM20.9863 15.894C22.0363 15.894 22.7083 15.264 22.7083 14.2V13.836L21.2663 13.948C20.2023 14.046 19.7963 14.396 19.7963 14.956C19.7963 15.586 20.2163 15.894 20.9863 15.894ZM27.7463 17H26.0383V10.084H27.6063L27.7463 10.896C28.0963 10.322 28.7963 9.874 29.7903 9.874C30.8403 9.874 31.5683 10.392 31.9323 11.19C32.2823 10.392 33.0943 9.874 34.1443 9.874C35.8243 9.874 36.7483 10.882 36.7483 12.478V17H35.0543V12.926C35.0543 11.932 34.5223 11.414 33.7103 11.414C32.8843 11.414 32.2543 11.946 32.2543 13.08V17H30.5463V12.912C30.5463 11.946 30.0283 11.428 29.2163 11.428C28.4043 11.428 27.7463 11.96 27.7463 13.08V17ZM39.279 8.698C38.691 8.698 38.229 8.236 38.229 7.662C38.229 7.088 38.691 6.64 39.279 6.64C39.839 6.64 40.301 7.088 40.301 7.662C40.301 8.236 39.839 8.698 39.279 8.698ZM38.425 17V10.084H40.133V17H38.425ZM43.6196 17H41.9256V6.584H43.6196V17ZM45.0053 13.528C45.0053 11.372 46.5593 9.888 48.7013 9.888C50.8433 9.888 52.3973 11.372 52.3973 13.528C52.3973 15.684 50.8433 17.168 48.7013 17.168C46.5593 17.168 45.0053 15.684 45.0053 13.528ZM46.7133 13.528C46.7133 14.788 47.5253 15.642 48.7013 15.642C49.8773 15.642 50.6893 14.788 50.6893 13.528C50.6893 12.268 49.8773 11.414 48.7013 11.414C47.5253 11.414 46.7133 12.268 46.7133 13.528Z" fill="white"/>
<g clip-path="url(#clip0_1437_5059)">
<path d="M74.4378 21.0068L82.3652 39.4425C82.4817 39.7825 82.4614 40.0782 82.236 40.3074C82.0106 40.5365 81.6707 40.653 81.351 40.4738L62.9191 32.5359C62.6457 32.4473 62.4608 32.0851 62.4811 31.7895L62.5475 31.5844C62.614 31.3792 62.8394 31.1501 63.0205 31.0576L70.365 28.6779L73.0057 20.996C73.0944 20.7225 73.3881 20.5155 73.7059 20.4674C74.07 20.5098 74.3213 20.6668 74.4378 21.0068Z" fill="#C6A94F"/>
</g>
<defs>
<clipPath id="clip0_1437_5059">
<rect width="23" height="23" fill="white" transform="matrix(0.3083 -0.951289 -0.951289 -0.3083 81.8799 43.9688)"/>
</clipPath>
</defs>
</svg>
