<svg width="77" height="48" viewBox="0 0 77 48" fill="none" xmlns="http://www.w3.org/2000/svg">
<path d="M20 24H65C71.6274 24 77 29.3726 77 36V36C77 42.6274 71.6274 48 65 48H40C28.9543 48 20 39.0457 20 28V24Z" fill="#69BA77"/>
<path d="M34.546 33.622C34.546 31.83 36.03 30.584 38.186 30.584C40.258 30.584 41.574 31.732 41.63 33.58H39.838C39.796 32.698 39.166 32.18 38.158 32.18C37.052 32.18 36.338 32.712 36.338 33.566C36.338 34.294 36.73 34.7 37.584 34.896L39.194 35.246C40.944 35.624 41.798 36.52 41.798 38.046C41.798 39.95 40.314 41.182 38.06 41.182C35.876 41.182 34.448 40.02 34.406 38.186H36.198C36.212 39.054 36.912 39.572 38.06 39.572C39.25 39.572 40.006 39.054 40.006 38.2C40.006 37.514 39.656 37.108 38.816 36.926L37.192 36.562C35.456 36.184 34.546 35.19 34.546 33.622ZM42.7612 37.528C42.7612 35.372 44.3152 33.888 46.4572 33.888C48.5992 33.888 50.1532 35.372 50.1532 37.528C50.1532 39.684 48.5992 41.168 46.4572 41.168C44.3152 41.168 42.7612 39.684 42.7612 37.528ZM44.4692 37.528C44.4692 38.788 45.2812 39.642 46.4572 39.642C47.6332 39.642 48.4452 38.788 48.4452 37.528C48.4452 36.268 47.6332 35.414 46.4572 35.414C45.2812 35.414 44.4692 36.268 44.4692 37.528ZM50.7937 34.084H51.7877V33.244C51.7877 31.368 52.7817 30.584 54.2797 30.584C54.5457 30.584 54.8677 30.598 55.1617 30.654V32.11H54.5597C53.6917 32.11 53.4817 32.558 53.4817 33.244V34.084H55.1337V35.512H53.4817V41H51.7877V35.512H50.7937V34.084ZM59.0938 31.186L57.7358 33.258H56.4618L57.5118 31.186H59.0938ZM56.2238 41V34.084H57.9318V41H56.2238ZM61.7545 41.182C60.2845 41.182 59.3885 40.328 59.3885 39.026C59.3885 37.752 60.3125 36.954 61.9505 36.828L64.0225 36.674V36.52C64.0225 35.582 63.4625 35.204 62.5945 35.204C61.5865 35.204 61.0265 35.624 61.0265 36.352H59.5705C59.5705 34.854 60.8025 33.874 62.6785 33.874C64.5405 33.874 65.6885 34.882 65.6885 36.8V41H64.1905L64.0645 39.978C63.7705 40.692 62.8325 41.182 61.7545 41.182ZM62.3145 39.894C63.3645 39.894 64.0365 39.264 64.0365 38.2V37.836L62.5945 37.948C61.5305 38.046 61.1245 38.396 61.1245 38.956C61.1245 39.586 61.5445 39.894 62.3145 39.894Z" fill="white"/>
<g clip-path="url(#clip0_1437_4171)">
<path d="M22.3602 14.5753L4.55061 5.32652C4.22002 5.18559 3.92368 5.18427 3.6787 5.39237C3.43372 5.60047 3.29278 5.93105 3.4482 6.26296L10.023 25.2238C10.0915 25.5031 10.4392 25.7138 10.7355 25.7151L10.9449 25.6638C11.1543 25.6124 11.3993 25.4043 11.5047 25.2304L14.4129 18.0787L22.2667 16.0043C22.5459 15.9358 22.7738 15.6579 22.8449 15.3444C22.8291 14.9783 22.6908 14.7162 22.3602 14.5753Z" fill="#69BA77"/>
</g>
<defs>
<clipPath id="clip0_1437_4171">
<rect width="23" height="23" fill="white" transform="translate(0 5.48047) rotate(-13.7812)"/>
</clipPath>
</defs>
</svg>
