<svg width="310" height="227" viewBox="0 0 310 227" fill="none" xmlns="http://www.w3.org/2000/svg">
<g filter="url(#filter0_d_1426_4975)">
<g clip-path="url(#clip0_1426_4975)">
<rect x="7" y="20" width="287" height="195" rx="16" fill="white"/>
<path d="M29.9733 38.0044C29.7991 38.0081 29.629 38.0576 29.4799 38.1477C29.3307 38.2379 29.2076 38.3657 29.1229 38.5184L27.8529 40.8504L25.521 42.1203C25.3639 42.2066 25.2328 42.3337 25.1415 42.4883C25.0501 42.6429 25.002 42.8193 25.002 42.999C25.002 43.1788 25.0501 43.3553 25.1415 43.5099C25.2328 43.6645 25.3639 43.7916 25.521 43.8778L27.8529 45.1477L29.1229 47.4797C29.2082 47.639 29.335 47.7721 29.4898 47.8649C29.6445 47.9578 29.8214 48.0068 30.0016 48.0068C30.1818 48.0068 30.3587 47.9578 30.5134 47.8649C30.6682 47.7721 30.795 47.639 30.8803 47.4797L32.1578 45.1477L34.4785 43.8778C34.6356 43.7916 34.7666 43.6645 34.858 43.5099C34.9493 43.3553 34.9975 43.1788 34.9975 42.999C34.9975 42.8193 34.9493 42.6429 34.858 42.4883C34.7666 42.3337 34.6356 42.2066 34.4785 42.1203L32.1578 40.8504L30.8803 38.5184C30.7915 38.3565 30.6597 38.2224 30.4996 38.131C30.3395 38.0396 30.1573 37.9944 29.9733 38.0006V38.0044ZM29.9997 41.0809L30.5402 42.0636C30.632 42.2312 30.7697 42.3689 30.937 42.4605L31.9197 42.9972L30.937 43.5377C30.7697 43.6292 30.632 43.7668 30.5402 43.9344L29.9997 44.9172L29.4706 43.9344C29.3788 43.7668 29.241 43.6292 29.0737 43.5377L28.091 42.9972L29.0737 42.4605C29.2416 42.3679 29.3793 42.2288 29.4706 42.0598L29.9997 41.0809ZM40.0003 41.9993C39.8693 41.9988 39.7395 42.0242 39.6182 42.0741C39.497 42.124 39.3867 42.1974 39.2937 42.29C39.2007 42.3827 39.1268 42.4928 39.0762 42.6141C39.0256 42.7354 38.9993 42.8656 38.9988 42.9972C38.9988 43.129 39.0247 43.2595 39.0751 43.3813C39.1255 43.503 39.1993 43.6137 39.2923 43.7068C39.3854 43.7998 39.4958 43.8735 39.6173 43.9236C39.7388 43.9737 39.869 43.9992 40.0003 43.9987C40.265 43.9987 40.5188 43.8932 40.7059 43.7054C40.893 43.5175 40.9981 43.2628 40.9981 42.9972C40.9971 42.7322 40.8916 42.4784 40.7046 42.2914C40.5175 42.1044 40.2643 41.9993 40.0003 41.9993ZM39.9701 47.9937C39.7945 47.9989 39.6234 48.0506 39.4741 48.1435C39.3247 48.2364 39.2025 48.3673 39.1197 48.5229L37.8498 50.8434L35.5216 52.121C35.3645 52.2072 35.2334 52.3343 35.1421 52.4889C35.0508 52.6435 35.0026 52.8199 35.0026 52.9996C35.0026 53.1794 35.0508 53.3559 35.1421 53.5105C35.2334 53.6651 35.3645 53.7922 35.5216 53.8784L37.8498 55.1483L39.1197 57.4765C39.2051 57.6359 39.3319 57.7689 39.4866 57.8618C39.6413 57.9546 39.8182 58.0036 39.9985 58.0036C40.1787 58.0036 40.3556 57.9546 40.5103 57.8618C40.665 57.7689 40.7918 57.6359 40.8772 57.4765L42.1471 55.1483L44.4791 53.8784C44.6362 53.7922 44.7673 53.6651 44.8586 53.5105C44.9499 53.3559 44.9981 53.1794 44.9981 52.9996C44.9981 52.8199 44.9499 52.6435 44.8586 52.4889C44.7673 52.3343 44.6362 52.2072 44.4791 52.121L42.1471 50.8434L40.8772 48.5191C40.7893 48.3557 40.658 48.2201 40.4978 48.1274C40.3377 48.0346 40.1549 47.9883 39.9701 47.9937ZM40.0003 51.0778L40.537 52.0604C40.6293 52.2299 40.7684 52.3691 40.9377 52.4611L41.9203 52.9978L40.9377 53.5269C40.7684 53.6188 40.6293 53.758 40.537 53.9276L40.0003 54.9103L39.4599 53.9276C39.3681 53.7599 39.2303 53.6222 39.063 53.5307L38.0803 53.0016L39.063 52.4611C39.2309 52.3685 39.3686 52.2294 39.4599 52.0604L40.0003 51.0778ZM30.0035 51.9962C29.8721 51.9957 29.742 52.0212 29.6205 52.0714C29.499 52.1215 29.3886 52.1951 29.2955 52.2882C29.2024 52.3813 29.1286 52.4918 29.0782 52.6136C29.0278 52.7353 29.0019 52.8659 29.0019 52.9978C29.0024 53.1293 29.0287 53.2594 29.0793 53.3807C29.1299 53.502 29.2038 53.6123 29.2968 53.7049C29.3898 53.7976 29.5001 53.8709 29.6214 53.9208C29.7426 53.9706 29.8725 53.9961 30.0035 53.9956C30.2675 53.9956 30.5207 53.8906 30.7077 53.7036C30.8947 53.5165 31.0003 53.2628 31.0013 52.9978C31.0013 52.7321 30.8962 52.4774 30.709 52.2896C30.5219 52.1018 30.2681 51.9962 30.0035 51.9962Z" fill="#5158F6"/>
<path d="M61.336 50L65.368 40.2H66.488L70.492 50H68.756L65.62 42.062H66.208L63.044 50H61.336ZM63.324 48.11V46.71H68.518V48.11H63.324ZM74.0876 52.94C73.3783 52.94 72.7576 52.8093 72.2256 52.548C71.6936 52.296 71.2643 51.9367 70.9376 51.47L71.9456 50.462C72.2163 50.798 72.5243 51.05 72.8696 51.218C73.2149 51.386 73.6303 51.47 74.1156 51.47C74.7223 51.47 75.2029 51.3113 75.5576 50.994C75.9123 50.686 76.0896 50.2613 76.0896 49.72V48.068L76.3556 46.584L76.0896 45.086V43.28H77.6296V49.72C77.6296 50.364 77.4803 50.924 77.1816 51.4C76.8829 51.8853 76.4676 52.2633 75.9356 52.534C75.4036 52.8047 74.7876 52.94 74.0876 52.94ZM74.0176 49.86C73.4203 49.86 72.8789 49.7153 72.3936 49.426C71.9176 49.1273 71.5396 48.7213 71.2596 48.208C70.9889 47.6947 70.8536 47.1207 70.8536 46.486C70.8536 45.8513 70.9889 45.282 71.2596 44.778C71.5396 44.274 71.9176 43.8773 72.3936 43.588C72.8789 43.2893 73.4203 43.14 74.0176 43.14C74.5496 43.14 75.0163 43.2473 75.4176 43.462C75.8189 43.6767 76.1316 43.9753 76.3556 44.358C76.5796 44.7313 76.6916 45.17 76.6916 45.674V47.326C76.6916 47.8207 76.5749 48.2593 76.3416 48.642C76.1176 49.0247 75.8049 49.3233 75.4036 49.538C75.0023 49.7527 74.5403 49.86 74.0176 49.86ZM74.3256 48.404C74.6989 48.404 75.0256 48.3247 75.3056 48.166C75.5856 48.0073 75.8003 47.788 75.9496 47.508C76.1083 47.2187 76.1876 46.8827 76.1876 46.5C76.1876 46.1173 76.1083 45.786 75.9496 45.506C75.8003 45.2167 75.5856 44.9927 75.3056 44.834C75.0256 44.6753 74.6989 44.596 74.3256 44.596C73.9523 44.596 73.6209 44.6753 73.3316 44.834C73.0516 44.9927 72.8323 45.2167 72.6736 45.506C72.5149 45.786 72.4356 46.1173 72.4356 46.5C72.4356 46.8733 72.5149 47.2047 72.6736 47.494C72.8323 47.7833 73.0516 48.0073 73.3316 48.166C73.6209 48.3247 73.9523 48.404 74.3256 48.404ZM82.4623 50.14C81.7903 50.14 81.1837 49.9907 80.6423 49.692C80.1103 49.384 79.6857 48.964 79.3683 48.432C79.0603 47.9 78.9063 47.3027 78.9063 46.64C78.9063 45.9773 79.0603 45.3847 79.3683 44.862C79.6763 44.33 80.0917 43.91 80.6143 43.602C81.1463 43.294 81.7343 43.14 82.3783 43.14C83.0037 43.14 83.5543 43.2847 84.0303 43.574C84.5157 43.8633 84.8937 44.26 85.1643 44.764C85.4443 45.268 85.5843 45.842 85.5843 46.486C85.5843 46.598 85.575 46.7147 85.5563 46.836C85.547 46.948 85.5283 47.074 85.5003 47.214H79.9843V45.954H84.7023L84.1283 46.458C84.1097 46.0473 84.0303 45.702 83.8903 45.422C83.7503 45.142 83.5497 44.9273 83.2883 44.778C83.0363 44.6287 82.7237 44.554 82.3503 44.554C81.9583 44.554 81.6177 44.638 81.3283 44.806C81.039 44.974 80.815 45.212 80.6563 45.52C80.4977 45.8187 80.4183 46.178 80.4183 46.598C80.4183 47.018 80.5023 47.3867 80.6703 47.704C80.8383 48.0213 81.0763 48.2687 81.3843 48.446C81.6923 48.614 82.047 48.698 82.4483 48.698C82.7937 48.698 83.111 48.6373 83.4003 48.516C83.699 48.3947 83.951 48.2173 84.1563 47.984L85.1363 48.978C84.8097 49.3607 84.413 49.65 83.9463 49.846C83.4797 50.042 82.985 50.14 82.4623 50.14ZM91.4248 50V46.122C91.4248 45.674 91.2802 45.3053 90.9908 45.016C90.7108 44.7267 90.3468 44.582 89.8988 44.582C89.6002 44.582 89.3342 44.6473 89.1008 44.778C88.8675 44.9087 88.6855 45.0907 88.5548 45.324C88.4242 45.5573 88.3588 45.8233 88.3588 46.122L87.7568 45.786C87.7568 45.2727 87.8688 44.82 88.0928 44.428C88.3168 44.0267 88.6248 43.714 89.0168 43.49C89.4182 43.2567 89.8662 43.14 90.3608 43.14C90.8648 43.14 91.3128 43.2707 91.7048 43.532C92.0968 43.784 92.4048 44.1153 92.6288 44.526C92.8528 44.9273 92.9648 45.3473 92.9648 45.786V50H91.4248ZM86.8188 50V43.28H88.3588V50H86.8188ZM97.3438 50.14C96.7371 50.14 96.1864 49.986 95.6918 49.678C95.2064 49.37 94.8191 48.9547 94.5298 48.432C94.2498 47.9 94.1098 47.3073 94.1098 46.654C94.1098 45.9913 94.2498 45.3987 94.5298 44.876C94.8191 44.344 95.2064 43.924 95.6918 43.616C96.1864 43.2987 96.7371 43.14 97.3438 43.14C97.8571 43.14 98.3098 43.252 98.7018 43.476C99.1031 43.6907 99.4204 43.9893 99.6538 44.372C99.8871 44.7547 100.004 45.1887 100.004 45.674V47.606C100.004 48.0913 99.8871 48.5253 99.6538 48.908C99.4298 49.2907 99.1171 49.594 98.7158 49.818C98.3144 50.0327 97.8571 50.14 97.3438 50.14ZM97.5958 48.684C97.9784 48.684 98.3098 48.6 98.5898 48.432C98.8791 48.2547 99.1031 48.012 99.2618 47.704C99.4204 47.396 99.4998 47.0413 99.4998 46.64C99.4998 46.2387 99.4204 45.884 99.2618 45.576C99.1031 45.268 98.8791 45.03 98.5898 44.862C98.3098 44.6847 97.9831 44.596 97.6098 44.596C97.2271 44.596 96.8911 44.6847 96.6018 44.862C96.3218 45.03 96.0978 45.268 95.9298 45.576C95.7711 45.884 95.6918 46.2387 95.6918 46.64C95.6918 47.0413 95.7711 47.396 95.9298 47.704C96.0978 48.012 96.3218 48.2547 96.6018 48.432C96.8911 48.6 97.2224 48.684 97.5958 48.684ZM100.942 50H99.4018V48.194L99.6678 46.556L99.4018 44.932V39.92H100.942V50ZM105.465 50.14C104.858 50.14 104.308 49.986 103.813 49.678C103.328 49.37 102.94 48.9547 102.651 48.432C102.371 47.9 102.231 47.3073 102.231 46.654C102.231 45.9913 102.371 45.3987 102.651 44.876C102.94 44.344 103.328 43.924 103.813 43.616C104.308 43.2987 104.858 43.14 105.465 43.14C105.978 43.14 106.431 43.252 106.823 43.476C107.224 43.6907 107.542 43.9893 107.775 44.372C108.008 44.7547 108.125 45.1887 108.125 45.674V47.606C108.125 48.0913 108.008 48.5253 107.775 48.908C107.551 49.2907 107.238 49.594 106.837 49.818C106.436 50.0327 105.978 50.14 105.465 50.14ZM105.717 48.684C106.286 48.684 106.744 48.4927 107.089 48.11C107.444 47.7273 107.621 47.2373 107.621 46.64C107.621 46.2387 107.542 45.884 107.383 45.576C107.224 45.268 107 45.03 106.711 44.862C106.431 44.6847 106.1 44.596 105.717 44.596C105.344 44.596 105.012 44.6847 104.723 44.862C104.443 45.03 104.219 45.268 104.051 45.576C103.892 45.884 103.813 46.2387 103.813 46.64C103.813 47.0413 103.892 47.396 104.051 47.704C104.219 48.012 104.443 48.2547 104.723 48.432C105.012 48.6 105.344 48.684 105.717 48.684ZM107.523 50V48.194L107.789 46.556L107.523 44.932V43.28H109.063V50H107.523ZM116.333 50.14C115.763 50.14 115.255 50.014 114.807 49.762C114.368 49.51 114.023 49.1647 113.771 48.726C113.528 48.278 113.407 47.7647 113.407 47.186V43.28H114.947V47.116C114.947 47.4427 114.998 47.7227 115.101 47.956C115.213 48.18 115.371 48.3527 115.577 48.474C115.791 48.5953 116.043 48.656 116.333 48.656C116.781 48.656 117.121 48.5253 117.355 48.264C117.597 47.9933 117.719 47.6107 117.719 47.116V43.28H119.259V47.186C119.259 47.774 119.133 48.292 118.881 48.74C118.638 49.1787 118.297 49.524 117.859 49.776C117.42 50.0187 116.911 50.14 116.333 50.14ZM125.413 50V46.122C125.413 45.674 125.268 45.3053 124.979 45.016C124.699 44.7267 124.335 44.582 123.887 44.582C123.588 44.582 123.322 44.6473 123.089 44.778C122.856 44.9087 122.674 45.0907 122.543 45.324C122.412 45.5573 122.347 45.8233 122.347 46.122L121.745 45.786C121.745 45.2727 121.857 44.82 122.081 44.428C122.305 44.0267 122.613 43.714 123.005 43.49C123.406 43.2567 123.854 43.14 124.349 43.14C124.853 43.14 125.301 43.2707 125.693 43.532C126.085 43.784 126.393 44.1153 126.617 44.526C126.841 44.9273 126.953 45.3473 126.953 45.786V50H125.413ZM120.807 50V43.28H122.347V50H120.807ZM131.332 50.14C130.725 50.14 130.175 49.986 129.68 49.678C129.195 49.37 128.807 48.9547 128.518 48.432C128.238 47.9 128.098 47.3073 128.098 46.654C128.098 45.9913 128.238 45.3987 128.518 44.876C128.807 44.344 129.195 43.924 129.68 43.616C130.175 43.2987 130.725 43.14 131.332 43.14C131.845 43.14 132.298 43.252 132.69 43.476C133.091 43.6907 133.409 43.9893 133.642 44.372C133.875 44.7547 133.992 45.1887 133.992 45.674V47.606C133.992 48.0913 133.875 48.5253 133.642 48.908C133.418 49.2907 133.105 49.594 132.704 49.818C132.303 50.0327 131.845 50.14 131.332 50.14ZM131.584 48.684C132.153 48.684 132.611 48.4927 132.956 48.11C133.311 47.7273 133.488 47.2373 133.488 46.64C133.488 46.2387 133.409 45.884 133.25 45.576C133.091 45.268 132.867 45.03 132.578 44.862C132.298 44.6847 131.967 44.596 131.584 44.596C131.211 44.596 130.879 44.6847 130.59 44.862C130.31 45.03 130.086 45.268 129.918 45.576C129.759 45.884 129.68 46.2387 129.68 46.64C129.68 47.0413 129.759 47.396 129.918 47.704C130.086 48.012 130.31 48.2547 130.59 48.432C130.879 48.6 131.211 48.684 131.584 48.684ZM133.39 50V48.194L133.656 46.556L133.39 44.932V43.28H134.93V50H133.39ZM142.536 50.14C141.873 50.14 141.271 49.986 140.73 49.678C140.198 49.37 139.778 48.95 139.47 48.418C139.162 47.886 139.008 47.2933 139.008 46.64C139.008 45.9773 139.162 45.3847 139.47 44.862C139.778 44.33 140.198 43.91 140.73 43.602C141.271 43.294 141.873 43.14 142.536 43.14C143.059 43.14 143.544 43.2427 143.992 43.448C144.449 43.644 144.837 43.9287 145.154 44.302L144.146 45.324C143.95 45.0907 143.712 44.918 143.432 44.806C143.161 44.6847 142.863 44.624 142.536 44.624C142.153 44.624 141.813 44.7127 141.514 44.89C141.225 45.058 140.996 45.2913 140.828 45.59C140.669 45.8887 140.59 46.2387 140.59 46.64C140.59 47.032 140.669 47.382 140.828 47.69C140.996 47.9887 141.225 48.2267 141.514 48.404C141.813 48.572 142.153 48.656 142.536 48.656C142.863 48.656 143.161 48.6 143.432 48.488C143.712 48.3667 143.95 48.1893 144.146 47.956L145.154 48.978C144.837 49.3513 144.449 49.6407 143.992 49.846C143.544 50.042 143.059 50.14 142.536 50.14ZM146.278 50V43.28H147.818V50H146.278ZM147.048 42.048C146.787 42.048 146.567 41.9593 146.39 41.782C146.222 41.6047 146.138 41.3853 146.138 41.124C146.138 40.8627 146.222 40.6433 146.39 40.466C146.567 40.2887 146.787 40.2 147.048 40.2C147.319 40.2 147.538 40.2887 147.706 40.466C147.874 40.6433 147.958 40.8627 147.958 41.124C147.958 41.3853 147.874 41.6047 147.706 41.782C147.538 41.9593 147.319 42.048 147.048 42.048ZM150.567 50V40.48H152.107V50H150.567ZM148.957 44.68V43.28H153.717V44.68H148.957ZM157.459 50.14C156.852 50.14 156.302 49.986 155.807 49.678C155.322 49.37 154.934 48.9547 154.645 48.432C154.365 47.9 154.225 47.3073 154.225 46.654C154.225 45.9913 154.365 45.3987 154.645 44.876C154.934 44.344 155.322 43.924 155.807 43.616C156.302 43.2987 156.852 43.14 157.459 43.14C157.972 43.14 158.425 43.252 158.817 43.476C159.218 43.6907 159.536 43.9893 159.769 44.372C160.002 44.7547 160.119 45.1887 160.119 45.674V47.606C160.119 48.0913 160.002 48.5253 159.769 48.908C159.545 49.2907 159.232 49.594 158.831 49.818C158.43 50.0327 157.972 50.14 157.459 50.14ZM157.711 48.684C158.28 48.684 158.738 48.4927 159.083 48.11C159.438 47.7273 159.615 47.2373 159.615 46.64C159.615 46.2387 159.536 45.884 159.377 45.576C159.218 45.268 158.994 45.03 158.705 44.862C158.425 44.6847 158.094 44.596 157.711 44.596C157.338 44.596 157.006 44.6847 156.717 44.862C156.437 45.03 156.213 45.268 156.045 45.576C155.886 45.884 155.807 46.2387 155.807 46.64C155.807 47.0413 155.886 47.396 156.045 47.704C156.213 48.012 156.437 48.2547 156.717 48.432C157.006 48.6 157.338 48.684 157.711 48.684ZM159.517 50V48.194L159.783 46.556L159.517 44.932V43.28H161.057V50H159.517Z" fill="#5158F6"/>
<path d="M30.8 117.24C26.54 117.24 23.78 114.28 23.78 109.7C23.78 105.16 26.64 102.14 30.92 102.14C34.38 102.14 36.96 104.16 37.46 107.3H34.76C34.26 105.6 32.8 104.6 30.86 104.6C28.16 104.6 26.46 106.56 26.46 109.68C26.46 112.78 28.18 114.78 30.86 114.78C32.84 114.78 34.36 113.74 34.84 112.12H37.5C36.94 115.2 34.26 117.24 30.8 117.24ZM41.7981 117H39.3781V102.12H41.7981V117ZM47.2977 117.26C45.1977 117.26 43.9177 116.04 43.9177 114.18C43.9177 112.36 45.2377 111.22 47.5777 111.04L50.5377 110.82V110.6C50.5377 109.26 49.7377 108.72 48.4977 108.72C47.0577 108.72 46.2577 109.32 46.2577 110.36H44.1777C44.1777 108.22 45.9377 106.82 48.6177 106.82C51.2777 106.82 52.9177 108.26 52.9177 111V117H50.7777L50.5977 115.54C50.1777 116.56 48.8377 117.26 47.2977 117.26ZM48.0977 115.42C49.5977 115.42 50.5577 114.52 50.5577 113V112.48L48.4977 112.64C46.9777 112.78 46.3977 113.28 46.3977 114.08C46.3977 114.98 46.9977 115.42 48.0977 115.42ZM54.5547 114H56.8747C56.8947 114.86 57.5347 115.4 58.6547 115.4C59.7947 115.4 60.4147 114.94 60.4147 114.22C60.4147 113.72 60.1547 113.36 59.2747 113.16L57.4947 112.74C55.7147 112.34 54.8547 111.5 54.8547 109.92C54.8547 107.98 56.4947 106.82 58.7747 106.82C60.9947 106.82 62.4947 108.1 62.5147 110.02H60.1947C60.1747 109.18 59.6147 108.64 58.6747 108.64C57.7147 108.64 57.1547 109.08 57.1547 109.82C57.1547 110.38 57.5947 110.74 58.4347 110.94L60.2147 111.36C61.8747 111.74 62.7147 112.5 62.7147 114.02C62.7147 116.02 61.0147 117.26 58.5747 117.26C56.1147 117.26 54.5547 115.94 54.5547 114ZM68.9925 117.26C66.0525 117.26 63.9925 115.12 63.9925 112.06C63.9925 108.96 66.0125 106.82 68.9125 106.82C71.8725 106.82 73.7525 108.8 73.7525 111.88V112.62L66.3125 112.64C66.4925 114.38 67.4125 115.26 69.0325 115.26C70.3725 115.26 71.2525 114.74 71.5325 113.8H73.7925C73.3725 115.96 71.5725 117.26 68.9925 117.26ZM68.9325 108.82C67.4925 108.82 66.6125 109.6 66.3725 111.08H71.3325C71.3325 109.72 70.3925 108.82 68.9325 108.82ZM85.1559 117.26C82.2959 117.26 80.5159 115.16 80.5159 112.1C80.5159 109.02 82.3159 106.82 85.2959 106.82C86.6759 106.82 87.8959 107.4 88.5159 108.38V102.12H90.9359V117H88.6959L88.5359 115.46C87.9359 116.6 86.6559 117.26 85.1559 117.26ZM85.6959 115.02C87.3959 115.02 88.4959 113.8 88.4959 112.02C88.4959 110.24 87.3959 109 85.6959 109C83.9959 109 82.9559 110.26 82.9559 112.02C82.9559 113.78 83.9959 115.02 85.6959 115.02ZM97.8988 117.26C94.9588 117.26 92.8988 115.12 92.8988 112.06C92.8988 108.96 94.9188 106.82 97.8188 106.82C100.779 106.82 102.659 108.8 102.659 111.88V112.62L95.2188 112.64C95.3988 114.38 96.3188 115.26 97.9388 115.26C99.2788 115.26 100.159 114.74 100.439 113.8H102.699C102.279 115.96 100.479 117.26 97.8988 117.26ZM97.8388 108.82C96.3988 108.82 95.5188 109.6 95.2788 111.08H100.239C100.239 109.72 99.2988 108.82 97.8388 108.82ZM112.802 117L108.882 107.12H111.482L113.202 111.66C113.622 112.84 113.962 113.86 114.082 114.4C114.222 113.78 114.582 112.74 115.002 111.66L116.802 107.12H119.322L115.202 117H112.802ZM121.945 105.14C121.105 105.14 120.445 104.48 120.445 103.66C120.445 102.84 121.105 102.2 121.945 102.2C122.745 102.2 123.405 102.84 123.405 103.66C123.405 104.48 122.745 105.14 121.945 105.14ZM120.725 117V107.12H123.165V117H120.725ZM125.106 112.04C125.106 108.96 127.326 106.84 130.386 106.84C133.446 106.84 135.666 108.96 135.666 112.04C135.666 115.12 133.446 117.24 130.386 117.24C127.326 117.24 125.106 115.12 125.106 112.04ZM127.546 112.04C127.546 113.84 128.706 115.06 130.386 115.06C132.066 115.06 133.226 113.84 133.226 112.04C133.226 110.24 132.066 109.02 130.386 109.02C128.706 109.02 127.546 110.24 127.546 112.04ZM140.06 117H137.64V102.12H140.06V117ZM146.719 102.98L144.779 105.94H142.959L144.459 102.98H146.719ZM142.619 117V107.12H145.059V117H142.619ZM150.02 117H147.58V107.12H149.84L150.04 108.4C150.66 107.4 151.86 106.82 153.2 106.82C155.68 106.82 156.96 108.36 156.96 110.92V117H154.52V111.5C154.52 109.84 153.7 109.04 152.44 109.04C150.94 109.04 150.02 110.08 150.02 111.68V117Z" fill="#11151A"/>
<path d="M29.3 89H24.008V80.324H29.3V81.404H25.184V84.116H28.892V85.16H25.184V87.908H29.3V89ZM30.3321 87.296H31.4121C31.4121 87.896 31.8681 88.256 32.6121 88.256C33.4041 88.256 33.8601 87.932 33.8601 87.392C33.8601 86.996 33.6681 86.756 33.0561 86.6L32.0241 86.36C30.9801 86.108 30.4881 85.592 30.4881 84.728C30.4881 83.648 31.4001 82.964 32.6961 82.964C33.9801 82.964 34.8201 83.684 34.8441 84.8H33.7641C33.7401 84.212 33.3441 83.84 32.6601 83.84C31.9521 83.84 31.5561 84.152 31.5561 84.692C31.5561 85.088 31.8441 85.352 32.4201 85.496L33.4521 85.748C34.4481 85.988 34.9401 86.444 34.9401 87.32C34.9401 88.436 33.9801 89.144 32.5881 89.144C31.2081 89.144 30.3321 88.412 30.3321 87.296ZM37.847 89H36.719V84.08H35.567V83.132H36.719V81.296H37.847V83.132H38.999V84.08H37.847V89ZM44.0673 83.132H45.1833V89H44.1753L44.0553 88.112C43.7193 88.724 42.9393 89.144 42.0753 89.144C40.7073 89.144 39.9393 88.22 39.9393 86.78V83.132H41.0673V86.408C41.0673 87.668 41.6073 88.148 42.4713 88.148C43.5033 88.148 44.0673 87.488 44.0673 86.228V83.132ZM49.0547 89.144C47.3507 89.144 46.3187 87.872 46.3187 86.084C46.3187 84.284 47.3627 82.964 49.1027 82.964C50.0027 82.964 50.7587 83.36 51.1547 84.08V80.168H52.2707V89H51.2627L51.1667 87.932C50.7827 88.736 49.9907 89.144 49.0547 89.144ZM49.2827 88.124C50.4347 88.124 51.1427 87.272 51.1427 86.048C51.1427 84.848 50.4347 83.984 49.2827 83.984C48.1307 83.984 47.4587 84.848 47.4587 86.048C47.4587 87.26 48.1307 88.124 49.2827 88.124ZM54.45 81.74C54.042 81.74 53.706 81.404 53.706 80.996C53.706 80.576 54.042 80.252 54.45 80.252C54.858 80.252 55.194 80.576 55.194 80.996C55.194 81.404 54.858 81.74 54.45 81.74ZM53.898 89V83.132H55.026V89H53.898ZM56.2797 86.06C56.2797 84.248 57.5757 82.976 59.3397 82.976C61.0917 82.976 62.3877 84.248 62.3877 86.06C62.3877 87.872 61.0917 89.144 59.3397 89.144C57.5757 89.144 56.2797 87.872 56.2797 86.06ZM57.4197 86.06C57.4197 87.284 58.1997 88.136 59.3397 88.136C60.4677 88.136 61.2597 87.284 61.2597 86.06C61.2597 84.836 60.4677 83.984 59.3397 83.984C58.1997 83.984 57.4197 84.836 57.4197 86.06ZM68.2616 89H67.1096V80.324H68.2616L71.2496 87.62L74.2376 80.324H75.4136V89H74.2616V85.568C74.2616 83.948 74.2736 83.36 74.3336 82.748L71.8016 89H70.6976L68.1776 82.772C68.2376 83.192 68.2616 84.08 68.2616 85.292V89ZM77.7938 81.74C77.3858 81.74 77.0498 81.404 77.0498 80.996C77.0498 80.576 77.3858 80.252 77.7938 80.252C78.2018 80.252 78.5378 80.576 78.5378 80.996C78.5378 81.404 78.2018 81.74 77.7938 81.74ZM77.2418 89V83.132H78.3698V89H77.2418ZM81.1594 89H80.0314V80.168H81.1594V89ZM86.7679 80.852L85.7359 82.448H84.8599L85.6759 80.852H86.7679ZM84.5359 89.144C83.2759 89.144 82.5319 88.436 82.5319 87.368C82.5319 86.288 83.3359 85.616 84.7159 85.508L86.5639 85.364V85.196C86.5639 84.212 85.9759 83.864 85.1839 83.864C84.2359 83.864 83.6959 84.284 83.6959 84.992H82.7119C82.7119 83.768 83.7199 82.964 85.2319 82.964C86.6839 82.964 87.6679 83.732 87.6679 85.316V89H86.7079L86.5879 88.052C86.2879 88.724 85.4839 89.144 84.5359 89.144ZM84.8599 88.268C85.9279 88.268 86.5759 87.572 86.5759 86.468V86.156L85.0759 86.276C84.0799 86.372 83.6719 86.756 83.6719 87.332C83.6719 87.956 84.1279 88.268 84.8599 88.268ZM90.3581 89H89.2301V83.132H90.2501L90.3701 84.032C90.7421 83.36 91.4861 82.964 92.3141 82.964C93.8621 82.964 94.5701 83.912 94.5701 85.412V89H93.4421V85.664C93.4421 84.476 92.8901 83.996 92.0261 83.996C90.9701 83.996 90.3581 84.752 90.3581 85.892V89Z" fill="#8391A1"/>
<path d="M51.588 147.608C51.588 145.872 52.988 144.696 55.074 144.696C57.006 144.696 58.252 145.774 58.364 147.524H56.978C56.908 146.516 56.194 145.928 55.06 145.928C53.786 145.928 52.96 146.572 52.96 147.566C52.96 148.378 53.422 148.868 54.374 149.092L56.04 149.484C57.692 149.862 58.532 150.758 58.532 152.186C58.532 154.006 57.118 155.168 54.962 155.168C52.904 155.168 51.532 154.09 51.448 152.354H52.848C52.876 153.32 53.688 153.936 54.962 153.936C56.306 153.936 57.16 153.306 57.16 152.298C57.16 151.5 56.726 150.996 55.76 150.772L54.094 150.394C52.442 150.016 51.588 149.064 51.588 147.608ZM62.9861 155.168C60.9701 155.168 59.5841 153.712 59.5841 151.584C59.5841 149.442 60.9421 147.958 62.9301 147.958C64.8761 147.958 66.1501 149.302 66.1501 151.332V151.822L60.8581 151.836C60.9561 153.278 61.7121 154.076 63.0141 154.076C64.0361 154.076 64.7081 153.656 64.9321 152.872H66.1641C65.8281 154.342 64.6801 155.168 62.9861 155.168ZM62.9301 149.064C61.7821 149.064 61.0541 149.75 60.8861 150.954H64.8341C64.8341 149.82 64.0921 149.064 62.9301 149.064ZM67.06 153.012H68.32C68.32 153.712 68.852 154.132 69.72 154.132C70.644 154.132 71.176 153.754 71.176 153.124C71.176 152.662 70.952 152.382 70.238 152.2L69.034 151.92C67.816 151.626 67.242 151.024 67.242 150.016C67.242 148.756 68.306 147.958 69.818 147.958C71.316 147.958 72.296 148.798 72.324 150.1H71.064C71.036 149.414 70.574 148.98 69.776 148.98C68.95 148.98 68.488 149.344 68.488 149.974C68.488 150.436 68.824 150.744 69.496 150.912L70.7 151.206C71.862 151.486 72.436 152.018 72.436 153.04C72.436 154.342 71.316 155.168 69.692 155.168C68.082 155.168 67.06 154.314 67.06 153.012ZM74.5394 146.53C74.0634 146.53 73.6714 146.138 73.6714 145.662C73.6714 145.172 74.0634 144.794 74.5394 144.794C75.0154 144.794 75.4074 145.172 75.4074 145.662C75.4074 146.138 75.0154 146.53 74.5394 146.53ZM73.8954 155V148.154H75.2114V155H73.8954ZM81.9799 145.494L80.7619 147.356H79.7539L80.6919 145.494H81.9799ZM76.6739 151.57C76.6739 149.456 78.1859 147.972 80.2439 147.972C82.2879 147.972 83.7999 149.456 83.7999 151.57C83.7999 153.684 82.2879 155.168 80.2439 155.168C78.1859 155.168 76.6739 153.684 76.6739 151.57ZM78.0039 151.57C78.0039 152.998 78.9139 153.992 80.2439 153.992C81.5599 153.992 82.4839 152.998 82.4839 151.57C82.4839 150.142 81.5599 149.148 80.2439 149.148C78.9139 149.148 78.0039 150.142 78.0039 151.57ZM86.5727 155H85.2567V148.154H86.4467L86.5867 149.204C87.0207 148.42 87.8887 147.958 88.8547 147.958C90.6607 147.958 91.4867 149.064 91.4867 150.814V155H90.1707V151.108C90.1707 149.722 89.5267 149.162 88.5187 149.162C87.2867 149.162 86.5727 150.044 86.5727 151.374V155ZM99.8815 155.168C97.8935 155.168 96.6895 153.684 96.6895 151.598C96.6895 149.498 97.9075 147.958 99.9375 147.958C100.988 147.958 101.87 148.42 102.332 149.26V144.696H103.634V155H102.458L102.346 153.754C101.898 154.692 100.974 155.168 99.8815 155.168ZM100.148 153.978C101.492 153.978 102.318 152.984 102.318 151.556C102.318 150.156 101.492 149.148 100.148 149.148C98.8035 149.148 98.0195 150.156 98.0195 151.556C98.0195 152.97 98.8035 153.978 100.148 153.978ZM108.486 155.168C106.47 155.168 105.084 153.712 105.084 151.584C105.084 149.442 106.442 147.958 108.43 147.958C110.376 147.958 111.65 149.302 111.65 151.332V151.822L106.358 151.836C106.456 153.278 107.212 154.076 108.514 154.076C109.536 154.076 110.208 153.656 110.432 152.872H111.664C111.328 154.342 110.18 155.168 108.486 155.168ZM108.43 149.064C107.282 149.064 106.554 149.75 106.386 150.954H110.334C110.334 149.82 109.592 149.064 108.43 149.064ZM124.228 152.956H123.024V155H121.708V152.956H116.472V151.738L121.246 144.878H123.024V151.738H124.228V152.956ZM117.956 151.738H121.708V146.334L117.956 151.738ZM128.834 155.168C126.762 155.168 125.418 153.852 125.418 151.836H126.776C126.776 153.138 127.574 153.936 128.862 153.936C130.234 153.936 131.116 153.026 131.116 151.654C131.116 150.352 130.29 149.386 128.876 149.386C128.022 149.386 127.238 149.792 126.776 150.366L125.614 150.072L126.846 144.878H131.914V146.138H127.84L127.168 148.826C127.7 148.42 128.372 148.21 129.128 148.21C131.186 148.21 132.516 149.652 132.516 151.598C132.516 153.698 131.018 155.168 128.834 155.168ZM139.114 155H137.798V148.154H138.974L139.1 149.05C139.45 148.406 140.178 147.958 141.144 147.958C142.208 147.958 142.964 148.49 143.314 149.344C143.636 148.49 144.462 147.958 145.526 147.958C147.094 147.958 148.046 148.938 148.046 150.52V155H146.758V150.842C146.758 149.764 146.156 149.148 145.232 149.148C144.238 149.148 143.58 149.848 143.58 150.94V155H142.278V150.828C142.278 149.75 141.69 149.162 140.766 149.162C139.772 149.162 139.114 149.848 139.114 150.94V155ZM150.514 146.53C150.038 146.53 149.646 146.138 149.646 145.662C149.646 145.172 150.038 144.794 150.514 144.794C150.99 144.794 151.382 145.172 151.382 145.662C151.382 146.138 150.99 146.53 150.514 146.53ZM149.87 155V148.154H151.186V155H149.87ZM154.413 155H153.097V148.154H154.287L154.427 149.204C154.861 148.42 155.729 147.958 156.695 147.958C158.501 147.958 159.327 149.064 159.327 150.814V155H158.011V151.108C158.011 149.722 157.367 149.162 156.359 149.162C155.127 149.162 154.413 150.044 154.413 151.374V155ZM165.881 148.154H167.183V155H166.007L165.867 153.964C165.475 154.678 164.565 155.168 163.557 155.168C161.961 155.168 161.065 154.09 161.065 152.41V148.154H162.381V151.976C162.381 153.446 163.011 154.006 164.019 154.006C165.223 154.006 165.881 153.236 165.881 151.766V148.154ZM171.025 155H169.709V149.26H168.365V148.154H169.709V146.012H171.025V148.154H172.369V149.26H171.025V155ZM173.033 151.57C173.033 149.456 174.545 147.972 176.603 147.972C178.647 147.972 180.159 149.456 180.159 151.57C180.159 153.684 178.647 155.168 176.603 155.168C174.545 155.168 173.033 153.684 173.033 151.57ZM174.363 151.57C174.363 152.998 175.273 153.992 176.603 153.992C177.919 153.992 178.843 152.998 178.843 151.57C178.843 150.142 177.919 149.148 176.603 149.148C175.273 149.148 174.363 150.142 174.363 151.57ZM181.056 153.012H182.316C182.316 153.712 182.848 154.132 183.716 154.132C184.64 154.132 185.172 153.754 185.172 153.124C185.172 152.662 184.948 152.382 184.234 152.2L183.03 151.92C181.812 151.626 181.238 151.024 181.238 150.016C181.238 148.756 182.302 147.958 183.814 147.958C185.312 147.958 186.292 148.798 186.32 150.1H185.06C185.032 149.414 184.57 148.98 183.772 148.98C182.946 148.98 182.484 149.344 182.484 149.974C182.484 150.436 182.82 150.744 183.492 150.912L184.696 151.206C185.858 151.486 186.432 152.018 186.432 153.04C186.432 154.342 185.312 155.168 183.688 155.168C182.078 155.168 181.056 154.314 181.056 153.012Z" fill="#4B5563"/>
<path d="M56.598 188.358V187.154C54.75 187.042 53.532 185.992 53.448 184.354H54.848C54.876 185.25 55.534 185.838 56.598 185.95V182.464L56.094 182.352C54.442 181.974 53.588 181.05 53.588 179.608C53.588 178.012 54.778 176.878 56.598 176.724V175.506H57.494V176.71C59.188 176.864 60.266 177.9 60.364 179.524H59.006C58.95 178.628 58.404 178.054 57.494 177.928V181.4L58.04 181.526C59.72 181.904 60.532 182.786 60.532 184.186C60.532 185.852 59.342 186.972 57.494 187.14V188.358H56.598ZM56.374 181.134L56.598 181.19V177.928C55.562 178.068 54.932 178.67 54.932 179.566C54.932 180.378 55.394 180.896 56.374 181.134ZM57.76 182.744L57.494 182.688V185.922C58.544 185.782 59.188 185.18 59.188 184.298C59.188 183.486 58.726 182.968 57.76 182.744ZM69.3121 184.956H68.1081V187H66.7921V184.956H61.5561V183.738L66.3301 176.878H68.1081V183.738H69.3121V184.956ZM63.0401 183.738H66.7921V178.334L63.0401 183.738ZM76.2187 183.794L73.8527 187H72.2567L74.7907 183.64C74.4407 183.78 74.0767 183.85 73.7267 183.85C71.6267 183.85 70.2127 182.338 70.2127 180.322C70.2127 178.222 71.8087 176.696 73.8947 176.696C75.9947 176.696 77.6187 178.278 77.6187 180.336C77.6187 181.526 77.2547 182.38 76.2187 183.794ZM76.2187 180.322C76.2187 178.936 75.2667 177.928 73.8947 177.928C72.5507 177.928 71.5987 178.936 71.5987 180.322C71.5987 181.708 72.5507 182.688 73.8947 182.688C75.2667 182.688 76.2187 181.708 76.2187 180.322ZM84.7773 183.794L82.4113 187H80.8153L83.3493 183.64C82.9993 183.78 82.6353 183.85 82.2853 183.85C80.1853 183.85 78.7713 182.338 78.7713 180.322C78.7713 178.222 80.3673 176.696 82.4533 176.696C84.5533 176.696 86.1773 178.278 86.1773 180.336C86.1773 181.526 85.8133 182.38 84.7773 183.794ZM84.7773 180.322C84.7773 178.936 83.8253 177.928 82.4533 177.928C81.1093 177.928 80.1573 178.936 80.1573 180.322C80.1573 181.708 81.1093 182.688 82.4533 182.688C83.8253 182.688 84.7773 181.708 84.7773 180.322ZM92.852 187H91.536V180.154H92.712L92.838 181.05C93.188 180.406 93.916 179.958 94.882 179.958C95.946 179.958 96.702 180.49 97.052 181.344C97.374 180.49 98.2 179.958 99.264 179.958C100.832 179.958 101.784 180.938 101.784 182.52V187H100.496V182.842C100.496 181.764 99.894 181.148 98.97 181.148C97.976 181.148 97.318 181.848 97.318 182.94V187H96.016V182.828C96.016 181.75 95.428 181.162 94.504 181.162C93.51 181.162 92.852 181.848 92.852 182.94V187ZM104.308 187H102.796L105.19 183.612L102.81 180.154H104.336L106.072 182.702L107.766 180.154H109.264L106.884 183.612L109.222 187H107.696L105.988 184.494L104.308 187ZM111.678 187H110.362V180.154H111.552L111.692 181.204C112.126 180.42 112.994 179.958 113.96 179.958C115.766 179.958 116.592 181.064 116.592 182.814V187H115.276V183.108C115.276 181.722 114.632 181.162 113.624 181.162C112.392 181.162 111.678 182.044 111.678 183.374V187Z" fill="#4B5563"/>
<g clip-path="url(#clip1_1426_4975)">
<path d="M31.0094 183.466C31.3367 183.72 31.7777 183.913 32.3203 184.039L32.3383 184.044C33.5883 184.33 33.5883 184.878 33.5883 185.06C33.5883 185.748 32.9981 186.061 32.4496 186.061C32.2251 186.061 32.0056 185.995 31.8187 185.871C31.6317 185.746 31.4858 185.57 31.3992 185.363C31.3471 185.238 31.2478 185.14 31.123 185.089C30.9982 185.038 30.8583 185.038 30.734 185.09C30.6097 185.142 30.5111 185.242 30.4601 185.366C30.409 185.491 30.4096 185.631 30.4617 185.755C30.5922 186.068 30.7946 186.344 31.0523 186.564C31.3101 186.783 31.6159 186.938 31.9449 187.016V187.502C31.9449 187.637 31.9984 187.766 32.0937 187.861C32.1889 187.956 32.3181 188.01 32.4527 188.01C32.5874 188.01 32.7166 187.956 32.8118 187.861C32.9071 187.766 32.9606 187.637 32.9606 187.502V187.022C33.9266 186.819 34.6055 186.043 34.6055 185.058C34.6055 184.487 34.3598 183.994 33.8949 183.632C33.5676 183.378 33.1266 183.185 32.584 183.059L32.5656 183.054C31.3156 182.768 31.3156 182.22 31.3156 182.038C31.3156 181.35 31.9059 181.037 32.4543 181.037C32.6788 181.037 32.8983 181.103 33.0853 181.227C33.2722 181.352 33.4181 181.528 33.5047 181.736C33.5568 181.86 33.6562 181.958 33.7809 182.009C33.9057 182.061 34.0456 182.06 34.1699 182.008C34.2943 181.956 34.3928 181.856 34.4438 181.732C34.4949 181.607 34.4943 181.467 34.4422 181.343C34.3121 181.031 34.1103 180.754 33.8533 180.535C33.5963 180.316 33.2912 180.161 32.9629 180.082V179.598C32.9629 179.463 32.9094 179.334 32.8142 179.239C32.7189 179.143 32.5898 179.09 32.4551 179.09C32.3204 179.09 32.1912 179.143 32.096 179.239C32.0008 179.334 31.9473 179.463 31.9473 179.598V180.075C30.9805 180.278 30.3008 181.055 30.3008 182.04C30.2988 182.611 30.5445 183.104 31.0094 183.466Z" fill="#4B5563"/>
<path d="M32.452 191.001C36.5625 191.001 39.9035 187.658 39.9035 183.549C39.9035 179.44 36.5625 176.098 32.452 176.098C28.3414 176.098 25 179.439 25 183.549C25 187.66 28.343 191.001 32.452 191.001ZM32.452 177.113C36.0008 177.113 38.8883 180 38.8883 183.55C38.8883 187.099 36.0008 189.986 32.452 189.986C28.9031 189.986 26.0156 187.098 26.0156 183.549C26.0156 180 28.9027 177.113 32.452 177.113Z" fill="#4B5563"/>
<path d="M39.8664 171C38.7606 170.996 37.6836 171.353 36.7984 172.016C35.9334 172.664 35.293 173.566 34.9668 174.597C34.9263 174.725 34.9386 174.865 35.001 174.984C35.0634 175.104 35.1707 175.194 35.2994 175.234C35.4281 175.275 35.5675 175.262 35.6871 175.2C35.8067 175.138 35.8966 175.03 35.9371 174.902C36.1989 174.075 36.7129 173.351 37.407 172.831C38.2001 172.241 39.1791 171.956 40.1652 172.027C41.1513 172.099 42.0786 172.524 42.7777 173.223C43.4767 173.922 43.9009 174.849 43.9726 175.835C44.0444 176.821 43.7589 177.8 43.1683 178.593C42.6486 179.287 41.9246 179.801 41.098 180.063C41.0337 180.083 40.9738 180.115 40.9219 180.157C40.87 180.2 40.827 180.252 40.7956 180.312C40.7641 180.371 40.7447 180.436 40.7385 180.503C40.7323 180.57 40.7395 180.637 40.7596 180.701C40.7796 180.766 40.8122 180.825 40.8555 180.876C40.8987 180.928 40.9517 180.97 41.0114 181.001C41.0711 181.032 41.1364 181.05 41.2033 181.056C41.2703 181.061 41.3377 181.053 41.4015 181.032C42.4325 180.707 43.3356 180.066 43.984 179.201C44.6467 178.316 45.0033 177.239 44.9996 176.133C44.9996 173.303 42.6969 171 39.8664 171Z" fill="#4B5563"/>
</g>
<path d="M251.74 213.08L247.761 213.043L244.203 212.988L240.845 212.952C238.892 212.952 239.531 213.207 241.447 213.426C244.197 213.734 246.968 213.819 249.732 213.682L255.226 213.39C255.961 213.366 256.694 213.28 257.416 213.134C258.365 212.934 256.941 212.97 255.28 213.007L251.74 213.08ZM268.347 212.97L265.811 212.861C264.369 212.806 262.635 212.769 261.376 212.824C258.876 212.915 263.018 213.737 267.052 213.518C271.085 213.299 270.775 213.518 271.979 213.262C272.581 213.116 271.669 213.061 270.61 213.025L268.347 212.97Z" fill="#1E1D1C"/>
<path d="M241.921 196.984C242.194 196.984 242.414 196.763 242.414 196.491C242.414 196.219 242.194 195.998 241.921 195.998C241.649 195.998 241.429 196.219 241.429 196.491C241.429 196.763 241.649 196.984 241.921 196.984ZM271.925 189.611C272.701 189.611 273.33 188.982 273.33 188.205C273.33 187.429 272.701 186.8 271.925 186.8C271.148 186.8 270.519 187.429 270.519 188.205C270.519 188.982 271.148 189.611 271.925 189.611ZM269.205 197.841L269.789 198.206C269.918 198.327 270.088 198.392 270.264 198.389C270.435 198.375 270.598 198.307 270.729 198.196C270.86 198.085 270.952 197.935 270.994 197.768C271.007 197.686 271.032 197.607 271.067 197.531L271.122 197.44H271.14C271.122 197.476 271.122 197.476 271.158 197.495C271.256 197.554 271.36 197.603 271.468 197.641L271.815 197.841L273.111 198.535C273.275 198.608 273.75 198.389 273.531 198.279L272.235 197.549C271.87 197.367 271.45 197.02 271.012 197.148C270.574 197.276 270.556 197.568 270.446 197.878C270.337 198.188 270.319 198.042 270.319 198.115C270.319 198.188 270.3 198.133 270.337 198.097C270.373 198.06 270.41 198.06 270.337 198.042L270.227 197.969L269.625 197.586C269.479 197.495 268.986 197.714 269.205 197.841ZM267.891 193.297L269.114 193.096C269.278 193.06 269.479 192.969 269.607 193.133C269.65 193.246 269.711 193.351 269.789 193.443C270.172 193.863 271.14 193.753 271.45 193.279L270.957 193.37C271.092 193.517 271.255 193.636 271.437 193.717C271.619 193.799 271.816 193.842 272.016 193.845C272.289 193.845 272.837 193.753 272.873 193.407C272.91 193.06 272.381 193.279 272.344 193.461C272.308 193.644 272.034 193.516 271.961 193.498C271.764 193.428 271.588 193.309 271.45 193.151C271.371 193.105 271.277 193.088 271.187 193.105C271.096 193.122 271.015 193.171 270.957 193.242C270.811 193.48 270.355 193.37 270.227 193.169C270.099 192.969 270.081 192.841 269.88 192.768C269.68 192.695 269.278 192.75 269.004 192.804L267.964 192.969C267.855 192.987 267.672 193.042 267.654 193.169C267.636 193.297 267.8 193.315 267.891 193.297ZM251.667 186.18C249.167 191.91 249.039 200.834 249.988 207.076C249.988 207.076 253.328 203.627 255.116 199.904L256.887 196.181C256.887 196.181 258.931 200.524 261.121 202.696C262.463 204.011 264.018 205.091 265.72 205.89C264.752 200.433 264.15 191.655 266.523 186.745L251.667 186.18Z" fill="#5158F6"/>
<path d="M251.155 211.128C251.153 211.156 251.14 211.183 251.119 211.201L250.973 211.42C250.736 211.641 250.447 211.798 250.133 211.876L249.349 212.022L248.381 212.132C247.642 212.215 246.899 212.257 246.155 212.26H244.932L244.385 212.223C244.261 212.203 244.147 212.146 244.056 212.059C243.874 211.895 243.746 211.548 243.636 211.146L243.563 210.854C243.538 210.771 243.52 210.686 243.509 210.599C243.506 210.544 243.512 210.488 243.527 210.435C243.537 210.378 243.555 210.322 243.582 210.27C243.668 210.124 243.772 209.989 243.892 209.869C244.024 209.744 244.164 209.628 244.312 209.522C244.615 209.325 244.947 209.177 245.297 209.084C245.948 208.915 246.637 208.973 247.25 209.248C247.649 209.428 248.019 209.668 248.345 209.96C248.546 210.124 248.619 210.143 248.619 210.015C248.538 209.733 248.387 209.476 248.181 209.267C247.763 208.82 247.234 208.493 246.648 208.318C245.773 208.089 244.846 208.187 244.038 208.591C243.811 208.718 243.591 208.858 243.381 209.011C243.164 209.196 242.968 209.404 242.797 209.632C242.703 209.769 242.624 209.916 242.56 210.07C242.507 210.247 242.483 210.432 242.487 210.617C242.486 210.777 242.504 210.936 242.541 211.092C242.578 211.219 242.596 211.347 242.633 211.475C242.705 211.774 242.815 212.062 242.961 212.333C243.126 212.682 243.411 212.961 243.764 213.117C244.081 213.254 244.423 213.323 244.768 213.318H245.626C246.789 213.293 247.948 213.177 249.093 212.971C249.57 212.886 250.04 212.764 250.498 212.606C250.954 212.452 251.35 212.158 251.63 211.767C251.846 211.424 251.983 211.038 252.031 210.635C252.09 210.31 252.115 209.98 252.104 209.65C252.096 209.117 252.041 208.586 251.94 208.062C251.885 207.843 251.849 207.642 251.794 207.46C251.739 207.277 251.666 206.967 251.612 206.748L250.918 206.876L250.48 206.949L249.75 207.058L249.111 207.15L248.71 207.223L248.308 207.296C248.4 207.588 248.527 207.916 248.637 208.208C248.746 208.5 248.874 208.701 248.892 208.518C248.886 208.365 248.868 208.213 248.838 208.062C248.84 208.013 248.833 207.964 248.819 207.916V207.825C248.804 207.765 248.798 207.704 248.801 207.642H249.148L249.896 207.569L250.699 207.478L251.064 207.442H251.174C251.213 207.586 251.243 207.732 251.265 207.88C251.32 208.135 251.356 208.391 251.393 208.646C251.449 209.082 251.462 209.522 251.429 209.96C251.414 210.263 251.365 210.563 251.283 210.854C251.248 210.949 251.205 211.041 251.155 211.128ZM267.964 209.449C267.964 209.449 268 209.595 268.091 209.851L268.237 210.307C268.268 210.363 268.286 210.426 268.292 210.489C268.276 210.512 268.264 210.536 268.256 210.562L268.183 210.635L268.073 210.763L267.818 211C267.605 211.163 267.372 211.298 267.124 211.402C266.527 211.652 265.891 211.794 265.244 211.822C264.533 211.895 263.784 211.913 263.255 211.621C262.726 211.329 262.397 210.654 262.489 210.106C262.525 209.821 262.668 209.56 262.89 209.376C263.134 209.147 263.411 208.956 263.711 208.81C264.314 208.518 264.934 208.427 265.409 208.628C265.619 208.706 265.817 208.817 265.993 208.956C266.111 209.057 266.221 209.166 266.321 209.285C266.467 209.449 266.54 209.486 266.558 209.358C266.55 209.083 266.447 208.818 266.266 208.61C266.108 208.409 265.917 208.236 265.701 208.099C265.419 207.926 265.1 207.826 264.77 207.807C264.382 207.779 263.992 207.822 263.62 207.934C263.206 208.066 262.813 208.257 262.452 208.5C262.244 208.648 262.059 208.826 261.905 209.029C261.731 209.253 261.601 209.507 261.521 209.778C261.381 210.357 261.459 210.968 261.74 211.493C261.886 211.763 262.07 212.009 262.288 212.223L262.671 212.497C262.804 212.579 262.944 212.646 263.091 212.698C263.646 212.897 264.239 212.966 264.825 212.898C265.379 212.873 265.929 212.794 266.467 212.661C267.035 212.513 267.573 212.266 268.055 211.931C268.283 211.767 268.491 211.577 268.675 211.365C268.78 211.254 268.871 211.132 268.949 211C269.048 210.836 269.093 210.644 269.077 210.453C269.073 210.307 269.036 210.163 268.967 210.033C268.933 209.927 268.89 209.823 268.84 209.723C268.767 209.522 268.675 209.34 268.602 209.157C268.292 208.409 268.018 207.788 267.781 207.259C267.544 206.73 267.325 206.274 267.161 205.89L266.869 205.288L266.723 204.978L266.65 204.832V204.795H266.631L266.558 204.832L265.719 205.379C265.526 205.498 265.343 205.633 265.171 205.781L264.66 206.237L264.514 206.383L264.441 206.474L264.405 206.511H264.387V206.547L264.496 207.004C264.642 207.642 264.715 207.478 264.715 206.876C264.715 206.785 264.733 206.766 264.733 206.712V206.675H264.752L264.806 206.62L264.898 206.584C264.932 206.544 264.976 206.512 265.025 206.493L265.299 206.292L265.92 205.89L266.084 205.781L266.157 205.726H266.23L266.358 205.671H266.394L266.431 205.744L266.504 205.909L266.832 206.675C267.051 207.186 267.252 207.661 267.416 208.099C267.745 208.865 267.964 209.449 267.964 209.449ZM254.477 189.21C254.558 189.314 254.631 189.424 254.696 189.539L254.751 189.612C254.751 189.63 254.751 189.648 254.733 189.63H254.696L254.605 189.593H254.514L254.295 189.557L253.875 189.484C253.353 189.416 252.825 189.422 252.305 189.502C251.922 189.575 251.794 189.666 251.831 189.739C251.867 189.812 252.086 189.867 252.415 189.922L253.656 190.123L254.422 190.305H254.514L254.714 190.36L255.152 190.506L256.028 190.78L255.974 190.67L255.901 190.524L255.773 190.269L255.645 190.031L255.59 189.904L255.517 189.776L255.298 189.429L255.244 189.338L255.207 189.301H255.189L255.116 189.21L254.824 188.9C254.67 188.743 254.505 188.596 254.331 188.462C254.111 188.288 253.879 188.129 253.638 187.987C253.368 187.808 253.049 187.718 252.725 187.732C252.524 187.732 252.561 187.805 252.725 187.896C252.889 187.987 253.145 188.115 253.419 188.298C253.685 188.47 253.935 188.665 254.167 188.882L254.386 189.119L254.477 189.21ZM260.28 190.634L259.97 190.707L259.605 190.816L259.368 190.944C259.253 190.998 259.153 191.079 259.076 191.181L259.642 191.418C259.686 191.31 259.741 191.206 259.806 191.108C259.905 190.977 260.015 190.855 260.134 190.743C260.437 190.488 260.754 190.251 261.083 190.031L261.613 189.666C261.768 189.544 261.933 189.434 262.105 189.338C262.452 189.119 262.781 188.955 263.091 188.79C263.401 188.626 263.693 188.407 263.584 188.371C263.474 188.334 263.127 188.352 262.616 188.498C262.322 188.578 262.036 188.682 261.759 188.809L261.284 189.082L260.828 189.374C260.473 189.581 260.137 189.819 259.824 190.086C259.653 190.239 259.5 190.41 259.368 190.597C259.207 190.798 259.1 191.037 259.058 191.291L258.893 192.367L259.569 191.528C259.574 191.528 259.578 191.526 259.582 191.522C259.585 191.519 259.587 191.514 259.587 191.51C259.622 191.454 259.673 191.41 259.733 191.382L259.952 191.254L260.408 191.09L261.193 190.889C261.515 190.807 261.848 190.783 262.178 190.816L262.726 190.871L263.328 190.926C263.602 190.962 263.565 190.889 263.346 190.761C262.786 190.487 262.162 190.367 261.54 190.415L260.901 190.506C260.692 190.536 260.485 190.579 260.28 190.634Z" fill="#1E1D1C"/>
<path d="M258.656 194.083L258.51 194.156L258.127 194.338C257.685 194.509 257.211 194.577 256.74 194.539C256.159 194.471 255.612 194.229 255.17 193.845C254.726 193.477 254.344 193.04 254.039 192.55C253.747 192.13 253.619 191.984 253.583 192.093C253.546 192.203 253.601 192.568 253.82 193.079C253.94 193.377 254.106 193.654 254.313 193.9C254.554 194.223 254.851 194.501 255.189 194.721C255.574 194.977 256.01 195.145 256.466 195.214C256.941 195.27 257.422 195.214 257.871 195.05C258.245 194.904 258.601 194.714 258.93 194.484C259.165 194.308 259.39 194.119 259.605 193.918C259.952 193.572 260.171 193.316 260.335 193.134C260.611 192.823 260.827 192.464 260.974 192.075C261.083 191.838 260.992 191.856 260.81 192.02L260.061 192.86C259.781 193.175 259.476 193.468 259.149 193.736C258.992 193.862 258.828 193.978 258.656 194.083ZM256.046 182.822C256.032 182.844 256.025 182.87 256.028 182.895C256.028 182.932 256.01 182.987 256.01 183.078C256.023 183.266 256.066 183.451 256.138 183.625C256.179 183.711 256.203 183.804 256.211 183.899C256.23 183.965 256.23 184.034 256.211 184.1H256.156C256.119 184.118 256.028 184.082 255.919 184.027L255.736 183.899L255.481 183.771C255.372 183.716 255.255 183.679 255.134 183.662C254.986 183.636 254.833 183.655 254.696 183.717L254.495 183.863L254.404 183.954L254.349 184.063C254.308 184.13 254.283 184.205 254.276 184.282C254.276 184.355 254.258 184.428 254.258 184.483C254.277 184.675 254.313 184.864 254.367 185.049C254.403 185.155 254.422 185.266 254.422 185.377C254.422 185.414 254.422 185.396 254.404 185.414L254.349 185.45C254.215 185.461 254.08 185.455 253.948 185.432C253.774 185.427 253.601 185.451 253.437 185.505C253.22 185.558 253.024 185.672 252.871 185.834C252.798 185.925 252.798 185.961 252.853 185.98C252.907 185.998 253.345 185.834 253.838 185.925L254.276 186.016C254.393 186.02 254.509 186.008 254.623 185.98C254.758 185.925 254.873 185.829 254.951 185.706C255.029 185.587 255.067 185.446 255.061 185.304C255.064 185.189 255.058 185.073 255.043 184.958C254.996 184.791 254.972 184.619 254.97 184.447C254.967 184.421 254.973 184.395 254.988 184.374H255.006C255.143 184.402 255.274 184.458 255.389 184.538C255.495 184.611 255.612 184.666 255.736 184.702C255.883 184.775 256.047 184.806 256.211 184.793C256.312 184.78 256.411 184.749 256.503 184.702C256.588 184.643 256.663 184.569 256.722 184.483C256.777 184.401 256.814 184.307 256.831 184.209V183.972C256.816 183.839 256.779 183.71 256.722 183.589C256.705 183.531 256.68 183.476 256.649 183.425L256.594 183.315C256.527 183.192 256.496 183.053 256.503 182.914C256.521 182.822 256.576 182.786 256.685 182.749C256.79 182.734 256.897 182.747 256.995 182.786C257.204 182.856 257.417 182.91 257.634 182.95C257.812 182.987 257.997 182.968 258.163 182.895C258.286 182.827 258.387 182.726 258.455 182.603C258.497 182.514 258.533 182.423 258.565 182.33C258.578 182.248 258.603 182.168 258.638 182.092C258.66 182.041 258.693 181.996 258.733 181.958C258.774 181.92 258.822 181.892 258.875 181.873C259.021 181.819 259.094 181.873 259.094 181.837C259.094 181.8 259.076 181.8 259.021 181.764C258.989 181.743 258.953 181.729 258.915 181.722C258.878 181.716 258.839 181.718 258.802 181.727C258.7 181.728 258.602 181.767 258.528 181.837L258.401 181.965L258.346 182.038L258.291 182.111C258.25 182.206 258.201 182.297 258.145 182.384C258.123 182.452 258.078 182.51 258.017 182.549C257.854 182.599 257.678 182.586 257.525 182.512C257.309 182.415 257.082 182.348 256.849 182.311C256.72 182.296 256.59 182.309 256.466 182.348C256.353 182.388 256.252 182.458 256.174 182.549C256.105 182.625 256.06 182.72 256.046 182.822ZM264.131 182.841L264.022 182.877C263.911 182.923 263.811 182.991 263.73 183.078C263.625 183.208 263.561 183.367 263.547 183.534C263.516 183.69 263.504 183.85 263.511 184.009C263.509 184.156 263.491 184.303 263.456 184.447C263.456 184.465 263.456 184.465 263.438 184.465H263.401L263.346 184.428L263.2 184.355L262.927 184.191L262.89 184.155L262.817 184.118L262.671 184.063C262.577 184.031 262.476 184.025 262.379 184.045C262.289 184.059 262.204 184.095 262.131 184.149C262.058 184.203 261.999 184.274 261.959 184.355C261.903 184.429 261.871 184.518 261.868 184.611C261.854 184.658 261.848 184.708 261.85 184.757V184.885C261.861 184.977 261.879 185.069 261.905 185.158C261.908 185.208 261.901 185.257 261.886 185.304C261.847 185.425 261.785 185.536 261.704 185.633C261.599 185.726 261.482 185.806 261.357 185.87C261.065 186.016 260.883 186.107 260.864 186.18C260.846 186.253 260.974 186.272 261.211 186.272C261.366 186.27 261.52 186.246 261.667 186.199C261.881 186.131 262.076 186.012 262.233 185.852C262.33 185.743 262.411 185.62 262.47 185.487L262.525 185.268C262.543 185.184 262.543 185.097 262.525 185.012V184.775H262.562L262.799 184.903L263.036 185.049L263.273 185.177L263.529 185.323L263.766 185.432H263.821V185.377L263.876 185.231C263.947 185.059 264.008 184.882 264.058 184.702V184.319C264.067 184.204 264.067 184.088 264.058 183.972C264.035 183.821 264.029 183.668 264.04 183.516C264.046 183.468 264.067 183.423 264.1 183.387C264.132 183.351 264.175 183.326 264.222 183.315C264.307 183.294 264.397 183.301 264.478 183.333L264.551 183.37L264.679 183.443L264.879 183.589H264.934L265.007 183.552L265.135 183.443C265.195 183.368 265.239 183.281 265.263 183.187C265.281 183.133 265.281 183.096 265.299 183.041C265.317 182.987 265.317 182.968 265.317 182.932C265.314 182.877 265.321 182.821 265.336 182.768C265.323 182.616 265.354 182.464 265.427 182.33C265.45 182.292 265.482 182.261 265.521 182.239C265.559 182.217 265.602 182.204 265.646 182.202C265.792 182.201 265.938 182.207 266.084 182.22C266.175 182.202 266.23 182.165 266.23 182.147C266.23 182.129 266.23 182.111 266.193 182.092L266.029 182.019L265.701 181.91C265.592 181.89 265.481 181.899 265.378 181.938C265.275 181.976 265.185 182.043 265.117 182.129C265.017 182.288 264.961 182.471 264.952 182.658L264.916 182.895C264.903 182.924 264.896 182.955 264.898 182.987C264.879 183.005 264.879 183.023 264.861 183.023C264.843 183.023 264.825 183.06 264.825 183.023H264.733L264.46 182.932C264.383 182.909 264.302 182.903 264.222 182.914L264.131 182.841ZM259.623 182.841L259.496 182.877C259.387 182.927 259.289 182.995 259.204 183.078C259.106 183.213 259.043 183.369 259.021 183.534C258.99 183.69 258.978 183.85 258.985 184.009C258.983 184.156 258.965 184.303 258.93 184.447H258.875L258.82 184.41L258.674 184.337L258.401 184.173L258.364 184.136L258.291 184.1L258.145 184.045C258.051 184.013 257.95 184.006 257.853 184.027C257.764 184.044 257.681 184.081 257.608 184.134C257.535 184.188 257.476 184.257 257.433 184.337C257.384 184.415 257.353 184.502 257.342 184.593C257.328 184.64 257.322 184.689 257.324 184.739C257.324 184.793 257.324 184.848 257.342 184.866C257.349 184.958 257.361 185.05 257.379 185.14C257.382 185.19 257.375 185.239 257.36 185.286C257.328 185.409 257.266 185.522 257.178 185.615C257.076 185.704 256.966 185.783 256.849 185.852C256.539 185.998 256.357 186.089 256.338 186.162C256.32 186.235 256.448 186.253 256.685 186.253C256.84 186.252 256.994 186.227 257.141 186.18C257.356 186.113 257.55 185.994 257.707 185.834C257.811 185.73 257.891 185.605 257.944 185.469C257.971 185.398 257.989 185.325 257.999 185.25C258.014 185.165 258.02 185.08 258.017 184.994C258.002 184.935 257.996 184.873 257.999 184.812V184.775H258.036L258.273 184.903L258.51 185.049L258.747 185.177L259.003 185.323L259.24 185.432H259.295V185.377L259.35 185.231C259.429 185.062 259.491 184.885 259.532 184.702V184.483C259.529 184.428 259.535 184.372 259.55 184.319C259.553 184.203 259.547 184.087 259.532 183.972C259.509 183.821 259.503 183.668 259.514 183.516C259.516 183.474 259.528 183.434 259.551 183.398C259.573 183.363 259.604 183.334 259.642 183.315C259.727 183.294 259.816 183.301 259.897 183.333L259.97 183.37L260.098 183.443L260.299 183.589H260.353L260.426 183.552L260.554 183.443C260.614 183.368 260.658 183.281 260.682 183.187C260.702 183.141 260.715 183.092 260.718 183.041C260.718 183.005 260.737 182.968 260.737 182.932C260.734 182.877 260.74 182.821 260.755 182.768C260.751 182.617 260.782 182.467 260.846 182.33C260.871 182.293 260.903 182.263 260.941 182.241C260.979 182.219 261.021 182.205 261.065 182.202C261.211 182.2 261.358 182.206 261.503 182.22C261.594 182.202 261.649 182.165 261.649 182.147C261.649 182.129 261.649 182.111 261.613 182.092L261.448 182.019L261.12 181.91C261.023 181.889 260.922 181.896 260.828 181.928C260.771 181.942 260.718 181.966 260.671 182.001C260.624 182.035 260.584 182.079 260.554 182.129C260.442 182.283 260.379 182.468 260.372 182.658L260.335 182.895C260.335 182.95 260.317 182.95 260.317 182.987L260.28 183.023C260.28 183.041 260.262 183.06 260.244 183.023H260.207L259.934 182.932C259.857 182.909 259.776 182.902 259.696 182.914L259.623 182.841Z" fill="#1E1D1C"/>
<path d="M261.503 183.149H261.193C261.084 183.159 260.979 183.19 260.883 183.24C260.746 183.308 260.642 183.425 260.591 183.569C260.542 183.684 260.517 183.808 260.518 183.934C260.499 184.061 260.518 184.153 260.499 184.244C260.502 184.348 260.496 184.452 260.481 184.554C260.478 184.659 260.466 184.762 260.445 184.864C260.445 184.919 260.426 184.974 260.426 185.029C260.426 185.083 260.408 185.138 260.39 185.193C260.374 185.271 260.343 185.346 260.299 185.412C260.262 185.485 260.244 185.485 260.226 185.485C260.207 185.485 260.171 185.503 260.061 185.467C259.912 185.435 259.758 185.423 259.605 185.43C259.322 185.464 259.058 185.592 258.857 185.795C258.736 185.912 258.658 186.066 258.638 186.233C258.638 186.343 258.674 186.361 258.711 186.343C258.747 186.324 259.003 186.087 259.331 186.014C259.495 185.972 259.669 185.985 259.824 186.051C259.983 186.129 260.158 186.167 260.335 186.16C260.459 186.135 260.577 186.086 260.682 186.014C260.765 185.945 260.838 185.865 260.901 185.777C260.996 185.613 261.064 185.434 261.102 185.248C261.138 185.086 261.156 184.921 261.156 184.755C261.172 184.591 261.178 184.427 261.175 184.262C261.156 184.08 261.138 183.934 261.138 183.842V183.733C261.156 183.715 261.156 183.696 261.175 183.696C261.274 183.662 261.38 183.649 261.485 183.66C261.621 183.669 261.758 183.65 261.886 183.605C261.998 183.571 262.099 183.508 262.178 183.423C262.294 183.293 262.387 183.145 262.452 182.985C262.495 182.873 262.526 182.757 262.543 182.638C262.544 182.508 262.563 182.379 262.598 182.255C262.605 182.213 262.624 182.175 262.653 182.145C262.683 182.12 262.719 182.104 262.757 182.097C262.796 182.091 262.835 182.095 262.872 182.109C262.927 182.109 262.945 182.163 262.963 182.182C262.981 182.2 263 182.218 263.018 182.2C263.03 182.171 263.037 182.14 263.036 182.109C263.031 182.075 263.018 182.043 262.999 182.015C262.98 181.986 262.956 181.962 262.927 181.944C262.852 181.893 262.762 181.868 262.671 181.871C262.612 181.871 262.553 181.884 262.5 181.91C262.446 181.935 262.399 181.972 262.361 182.017C262.288 182.093 262.237 182.188 262.215 182.291C262.191 182.381 262.173 182.473 262.16 182.565C262.151 182.682 262.115 182.796 262.055 182.897C261.995 182.999 261.912 183.085 261.813 183.149C261.751 183.178 261.682 183.191 261.613 183.185L261.503 183.149ZM267.416 198.935L267.909 198.588L268.183 198.388C268.246 198.336 268.302 198.274 268.347 198.205C268.402 198.116 268.439 198.017 268.456 197.913C268.484 197.71 268.438 197.503 268.329 197.329C268.253 197.171 268.148 197.029 268.018 196.91C267.544 196.475 267.031 196.084 266.485 195.742C265.956 195.395 265.463 195.085 265.062 194.793C264.93 194.684 264.79 194.586 264.642 194.501C264.551 194.464 264.514 194.464 264.514 194.519C264.514 194.574 264.66 194.957 265.025 195.34C265.481 195.802 265.975 196.223 266.504 196.599C266.814 196.814 267.112 197.046 267.398 197.293C267.532 197.394 267.655 197.511 267.763 197.64L267.836 197.786C267.839 197.823 267.832 197.86 267.818 197.895C267.799 197.986 267.599 198.132 267.471 198.242L267.106 198.57C266.869 198.771 266.668 198.953 266.485 199.081C266.228 199.284 265.96 199.473 265.682 199.647C265.345 199.839 265.032 200.072 264.752 200.34C264.368 200.687 265.062 200.413 265.847 199.994C266.219 199.784 266.578 199.552 266.923 199.3L267.416 198.935ZM247.177 198.589C247.159 198.543 247.134 198.5 247.104 198.461C247.027 198.357 246.96 198.248 246.903 198.132C246.839 198.002 246.82 197.855 246.849 197.713C246.92 197.516 247.039 197.34 247.195 197.202C247.378 197.037 247.633 196.855 247.852 196.654L248.582 196.07L249.896 195.012C250.28 194.701 250.389 194.537 250.28 194.519C250.17 194.501 249.842 194.592 249.385 194.811C248.816 195.105 248.273 195.447 247.761 195.833C247.445 196.06 247.146 196.31 246.867 196.581C246.693 196.732 246.545 196.911 246.429 197.11C246.284 197.331 246.219 197.596 246.246 197.859C246.271 198.091 246.36 198.312 246.502 198.497C246.602 198.644 246.712 198.784 246.83 198.917C247.034 199.107 247.253 199.278 247.487 199.428C247.768 199.612 248.068 199.765 248.382 199.884C248.742 200.024 249.126 200.093 249.513 200.085C249.769 200.085 249.732 200.012 249.513 199.921L248.564 199.537C248.203 199.392 247.865 199.196 247.56 198.954C247.425 198.84 247.297 198.718 247.177 198.589ZM250.718 199.683C250.718 199.683 250.59 200.048 250.389 200.505C250.188 200.97 249.956 201.421 249.696 201.855C249.586 202.038 249.568 202.111 249.623 202.111C249.677 202.111 249.805 202.056 249.969 201.892C250.394 201.405 250.695 200.823 250.845 200.194C251.009 199.501 251.046 199.172 251.083 198.953C251.097 198.875 251.103 198.796 251.101 198.716C251.098 198.628 251.08 198.542 251.046 198.461C250.973 198.242 250.955 198.552 250.9 198.917C250.845 199.282 250.718 199.683 250.718 199.683ZM263.857 201.107C263.857 201.107 263.693 200.87 263.492 200.523C263.292 200.18 263.109 199.826 262.945 199.464C262.799 199.154 262.726 199.282 262.762 199.647C262.862 200.146 263.088 200.611 263.419 200.997L264.131 201.709C264.217 201.812 264.331 201.889 264.46 201.928C264.642 201.983 264.46 201.8 264.259 201.581L263.985 201.271L263.857 201.107Z" fill="#1E1D1C"/>
<path d="M249.532 201.053C249.532 201.053 249.55 200.962 249.605 200.779C249.659 200.597 249.769 200.359 249.878 200.086C249.982 199.806 250.123 199.542 250.298 199.301L250.444 199.118L250.517 199.045C250.535 199.027 250.517 199.045 250.535 199.045H250.572L250.663 199.191C250.773 199.392 250.791 199.483 250.827 199.429C250.858 199.349 250.87 199.263 250.864 199.178C250.858 199.093 250.833 199.01 250.791 198.936C250.738 198.843 250.654 198.772 250.554 198.735C250.491 198.731 250.428 198.744 250.371 198.772L250.262 198.863C250.115 198.991 249.986 199.139 249.878 199.301C249.649 199.657 249.489 200.053 249.404 200.469C249.294 200.792 249.269 201.137 249.331 201.473C249.35 201.538 249.381 201.6 249.422 201.655C249.44 201.692 249.477 201.692 249.495 201.71L249.568 201.746C249.655 201.766 249.746 201.753 249.824 201.71C249.926 201.668 250.014 201.598 250.079 201.509C250.14 201.427 250.183 201.334 250.207 201.235C250.243 201.108 250.207 201.126 250.134 201.217C250.033 201.342 249.909 201.447 249.769 201.527C249.753 201.538 249.735 201.546 249.716 201.549C249.697 201.552 249.678 201.551 249.659 201.546H249.568C249.568 201.527 249.55 201.509 249.55 201.491C249.55 201.473 249.532 201.418 249.532 201.363C249.522 201.303 249.522 201.241 249.532 201.181V201.053ZM264.935 200.834C264.913 200.737 264.876 200.645 264.825 200.56C264.732 200.353 264.615 200.157 264.478 199.976C264.41 199.854 264.331 199.737 264.241 199.629C264.14 199.487 264.009 199.369 263.858 199.283C263.696 199.213 263.514 199.207 263.347 199.264C263.268 199.283 263.195 199.319 263.132 199.369C263.068 199.42 263.017 199.484 262.982 199.556C262.927 199.637 262.895 199.732 262.891 199.83C262.909 199.885 262.927 199.885 262.945 199.867C262.964 199.848 263.073 199.684 263.237 199.593C263.333 199.533 263.448 199.511 263.56 199.532C263.671 199.552 263.771 199.613 263.84 199.702C263.951 199.83 264.054 199.964 264.15 200.104L264.478 200.524C264.647 200.729 264.76 200.974 264.807 201.235C264.792 201.303 264.761 201.365 264.716 201.418C264.681 201.451 264.636 201.47 264.588 201.473L264.332 201.509C264.253 201.52 264.172 201.514 264.095 201.491H264.004C264.005 201.509 264.01 201.528 264.019 201.544C264.029 201.559 264.043 201.573 264.059 201.582C264.126 201.64 264.208 201.678 264.296 201.692H264.588C264.651 201.682 264.712 201.663 264.77 201.637C264.837 201.603 264.893 201.553 264.935 201.491C265.001 201.388 265.027 201.265 265.008 201.144C265.008 201.07 264.995 200.996 264.971 200.925C264.967 200.892 264.954 200.861 264.935 200.834ZM244.476 209.411V209.156C244.495 209.083 243.984 209.156 243.965 209.284C243.728 210.27 243.785 211.304 244.13 212.258C244.166 212.368 244.622 212.24 244.659 212.149L245.644 208.973L245.115 209.101C245.115 209.722 245.133 210.342 245.152 210.963L245.206 211.857C245.206 212.058 245.206 212.313 245.444 212.368C245.681 212.423 245.9 212.331 245.918 212.185C246.028 211.017 246.174 209.868 246.393 208.7L245.863 208.827C245.91 209.957 246.088 211.078 246.393 212.167C246.429 212.295 246.922 212.149 246.922 212.039C246.977 211.072 246.995 210.123 247.013 209.156L246.484 209.302L247.488 212.477C247.542 212.605 248.017 212.459 248.017 212.331C248.157 211.391 248.132 210.434 247.944 209.503L247.415 209.63C247.758 210.534 248.212 211.392 248.765 212.185C248.838 212.295 249.294 212.185 249.294 212.058C249.32 210.868 249.252 209.678 249.094 208.499L248.564 208.645C248.984 209.831 249.422 211.036 250.152 212.076C250.225 212.167 250.718 212.039 250.681 211.93L249.367 207.422L248.838 207.568L251.01 211.2C251.065 211.328 251.576 211.145 251.539 211.072L249.897 207.714L249.367 207.86C249.903 208.578 250.469 209.272 251.065 209.941C251.156 210.014 251.576 209.904 251.594 209.776C251.649 208.882 250.718 208.335 250.608 207.477L250.079 207.623C250.368 208.025 250.734 208.366 251.156 208.627C251.229 208.681 251.722 208.554 251.667 208.481C251.39 208.024 251.193 207.525 251.083 207.002C251.046 206.893 250.517 207.021 250.554 207.148C250.667 207.664 250.864 208.157 251.138 208.608L251.667 208.462C251.256 208.203 250.896 207.869 250.608 207.477C250.535 207.386 250.061 207.495 250.079 207.623C250.189 208.481 251.119 209.028 251.065 209.922L251.576 209.758C250.976 209.111 250.415 208.428 249.897 207.714C249.805 207.605 249.313 207.769 249.367 207.86L251.01 211.2L251.539 211.072L249.367 207.422C249.294 207.331 248.802 207.459 248.838 207.568L250.152 212.076L250.681 211.93C249.951 210.89 249.513 209.685 249.094 208.499C249.057 208.389 248.546 208.517 248.564 208.645C248.729 209.818 248.802 211.001 248.783 212.185L249.313 212.058C248.767 211.26 248.314 210.403 247.962 209.503C247.926 209.393 247.415 209.521 247.433 209.63C247.621 210.568 247.646 211.531 247.506 212.477L248.035 212.331L247.031 209.156C246.995 209.046 246.502 209.174 246.502 209.302C246.484 210.251 246.466 211.218 246.411 212.167L246.94 212.039C246.637 210.944 246.459 209.817 246.411 208.681C246.411 208.59 245.918 208.7 245.9 208.791C245.681 209.977 245.517 211.145 245.407 212.331L245.882 212.167C245.699 212.112 245.736 211.638 245.736 211.492C245.736 211.346 245.717 210.926 245.699 210.652C245.681 210.087 245.663 209.521 245.663 208.955C245.663 208.864 245.17 208.973 245.133 209.065L244.148 212.24L244.677 212.112C244.325 211.173 244.262 210.15 244.495 209.174L243.984 209.302L243.947 209.539C243.947 209.612 244.476 209.557 244.476 209.411ZM262.106 209.612C262.525 210.493 263.039 211.325 263.639 212.094C263.73 212.204 264.186 212.094 264.15 211.912L263.456 208.791L262.927 208.937C263.512 210.033 264.19 211.077 264.953 212.058C265.044 212.167 265.519 212.039 265.464 211.875C265.062 210.652 264.643 209.43 264.15 208.225L263.621 208.371C264.241 209.576 265.026 210.671 265.811 211.784C265.884 211.893 266.376 211.766 266.322 211.601L264.953 208.207L264.442 208.389C265.151 209.503 265.964 210.548 266.869 211.51C266.96 211.62 267.453 211.51 267.38 211.346C266.818 210.126 266.178 208.943 265.464 207.805C265.391 207.659 264.88 207.842 264.953 207.97C265.665 209.229 266.668 210.251 267.672 211.273C267.763 211.382 268.256 211.255 268.183 211.109L265.537 206.272L265.026 206.455L267.617 209.521C267.727 209.649 268.22 209.484 268.11 209.302C267.362 208.17 266.668 206.984 266.03 205.78L265.519 205.962L267.088 207.495C267.179 207.586 267.672 207.477 267.599 207.313L266.942 206.053C266.851 205.871 266.34 206.035 266.413 206.181L267.07 207.459L267.581 207.294L266.011 205.743C265.92 205.652 265.427 205.761 265.5 205.926C266.157 207.148 266.869 208.353 267.617 209.521L268.11 209.302L265.519 206.236C265.427 206.126 264.935 206.272 265.008 206.418L267.654 211.255L268.165 211.072C267.179 210.068 266.176 209.065 265.482 207.824L264.971 208.006C265.662 209.132 266.289 210.296 266.851 211.492L267.362 211.309C266.457 210.348 265.644 209.303 264.935 208.189C264.843 208.061 264.351 208.207 264.424 208.353L265.792 211.747L266.303 211.583C265.537 210.488 264.77 209.411 264.15 208.225C264.077 208.061 263.566 208.207 263.621 208.371C264.113 209.576 264.551 210.78 264.935 212.021L265.446 211.839C264.697 210.881 264.032 209.862 263.456 208.791C263.383 208.627 262.891 208.736 262.927 208.937L263.621 212.058L264.132 211.893C263.544 211.143 263.042 210.328 262.635 209.466C262.544 209.284 262.033 209.448 262.106 209.612Z" fill="#1E1D1C"/>
<path d="M33.417 148.896V144.835C33.417 144.605 33.2304 144.418 33.0003 144.418C32.7702 144.418 32.5837 144.605 32.5837 144.835V149.001C32.5838 149.07 32.6009 149.138 32.6333 149.198L33.8833 151.531C33.9558 151.666 34.0968 151.75 34.2503 151.75C34.3191 151.751 34.3868 151.733 34.4473 151.701C34.4471 151.701 34.4475 151.701 34.4473 151.701C34.6497 151.592 34.7262 151.339 34.6174 151.137L33.417 148.896ZM33.0003 140.668C28.398 140.668 24.667 144.399 24.667 149.001C24.667 153.604 28.398 157.335 33.0003 157.335C37.6004 157.329 41.3283 153.601 41.3337 149.001C41.3337 144.399 37.6027 140.668 33.0003 140.668ZM33.0003 156.501C28.8582 156.501 25.5003 153.143 25.5003 149.001C25.5003 144.859 28.8582 141.501 33.0003 141.501C37.1406 141.506 40.4958 144.861 40.5003 149.001C40.5003 153.143 37.1425 156.501 33.0003 156.501Z" fill="#4B5563"/>
</g>
</g>
<defs>
<filter id="filter0_d_1426_4975" x="-9" y="0" width="319" height="227" filterUnits="userSpaceOnUse" color-interpolation-filters="sRGB">
<feFlood flood-opacity="0" result="BackgroundImageFix"/>
<feColorMatrix in="SourceAlpha" type="matrix" values="0 0 0 0 0 0 0 0 0 0 0 0 0 0 0 0 0 0 127 0" result="hardAlpha"/>
<feOffset dy="-4"/>
<feGaussianBlur stdDeviation="8"/>
<feComposite in2="hardAlpha" operator="out"/>
<feColorMatrix type="matrix" values="0 0 0 0 0.8 0 0 0 0 0.8 0 0 0 0 0.8 0 0 0 0.25 0"/>
<feBlend mode="normal" in2="BackgroundImageFix" result="effect1_dropShadow_1426_4975"/>
<feBlend mode="normal" in="SourceGraphic" in2="effect1_dropShadow_1426_4975" result="shape"/>
</filter>
<clipPath id="clip0_1426_4975">
<rect x="7" y="20" width="287" height="195" rx="16" fill="white"/>
</clipPath>
<clipPath id="clip1_1426_4975">
<rect width="20" height="20" fill="white" transform="translate(25 171)"/>
</clipPath>
</defs>
</svg>
