<svg width="876" height="254" viewBox="0 0 876 254" fill="none" xmlns="http://www.w3.org/2000/svg">
<g clip-path="url(#clip0_1437_3336)">
<mask id="path-1-inside-1_1437_3336" fill="white">
<path fill-rule="evenodd" clip-rule="evenodd" d="M60 130C98.6599 130 130 98.6599 130 60C130 45.9913 125.885 32.9436 118.798 22H1166C1174.84 22 1182 29.1634 1182 38V238C1182 246.837 1174.84 254 1166 254H38C29.1635 254 22 246.837 22 238V118.798C32.9436 125.885 45.9913 130 60 130Z"/>
</mask>
<path fill-rule="evenodd" clip-rule="evenodd" d="M60 130C98.6599 130 130 98.6599 130 60C130 45.9913 125.885 32.9436 118.798 22H1166C1174.84 22 1182 29.1634 1182 38V238C1182 246.837 1174.84 254 1166 254H38C29.1635 254 22 246.837 22 238V118.798C32.9436 125.885 45.9913 130 60 130Z" fill="white"/>
<path d="M118.798 22V21H116.959L117.958 22.5436L118.798 22ZM22 118.798L22.5436 117.958L21 116.959V118.798H22ZM129 60C129 98.1077 98.1077 129 60 129V131C99.2122 131 131 99.2122 131 60H129ZM117.958 22.5436C124.944 33.3302 129 46.1899 129 60H131C131 45.7926 126.826 32.5571 119.637 21.4564L117.958 22.5436ZM118.798 23H1166V21H118.798V23ZM1166 23C1174.28 23 1181 29.7157 1181 38H1183C1183 28.6112 1175.39 21 1166 21V23ZM1181 38V238H1183V38H1181ZM1181 238C1181 246.284 1174.28 253 1166 253V255C1175.39 255 1183 247.389 1183 238H1181ZM1166 253H38V255H1166V253ZM38 253C29.7157 253 23 246.284 23 238H21C21 247.389 28.6112 255 38 255V253ZM23 238V118.798H21V238H23ZM60 129C46.1899 129 33.3302 124.944 22.5436 117.958L21.4564 119.637C32.5571 126.826 45.7926 131 60 131V129Z" fill="#EFEFEF" mask="url(#path-1-inside-1_1437_3336)"/>
<line x1="654.5" y1="230" x2="654.5" y2="46" stroke="black" stroke-opacity="0.1"/>
<path d="M355.8 139H348.2C347.1 139 346.2 139.9 346.2 141V155C346.2 156.1 347.1 157 348.2 157H355.8C356.9 157 357.8 156.1 357.8 155V141C357.8 139.9 356.9 139 355.8 139ZM347 142.2H357V153H347V142.2ZM348.2 139.8H355.8C356.46 139.8 357 140.34 357 141V141.4H347V141C347 140.34 347.54 139.8 348.2 139.8ZM355.8 156.2H348.2C347.54 156.2 347 155.66 347 155V153.8H357V155C357 155.66 356.46 156.2 355.8 156.2ZM352.4 154.92V155C352.4 155.1 352.36 155.2 352.28 155.28C352.2 155.36 352.1 155.4 352 155.4C351.94 155.4 351.9 155.4 351.84 155.36C351.8 155.34 351.74 155.32 351.72 155.28C351.68 155.24 351.66 155.2 351.64 155.16C351.6 155.1 351.6 155.06 351.6 155V154.92C351.6 154.9 351.62 154.86 351.62 154.84C351.62 154.82 351.64 154.8 351.66 154.78C351.68 154.76 351.68 154.74 351.7 154.72C351.72 154.7 351.74 154.68 351.76 154.68C351.78 154.66 351.8 154.66 351.82 154.64C351.84 154.64 351.86 154.62 351.9 154.62C352.02 154.6 352.16 154.64 352.26 154.72C352.28 154.74 352.3 154.76 352.3 154.78C352.32 154.8 352.32 154.82 352.34 154.84C352.36 154.86 352.38 154.9 352.4 154.92Z" fill="#4B5563"/>
<g clip-path="url(#clip1_1437_3336)">
<path d="M46.417 148.332L55.7503 149.582C56.2503 149.582 56.667 149.332 56.917 148.915L60.0003 140.082" stroke="#4B5563" stroke-linecap="round" stroke-linejoin="round"/>
<path d="M55.4163 155.919L64.9996 150.335C65.583 150.002 65.7496 149.252 65.4163 148.669L60.833 140.669C60.4996 140.085 59.7496 139.919 59.1663 140.252L46.9996 147.335C46.4163 147.669 46.2496 148.419 46.583 149.002L50.4996 155.919M48.083 155.919H63.9163" stroke="#4B5563" stroke-linecap="round" stroke-linejoin="round"/>
</g>
<path d="M80.548 197.878V208H79.176V197.878H80.548ZM82.1244 206.012H83.3844C83.3844 206.712 83.9164 207.132 84.7844 207.132C85.7084 207.132 86.2404 206.754 86.2404 206.124C86.2404 205.662 86.0164 205.382 85.3024 205.2L84.0984 204.92C82.8804 204.626 82.3064 204.024 82.3064 203.016C82.3064 201.756 83.3704 200.958 84.8824 200.958C86.3804 200.958 87.3604 201.798 87.3884 203.1H86.1284C86.1004 202.414 85.6384 201.98 84.8404 201.98C84.0144 201.98 83.5524 202.344 83.5524 202.974C83.5524 203.436 83.8884 203.744 84.5604 203.912L85.7644 204.206C86.9264 204.486 87.5004 205.018 87.5004 206.04C87.5004 207.342 86.3804 208.168 84.7564 208.168C83.1464 208.168 82.1244 207.314 82.1244 206.012ZM90.9618 208.168C89.4918 208.168 88.6238 207.342 88.6238 206.096C88.6238 204.836 89.5618 204.052 91.1718 203.926L93.3278 203.758V203.562C93.3278 202.414 92.6418 202.008 91.7178 202.008C90.6118 202.008 89.9818 202.498 89.9818 203.324H88.8338C88.8338 201.896 90.0098 200.958 91.7738 200.958C93.4678 200.958 94.6158 201.854 94.6158 203.702V208H93.4958L93.3558 206.894C93.0058 207.678 92.0678 208.168 90.9618 208.168ZM91.3398 207.146C92.5858 207.146 93.3418 206.334 93.3418 205.046V204.682L91.5918 204.822C90.4298 204.934 89.9538 205.382 89.9538 206.054C89.9538 206.782 90.4858 207.146 91.3398 207.146ZM97.6283 208H96.4383V197.696H97.7543V202.33C98.2023 201.434 99.1263 200.958 100.246 200.958C102.206 200.958 103.382 202.498 103.382 204.612C103.382 206.684 102.15 208.168 100.162 208.168C99.0843 208.168 98.1743 207.692 97.7263 206.754L97.6283 208ZM97.7683 204.556C97.7683 205.984 98.5803 206.978 99.9243 206.978C101.268 206.978 102.066 205.97 102.066 204.556C102.066 203.156 101.268 202.148 99.9243 202.148C98.5803 202.148 97.7683 203.156 97.7683 204.556ZM107.787 208.168C105.771 208.168 104.385 206.712 104.385 204.584C104.385 202.442 105.743 200.958 107.731 200.958C109.677 200.958 110.951 202.302 110.951 204.332V204.822L105.659 204.836C105.757 206.278 106.513 207.076 107.815 207.076C108.837 207.076 109.509 206.656 109.733 205.872H110.965C110.629 207.342 109.481 208.168 107.787 208.168ZM107.731 202.064C106.583 202.064 105.855 202.75 105.687 203.954H109.635C109.635 202.82 108.893 202.064 107.731 202.064ZM113.765 208H112.449V197.696H113.765V208ZM120.874 208H119.558V197.696H120.874V208ZM124.155 208H122.839V197.696H124.155V208ZM129.047 208.168C127.031 208.168 125.645 206.712 125.645 204.584C125.645 202.442 127.003 200.958 128.991 200.958C130.937 200.958 132.211 202.302 132.211 204.332V204.822L126.919 204.836C127.017 206.278 127.773 207.076 129.075 207.076C130.097 207.076 130.769 206.656 130.993 205.872H132.225C131.889 207.342 130.741 208.168 129.047 208.168ZM128.991 202.064C127.843 202.064 127.115 202.75 126.947 203.954H130.895C130.895 202.82 130.153 202.064 128.991 202.064ZM133.247 204.402C133.247 202.47 134.493 200.958 136.481 200.958C137.587 200.958 138.441 201.462 138.875 202.316L138.973 201.154H140.149V207.72C140.149 209.876 138.819 211.248 136.719 211.248C134.857 211.248 133.583 210.198 133.331 208.462H134.647C134.815 209.47 135.571 210.058 136.719 210.058C138.007 210.058 138.847 209.218 138.847 207.916V206.544C138.399 207.342 137.503 207.818 136.425 207.818C134.479 207.818 133.247 206.32 133.247 204.402ZM134.563 204.374C134.563 205.662 135.361 206.67 136.649 206.67C137.979 206.67 138.791 205.718 138.791 204.374C138.791 203.058 138.007 202.106 136.663 202.106C135.347 202.106 134.563 203.114 134.563 204.374ZM144.05 208.168C142.58 208.168 141.712 207.342 141.712 206.096C141.712 204.836 142.65 204.052 144.26 203.926L146.416 203.758V203.562C146.416 202.414 145.73 202.008 144.806 202.008C143.7 202.008 143.07 202.498 143.07 203.324H141.922C141.922 201.896 143.098 200.958 144.862 200.958C146.556 200.958 147.704 201.854 147.704 203.702V208H146.584L146.444 206.894C146.094 207.678 145.156 208.168 144.05 208.168ZM144.428 207.146C145.674 207.146 146.43 206.334 146.43 205.046V204.682L144.68 204.822C143.518 204.934 143.042 205.382 143.042 206.054C143.042 206.782 143.574 207.146 144.428 207.146ZM153.446 201.098V202.302H152.858C151.612 202.302 150.842 203.058 150.842 204.374V208H149.526V201.168H150.758L150.842 202.204C151.122 201.49 151.808 201.014 152.746 201.014C152.984 201.014 153.18 201.042 153.446 201.098ZM159.013 198.494L157.809 200.356H156.787L157.739 198.494H159.013ZM156.409 208.168C154.939 208.168 154.071 207.342 154.071 206.096C154.071 204.836 155.009 204.052 156.619 203.926L158.775 203.758V203.562C158.775 202.414 158.089 202.008 157.165 202.008C156.059 202.008 155.429 202.498 155.429 203.324H154.281C154.281 201.896 155.457 200.958 157.221 200.958C158.915 200.958 160.063 201.854 160.063 203.702V208H158.943L158.803 206.894C158.453 207.678 157.515 208.168 156.409 208.168ZM156.787 207.146C158.033 207.146 158.789 206.334 158.789 205.046V204.682L157.039 204.822C155.877 204.934 155.401 205.382 155.401 206.054C155.401 206.782 155.933 207.146 156.787 207.146ZM167.38 199.11H165.252V197.878H168.696V208H167.38V199.11ZM170.547 202.946C170.547 199.81 172.171 197.682 174.719 197.682C177.253 197.682 178.877 199.81 178.877 202.946C178.877 206.096 177.323 208.182 174.719 208.182C172.101 208.182 170.547 206.096 170.547 202.946ZM171.905 202.946C171.905 205.438 172.941 206.95 174.719 206.95C176.497 206.95 177.519 205.438 177.519 202.946C177.519 200.426 176.497 198.914 174.719 198.914C172.941 198.914 171.905 200.426 171.905 202.946ZM185.664 208H184.348V201.154H185.524L185.65 202.05C186 201.406 186.728 200.958 187.694 200.958C188.758 200.958 189.514 201.49 189.864 202.344C190.186 201.49 191.012 200.958 192.076 200.958C193.644 200.958 194.596 201.938 194.596 203.52V208H193.308V203.842C193.308 202.764 192.706 202.148 191.782 202.148C190.788 202.148 190.13 202.848 190.13 203.94V208H188.828V203.828C188.828 202.75 188.24 202.162 187.316 202.162C186.322 202.162 185.664 202.848 185.664 203.94V208ZM197.065 199.53C196.589 199.53 196.197 199.138 196.197 198.662C196.197 198.172 196.589 197.794 197.065 197.794C197.541 197.794 197.933 198.172 197.933 198.662C197.933 199.138 197.541 199.53 197.065 199.53ZM196.421 208V201.154H197.737V208H196.421ZM200.963 208H199.647V201.154H200.837L200.977 202.204C201.411 201.42 202.279 200.958 203.245 200.958C205.051 200.958 205.877 202.064 205.877 203.814V208H204.561V204.108C204.561 202.722 203.917 202.162 202.909 202.162C201.677 202.162 200.963 203.044 200.963 204.374V208ZM212.432 201.154H213.734V208H212.558L212.418 206.964C212.026 207.678 211.116 208.168 210.108 208.168C208.512 208.168 207.616 207.09 207.616 205.41V201.154H208.932V204.976C208.932 206.446 209.562 207.006 210.57 207.006C211.774 207.006 212.432 206.236 212.432 204.766V201.154ZM217.575 208H216.259V202.26H214.915V201.154H216.259V199.012H217.575V201.154H218.919V202.26H217.575V208ZM219.584 204.57C219.584 202.456 221.096 200.972 223.154 200.972C225.198 200.972 226.71 202.456 226.71 204.57C226.71 206.684 225.198 208.168 223.154 208.168C221.096 208.168 219.584 206.684 219.584 204.57ZM220.914 204.57C220.914 205.998 221.824 206.992 223.154 206.992C224.47 206.992 225.394 205.998 225.394 204.57C225.394 203.142 224.47 202.148 223.154 202.148C221.824 202.148 220.914 203.142 220.914 204.57ZM227.607 206.012H228.867C228.867 206.712 229.399 207.132 230.267 207.132C231.191 207.132 231.723 206.754 231.723 206.124C231.723 205.662 231.499 205.382 230.785 205.2L229.581 204.92C228.363 204.626 227.789 204.024 227.789 203.016C227.789 201.756 228.853 200.958 230.365 200.958C231.863 200.958 232.843 201.798 232.871 203.1H231.611C231.583 202.414 231.121 201.98 230.323 201.98C229.497 201.98 229.035 202.344 229.035 202.974C229.035 203.436 229.371 203.744 230.043 203.912L231.247 204.206C232.409 204.486 232.983 205.018 232.983 206.04C232.983 207.342 231.863 208.168 230.239 208.168C228.629 208.168 227.607 207.314 227.607 206.012ZM240.202 208H238.886V202.26H237.542V201.154H238.886V199.012H240.202V201.154H241.546V202.26H240.202V208ZM244.647 208.168C243.177 208.168 242.309 207.342 242.309 206.096C242.309 204.836 243.247 204.052 244.857 203.926L247.013 203.758V203.562C247.013 202.414 246.327 202.008 245.403 202.008C244.297 202.008 243.667 202.498 243.667 203.324H242.519C242.519 201.896 243.695 200.958 245.459 200.958C247.153 200.958 248.301 201.854 248.301 203.702V208H247.181L247.041 206.894C246.691 207.678 245.753 208.168 244.647 208.168ZM245.025 207.146C246.271 207.146 247.027 206.334 247.027 205.046V204.682L245.277 204.822C244.115 204.934 243.639 205.382 243.639 206.054C243.639 206.782 244.171 207.146 245.025 207.146ZM254.044 201.098V202.302H253.456C252.21 202.302 251.44 203.058 251.44 204.374V208H250.124V201.168H251.356L251.44 202.204C251.72 201.49 252.406 201.014 253.344 201.014C253.582 201.014 253.778 201.042 254.044 201.098ZM257.776 208.168C255.788 208.168 254.584 206.684 254.584 204.598C254.584 202.498 255.802 200.958 257.832 200.958C258.882 200.958 259.764 201.42 260.226 202.26V197.696H261.528V208H260.352L260.24 206.754C259.792 207.692 258.868 208.168 257.776 208.168ZM258.042 206.978C259.386 206.978 260.212 205.984 260.212 204.556C260.212 203.156 259.386 202.148 258.042 202.148C256.698 202.148 255.914 203.156 255.914 204.556C255.914 205.97 256.698 206.978 258.042 206.978ZM266.381 208.168C264.365 208.168 262.979 206.712 262.979 204.584C262.979 202.442 264.337 200.958 266.325 200.958C268.271 200.958 269.545 202.302 269.545 204.332V204.822L264.253 204.836C264.351 206.278 265.107 207.076 266.409 207.076C267.431 207.076 268.103 206.656 268.327 205.872H269.559C269.223 207.342 268.075 208.168 266.381 208.168ZM266.325 202.064C265.177 202.064 264.449 202.75 264.281 203.954H268.229C268.229 202.82 267.487 202.064 266.325 202.064ZM276.845 208.168C275.375 208.168 274.507 207.342 274.507 206.096C274.507 204.836 275.445 204.052 277.055 203.926L279.211 203.758V203.562C279.211 202.414 278.525 202.008 277.601 202.008C276.495 202.008 275.865 202.498 275.865 203.324H274.717C274.717 201.896 275.893 200.958 277.657 200.958C279.351 200.958 280.499 201.854 280.499 203.702V208H279.379L279.239 206.894C278.889 207.678 277.951 208.168 276.845 208.168ZM277.223 207.146C278.469 207.146 279.225 206.334 279.225 205.046V204.682L277.475 204.822C276.313 204.934 275.837 205.382 275.837 206.054C275.837 206.782 276.369 207.146 277.223 207.146ZM287.493 208H286.177V197.696H287.493V208ZM291.433 208.168C289.963 208.168 289.095 207.342 289.095 206.096C289.095 204.836 290.033 204.052 291.643 203.926L293.799 203.758V203.562C293.799 202.414 293.113 202.008 292.189 202.008C291.083 202.008 290.453 202.498 290.453 203.324H289.305C289.305 201.896 290.481 200.958 292.245 200.958C293.939 200.958 295.087 201.854 295.087 203.702V208H293.967L293.827 206.894C293.477 207.678 292.539 208.168 291.433 208.168ZM291.811 207.146C293.057 207.146 293.813 206.334 293.813 205.046V204.682L292.063 204.822C290.901 204.934 290.425 205.382 290.425 206.054C290.425 206.782 290.957 207.146 291.811 207.146ZM296.349 206.012H297.609C297.609 206.712 298.141 207.132 299.009 207.132C299.933 207.132 300.465 206.754 300.465 206.124C300.465 205.662 300.241 205.382 299.527 205.2L298.323 204.92C297.105 204.626 296.531 204.024 296.531 203.016C296.531 201.756 297.595 200.958 299.107 200.958C300.605 200.958 301.585 201.798 301.613 203.1H300.353C300.325 202.414 299.863 201.98 299.065 201.98C298.239 201.98 297.777 202.344 297.777 202.974C297.777 203.436 298.113 203.744 298.785 203.912L299.989 204.206C301.151 204.486 301.725 205.018 301.725 206.04C301.725 207.342 300.605 208.168 298.981 208.168C297.371 208.168 296.349 207.314 296.349 206.012ZM306.453 206.012H307.713C307.713 206.712 308.245 207.132 309.113 207.132C310.037 207.132 310.569 206.754 310.569 206.124C310.569 205.662 310.345 205.382 309.631 205.2L308.427 204.92C307.209 204.626 306.635 204.024 306.635 203.016C306.635 201.756 307.699 200.958 309.211 200.958C310.709 200.958 311.689 201.798 311.717 203.1H310.457C310.429 202.414 309.967 201.98 309.169 201.98C308.343 201.98 307.881 202.344 307.881 202.974C307.881 203.436 308.217 203.744 308.889 203.912L310.093 204.206C311.255 204.486 311.829 205.018 311.829 206.04C311.829 207.342 310.709 208.168 309.085 208.168C307.475 208.168 306.453 207.314 306.453 206.012ZM316.242 208.168C314.226 208.168 312.84 206.712 312.84 204.584C312.84 202.442 314.198 200.958 316.186 200.958C318.132 200.958 319.406 202.302 319.406 204.332V204.822L314.114 204.836C314.212 206.278 314.968 207.076 316.27 207.076C317.292 207.076 317.964 206.656 318.188 205.872H319.42C319.084 207.342 317.936 208.168 316.242 208.168ZM316.186 202.064C315.038 202.064 314.31 202.75 314.142 203.954H318.09C318.09 202.82 317.348 202.064 316.186 202.064ZM320.316 206.012H321.576C321.576 206.712 322.108 207.132 322.976 207.132C323.9 207.132 324.432 206.754 324.432 206.124C324.432 205.662 324.208 205.382 323.494 205.2L322.29 204.92C321.072 204.626 320.498 204.024 320.498 203.016C320.498 201.756 321.562 200.958 323.074 200.958C324.572 200.958 325.552 201.798 325.58 203.1H324.32C324.292 202.414 323.83 201.98 323.032 201.98C322.206 201.98 321.744 202.344 321.744 202.974C321.744 203.436 322.08 203.744 322.752 203.912L323.956 204.206C325.118 204.486 325.692 205.018 325.692 206.04C325.692 207.342 324.572 208.168 322.948 208.168C321.338 208.168 320.316 207.314 320.316 206.012ZM327.795 199.53C327.319 199.53 326.927 199.138 326.927 198.662C326.927 198.172 327.319 197.794 327.795 197.794C328.271 197.794 328.663 198.172 328.663 198.662C328.663 199.138 328.271 199.53 327.795 199.53ZM327.151 208V201.154H328.467V208H327.151ZM329.93 204.57C329.93 202.456 331.442 200.972 333.5 200.972C335.544 200.972 337.056 202.456 337.056 204.57C337.056 206.684 335.544 208.168 333.5 208.168C331.442 208.168 329.93 206.684 329.93 204.57ZM331.26 204.57C331.26 205.998 332.17 206.992 333.5 206.992C334.816 206.992 335.74 205.998 335.74 204.57C335.74 203.142 334.816 202.148 333.5 202.148C332.17 202.148 331.26 203.142 331.26 204.57ZM339.829 208H338.513V201.154H339.703L339.843 202.204C340.277 201.42 341.145 200.958 342.111 200.958C343.917 200.958 344.743 202.064 344.743 203.814V208H343.427V204.108C343.427 202.722 342.783 202.162 341.775 202.162C340.543 202.162 339.829 203.044 339.829 204.374V208ZM349.519 208.168C347.503 208.168 346.117 206.712 346.117 204.584C346.117 202.442 347.475 200.958 349.463 200.958C351.409 200.958 352.683 202.302 352.683 204.332V204.822L347.391 204.836C347.489 206.278 348.245 207.076 349.547 207.076C350.569 207.076 351.241 206.656 351.465 205.872H352.697C352.361 207.342 351.213 208.168 349.519 208.168ZM349.463 202.064C348.315 202.064 347.587 202.75 347.419 203.954H351.367C351.367 202.82 350.625 202.064 349.463 202.064ZM353.593 206.012H354.853C354.853 206.712 355.385 207.132 356.253 207.132C357.177 207.132 357.709 206.754 357.709 206.124C357.709 205.662 357.485 205.382 356.771 205.2L355.567 204.92C354.349 204.626 353.775 204.024 353.775 203.016C353.775 201.756 354.839 200.958 356.351 200.958C357.849 200.958 358.829 201.798 358.857 203.1H357.597C357.569 202.414 357.107 201.98 356.309 201.98C355.483 201.98 355.021 202.344 355.021 202.974C355.021 203.436 355.357 203.744 356.029 203.912L357.233 204.206C358.395 204.486 358.969 205.018 358.969 206.04C358.969 207.342 357.849 208.168 356.225 208.168C354.615 208.168 353.593 207.314 353.593 206.012ZM367.001 208.168C365.013 208.168 363.809 206.684 363.809 204.598C363.809 202.498 365.027 200.958 367.057 200.958C368.107 200.958 368.989 201.42 369.451 202.26V197.696H370.753V208H369.577L369.465 206.754C369.017 207.692 368.093 208.168 367.001 208.168ZM367.267 206.978C368.611 206.978 369.437 205.984 369.437 204.556C369.437 203.156 368.611 202.148 367.267 202.148C365.923 202.148 365.139 203.156 365.139 204.556C365.139 205.97 365.923 206.978 367.267 206.978ZM375.605 208.168C373.589 208.168 372.203 206.712 372.203 204.584C372.203 202.442 373.561 200.958 375.549 200.958C377.495 200.958 378.769 202.302 378.769 204.332V204.822L373.477 204.836C373.575 206.278 374.331 207.076 375.633 207.076C376.655 207.076 377.327 206.656 377.551 205.872H378.783C378.447 207.342 377.299 208.168 375.605 208.168ZM375.549 202.064C374.401 202.064 373.673 202.75 373.505 203.954H377.453C377.453 202.82 376.711 202.064 375.549 202.064ZM386.069 208.168C384.599 208.168 383.731 207.342 383.731 206.096C383.731 204.836 384.669 204.052 386.279 203.926L388.435 203.758V203.562C388.435 202.414 387.749 202.008 386.825 202.008C385.719 202.008 385.089 202.498 385.089 203.324H383.941C383.941 201.896 385.117 200.958 386.881 200.958C388.575 200.958 389.723 201.854 389.723 203.702V208H388.603L388.463 206.894C388.113 207.678 387.175 208.168 386.069 208.168ZM386.447 207.146C387.693 207.146 388.449 206.334 388.449 205.046V204.682L386.699 204.822C385.537 204.934 385.061 205.382 385.061 206.054C385.061 206.782 385.593 207.146 386.447 207.146ZM392.736 208H391.546V197.696H392.862V202.33C393.31 201.434 394.234 200.958 395.354 200.958C397.314 200.958 398.49 202.498 398.49 204.612C398.49 206.684 397.258 208.168 395.27 208.168C394.192 208.168 393.282 207.692 392.834 206.754L392.736 208ZM392.876 204.556C392.876 205.984 393.688 206.978 395.032 206.978C396.376 206.978 397.174 205.97 397.174 204.556C397.174 203.156 396.376 202.148 395.032 202.148C393.688 202.148 392.876 203.156 392.876 204.556ZM403.86 201.098V202.302H403.272C402.026 202.302 401.256 203.058 401.256 204.374V208H399.94V201.168H401.172L401.256 202.204C401.536 201.49 402.222 201.014 403.16 201.014C403.398 201.014 403.594 201.042 403.86 201.098ZM405.739 199.53C405.263 199.53 404.871 199.138 404.871 198.662C404.871 198.172 405.263 197.794 405.739 197.794C406.215 197.794 406.607 198.172 406.607 198.662C406.607 199.138 406.215 199.53 405.739 199.53ZM405.095 208V201.154H406.411V208H405.095ZM409.665 208H408.349V197.696H409.665V208Z" fill="#4B5563"/>
<path d="M155.016 59.456V77H151.944V59.456H155.016ZM157.561 73.4H160.345C160.369 74.432 161.137 75.08 162.481 75.08C163.849 75.08 164.593 74.528 164.593 73.664C164.593 73.064 164.281 72.632 163.225 72.392L161.089 71.888C158.953 71.408 157.921 70.4 157.921 68.504C157.921 66.176 159.889 64.784 162.625 64.784C165.289 64.784 167.089 66.32 167.113 68.624H164.329C164.305 67.616 163.633 66.968 162.505 66.968C161.353 66.968 160.681 67.496 160.681 68.384C160.681 69.056 161.209 69.488 162.217 69.728L164.353 70.232C166.345 70.688 167.353 71.6 167.353 73.424C167.353 75.824 165.313 77.312 162.385 77.312C159.433 77.312 157.561 75.728 157.561 73.4ZM173.11 77.312C170.59 77.312 169.054 75.848 169.054 73.616C169.054 71.432 170.638 70.064 173.446 69.848L176.998 69.584V69.32C176.998 67.712 176.038 67.064 174.55 67.064C172.822 67.064 171.862 67.784 171.862 69.032H169.366C169.366 66.464 171.478 64.784 174.694 64.784C177.886 64.784 179.854 66.512 179.854 69.8V77H177.286L177.07 75.248C176.566 76.472 174.958 77.312 173.11 77.312ZM174.07 75.104C175.87 75.104 177.022 74.024 177.022 72.2V71.576L174.55 71.768C172.726 71.936 172.03 72.536 172.03 73.496C172.03 74.576 172.75 75.104 174.07 75.104ZM185.443 77H182.731V59.144H185.659V66.872C186.427 65.552 188.011 64.76 189.811 64.76C193.195 64.76 195.259 67.4 195.259 71.144C195.259 74.792 193.027 77.312 189.619 77.312C187.843 77.312 186.331 76.52 185.635 75.152L185.443 77ZM185.683 71.024C185.683 73.16 187.003 74.624 189.019 74.624C191.083 74.624 192.307 73.136 192.307 71.024C192.307 68.912 191.083 67.4 189.019 67.4C187.003 67.4 185.683 68.888 185.683 71.024ZM202.894 77.312C199.366 77.312 196.894 74.744 196.894 71.072C196.894 67.352 199.318 64.784 202.798 64.784C206.35 64.784 208.606 67.16 208.606 70.856V71.744L199.678 71.768C199.894 73.856 200.998 74.912 202.942 74.912C204.55 74.912 205.606 74.288 205.942 73.16H208.654C208.15 75.752 205.99 77.312 202.894 77.312ZM202.822 67.184C201.094 67.184 200.038 68.12 199.75 69.896H205.702C205.702 68.264 204.574 67.184 202.822 67.184ZM213.902 77H210.998V59.144H213.902V77ZM220.501 77.312C217.981 77.312 216.445 75.848 216.445 73.616C216.445 71.432 218.029 70.064 220.837 69.848L224.389 69.584V69.32C224.389 67.712 223.429 67.064 221.941 67.064C220.213 67.064 219.253 67.784 219.253 69.032H216.757C216.757 66.464 218.869 64.784 222.085 64.784C225.277 64.784 227.245 66.512 227.245 69.8V77H224.677L224.461 75.248C223.957 76.472 222.349 77.312 220.501 77.312ZM221.461 75.104C223.261 75.104 224.413 74.024 224.413 72.2V71.576L221.941 71.768C220.117 71.936 219.421 72.536 219.421 73.496C219.421 74.576 220.141 75.104 221.461 75.104ZM240.094 59.456V74.168H247.438V77H237.022V59.456H240.094ZM248.574 71.048C248.574 67.352 251.238 64.808 254.91 64.808C258.582 64.808 261.246 67.352 261.246 71.048C261.246 74.744 258.582 77.288 254.91 77.288C251.238 77.288 248.574 74.744 248.574 71.048ZM251.502 71.048C251.502 73.208 252.894 74.672 254.91 74.672C256.926 74.672 258.318 73.208 258.318 71.048C258.318 68.888 256.926 67.424 254.91 67.424C252.894 67.424 251.502 68.888 251.502 71.048ZM272.378 77H262.802V74.6L268.706 67.592H262.802V65.144H272.378V67.568L266.378 74.552H272.378V77ZM278.298 77.312C275.778 77.312 274.242 75.848 274.242 73.616C274.242 71.432 275.826 70.064 278.634 69.848L282.186 69.584V69.32C282.186 67.712 281.226 67.064 279.738 67.064C278.01 67.064 277.05 67.784 277.05 69.032H274.554C274.554 66.464 276.666 64.784 279.882 64.784C283.074 64.784 285.042 66.512 285.042 69.8V77H282.474L282.258 75.248C281.754 76.472 280.146 77.312 278.298 77.312ZM279.258 75.104C281.058 75.104 282.21 74.024 282.21 72.2V71.576L279.738 71.768C277.914 71.936 277.218 72.536 277.218 73.496C277.218 74.576 277.938 75.104 279.258 75.104ZM290.846 77H287.918V65.144H290.63L290.87 66.68C291.614 65.48 293.054 64.784 294.662 64.784C297.638 64.784 299.174 66.632 299.174 69.704V77H296.246V70.4C296.246 68.408 295.262 67.448 293.75 67.448C291.95 67.448 290.846 68.696 290.846 70.616V77ZM301.355 71.048C301.355 67.352 304.019 64.808 307.691 64.808C311.363 64.808 314.027 67.352 314.027 71.048C314.027 74.744 311.363 77.288 307.691 77.288C304.019 77.288 301.355 74.744 301.355 71.048ZM304.283 71.048C304.283 73.208 305.675 74.672 307.691 74.672C309.707 74.672 311.099 73.208 311.099 71.048C311.099 68.888 309.707 67.424 307.691 67.424C305.675 67.424 304.283 68.888 304.283 71.048Z" fill="#11151A"/>
<path d="M378.088 153.168C376.016 153.168 374.672 151.852 374.672 149.836H376.03C376.03 151.138 376.828 151.936 378.116 151.936C379.488 151.936 380.37 151.026 380.37 149.654C380.37 148.352 379.544 147.386 378.13 147.386C377.276 147.386 376.492 147.792 376.03 148.366L374.868 148.072L376.1 142.878H381.168V144.138H377.094L376.422 146.826C376.954 146.42 377.626 146.21 378.382 146.21C380.44 146.21 381.77 147.652 381.77 149.598C381.77 151.698 380.272 153.168 378.088 153.168ZM386.359 153.168C384.287 153.168 382.943 151.852 382.943 149.836H384.301C384.301 151.138 385.099 151.936 386.387 151.936C387.759 151.936 388.641 151.026 388.641 149.654C388.641 148.352 387.815 147.386 386.401 147.386C385.547 147.386 384.763 147.792 384.301 148.366L383.139 148.072L384.371 142.878H389.439V144.138H385.365L384.693 146.826C385.225 146.42 385.897 146.21 386.653 146.21C388.711 146.21 390.041 147.652 390.041 149.598C390.041 151.698 388.543 153.168 386.359 153.168ZM398.459 153.168C396.387 153.168 395.043 151.852 395.043 149.836H396.401C396.401 151.138 397.199 151.936 398.487 151.936C399.859 151.936 400.741 151.026 400.741 149.654C400.741 148.352 399.915 147.386 398.501 147.386C397.647 147.386 396.863 147.792 396.401 148.366L395.239 148.072L396.471 142.878H401.539V144.138H397.465L396.793 146.826C397.325 146.42 397.997 146.21 398.753 146.21C400.811 146.21 402.141 147.652 402.141 149.598C402.141 151.698 400.643 153.168 398.459 153.168ZM406.731 153.168C404.659 153.168 403.315 151.852 403.315 149.836H404.673C404.673 151.138 405.471 151.936 406.759 151.936C408.131 151.936 409.013 151.026 409.013 149.654C409.013 148.352 408.187 147.386 406.773 147.386C405.919 147.386 405.135 147.792 404.673 148.366L403.511 148.072L404.743 142.878H409.811V144.138H405.737L405.065 146.826C405.597 146.42 406.269 146.21 407.025 146.21C409.083 146.21 410.413 147.652 410.413 149.598C410.413 151.698 408.915 153.168 406.731 153.168ZM415.002 153.168C412.93 153.168 411.586 151.852 411.586 149.836H412.944C412.944 151.138 413.742 151.936 415.03 151.936C416.402 151.936 417.284 151.026 417.284 149.654C417.284 148.352 416.458 147.386 415.044 147.386C414.19 147.386 413.406 147.792 412.944 148.366L411.782 148.072L413.014 142.878H418.082V144.138H414.008L413.336 146.826C413.868 146.42 414.54 146.21 415.296 146.21C417.354 146.21 418.684 147.652 418.684 149.598C418.684 151.698 417.186 153.168 415.002 153.168ZM427.102 153.168C425.03 153.168 423.686 151.852 423.686 149.836H425.044C425.044 151.138 425.842 151.936 427.13 151.936C428.502 151.936 429.384 151.026 429.384 149.654C429.384 148.352 428.558 147.386 427.144 147.386C426.29 147.386 425.506 147.792 425.044 148.366L423.882 148.072L425.114 142.878H430.182V144.138H426.108L425.436 146.826C425.968 146.42 426.64 146.21 427.396 146.21C429.454 146.21 430.784 147.652 430.784 149.598C430.784 151.698 429.286 153.168 427.102 153.168ZM435.373 153.168C433.301 153.168 431.957 151.852 431.957 149.836H433.315C433.315 151.138 434.113 151.936 435.401 151.936C436.773 151.936 437.655 151.026 437.655 149.654C437.655 148.352 436.829 147.386 435.415 147.386C434.561 147.386 433.777 147.792 433.315 148.366L432.153 148.072L433.385 142.878H438.453V144.138H434.379L433.707 146.826C434.239 146.42 434.911 146.21 435.667 146.21C437.725 146.21 439.055 147.652 439.055 149.598C439.055 151.698 437.557 153.168 435.373 153.168ZM447.473 153.168C445.401 153.168 444.057 151.852 444.057 149.836H445.415C445.415 151.138 446.213 151.936 447.501 151.936C448.873 151.936 449.755 151.026 449.755 149.654C449.755 148.352 448.929 147.386 447.515 147.386C446.661 147.386 445.877 147.792 445.415 148.366L444.253 148.072L445.485 142.878H450.553V144.138H446.479L445.807 146.826C446.339 146.42 447.011 146.21 447.767 146.21C449.825 146.21 451.155 147.652 451.155 149.598C451.155 151.698 449.657 153.168 447.473 153.168ZM455.744 153.168C453.672 153.168 452.328 151.852 452.328 149.836H453.686C453.686 151.138 454.484 151.936 455.772 151.936C457.144 151.936 458.026 151.026 458.026 149.654C458.026 148.352 457.2 147.386 455.786 147.386C454.932 147.386 454.148 147.792 453.686 148.366L452.524 148.072L453.756 142.878H458.824V144.138H454.75L454.078 146.826C454.61 146.42 455.282 146.21 456.038 146.21C458.096 146.21 459.426 147.652 459.426 149.598C459.426 151.698 457.928 153.168 455.744 153.168Z" fill="#4B5563"/>
<path d="M79.596 145.53C79.12 145.53 78.728 145.138 78.728 144.662C78.728 144.172 79.12 143.794 79.596 143.794C80.072 143.794 80.464 144.172 80.464 144.662C80.464 145.138 80.072 145.53 79.596 145.53ZM78.952 154V147.154H80.268V154H78.952ZM81.6186 152.012H82.8786C82.8786 152.712 83.4106 153.132 84.2786 153.132C85.2026 153.132 85.7346 152.754 85.7346 152.124C85.7346 151.662 85.5106 151.382 84.7966 151.2L83.5926 150.92C82.3746 150.626 81.8006 150.024 81.8006 149.016C81.8006 147.756 82.8646 146.958 84.3766 146.958C85.8746 146.958 86.8546 147.798 86.8826 149.1H85.6226C85.5946 148.414 85.1326 147.98 84.3346 147.98C83.5086 147.98 83.0466 148.344 83.0466 148.974C83.0466 149.436 83.3826 149.744 84.0546 149.912L85.2586 150.206C86.4206 150.486 86.9946 151.018 86.9946 152.04C86.9946 153.342 85.8746 154.168 84.2506 154.168C82.6406 154.168 81.6186 153.314 81.6186 152.012ZM90.456 154.168C88.986 154.168 88.118 153.342 88.118 152.096C88.118 150.836 89.056 150.052 90.666 149.926L92.822 149.758V149.562C92.822 148.414 92.136 148.008 91.212 148.008C90.106 148.008 89.476 148.498 89.476 149.324H88.328C88.328 147.896 89.504 146.958 91.268 146.958C92.962 146.958 94.11 147.854 94.11 149.702V154H92.99L92.85 152.894C92.5 153.678 91.562 154.168 90.456 154.168ZM90.834 153.146C92.08 153.146 92.836 152.334 92.836 151.046V150.682L91.086 150.822C89.924 150.934 89.448 151.382 89.448 152.054C89.448 152.782 89.98 153.146 90.834 153.146ZM97.1225 154H95.9325V143.696H97.2485V148.33C97.6965 147.434 98.6205 146.958 99.7405 146.958C101.7 146.958 102.876 148.498 102.876 150.612C102.876 152.684 101.644 154.168 99.6565 154.168C98.5785 154.168 97.6685 153.692 97.2205 152.754L97.1225 154ZM97.2625 150.556C97.2625 151.984 98.0745 152.978 99.4185 152.978C100.762 152.978 101.56 151.97 101.56 150.556C101.56 149.156 100.762 148.148 99.4185 148.148C98.0745 148.148 97.2625 149.156 97.2625 150.556ZM107.281 154.168C105.265 154.168 103.879 152.712 103.879 150.584C103.879 148.442 105.237 146.958 107.225 146.958C109.171 146.958 110.445 148.302 110.445 150.332V150.822L105.153 150.836C105.251 152.278 106.007 153.076 107.309 153.076C108.331 153.076 109.003 152.656 109.227 151.872H110.459C110.123 153.342 108.975 154.168 107.281 154.168ZM107.225 148.064C106.077 148.064 105.349 148.75 105.181 149.954H109.129C109.129 148.82 108.387 148.064 107.225 148.064ZM113.259 154H111.943V143.696H113.259V154ZM117.198 154.168C115.728 154.168 114.86 153.342 114.86 152.096C114.86 150.836 115.798 150.052 117.408 149.926L119.564 149.758V149.562C119.564 148.414 118.878 148.008 117.954 148.008C116.848 148.008 116.218 148.498 116.218 149.324H115.07C115.07 147.896 116.246 146.958 118.01 146.958C119.704 146.958 120.852 147.854 120.852 149.702V154H119.732L119.592 152.894C119.242 153.678 118.304 154.168 117.198 154.168ZM117.576 153.146C118.822 153.146 119.578 152.334 119.578 151.046V150.682L117.828 150.822C116.666 150.934 116.19 151.382 116.19 152.054C116.19 152.782 116.722 153.146 117.576 153.146ZM122.563 155.288V154.252H128.303V155.288H122.563ZM131.442 154H130.126V143.696H131.442V154ZM132.932 150.57C132.932 148.456 134.444 146.972 136.502 146.972C138.546 146.972 140.058 148.456 140.058 150.57C140.058 152.684 138.546 154.168 136.502 154.168C134.444 154.168 132.932 152.684 132.932 150.57ZM134.262 150.57C134.262 151.998 135.172 152.992 136.502 152.992C137.818 152.992 138.742 151.998 138.742 150.57C138.742 149.142 137.818 148.148 136.502 148.148C135.172 148.148 134.262 149.142 134.262 150.57ZM146.278 154H140.944V152.936L144.64 148.26H140.944V147.154H146.278V148.232L142.554 152.894H146.278V154ZM149.765 154.168C148.295 154.168 147.427 153.342 147.427 152.096C147.427 150.836 148.365 150.052 149.975 149.926L152.131 149.758V149.562C152.131 148.414 151.445 148.008 150.521 148.008C149.415 148.008 148.785 148.498 148.785 149.324H147.637C147.637 147.896 148.813 146.958 150.577 146.958C152.271 146.958 153.419 147.854 153.419 149.702V154H152.299L152.159 152.894C151.809 153.678 150.871 154.168 149.765 154.168ZM150.143 153.146C151.389 153.146 152.145 152.334 152.145 151.046V150.682L150.395 150.822C149.233 150.934 148.757 151.382 148.757 152.054C148.757 152.782 149.289 153.146 150.143 153.146ZM156.557 154H155.241V147.154H156.431L156.571 148.204C157.005 147.42 157.873 146.958 158.839 146.958C160.645 146.958 161.471 148.064 161.471 149.814V154H160.155V150.108C160.155 148.722 159.511 148.162 158.503 148.162C157.271 148.162 156.557 149.044 156.557 150.374V154ZM162.846 150.57C162.846 148.456 164.358 146.972 166.416 146.972C168.46 146.972 169.972 148.456 169.972 150.57C169.972 152.684 168.46 154.168 166.416 154.168C164.358 154.168 162.846 152.684 162.846 150.57ZM164.176 150.57C164.176 151.998 165.086 152.992 166.416 152.992C167.732 152.992 168.656 151.998 168.656 150.57C168.656 149.142 167.732 148.148 166.416 148.148C165.086 148.148 164.176 149.142 164.176 150.57ZM171.317 155.288V154.252H177.057V155.288H171.317ZM180.196 154H178.88V143.696H180.196V154ZM181.686 150.57C181.686 148.456 183.198 146.972 185.256 146.972C187.3 146.972 188.812 148.456 188.812 150.57C188.812 152.684 187.3 154.168 185.256 154.168C183.198 154.168 181.686 152.684 181.686 150.57ZM183.016 150.57C183.016 151.998 183.926 152.992 185.256 152.992C186.572 152.992 187.496 151.998 187.496 150.57C187.496 149.142 186.572 148.148 185.256 148.148C183.926 148.148 183.016 149.142 183.016 150.57ZM191.584 154H190.268V147.154H191.458L191.598 148.204C192.032 147.42 192.9 146.958 193.866 146.958C195.672 146.958 196.498 148.064 196.498 149.814V154H195.182V150.108C195.182 148.722 194.538 148.162 193.53 148.162C192.298 148.162 191.584 149.044 191.584 150.374V154ZM201.275 154.168C199.259 154.168 197.873 152.712 197.873 150.584C197.873 148.442 199.231 146.958 201.219 146.958C203.165 146.958 204.439 148.302 204.439 150.332V150.822L199.147 150.836C199.245 152.278 200.001 153.076 201.303 153.076C202.325 153.076 202.997 152.656 203.221 151.872H204.453C204.117 153.342 202.969 154.168 201.275 154.168ZM201.219 148.064C200.071 148.064 199.343 148.75 199.175 149.954H203.123C203.123 148.82 202.381 148.064 201.219 148.064ZM210.686 154H205.352V152.936L209.048 148.26H205.352V147.154H210.686V148.232L206.962 152.894H210.686V154ZM214.845 150.892C214.845 149.772 215.685 149.016 217.197 148.904L219.171 148.75V148.568C219.171 147.63 218.667 147.154 217.687 147.154C216.679 147.154 216.105 147.588 216.105 148.344H215.041C215.041 147.042 216.105 146.188 217.729 146.188C219.395 146.188 220.361 147.098 220.361 148.694V151.13C220.361 151.676 220.627 151.942 221.159 151.942C222.013 151.942 222.601 150.878 222.601 149.31C222.601 146.538 220.571 144.564 217.715 144.564C214.915 144.564 212.773 146.734 212.773 149.562C212.773 152.432 214.901 154.602 217.715 154.602C218.821 154.602 219.885 154.238 220.767 153.566L221.215 154.322C220.221 155.078 219.017 155.47 217.715 155.47C214.369 155.47 211.835 152.936 211.835 149.562C211.835 146.23 214.383 143.696 217.715 143.696C221.103 143.696 223.539 146.048 223.539 149.31C223.539 151.368 222.517 152.782 221.019 152.782C220.053 152.782 219.451 152.348 219.311 151.55C218.975 152.306 218.093 152.782 217.043 152.782C215.685 152.782 214.845 152.054 214.845 150.892ZM216.063 150.85C216.063 151.494 216.511 151.83 217.337 151.83C218.485 151.83 219.185 151.116 219.185 149.926V149.604L217.575 149.744C216.539 149.828 216.063 150.192 216.063 150.85ZM224.67 150.402C224.67 148.47 225.916 146.958 227.904 146.958C229.01 146.958 229.864 147.462 230.298 148.316L230.396 147.154H231.572V153.72C231.572 155.876 230.242 157.248 228.142 157.248C226.28 157.248 225.006 156.198 224.754 154.462H226.07C226.238 155.47 226.994 156.058 228.142 156.058C229.43 156.058 230.27 155.218 230.27 153.916V152.544C229.822 153.342 228.926 153.818 227.848 153.818C225.902 153.818 224.67 152.32 224.67 150.402ZM225.986 150.374C225.986 151.662 226.784 152.67 228.072 152.67C229.402 152.67 230.214 151.718 230.214 150.374C230.214 149.058 229.43 148.106 228.086 148.106C226.77 148.106 225.986 149.114 225.986 150.374ZM234.788 154H233.472V147.154H234.648L234.774 148.05C235.124 147.406 235.852 146.958 236.818 146.958C237.882 146.958 238.638 147.49 238.988 148.344C239.31 147.49 240.136 146.958 241.2 146.958C242.768 146.958 243.72 147.938 243.72 149.52V154H242.432V149.842C242.432 148.764 241.83 148.148 240.906 148.148C239.912 148.148 239.254 148.848 239.254 149.94V154H237.952V149.828C237.952 148.75 237.364 148.162 236.44 148.162C235.446 148.162 234.788 148.848 234.788 149.94V154ZM247.546 154.168C246.076 154.168 245.208 153.342 245.208 152.096C245.208 150.836 246.146 150.052 247.756 149.926L249.912 149.758V149.562C249.912 148.414 249.226 148.008 248.302 148.008C247.196 148.008 246.566 148.498 246.566 149.324H245.418C245.418 147.896 246.594 146.958 248.358 146.958C250.052 146.958 251.2 147.854 251.2 149.702V154H250.08L249.94 152.894C249.59 153.678 248.652 154.168 247.546 154.168ZM247.924 153.146C249.17 153.146 249.926 152.334 249.926 151.046V150.682L248.176 150.822C247.014 150.934 246.538 151.382 246.538 152.054C246.538 152.782 247.07 153.146 247.924 153.146ZM253.666 145.53C253.19 145.53 252.798 145.138 252.798 144.662C252.798 144.172 253.19 143.794 253.666 143.794C254.142 143.794 254.534 144.172 254.534 144.662C254.534 145.138 254.142 145.53 253.666 145.53ZM253.022 154V147.154H254.338V154H253.022ZM257.593 154H256.277V143.696H257.593V154ZM260.51 154.168C259.964 154.168 259.502 153.72 259.502 153.188C259.502 152.642 259.964 152.194 260.51 152.194C261.042 152.194 261.504 152.642 261.504 153.188C261.504 153.72 261.042 154.168 260.51 154.168ZM262.527 150.584C262.527 148.442 263.885 146.958 265.887 146.958C267.609 146.958 268.813 147.938 269.051 149.464H267.735C267.511 148.596 266.811 148.134 265.929 148.134C264.683 148.134 263.829 149.086 263.829 150.57C263.829 152.04 264.627 152.992 265.873 152.992C266.811 152.992 267.511 152.502 267.749 151.69H269.065C268.799 153.174 267.525 154.168 265.873 154.168C263.857 154.168 262.527 152.74 262.527 150.584ZM270.006 150.57C270.006 148.456 271.518 146.972 273.576 146.972C275.62 146.972 277.132 148.456 277.132 150.57C277.132 152.684 275.62 154.168 273.576 154.168C271.518 154.168 270.006 152.684 270.006 150.57ZM271.336 150.57C271.336 151.998 272.246 152.992 273.576 152.992C274.892 152.992 275.816 151.998 275.816 150.57C275.816 149.142 274.892 148.148 273.576 148.148C272.246 148.148 271.336 149.142 271.336 150.57ZM279.905 154H278.589V147.154H279.765L279.891 148.05C280.241 147.406 280.969 146.958 281.935 146.958C282.999 146.958 283.755 147.49 284.105 148.344C284.427 147.49 285.253 146.958 286.317 146.958C287.885 146.958 288.837 147.938 288.837 149.52V154H287.549V149.842C287.549 148.764 286.947 148.148 286.023 148.148C285.029 148.148 284.371 148.848 284.371 149.94V154H283.069V149.828C283.069 148.75 282.481 148.162 281.557 148.162C280.563 148.162 279.905 148.848 279.905 149.94V154Z" fill="#4B5563"/>
<path d="M685.216 63.312H683.08V61.32L687.592 57.168H680.296V54.456H691.432V56.904L687.16 60.84C689.848 61.368 691.936 63.336 691.936 66.432C691.936 70.032 689.128 72.312 685.576 72.312C682.144 72.312 679.48 70.2 679.48 66.408H682.504C682.504 68.424 683.752 69.576 685.624 69.576C687.544 69.576 688.816 68.328 688.816 66.384C688.816 64.608 687.664 63.312 685.216 63.312ZM705.631 71.976L693.463 72V69.696L699.199 64.848C701.575 62.832 702.367 61.68 702.367 60C702.367 58.008 701.287 56.88 699.439 56.88C697.519 56.88 696.319 58.224 696.295 60.48H693.247C693.271 56.64 695.719 54.144 699.439 54.144C703.183 54.144 705.511 56.28 705.511 59.832C705.511 62.28 704.167 64.128 701.503 66.408L698.335 69.12H705.631V71.976ZM713.777 66.048C713.777 62.376 716.201 59.784 719.705 59.784C722.945 59.784 725.153 61.584 725.465 64.44H722.537C722.201 63.096 721.217 62.4 719.825 62.4C717.953 62.4 716.705 63.816 716.705 66.048C716.705 68.28 717.857 69.672 719.729 69.672C721.193 69.672 722.225 68.952 722.537 67.656H725.489C725.129 70.416 722.825 72.312 719.729 72.312C716.129 72.312 713.777 69.816 713.777 66.048ZM729.132 57.768C728.124 57.768 727.332 56.976 727.332 55.992C727.332 55.008 728.124 54.24 729.132 54.24C730.092 54.24 730.884 55.008 730.884 55.992C730.884 56.976 730.092 57.768 729.132 57.768ZM727.668 72V60.144H730.596V72H727.668ZM737.653 72H734.725V62.592H732.445V60.144H734.725V56.448H737.653V60.144H739.957V62.592H737.653V72ZM745.235 72.312C742.715 72.312 741.179 70.848 741.179 68.616C741.179 66.432 742.763 65.064 745.571 64.848L749.123 64.584V64.32C749.123 62.712 748.163 62.064 746.675 62.064C744.947 62.064 743.987 62.784 743.987 64.032H741.491C741.491 61.464 743.603 59.784 746.819 59.784C750.011 59.784 751.979 61.512 751.979 64.8V72H749.411L749.195 70.248C748.691 71.472 747.083 72.312 745.235 72.312ZM746.195 70.104C747.995 70.104 749.147 69.024 749.147 67.2V66.576L746.675 66.768C744.851 66.936 744.155 67.536 744.155 68.496C744.155 69.576 744.875 70.104 746.195 70.104ZM753.944 68.4H756.728C756.752 69.432 757.52 70.08 758.864 70.08C760.232 70.08 760.976 69.528 760.976 68.664C760.976 68.064 760.664 67.632 759.608 67.392L757.472 66.888C755.336 66.408 754.304 65.4 754.304 63.504C754.304 61.176 756.272 59.784 759.008 59.784C761.672 59.784 763.472 61.32 763.496 63.624H760.712C760.688 62.616 760.016 61.968 758.888 61.968C757.736 61.968 757.064 62.496 757.064 63.384C757.064 64.056 757.592 64.488 758.6 64.728L760.736 65.232C762.728 65.688 763.736 66.6 763.736 68.424C763.736 70.824 761.696 72.312 758.768 72.312C755.816 72.312 753.944 70.728 753.944 68.4Z" fill="#11151A"/>
<path d="M683.656 123.216H679.816V120.456H686.608V138H683.656V123.216ZM695.478 138.288C691.806 138.288 689.382 135.936 689.382 132.384H692.43C692.43 134.376 693.606 135.552 695.55 135.552C697.614 135.552 698.934 134.208 698.934 132.072C698.934 130.032 697.71 128.64 695.598 128.64C694.254 128.64 693.03 129.312 692.406 130.224L689.694 129.648L691.854 120.456H700.998V123.288H694.062L693.126 126.936C693.966 126.384 695.022 126.072 696.222 126.072C699.726 126.072 702.054 128.448 702.054 131.904C702.054 135.696 699.39 138.288 695.478 138.288Z" fill="#11151A"/>
<path d="M682.168 94.144C680.464 94.144 679.432 92.872 679.432 91.084C679.432 89.284 680.476 87.964 682.216 87.964C683.116 87.964 683.872 88.36 684.268 89.08V85.168H685.384V94H684.376L684.28 92.932C683.896 93.736 683.104 94.144 682.168 94.144ZM682.396 93.124C683.548 93.124 684.256 92.272 684.256 91.048C684.256 89.848 683.548 88.984 682.396 88.984C681.244 88.984 680.572 89.848 680.572 91.048C680.572 92.26 681.244 93.124 682.396 93.124ZM689.543 94.144C687.815 94.144 686.627 92.896 686.627 91.072C686.627 89.236 687.791 87.964 689.495 87.964C691.163 87.964 692.255 89.116 692.255 90.856V91.276L687.719 91.288C687.803 92.524 688.451 93.208 689.567 93.208C690.443 93.208 691.019 92.848 691.211 92.176H692.267C691.979 93.436 690.995 94.144 689.543 94.144ZM689.495 88.912C688.511 88.912 687.887 89.5 687.743 90.532H691.127C691.127 89.56 690.491 88.912 689.495 88.912ZM693.035 92.296H694.115C694.115 92.896 694.571 93.256 695.315 93.256C696.107 93.256 696.563 92.932 696.563 92.392C696.563 91.996 696.371 91.756 695.759 91.6L694.727 91.36C693.683 91.108 693.191 90.592 693.191 89.728C693.191 88.648 694.103 87.964 695.399 87.964C696.683 87.964 697.523 88.684 697.547 89.8H696.467C696.443 89.212 696.047 88.84 695.363 88.84C694.655 88.84 694.259 89.152 694.259 89.692C694.259 90.088 694.547 90.352 695.123 90.496L696.155 90.748C697.151 90.988 697.643 91.444 697.643 92.32C697.643 93.436 696.683 94.144 695.291 94.144C693.911 94.144 693.035 93.412 693.035 92.296ZM701.246 94.144C699.542 94.144 698.51 92.872 698.51 91.084C698.51 89.284 699.554 87.964 701.294 87.964C702.194 87.964 702.95 88.36 703.346 89.08V85.168H704.462V94H703.454L703.358 92.932C702.974 93.736 702.182 94.144 701.246 94.144ZM701.474 93.124C702.626 93.124 703.334 92.272 703.334 91.048C703.334 89.848 702.626 88.984 701.474 88.984C700.322 88.984 699.65 89.848 699.65 91.048C699.65 92.26 700.322 93.124 701.474 93.124ZM708.621 94.144C706.893 94.144 705.705 92.896 705.705 91.072C705.705 89.236 706.869 87.964 708.573 87.964C710.241 87.964 711.333 89.116 711.333 90.856V91.276L706.797 91.288C706.881 92.524 707.529 93.208 708.645 93.208C709.521 93.208 710.097 92.848 710.289 92.176H711.345C711.057 93.436 710.073 94.144 708.621 94.144ZM708.573 88.912C707.589 88.912 706.965 89.5 706.821 90.532H710.205C710.205 89.56 709.569 88.912 708.573 88.912ZM718.407 94.144C716.679 94.144 715.491 92.896 715.491 91.072C715.491 89.236 716.655 87.964 718.359 87.964C720.027 87.964 721.119 89.116 721.119 90.856V91.276L716.583 91.288C716.667 92.524 717.315 93.208 718.431 93.208C719.307 93.208 719.883 92.848 720.075 92.176H721.131C720.843 93.436 719.859 94.144 718.407 94.144ZM718.359 88.912C717.375 88.912 716.751 89.5 716.607 90.532H719.991C719.991 89.56 719.355 88.912 718.359 88.912ZM723.531 94H722.403V85.168H723.531V94ZM729.9 86.38H728.076V85.324H731.028V94H729.9V86.38ZM734.166 86.38H732.342V85.324H735.294V94H734.166V86.38ZM742.742 94.144C741.038 94.144 740.006 92.872 740.006 91.084C740.006 89.284 741.05 87.964 742.79 87.964C743.69 87.964 744.446 88.36 744.842 89.08V85.168H745.958V94H744.95L744.854 92.932C744.47 93.736 743.678 94.144 742.742 94.144ZM742.97 93.124C744.122 93.124 744.83 92.272 744.83 91.048C744.83 89.848 744.122 88.984 742.97 88.984C741.818 88.984 741.146 89.848 741.146 91.048C741.146 92.26 741.818 93.124 742.97 93.124ZM750.118 94.144C748.39 94.144 747.202 92.896 747.202 91.072C747.202 89.236 748.366 87.964 750.07 87.964C751.738 87.964 752.83 89.116 752.83 90.856V91.276L748.294 91.288C748.378 92.524 749.026 93.208 750.142 93.208C751.018 93.208 751.594 92.848 751.786 92.176H752.842C752.554 93.436 751.57 94.144 750.118 94.144ZM750.07 88.912C749.086 88.912 748.462 89.5 748.318 90.532H751.702C751.702 89.56 751.066 88.912 750.07 88.912ZM759.087 94.144C757.827 94.144 757.083 93.436 757.083 92.368C757.083 91.288 757.887 90.616 759.267 90.508L761.115 90.364V90.196C761.115 89.212 760.527 88.864 759.735 88.864C758.787 88.864 758.247 89.284 758.247 89.992H757.263C757.263 88.768 758.271 87.964 759.783 87.964C761.235 87.964 762.219 88.732 762.219 90.316V94H761.259L761.139 93.052C760.839 93.724 760.035 94.144 759.087 94.144ZM759.411 93.268C760.479 93.268 761.127 92.572 761.127 91.468V91.156L759.627 91.276C758.631 91.372 758.223 91.756 758.223 92.332C758.223 92.956 758.679 93.268 759.411 93.268ZM764.801 94H763.781V85.168H764.909V89.14C765.293 88.372 766.085 87.964 767.045 87.964C768.725 87.964 769.733 89.284 769.733 91.096C769.733 92.872 768.677 94.144 766.973 94.144C766.049 94.144 765.269 93.736 764.885 92.932L764.801 94ZM764.921 91.048C764.921 92.272 765.617 93.124 766.769 93.124C767.921 93.124 768.605 92.26 768.605 91.048C768.605 89.848 767.921 88.984 766.769 88.984C765.617 88.984 764.921 89.848 764.921 91.048ZM774.336 88.084V89.116H773.832C772.764 89.116 772.104 89.764 772.104 90.892V94H770.976V88.144H772.032L772.104 89.032C772.344 88.42 772.932 88.012 773.736 88.012C773.94 88.012 774.108 88.036 774.336 88.084ZM775.946 86.74C775.538 86.74 775.202 86.404 775.202 85.996C775.202 85.576 775.538 85.252 775.946 85.252C776.354 85.252 776.69 85.576 776.69 85.996C776.69 86.404 776.354 86.74 775.946 86.74ZM775.394 94V88.132H776.522V94H775.394ZM779.312 94H778.184V85.168H779.312V94ZM786.605 94.144C784.902 94.144 783.87 92.872 783.87 91.084C783.87 89.284 784.914 87.964 786.654 87.964C787.554 87.964 788.31 88.36 788.706 89.08V85.168H789.822V94H788.814L788.718 92.932C788.334 93.736 787.542 94.144 786.605 94.144ZM786.834 93.124C787.986 93.124 788.694 92.272 788.694 91.048C788.694 89.848 787.986 88.984 786.834 88.984C785.682 88.984 785.01 89.848 785.01 91.048C785.01 92.26 785.682 93.124 786.834 93.124ZM793.981 94.144C792.253 94.144 791.065 92.896 791.065 91.072C791.065 89.236 792.229 87.964 793.933 87.964C795.601 87.964 796.693 89.116 796.693 90.856V91.276L792.157 91.288C792.241 92.524 792.889 93.208 794.005 93.208C794.881 93.208 795.457 92.848 795.649 92.176H796.705C796.417 93.436 795.433 94.144 793.981 94.144ZM793.933 88.912C792.949 88.912 792.325 89.5 792.181 90.532H795.565C795.565 89.56 794.929 88.912 793.933 88.912ZM806.826 93.988L800.97 94V93.1L803.766 90.688C805.17 89.476 805.566 88.888 805.566 87.964C805.566 86.872 804.942 86.224 803.898 86.224C802.83 86.224 802.134 87.004 802.11 88.24H800.934C800.97 86.38 802.146 85.168 803.91 85.168C805.65 85.168 806.766 86.224 806.766 87.892C806.766 89.128 806.154 90.004 804.618 91.336L802.818 92.896H806.826V93.988ZM807.908 89.668C807.908 86.98 809.3 85.156 811.484 85.156C813.656 85.156 815.048 86.98 815.048 89.668C815.048 92.368 813.716 94.156 811.484 94.156C809.24 94.156 807.908 92.368 807.908 89.668ZM809.072 89.668C809.072 91.804 809.96 93.1 811.484 93.1C813.008 93.1 813.884 91.804 813.884 89.668C813.884 87.508 813.008 86.212 811.484 86.212C809.96 86.212 809.072 87.508 809.072 89.668ZM822.049 93.988L816.193 94V93.1L818.989 90.688C820.393 89.476 820.789 88.888 820.789 87.964C820.789 86.872 820.165 86.224 819.121 86.224C818.053 86.224 817.357 87.004 817.333 88.24H816.157C816.193 86.38 817.369 85.168 819.133 85.168C820.873 85.168 821.989 86.224 821.989 87.892C821.989 89.128 821.377 90.004 819.841 91.336L818.041 92.896H822.049V93.988ZM828.998 93.988L823.142 94V93.1L825.938 90.688C827.342 89.476 827.738 88.888 827.738 87.964C827.738 86.872 827.114 86.224 826.07 86.224C825.002 86.224 824.306 87.004 824.282 88.24H823.106C823.142 86.38 824.318 85.168 826.082 85.168C827.822 85.168 828.938 86.224 828.938 87.892C828.938 89.128 828.326 90.004 826.79 91.336L824.99 92.896H828.998V93.988Z" fill="#4B5563"/>
<path d="M679.432 157.072C679.432 155.236 680.596 153.964 682.312 153.964C683.788 153.964 684.82 154.804 685.024 156.112H683.896C683.704 155.368 683.104 154.972 682.348 154.972C681.28 154.972 680.548 155.788 680.548 157.06C680.548 158.32 681.232 159.136 682.3 159.136C683.104 159.136 683.704 158.716 683.908 158.02H685.036C684.808 159.292 683.716 160.144 682.3 160.144C680.572 160.144 679.432 158.92 679.432 157.072ZM685.842 157.06C685.842 155.248 687.138 153.976 688.902 153.976C690.654 153.976 691.95 155.248 691.95 157.06C691.95 158.872 690.654 160.144 688.902 160.144C687.138 160.144 685.842 158.872 685.842 157.06ZM686.982 157.06C686.982 158.284 687.762 159.136 688.902 159.136C690.03 159.136 690.822 158.284 690.822 157.06C690.822 155.836 690.03 154.984 688.902 154.984C687.762 154.984 686.982 155.836 686.982 157.06ZM694.327 160H693.199V154.132H694.207L694.315 154.9C694.615 154.348 695.239 153.964 696.067 153.964C696.979 153.964 697.627 154.42 697.927 155.152C698.203 154.42 698.911 153.964 699.823 153.964C701.167 153.964 701.983 154.804 701.983 156.16V160H700.879V156.436C700.879 155.512 700.363 154.984 699.571 154.984C698.719 154.984 698.155 155.584 698.155 156.52V160H697.039V156.424C697.039 155.5 696.535 154.996 695.743 154.996C694.891 154.996 694.327 155.584 694.327 156.52V160ZM706.078 160.144C704.35 160.144 703.162 158.896 703.162 157.072C703.162 155.236 704.326 153.964 706.03 153.964C707.698 153.964 708.79 155.116 708.79 156.856V157.276L704.254 157.288C704.338 158.524 704.986 159.208 706.102 159.208C706.978 159.208 707.554 158.848 707.746 158.176H708.802C708.514 159.436 707.53 160.144 706.078 160.144ZM706.03 154.912C705.046 154.912 704.422 155.5 704.278 156.532H707.662C707.662 155.56 707.026 154.912 706.03 154.912ZM711.178 160H710.05V154.132H711.07L711.19 155.032C711.562 154.36 712.306 153.964 713.134 153.964C714.682 153.964 715.39 154.912 715.39 156.412V160H714.262V156.664C714.262 155.476 713.71 154.996 712.846 154.996C711.79 154.996 711.178 155.752 711.178 156.892V160ZM718.609 160H717.481V155.08H716.329V154.132H717.481V152.296H718.609V154.132H719.761V155.08H718.609V160ZM722.419 160.144C721.159 160.144 720.415 159.436 720.415 158.368C720.415 157.288 721.219 156.616 722.599 156.508L724.447 156.364V156.196C724.447 155.212 723.859 154.864 723.067 154.864C722.119 154.864 721.579 155.284 721.579 155.992H720.595C720.595 154.768 721.603 153.964 723.115 153.964C724.567 153.964 725.551 154.732 725.551 156.316V160H724.591L724.471 159.052C724.171 159.724 723.367 160.144 722.419 160.144ZM722.743 159.268C723.811 159.268 724.459 158.572 724.459 157.468V157.156L722.959 157.276C721.963 157.372 721.555 157.756 721.555 158.332C721.555 158.956 722.011 159.268 722.743 159.268ZM730.473 154.084V155.116H729.969C728.901 155.116 728.241 155.764 728.241 156.892V160H727.113V154.144H728.169L728.241 155.032C728.481 154.42 729.069 154.012 729.873 154.012C730.077 154.012 730.245 154.036 730.473 154.084ZM732.083 152.74C731.675 152.74 731.339 152.404 731.339 151.996C731.339 151.576 731.675 151.252 732.083 151.252C732.491 151.252 732.827 151.576 732.827 151.996C732.827 152.404 732.491 152.74 732.083 152.74ZM731.531 160V154.132H732.659V160H731.531ZM733.912 157.06C733.912 155.248 735.208 153.976 736.972 153.976C738.724 153.976 740.02 155.248 740.02 157.06C740.02 158.872 738.724 160.144 736.972 160.144C735.208 160.144 733.912 158.872 733.912 157.06ZM735.052 157.06C735.052 158.284 735.832 159.136 736.972 159.136C738.1 159.136 738.892 158.284 738.892 157.06C738.892 155.836 738.1 154.984 736.972 154.984C735.832 154.984 735.052 155.836 735.052 157.06ZM740.789 158.296H741.869C741.869 158.896 742.325 159.256 743.069 159.256C743.861 159.256 744.317 158.932 744.317 158.392C744.317 157.996 744.125 157.756 743.513 157.6L742.481 157.36C741.437 157.108 740.945 156.592 740.945 155.728C740.945 154.648 741.857 153.964 743.153 153.964C744.437 153.964 745.277 154.684 745.301 155.8H744.221C744.197 155.212 743.801 154.84 743.117 154.84C742.409 154.84 742.013 155.152 742.013 155.692C742.013 156.088 742.301 156.352 742.877 156.496L743.909 156.748C744.905 156.988 745.397 157.444 745.397 158.32C745.397 159.436 744.437 160.144 743.045 160.144C741.665 160.144 740.789 159.412 740.789 158.296Z" fill="#4B5563"/>
<path d="M680.008 199.032C680.008 196.944 681.184 195.264 683.008 194.568C681.472 193.872 680.632 192.552 680.632 190.848C680.632 188.064 683.104 186.144 686.728 186.144C690.328 186.144 692.752 188.04 692.752 190.896C692.752 192.6 691.888 193.92 690.328 194.568C692.176 195.216 693.376 196.92 693.376 199.032C693.376 202.2 690.76 204.288 686.68 204.288C682.624 204.288 680.008 202.224 680.008 199.032ZM683.416 191.112C683.416 192.576 684.688 193.512 686.68 193.512C688.648 193.512 689.896 192.6 689.896 191.136C689.896 189.672 688.648 188.76 686.68 188.76C684.688 188.76 683.416 189.672 683.416 191.112ZM683.008 198.816C683.008 200.52 684.424 201.576 686.704 201.576C688.936 201.576 690.352 200.52 690.352 198.816C690.352 197.112 688.936 196.056 686.68 196.056C684.424 196.056 683.008 197.112 683.008 198.816ZM695.407 195.264C695.407 189.816 698.335 186.12 702.823 186.12C707.311 186.12 710.263 189.816 710.263 195.264C710.263 200.688 707.479 204.312 702.823 204.312C698.167 204.312 695.407 200.688 695.407 195.264ZM698.431 195.264C698.431 199.32 700.063 201.6 702.823 201.6C705.607 201.6 707.239 199.32 707.239 195.264C707.239 191.112 705.607 188.832 702.823 188.832C700.063 188.832 698.431 191.112 698.431 195.264Z" fill="#11151A"/>
<path d="M679.816 228.628V220.132H680.836L680.92 221.188C681.316 220.384 682.108 219.964 683.044 219.964C684.724 219.964 685.768 221.224 685.768 223.024C685.768 224.812 684.784 226.156 683.044 226.156C682.108 226.156 681.328 225.76 680.944 225.04V228.628H679.816ZM680.956 223.072C680.956 224.272 681.652 225.136 682.804 225.136C683.956 225.136 684.64 224.272 684.64 223.072C684.64 221.86 683.956 220.996 682.804 220.996C681.652 220.996 680.956 221.848 680.956 223.072ZM690.927 220.132H692.043V226H691.035L690.915 225.112C690.579 225.724 689.799 226.144 688.935 226.144C687.567 226.144 686.799 225.22 686.799 223.78V220.132H687.927V223.408C687.927 224.668 688.467 225.148 689.331 225.148C690.363 225.148 690.927 224.488 690.927 223.228V220.132ZM694.807 226H693.679V220.132H694.699L694.819 221.032C695.191 220.36 695.935 219.964 696.763 219.964C698.311 219.964 699.019 220.912 699.019 222.412V226H697.891V222.664C697.891 221.476 697.339 220.996 696.475 220.996C695.419 220.996 694.807 221.752 694.807 222.892V226ZM702.238 226H701.11V221.08H699.958V220.132H701.11V218.296H702.238V220.132H703.39V221.08H702.238V226ZM703.959 223.06C703.959 221.248 705.255 219.976 707.019 219.976C708.771 219.976 710.067 221.248 710.067 223.06C710.067 224.872 708.771 226.144 707.019 226.144C705.255 226.144 703.959 224.872 703.959 223.06ZM705.099 223.06C705.099 224.284 705.879 225.136 707.019 225.136C708.147 225.136 708.939 224.284 708.939 223.06C708.939 221.836 708.147 220.984 707.019 220.984C705.879 220.984 705.099 221.836 705.099 223.06ZM710.836 224.296H711.916C711.916 224.896 712.372 225.256 713.116 225.256C713.908 225.256 714.364 224.932 714.364 224.392C714.364 223.996 714.172 223.756 713.56 223.6L712.528 223.36C711.484 223.108 710.992 222.592 710.992 221.728C710.992 220.648 711.904 219.964 713.2 219.964C714.484 219.964 715.324 220.684 715.348 221.8H714.268C714.244 221.212 713.848 220.84 713.164 220.84C712.456 220.84 712.06 221.152 712.06 221.692C712.06 222.088 712.348 222.352 712.924 222.496L713.956 222.748C714.952 222.988 715.444 223.444 715.444 224.32C715.444 225.436 714.484 226.144 713.092 226.144C711.712 226.144 710.836 225.412 710.836 224.296Z" fill="#4B5563"/>
<g clip-path="url(#clip2_1437_3336)">
<path d="M725.841 126.455L720.174 125.631L717.64 120.495C717.571 120.354 717.457 120.241 717.316 120.171C716.964 119.997 716.535 120.142 716.359 120.495L713.825 125.631L708.158 126.455C708.002 126.477 707.859 126.551 707.75 126.662C707.617 126.798 707.544 126.981 707.547 127.171C707.549 127.36 707.627 127.541 707.763 127.674L711.863 131.671L710.895 137.316C710.872 137.448 710.886 137.583 710.937 137.706C710.987 137.83 711.07 137.937 711.178 138.015C711.286 138.093 711.414 138.14 711.547 138.149C711.68 138.159 711.812 138.131 711.93 138.069L717 135.403L722.069 138.069C722.207 138.142 722.368 138.167 722.522 138.14C722.91 138.073 723.171 137.705 723.104 137.316L722.136 131.671L726.236 127.674C726.348 127.564 726.421 127.421 726.444 127.265C726.504 126.874 726.232 126.513 725.841 126.455Z" fill="#FFC166"/>
</g>
<rect x="529" y="46" width="102" height="40" rx="20" fill="#5158F6"/>
<path d="M542.083 63.582H557.927" stroke="white" stroke-linecap="round" stroke-linejoin="round"/>
<path d="M553.948 67.0547H553.957" stroke="white" stroke-linecap="round" stroke-linejoin="round"/>
<path d="M550.004 67.0547H550.013" stroke="white" stroke-linecap="round" stroke-linejoin="round"/>
<path d="M546.052 67.0547H546.061" stroke="white" stroke-linecap="round" stroke-linejoin="round"/>
<path d="M553.948 70.5078H553.957" stroke="white" stroke-linecap="round" stroke-linejoin="round"/>
<path d="M550.004 70.5078H550.013" stroke="white" stroke-linecap="round" stroke-linejoin="round"/>
<path d="M546.052 70.5078H546.061" stroke="white" stroke-linecap="round" stroke-linejoin="round"/>
<path d="M553.594 57V59.9253" stroke="white" stroke-linecap="round" stroke-linejoin="round"/>
<path d="M546.413 57V59.9253" stroke="white" stroke-linecap="round" stroke-linejoin="round"/>
<path fill-rule="evenodd" clip-rule="evenodd" d="M553.767 58.4023H546.241C543.63 58.4023 542 59.8565 542 62.5295V70.5736C542 73.2886 543.63 74.7764 546.241 74.7764H553.759C556.378 74.7764 558 73.3138 558 70.6408V62.5295C558.008 59.8565 556.386 58.4023 553.767 58.4023Z" stroke="white" stroke-linecap="round" stroke-linejoin="round"/>
<path d="M567.11 70.5H565.57L569.868 60.588H571.128L575.384 70.5H573.816L572.808 68.064H568.104L567.11 70.5ZM568.594 66.846H572.304L570.456 62.198L568.594 66.846ZM577.105 71.634C577.394 71.9607 577.754 72.222 578.183 72.418C578.622 72.614 579.07 72.712 579.527 72.712C579.966 72.712 580.334 72.6467 580.633 72.516C580.932 72.3947 581.17 72.222 581.347 71.998C581.534 71.7833 581.664 71.5267 581.739 71.228C581.823 70.9293 581.865 70.6073 581.865 70.262V69.408H581.837C581.594 69.7813 581.263 70.066 580.843 70.262C580.423 70.458 579.975 70.556 579.499 70.556C578.995 70.556 578.533 70.4673 578.113 70.29C577.702 70.1127 577.352 69.87 577.063 69.562C576.774 69.254 576.55 68.8947 576.391 68.484C576.232 68.064 576.153 67.616 576.153 67.14C576.153 66.664 576.232 66.216 576.391 65.796C576.55 65.376 576.774 65.012 577.063 64.704C577.352 64.3867 577.702 64.1393 578.113 63.962C578.524 63.7753 578.981 63.682 579.485 63.682C579.961 63.682 580.414 63.7847 580.843 63.99C581.282 64.1953 581.627 64.508 581.879 64.928H581.907V63.864H583.181V70.164C583.181 70.6493 583.12 71.1113 582.999 71.55C582.878 71.998 582.672 72.39 582.383 72.726C582.094 73.0713 581.716 73.3467 581.249 73.552C580.782 73.7573 580.204 73.86 579.513 73.86C578.934 73.86 578.351 73.7527 577.763 73.538C577.184 73.3327 576.685 73.0387 576.265 72.656L577.105 71.634ZM577.511 67.112C577.511 67.42 577.558 67.714 577.651 67.994C577.754 68.274 577.898 68.5213 578.085 68.736C578.281 68.9507 578.514 69.1233 578.785 69.254C579.056 69.3847 579.364 69.45 579.709 69.45C580.045 69.45 580.353 69.3893 580.633 69.268C580.913 69.1467 581.151 68.9833 581.347 68.778C581.543 68.5633 581.692 68.316 581.795 68.036C581.907 67.7467 581.963 67.4387 581.963 67.112C581.963 66.7947 581.907 66.496 581.795 66.216C581.692 65.936 581.538 65.6887 581.333 65.474C581.137 65.2593 580.899 65.0913 580.619 64.97C580.348 64.8393 580.045 64.774 579.709 64.774C579.364 64.774 579.056 64.8393 578.785 64.97C578.514 65.0913 578.281 65.2593 578.085 65.474C577.898 65.6793 577.754 65.9267 577.651 66.216C577.558 66.496 577.511 66.7947 577.511 67.112ZM590.291 66.594C590.281 66.3327 590.235 66.09 590.151 65.866C590.076 65.6327 589.959 65.432 589.801 65.264C589.651 65.096 589.46 64.9653 589.227 64.872C589.003 64.7693 588.737 64.718 588.429 64.718C588.149 64.718 587.883 64.7693 587.631 64.872C587.388 64.9653 587.173 65.096 586.987 65.264C586.809 65.432 586.66 65.6327 586.539 65.866C586.427 66.09 586.361 66.3327 586.343 66.594H590.291ZM591.621 67.126C591.621 67.2007 591.621 67.2753 591.621 67.35C591.621 67.4247 591.616 67.4993 591.607 67.574H586.343C586.352 67.854 586.413 68.12 586.525 68.372C586.646 68.6147 586.805 68.8293 587.001 69.016C587.197 69.1933 587.421 69.3333 587.673 69.436C587.934 69.5387 588.209 69.59 588.499 69.59C588.947 69.59 589.334 69.492 589.661 69.296C589.987 69.1 590.244 68.862 590.431 68.582L591.355 69.324C591 69.7907 590.58 70.136 590.095 70.36C589.619 70.5747 589.087 70.682 588.499 70.682C587.995 70.682 587.528 70.598 587.099 70.43C586.669 70.262 586.301 70.0287 585.993 69.73C585.685 69.422 585.442 69.0533 585.265 68.624C585.087 68.1947 584.999 67.7187 584.999 67.196C584.999 66.6827 585.083 66.2113 585.251 65.782C585.428 65.3433 585.671 64.97 585.979 64.662C586.287 64.354 586.651 64.116 587.071 63.948C587.491 63.7707 587.943 63.682 588.429 63.682C588.914 63.682 589.353 63.7613 589.745 63.92C590.146 64.0787 590.482 64.3073 590.753 64.606C591.033 64.9047 591.247 65.2687 591.397 65.698C591.546 66.118 591.621 66.594 591.621 67.126ZM594.648 63.864C594.667 64.032 594.681 64.2233 594.69 64.438C594.7 64.6433 594.704 64.816 594.704 64.956H594.746C594.83 64.7787 594.942 64.6153 595.082 64.466C595.232 64.3073 595.4 64.172 595.586 64.06C595.773 63.9387 595.978 63.8453 596.202 63.78C596.426 63.7147 596.66 63.682 596.902 63.682C597.332 63.682 597.7 63.7567 598.008 63.906C598.316 64.046 598.573 64.2373 598.778 64.48C598.984 64.7227 599.133 65.0073 599.226 65.334C599.329 65.6607 599.38 66.0107 599.38 66.384V70.5H598.064V66.818C598.064 66.5473 598.041 66.2907 597.994 66.048C597.957 65.8053 597.882 65.5907 597.77 65.404C597.658 65.2173 597.504 65.068 597.308 64.956C597.112 64.844 596.86 64.788 596.552 64.788C596.03 64.788 595.6 64.9887 595.264 65.39C594.938 65.782 594.774 66.3093 594.774 66.972V70.5H593.458V65.292C593.458 65.1147 593.454 64.886 593.444 64.606C593.435 64.326 593.421 64.0787 593.402 63.864H594.648ZM606.899 69.45C606.647 69.8513 606.301 70.1593 605.863 70.374C605.433 70.5793 604.981 70.682 604.505 70.682C603.991 70.682 603.529 70.5933 603.119 70.416C602.708 70.2293 602.358 69.9773 602.069 69.66C601.779 69.3427 601.555 68.9693 601.397 68.54C601.238 68.1107 601.159 67.6533 601.159 67.168C601.159 66.6827 601.238 66.23 601.397 65.81C601.555 65.3807 601.779 65.0073 602.069 64.69C602.367 64.3727 602.722 64.1253 603.133 63.948C603.543 63.7707 603.996 63.682 604.491 63.682C605.032 63.682 605.503 63.7987 605.905 64.032C606.306 64.256 606.623 64.5313 606.857 64.858H606.885V59.916H608.201V70.5H606.927V69.45H606.899ZM602.531 67.168C602.531 67.476 602.577 67.7747 602.671 68.064C602.764 68.3533 602.904 68.61 603.091 68.834C603.277 69.058 603.506 69.24 603.777 69.38C604.047 69.5107 604.365 69.576 604.729 69.576C605.065 69.576 605.368 69.5107 605.639 69.38C605.919 69.2493 606.157 69.0767 606.353 68.862C606.549 68.638 606.698 68.3813 606.801 68.092C606.913 67.8027 606.969 67.4993 606.969 67.182C606.969 66.8647 606.913 66.5613 606.801 66.272C606.698 65.9827 606.549 65.726 606.353 65.502C606.157 65.278 605.919 65.1007 605.639 64.97C605.368 64.8393 605.065 64.774 604.729 64.774C604.365 64.774 604.047 64.8393 603.777 64.97C603.506 65.1007 603.277 65.278 603.091 65.502C602.904 65.726 602.764 65.9827 602.671 66.272C602.577 66.5613 602.531 66.86 602.531 67.168ZM614.623 66.202C614.623 65.7073 614.474 65.3433 614.175 65.11C613.877 64.8673 613.48 64.746 612.985 64.746C612.612 64.746 612.257 64.8207 611.921 64.97C611.595 65.11 611.319 65.292 611.095 65.516L610.395 64.676C610.722 64.368 611.119 64.1253 611.585 63.948C612.061 63.7707 612.57 63.682 613.111 63.682C613.587 63.682 613.998 63.752 614.343 63.892C614.698 64.0227 614.987 64.2047 615.211 64.438C615.435 64.6713 615.603 64.9467 615.715 65.264C615.827 65.5813 615.883 65.922 615.883 66.286V69.184C615.883 69.408 615.888 69.646 615.897 69.898C615.916 70.1407 615.944 70.3413 615.981 70.5H614.791C614.717 70.1827 614.679 69.8653 614.679 69.548H614.637C614.395 69.9027 614.087 70.178 613.713 70.374C613.349 70.57 612.915 70.668 612.411 70.668C612.15 70.668 611.875 70.6307 611.585 70.556C611.305 70.4907 611.049 70.3787 610.815 70.22C610.582 70.0613 610.386 69.8513 610.227 69.59C610.078 69.3287 610.003 69.0067 610.003 68.624C610.003 68.12 610.139 67.7233 610.409 67.434C610.68 67.1353 611.035 66.9113 611.473 66.762C611.912 66.6033 612.407 66.5007 612.957 66.454C613.508 66.4073 614.063 66.384 614.623 66.384V66.202ZM614.301 67.336C613.975 67.336 613.634 67.35 613.279 67.378C612.934 67.406 612.617 67.462 612.327 67.546C612.047 67.63 611.814 67.756 611.627 67.924C611.441 68.092 611.347 68.316 611.347 68.596C611.347 68.792 611.385 68.9553 611.459 69.086C611.543 69.2167 611.651 69.324 611.781 69.408C611.912 69.492 612.057 69.5527 612.215 69.59C612.374 69.618 612.537 69.632 612.705 69.632C613.321 69.632 613.793 69.45 614.119 69.086C614.455 68.7127 614.623 68.246 614.623 67.686V67.336H614.301ZM618.081 65.292C618.081 65.1147 618.077 64.886 618.067 64.606C618.058 64.326 618.044 64.0787 618.025 63.864H619.271C619.29 64.032 619.304 64.228 619.313 64.452C619.323 64.6667 619.327 64.844 619.327 64.984H619.369C619.556 64.592 619.827 64.2793 620.181 64.046C620.545 63.8033 620.951 63.682 621.399 63.682C621.605 63.682 621.777 63.7007 621.917 63.738L621.861 64.956C621.675 64.9093 621.474 64.886 621.259 64.886C620.942 64.886 620.667 64.9467 620.433 65.068C620.2 65.18 620.004 65.334 619.845 65.53C619.696 65.726 619.584 65.9547 619.509 66.216C619.435 66.468 619.397 66.734 619.397 67.014V70.5H618.081V65.292Z" fill="white"/>
<circle cx="497" cy="66" r="19.5" stroke="#E7E7E7" stroke-opacity="0.7"/>
<circle cx="445" cy="66" r="19.5" stroke="#E7E7E7" stroke-opacity="0.7"/>
<circle cx="393" cy="66" r="19.5" stroke="#E7E7E7" stroke-opacity="0.7"/>
<g clip-path="url(#clip3_1437_3336)">
<path d="M451.711 58.9063C449.988 57.1836 447.695 56.2344 445.258 56.2344C442.82 56.2344 440.527 57.1836 438.801 58.9063C437.078 60.6289 436.129 62.9219 436.129 65.3594C436.129 67.2539 436.699 69.0586 437.781 70.5977L435.652 75.207C435.582 75.3555 435.613 75.5312 435.731 75.6484C435.805 75.7227 435.906 75.7617 436.008 75.7617C436.063 75.7617 436.117 75.75 436.172 75.7266L441.063 73.4688C442.352 74.1367 443.797 74.4883 445.262 74.4883C447.699 74.4883 449.992 73.5391 451.715 71.8164C453.438 70.0937 454.387 67.8008 454.387 65.3633C454.387 62.9258 453.438 60.6328 451.711 58.9063ZM445.258 73.7109C443.859 73.7109 442.477 73.3594 441.262 72.6914C441.152 72.6328 441.024 72.6289 440.91 72.6797L436.809 74.5742L438.59 70.7227C438.649 70.5937 438.633 70.4414 438.551 70.3281C437.481 68.8828 436.914 67.168 436.914 65.3672C436.91 60.7617 440.652 57.0156 445.258 57.0156C449.859 57.0156 453.606 60.7617 453.606 65.3633C453.606 69.9648 449.859 73.7109 445.258 73.7109Z" fill="#4B5563"/>
<path d="M448.668 66.6562C448.606 66.6445 448.543 66.6328 448.477 66.625C448.16 66.5859 447.801 66.543 447.422 66.707C447.192 66.8047 446.942 66.9922 446.723 67.2227C446.324 67.043 445.977 66.8437 445.684 66.6367C445.344 66.3945 445.074 66.1367 444.879 65.8672C444.871 65.8555 444.86 65.8437 444.852 65.832C444.43 65.3711 444.114 64.6641 443.906 63.7305C444.176 63.5664 444.41 63.3633 444.555 63.1562C444.789 62.8203 444.824 62.4609 444.852 62.1406C444.856 62.0781 444.86 62.0117 444.86 61.9492C444.86 61.1563 444.551 60.4648 444.039 60.1055C443.645 59.8281 443.125 59.8281 442.75 59.8281H442.739C442.43 59.8281 442.129 59.8945 441.848 60.0234C441.508 60.1797 441.215 60.4219 441.004 60.7266C440.789 61.0313 440.656 61.3867 440.625 61.7578C440.543 62.6445 440.645 63.5117 440.922 64.3398C441.215 65.2109 441.715 66.5 442.656 67.6094C443.34 68.4961 444.274 69.2852 445.504 70.0156C446.258 70.4609 447.086 70.7422 447.965 70.8477C448.051 70.8594 448.137 70.8633 448.223 70.8633C448.508 70.8633 448.793 70.8047 449.055 70.6914C449.399 70.5469 449.696 70.3086 449.918 70.0117C450.102 69.7695 450.235 69.4805 450.297 69.1797L450.301 69.168C450.379 68.8008 450.489 68.293 450.297 67.8477C450.051 67.2656 449.442 66.8203 448.668 66.6562ZM449.535 69L449.531 69.0117C449.492 69.1992 449.41 69.3828 449.293 69.5352C449.153 69.7227 448.961 69.8711 448.746 69.9648C448.531 70.0586 448.293 70.0898 448.059 70.0625C447.285 69.9687 446.559 69.7227 445.903 69.3359C444.754 68.6562 443.895 67.9297 443.27 67.1172C443.266 67.1133 443.262 67.1055 443.258 67.1016C442.399 66.0938 441.938 64.8945 441.664 64.082C441.418 63.3555 441.332 62.5977 441.403 61.8203C441.422 61.5859 441.508 61.3594 441.641 61.168C441.778 60.9766 441.961 60.8242 442.176 60.7227C442.356 60.6406 442.543 60.5977 442.739 60.5977H442.754C442.758 60.5977 442.762 60.5977 442.766 60.5977C443.051 60.5977 443.403 60.6016 443.59 60.7344C443.953 60.9883 444.078 61.543 444.078 61.9414C444.078 61.9805 444.078 62.0234 444.074 62.0625C444.047 62.3555 444.028 62.5391 443.914 62.6953C443.801 62.8555 443.559 63.0391 443.297 63.1602C443.133 63.2344 443.043 63.4102 443.078 63.5859C443.305 64.793 443.699 65.7148 444.254 66.332C444.496 66.668 444.824 66.9805 445.227 67.2656C445.629 67.5508 446.117 67.8164 446.68 68.0508C446.844 68.1211 447.035 68.0664 447.141 67.9258C447.313 67.6953 447.539 67.5 447.723 67.4219C447.899 67.3477 448.086 67.3633 448.375 67.3984C448.418 67.4023 448.457 67.4102 448.496 67.418C448.883 67.5 449.399 67.7422 449.574 68.1484C449.672 68.3672 449.598 68.7187 449.535 69Z" fill="#4B5563"/>
</g>
<path d="M392.542 57.8224C391.443 57.821 390.348 57.698 389.249 57.6846C388.667 57.6774 388.088 57.7086 387.511 57.7945C387.038 57.8651 386.56 58.0248 386.156 58.2858C385.799 58.5162 385.499 58.8291 385.296 59.2033C385.111 59.5457 385.002 59.9233 384.941 60.306C384.872 60.7369 384.843 61.1714 384.823 61.6069C384.801 62.0889 384.759 62.5692 384.723 63.0504C384.557 65.2492 384.431 67.4687 384.63 69.6697C384.68 70.2346 384.754 70.7988 384.858 71.3566C384.932 71.7578 385.012 72.1497 385.199 72.5155C385.481 73.065 386 73.4769 386.55 73.7363C387.175 74.0313 387.846 74.1899 388.529 74.2831C389.299 74.3882 390.072 74.4293 390.848 74.435C391.568 74.4403 392.288 74.4178 393.008 74.3955C393.591 74.3774 394.176 74.3533 394.759 74.3745C395.181 74.3898 395.602 74.4125 396.024 74.4084C396.593 74.403 397.158 74.3579 397.722 74.2777C398.226 74.2059 398.727 74.0908 399.202 73.9056C399.677 73.7205 400.122 73.4872 400.465 73.1009C401.087 72.4007 401.337 71.4612 401.475 70.5562C401.549 70.0757 401.597 69.5922 401.642 69.1084C401.665 68.8605 401.682 68.6185 401.682 68.3693C401.682 68.0437 401.682 67.7182 401.682 67.3927C401.682 66.8849 401.682 66.3771 401.682 65.8693C401.682 65.5712 401.434 65.3224 401.135 65.3224C400.837 65.3224 400.589 65.5712 400.589 65.8693C400.589 66.7156 400.589 67.562 400.589 68.4083C400.589 68.713 400.557 69.0126 400.529 69.3158C400.501 69.6096 400.471 69.9032 400.432 70.1958C400.438 70.1474 400.445 70.0989 400.451 70.0504C400.392 70.492 400.313 70.9319 400.182 71.3585C400.152 71.4565 400.119 71.5534 400.082 71.6492C400.066 71.6935 399.991 71.8688 400.071 71.6815C400.049 71.7347 400.024 71.787 399.999 71.839C399.956 71.9264 399.909 72.0114 399.858 72.0945C399.833 72.1353 399.807 72.1752 399.78 72.2146C399.767 72.2342 399.753 72.2535 399.739 72.2727C399.661 72.3805 399.809 72.1851 399.752 72.2556C399.694 72.3289 399.629 72.3976 399.562 72.463C399.528 72.4956 399.493 72.5266 399.457 72.5569C399.427 72.583 399.35 72.6415 399.494 72.5301C399.469 72.5493 399.444 72.5676 399.418 72.5857C399.332 72.6453 399.241 72.6948 399.148 72.7421C399.097 72.768 399.046 72.7922 398.994 72.8159C398.968 72.8279 398.941 72.8394 398.915 72.8508C399.082 72.778 398.948 72.8363 398.911 72.8509C398.437 73.039 397.934 73.1496 397.431 73.223C397.4 73.2276 397.368 73.2318 397.337 73.2361C397.385 73.2296 397.434 73.2231 397.482 73.2166C396.957 73.2859 396.428 73.3138 395.899 73.3155C395.499 73.3169 395.101 73.2914 394.702 73.2788C394.11 73.2603 393.518 73.2859 392.927 73.3043C391.518 73.348 390.096 73.3974 388.695 73.2117C388.744 73.2182 388.792 73.2248 388.841 73.2313C388.504 73.186 388.17 73.126 387.842 73.0417C387.688 73.0024 387.537 72.9569 387.387 72.9052C387.318 72.8813 387.25 72.8556 387.182 72.8285C387.166 72.8219 387.149 72.8151 387.133 72.8082C387.316 72.8841 387.238 72.8529 387.198 72.8355C387.16 72.8191 387.123 72.802 387.086 72.7846C386.958 72.7243 386.834 72.656 386.716 72.5799C386.661 72.5447 386.607 72.5073 386.555 72.4683C386.491 72.4203 386.678 72.5641 386.615 72.5146C386.602 72.5047 386.59 72.4947 386.578 72.4845C386.549 72.4612 386.521 72.4368 386.494 72.4121C386.447 72.3703 386.403 72.3261 386.361 72.2804C386.339 72.2578 386.319 72.2345 386.299 72.2109C386.289 72.1991 386.279 72.1872 386.269 72.1752C386.202 72.0929 386.355 72.288 386.308 72.225C386.23 72.1219 386.164 72.0102 386.109 71.8935C386.089 71.8507 386.051 71.7581 386.133 71.9523C386.125 71.9328 386.117 71.9131 386.109 71.8934C386.094 71.8534 386.081 71.8128 386.068 71.7719C386.027 71.6394 386.001 71.502 385.972 71.3665C385.899 71.0214 385.841 70.6732 385.794 70.3237C385.8 70.3722 385.807 70.4206 385.813 70.4691C385.519 68.2759 385.611 66.0427 385.76 63.8418C385.801 63.2348 385.849 62.6282 385.896 62.0216C385.934 61.5423 385.933 61.0619 385.996 60.5842C385.989 60.6326 385.983 60.6811 385.976 60.7296C386.013 60.4606 386.066 60.1939 386.158 59.9378C386.167 59.9122 386.177 59.8869 386.186 59.8616C386.233 59.7439 386.127 59.9958 386.179 59.8809C386.206 59.8202 386.237 59.761 386.27 59.7031C386.299 59.651 386.332 59.6007 386.366 59.5516C386.393 59.5125 386.479 59.4049 386.352 59.566C386.373 59.5395 386.395 59.514 386.417 59.4887C386.458 59.4423 386.501 59.3987 386.546 59.3566C386.572 59.3326 386.598 59.3097 386.625 59.2871C386.724 59.2041 386.512 59.3706 386.617 59.2932C386.734 59.2063 386.862 59.1338 386.994 59.0705C387.024 59.0561 387.055 59.0427 387.085 59.0294C386.904 59.1085 387.056 59.0427 387.099 59.0268C387.184 58.9945 387.272 58.9669 387.36 58.9414C387.545 58.8878 387.735 58.8574 387.925 58.8317C387.877 58.8382 387.829 58.8447 387.78 58.8512C389.363 58.6456 390.956 58.9142 392.542 58.9162C392.84 58.9166 393.089 58.6672 393.089 58.3693C393.089 58.0709 392.84 57.8228 392.542 57.8224Z" fill="#4B5563"/>
<path d="M398.163 58.0146C398.135 58.0671 398.105 58.1173 398.072 58.1664C398.055 58.1923 398.036 58.2171 398.018 58.242C398.115 58.1116 398.045 58.2049 398.023 58.2316C397.93 58.3431 397.827 58.4467 397.724 58.5491C397.516 58.7566 397.301 58.9581 397.092 59.1656C396.655 59.6003 396.235 60.0519 395.795 60.4836C395.353 60.9176 394.904 61.3426 394.476 61.7923C394.062 62.2281 393.675 62.6896 393.253 63.1173C392.684 63.6931 392.068 64.2243 391.582 64.8753C391.409 65.1058 391.25 65.3516 391.189 65.638C391.122 65.9554 391.155 66.2771 391.113 66.5963C391.12 66.5478 391.126 66.4994 391.133 66.4509C391.077 66.8542 390.982 67.257 390.979 67.6656C390.977 67.858 391.084 68.0409 391.249 68.1378C391.45 68.2553 391.753 68.2361 391.912 68.0523C391.944 68.0152 392.004 67.9916 391.832 68.1114C391.842 68.1039 391.855 68.0981 391.866 68.0923C391.66 68.1918 391.794 68.1232 391.861 68.1064C391.965 68.0801 392.072 68.0655 392.179 68.0511C392.13 68.0576 392.082 68.0641 392.033 68.0706C392.517 68.006 393.005 67.9651 393.484 67.8685C393.594 67.8463 393.703 67.82 393.811 67.7897C393.925 67.7576 394.071 67.7233 394.166 67.6545C394.279 67.5725 394.387 67.4826 394.493 67.3916C395.089 66.8805 395.661 66.34 396.228 65.7969C396.571 65.4676 396.904 65.1294 397.223 64.7763C397.634 64.3218 398.031 63.8547 398.461 63.418C398.678 63.1977 398.903 62.9859 399.117 62.7626C399.321 62.5491 399.523 62.332 399.726 62.1173C399.937 61.8951 400.151 61.6764 400.372 61.4647C400.535 61.3082 400.712 61.1668 400.872 61.0066C401.07 60.8083 401.243 60.5871 401.412 60.3634C401.55 60.1806 401.496 59.8458 401.326 59.7007C400.617 59.0935 399.881 58.5181 399.178 57.9039C398.953 57.7079 398.626 57.6825 398.404 57.9039C398.204 58.1039 398.18 58.481 398.404 58.6773C399.107 59.2915 399.844 59.8669 400.553 60.4741C400.524 60.2532 400.496 60.0323 400.467 59.8114C400.45 59.8345 400.368 59.94 400.462 59.8195C400.44 59.8469 400.418 59.8739 400.396 59.901C400.356 59.9506 400.315 59.999 400.273 60.047C400.193 60.1374 400.11 60.2237 400.023 60.3072C399.849 60.4751 399.662 60.6282 399.489 60.7969C399.06 61.2151 398.66 61.6623 398.243 62.0929C398.027 62.3164 397.799 62.5281 397.583 62.7514C397.37 62.9719 397.164 63.2001 396.96 63.4293C396.576 63.8612 396.196 64.2961 395.785 64.7028C395.246 65.2349 394.69 65.7501 394.128 66.2568C393.937 66.4296 393.745 66.6051 393.543 66.7652C393.491 66.8064 393.687 66.6564 393.614 66.7101C393.55 66.7569 393.787 66.649 393.649 66.6954C393.545 66.7304 393.438 66.7583 393.332 66.7836C393.109 66.8362 392.883 66.8714 392.656 66.9022C392.705 66.8957 392.753 66.8891 392.802 66.8826C392.476 66.9262 392.149 66.9588 391.824 67.0053C391.589 67.0389 391.303 67.0895 391.139 67.2788C391.45 67.4077 391.761 67.5366 392.072 67.6655C392.073 67.5267 392.087 67.3889 392.106 67.2513C392.099 67.2998 392.093 67.3482 392.086 67.3967C392.126 67.1034 392.182 66.8128 392.216 66.5186C392.242 66.3009 392.221 66.0809 392.25 65.8631C392.243 65.9115 392.237 65.96 392.23 66.0084C392.241 65.9314 392.258 65.8564 392.285 65.783C392.314 65.7015 392.223 65.9236 392.258 65.8439C392.266 65.8262 392.275 65.8088 392.284 65.7915C392.306 65.7475 392.332 65.7053 392.359 65.6637C392.385 65.6223 392.414 65.5821 392.442 65.5421C392.466 65.5083 392.588 65.3481 392.479 65.4871C392.569 65.3727 392.664 65.2627 392.762 65.1548C393.153 64.7206 393.589 64.3294 394.002 63.9157C394.425 63.4904 394.812 63.0289 395.224 62.5926C395.65 62.1419 396.098 61.7152 396.542 61.2829C396.993 60.8443 397.42 60.383 397.866 59.939C398.082 59.7232 398.305 59.5141 398.522 59.2986C398.741 59.0806 398.964 58.843 399.107 58.5665C399.244 58.3017 399.178 57.9747 398.911 57.8183C398.664 57.6737 398.299 57.7499 398.163 58.0146Z" fill="#4B5563"/>
<path d="M506.28 59.8984H493.243C492.753 59.899 492.283 60.0939 491.937 60.4404C491.59 60.7869 491.395 61.2567 491.395 61.7468V70.2516C491.395 70.7416 491.59 71.2114 491.937 71.5579C492.283 71.9045 492.753 72.0994 493.243 72.0999H506.28C506.77 72.0994 507.24 71.9045 507.586 71.5579C507.933 71.2114 508.127 70.7416 508.128 70.2516V61.7467C508.127 61.2567 507.933 60.7869 507.586 60.4404C507.24 60.0939 506.77 59.899 506.28 59.8984ZM503.424 65.9944L507.191 63.0463V69.651L503.424 65.9944ZM493.243 60.8359H506.28C506.521 60.8362 506.753 60.9323 506.923 61.103C507.094 61.2738 507.19 61.5053 507.191 61.7468V61.856L500.602 67.0123C500.381 67.1848 500.108 67.2783 499.828 67.2779C499.548 67.2775 499.275 67.1831 499.055 67.0099L492.332 61.8562V61.7467C492.333 61.5052 492.429 61.2737 492.6 61.103C492.77 60.9323 493.002 60.8362 493.243 60.8359ZM496.199 66.0016L492.332 69.6374V63.0374L496.199 66.0016ZM506.28 71.1625H493.243C493.096 71.1624 492.952 71.1267 492.821 71.0585C492.691 70.9903 492.58 70.8916 492.496 70.7708L496.953 66.5796L498.481 67.7515C498.867 68.0524 499.342 68.2159 499.83 68.2158C500.319 68.2157 500.794 68.0521 501.179 67.7509L502.679 66.5776L507.015 70.7869C506.931 70.9031 506.82 70.9976 506.692 71.0628C506.565 71.1281 506.423 71.1624 506.28 71.1625ZM489.527 65.0209H488.478C488.354 65.0209 488.235 65.0703 488.147 65.1582C488.059 65.2461 488.009 65.3654 488.009 65.4897C488.009 65.614 488.059 65.7332 488.147 65.8211C488.235 65.9091 488.354 65.9584 488.478 65.9584H489.527C489.651 65.9584 489.77 65.9091 489.858 65.8211C489.946 65.7332 489.996 65.614 489.996 65.4897C489.996 65.3654 489.946 65.2461 489.858 65.1582C489.77 65.0703 489.651 65.0209 489.527 65.0209ZM489.527 67.587H486.34C486.216 67.587 486.096 67.6364 486.008 67.7243C485.92 67.8122 485.871 67.9314 485.871 68.0557C485.871 68.18 485.92 68.2993 486.008 68.3872C486.096 68.4751 486.216 68.5245 486.34 68.5245H489.527C489.651 68.5245 489.77 68.4751 489.858 68.3872C489.946 68.2993 489.996 68.18 489.996 68.0557C489.996 67.9314 489.946 67.8122 489.858 67.7243C489.77 67.6364 489.651 67.587 489.527 67.587ZM489.527 62.2411H486.809C486.684 62.2411 486.565 62.2905 486.477 62.3784C486.389 62.4663 486.34 62.5855 486.34 62.7099C486.34 62.8342 486.389 62.9534 486.477 63.0413C486.565 63.1292 486.684 63.1786 486.809 63.1786H489.527C489.651 63.1786 489.77 63.1292 489.858 63.0413C489.946 62.9534 489.996 62.8342 489.996 62.7099C489.996 62.5855 489.946 62.4663 489.858 62.3784C489.77 62.2905 489.651 62.2411 489.527 62.2411Z" fill="#4B5563"/>
<g clip-path="url(#clip4_1437_3336)">
<path d="M59.7503 194.082H61.8337C62.1652 194.082 62.4831 194.214 62.7175 194.448C62.952 194.683 63.0837 195.001 63.0837 195.332V210.332C63.0837 210.664 62.952 210.981 62.7175 211.216C62.4831 211.45 62.1652 211.582 61.8337 211.582H50.167C49.8355 211.582 49.5175 211.45 49.2831 211.216C49.0487 210.981 48.917 210.664 48.917 210.332V195.332C48.917 195.001 49.0487 194.683 49.2831 194.448C49.5175 194.214 49.8355 194.082 50.167 194.082H52.2503" stroke="#4B5563" stroke-linecap="round" stroke-linejoin="round"/>
<path d="M57.4333 193.249C57.2863 192.998 57.0763 192.791 56.8241 192.646C56.5719 192.502 56.2864 192.426 55.9958 192.426C55.7053 192.426 55.4197 192.502 55.1676 192.646C54.9154 192.791 54.7054 192.998 54.5583 193.249H53.0833C52.8623 193.249 52.6504 193.337 52.4941 193.493C52.3378 193.649 52.25 193.861 52.25 194.082V194.499C52.25 194.831 52.3817 195.148 52.6161 195.383C52.8505 195.617 53.1685 195.749 53.5 195.749H58.5C58.8315 195.749 59.1495 195.617 59.3839 195.383C59.6183 195.148 59.75 194.831 59.75 194.499V194.082C59.75 193.861 59.6622 193.649 59.5059 193.493C59.3496 193.337 59.1377 193.249 58.9167 193.249H57.4333Z" stroke="#4B5563" stroke-linecap="round" stroke-linejoin="round"/>
</g>
</g>
<defs>
<clipPath id="clip0_1437_3336">
<rect width="876" height="254" fill="white"/>
</clipPath>
<clipPath id="clip1_1437_3336">
<rect width="20" height="20" fill="white" transform="translate(46 138)"/>
</clipPath>
<clipPath id="clip2_1437_3336">
<rect width="20" height="20" fill="white" transform="translate(707 128)"/>
</clipPath>
<clipPath id="clip3_1437_3336">
<rect width="20" height="20" fill="white" transform="translate(435 56)"/>
</clipPath>
<clipPath id="clip4_1437_3336">
<rect width="20" height="20" fill="white" transform="translate(46 192)"/>
</clipPath>
</defs>
</svg>
