<svg xmlns="http://www.w3.org/2000/svg" viewBox="0 0 5000 3000" id="g-pay">
  <g>
    <path fill="#5f6368" d="M2446.64 926.9v436.56h269.25q96.17 0 159.13-64.62 64.68-64.54 64.64-153.7 0-87.26-64.64-152-63-66.34-159.13-66.36H2446.64zm0 590.27v506.42H2285.85V773.21h426.59q162.6 0 276.09 108.27Q3104.1 989.71 3104 1145.14q0 159-115.48 265.41-111.84 106.6-276.09 106.52h-265.8zM3266.48 1761.61q0 63 53.35 104.83c35.61 27.88 77.18 41.87 125 41.87 67.67 0 127.81-25.06 180.86-75.08s79.56-108.81 79.56-176.25q-75.15-59.51-209.77-59.42-97.91 0-163.42 47.21c-43.64 31.42-65.57 70.26-65.57 116.84zM3474.59 1140q178.41 0 281.5 95.17t103.07 261v527.41H3705.35V1904.86h-7q-99.61 146.6-265.64 146.61-141.59 0-236.93-83.75-95.37-84-95.33-209.67 0-132.66 100.45-211.18t268.36-78.62q143.31 0 236 52.36v-36.7q0-83.81-66.4-142.27c-44.38-39.05-96.07-58.47-155.59-58.47q-134.7 0-213.22 113.55l-141.69-89.12q117.32-167.67 346.25-167.64z"></path>
    <polygon fill="#5f6368" points="4742 1167.88 4205.2 2400.72 4039.17 2400.72 4238.5 1969.4 3885.37 1167.88 4060.26 1167.88 4315.46 1782.59 4318.91 1782.59 4567.1 1167.88 4742 1167.88"></polygon>
  </g>
  <g>
    <path fill="#4285f4" d="M1796.76,1408a855.84,855.84,0,0,0-12.38-146.12H1106.09v276.69h388.48c-16.65,90.22-67.07,167-143.62,218.33v179.7h231.86c135.73-125.09,214-310,214-528.6Z"></path>
    <path fill="#34a853" d="M1106.09,2110.14c194.11,0,357.52-63.7,476.72-173.54L1351,1756.9c-64.53,43.44-147.65,68.81-244.86,68.81-187.59,0-346.82-126.33-403.78-296.59H463.45v185.09c118.37,234.72,361.65,395.93,642.64,395.93Z"></path>
    <path fill="#fabb05" d="M702.31,1529.12a430.39,430.39,0,0,1,0-275V1069H463.45a717.68,717.68,0,0,0,0,645.19Z"></path>
    <path fill="#e94235" d="M1106.09,957.55c106,0,201,36.4,275.92,107.76v.1L1587.3,860.34c-124.68-116-287.2-187.17-481.21-187.17-281,0-524.27,161.11-642.64,395.85l238.86,185.07c57-170.26,216.19-296.54,403.78-296.54Z"></path>
  </g>
</svg>
