<svg width="24" height="24" viewBox="0 0 24 24" fill="none" xmlns="http://www.w3.org/2000/svg">
<path d="M16.5591 1.2002H7.43906C6.11906 1.2002 5.03906 2.2802 5.03906 3.6002V20.4002C5.03906 21.7202 6.11906 22.8002 7.43906 22.8002H16.5591C17.8791 22.8002 18.9591 21.7202 18.9591 20.4002V3.6002C18.9591 2.2802 17.8791 1.2002 16.5591 1.2002ZM5.99906 5.0402H17.9991V18.0002H5.99906V5.0402ZM7.43906 2.1602H16.5591C17.3511 2.1602 17.9991 2.8082 17.9991 3.6002V4.0802H5.99906V3.6002C5.99906 2.8082 6.64706 2.1602 7.43906 2.1602ZM16.5591 21.8402H7.43906C6.64706 21.8402 5.99906 21.1922 5.99906 20.4002V18.9602H17.9991V20.4002C17.9991 21.1922 17.3511 21.8402 16.5591 21.8402ZM12.4791 20.3042V20.4002C12.4791 20.5202 12.4311 20.6402 12.3351 20.7362C12.2391 20.8322 12.1191 20.8802 11.9991 20.8802C11.9271 20.8802 11.8791 20.8802 11.8071 20.8322C11.7591 20.8082 11.6871 20.7842 11.6631 20.7362C11.6151 20.6882 11.5911 20.6402 11.5671 20.5922C11.5191 20.5202 11.5191 20.4722 11.5191 20.4002V20.3042C11.5191 20.2802 11.5431 20.2322 11.5431 20.2082C11.5431 20.1842 11.5671 20.1602 11.5911 20.1362C11.6151 20.1122 11.6151 20.0882 11.6391 20.0642C11.6631 20.0402 11.6871 20.0162 11.7111 20.0162C11.7351 19.9922 11.7591 19.9922 11.7831 19.9682C11.8071 19.9682 11.8311 19.9442 11.8791 19.9442C12.0231 19.9202 12.1911 19.9682 12.3111 20.0642C12.3351 20.0882 12.3591 20.1122 12.3591 20.1362C12.3831 20.1602 12.3831 20.1842 12.4071 20.2082C12.4311 20.2322 12.4551 20.2802 12.4791 20.3042Z" fill="#4B5563"/>
</svg>
