<svg width="32" height="32" viewBox="0 0 32 32" fill="none" xmlns="http://www.w3.org/2000/svg">
<path d="M31.332 24V8C31.332 6.89543 30.4366 6 29.332 6L2.66537 6C1.5608 6 0.665367 6.89543 0.665367 8V24C0.665367 25.1046 1.5608 26 2.66537 26H29.332C30.4366 26 31.332 25.1046 31.332 24Z" stroke="#4B5563" stroke-linecap="round" stroke-linejoin="round"/>
<path d="M18 20.667H27.3333M18 16.667H27.3333M18 12.667H27.3333" stroke="#4B5563" stroke-linecap="round" stroke-linejoin="round"/>
<path d="M9.33203 15.333C10.4366 15.333 11.332 14.4376 11.332 13.333C11.332 12.2284 10.4366 11.333 9.33203 11.333C8.22746 11.333 7.33203 12.2284 7.33203 13.333C7.33203 14.4376 8.22746 15.333 9.33203 15.333Z" stroke="#4B5563" stroke-linecap="round" stroke-linejoin="round"/>
<path d="M9.33268 17.333C8.04902 17.3653 6.78815 17.6794 5.63935 18.253C5.3544 18.3833 5.11194 18.5912 4.93978 18.853C4.76763 19.1148 4.67274 19.4198 4.66602 19.733V19.9997C4.67296 20.1706 4.74668 20.332 4.87134 20.4492C4.99599 20.5664 5.16164 20.63 5.33268 20.6263H13.3327C13.5037 20.63 13.6694 20.5664 13.794 20.4492C13.9187 20.332 13.9924 20.1706 13.9993 19.9997V19.733C13.9951 19.4175 13.9014 19.1096 13.7291 18.8453C13.5568 18.5809 13.313 18.3709 13.026 18.2397C11.8762 17.6706 10.6153 17.3611 9.33268 17.333Z" stroke="#4B5563" stroke-linecap="round" stroke-linejoin="round"/>
</svg>
