<svg width="24" height="24" viewBox="0 0 24 24" fill="none" xmlns="http://www.w3.org/2000/svg">
<g clip-path="url(#clip0_633_6165)">
<path d="M8.95085 4.06987L3.70085 5.63987C3.4883 5.70284 3.29032 5.80725 3.11831 5.94708C2.94631 6.08691 2.80367 6.2594 2.69863 6.45461C2.59359 6.64982 2.52822 6.86388 2.50629 7.08447C2.48436 7.30506 2.5063 7.5278 2.57085 7.73987L6.64085 21.2999C6.70382 21.5124 6.80822 21.7104 6.94805 21.8824C7.08789 22.0544 7.26038 22.1971 7.45558 22.3021C7.65079 22.4071 7.86486 22.4725 8.08545 22.4944C8.30603 22.5164 8.52878 22.4944 8.74085 22.4299L22.3008 18.3599C22.5134 18.2969 22.7114 18.1925 22.8834 18.0527C23.0554 17.9128 23.198 17.7403 23.3031 17.5451C23.4081 17.3499 23.4735 17.1359 23.4954 16.9153C23.5173 16.6947 23.4954 16.4719 23.4308 16.2599L19.3608 2.69987C19.2979 2.48733 19.1935 2.28935 19.0536 2.11734C18.9138 1.94533 18.7413 1.80269 18.5461 1.69765C18.3509 1.59261 18.1368 1.52724 17.9163 1.50531C17.6957 1.48338 17.4729 1.50532 17.2608 1.56987L11.4608 3.30987" stroke="#4B5563" stroke-linecap="round" stroke-linejoin="round"/>
<path d="M8.59 3.5H2C1.60218 3.5 1.22064 3.65804 0.93934 3.93934C0.658035 4.22064 0.5 4.60218 0.5 5V20C0.5 20.3978 0.658035 20.7794 0.93934 21.0607C1.22064 21.342 1.60218 21.5 2 21.5H6.71" stroke="#4B5563" stroke-linecap="round" stroke-linejoin="round"/>
<path d="M10 4.5C10.8284 4.5 11.5 3.82843 11.5 3C11.5 2.17157 10.8284 1.5 10 1.5C9.17157 1.5 8.5 2.17157 8.5 3C8.5 3.82843 9.17157 4.5 10 4.5Z" stroke="#4B5563" stroke-linecap="round" stroke-linejoin="round"/>
<path d="M10.7109 4.32031L11.5009 5.50031" stroke="#4B5563" stroke-linecap="round" stroke-linejoin="round"/>
</g>
<defs>
<clipPath id="clip0_633_6165">
<rect width="24" height="24" fill="white"/>
</clipPath>
</defs>
</svg>
