<svg width="200" height="200" viewBox="0 0 200 200" fill="none" xmlns="http://www.w3.org/2000/svg">
<path d="M179.36 37.6398C168.696 25.6755 151.299 20.5064 138.662 29.699C133.201 33.6721 129.39 41.9054 127.71 49.5646C127.358 51.1756 126.73 52.7199 125.789 54.0738C119.736 62.7874 109.95 59.9654 97.7653 49.7387C85.9021 39.7815 76.4464 29.8446 61.5429 28.7424C48.5781 27.7845 36.7138 31.0352 27.7432 39.1134C16.1804 49.5251 11.9661 65.8748 16.7673 80.6868C21.4299 95.0717 28.0869 112.176 11.3303 136.7C-2.47137 162.896 29.9563 177.638 47.7522 173.738C71.4048 168.557 75.865 154.383 87.3883 149.506C113.527 138.447 101.5 168.298 132.127 173.455C184.854 179.689 209.596 70.9323 179.36 37.6398Z" fill="#EEEEF8"/>
<path d="M47.2507 37.634L62.2047 33.417C61.8471 37.6808 64.5588 41.6332 66.2685 45.566C62.1199 48.0109 56.9019 48.9481 51.009 50.4644C48.1712 46.7395 47.0801 41.6299 47.2517 37.634H47.2507Z" fill="#FDF8E6"/>
<path d="M52.1378 33.4246C53.3812 35.4232 53.8964 38.7714 54.1561 38.5352L57.0787 37.6938C55.9331 35.9511 55.9451 33.5215 55.2495 32.5767L52.1367 33.4246H52.1378Z" fill="#F9C130"/>
<path d="M54.3867 47.0631L55.7431 39.7275L59.4939 44.2047" stroke="#BFDD78" stroke-width="2.58" stroke-miterlimit="10"/>
<path d="M53.9648 44.0556L59.1567 41.6108" stroke="#BFDD78" stroke-width="2.58" stroke-miterlimit="10"/>
<path d="M58.3789 40.1084L60.4211 38.8652" stroke="#BFDD78" stroke-width="2.58" stroke-miterlimit="10"/>
<path d="M58.6602 38.4502L59.9633 40.4672" stroke="#BFDD78" stroke-width="2.58" stroke-miterlimit="10"/>
<path d="M148.799 60.9802C148.322 60.7288 147.932 60.5143 147.673 60.3706L137.832 75.4576L158.418 87.2517L168.065 70.79C166.854 70.2011 165.013 69.2943 162.779 68.1503C158.423 65.921 159.043 66.1714 157.463 65.3745" fill="#A5A29D"/>
<path d="M166.638 71.4998L165.889 71.1743L165.586 71.5804L166.42 71.9602L166.618 71.5782" fill="#A5A29D"/>
<path d="M165.002 70.6142L164.35 70.2974C164.35 70.2974 163.994 70.5227 164.064 70.5739C164.133 70.625 164.6 71.1442 164.663 71.0278C164.726 70.9113 165.001 70.6153 165.001 70.6153L165.002 70.6142Z" fill="#A5A29D"/>
<path d="M163.324 69.7672L162.435 69.3394L162.254 69.5919L163.111 70.0784L163.324 69.7672Z" fill="#A5A29D"/>
<path d="M161.25 68.5019L161.068 68.8219L160.52 68.4975L160.817 68.3081L161.25 68.5019Z" fill="#A5A29D"/>
<path d="M159.969 67.788L159.591 68.0939L158.746 67.5605L159.083 67.2808L159.969 67.788Z" fill="#A5A29D"/>
<path d="M157.861 66.6174L157.584 66.8961L156.602 66.378L156.873 66.0308L157.861 66.6174Z" fill="#A5A29D"/>
<path d="M152.818 63.9437L152.54 64.2223L151.559 63.7042L151.83 63.3569L152.818 63.9437Z" fill="#A5A29D"/>
<path d="M154.58 64.885L154.302 65.1626L153.32 64.6445L153.592 64.2983L154.58 64.885Z" fill="#A5A29D"/>
<path d="M155.09 65.2954L156.057 65.8212L155.836 66.0367L154.887 65.5218L155.09 65.2954Z" fill="#A5A29D"/>
<path d="M150.355 62.7036L151.323 63.2294L151.101 63.4449L150.152 62.929L150.355 62.7036Z" fill="#A5A29D"/>
<path d="M161.756 75.2793C162.13 75.2772 162.542 75.4764 162.742 75.853C162.996 76.3297 162.857 76.9937 162.453 77.2343C162.148 77.415 161.791 77.2974 161.519 77.2093C161.297 77.1364 160.643 76.923 160.56 76.4495C160.467 75.9313 161.089 75.2836 161.756 75.2793ZM155.282 76.6998C156.027 76.7118 156.473 77.3432 156.513 77.4008C157.107 78.2706 156.783 79.7238 156.006 80.0525C155.121 80.427 153.569 79.3754 153.656 78.2086C153.712 77.4575 154.446 76.6857 155.281 76.6988L155.282 76.6998Z" fill="#A5A29D"/>
<path d="M148.729 60.4577C148.252 60.2062 147.862 59.9918 147.604 59.8481L137.762 74.9351L158.348 86.7291L167.995 70.2675C166.784 69.6786 164.943 68.7718 162.708 67.6278C158.354 65.3985 158.973 65.6489 157.393 64.8521" fill="#C4BFB8"/>
<path d="M166.568 70.9774L165.819 70.6519L165.516 71.0579L166.35 71.4378L166.548 71.0557" fill="#C4BFB8"/>
<path d="M164.931 70.0912L164.28 69.7744C164.28 69.7744 163.924 69.9998 163.993 70.0509C164.063 70.1021 164.529 70.6213 164.592 70.5048C164.655 70.3884 164.93 70.0923 164.93 70.0923L164.931 70.0912Z" fill="#C4BFB8"/>
<path d="M163.25 69.2442L162.36 68.8164L162.18 69.0689L163.036 69.5555L163.25 69.2442Z" fill="#C4BFB8"/>
<path d="M161.177 67.9794L160.995 68.2995L160.445 67.9751L160.744 67.7856L161.177 67.9794Z" fill="#C4BFB8"/>
<path d="M159.898 67.2661L159.521 67.572L158.676 67.0386L159.014 66.7588L159.898 67.2661Z" fill="#C4BFB8"/>
<path d="M157.791 66.0955L157.513 66.3742L156.531 65.856L156.803 65.5088L157.791 66.0955Z" fill="#C4BFB8"/>
<path d="M152.749 63.4206L152.471 63.6993L151.488 63.1811L151.76 62.835L152.749 63.4206Z" fill="#C4BFB8"/>
<path d="M154.506 64.3626L154.228 64.6402L153.246 64.122L153.518 63.7759L154.506 64.3626Z" fill="#C4BFB8"/>
<path d="M155.019 64.7725L155.987 65.2993L155.765 65.5138L154.816 64.9989L155.019 64.7725Z" fill="#C4BFB8"/>
<path d="M150.281 62.1812L151.249 62.7069L151.028 62.9224L150.078 62.4076L150.281 62.1812Z" fill="#C4BFB8"/>
<path d="M161.682 74.7569C162.056 74.7547 162.468 74.9539 162.667 75.3306C162.921 75.8073 162.783 76.4713 162.379 76.7119C162.074 76.8926 161.717 76.775 161.445 76.6868C161.222 76.6139 160.569 76.4005 160.485 75.927C160.393 75.4089 161.015 74.7612 161.682 74.7569ZM155.207 76.1785C155.953 76.1905 156.399 76.8218 156.439 76.8795C157.032 77.7492 156.709 79.2024 155.931 79.5311C155.047 79.9056 153.495 78.8541 153.582 77.6872C153.638 76.9361 154.372 76.1643 155.207 76.1774L155.207 76.1785Z" fill="#C4BFB8"/>
<path d="M148.538 60.0656C148.061 59.8142 147.671 59.5997 147.412 59.4561L137.57 74.543L158.156 86.3374L167.804 69.8754C166.593 69.2865 164.751 68.3798 162.517 67.2357C158.162 65.0064 158.782 65.2568 157.201 64.46" fill="#FAF7F2"/>
<path d="M166.375 70.5856L165.627 70.2612L165.324 70.6662L166.158 71.0472L166.355 70.664" fill="#090507"/>
<path d="M164.74 69.6995L164.089 69.3828C164.089 69.3828 163.733 69.6081 163.802 69.6593C163.871 69.7105 164.338 70.2297 164.401 70.1132C164.464 69.9967 164.739 69.7006 164.739 69.7006L164.74 69.6995Z" fill="#090507"/>
<path d="M163.058 68.8525L162.17 68.4248L161.988 68.6784L162.846 69.165L163.058 68.8525Z" fill="#090507"/>
<path d="M160.988 67.5884L160.806 67.9084L160.258 67.584L160.556 67.3936L160.988 67.5884Z" fill="#090507"/>
<path d="M159.706 66.8735L159.328 67.1793L158.484 66.6459L158.821 66.3662L159.706 66.8735Z" fill="#090507"/>
<path d="M157.6 65.703L157.321 65.9816L156.34 65.4635L156.612 65.1162L157.6 65.703Z" fill="#090507"/>
<path d="M152.557 63.0296L152.278 63.3082L151.297 62.7901L151.569 62.4429L152.557 63.0296Z" fill="#090507"/>
<path d="M154.318 63.9705L154.04 64.2491L153.059 63.731L153.33 63.3838L154.318 63.9705Z" fill="#090507"/>
<path d="M154.829 64.3818L155.796 64.9076L155.575 65.1231L154.625 64.6071L154.829 64.3818Z" fill="#090507"/>
<path d="M150.092 61.79L151.061 62.3158L150.839 62.5314L149.891 62.0153L150.092 61.79Z" fill="#090507"/>
<path d="M162.492 70.5059L154.672 83.4952" stroke="black" stroke-width="1.04" stroke-miterlimit="10"/>
<path d="M158.339 68.332L150.52 81.3203" stroke="black" stroke-width="1.04" stroke-miterlimit="10"/>
<path d="M154.426 66.0479L146.605 79.0361" stroke="black" stroke-width="1.04" stroke-miterlimit="10"/>
<path d="M149.726 63.5996L141.906 76.5889" stroke="black" stroke-width="1.04" stroke-miterlimit="10"/>
<path d="M164.433 74.1558L145.207 63.6831" stroke="black" stroke-width="1.04" stroke-miterlimit="10"/>
<path d="M162.136 78.0669L142.91 67.5942" stroke="black" stroke-width="1.04" stroke-miterlimit="10"/>
<path d="M159.25 82.3409L140.023 71.8682" stroke="black" stroke-width="1.04" stroke-miterlimit="10"/>
<path d="M161.491 74.3648C161.864 74.3626 162.276 74.5617 162.477 74.9384C162.73 75.4152 162.592 76.0792 162.187 76.3197C161.883 76.5004 161.525 76.3829 161.254 76.2947C161.031 76.2217 160.378 76.0084 160.294 75.5349C160.201 75.0168 160.823 74.3691 161.491 74.3648Z" fill="#FFAB61"/>
<path d="M151.612 64.6421C151.985 64.6399 152.398 64.8392 152.598 65.2157C152.851 65.6925 152.713 66.3565 152.308 66.5971C152.004 66.7778 151.647 66.6603 151.375 66.5721C151.152 66.4992 150.499 66.2858 150.415 65.8123C150.323 65.2942 150.944 64.6465 151.612 64.6421Z" fill="#EDC446"/>
<path d="M155.02 75.7864C155.766 75.7984 156.211 76.4297 156.251 76.4874C156.845 77.3572 156.521 78.8104 155.744 79.1391C154.859 79.5135 153.307 78.462 153.394 77.2951C153.45 76.544 154.184 75.7723 155.019 75.7853L155.02 75.7864Z" fill="#90ABE1"/>
<path d="M167.802 69.877L158.154 86.3376L137.699 74.6175" stroke="black" stroke-width="0.83" stroke-linecap="round" stroke-linejoin="round"/>
<path d="M159.474 41.4149C163.929 41.4149 167.539 37.7988 167.539 33.3381C167.539 28.8773 163.929 25.2612 159.474 25.2612C155.021 25.2612 151.41 28.8773 151.41 33.3381C151.41 37.7988 155.021 41.4149 159.474 41.4149Z" fill="#EDC446"/>
<path d="M159.567 40.1079C163.33 40.1079 166.381 37.0527 166.381 33.2839C166.381 29.5151 163.33 26.46 159.567 26.46C155.804 26.46 152.754 29.5151 152.754 33.2839C152.754 37.0527 155.804 40.1079 159.567 40.1079Z" fill="#FDF8E6"/>
<path d="M164.088 31.0839C162.896 32.745 161.288 33.7084 159.265 33.9751C158.769 32.7483 158.079 31.5596 157.141 30.4199" stroke="#020202" stroke-width="2.12" stroke-linecap="round" stroke-linejoin="round"/>
<path d="M32.3736 99.859C35.624 99.859 38.2589 97.2203 38.2589 93.9652C38.2589 90.7095 35.624 88.0708 32.3736 88.0708C29.1232 88.0708 26.4883 90.7095 26.4883 93.9652C26.4883 97.2203 29.1232 99.859 32.3736 99.859Z" fill="#F4A900"/>
<path d="M32.4439 98.9732C35.1895 98.9732 37.4152 96.7437 37.4152 93.9942C37.4152 91.244 35.1895 89.0151 32.4439 89.0151C29.6984 89.0151 27.4727 91.244 27.4727 93.9942C27.4727 96.7437 29.6984 98.9732 32.4439 98.9732Z" fill="#FDF8E6"/>
<path d="M35.6798 95.7227C34.1898 95.7319 32.9323 95.1942 31.9062 94.1122C32.4171 93.2925 32.8214 92.3745 33.0899 91.3306" stroke="#020202" stroke-width="1.55" stroke-linecap="round" stroke-linejoin="round"/>
<path d="M62.7625 54.1138C47.7968 88.4604 47.0322 141.95 52.7125 179.359C52.7125 179.359 72.7032 158.685 83.4086 136.371L94.0053 114.056C94.0053 114.056 106.24 140.091 119.349 153.108C127.386 160.991 136.692 167.462 146.877 172.249C141.086 139.544 137.482 86.9292 151.683 57.5047L62.7625 54.1138Z" fill="#5158F6"/>
<path d="M158.035 115.535H36.8786L23.168 141.23H172.818L158.035 115.535Z" fill="#2B2B2D"/>
<path d="M57.1306 109.398L51.8594 133.286H90.7766C93.4498 135.783 98.8658 134.821 100.086 133.286H139.748L131.104 109.254L57.1317 109.397L57.1306 109.398Z" fill="#90ABE1"/>
<path d="M55.0586 130.787L58.8735 110.982C68.791 102.512 88.5273 107.486 95.0451 110.75C99.7317 106.092 123.295 104.615 128.191 110.538L136.651 131.437L99.2675 131.14C97.6863 132.431 93.6453 133.083 91.3989 131.078L55.0597 130.789L55.0586 130.787Z" fill="#FDF8E6"/>
<path d="M58.1328 126.847C72.7108 125.322 87.2073 126.92 92.6842 129.107" stroke="#EDC446" stroke-width="1.61" stroke-linecap="round" stroke-linejoin="round"/>
<path d="M93.4527 128.385C88.2358 124.684 69.4975 120.908 58.4844 125.017" stroke="#EDC446" stroke-width="1.61" stroke-linecap="round" stroke-linejoin="round"/>
<path d="M58.1328 129.107L92.457 129.971" stroke="#EDC446" stroke-width="1.61" stroke-linecap="round" stroke-linejoin="round"/>
<path d="M132.241 127.181C117.862 125.334 104.667 126.735 98.8633 129.107" stroke="#EDC446" stroke-width="1.61" stroke-linecap="round" stroke-linejoin="round"/>
<path d="M131.616 125.16C118.803 121.7 103.317 124.684 98.1016 128.383" stroke="#EDC446" stroke-width="1.61" stroke-linecap="round" stroke-linejoin="round"/>
<path d="M132.246 129.563L99.0938 129.971" stroke="#EDC446" stroke-width="1.61" stroke-linecap="round" stroke-linejoin="round"/>
<path d="M95.0469 110.75L95.5536 128.385" stroke="#EDC446" stroke-width="1.61" stroke-linecap="round" stroke-linejoin="round"/>
<path d="M73.037 56.9185C72.1535 56.7884 71.27 56.7363 70.3606 56.7363C66.7488 56.7363 63.3189 57.6211 60.2787 59.2084C58.9794 59.911 57.7322 60.7176 56.5889 61.6284C50.9503 66.13 47.3125 73.2859 47.3125 81.3265C47.3125 89.3669 50.9243 96.4449 56.485 100.947C57.2645 101.571 58.07 102.143 58.9275 102.664C62.3055 104.746 66.2031 105.916 70.3606 105.916C73.4007 105.916 76.311 105.292 78.9614 104.147C83.0929 102.352 86.6268 99.3334 89.1735 95.4823C89.563 94.8574 89.9271 94.2331 90.2643 93.6607C90.2905 93.6344 90.3166 93.6089 90.3166 93.5564H90.3428C90.3428 93.5564 90.3684 93.5308 90.3684 93.5046C90.4135 93.441 90.4482 93.3708 90.4725 93.2961C92.4039 89.6043 93.403 85.4946 93.3827 81.3265C93.3827 68.7322 84.4961 58.3237 73.063 56.9185H73.037ZM70.3346 100.712C69.1653 100.712 68.022 100.583 66.9047 100.348C62.3315 99.3852 58.3818 96.5229 55.7834 92.542C53.7046 89.3669 52.4834 85.4899 52.4834 81.3265C52.4834 77.1631 53.6787 73.338 55.7314 70.1633C59.0054 65.1933 64.3063 61.9406 70.3346 61.9406C76.3629 61.9406 81.7417 65.2193 84.9378 70.2414C84.9897 70.2934 85.0157 70.3195 85.0157 70.3455C85.0937 70.4756 85.1716 70.5797 85.2496 70.7098C87.166 73.9177 88.1724 77.5884 88.16 81.3265C88.16 84.9435 87.2504 88.3262 85.6394 91.2403C85.4055 91.6311 85.1197 92.1256 84.7559 92.698C83.9504 93.921 83.0149 95.0134 81.9756 95.9767C78.8575 98.917 74.7779 100.712 70.3346 100.712ZM140.18 79.0887C139.842 75.0814 138.621 71.3603 136.698 68.1337C132.593 61.2901 125.395 56.7363 117.237 56.7363C104.53 56.7363 94.2143 67.7694 94.2143 81.3265C94.2143 85.0736 94.9934 88.6128 96.3971 91.7872C97.4879 94.2593 98.9434 96.4967 100.71 98.4226C104.894 103.054 110.74 105.916 117.237 105.916C127.604 105.916 136.413 98.5525 139.297 88.4823C139.842 86.5826 140.154 84.5792 140.258 82.5235C140.284 82.1071 140.284 81.7169 140.284 81.3265C140.284 80.5719 140.258 79.8433 140.18 79.0887ZM117.237 100.712C110.402 100.712 104.452 96.4967 101.464 90.3302C101.178 89.7577 100.918 89.159 100.71 88.5603C99.879 86.3223 99.4109 83.8766 99.4109 81.3265C99.4109 77.8136 100.269 74.5089 101.801 71.6466C101.801 71.6205 101.827 71.5946 101.827 71.5685L102.269 70.7879C102.269 70.7879 102.321 70.7358 102.347 70.6838C105.518 65.4275 111.026 61.9406 117.237 61.9406C126.851 61.9406 134.698 70.2154 135.035 80.5719C135.087 80.8061 135.088 81.0663 135.088 81.3265C135.088 83.8506 134.646 86.2705 133.814 88.4823C131.19 95.6384 124.746 100.712 117.237 100.712Z" fill="#1E1D1C"/>
<path d="M72.3248 77.3937C73.0944 77.9979 73.8175 78.6591 74.488 79.3719L75.0125 79.8006C75.0451 79.9323 75.0776 80.0639 74.9137 79.9648L74.6508 80.03L73.9284 79.9298L73.2714 80.0928L71.629 80.2208L68.4757 80.4442C64.5998 80.8883 60.8056 81.8766 57.2048 83.3801C54.5749 84.5913 53.8176 85.4778 54.2107 85.9391C54.6038 86.4001 56.2787 86.4041 58.7421 86.2119L68.038 85.4429L73.8839 85.3898L74.5411 85.2267L76.0845 85.2629L79.4994 85.5335L86.2966 85.9431L85.7071 85.251L84.9209 84.3283L83.545 82.7137L82.2018 81.2305L81.5795 80.407L80.8258 79.6159L78.6301 77.5061L78.073 76.9456L77.745 76.7476L77.6135 76.7802L76.925 76.2525L74.2686 74.5363C72.8797 73.677 71.4329 72.9155 69.9385 72.2573C68.0437 71.3966 66.0921 70.667 64.0975 70.0738C61.8361 69.2614 59.3761 69.1869 57.0699 69.8612C55.6241 70.2199 56.0172 70.6812 57.363 71.046C58.7086 71.4107 60.7765 71.8757 63.0737 72.703C65.2982 73.4686 67.4502 74.4309 69.5044 75.5785L71.5048 76.8985L72.3248 77.3937Z" fill="#1E1D1C"/>
<path d="M117.447 79.932C116.757 80.4735 116.109 81.0661 115.508 81.7049L115.038 82.0892C115.009 82.2071 114.98 82.3251 115.127 82.2362L115.363 82.2947L116.01 82.2049L116.599 82.351L118.071 82.4657L120.897 82.6659C124.37 83.0638 127.771 83.9496 130.998 85.297C133.354 86.3823 134.033 87.177 133.681 87.5901C133.329 88.0039 131.827 88.0072 129.62 87.8347L121.289 87.1456L116.05 87.0983L115.461 86.9521L114.078 86.9842L111.017 87.2269L104.926 87.5941L105.454 86.9737L106.159 86.1469L107.392 84.6998L108.596 83.3706L109.153 82.6326L109.828 81.9235L111.797 80.0328L112.295 79.5305L112.589 79.353L112.707 79.3822L113.325 78.9094L115.705 77.3713C116.95 76.6012 118.246 75.9188 119.586 75.3289C121.284 74.5575 123.033 73.9037 124.82 73.372C126.847 72.6439 129.051 72.5772 131.118 73.1815C132.414 73.5029 132.062 73.9164 130.856 74.2433C129.65 74.5701 127.797 74.9869 125.738 75.7283C123.744 76.4144 121.816 77.2768 119.975 78.3054L118.182 79.4882L117.447 79.932Z" fill="#1E1D1C"/>
<path d="M86.1756 30.6676C86.0862 30.7979 86.0461 30.9553 86.0625 31.112C86.0625 31.3342 85.9505 31.6675 85.9505 32.2229C86.0332 33.3678 86.2984 34.4926 86.7364 35.5555C86.9893 36.0785 87.1415 36.6437 87.1853 37.2219C87.307 37.6203 87.307 38.0454 87.1853 38.4438H86.8483C86.6245 38.5549 86.0625 38.3328 85.3896 37.9995L84.2675 37.2219L82.6964 36.4442C82.0281 36.106 81.3075 35.8807 80.5642 35.7777C79.653 35.6182 78.7144 35.7343 77.871 36.111L76.6366 36.9997L76.0754 37.5551L75.7388 38.2216C75.4885 38.6262 75.3349 39.0822 75.2899 39.5547C75.2899 39.999 75.1777 40.4434 75.1777 40.7767C75.2937 41.9427 75.5192 43.0956 75.851 44.2203C76.0729 44.8641 76.1867 45.5397 76.1877 46.2199C76.1877 46.4421 76.1877 46.3311 76.0754 46.4421L75.7388 46.6642C74.9145 46.7286 74.0852 46.6913 73.27 46.5532C72.2046 46.5201 71.1414 46.6705 70.1279 46.9976C68.7972 47.3166 67.5886 48.0112 66.6491 48.9972C66.2002 49.5525 66.2002 49.7747 66.5369 49.8859C66.8735 49.9969 69.5667 48.9972 72.5967 49.5525L75.2899 50.108C76.0077 50.1337 76.7254 50.0589 77.4221 49.8859C78.2559 49.5549 78.9628 48.9717 79.442 48.2195C79.9208 47.4953 80.1564 46.64 80.1153 45.7756C80.1369 45.0701 80.0994 44.3642 80.0032 43.665C79.7189 42.6516 79.5681 41.6061 79.5543 40.5545C79.5375 40.3979 79.5773 40.2405 79.6664 40.1101H79.7787C80.6234 40.2855 81.4245 40.6253 82.1352 41.1099C82.7884 41.5522 83.508 41.8896 84.2675 42.1097C85.1719 42.5511 86.1799 42.743 87.1853 42.6651C87.8116 42.5834 88.419 42.3955 88.9808 42.1097C89.5091 41.752 89.9661 41.2999 90.3276 40.7767C90.6667 40.2738 90.8959 39.7061 91 39.1103V37.6662C90.9103 36.8566 90.6831 36.0678 90.3276 35.3334C90.2248 34.9814 90.0735 34.645 89.8784 34.3336L89.5419 33.6671C89.1333 32.9183 88.9389 32.0732 88.9808 31.2231C89.0927 30.6676 89.4299 30.4455 90.1023 30.2233C90.7479 30.1301 91.4059 30.2066 92.0109 30.4455C93.2948 30.8692 94.6069 31.2033 95.938 31.4454C97.032 31.6709 98.1686 31.5545 99.1933 31.112C99.9482 30.6981 100.57 30.0821 100.989 29.3346C101.242 28.7912 101.466 28.2349 101.661 27.6684C101.743 27.169 101.895 26.6831 102.11 26.2242C102.247 25.9142 102.447 25.6356 102.698 25.4062C102.949 25.1771 103.245 25.0017 103.569 24.8911C104.466 24.5579 104.915 24.8911 104.915 24.6689C104.915 24.4468 104.803 24.4468 104.466 24.2246C104.27 24.0963 104.049 24.0104 103.817 23.9723C103.585 23.9341 103.348 23.9444 103.12 24.0024C102.494 24.0053 101.893 24.2436 101.438 24.6689L100.651 25.4466L100.315 25.891L99.9776 26.3353C99.7262 26.9147 99.4257 27.472 99.08 28.0016C98.9425 28.4143 98.6656 28.7675 98.295 29.0014C97.2932 29.3089 96.2103 29.2296 95.2649 28.7793C93.9423 28.1906 92.5458 27.7796 91.1132 27.5572C90.3204 27.4646 89.517 27.5403 88.7555 27.7794C88.0609 28.0262 87.442 28.4473 86.9602 29.0014C86.535 29.4658 86.2615 30.0466 86.1756 30.6676ZM135.888 30.7788L135.215 31.001C134.535 31.2772 133.924 31.6937 133.419 32.223C132.774 33.0172 132.383 33.9843 132.297 35.0001C132.107 35.9507 132.031 36.9202 132.073 37.8884C132.064 38.7869 131.951 39.6816 131.736 40.5545C131.736 40.6657 131.736 40.6657 131.624 40.6657H131.399L131.063 40.4435L130.165 39.9991L128.482 38.9993L128.257 38.7771L127.808 38.5549L126.91 38.2217C126.333 38.0241 125.712 37.9857 125.115 38.1106C124.563 38.1968 124.04 38.4134 123.591 38.7422C123.142 39.071 122.779 39.5021 122.534 39.9991C122.185 40.4454 121.988 40.9901 121.973 41.5543C121.888 41.8427 121.85 42.1428 121.861 42.4431V43.2206C121.928 43.784 122.041 44.3413 122.197 44.887C122.216 45.1875 122.178 45.4888 122.085 45.7757C121.844 46.5074 121.463 47.1863 120.963 47.7753C120.317 48.3442 119.6 48.8294 118.831 49.2193C117.035 50.108 115.913 50.6635 115.801 51.1078C115.688 51.5522 116.474 51.6633 117.932 51.6633C118.885 51.6547 119.831 51.5049 120.739 51.2189C122.056 50.8086 123.25 50.0838 124.217 49.1083C124.817 48.4471 125.309 47.6976 125.677 46.8865L126.012 45.5535C126.126 45.041 126.126 44.5107 126.012 43.9983V42.5541H126.238L127.696 43.3318L129.154 44.2204L130.614 44.998L132.185 45.8867L133.643 46.5532H133.98V46.22L134.317 45.3313C134.758 44.2816 135.133 43.2056 135.439 42.1097V39.777C135.496 39.0744 135.496 38.3687 135.439 37.6662C135.297 36.7475 135.259 35.816 135.327 34.8891C135.365 34.5962 135.494 34.3221 135.695 34.1037C135.895 33.885 136.159 33.7326 136.449 33.6671C136.972 33.5412 137.521 33.58 138.02 33.7782L138.469 34.0004L139.255 34.4448L140.489 35.3334H140.825L141.274 35.1113L142.06 34.4448C142.431 33.988 142.7 33.4576 142.846 32.8896C142.957 32.5562 142.957 32.334 143.069 32.0008C143.183 31.6675 143.183 31.5565 143.183 31.3343C143.164 30.9972 143.202 30.6595 143.295 30.3345C143.216 29.4107 143.411 28.4844 143.855 27.6684C144 27.4412 144.198 27.2517 144.432 27.1159C144.667 26.9806 144.931 26.9034 145.202 26.8908C146.101 26.8827 147 26.9198 147.895 27.0018C148.456 26.8908 148.793 26.6686 148.793 26.5575C148.793 26.4465 148.793 26.3353 148.569 26.2243L147.558 25.7799L145.539 25.1134C144.875 24.99 144.188 25.0489 143.555 25.2838C142.922 25.5186 142.366 25.9207 141.948 26.4465C141.338 27.4168 140.99 28.5261 140.938 29.6679L140.713 31.1121C140.633 31.2859 140.594 31.4762 140.601 31.6675C140.489 31.7787 140.49 31.8897 140.377 31.8897C140.265 31.8897 140.153 32.1118 140.153 31.8897H139.592L137.908 31.3343C137.435 31.1953 136.939 31.1574 136.449 31.2231L135.888 30.7788ZM108.17 30.7788L107.385 31.001C106.72 31.3038 106.113 31.7172 105.589 32.2229C104.988 33.0423 104.603 33.9967 104.468 35.0001C104.277 35.9507 104.202 36.9202 104.243 37.8884C104.235 38.787 104.121 39.6817 103.905 40.5545H103.57L103.233 40.3323L102.335 39.888L100.651 38.8881L100.427 38.6659L99.979 38.4438L99.0813 38.1106C98.5038 37.9131 97.8832 37.8747 97.2854 37.9995C96.7393 38.1024 96.2241 38.3257 95.7769 38.6526C95.3304 38.9796 94.9637 39.4018 94.7044 39.888C94.4033 40.3591 94.2121 40.8901 94.1433 41.4432C94.0576 41.7315 94.0189 42.0316 94.0301 42.3319C94.0301 42.6651 94.0301 42.9984 94.1433 43.1095C94.1865 43.6686 94.2612 44.2248 94.3673 44.7758C94.3856 45.0764 94.3476 45.3777 94.2553 45.6645C94.0589 46.4147 93.6726 47.1028 93.1324 47.6641C92.5065 48.2071 91.8308 48.6906 91.1132 49.1082C89.206 49.9969 88.0831 50.5524 87.9711 50.9967C87.8592 51.4411 88.6436 51.5521 90.1036 51.5521C91.0556 51.5435 92.0011 51.3937 92.9085 51.1078C94.2258 50.6972 95.4207 49.9724 96.3878 48.9972C97.0241 48.3643 97.5204 47.6078 97.8465 46.7754C98.0102 46.3454 98.1228 45.898 98.183 45.4423C98.2721 44.9288 98.31 44.4079 98.295 43.8871C98.202 43.5244 98.1647 43.15 98.183 42.7762V42.5541H98.4069L99.8657 43.3316L101.326 44.2203L102.784 44.998L104.355 45.8867L105.814 46.5532H106.15V46.2199L106.487 45.3312C106.977 44.3006 107.354 43.2205 107.61 42.1097V40.7767C107.592 40.4396 107.629 40.1019 107.722 39.7768C107.739 39.0715 107.702 38.3658 107.61 37.6662C107.467 36.7476 107.429 35.816 107.497 34.889C107.508 34.6349 107.586 34.3882 107.724 34.1735C107.862 33.959 108.054 33.7843 108.282 33.6671C108.805 33.5412 109.355 33.58 109.854 33.7781L110.303 34.0003L111.088 34.4446L112.322 35.3334H112.659L113.108 35.1111L113.894 34.4446C114.265 33.9875 114.532 33.4572 114.678 32.8894C114.805 32.6084 114.881 32.3077 114.904 32.0007C114.904 31.7785 115.016 31.5564 115.016 31.3342C114.998 30.9972 115.035 30.6595 115.127 30.3345C115.106 29.4149 115.298 28.5026 115.689 27.6684C115.84 27.4467 116.04 27.2616 116.273 27.1269C116.506 26.9922 116.767 26.9115 117.036 26.8907C117.935 26.8807 118.834 26.9177 119.73 27.0018C120.29 26.8907 120.627 26.6685 120.627 26.5575C120.627 26.4463 120.627 26.3353 120.402 26.2242L119.392 25.7798L117.372 25.1133C116.774 24.9885 116.154 25.0268 115.577 25.2244C115.228 25.3071 114.9 25.4577 114.611 25.6674C114.322 25.877 114.078 26.1418 113.894 26.4463C113.207 27.3871 112.816 28.508 112.771 29.6679L112.547 31.112C112.547 31.4454 112.434 31.4454 112.434 31.6675L112.211 31.8897C112.211 32.0007 112.099 32.1118 111.985 31.8897H111.762L110.078 31.3342C109.606 31.1918 109.108 31.1539 108.619 31.2231L108.17 30.7788Z" fill="#1E1D1C"/>
<path d="M119.729 32.6682H117.82C117.153 32.7265 116.505 32.9153 115.912 33.2237C115.074 33.6333 114.429 34.3507 114.117 35.2233C113.819 35.9265 113.666 36.6822 113.668 37.445C113.557 38.2226 113.668 38.7781 113.557 39.3334C113.574 39.965 113.537 40.5969 113.445 41.222C113.425 41.8568 113.35 42.4886 113.22 43.1104C113.22 43.4437 113.108 43.777 113.108 44.1103C113.108 44.4435 112.996 44.7768 112.882 45.11C112.787 45.5867 112.596 46.0399 112.322 46.4431C112.098 46.8874 111.985 46.8874 111.873 46.8874C111.761 46.8874 111.536 46.9985 110.863 46.7764C109.942 46.5824 108.999 46.5077 108.058 46.5542C106.314 46.757 104.691 47.5404 103.456 48.7759C102.71 49.4848 102.235 50.4264 102.109 51.4421C102.109 52.1086 102.335 52.2196 102.559 52.1086C102.783 51.9974 104.354 50.5534 106.374 50.109C107.381 49.85 108.447 49.9281 109.404 50.3312C110.379 50.8099 111.46 51.0391 112.546 50.9977C113.31 50.8452 114.035 50.543 114.678 50.109C115.186 49.6851 115.638 49.1999 116.024 48.6648C116.612 47.6654 117.029 46.577 117.259 45.4433C117.482 44.4587 117.595 43.4529 117.596 42.4439C117.69 41.447 117.727 40.4457 117.708 39.4446C117.596 38.3338 117.484 37.445 117.484 36.8896V36.223C117.596 36.112 117.596 36.0008 117.708 36.0008C118.319 35.7879 118.971 35.712 119.616 35.7787C120.453 35.8319 121.292 35.7185 122.085 35.4454C122.77 35.2347 123.389 34.8521 123.881 34.3346C124.592 33.5476 125.161 32.6458 125.564 31.6685C125.828 30.987 126.016 30.2793 126.125 29.5578C126.131 28.7688 126.244 27.9841 126.462 27.225C126.501 26.9735 126.618 26.7405 126.797 26.5585C126.982 26.406 127.203 26.305 127.44 26.2659C127.677 26.2269 127.92 26.2512 128.144 26.3363C128.481 26.3363 128.593 26.6695 128.707 26.7806C128.818 26.8917 128.93 27.0028 129.042 26.8917C129.12 26.7166 129.158 26.5273 129.155 26.3363C129.122 26.1315 129.044 25.9362 128.928 25.7637C128.812 25.5911 128.659 25.4453 128.481 25.3364C128.02 25.0239 127.469 24.8679 126.911 24.8921C126.546 24.8915 126.186 24.9708 125.856 25.1245C125.526 25.2782 125.234 25.5023 125.002 25.7808C124.552 26.2426 124.241 26.8198 124.104 27.4471C123.959 27.9955 123.847 28.5519 123.769 29.1134C123.712 29.8281 123.491 30.5205 123.122 31.1373C122.752 31.7538 122.244 32.2777 121.636 32.6682C121.251 32.8464 120.826 32.9229 120.401 32.8904L119.729 32.6682Z" fill="#1E1D1C"/>
</svg>
