<svg width="295" height="338" viewBox="0 0 295 338" fill="none" xmlns="http://www.w3.org/2000/svg">
<path d="M40.8271 57.431C56.834 58.1201 65.3345 58.497 77.7878 59.1371C60.8499 45.3501 54.4431 35.1132 45.8067 14.6151C60.1003 25.1008 68.9704 29.7333 87.4546 34.0562C79.0984 21.8162 78.5043 14.6702 80.4392 1.69831C107.237 15.336 119.861 24.4399 137.056 43.8538C136.748 31.3769 138.055 25.8723 141.297 17.0209C158.358 36.2515 165.534 47.2723 172.502 67.5135L61.4973 75.9038C58.5346 68.0886 53.4838 64.0976 40.8271 57.431Z" fill="#11151A"/>
<path d="M31.9341 77.9961C6.35501 136.682 63.1763 235.996 112.68 296.496C112.68 296.496 94.3823 277.123 112.68 238.996L128.18 202.996C128.18 202.996 136.275 239.255 158.68 261.496C172.417 274.966 172.773 278.317 190.18 286.496C180.283 230.615 200.68 130.496 213.68 58.9961L31.9341 77.9961Z" fill="#5158F6"/>
<path d="M116.071 313.363C116.039 313.654 115.896 313.921 115.672 314.109L114.099 316.337C111.585 318.555 108.55 320.1 105.277 320.828L97.1083 322.122L87.0592 322.989C79.3785 323.638 71.6682 323.873 63.9622 323.691L51.2973 323.351L45.6366 322.822C44.3626 322.576 43.1925 321.952 42.2797 321.03C40.4352 319.276 39.2084 315.65 38.186 311.46L37.5108 308.416C37.2745 307.543 37.1086 306.654 37.0149 305.755C37.0007 305.18 37.0799 304.606 37.2497 304.057C37.3694 303.468 37.5759 302.9 37.8624 302.372C38.7927 300.878 39.9101 299.51 41.1874 298.3C42.585 297.039 44.0701 295.877 45.6316 294.825C48.8257 292.863 52.3128 291.424 55.961 290.562C62.7473 288.994 69.8653 289.786 76.1413 292.806C80.2274 294.779 83.9859 297.368 87.2851 300.483C89.3189 302.24 90.07 302.449 90.1054 301.127C89.3449 298.181 87.8565 295.474 85.7769 293.254C81.5727 288.512 76.184 284.972 70.1624 282.998C61.1699 280.388 51.5354 281.138 43.0552 285.108C40.6675 286.358 38.3561 287.749 36.1332 289.273C33.833 291.123 31.7464 293.224 29.9119 295.537C28.905 296.937 28.0409 298.435 27.3326 300.008C26.742 301.834 26.4356 303.74 26.4242 305.659C26.3705 307.314 26.5166 308.969 26.8595 310.588C27.202 311.922 27.3554 313.251 27.6979 314.585C28.3625 317.7 29.426 320.716 30.8619 323.559C32.4683 327.227 35.344 330.192 38.9609 331.911C42.2029 333.418 45.727 334.222 49.3018 334.27L58.186 334.508C70.2402 334.573 82.2809 333.694 94.198 331.881C99.1642 331.133 104.065 330 108.855 328.491C113.618 327.017 117.799 324.087 120.808 320.111C123.14 316.62 124.668 312.655 125.281 308.502C125.978 305.152 126.324 301.738 126.311 298.316C126.367 292.793 125.946 287.275 125.052 281.824C124.546 279.541 124.223 277.451 123.707 275.546C123.191 273.64 122.521 270.406 122.015 268.123L114.796 269.254L110.239 269.888L102.647 270.818L96.0059 271.587L91.8271 272.229L87.6481 272.874C88.5122 275.924 89.7439 279.363 90.7968 282.418C91.8498 285.473 93.1173 287.588 93.357 285.702C93.3343 284.113 93.1872 282.528 92.9169 280.961C92.9499 280.45 92.8997 279.939 92.7683 279.444L92.7937 278.499C92.654 277.878 92.6075 277.239 92.6556 276.603L96.2472 276.699L104.018 276.151L112.36 275.43L116.151 275.153L117.285 275.183C117.65 276.687 117.925 278.21 118.108 279.747C118.605 282.408 118.912 285.063 119.219 287.721C119.683 292.249 119.687 296.812 119.231 301.341C118.986 304.47 118.396 307.563 117.47 310.562C117.081 311.532 116.613 312.469 116.071 313.363Z" fill="#1E1D1C"/>
<path d="M41.4653 297.252C44.5032 306.703 48.7872 315.972 54.2408 324.893C55.0861 326.181 60.7888 326.459 60.7621 324.646L59.4592 293.422L52.8017 293.276C57.3406 305.22 63.1079 316.942 70.0404 328.312C70.8861 329.597 76.8493 329.76 76.5622 328.063C74.4982 315.459 72.2193 302.802 69.024 290.106L62.3641 289.959C67.0882 303.021 74.0219 315.525 80.9126 328.2C81.5402 329.436 87.7214 329.648 87.4363 327.954L78.6702 292.233L72.1485 292.481C78.1354 304.948 85.5166 317.062 94.1891 328.664C95.0344 329.952 101.175 330.335 100.67 328.587C96.674 315.549 91.668 302.638 85.6824 289.934C85.1364 288.357 78.615 288.604 79.2018 290.01C84.8944 303.845 94.6091 316.291 104.326 328.739C105.172 330.027 111.353 330.239 110.807 328.663L89.9912 275.78L83.4698 276.027L107.597 312.167C108.622 313.678 114.884 313.55 113.983 311.525C107.568 298.784 101.93 285.684 96.988 272.572L90.4691 272.819L105.807 291.673C106.693 292.79 112.833 293.173 112.328 291.426L107.291 277.748C106.609 275.777 100.129 275.853 100.675 277.43L105.671 291.28L112.151 291.203L96.8524 272.177C95.9658 271.062 89.8253 270.678 90.3306 272.426C95.4492 285.762 101.265 299.083 107.597 312.167L113.983 311.525L89.8555 275.385C89.0074 274.098 82.7877 274.057 83.3337 275.633L104.149 328.516L110.671 328.268C101.13 316.045 91.3726 303.768 85.8593 290.156L79.338 290.403C85.0778 302.931 89.9768 315.63 94.0122 328.441L100.534 328.194C91.8609 316.593 84.4808 304.478 78.4909 292.009C77.6864 290.551 71.4668 290.51 72.0128 292.086L80.7764 327.807L87.2575 327.729C80.5438 315.277 73.7864 302.996 69.024 290.106C68.5188 288.358 62.079 288.264 62.3641 289.959C65.5594 302.655 68.0996 315.192 69.9023 327.916L76.4237 327.669C69.6145 316.557 63.94 305.1 59.4592 293.422C58.954 291.675 52.8139 291.29 52.8017 293.276L54.1022 324.499L60.5852 324.423C55.2345 315.708 51.0543 306.643 48.1228 297.398C47.4407 295.429 40.9601 295.505 41.4653 297.252Z" fill="#1E1D1C"/>
<path d="M173.742 312.363C173.773 312.654 173.916 312.921 174.14 313.109L175.713 315.337C178.227 317.555 181.262 319.1 184.535 319.828L192.704 321.122L202.753 321.989C210.434 322.638 218.144 322.873 225.85 322.691L238.515 322.351L244.176 321.822C245.45 321.576 246.62 320.952 247.533 320.03C249.377 318.276 250.604 314.65 251.627 310.46L252.302 307.416C252.538 306.543 252.704 305.654 252.798 304.755C252.812 304.18 252.733 303.606 252.563 303.057C252.443 302.468 252.237 301.9 251.95 301.372C251.02 299.878 249.902 298.51 248.625 297.3C247.228 296.039 245.742 294.877 244.181 293.825C240.987 291.863 237.5 290.424 233.851 289.562C227.065 287.994 219.947 288.786 213.671 291.806C209.585 293.779 205.827 296.368 202.527 299.483C200.494 301.24 199.743 301.449 199.707 300.127C200.468 297.181 201.956 294.474 204.036 292.254C208.24 287.512 213.629 283.972 219.65 281.998C228.643 279.388 238.277 280.138 246.757 284.108C249.145 285.358 251.456 286.749 253.679 288.273C255.979 290.123 258.066 292.224 259.901 294.537C260.907 295.937 261.772 297.435 262.48 299.008C263.071 300.834 263.377 302.74 263.388 304.659C263.442 306.314 263.296 307.969 262.953 309.588C262.611 310.922 262.457 312.251 262.115 313.585C261.45 316.7 260.387 319.716 258.951 322.559C257.344 326.227 254.469 329.192 250.852 330.911C247.61 332.418 244.085 333.222 240.511 333.27L231.626 333.508C219.572 333.573 207.532 332.694 195.615 330.881C190.648 330.133 185.748 329 180.958 327.491C176.195 326.017 172.014 323.087 169.005 319.111C166.673 315.62 165.145 311.655 164.531 307.502C163.834 304.152 163.489 300.738 163.501 297.316C163.445 291.793 163.867 286.275 164.761 280.824C165.267 278.541 165.589 276.451 166.105 274.546C166.622 272.64 167.292 269.406 167.798 267.123L175.016 268.254L179.573 268.888L187.165 269.818L193.807 270.587L197.985 271.229L202.164 271.874C201.3 274.924 200.069 278.363 199.016 281.418C197.963 284.473 196.695 286.588 196.456 284.702C196.478 283.113 196.625 281.528 196.896 279.961C196.863 279.45 196.913 278.939 197.044 278.444L197.019 277.499C197.158 276.878 197.205 276.239 197.157 275.603L193.565 275.699L185.795 275.151L177.452 274.43L173.662 274.153L172.527 274.183C172.162 275.687 171.887 277.21 171.704 278.747C171.208 281.408 170.901 284.063 170.594 286.721C170.129 291.249 170.125 295.812 170.581 300.341C170.826 303.47 171.417 306.563 172.342 309.562C172.732 310.532 173.2 311.469 173.742 312.363Z" fill="#1E1D1C"/>
<path d="M248.347 296.252C245.309 305.703 241.025 314.972 235.572 323.893C234.726 325.181 229.024 325.459 229.05 323.646L230.353 292.422L237.011 292.276C232.472 304.22 226.705 315.942 219.772 327.312C218.926 328.597 212.963 328.76 213.25 327.063C215.314 314.459 217.593 301.802 220.788 289.106L227.448 288.959C222.724 302.021 215.791 314.525 208.9 327.2C208.272 328.436 202.091 328.648 202.376 326.954L211.142 291.233L217.664 291.481C211.677 303.948 204.296 316.062 195.623 327.664C194.778 328.952 188.638 329.335 189.143 327.587C193.139 314.549 198.145 301.638 204.13 288.934C204.676 287.357 211.197 287.604 210.611 289.01C204.918 302.845 195.203 315.291 185.486 327.739C184.641 329.027 178.46 329.239 179.006 327.663L199.821 274.78L206.343 275.027L182.215 311.167C181.191 312.678 174.928 312.55 175.83 310.525C182.244 297.784 187.882 284.684 192.824 271.572L199.343 271.819L184.006 290.673C183.12 291.79 176.979 292.173 177.484 290.426L182.522 276.748C183.203 274.777 189.684 274.853 189.138 276.43L184.142 290.28L177.661 290.203L192.96 271.177C193.847 270.062 199.987 269.678 199.482 271.426C194.363 284.762 188.548 298.083 182.215 311.167L175.83 310.525L199.957 274.385C200.805 273.098 207.025 273.057 206.479 274.633L185.663 327.516L179.141 327.268C188.682 315.045 198.44 302.768 203.953 289.156L210.475 289.403C204.735 301.931 199.836 314.63 195.8 327.441L189.279 327.194C197.952 315.593 205.332 303.478 211.322 291.009C212.126 289.551 218.346 289.51 217.8 291.086L209.036 326.807L202.555 326.729C209.269 314.277 216.026 301.996 220.788 289.106C221.294 287.358 227.734 287.264 227.448 288.959C224.253 301.655 221.713 314.192 219.91 326.916L213.389 326.669C220.198 315.557 225.872 304.1 230.353 292.422C230.859 290.675 236.999 290.29 237.011 292.276L235.71 323.499L229.227 323.423C234.578 314.708 238.758 305.643 241.69 296.398C242.372 294.429 248.852 294.505 248.347 296.252Z" fill="#1E1D1C"/>
<path d="M230.595 138.329C216.525 147.894 201.323 155.311 185.729 161.375C186.711 135.686 236.332 134.209 256.906 104.462C259.127 102.427 260.995 98.8262 265.003 99.7597C277.125 103.981 232.436 137.379 230.595 138.329Z" fill="#1E1D1C"/>
<path d="M18.4697 220.181C18.2618 219.649 17.9785 219.151 17.6287 218.7C16.7462 217.504 15.9722 216.23 15.3159 214.894C14.5779 213.387 14.3562 211.677 14.6852 210.03C15.5075 207.754 16.8803 205.719 18.6798 204.109C20.7822 202.206 23.7257 200.091 26.2486 197.765L34.6585 190.998L49.7962 178.732C54.2114 175.137 55.4729 173.234 54.2114 173.022C52.95 172.811 49.1655 173.868 43.9093 176.406C37.3504 179.814 31.0907 183.776 25.1975 188.248C21.5609 190.886 18.1179 193.784 14.8954 196.919C12.8927 198.673 11.1883 200.745 9.84946 203.051C8.17849 205.613 7.43599 208.675 7.747 211.722C8.03691 214.413 9.05497 216.973 10.6904 219.123C11.8487 220.823 13.1127 222.448 14.4749 223.987C16.8167 226.185 19.3498 228.167 22.0437 229.909C25.2747 232.046 28.7295 233.819 32.3459 235.195C36.4982 236.82 40.9267 237.61 45.3811 237.522C48.3246 237.522 47.9041 236.676 45.3811 235.619L34.4483 231.177C30.2892 229.495 26.3943 227.215 22.8847 224.41C21.3246 223.097 19.8499 221.684 18.4697 220.181ZM59.2573 232.869C59.2573 232.869 57.7855 237.098 55.4729 242.384C53.1528 247.771 50.484 252.999 47.4836 258.034C46.2221 260.148 46.0117 260.996 46.6426 260.996C47.2732 260.996 48.7451 260.361 50.6372 258.458C55.5315 252.819 58.9942 246.07 60.7289 238.79C62.621 230.755 63.0418 226.947 63.4623 224.41C63.6282 223.504 63.6986 222.582 63.6724 221.661C63.6457 220.643 63.4319 219.64 63.0418 218.7C62.2008 216.163 61.9904 219.758 61.3598 223.987C60.7289 228.217 59.2573 232.869 59.2573 232.869Z" fill="#1E1D1C"/>
<path d="M45.5906 248.73C45.5906 248.73 45.8007 247.673 46.4316 245.557C47.0622 243.444 48.3237 240.693 49.5851 237.523C50.7745 234.282 52.4017 231.222 54.4209 228.429L56.1029 226.313L56.9438 225.467C57.154 225.256 56.9439 225.467 57.154 225.467H57.5745L58.6258 227.159C59.8873 229.485 60.0974 230.542 60.5179 229.91C60.8668 228.985 61.01 227.994 60.9374 227.007C60.8647 226.021 60.578 225.062 60.0974 224.199C59.4851 223.126 58.518 222.303 57.3643 221.873C56.639 221.829 55.9146 221.975 55.2619 222.296L54.0004 223.353C52.3127 224.842 50.828 226.549 49.5851 228.429C46.9473 232.562 45.0939 237.151 44.1187 241.963C42.8519 245.704 42.5623 249.709 43.2778 253.594C43.4981 254.357 43.8544 255.073 44.3291 255.708C44.5392 256.132 44.9597 256.132 45.1701 256.343L46.0111 256.765C47.0106 256.99 48.0573 256.839 48.9545 256.343C50.1295 255.854 51.1478 255.049 51.898 254.016C52.5934 253.068 53.0937 251.989 53.3695 250.844C53.79 249.365 53.3698 249.576 52.5286 250.633C51.3614 252.083 49.9353 253.302 48.3237 254.227C48.1428 254.357 47.9354 254.443 47.717 254.48C47.4985 254.515 47.2749 254.502 47.0622 254.44H46.0111C46.0111 254.227 45.8007 254.016 45.8007 253.805C45.8007 253.594 45.5906 252.959 45.5906 252.324C45.4837 251.624 45.4837 250.911 45.5906 250.211V248.73Z" fill="#1E1D1C"/>
<path d="M265.919 85.5631C265.919 85.5631 268.931 89.3095 272.425 94.4244C276.007 99.6032 279.245 105.011 282.119 110.612C283.325 112.965 283.977 113.639 284.336 113.062C284.696 112.486 284.957 110.78 284.303 107.97C281.958 100.295 277.788 93.2983 272.149 87.5797C265.912 81.2887 262.686 78.7424 260.616 76.9176C259.885 76.2514 259.086 75.6639 258.233 75.1648C257.291 74.6116 256.255 74.2371 255.178 74.0604C252.388 73.3884 255.541 75.6217 259.032 78.5993C262.524 81.5774 265.919 85.5631 265.919 85.5631Z" fill="#1E1D1C"/>
<path d="M272.571 107.062C272.571 107.062 271.728 106.27 270.161 104.492C268.597 102.716 266.811 100.001 264.644 97.0483C262.372 94.1217 260.514 90.8971 259.121 87.4655L258.154 84.7269L257.863 83.478C257.791 83.1662 257.863 83.478 257.983 83.2859L258.222 82.9016L260.362 82.9011C263.199 83.0691 264.281 83.477 263.945 82.7335C263.302 81.8894 262.481 81.1962 261.542 80.7025C260.602 80.2088 259.566 79.9266 258.506 79.8759C257.18 79.8262 255.88 80.2428 254.831 81.0532C254.377 81.6912 254.097 82.436 254.017 83.215L254.261 84.9684C254.654 87.3561 255.362 89.682 256.365 91.8854C258.624 96.6428 261.745 100.942 265.571 104.566C268.254 107.847 271.736 110.386 275.681 111.938C276.501 112.169 277.356 112.25 278.204 112.177C278.71 112.226 278.95 111.841 279.262 111.769L280.125 111.239C280.899 110.454 281.359 109.411 281.419 108.31C281.643 106.958 281.491 105.57 280.978 104.298C280.511 103.124 279.814 102.055 278.929 101.152C277.822 99.9283 277.775 100.432 278.257 101.801C278.913 103.691 279.21 105.687 279.133 107.685C279.148 107.924 279.108 108.162 279.017 108.383C278.925 108.603 278.785 108.8 278.608 108.959L278.009 109.92C277.815 109.799 277.503 109.871 277.311 109.752C277.119 109.632 276.421 109.463 275.843 109.103C275.144 108.803 274.495 108.398 273.919 107.903L272.571 107.062Z" fill="#1E1D1C"/>
<path d="M149.106 101.084C148.314 102.255 147.611 103.483 147.002 104.76L146.469 105.581C146.482 105.777 146.495 105.972 146.676 105.764L147.065 105.738L148.011 105.284L148.981 105.22L151.287 104.677L155.704 103.602C161.207 102.515 166.833 102.213 172.419 102.707C176.547 103.224 177.97 104.114 177.632 104.922C177.294 105.73 175.001 106.47 171.543 107.285L158.475 110.301L150.444 112.791L149.472 112.855L147.374 113.581L142.814 115.451L133.68 118.996L134.187 117.784L134.863 116.167L136.046 113.338L137.242 110.704L137.737 109.296L138.426 107.875L140.517 104.004L141.037 102.987L141.401 102.57L141.595 102.558L142.309 101.528L145.202 97.9976C146.731 96.2041 148.383 94.52 150.144 92.9574C152.366 90.9399 154.722 89.0785 157.197 87.3862C159.942 85.2748 163.28 84.0935 166.732 84.0118C168.868 83.8723 168.53 84.6806 166.845 85.7736C165.16 86.8663 162.529 88.4141 159.741 90.5618C157.027 92.5925 154.497 94.8627 152.181 97.3454L150.014 100.042L149.106 101.084Z" fill="#1E1D1C"/>
<path d="M95.7619 113.393L98.8198 113.83L102.439 114.572L104.841 115.603C106 116.028 107.039 116.73 107.869 117.648L102.62 120.446C102.098 119.43 101.475 118.47 100.76 117.581C99.6869 116.401 98.5189 115.313 97.2676 114.327C94.1191 112.124 90.8516 110.096 87.4804 108.256L82.0505 105.179C80.4412 104.132 78.7535 103.211 77.0039 102.424C73.4639 100.604 70.149 99.2981 67.0087 97.977C63.87 96.6556 60.8586 94.7871 61.8839 94.337C62.9075 93.887 66.2697 93.7601 71.3309 94.7283C74.238 95.2431 77.0985 95.9981 79.8832 96.9858L84.703 99.2255L89.3638 101.658C92.9772 103.348 96.4299 105.365 99.6804 107.682C101.463 109.014 103.091 110.542 104.534 112.239C106.264 114.048 107.506 116.27 108.143 118.695L110.68 128.996L103.422 121.444C103.374 121.449 103.327 121.434 103.291 121.404C103.255 121.373 103.233 121.33 103.228 121.283C102.837 120.774 102.31 120.389 101.706 120.172L99.4797 119.125L94.9315 117.932L87.181 116.672C84.004 116.162 80.7642 116.215 77.6067 116.827L72.3701 117.839L66.6074 118.898C63.9973 119.492 64.286 118.752 66.2868 117.321C71.4541 114.167 77.3677 112.458 83.4167 112.373L89.6599 112.699C91.7056 112.81 93.7431 113.042 95.7619 113.393Z" fill="#1E1D1C"/>
<path d="M152.838 148.052C123.172 161.786 109.667 161.784 84.68 148.052L93.8905 168.609C120.22 181.16 111.623 181.374 139.943 168.609L152.838 148.052Z" fill="white"/>
<path d="M132.46 168.912L131.088 169.677L127.486 171.59C123.341 173.379 118.886 174.098 114.456 173.695C108.997 172.985 103.857 170.451 99.7118 166.424C95.5347 162.566 91.9448 157.978 89.0817 152.84C86.3384 148.439 85.1381 146.908 84.7952 148.056C84.4523 149.204 84.9668 153.031 87.0242 158.388C88.1536 161.511 89.7157 164.417 91.6534 166.998C93.9245 170.383 96.7099 173.297 99.8832 175.608C103.5 178.284 107.596 180.047 111.885 180.774C116.346 181.364 120.868 180.774 125.087 179.052C128.599 177.518 131.937 175.527 135.032 173.121C137.238 171.269 139.356 169.289 141.376 167.189C144.634 163.554 146.689 160.876 148.234 158.962C150.823 155.701 152.856 151.941 154.235 147.865C155.263 145.377 154.406 145.569 152.691 147.291L145.661 156.092C143.025 159.401 140.158 162.472 137.088 165.276C135.619 166.6 134.073 167.815 132.46 168.912Z" fill="#1E1D1C"/>
</svg>
