<svg width="200" height="200" viewBox="0 0 200 200" fill="none" xmlns="http://www.w3.org/2000/svg">
<path d="M55.7087 42.7138L55.8954 42.3406H55.522C55.6153 42.2473 56.1754 42.6205 56.2688 42.6205C57.0036 43.3562 57.4927 44.3014 57.669 45.3262C58.1358 47.0989 58.5092 49.1515 60.4695 49.8979C62.4299 50.6443 64.0168 49.8979 65.7905 49.7113C67.5641 49.5247 67.1907 49.618 67.4708 50.2711C67.651 50.8455 67.7026 51.4525 67.622 52.0491C67.5413 52.6457 67.3303 53.2173 67.004 53.7232C66.4439 54.6562 69.1511 54.283 69.5245 53.6299C70.07 52.7981 70.3619 51.8256 70.3646 50.8309C70.3949 50.326 70.3316 49.8199 70.1779 49.3381C69.8951 49.0164 69.5444 48.7614 69.1511 48.5917C67.5641 47.9386 65.6971 48.5917 64.1102 48.7783C59.8161 49.4314 61.3097 42.8071 58.2291 41.3143C56.6422 40.5679 53.5616 41.1277 53.0015 43.087C52.4414 45.0463 55.4286 43.4602 55.7087 42.6205V42.7138ZM155.313 42.9937C154.193 41.8741 152.793 40.1947 153.446 38.5153C154.1 36.8359 155.407 36.556 156.807 36.2761C158.207 35.9962 160.541 35.2498 161.755 33.8503C162.968 32.4508 162.968 31.1446 162.035 30.025C161.101 28.9054 159.047 30.3982 159.514 30.958C159.981 31.5178 159.701 33.8503 158.581 34.5967C157.939 35.0221 157.201 35.2788 156.434 35.3431L153.633 36.2761C152.233 36.9292 150.833 37.9555 150.646 39.5416C150.459 41.1277 151.673 42.8071 152.793 43.9267C153.913 45.0463 155.78 43.4602 155.313 42.9937ZM68.9646 23.9605L76.806 34.69C77.4594 35.623 80.0732 34.5967 79.3264 33.5704L71.3917 22.8409C70.7382 21.9079 68.2178 22.9342 68.9646 23.9605ZM42.2663 87.4045C47.7508 86.1345 53.3484 85.4156 58.9759 85.2586C59.6293 85.2586 60.4695 84.7921 60.4695 84.139C60.4695 83.4859 59.816 83.1127 59.2559 83.1127C53.3414 83.2858 47.4605 84.0674 41.7062 85.4452C41.1461 85.5385 40.4926 86.0983 40.6793 86.7514C40.7288 86.9073 40.8119 87.0504 40.9226 87.1708C41.0334 87.2911 41.1692 87.3858 41.3205 87.448C41.4717 87.5103 41.6348 87.5386 41.7982 87.5311C41.9616 87.5236 42.1214 87.4804 42.2663 87.4045ZM52.815 125.191C50.948 122.672 49.081 119.686 50.2012 116.421C50.2995 116.055 50.4572 115.709 50.668 115.394L50.948 115.021C51.2592 114.835 51.1658 114.835 50.668 115.021L51.5081 115.488L52.535 116.234C53.5628 117.074 54.8482 117.535 56.1756 117.54C62.7101 117.54 65.1372 109.423 62.15 104.385C61.6833 103.545 59.0695 104.478 59.4429 105.131C60.248 106.514 60.6876 108.079 60.7203 109.679C60.7529 111.279 60.3776 112.86 59.6296 114.275C58.9761 115.301 57.9493 116.421 56.6424 116.048C55.3355 115.674 54.3086 114.368 53.0017 113.808C50.2012 112.689 47.7741 115.021 47.3074 117.634C46.8406 120.246 48.4276 123.698 50.2946 126.217C50.8547 126.87 53.4685 125.937 52.815 125.191ZM125.441 136.48L125.628 165.403C125.628 165.963 128.335 165.59 128.335 164.657L128.149 135.827C128.149 135.174 125.441 135.547 125.441 136.48ZM142.618 130.882C144.132 131.819 145.856 132.361 147.634 132.459C149.412 132.556 151.186 132.207 152.793 131.442L150.833 130.882C150.179 133.028 149.526 135.734 151.113 137.693C151.773 138.506 152.714 139.043 153.75 139.198C154.786 139.354 155.843 139.117 156.714 138.533C157.181 138.253 157.461 137.6 156.901 137.227C156.583 137.099 156.239 137.05 155.898 137.082C155.557 137.115 155.228 137.228 154.94 137.413C154.94 137.32 155.22 137.413 154.94 137.32L154.38 137.133C153.84 136.848 153.412 136.387 153.167 135.827C152.42 134.148 153.073 132.189 153.54 130.509C154.007 128.83 153.26 129.949 152.98 129.856C152.768 129.778 152.542 129.745 152.316 129.762C152.091 129.778 151.872 129.842 151.673 129.949C150.542 130.423 149.312 130.612 148.091 130.498C146.87 130.384 145.696 129.971 144.672 129.296C144.377 129.138 144.042 129.072 143.71 129.105C143.377 129.138 143.062 129.27 142.805 129.483C142.338 129.763 142.058 130.416 142.618 130.789V130.882ZM159.514 112.409L177.624 123.885C178.464 124.445 180.891 123.232 179.678 122.485L161.661 111.009C160.821 110.45 158.3 111.662 159.514 112.409ZM168.102 79.194C172.408 79.4632 176.728 79.0219 180.891 77.8878C181.171 77.7945 182.292 77.5146 182.198 77.1414C182.105 76.7682 180.891 77.0481 180.705 77.1414C177.178 78.0859 173.517 78.4328 169.876 78.1677C169.212 78.1658 168.562 78.3606 168.009 78.7275C167.542 79.0074 167.636 79.194 168.102 79.194ZM100.704 21.8146V21.3481L100.891 21.1615C100.797 21.2548 100.891 21.1615 100.891 21.0682C100.891 20.9749 100.984 21.0682 100.891 21.1615C100.797 21.2548 101.077 21.0682 100.891 21.0682H101.264L101.731 21.628C101.921 22.135 102.016 22.6727 102.011 23.2141C101.892 24.5044 101.477 25.7499 100.797 26.8528C100.237 27.8791 99.3034 29.4652 100.611 30.3049C101.917 31.1446 103.504 30.6781 104.718 30.2116C105.931 29.7451 105.745 29.5585 105.371 29.092C104.998 28.6255 104.064 28.8121 103.598 28.9987C103.131 29.1853 103.784 28.9054 103.504 28.9987C103.224 29.092 103.598 28.9987 103.318 28.9987H103.038C102.758 28.9054 103.411 28.9987 103.038 28.9987C103.026 28.9987 103.013 28.9963 103.002 28.9916C102.991 28.9869 102.98 28.98 102.972 28.9713C102.963 28.9627 102.956 28.9525 102.951 28.9412C102.946 28.9299 102.944 28.9177 102.944 28.9054C102.758 28.9054 103.038 28.9987 102.944 28.9054H102.758C102.851 28.9054 102.851 28.9987 102.851 28.9054C102.851 28.8121 102.664 28.6255 102.664 28.3456C102.897 27.6283 103.21 26.9397 103.598 26.293C103.965 25.6355 104.277 24.949 104.531 24.2404C104.737 23.6472 104.818 23.0179 104.77 22.3919C104.722 21.7658 104.545 21.1564 104.251 20.6017C103.947 20.0501 103.477 19.6087 102.907 19.3406C102.336 19.0725 101.696 18.9914 101.077 19.1089C99.7702 19.2955 97.9032 20.1352 97.9965 21.7213C98.0899 23.3074 98.65 22.4677 99.1167 22.3744C99.5835 22.2811 100.704 22.0012 100.704 21.4414V21.8146ZM124.041 29.9317C125.472 24.9112 127.643 20.1316 130.482 15.7501C130.762 15.2836 129.549 15.2836 129.362 15.3769C129.06 15.3826 128.762 15.4521 128.489 15.5807C128.215 15.7092 127.972 15.8941 127.775 16.1233C124.974 20.5254 122.806 25.2993 121.334 30.3049C121.147 31.0513 123.761 30.6781 124.041 29.9317ZM20.1426 104.478C20.1426 105.013 20.3013 105.537 20.5988 105.982C20.8964 106.427 21.3192 106.773 21.8137 106.978C22.3084 107.183 22.8527 107.236 23.3779 107.132C23.9029 107.028 24.3853 106.77 24.764 106.392C25.1425 106.013 25.4003 105.531 25.5049 105.006C25.6093 104.481 25.5557 103.937 25.3508 103.443C25.1458 102.949 24.7988 102.526 24.3537 102.229C23.8329 101.881 23.2077 101.725 22.5845 101.786C21.9613 101.847 21.3786 102.123 20.9355 102.565C20.428 103.072 20.1428 103.76 20.1426 104.478Z" fill="#5158F6"/>
<path d="M22.8498 107.651C22.2221 107.651 21.6084 107.465 21.0865 107.116C20.5646 106.768 20.1578 106.272 19.9175 105.692C19.6772 105.113 19.6143 104.475 19.7368 103.859C19.8592 103.244 20.1616 102.679 20.6055 102.235C21.0498 101.792 21.6152 101.49 22.2306 101.367C22.8463 101.245 23.4844 101.308 24.0644 101.548C24.6443 101.788 25.14 102.194 25.4888 102.716C25.8375 103.237 26.0237 103.851 26.0237 104.478C26.0237 105.32 25.6893 106.127 25.0941 106.721C24.4989 107.316 23.6916 107.651 22.8498 107.651ZM22.8498 102.239C22.4067 102.239 21.9735 102.37 21.6051 102.617C21.2368 102.863 20.9496 103.212 20.7799 103.621C20.6104 104.031 20.5661 104.481 20.6526 104.915C20.739 105.35 20.9524 105.749 21.2656 106.062C21.5792 106.375 21.9783 106.589 22.4127 106.675C22.8473 106.761 23.2978 106.717 23.7071 106.547C24.1167 106.378 24.4667 106.091 24.7126 105.722C25.0007 105.292 25.1304 104.774 25.0796 104.259C25.0288 103.743 24.8006 103.261 24.434 102.895C24.0138 102.475 23.444 102.239 22.8498 102.239ZM155.873 173.147C158.864 173.147 161.288 170.724 161.288 167.736C161.288 164.747 158.864 162.324 155.873 162.324C152.883 162.324 150.459 164.747 150.459 167.736C150.459 170.724 152.883 173.147 155.873 173.147Z" fill="#5158F6"/>
<path d="M155.873 173.614C154.71 173.614 153.573 173.269 152.606 172.623C151.639 171.977 150.885 171.059 150.44 169.985C149.995 168.911 149.878 167.729 150.105 166.589C150.332 165.449 150.892 164.402 151.715 163.58C152.537 162.757 153.585 162.197 154.726 161.971C155.866 161.744 157.049 161.86 158.124 162.305C158.837 162.6 159.485 163.033 160.031 163.579C160.577 164.125 161.01 164.773 161.306 165.486C161.601 166.199 161.754 166.963 161.754 167.735C161.754 168.507 161.602 169.272 161.307 169.985C161.011 170.698 160.578 171.346 160.032 171.892C159.486 172.438 158.837 172.871 158.124 173.166C157.41 173.462 156.645 173.614 155.873 173.614ZM155.873 162.791C154.895 162.791 153.938 163.081 153.125 163.624C152.311 164.167 151.677 164.94 151.302 165.843C150.928 166.747 150.83 167.741 151.021 168.701C151.212 169.66 151.683 170.541 152.375 171.232C153.067 171.924 153.948 172.395 154.908 172.586C155.868 172.776 156.863 172.679 157.767 172.304C158.67 171.93 159.443 171.296 159.987 170.483C160.531 169.67 160.821 168.714 160.821 167.736C160.821 167.086 160.693 166.443 160.444 165.843C160.196 165.243 159.831 164.698 159.372 164.239C158.443 163.312 157.185 162.791 155.873 162.791ZM107.238 64.0796C105.135 64.6943 103.17 65.708 101.451 67.0652C97.9428 69.8722 95.3563 73.6659 94.0249 77.9569C92.6939 82.2471 92.679 86.8378 93.9823 91.1366L96.7828 99.7202C96.7828 99.7202 112.746 110.356 126.562 105.411C134.496 102.519 139.164 96.3614 141.684 88.2443L144.952 77.7947C144.952 77.7947 132.816 67.5317 128.335 65.6657C123.79 64.0089 118.983 63.1871 114.146 63.2399C111.815 63.1905 109.489 63.4732 107.238 64.0796Z" fill="#5158F6"/>
<path d="M104.531 81.7123C104.206 83.2868 104.194 84.9099 104.497 86.4887C104.8 88.0676 105.411 89.5714 106.295 90.914C108.081 93.6263 110.871 95.5182 114.052 96.1738C117.233 96.8297 120.545 96.1955 123.259 94.4106C124.602 93.5273 125.759 92.3879 126.662 91.0576C127.565 89.7272 128.197 88.232 128.522 86.6572C128.847 85.0828 128.858 83.4598 128.555 81.881C128.253 80.3019 127.642 78.798 126.757 77.4555C125.873 76.1125 124.733 74.9569 123.402 74.0545C120.713 72.2317 117.411 71.5511 114.221 72.1622C112.641 72.4647 111.137 73.0752 109.793 73.9589C108.45 74.8425 107.294 75.9819 106.391 77.3123C105.488 78.6426 104.856 80.1378 104.531 81.7123Z" fill="white"/>
<path d="M142.524 61.3733C142.144 61.4249 141.787 61.5871 141.497 61.8398L139.63 62.9594C137.644 64.2578 135.514 65.3223 133.283 66.1316C131.07 67.0123 128.745 67.5777 126.375 67.811C124.694 68.0909 123.574 67.9976 123.201 68.4641C122.827 68.9306 123.201 69.1172 123.668 69.5837C124.386 70.2217 125.253 70.6706 126.188 70.8899C127.473 71.1831 128.795 71.2775 130.109 71.1698C131.711 71.087 133.287 70.7403 134.776 70.1435C137.545 69.2198 139.959 67.4594 141.684 65.1053C142.292 64.3796 142.709 63.5137 142.898 62.5862C142.991 61.8398 142.804 61.4666 142.524 61.3733ZM135.523 52.4165C134.963 52.2299 134.123 53.2562 133.096 54.6557C131.74 56.4838 130.275 58.2286 128.709 59.8805C127.084 61.4691 125.37 62.9643 123.575 64.3589C122.174 65.4785 121.241 66.3182 121.428 66.878C121.614 67.4378 122.921 67.6244 124.975 67.0646C126.114 66.7242 127.21 66.2546 128.242 65.6651C129.529 64.8736 130.72 63.9342 131.789 62.8661C132.83 61.8193 133.711 60.6246 134.403 59.3207C135.034 58.2769 135.506 57.1448 135.803 55.9619C136.364 53.9093 136.083 52.6031 135.523 52.4165ZM152.699 67.7178C152.232 67.3446 151.206 67.9044 149.899 68.6508C148.248 69.6355 146.532 70.5083 144.764 71.2632C142.936 71.8981 141.064 72.397 139.163 72.756C137.67 73.1292 136.55 73.4091 136.456 73.9689C136.363 74.5287 137.203 75.3684 139.07 75.8349C140.148 76.0326 141.242 76.1263 142.337 76.1148C143.686 76.0161 145.009 75.7011 146.258 75.1818C147.526 74.6985 148.721 74.0389 149.805 73.2225C150.672 72.5331 151.427 71.715 152.046 70.7967C153.073 69.2106 153.166 67.9977 152.699 67.7178ZM119.28 53.2562C118.72 53.3495 118.347 54.3758 117.974 55.682C117.519 57.4063 116.926 59.0912 116.2 60.7202C115.408 62.3067 114.503 63.8345 113.493 65.2919C112.746 66.5048 112.186 67.3445 112.466 67.9043C112.746 68.4641 113.866 68.4641 115.453 67.6244C116.366 67.112 117.187 66.4497 117.88 65.6651C118.773 64.739 119.499 63.6658 120.027 62.4929C120.572 61.3465 120.919 60.1163 121.054 58.8542C121.218 57.8312 121.186 56.7865 120.961 55.7753C120.587 54.0026 119.841 53.0696 119.28 53.2562ZM100.61 61.2801C100.423 61.9332 100.984 62.5863 101.45 63.3327C102.026 64.306 102.495 65.3382 102.851 66.4116C103.504 68.8374 103.224 71.823 104.344 72.2895C105.464 72.756 105.651 72.0096 106.398 70.7967C107.24 69.0887 107.439 67.1345 106.958 65.292C106.719 64.3214 106.257 63.4199 105.609 62.6589C104.961 61.8977 104.144 61.2979 103.224 60.9069C101.73 60.3471 100.704 60.7203 100.61 61.2801ZM92.5822 72.9425C92.7943 73.5462 93.2281 74.0465 93.7957 74.342L95.5694 75.5549L97.4364 76.5812C97.6792 76.7851 97.9642 76.9327 98.2709 77.0133C98.5775 77.094 98.8983 77.1057 99.21 77.0477C99.7701 76.9544 100.237 76.3013 100.144 75.1817C100.016 74.5003 99.7409 73.8551 99.3379 73.2911C98.9348 72.7269 98.4132 72.2577 97.8098 71.9162C97.2373 71.5412 96.5893 71.2967 95.9117 71.1999C95.2342 71.1032 94.5437 71.1566 93.8891 71.3564C92.8622 71.7296 92.4888 72.3827 92.5822 72.9425Z" fill="#5158F6"/>
<path d="M165.115 81.7135V80.4073C165.122 79.9081 165.091 79.409 165.021 78.9145V77.9815C165.021 77.6083 164.928 77.2351 164.928 76.8619C164.745 76.0005 164.62 75.1277 164.555 74.2495C164.507 73.7752 164.413 73.3065 164.275 72.85L163.995 71.2639C163.808 70.7041 163.715 70.1443 163.528 69.5845C163.416 68.9524 163.26 68.3289 163.061 67.7185C162.688 66.5056 162.221 65.2927 161.754 63.8932L159.887 59.8813C159.181 58.443 158.402 57.0417 157.553 55.6828C156.527 54.2833 155.593 52.7905 154.473 51.391C153.353 49.9915 153.259 50.0848 152.699 49.3384L151.766 48.3121L150.739 47.2858L148.685 45.3265L146.351 43.4605L145.138 42.5275L143.831 41.6878L141.217 40.0084L138.417 38.5156L137.016 37.8625L135.429 37.2094L132.442 36.0898L129.175 35.1568C124.692 34.0435 120.063 33.6343 115.453 33.9439H113.679L111.999 34.2238C110.785 34.4104 109.572 34.5037 108.451 34.7836L104.904 35.7166C104.32 35.8187 103.753 36.0074 103.224 36.2764L101.543 36.8362C92.4103 40.4582 84.6185 46.8122 79.2331 55.0297C76.6335 59.0251 74.592 63.357 73.1653 67.9051C72.7919 69.0247 72.6052 70.1443 72.3252 71.2639L71.9518 72.9433L71.6717 74.716C71.5784 75.8356 71.3917 76.9552 71.205 78.0748C71.0183 79.1944 71.205 80.4073 71.1116 81.5269C70.9766 89.9454 73.07 98.2498 77.1794 105.598C78.7698 108.398 80.6469 111.024 82.7804 113.435C84.1122 114.943 85.616 116.29 87.2612 117.447C89.5949 119.126 90.2484 119.22 89.6883 118.1C89.1282 116.981 87.0745 114.648 84.6474 111.009C83.3152 108.804 82.1 106.531 81.0067 104.198C78.2192 97.9451 76.7876 91.1724 76.806 84.3259C76.8835 83.8323 76.9148 83.3325 76.8993 82.8331C76.8993 82.3666 76.9927 81.8068 76.9927 81.3403L77.2727 78.2614C77.6159 76.1827 78.0835 74.1264 78.673 72.1036C81.1785 63.1339 86.5157 55.2142 93.889 49.525C102.051 43.2309 112.28 40.2338 122.547 41.128C133.338 42.221 143.265 47.5168 150.179 55.8694C153.534 59.7892 156.101 64.3192 157.74 69.2113C159.723 74.7625 160.563 80.6573 160.21 86.5414C159.858 92.4257 158.319 98.178 155.686 103.452C153.378 108.24 150.142 112.522 146.165 116.048C145.371 116.788 144.529 117.473 143.644 118.1C142.881 118.752 142.07 119.344 141.217 119.873L138.977 121.366L136.643 122.485L134.589 123.512L132.536 124.258L130.575 125.004L128.708 125.471L126.935 125.937L125.254 126.311L121.8 126.87L118.253 127.15H114.519C111.467 127.143 108.426 126.767 105.464 126.031C102.01 125.191 100.703 124.818 100.983 125.284C101.263 125.751 103.037 126.777 106.304 127.99C110.577 129.558 115.103 130.317 119.653 130.229C125.769 130.215 131.812 128.911 137.39 126.404C143.374 123.653 148.716 119.68 153.073 114.741C157.052 110.258 160.155 105.068 162.221 99.4405C163.071 97.1278 163.757 94.7584 164.275 92.3497C164.371 91.3153 164.527 90.2872 164.741 89.2708C164.835 88.3378 165.021 87.4981 165.021 86.6584C165.021 85.8187 165.115 83.7661 165.208 82.9264C165.301 82.0867 165.115 82.18 165.115 81.9934V81.7135Z" fill="#11151A"/>
<path d="M76.1529 158.405C76.1529 158.405 73.4458 161.857 69.1517 167.641L61.3103 177.718C60.637 178.621 59.8875 179.464 59.0699 180.237C58.322 181.055 57.4753 181.775 56.5494 182.383C55.7539 182.894 54.8657 183.242 53.9356 183.409H52.9088L52.0686 182.943C51.4603 182.339 51.0668 181.553 50.9484 180.703C50.7306 179.679 50.7952 178.616 51.1351 177.625C51.6952 175.385 53.3755 173.146 55.1492 170.72L66.0711 156.072C73.2591 146.276 80.167 136.666 85.768 128.549C96.8766 112.221 91.649 116.606 79.2335 131.441C72.979 138.905 64.8576 149.075 56.0827 160.551L49.3615 169.414C48.0968 171.139 47.0613 173.021 46.2809 175.012C46.0389 175.585 45.8514 176.178 45.7208 176.785L45.4408 178.651C45.3326 179.908 45.4592 181.173 45.8142 182.383C46.1883 183.709 46.823 184.946 47.6812 186.022C48.6306 187.15 49.9001 187.964 51.3218 188.354C52.7128 188.788 54.1925 188.852 55.6159 188.541C56.8382 188.184 58.0018 187.649 59.0699 186.955C60.9242 185.704 62.5635 184.16 63.9241 182.383C64.2889 181.966 64.6316 181.53 64.9509 181.077L65.7911 179.864L67.5647 177.438C76.713 164.283 83.0608 154.579 87.915 147.302L98.4636 131.161L101.637 126.03C102.104 125.283 102.571 124.63 102.944 123.884C103.501 123.087 103.824 122.15 103.877 121.178C103.94 120.679 103.909 120.173 103.784 119.685C103.666 119.178 103.444 118.702 103.131 118.286C102.567 117.495 101.79 116.88 100.89 116.513C98.9381 115.493 96.6785 115.228 94.5429 115.767C93.7569 115.903 93.0541 116.337 92.5825 116.98C92.3958 117.353 92.4892 117.539 92.6759 117.446L93.4227 117.073C94.0905 116.889 94.7861 116.825 95.4764 116.886C96.6091 116.955 97.7181 117.24 98.7436 117.726C99.3658 117.955 99.9369 118.303 100.424 118.752C100.845 119.058 101.169 119.479 101.357 119.965C101.483 120.53 101.417 121.121 101.17 121.645C100.742 122.414 100.275 123.162 99.7705 123.884L96.4099 128.922C91.7424 135.919 86.7948 143.29 82.7808 148.888L76.1529 158.405Z" fill="#11151A"/>
<path d="M83.9937 134.054L77.5525 141.798L71.4848 148.516C69.5244 150.662 67.0973 152.994 66.5372 155.98C66.3996 156.478 66.3617 156.998 66.4258 157.51C66.4899 158.023 66.6546 158.518 66.9106 158.966C67.1907 159.432 67.3774 159.432 67.4707 159.152C67.4655 158.653 67.4967 158.154 67.5641 157.659C67.769 156.725 68.1491 155.839 68.6843 155.047C69.5088 154.013 70.414 153.046 71.3914 152.155L75.1254 148.516C77.8275 145.682 80.3232 142.657 82.5934 139.466L90.3415 127.71C91.4864 126.187 92.3697 124.485 92.9553 122.672C93.7954 120.339 91.6484 123.325 89.2213 126.777C86.7942 130.229 83.9937 134.054 83.9937 134.054Z" fill="#11151A"/>
<path d="M60.9361 157.006C62.0563 157.566 63.4565 157.659 64.6701 158.126C65.7299 158.524 66.7339 159.057 67.6573 159.712C69.4963 161.066 70.9192 162.908 71.7646 165.03C72.0447 165.87 74.7518 165.123 74.4718 164.284C73.561 162.071 72.0792 160.139 70.1777 158.686C69.1945 157.97 68.1289 157.375 67.0038 156.913C65.6969 156.446 64.2967 156.353 63.0831 155.7C62.4476 155.558 61.7818 155.657 61.2161 155.98C60.8427 156.26 60.376 156.726 60.9361 157.006Z" fill="#11151A"/>
<path d="M53.0012 184.996C53.4832 180.623 53.4519 176.208 52.9078 171.841L50.2007 172.587C51.9133 177.193 54.1696 181.578 56.9218 185.649C57.3886 186.396 59.8157 185.743 59.5356 184.716C58.0082 178.95 56.8545 173.091 56.0817 167.176L53.3746 167.922C55.325 172.651 57.832 177.13 60.8426 181.264C61.4027 181.917 63.7365 181.358 63.4564 180.331C61.9748 174.365 60.008 168.53 57.5754 162.884L54.9616 163.817C57.919 168.749 61.3587 173.375 65.2301 177.626C65.7902 178.279 68.0306 177.812 67.8439 176.693C66.5494 170.879 64.2767 165.326 61.1226 160.272L58.6022 161.298L67.377 171.468C67.9371 172.121 70.2709 171.561 69.9908 170.628C68.4039 165.497 65.4167 161.018 62.5228 156.633L60.0025 157.753L64.2031 162.324L66.3502 164.564C66.9718 165.341 67.6938 166.031 68.4973 166.616C69.5242 167.363 71.4844 166.896 71.7645 165.497C72.0445 164.097 70.9243 162.044 69.9908 160.832C69.0573 159.619 66.8169 161.018 67.4704 161.951C67.9959 162.557 68.4071 163.252 68.684 164.004C68.7774 164.47 69.2441 165.497 68.8707 166.056L69.6174 165.497H69.4307L70.7376 165.31L69.8041 164.377L68.8707 163.351L66.7236 161.111C65.3233 159.619 63.8297 158.126 62.5228 156.54C61.2159 154.954 59.349 156.633 60.0025 157.659C62.8963 161.951 65.7901 166.243 67.2838 171.188L69.8976 170.348L61.1226 160.178C60.4691 159.432 57.9488 160.178 58.6022 161.205C61.6421 166.195 63.8492 171.647 65.1366 177.346L67.7504 176.413C63.7364 172.307 60.5625 167.456 57.4819 162.604C57.0152 161.858 54.4947 162.604 54.8681 163.537C57.3008 169.183 59.2678 175.018 60.7492 180.984L63.363 180.051C60.3879 176.094 57.9403 171.766 56.0817 167.176C55.6149 166.243 53.1879 166.896 53.3746 167.922C54.1564 173.836 55.3101 179.695 56.8285 185.463L59.4423 184.53C56.7341 180.595 54.5383 176.331 52.9078 171.841C52.441 170.908 50.014 171.561 50.2007 172.587C50.6981 176.832 50.7295 181.118 50.294 185.369C50.2006 186.489 52.9079 186.023 53.0012 184.996Z" fill="#11151A"/>
</svg>
