<svg width="100" height="100" viewBox="0 0 100 100" fill="none" xmlns="http://www.w3.org/2000/svg">
<path d="M13.5304 18.0857C10.7853 18.3946 8.07603 20.5844 7.12436 25.0455C6.46342 28.1432 6.7686 31.355 6.77554 34.4939C6.8327 60.2457 6.8415 57.6685 6.8415 64.3256C6.84986 68.1027 7.02269 72.3001 9.68223 74.9821C12.098 77.4184 15.8317 77.8383 19.2556 78.0587C32.8421 78.9331 46.4775 78.8406 60.0765 78.1685C59.9442 80.3879 60.2203 82.6321 60.9697 84.7255C64.9912 95.9602 79.3497 99.8125 87.8858 92.5106C90.7109 90.0939 92.5069 86.5054 92.8299 82.8256C95.2326 73.0219 88.1278 63.7838 78.4485 63.1042C79.1899 50.342 79.0477 37.0575 78.0121 23.6635C78.0121 20.4529 75.4001 17.8416 72.1902 17.8416C69.6741 17.7417 69.5301 17.7256 69.3 17.7125C69.3119 17.638 69.3352 17.5669 69.3301 17.4884C69.2337 16.0437 69.114 14.2457 68.3736 12.7581C66.5731 9.14811 61.5596 9.15569 61.6431 17.3252C59.1006 17.2222 56.5577 17.1388 54.0189 17.0758C53.92 15.6002 53.7882 13.9583 53.0763 12.5307C52.1994 10.7681 50.2601 9.62813 48.5988 10.5789C46.719 11.6475 46.3432 14.7803 46.3448 16.9447C44.3434 16.9311 42.4059 16.9269 40.5451 16.9361C40.6102 15.9599 40.3132 13.4931 39.6064 12.0732C39.076 11.0097 38.1831 10.199 37.2179 9.90602C33.9073 8.89674 32.7476 13.3093 32.8802 17.045C30.9836 17.0858 29.0433 17.1419 27.0548 17.2179C26.8647 14.5665 26.2899 11.5946 23.7487 10.8197C21.5157 10.1305 20.0853 12.1347 19.631 14.6805C19.4613 15.6308 19.3943 16.6064 19.4059 17.5815C14.4022 17.839 14.2159 17.8917 13.5304 18.0857ZM76.484 32.1537C77.0069 42.6849 76.9789 53.0557 76.3916 63.0942C75.8867 63.1235 75.3892 63.1758 74.8978 63.2511C69.678 63.242 63.4772 66.7607 61.0588 73.4108C45.8818 74.4809 33.5364 75.0817 17.3957 73.7732C15.1496 73.7732 11.341 71.2743 11.339 69.3078C10.3905 54.9416 10.1858 42.7181 10.7197 32.1676C81.9073 32.1543 76.0148 32.1863 76.484 32.1537ZM91.2499 79.0293C91.2499 86.708 85.0019 92.9553 77.3225 92.9553C69.6431 92.9553 63.3958 86.708 63.3958 79.0293C63.3958 71.3492 69.6431 65.1019 77.3225 65.1019C85.0019 65.1019 91.2499 71.3492 91.2499 79.0293ZM65.387 12.5561C66.9855 13.0425 67.1732 16.034 67.2778 17.6048C66.0912 17.5425 64.9008 17.4705 63.7177 17.4153C63.6897 15.8232 63.9957 12.1376 65.387 12.5561ZM50.0904 12.3274C51.6127 12.7905 51.8534 15.5534 51.9555 17.0367C50.7719 17.0124 49.5862 16.9847 48.4109 16.9695C48.408 15.4263 48.7479 11.9268 50.0904 12.3274ZM36.6199 11.8712C38.2252 12.3596 38.4099 15.3795 38.5159 16.9535C37.3108 16.9652 36.1253 16.9814 34.9631 17.003C34.9012 15.3443 35.1914 11.4402 36.6199 11.8712ZM22.6738 12.821C23.2234 12.5045 23.9944 13.2964 24.2965 13.9019C24.7786 14.8708 24.9154 16.1232 25.0012 17.3042C23.8359 17.3551 22.6601 17.4117 21.4727 17.4741C21.466 16.2259 21.6409 13.4072 22.6738 12.821ZM20.1928 22.3347C18.6565 23.6506 19.7485 25.9181 21.9146 25.9181C23.2622 25.9181 24.3547 24.979 24.3547 23.8205C24.3547 22.744 23.4079 21.8672 22.193 21.747C21.9476 21.0304 21.7573 20.2905 21.6381 19.5232C25.5989 19.3156 29.4393 19.1718 33.0898 19.0958C33.2424 20.0149 33.4671 20.9143 33.777 21.7677C32.395 23.1379 33.5438 25.2331 35.6132 25.2331C36.9608 25.2331 38.0533 24.294 38.0533 23.1355C38.0533 22.0145 37.0277 21.107 35.7406 21.049C35.5068 20.4065 35.3248 19.7428 35.1942 19.0542C38.7274 18.9894 42.4424 18.9705 46.4738 19.0002C46.62 20.1262 46.8834 21.2274 47.2626 22.2633C45.5822 23.557 46.6684 25.9181 48.8838 25.9181C50.2314 25.9181 51.3238 24.979 51.3238 23.8205C51.3238 22.7849 50.449 21.9299 49.3011 21.7591C48.9639 20.8925 48.7155 19.9777 48.5708 19.0277C52.9428 19.0863 57.3766 19.2049 61.7951 19.3859C61.9556 20.5316 62.2394 21.6469 62.6416 22.6936C61.1287 24.0168 62.226 26.2605 64.3803 26.2605C65.728 26.2605 66.8204 25.3214 66.8204 24.1629C66.8204 23.0792 65.8609 22.1979 64.6344 22.0873C64.3037 21.2602 64.0642 20.3845 63.9106 19.477C64.1983 19.4906 65.5421 19.5495 72.1902 19.8964C74.267 19.8964 75.9573 21.586 75.9606 23.7424C76.1248 25.8717 76.2585 27.9942 76.3779 30.1128H10.8337C10.9695 27.8904 11.1365 25.7376 11.341 23.6635C11.341 21.586 13.0312 19.8964 15.179 19.8937C16.6293 19.7941 18.0944 19.7119 19.5611 19.6365C19.6922 20.5623 19.9032 21.4683 20.1928 22.3347Z" fill="#11151A"/>
<path d="M17.6836 47.6H26.9302C27.4974 47.6 27.9576 47.1398 27.9576 46.5726V38.8458C27.9576 38.2785 27.4974 37.8184 26.9302 37.8184H17.6836C17.1164 37.8184 16.6562 38.2785 16.6562 38.8458V46.5726C16.6562 47.1398 17.1164 47.6 17.6836 47.6ZM18.711 39.8732H25.9028V45.5452H18.711V39.8732ZM38.4028 47.6H47.6494C48.2166 47.6 48.6768 47.1398 48.6768 46.5726V38.8458C48.6768 38.2785 48.2166 37.8184 47.6494 37.8184H38.4028C37.8356 37.8184 37.3754 38.2785 37.3754 38.8458V46.5726C37.3754 47.1398 37.8356 47.6 38.4028 47.6ZM39.4302 39.8732H46.622V45.5452H39.4302V39.8732ZM58.2658 47.7713H67.5124C68.0796 47.7713 68.5398 47.3111 68.5398 46.7439V39.017C68.5398 38.4498 68.0796 37.9896 67.5124 37.9896H58.2658C57.6986 37.9896 57.2384 38.4498 57.2384 39.017V46.7439C57.2384 47.3111 57.6986 47.7713 58.2658 47.7713ZM59.2932 40.0444H66.485V45.7165H59.2932V40.0444ZM18.0194 54.4079C17.4522 54.4079 16.992 54.8681 16.992 55.4353V63.1608C16.992 63.728 17.4522 64.1882 18.0194 64.1882H27.266C27.8332 64.1882 28.2934 63.728 28.2934 63.1608V55.4353C28.2934 54.8681 27.8332 54.4079 27.266 54.4079H18.0194ZM26.2386 62.1334H19.0468V56.4627H26.2386V62.1334ZM38.7386 54.4079C38.1714 54.4079 37.7112 54.8681 37.7112 55.4353V63.1608C37.7112 63.728 38.1714 64.1882 38.7386 64.1882H47.9852C48.5524 64.1882 49.0126 63.728 49.0126 63.1608V55.4353C49.0126 54.8681 48.5524 54.4079 47.9852 54.4079H38.7386ZM46.9578 62.1334H39.766V56.4627H46.9578V62.1334ZM58.6016 54.5791C58.0344 54.5791 57.5742 55.0393 57.5742 55.6065V63.3321C57.5742 63.8993 58.0344 64.3595 58.6016 64.3595H67.8482C68.4154 64.3595 68.8756 63.8993 68.8756 63.3321V55.6065C68.8756 55.0393 68.4154 54.5791 67.8482 54.5791H58.6016ZM66.8208 62.3047H59.629V56.6339H66.8208V62.3047ZM70.4013 77.0467C70 76.6454 69.3498 76.6454 68.9485 77.0467C68.5472 77.4481 68.5472 78.0982 68.9485 78.4995L75.2527 84.8044C75.6539 85.2056 76.3044 85.2055 76.7055 84.8044L87.4677 74.0421C88.4293 73.0806 86.9759 71.6284 86.0149 72.5893L75.9791 82.6252L70.4013 77.0467Z" fill="#5158F6"/>
<path d="M17.6934 47.7817H26.94C27.5072 47.7817 27.9674 47.3215 27.9674 46.7543V39.0274C27.9674 38.4602 27.5072 38 26.94 38H17.6934C17.1262 38 16.666 38.4602 16.666 39.0274V46.7543C16.666 47.3215 17.1262 47.7817 17.6934 47.7817ZM18.7208 40.0548H25.9126V45.7269H18.7208V40.0548ZM38.4126 47.7817H47.6592C48.2264 47.7817 48.6866 47.3215 48.6866 46.7543V39.0274C48.6866 38.4602 48.2264 38 47.6592 38H38.4126C37.8454 38 37.3852 38.4602 37.3852 39.0274V46.7543C37.3852 47.3215 37.8454 47.7817 38.4126 47.7817ZM39.44 40.0548H46.6318V45.7269H39.44V40.0548ZM58.2756 47.9529H67.5222C68.0894 47.9529 68.5496 47.4927 68.5496 46.9255V39.1986C68.5496 38.6314 68.0894 38.1712 67.5222 38.1712H58.2756C57.7084 38.1712 57.2482 38.6314 57.2482 39.1986V46.9255C57.2482 47.4927 57.7084 47.9529 58.2756 47.9529ZM59.303 40.226H66.4948V45.8981H59.303V40.226ZM18.0292 54.5895C17.462 54.5895 17.0018 55.0497 17.0018 55.6169V63.3425C17.0018 63.9097 17.462 64.3699 18.0292 64.3699H27.2758C27.843 64.3699 28.3032 63.9097 28.3032 63.3425V55.6169C28.3032 55.0497 27.843 54.5895 27.2758 54.5895H18.0292ZM26.2484 62.3151H19.0566V56.6443H26.2484V62.3151ZM38.7484 54.5895C38.1812 54.5895 37.721 55.0497 37.721 55.6169V63.3425C37.721 63.9097 38.1812 64.3699 38.7484 64.3699H47.9949C48.5622 64.3699 49.0223 63.9097 49.0223 63.3425V55.6169C49.0223 55.0497 48.5622 54.5895 47.9949 54.5895H38.7484ZM46.9675 62.3151H39.7758V56.6443H46.9675V62.3151ZM58.6114 54.7608C58.0442 54.7608 57.584 55.2209 57.584 55.7882V63.5137C57.584 64.0809 58.0442 64.5411 58.6114 64.5411H67.858C68.4252 64.5411 68.8854 64.0809 68.8854 63.5137V55.7882C68.8854 55.2209 68.4252 54.7608 67.858 54.7608H58.6114ZM66.8306 62.4863H59.6388V56.8155H66.8306V62.4863Z" fill="#11151A"/>
</svg>
