<svg width="100" height="100" viewBox="0 0 100 100" fill="none" xmlns="http://www.w3.org/2000/svg">
<path d="M87.5865 21.773C84.9956 23.1236 82.4048 24.7443 80.0866 26.6351C79.6775 27.0403 79.5411 27.5805 79.9502 28.1207C80.3593 28.5259 80.9048 28.661 81.4502 28.2558C83.632 26.5 86.0865 25.0144 88.5411 23.6638C89.0865 23.3937 89.2229 22.8534 88.9501 22.3132C88.6774 21.773 88.132 21.5028 87.5865 21.773ZM82.4048 35.2789C82.4048 35.8191 82.9502 36.2243 83.4957 36.2243L92.4956 35.4139C93.041 35.4139 93.4501 34.8737 93.4501 34.3335C93.4501 33.7932 92.9047 33.388 92.3592 33.388L83.3593 34.1984C82.6775 34.3335 82.2684 34.7386 82.4048 35.2789ZM93.4501 46.2187L85.132 43.3824C84.5866 43.2474 84.0411 43.5175 83.7684 44.0577C83.632 44.598 83.9047 45.1382 84.4502 45.4083C93.1774 48.2446 92.9047 48.1095 93.1774 48.1095C93.5865 48.1095 93.9955 47.8394 94.1319 47.4342C94.2683 46.894 93.9955 46.3537 93.4501 46.2187ZM36.587 43.2474H36.8597C37.4052 43.1123 37.8143 42.5721 37.6779 42.0318C36.8597 38.7904 36.7234 35.549 37.1325 32.1725C37.2688 31.6323 36.8597 31.092 36.3143 31.092C35.7688 30.957 35.2234 31.3622 35.2234 31.9024C34.8143 35.4139 34.9507 39.0605 35.7688 42.437C35.6325 42.8422 36.0416 43.2474 36.587 43.2474ZM36.9961 47.1641L37.5415 49.19C37.6779 49.5951 38.087 50.0003 38.4961 50.0003H38.7688C39.3143 49.8653 39.587 49.325 39.4506 48.7848L38.9052 46.7589C38.7688 46.2187 38.2234 45.9485 37.6779 46.0836C37.2688 46.0836 36.8597 46.6238 36.9961 47.1641Z" fill="#11151A"/>
<path d="M87.5865 21.773C84.9956 23.1236 82.4048 24.7443 80.0866 26.6351C79.6775 27.0403 79.5411 27.5805 79.9502 28.1207C80.3593 28.5259 80.9048 28.661 81.4502 28.2558C83.632 26.5 86.0865 25.0144 88.5411 23.6638C89.0865 23.3937 89.2229 22.8534 88.9502 22.3132C88.6774 21.773 88.132 21.5028 87.5865 21.773ZM82.4048 35.2789C82.4048 35.8191 82.9502 36.2243 83.4957 36.2243L92.4956 35.4139C93.041 35.4139 93.4501 34.8737 93.4501 34.3335C93.4501 33.7932 92.9047 33.388 92.3592 33.388L83.3593 34.1984C82.6775 34.3335 82.2684 34.7386 82.4048 35.2789ZM93.4501 46.2187L85.132 43.3824C84.5866 43.2474 84.0411 43.5175 83.7684 44.0577C83.632 44.598 83.9047 45.1382 84.4502 45.4083C93.1774 48.2446 92.9047 48.1095 93.1774 48.1095C93.5865 48.1095 93.9956 47.8394 94.1319 47.4342C94.2683 46.894 93.9956 46.3537 93.4501 46.2187ZM36.587 43.2474H36.8597C37.4052 43.1123 37.8143 42.5721 37.6779 42.0318C36.8597 38.7904 36.7234 35.549 37.1325 32.1725C37.2688 31.6323 36.8597 31.092 36.3143 31.092C35.7688 30.957 35.2234 31.3622 35.2234 31.9024C34.8143 35.4139 34.9507 39.0605 35.7688 42.437C35.6325 42.8422 36.0416 43.2474 36.587 43.2474ZM36.9961 47.1641L37.5415 49.19C37.6779 49.5951 38.087 50.0003 38.4961 50.0003H38.7688C39.3143 49.8653 39.587 49.325 39.4506 48.7848L38.9052 46.7589C38.7688 46.2187 38.2234 45.9485 37.6779 46.0836C37.2688 46.0836 36.8597 46.6238 36.9961 47.1641Z" fill="#5158F6"/>
<path d="M64.5972 7.98167C61.5956 5.80002 59.0032 6.48179 57.366 8.93614C57.366 8.93614 57.2295 8.93614 57.2295 9.07249C46.0416 21.2079 38.5375 25.7075 22.3014 34.0251C17.9353 32.2525 12.6142 33.3433 9.20329 37.0248C6.06521 40.2973 4.56439 45.3424 5.11014 50.5238C6.06521 59.7958 13.0236 66.8861 22.5742 65.3862C26.2581 64.8408 27.0767 65.2499 28.4411 68.2496C35.8087 84.3393 37.0367 90.4752 43.5857 91.8387C47.8153 93.4749 52.0449 91.8387 55.8651 89.5207C56.8202 88.9753 57.7753 88.2935 58.4575 87.3391C59.1397 86.3846 59.549 85.1574 59.1397 84.2029C58.4575 82.4303 56.2745 81.7486 55.5923 79.976C55.183 78.7488 55.5923 77.3853 55.0465 76.2945C54.5008 75.0673 52.8635 74.3855 52.3178 73.1583C51.772 71.9312 52.1813 70.5676 52.1813 69.3405C52.1813 68.1133 51.3627 67.0225 50.5441 66.068C49.7254 65.1135 48.6339 64.2954 47.9517 63.2046C47.5424 62.5228 47.2695 61.5684 47.406 60.7502C47.5424 60.3412 47.8153 59.3867 47.9517 58.7049C62.9599 59.6594 70.1912 63.2046 71.2827 63.0682C74.6936 64.5681 77.9681 62.5228 79.6054 59.2504C80.6969 57.0687 80.8333 54.478 80.8333 52.0237C80.8333 39.7519 77.6953 27.6165 72.2377 16.7083C70.3276 12.8904 68.281 9.48155 64.5972 7.98167ZM72.5106 61.1593C68.0081 59.3867 63.5057 49.5693 61.8684 45.0697C64.4608 44.6606 67.1895 44.1152 68.6903 41.7972C70.3276 39.3428 69.9183 36.2067 69.509 34.7068C68.4175 30.2072 65.6887 27.0711 61.0498 28.0255C59.8219 28.2983 58.7304 28.7073 57.6388 29.2527C55.8652 18.0718 57.366 9.75426 60.6405 8.93614C60.7769 8.93614 61.0498 8.79979 61.1862 8.79979C68.1446 8.79979 78.7868 35.1159 77.6953 52.5691C77.4224 57.2051 76.1944 60.3412 74.6936 61.1593C74.0114 61.2956 73.1928 61.2956 72.5106 61.1593ZM67.1895 40.1609C65.0065 37.5702 64.1879 33.8887 64.7336 30.6162C67.1895 32.2525 68.5539 37.1612 67.1895 40.1609ZM65.9616 41.6608C64.3243 42.7517 61.8684 42.888 61.1862 43.0244C59.6854 38.6611 58.7304 34.8432 58.0482 31.1617H58.1846C59.8219 30.4799 61.3227 29.7981 62.9599 29.7981C62.0049 34.0251 63.0964 38.5247 65.9616 41.6608ZM27.486 63.8864C25.4394 62.6592 22.8471 63.4773 20.8005 63.6136C14.3879 64.2954 7.8389 58.9776 7.02028 50.3874C6.47452 45.7514 7.8389 41.3881 10.5677 38.5247C13.2964 35.6613 17.3896 34.5705 20.8005 35.7977C17.7989 40.4337 17.3896 49.1602 22.0285 55.2961C22.1649 55.5688 22.5742 55.7052 22.8471 55.7052C23.6657 55.7052 24.2115 54.7507 23.6657 54.0689C21.7556 51.6146 20.6641 48.4785 20.6641 45.3424C20.5277 41.5245 21.2098 38.7974 22.7107 36.6158C22.8471 36.4794 22.8471 36.2067 22.8471 36.0704C36.4909 29.1164 45.3594 24.2077 55.3194 13.9812C54.0914 20.1171 54.9101 29.5254 57.2295 37.9793C59.1397 45.0697 62.6871 54.478 67.4624 60.0685C54.0963 56.3709 40.0922 55.5804 26.3945 57.7505C25.8487 57.8868 25.4394 58.4322 25.5759 58.9776C25.7123 59.5231 26.2581 59.9321 26.8038 59.7958C32.8071 58.8413 38.8104 58.4322 44.8137 58.7049C44.4043 61.8411 45.9052 65.7953 48.361 68.5224C47.406 69.0678 46.5874 69.6132 45.7687 70.2949C45.0865 69.8859 43.995 68.7951 43.7221 68.6587C42.7671 67.5679 42.4942 66.4771 42.6306 65.5226C42.7671 64.9772 42.3578 64.4318 41.812 64.2954C41.2663 64.1591 40.7205 64.5681 40.5841 65.1135C40.1748 66.8861 40.7205 68.386 42.0849 70.0222C42.0849 70.0222 43.4493 71.5221 44.8137 72.2039C44.6772 75.4763 46.178 78.8852 48.7704 81.2032C48.361 83.9302 49.8619 87.0663 51.6356 88.8389C47.6789 90.6115 44.5408 90.8842 42.0849 89.6571C39.3561 88.2935 37.8553 85.4301 36.4909 82.1576C29.3961 65.6589 29.3961 65.1135 27.486 63.8864ZM46.9967 71.5221C47.6789 70.9767 48.361 70.5676 49.0432 70.1586C49.1797 72.7493 50.1347 75.4763 51.9084 77.5216L50.1347 79.0215C47.9517 76.9762 46.8602 74.2492 46.9967 71.5221ZM50.9534 80.9305L52.4542 79.5669C52.9999 81.8849 54.9101 83.9302 55.8651 84.7483C56.138 85.021 56.138 85.4301 55.8651 85.7028C55.4558 86.2482 54.5008 86.7936 53.6821 87.3391L53.5457 87.2027C52.0449 85.9755 50.5441 83.1121 50.9534 80.9305Z" fill="#11151A"/>
</svg>
