<svg width="100" height="100" viewBox="0 0 100 100" fill="none" xmlns="http://www.w3.org/2000/svg">
<path d="M79.6555 22.7391L46.8688 4.6875C26.6813 8.22422 20.3438 33.7656 20.3438 46.5V75.4188L53.4984 95.3125L79.6547 77.9977L79.6555 22.7391Z" fill="white"/>
<path fill-rule="evenodd" clip-rule="evenodd" d="M46.5994 3.14847C46.95 3.08701 47.3111 3.1471 47.6229 3.31878L80.4096 21.3703C80.6544 21.5053 80.8586 21.7035 81.0009 21.9443C81.1431 22.185 81.2181 22.4595 81.2182 22.7391V77.9977C81.2182 78.2558 81.1543 78.5099 81.0321 78.7373C80.91 78.9647 80.7334 79.1583 80.5182 79.3008L54.3619 96.6149C54.116 96.7778 53.829 96.8678 53.5341 96.8744C53.2392 96.881 52.9485 96.804 52.6955 96.6524L19.54 76.7586C19.3088 76.6197 19.1175 76.4233 18.9847 76.1885C18.8519 75.9537 18.7821 75.6885 18.7822 75.4188V46.5C18.7822 39.9297 20.4057 30.1211 24.6314 21.4594C28.8611 12.7907 35.8268 5.03519 46.5994 3.14847ZM46.8689 4.68753L79.6557 22.7391V77.9977L53.4994 95.3125L20.3447 75.4188V46.5C20.3447 33.7657 26.6814 8.22425 46.8689 4.68753Z" fill="#11151A"/>
<path d="M57.2715 26.8238L38.7574 15.7559C30.909 20.5855 27.0855 33.6496 26.4824 41.0113L46.4301 52.4145C47.209 40.4066 53.0441 30.0426 57.2707 26.823L57.2715 26.8238Z" fill="white"/>
<path fill-rule="evenodd" clip-rule="evenodd" d="M37.9385 14.4246C38.1818 14.2746 38.4617 14.1943 38.7475 14.1924C39.0333 14.1905 39.3142 14.267 39.5596 14.4136L58.0728 25.4816C58.2921 25.6126 58.476 25.7954 58.6082 26.014C58.7405 26.2325 58.8171 26.4802 58.8315 26.7352C58.8458 26.9903 58.7974 27.245 58.6905 27.477C58.5836 27.709 58.4214 27.9112 58.2182 28.066C56.3916 29.4574 54.0096 32.5957 51.976 36.98C49.9619 41.3214 48.365 46.7269 47.9893 52.5152C47.9721 52.7797 47.8879 53.0356 47.7446 53.2586C47.6013 53.4816 47.4036 53.6645 47.1701 53.7901C46.9367 53.9157 46.6751 53.9798 46.41 53.9764C46.1449 53.973 45.8851 53.9022 45.6549 53.7707L25.7064 42.3668C25.4486 42.2192 25.2381 42.0012 25.0997 41.7383C24.9614 41.4754 24.9008 41.1785 24.9252 40.8824C25.2393 37.0418 26.3846 31.773 28.4619 26.8277C30.5268 21.9152 33.608 17.0894 37.9385 14.4246ZM26.4822 41.0105C27.0853 33.6488 30.9088 20.5847 38.7572 15.755L57.2713 26.823C56.8752 27.1246 56.465 27.4886 56.0463 27.9113C52.2103 31.7824 47.6478 40.5379 46.5768 50.698C46.5166 51.266 46.4674 51.8386 46.4299 52.4144L26.4822 41.0105Z" fill="#11151A"/>
<path fill-rule="evenodd" clip-rule="evenodd" d="M36.3943 33.005C36.681 32.885 37.0036 32.8837 37.2912 33.0015C37.5788 33.1193 37.8078 33.3465 37.9279 33.6332L39.2357 36.7582L46.4591 33.7832C46.6017 33.7229 46.7549 33.6915 46.9097 33.6908C47.0644 33.6901 47.2179 33.72 47.361 33.7789C47.5042 33.8378 47.6342 33.9245 47.7437 34.0339C47.8532 34.1434 47.9399 34.2734 47.9988 34.4165C48.0578 34.5597 48.0877 34.7131 48.0871 34.8679C48.0864 35.0227 48.055 35.1758 47.9948 35.3184C47.9346 35.461 47.8467 35.5903 47.7363 35.6988C47.6258 35.8072 47.495 35.8927 47.3513 35.9504L39.0505 39.3683C38.7643 39.4863 38.443 39.4862 38.1568 39.3681C37.8707 39.25 37.6429 39.0234 37.5232 38.7379L35.7654 34.5379C35.6456 34.2512 35.6446 33.9287 35.7625 33.6412C35.8804 33.3538 36.1077 33.125 36.3943 33.005Z" fill="#5158F6"/>
<path d="M26.4824 41.0113C27.0855 33.6496 30.909 20.5855 38.7574 15.7559L26.4824 41.0113Z" fill="#11151A"/>
<path d="M79.6553 77.9976V22.7383C60.6162 25.7492 53.499 46.4437 53.499 57.8133V95.3125L79.6553 77.9976Z" fill="white"/>
<path fill-rule="evenodd" clip-rule="evenodd" d="M80.6703 21.5504C80.842 21.697 80.9798 21.8791 81.0743 22.0841C81.1689 22.2891 81.2179 22.5121 81.218 22.7379V77.9972C81.218 78.2554 81.1541 78.5095 81.0319 78.7369C80.9098 78.9643 80.7332 79.1579 80.518 79.3004L54.3617 96.6144C54.1264 96.7706 53.8531 96.8601 53.571 96.8732C53.2889 96.8863 53.0085 96.8227 52.7597 96.689C52.5109 96.5554 52.303 96.3567 52.1583 96.1142C52.0135 95.8717 51.9372 95.5945 51.9375 95.3121V57.8129C51.9375 51.8597 53.7859 43.5652 58.0961 36.3402C62.4242 29.0863 69.3164 22.791 79.4117 21.1949C79.6347 21.1597 79.8627 21.1732 80.08 21.2346C80.2973 21.296 80.4987 21.4037 80.6703 21.5504ZM79.6555 22.7379C79.1258 22.8222 78.6047 22.9199 78.093 23.03C60.2258 26.8941 53.4992 46.7597 53.4992 57.8129V95.3121L79.6555 77.9972V22.7379Z" fill="#11151A"/>
<path d="M77.9715 75.7756V27.7217C62.6043 29.5396 55.9879 49.2553 55.9879 58.8115V90.7311L77.9715 75.7756ZM33.0215 51.9709C33.0217 51.8278 33.0593 51.6873 33.1306 51.5633C33.2019 51.4393 33.3044 51.3361 33.4279 51.2639C33.5514 51.1917 33.6916 51.1531 33.8347 51.1519C33.9777 51.1506 34.1186 51.1868 34.2434 51.2568L44.2285 56.874C44.7356 57.1593 45.1577 57.5743 45.4515 58.0765C45.7453 58.5787 45.9003 59.15 45.9004 59.7318C45.9003 59.875 45.8628 60.0156 45.7915 60.1397C45.7203 60.2638 45.6178 60.3671 45.4943 60.4394C45.3708 60.5117 45.2305 60.5504 45.0874 60.5517C44.9443 60.5529 44.8033 60.5167 44.6785 60.4467L34.6941 54.8303C34.1868 54.5449 33.7645 54.1297 33.4707 53.6272C33.1769 53.1246 33.0213 52.553 33.0215 51.9709Z" fill="white"/>
<path d="M35.3361 68.4807C35.4979 64.1744 41.5244 60.1611 44.2916 58.8197L36.7291 54.376C36.6947 54.5432 34.9346 55.4471 31.9658 56.9072C28.0494 58.8354 27.5557 62.4439 27.4385 64.4557C28.6057 64.4557 33.1893 67.1393 35.3361 68.4807Z" fill="#11151A"/>
<path fill-rule="evenodd" clip-rule="evenodd" d="M45.8519 58.8809C45.8407 59.1634 45.753 59.4377 45.5982 59.6743C45.4434 59.911 45.2273 60.1012 44.973 60.2246C43.7019 60.8418 41.6339 62.0996 39.8894 63.6918C38.0823 65.3418 36.9534 67.0473 36.8972 68.5387C36.8869 68.8124 36.8048 69.0786 36.6592 69.3105C36.5136 69.5425 36.3096 69.7321 36.0676 69.8604C35.8256 69.9886 35.5542 70.0511 35.2805 70.0414C35.0068 70.0317 34.7404 69.9502 34.5081 69.8051C33.1239 68.9413 31.7139 68.1196 30.28 67.3411C29.6137 66.9767 28.9332 66.6389 28.2401 66.3286C28.0161 66.2286 27.7872 66.1399 27.5542 66.0629C27.4534 66.0317 27.3995 66.0207 27.3831 66.0168C27.175 66.0096 26.9704 65.9608 26.7814 65.8734C26.5924 65.7859 26.4228 65.6616 26.2825 65.5076C26.1422 65.3537 26.0342 65.1732 25.9646 64.9769C25.8951 64.7806 25.8655 64.5724 25.8776 64.3645C26.0019 62.2356 26.5526 57.8293 31.2761 55.5051C32.7597 54.7746 33.9245 54.1926 34.719 53.7739C35.0238 53.6159 35.3239 53.4491 35.619 53.2739C35.8635 53.0278 36.1829 52.87 36.5269 52.8254C36.8709 52.7809 37.22 52.8521 37.519 53.0278L45.0823 57.4715C45.3263 57.6149 45.5267 57.8218 45.6622 58.0701C45.7977 58.3185 45.8633 58.599 45.8519 58.8817V58.8809ZM42.6933 59.6926C43.287 59.3356 43.8339 59.0411 44.2909 58.8192L36.7284 54.3754C36.7249 54.3872 36.7184 54.398 36.7097 54.4067C36.5136 54.6356 34.7839 55.52 31.9651 56.9067C28.9261 58.4028 27.948 60.9106 27.6073 62.8989C27.5218 63.414 27.4652 63.9336 27.4378 64.4551C27.4698 64.4551 27.505 64.4575 27.5425 64.4614C28.5964 64.5754 31.6253 66.2496 33.8612 67.5817C34.4159 67.9114 34.9214 68.2207 35.3362 68.4801C35.3613 67.922 35.4728 67.3712 35.6667 66.8473C36.7355 63.884 40.1519 61.2192 42.6933 59.6926Z" fill="#11151A"/>
<path d="M25.3252 59.3717L35.9408 53.7881L44.4932 58.8693L34.1291 64.5037L25.3252 59.3717Z" fill="white"/>
<path fill-rule="evenodd" clip-rule="evenodd" d="M35.2121 52.4055C35.4485 52.281 35.7129 52.2193 35.9801 52.2261C36.2472 52.2329 36.5081 52.3082 36.7379 52.4446L45.2902 57.5259C45.5276 57.6668 45.7234 57.8681 45.8577 58.1093C45.992 58.3505 46.06 58.623 46.0547 58.8991C46.0495 59.1751 45.9712 59.4448 45.8279 59.6807C45.6845 59.9167 45.4812 60.1104 45.2386 60.2423L34.8753 65.8766C34.6393 66.0049 34.3741 66.0701 34.1055 66.066C33.8368 66.0619 33.5738 65.9886 33.3418 65.8532L24.5371 60.7227C24.2961 60.5822 24.0971 60.3797 23.9609 60.1363C23.8246 59.8929 23.756 59.6175 23.7621 59.3386C23.7682 59.0597 23.8489 58.7876 23.9958 58.5504C24.1426 58.3132 24.3503 58.1197 24.5972 57.9899L35.2121 52.4055ZM25.3246 59.3727L34.1293 64.504L44.4925 58.8696L35.9402 53.7884L25.3246 59.3727Z" fill="#11151A"/>
<path fill-rule="evenodd" clip-rule="evenodd" d="M39.1491 60.6751C38.4312 61.1485 37.5077 61.454 36.5468 61.5696C35.5858 61.6852 34.6155 61.6071 33.8062 61.3172C33.0952 61.0618 31.9983 60.4321 31.8437 59.1422C31.6882 57.8516 32.6038 56.9805 33.2343 56.5641C33.953 56.0899 34.8765 55.7852 35.8374 55.6696C36.7983 55.554 37.7687 55.6313 38.578 55.9219C39.289 56.1766 40.3858 56.8063 40.5405 58.0969C40.696 59.3868 39.7796 60.2587 39.1491 60.6751ZM36.3601 60.018C37.9054 59.8321 39.0819 59.0555 38.989 58.2836C38.8968 57.5102 37.5687 57.0352 36.0241 57.2211C34.4796 57.4063 33.3022 58.1829 33.3952 58.9555C33.4874 59.7282 34.8155 60.204 36.3601 60.018Z" fill="#11151A"/>
</svg>
