<svg width="100" height="100" viewBox="0 0 100 100" fill="none" xmlns="http://www.w3.org/2000/svg">
<path d="M38.5612 82.5471C35.2726 82.7696 34.454 87.0221 37.163 88.7005C39.5909 90.2047 43.7161 87.8421 42.3482 84.8831C41.6891 83.4576 40.1387 82.4403 38.5612 82.5471ZM37.1572 13.6956L45.643 13.7518H45.6496C46.2086 13.7518 46.663 13.3021 46.667 12.7441C46.6709 12.1841 46.2179 11.7271 45.6562 11.7231L37.1705 11.667H37.1638C36.6048 11.667 36.1505 12.1167 36.1465 12.6747C36.1425 13.2347 36.5956 13.6917 37.1572 13.6956ZM33.3621 12.0725C32.962 11.6822 32.3156 11.6861 31.9235 12.0883C31.5301 12.4885 31.6122 13.205 32.0136 13.5966C32.4036 13.9958 33.0499 14.0054 33.4521 13.6124C34.2163 12.8669 33.3041 11.9369 33.3621 12.0725Z" fill="#11151A"/>
<path d="M23.6419 92.7408C27.7224 93.7183 33.2525 93.1821 37.5567 93.2148C52.6889 93.2064 57.0463 94.0742 59.8271 91.2357C62.0919 88.927 61.2759 86.1953 61.2498 79.524C61.162 57.8641 61.5444 35.8492 61.6664 14.4204C61.7046 7.69338 58.2249 5.87128 52.1105 5.38856C44.4116 4.749 36.6453 5.10012 29.0613 5.065C26.5183 5.05248 23.4157 4.73206 21.1061 6.13419C20.6498 6.21293 20.1618 6.42723 19.5374 6.8985C15.9752 9.58709 15.7454 14.2585 15.6951 18.6308C15.4668 38.501 15.2385 58.3712 15.0101 78.2414C14.9703 81.7142 14.9684 85.3527 16.5939 88.4257C17.9534 90.9957 20.8518 92.9596 23.6419 92.7408ZM59.2187 79.3528L20.3219 78.3438L20.3293 76.4234C20.3293 57.1701 20.5801 38.7568 20.5228 18.8814L41.8341 18.8087C47.6987 18.7925 53.7488 18.7772 59.5899 19.7537C59.4071 44.2762 59.1446 60.5058 59.2187 79.3528ZM51.8329 91.2899C36.1045 91.2119 38.4852 91.1149 33.742 91.241C30.6414 91.3224 27.431 91.4084 24.5141 90.8671C23.1615 90.6157 20.8542 89.8217 20.5924 87.3219C20.3526 85.0289 20.3127 82.6853 20.3146 80.3763L59.2591 81.3866C59.2804 82.4783 59.3503 85.2212 59.3829 86.4994C59.5017 90.8433 56.3724 91.3524 51.8329 91.2899ZM29.0521 7.09767C36.6326 7.13277 44.3836 6.785 51.9413 7.41461C57.12 7.82354 59.6662 8.86641 59.6354 14.4085C59.6291 15.5054 59.6149 16.6027 59.6074 17.6996C53.6999 16.7475 47.6687 16.7595 41.8262 16.776L20.5139 16.8487C20.5067 15.0795 20.5039 13.3066 20.4906 11.5435C20.458 6.66519 24.3707 7.07536 29.0521 7.09767Z" fill="#11151A"/>
<path d="M38.2285 37.1646L40.3848 32.3969L44.9848 30.3125L83.5337 30.6958L88.3733 32.8281L89.5233 37.5719L89.4994 58.6073L88.1577 63.1594L82.9827 65.675L44.6493 64.9802L40.0973 63.4469L38.6598 59.1823L38.5639 36.7573M45.3202 34.1698L43.3316 35.4156L41.8941 37.1885L42.2535 58.9427L42.5171 61.0271L45.1764 61.7458L83.2223 61.9375L85.5941 60.7635L86.1212 58.9667L85.9775 36.7812L85.1629 34.8167L83.6056 34.601L45.44 34.1698" fill="#5158F6"/>
<path d="M74.3576 56.7139L74.7409 55.0847L76.2263 54.6295L81.3055 54.8212L82.0722 55.4441L82.4076 56.4982L82.3836 57.5285L81.3295 57.9837L76.3941 58.6305L74.8128 57.5045L74.3336 56.8097M38.564 39.6795L39.3547 38.4576L40.337 38.2899L88.086 38.1941L89.3318 38.0264L89.8828 39.5597L89.2599 40.542L88.1099 41.8837L39.738 40.9732L38.4922 41.3326L38.7557 39.967" fill="#5158F6"/>
</svg>
