<svg width="100" height="100" viewBox="0 0 100 100" fill="none" xmlns="http://www.w3.org/2000/svg">
<g clipPath="url(#clip0_495_1575)">
<path d="M6.27885 29.85C11.6716 37.2209 22.2352 42.1136 31.677 42.1136C32.6716 42.1136 33.6498 42.0445 34.6116 41.9318C36.0061 50.5263 35.1607 58.6282 32.5207 66.1645C29.4843 73.3663 23.9625 82.2554 22.2425 84.4427C21.0025 86.0209 18.9789 88.6027 20.6679 90.4754C21.5116 93.6081 27.6952 93.7536 30.7952 93.0372C31.7861 92.8082 32.8261 92.4063 33.3679 91.5409C33.6734 91.0518 33.7025 90.3936 33.497 89.8663C33.5661 88.7663 32.7734 87.7572 31.3879 87.2227C28.8243 86.23 25.8352 86.5191 21.9952 88.1318C22.4625 86.9081 23.9189 85.3554 24.5189 84.4281C29.5916 76.6063 33.9189 69.0645 36.4861 60.4427C38.4025 68.5391 41.2025 82.1045 44.1461 89.3063C45.4189 95.4318 59.0334 92.3882 57.4425 88.0045C57.3243 84.81 51.0479 84.8009 46.077 89.2172C42.137 80.1172 38.197 57.8445 37.3752 57.0445C38.557 51.8663 38.8989 46.8118 38.3734 42.0772C51.7989 38.4027 61.5079 28.7572 63.7879 16.7027C63.8151 16.5835 63.818 16.46 63.7964 16.3396C63.7747 16.2192 63.729 16.1045 63.662 16.0022C63.5949 15.8999 63.508 15.8122 63.4062 15.7443C63.3045 15.6764 63.1901 15.6297 63.0699 15.6071C62.9497 15.5845 62.8262 15.5863 62.7068 15.6125C62.5873 15.6387 62.4744 15.6888 62.3747 15.7597C62.2751 15.8305 62.1907 15.9208 62.1268 16.0251C62.0628 16.1293 62.0205 16.2454 62.0025 16.3663C59.8643 27.6591 50.7534 36.7245 38.1225 40.2609C37.7377 37.8213 37.0884 35.4308 36.1861 33.1318C37.424 32.778 38.6028 32.2431 39.6843 31.5445C41.1345 30.82 42.4339 29.8267 43.5134 28.6172C47.0334 24.6063 47.8189 18.4354 45.4261 13.6118C43.4934 9.71724 39.7752 7.01906 34.9534 6.01542C31.8898 5.3736 28.5134 6.51179 26.0316 8.08088C22.9407 10.0318 20.5934 13.1518 19.4679 16.5991C18.1589 20.61 18.5079 25.0663 21.2679 28.6445C23.7916 31.9136 27.8298 33.59 31.8734 33.67C32.5279 34.1391 32.977 34.8627 33.3916 36.3027C33.757 37.5681 34.0516 38.8536 34.3116 40.1463C24.8389 41.2191 13.337 36.4227 7.74431 28.7791C7.60206 28.5847 7.38843 28.4549 7.15043 28.418C6.91243 28.3812 6.66955 28.4404 6.47522 28.5827C6.28089 28.7249 6.15102 28.9386 6.1142 29.1766C6.07737 29.4146 6.1366 29.6556 6.27885 29.85ZM23.0789 89.65C26.2698 88.3663 28.7079 88.1372 30.7334 88.9172C31.297 89.1354 31.7189 89.5063 31.697 89.7627C31.6479 90.2354 30.7334 90.3809 30.2643 90.4354C27.4352 90.7736 24.4643 90.3627 23.0007 89.8463C23.0348 89.7844 23.061 89.7184 23.0789 89.65ZM54.7079 87.5972C55.3152 87.7063 55.6207 87.93 55.6461 88.0554C55.6588 88.1263 55.5916 88.2972 55.4261 88.4336C54.917 88.8445 50.1243 90.2591 47.8261 90.1172C49.8498 88.5136 52.7534 87.2409 54.7079 87.5972ZM39.7861 11.9118C39.0366 10.7118 38.1627 9.5941 37.1789 8.57724C38.0843 8.9336 38.9243 9.36997 39.6952 9.87542C39.8661 10.5845 39.8807 11.1954 39.7861 11.9118ZM36.097 11.5409C35.0043 9.92226 33.5008 8.62333 31.7407 7.77724C32.7134 7.61179 33.5879 7.58633 34.5825 7.7936C34.6789 7.81179 34.7643 7.84269 34.8607 7.86451C35.5879 8.9536 36.0279 10.2318 36.097 11.5409ZM31.2425 11.8154C30.2871 10.7152 29.0346 9.91409 27.6352 9.50815C28.4661 8.92633 29.3552 8.48088 30.2643 8.16633C31.1589 9.10997 31.537 10.5445 31.2425 11.8154ZM43.797 14.4191C45.8716 18.6009 45.1934 23.9445 42.1461 27.4191C39.5679 30.3554 35.3716 31.7318 31.5589 31.0954C30.2735 30.8365 29.0411 30.3626 27.9134 29.6936C27.2534 29.2936 26.6407 28.8263 26.0679 28.3082C23.7389 26.0863 22.297 22.8791 22.477 19.7172C22.6316 17.0554 23.0843 14.7827 24.8007 12.3372C25.3552 11.5445 26.0079 10.8463 26.7152 10.2318C28.4443 10.5554 30.0352 11.5409 31.0098 13.0154C31.1007 13.1518 31.2698 13.2463 31.4189 13.2191C31.499 13.214 31.5764 13.1878 31.6432 13.1431C31.71 13.0983 31.7637 13.0367 31.7989 12.9645C32.4279 11.6609 32.3952 10.0918 31.7916 8.78815C33.6552 9.80806 35.1468 11.3933 36.0516 13.3154C36.2389 13.7154 36.8407 13.6391 36.9134 13.1972C37.1255 11.8624 37.0043 10.4958 36.5607 9.21906C37.7607 10.4736 38.7934 11.8954 39.6043 13.4191C39.6479 13.5012 39.7156 13.5681 39.7983 13.6106C39.881 13.6531 39.9748 13.6692 40.067 13.6567C40.1592 13.6442 40.2453 13.6037 40.3137 13.5408C40.3822 13.4778 40.4297 13.3953 40.4498 13.3045C40.6789 12.2754 40.777 11.4591 40.7098 10.6172C42.001 11.6463 43.0542 12.9426 43.797 14.4172V14.4191Z" fill="#11151A"/>
<path d="M31.5643 17.2567C30.3643 18.2676 28.4516 18.313 27.2061 17.3585C27.1101 17.2852 26.989 17.253 26.8693 17.269C26.7496 17.2851 26.6412 17.348 26.5679 17.4439C26.4946 17.5399 26.4625 17.6611 26.4785 17.7807C26.4945 17.9004 26.5574 18.0088 26.6534 18.0821C28.2225 19.2821 30.6388 19.2276 32.1497 17.9512C32.6079 17.5639 32.0261 16.8712 31.5643 17.2567ZM40.0552 16.9258C39.3716 17.7476 38.0297 17.953 37.1316 17.3749C37.0303 17.3131 36.909 17.2933 36.7934 17.3198C36.6778 17.3463 36.5772 17.4168 36.5129 17.5164C36.4486 17.6161 36.4258 17.7369 36.4493 17.8531C36.4729 17.9693 36.5409 18.0717 36.6388 18.1385C37.137 18.4585 37.7207 18.6112 38.3025 18.6112C38.7666 18.616 39.2262 18.5198 39.6494 18.3292C40.0726 18.1386 40.4493 17.8583 40.7534 17.5076C40.8271 17.4146 40.8616 17.2965 40.8495 17.1785C40.8373 17.0604 40.7795 16.9518 40.6883 16.8759C40.5971 16.7999 40.4799 16.7626 40.3616 16.7719C40.2433 16.7812 40.1333 16.8365 40.0552 16.9258ZM31.1425 24.3876C30.8771 24.4558 30.5972 24.4411 30.3405 24.3456C30.0837 24.25 29.8623 24.0781 29.7061 23.853C29.3788 23.3476 28.6152 23.8385 28.9407 24.3439C29.8261 25.7221 31.9497 25.5258 31.7043 24.6949C31.6702 24.5795 31.5916 24.4823 31.486 24.4247C31.3803 24.3671 31.2561 24.3538 31.1407 24.3876H31.1425ZM0.34611 27.1603C3.24429 27.8821 3.68247 28.0276 3.86429 28.0276C4.39884 28.0276 4.49156 27.2603 3.97338 27.1312L0.566111 26.2785C0.508087 26.2638 0.44773 26.2607 0.388507 26.2694C0.329284 26.2781 0.272361 26.2984 0.221004 26.3291C0.169647 26.3599 0.124868 26.4005 0.089239 26.4486C0.0536097 26.4967 0.027832 26.5513 0.0133838 26.6094C-0.00101621 26.6674 -0.0038298 26.7277 0.0051059 26.7868C0.0140416 26.8459 0.0345509 26.9027 0.0654579 26.9539C0.0963648 27.0051 0.137063 27.0496 0.185222 27.0851C0.233381 27.1205 0.288053 27.146 0.34611 27.1603ZM4.54066 25.6476C4.98066 25.6476 5.15884 25.0876 4.81157 24.8294L0.891565 21.9276C0.409747 21.573 -0.133889 22.3003 0.351565 22.6603C4.43702 25.6421 4.25884 25.6476 4.54066 25.6476ZM6.78975 22.653L5.44247 19.2385C5.22247 18.6749 4.37702 19.0149 4.59702 19.573L5.94247 22.9876C6.16429 23.5476 7.00975 23.213 6.78975 22.653Z" fill="#5158F6"/>
<path d="M79.8908 17.1135C80.1272 17.0698 80.3326 17.0444 80.5399 17.0207C80.4328 17.2119 80.3812 17.4291 80.3908 17.648C80.4199 17.9717 80.5908 18.2807 80.8599 18.4989C80.9994 18.6111 81.1598 18.6946 81.3317 18.7445C81.5036 18.7945 81.6838 18.8099 81.8617 18.7898C82.0409 18.7658 82.2131 18.7047 82.3674 18.6105C82.5217 18.5162 82.6548 18.391 82.7581 18.2426C82.8568 18.1058 82.926 17.95 82.9614 17.785C82.9968 17.6201 82.9975 17.4496 82.9635 17.2844L82.9617 17.2807C83.3308 17.4662 83.5908 17.7098 83.8035 17.9607C83.8835 18.0456 83.9931 18.0964 84.1095 18.1028C84.226 18.1091 84.3404 18.0705 84.4291 17.9948C84.5179 17.9191 84.5742 17.8123 84.5863 17.6963C84.5985 17.5803 84.5656 17.4641 84.4944 17.3717C83.4617 16.1535 81.9872 15.7953 79.7271 16.2171C79.6083 16.2388 79.5029 16.3068 79.4342 16.4062C79.3655 16.5056 79.3391 16.6282 79.3608 16.7471C79.3825 16.866 79.4505 16.9713 79.5499 17.0401C79.6493 17.1088 79.7719 17.1352 79.8908 17.1135ZM74.4617 15.6007C73.7415 15.3871 72.98 15.3527 72.2435 15.5007C72.0897 15.4699 71.93 15.4964 71.7944 15.5753C71.7853 15.5807 71.7799 15.5935 71.7708 15.5989C71.4143 15.6961 71.0698 15.8327 70.7435 16.0062C70.6374 16.0641 70.5587 16.1617 70.5246 16.2776C70.4905 16.3936 70.5038 16.5183 70.5617 16.6244C70.6196 16.7305 70.7172 16.8092 70.8331 16.8433C70.9491 16.8774 71.0738 16.8641 71.1799 16.8062L71.1981 16.7971C71.2034 16.9901 71.2511 17.1796 71.3378 17.3521C71.4245 17.5246 71.5482 17.6759 71.6999 17.7953C71.778 17.8536 71.8681 17.894 71.9636 17.9135C72.0592 17.933 72.1579 17.9311 72.2526 17.908C73.2926 17.6589 73.4962 17.068 73.5253 16.7371C73.5317 16.5956 73.5082 16.4543 73.4562 16.3226C73.7072 16.3444 73.9526 16.3917 74.1835 16.468C74.2985 16.5049 74.4235 16.4946 74.5309 16.4394C74.6383 16.3841 74.7194 16.2885 74.7562 16.1735C74.7931 16.0585 74.7828 15.9335 74.7276 15.8261C74.6723 15.7187 74.5767 15.6376 74.4617 15.6007ZM82.3526 27.8989C83.0253 27.6117 83.869 26.8644 84.0999 24.9407C84.1143 24.8212 84.0806 24.7008 84.0063 24.606C83.932 24.5112 83.8231 24.4498 83.7035 24.4353C83.4599 24.4226 83.2308 24.5826 83.1981 24.8317C83.0999 25.6571 82.8108 26.7135 81.9962 27.0626C81.2981 27.3589 80.2908 27.0989 79.3017 26.3644C79.2049 26.2992 79.0868 26.2737 78.9717 26.2932C78.8566 26.3127 78.7535 26.3757 78.6836 26.4692C78.6138 26.5627 78.5825 26.6794 78.5964 26.7953C78.6102 26.9112 78.6681 27.0173 78.7581 27.0917C79.6472 27.7517 80.5526 28.0953 81.3617 28.0953C81.7144 28.0953 82.0453 28.0317 82.3526 27.8989ZM63.5126 16.0371C62.6794 16.1819 61.8227 15.9917 61.129 15.508C61.0301 15.4388 60.9078 15.4117 60.789 15.4327C60.6702 15.4537 60.5645 15.521 60.4953 15.6198C60.4261 15.7187 60.399 15.841 60.42 15.9598C60.441 16.0786 60.5083 16.1843 60.6072 16.2535C61.4996 16.8733 62.6001 17.1169 63.6708 16.9317C63.789 16.9104 63.894 16.8432 63.9628 16.7447C64.0317 16.6462 64.0587 16.5245 64.0381 16.4062C63.9944 16.1553 63.7526 15.9844 63.5126 16.0371ZM64.5544 14.0389C64.6279 13.9438 64.6608 13.8235 64.6458 13.7042C64.6308 13.585 64.5692 13.4765 64.4744 13.4026L61.7508 11.2844C61.6556 11.2104 61.5348 11.1772 61.4151 11.1922C61.2954 11.2072 61.1866 11.2691 61.1126 11.3644C61.0386 11.4596 61.0054 11.5804 61.0204 11.7C61.0354 11.8197 61.0974 11.9285 61.1926 12.0026L63.9181 14.1189C64.0132 14.1924 64.1335 14.2253 64.2528 14.2103C64.372 14.1953 64.4805 14.1337 64.5544 14.0389ZM66.4308 13.2717C66.5018 13.2716 66.5719 13.2549 66.6353 13.223C66.6987 13.191 66.7537 13.1446 66.796 13.0875C66.8382 13.0304 66.8665 12.9642 66.8786 12.8942C66.8906 12.8242 66.8861 12.7523 66.8653 12.6844L65.5653 8.47347C65.5281 8.35969 65.4481 8.26481 65.3423 8.20885C65.2365 8.15288 65.1131 8.1402 64.9981 8.17347C64.941 8.1911 64.8879 8.21981 64.8419 8.25796C64.7959 8.29611 64.7579 8.34296 64.7301 8.39581C64.7022 8.44867 64.685 8.5065 64.6795 8.566C64.6741 8.6255 64.6803 8.6855 64.6981 8.74256L65.9962 12.9517C66.025 13.0444 66.0827 13.1255 66.1609 13.1831C66.2391 13.2407 66.3337 13.2717 66.4308 13.2717Z" fill="#5158F6"/>
<path d="M50 63.7202V75.2693C50 75.5091 50.0948 75.7393 50.2637 75.9095C50.4326 76.0798 50.662 76.1764 50.9018 76.1784L67.5291 76.3111H67.5364C67.7747 76.3111 68.0034 76.2176 68.1735 76.0506C68.3435 75.8837 68.4412 75.6566 68.4455 75.4184L68.66 63.7365C68.6619 63.6159 68.6398 63.496 68.595 63.3839C68.5502 63.2718 68.4836 63.1698 68.399 63.0836C68.3144 62.9975 68.2136 62.9291 68.1023 62.8823C67.9911 62.8355 67.8716 62.8113 67.7509 62.8111H64.56V60.3711C64.56 60.13 64.4642 59.8988 64.2937 59.7283C64.1232 59.5578 63.892 59.462 63.6509 59.462H61.4C61.4145 59.3547 61.4182 59.2311 61.4473 59.1529C61.4939 59.0255 61.5114 58.8892 61.4984 58.7541C61.4855 58.619 61.4425 58.4886 61.3726 58.3723C61.3027 58.256 61.2076 58.1568 61.0944 58.082C60.9811 58.0073 60.8526 57.9588 60.7182 57.9402C60.614 57.9255 60.5085 57.9225 60.4036 57.9311C60.5218 56.822 60.5673 55.7093 60.6073 54.6184C60.7127 51.902 60.8127 49.3384 61.9891 47.1256C63.1345 44.9729 65.32 43.1838 68.6727 41.6565C69.8255 41.1293 71.2545 40.7038 72.7636 40.2529C74.4618 39.7456 76.1909 39.2165 77.6655 38.5074C77.5055 42.0165 77.3436 44.6056 77.1873 47.1074C76.9909 50.2202 76.7873 53.4347 76.5909 58.4184V58.422C76.5545 58.5002 76.5145 58.5747 76.5 58.6638C75.2873 65.9456 71.76 77.0275 68.9255 85.9365C68.3327 87.8056 67.7709 89.5638 67.2745 91.1565C64.9873 90.1747 62.5836 89.5202 60.1127 89.2093C59.6036 89.1474 59.0127 89.0929 58.4182 89.282C57.5945 89.5511 57.0164 90.2547 56.9818 91.0365C56.9491 91.7856 57.3691 92.4565 58.2309 93.0311C59.6236 93.9584 61.4418 94.342 63.26 94.342C65.0273 94.342 66.7927 93.9784 68.1545 93.3893C68.2496 93.3481 68.337 93.2909 68.4127 93.2202C68.5646 93.1248 68.6848 92.9864 68.758 92.8226C68.8311 92.6588 68.854 92.477 68.8236 92.3002C69.3636 90.5565 69.9891 88.5911 70.66 86.4874C73.2364 78.3875 76.3673 68.5238 77.86 61.2256C79.8091 65.3674 81.7964 70.7056 83.7273 75.9129C86.0673 82.2165 88.4873 88.7347 90.8618 93.1711C90.9251 93.2891 91.0136 93.3917 91.1211 93.4715C91.2286 93.5514 91.3524 93.6065 91.4836 93.6329C92.6291 93.862 93.7273 93.9747 94.7764 93.9747C96.2204 93.9892 97.6554 93.7441 99.0127 93.2511C100.551 92.6765 101.335 91.5256 100.964 90.3856C100.651 89.4311 99.6436 88.9165 98.2782 88.9965C95.9837 89.1459 93.8006 90.0396 92.06 91.542C89.8709 87.2402 87.6164 81.1656 85.4327 75.2802C83.1327 69.0802 80.7545 62.6729 78.4164 58.2438C78.6109 53.422 78.8091 50.2711 79 47.222C79.14 45.002 79.2836 42.7165 79.4255 39.7838C80.6673 41.4438 82.1182 43.2074 83.6345 45.0474C88.2964 50.7093 93.5309 57.0656 94.6545 62.8584C94.4548 62.9253 94.2732 63.0372 94.1236 63.1856C93.9753 63.3339 93.8611 63.5126 93.7889 63.7095C93.7166 63.9064 93.6882 64.1166 93.7055 64.3256C93.7189 64.5354 93.7779 64.7398 93.8784 64.9244C93.9788 65.109 94.1184 65.2696 94.2873 65.3947C94.5018 65.5511 94.7618 65.6311 95.0418 65.6311C95.1655 65.6311 95.2888 65.6164 95.4091 65.5875C95.9073 65.4693 96.3618 65.1311 96.5691 64.7274C96.6434 64.5815 96.6773 64.4182 96.6673 64.2547C96.2309 57.4856 90.2855 50.262 85.0382 43.8911C83.0509 41.4784 81.1745 39.2002 79.7745 37.1547C79.7136 37.0709 79.6386 36.9983 79.5527 36.9402L79.5891 36.0947C80.6853 36.0531 81.7725 35.8797 82.8273 35.5784C83.6114 35.4212 84.3773 35.1835 85.1127 34.8693C90.3055 32.5674 93.28 28.1438 93.5855 23.2729C93.8345 19.2911 92.0127 15.1056 89.0364 12.3056C88.5821 11.8858 88.0971 11.5005 87.5855 11.1529C87.5 11.0729 87.4218 10.982 87.3345 10.9056C88.5382 10.7056 89.8164 10.9038 90.8509 11.5093C90.9025 11.5395 90.9595 11.5592 91.0187 11.5674C91.0779 11.5756 91.1381 11.572 91.196 11.5569C91.2538 11.5418 91.3081 11.5154 91.3557 11.4793C91.4034 11.4432 91.4434 11.3981 91.4736 11.3465C91.5038 11.295 91.5236 11.2379 91.5318 11.1787C91.5399 11.1195 91.5364 11.0593 91.5212 11.0015C91.5061 10.9436 91.4798 10.8894 91.4437 10.8417C91.4076 10.7941 91.3625 10.754 91.3109 10.7238C89.8764 9.88381 88.0436 9.70926 86.4309 10.1965C85.3636 9.37806 84.1705 8.73823 82.8982 8.30199C84.1436 7.90926 85.5618 7.93472 86.7473 8.43654C86.8022 8.45994 86.8612 8.47229 86.9209 8.47289C86.9806 8.47349 87.0398 8.46233 87.0952 8.44005C87.1505 8.41776 87.201 8.38479 87.2436 8.34301C87.2863 8.30122 87.3202 8.25145 87.3436 8.19654C87.367 8.14162 87.3794 8.08263 87.38 8.02294C87.3806 7.96325 87.3694 7.90403 87.3471 7.84865C87.3249 7.79327 87.2919 7.74283 87.2501 7.70019C87.2083 7.65756 87.1586 7.62357 87.1036 7.60017C85.3182 6.84381 83.1836 7.00926 81.5036 7.94563C79.7974 7.61455 78.0407 7.64552 76.3473 8.03654C76.9145 7.50426 77.6036 7.11907 78.3541 6.91463C79.1047 6.71019 79.8939 6.69275 80.6527 6.86381C80.7699 6.89274 80.8938 6.87394 80.9971 6.81154C81.1004 6.74914 81.1747 6.64826 81.2036 6.53108C81.2326 6.41391 81.2138 6.29003 81.1514 6.18672C81.089 6.0834 80.9881 6.00911 80.8709 5.98017C78.6636 5.44199 76.1364 6.42017 74.9855 8.25654C74.9545 8.30563 74.9691 8.36017 74.96 8.4129C70.9055 9.76199 67.8709 12.8184 66.1891 17.3438C64.2255 22.6165 65.6836 28.8984 69.7345 32.6256C71.9182 34.6347 74.8055 35.8111 77.7709 36.0711L77.7545 36.4238C77.7436 36.4293 77.7309 36.4293 77.72 36.4365C76.28 37.3056 74.2291 37.9184 72.2436 38.5111C70.6709 38.9802 69.1855 39.4238 67.9182 40.002C64.1873 41.702 61.7236 43.7529 60.3836 46.2729C59.0127 48.8529 58.9 51.7456 58.7909 54.5456C58.7273 56.1911 58.6455 57.8784 58.3145 59.462H54.7982C54.5571 59.462 54.3258 59.5578 54.1554 59.7283C53.9849 59.8988 53.8891 60.13 53.8891 60.3711V62.8111H50.9091C50.668 62.8111 50.4368 62.9069 50.2663 63.0774C50.0958 63.2478 50 63.4791 50 63.7202ZM65.26 92.3493C65.2564 92.3365 65.2491 92.3256 65.2436 92.3129L65.3345 92.342L65.26 92.3493ZM67.8927 17.9784C69.46 13.7674 72.3073 10.9874 76.1273 9.9329C77.1295 9.64884 78.1656 9.50205 79.2073 9.49654C82.9673 9.49654 85.66 11.5584 87.3673 13.5165C89.3982 15.8493 90.1091 18.1529 90.5473 20.8984C91.2927 25.582 88.6436 30.7984 84.3836 33.0347C80.1327 35.2638 74.4891 34.5311 70.9655 31.2874C67.4455 28.0474 66.18 22.5765 67.8927 17.9784ZM51.8182 74.3675V66.0856L54.2673 70.1456C54.3079 70.2124 54.3651 70.2675 54.4332 70.3057C54.5014 70.344 54.5782 70.364 54.6564 70.3638H55.8491C55.8473 70.3947 55.8291 70.422 55.8291 70.4547C55.8309 70.9456 56.2127 71.4729 56.7055 71.442C57.1836 71.4093 57.4945 70.8675 57.4545 70.3893C57.4545 70.382 57.4491 70.3747 57.4473 70.3656H60.5727C60.56 70.4402 60.5218 70.5111 60.5218 70.5875C60.5236 71.082 60.9055 71.6075 61.3982 71.5747C61.8764 71.5438 62.1873 71.002 62.1491 70.5238C62.1436 70.4693 62.1091 70.4202 62.0982 70.3656H63.1291C63.2691 70.3656 63.4018 70.3002 63.4873 70.1875L66.8018 65.8911L66.6436 74.4856L51.8182 74.3675ZM66.6273 64.6293L62.9055 69.4565H61.6909C61.6418 69.3838 61.6 69.3056 61.5509 69.2347L61.0345 69.2202C60.9891 69.2965 60.9527 69.3784 60.9073 69.4565H57.0818C57.0073 69.3365 56.9364 69.2147 56.8582 69.102L56.3418 69.0838C56.2691 69.2056 56.2091 69.3329 56.1418 69.4565H54.9127L52.0636 64.7329C52.0309 64.6784 51.9709 64.6638 51.9236 64.6293H66.6273ZM55.7073 61.2802H58.3964C58.4909 61.4202 58.6036 61.5529 58.7473 61.6656C59.0084 61.8755 59.3323 61.9919 59.6673 61.9965C59.8832 61.9975 60.0959 61.9437 60.2855 61.8402C60.525 61.7017 60.7296 61.5101 60.8836 61.2802H62.7418V62.8111H55.7055V61.2802H55.7073Z" fill="#11151A"/>
</g>
<defs>
<clipPath id="clip0_495_1575">
<rect width="100" height="100" fill="white"/>
</clipPath>
</defs>
</svg>
