<svg width="75" height="75" viewBox="0 0 75 75" fill="none" xmlns="http://www.w3.org/2000/svg">
<path d="M12.4287 31.6757C28.8779 30.5712 45.3379 30.5717 61.3516 31.6742C62.1299 31.7264 62.7852 31.1115 62.7852 30.3368V18.7533C62.7852 18.4769 62.5615 18.2533 62.2852 18.2533C62.0088 18.2533 61.7852 18.4769 61.7852 18.7533V30.3368C61.7852 30.5361 61.6122 30.6973 61.4199 30.6762C45.3613 29.5702 28.8564 29.5707 12.3623 30.6776C12.1641 30.6958 11.9961 30.5345 11.9961 30.3378V7.63806C11.9961 7.45691 12.1387 7.30359 12.3193 7.28894C29.5322 5.90955 46.0674 5.90857 61.4678 7.28211C61.6455 7.29773 61.7852 7.45154 61.7852 7.63172V14.4652C61.7852 14.7416 62.0088 14.9652 62.2852 14.9652C62.5615 14.9652 62.7852 14.7416 62.7852 14.4652V7.63172C62.7852 6.92713 62.2568 6.34851 61.5576 6.28601C46.1006 4.90662 29.5088 4.90857 12.2393 6.29187C11.542 6.34851 10.9961 6.93982 10.9961 7.63806V30.3378C10.9961 31.1047 11.6451 31.7279 12.4287 31.6757Z" fill="black"/>
<path d="M31.8748 9.82072C26.8113 9.21574 21.3933 9.30802 15.7654 10.0942C15.364 10.1498 15.0789 10.5409 15.0877 11.0229L15.2771 22.2924C15.2853 22.7829 15.6085 23.1972 16.0535 23.1972C16.5057 23.1972 23.1006 22.1442 31.9334 22.9252C32.4174 22.9671 32.7712 22.5234 32.7625 21.998L32.573 10.725C32.5642 10.2485 32.2703 9.86808 31.8748 9.82072ZM28.5946 21.72C28.6296 21.358 28.632 20.9952 28.5583 20.6264C28.5583 19.9709 27.7588 18.7967 26.2124 18.4349C25.8831 18.3525 25.2349 18.4142 25.0805 18.1262C25.0085 18.0027 25.06 17.7249 25.06 17.5603C26.5828 16.1815 27.0149 13.3931 25.276 12.0555C24.4014 11.3764 23.1256 11.2735 22.1481 11.7983C20.6253 12.6214 20.4813 14.278 20.9031 15.7802C21.1089 16.5622 21.6027 17.4162 22.2613 17.8998C22.2716 18.0027 22.2716 18.0953 22.2407 18.157C22.0864 18.4451 21.4382 18.4142 21.1192 18.5069C19.7287 18.8999 18.9562 19.8686 18.8648 20.7178C18.7935 21.1468 18.7949 21.5539 18.8588 21.9322C17.9976 22.0041 17.1364 22.0686 16.2752 22.1689L16.0935 11.0585C21.4998 10.3173 26.7049 10.2275 31.574 10.7924L31.7566 21.9062C30.7085 21.8173 29.6522 21.7646 28.5946 21.72ZM11.4773 49.2983C12.2849 50.0946 13.2869 50.6308 14.0672 51.0072C18.5357 53.1879 25.2376 54.136 30.1642 54.5374C30.351 56.8437 29.9339 59.2127 28.9254 61.6176C27.0245 61.8726 24.6742 62.2903 22.8961 62.978C15.8809 63.5235 10.9946 64.7572 10.9946 66.1974C10.9946 68.1627 20.0183 69.7472 31.1615 69.7472C35.0289 69.7472 38.6397 69.5553 41.7095 69.2241C44.7594 69.0636 54.9461 68.2496 54.9461 65.2099C54.9461 63.0093 49.4818 61.9944 46.0029 61.5711C45.0028 59.1912 44.5824 56.8489 44.754 54.5708C49.0641 54.264 54.1195 53.5541 58.2156 52.1742C60.1931 51.5146 62.239 50.7411 63.617 49.1918C64.1635 48.5767 64.7376 47.816 64.3396 45.6396C64.3396 42.7727 57.6185 41.2523 54.7897 40.7007L56.9675 37.0663C57.1101 36.8295 57.033 36.5224 56.7957 36.3808C56.5593 36.2377 56.2517 36.3144 56.1101 36.5527L53.7393 40.5091C49.2929 39.7265 43.7644 39.2571 37.7562 39.2251L37.823 34.266C37.8269 33.9897 37.6062 33.7631 37.3299 33.7592C37.3279 33.7592 37.325 33.7592 37.323 33.7592C37.0496 33.7592 36.8269 33.9784 36.823 34.2524L36.7559 39.2293C31.019 39.257 25.7227 39.6798 21.4333 40.4015L19.8474 36.6689C19.739 36.4145 19.4451 36.2958 19.1922 36.4042C18.9382 36.5121 18.8191 36.8056 18.9275 37.0595L20.4234 40.5804C16.116 41.3833 12.9549 42.4988 11.6181 43.8189C11.6178 43.8193 11.6173 43.8194 11.617 43.8197C11.365 43.9594 11.1345 44.1625 10.9597 44.4003C10.6262 44.862 10.6089 45.4855 10.5681 46.0619C10.3958 48.1983 10.7986 48.6473 11.4773 49.2983ZM47.0086 65.5946C47.1586 65.8258 47.4687 65.8927 47.7 65.7421C47.9324 65.5922 47.9978 65.2826 47.8484 65.0507C47.3257 64.2445 46.8804 63.4417 46.4875 62.6418C51.8966 63.3686 53.9461 64.5819 53.9461 65.2099C53.9461 65.6576 52.8347 66.6322 48.6736 67.4452C45.6365 68.0165 41.7371 68.3315 37.6951 68.3315C27.7693 68.3315 21.4343 66.4828 21.4343 65.2099C21.4343 64.8525 22.2234 64.0512 25.1804 63.3183C26.1388 63.0807 27.2351 62.873 28.4377 62.6958C28.0452 63.4952 27.601 64.2973 27.0789 65.1025C26.9295 65.3339 26.9949 65.644 27.2263 65.7939C27.4627 65.946 27.7705 65.8748 27.9187 65.6464C28.9676 64.0284 29.7443 62.3051 29.7724 62.1842C30.8766 59.6216 31.3445 57.0861 31.1698 54.6068C35.6225 54.9066 39.6387 54.9044 43.7498 54.6367C43.4936 58.5449 44.8873 62.3217 47.0086 65.5946ZM53.1779 41.446L51.8902 43.595C47.372 42.5163 39.5295 42.3724 37.7141 42.3534L37.7428 40.2251C43.4251 40.2552 48.8111 40.709 53.1779 41.446ZM36.6713 45.5146C31.622 45.5295 27.2186 45.9957 24.7066 46.6919C24.4851 46.6542 24.2659 46.6162 24.0568 46.5764L23.1481 44.4377C25.7815 43.8711 30.3648 43.3612 36.7005 43.3511L36.6713 45.5146ZM22.865 46.3272C20.8396 45.841 20.5672 45.432 20.5457 45.432C20.6378 45.2131 21.1929 44.9468 22.1648 44.6791L22.865 46.3272ZM49.9783 46.7855C49.9287 46.7935 49.8809 46.8019 49.8306 46.8098C47.3192 46.0734 42.8309 45.5637 37.6714 45.5176L37.7006 43.3547C44.0349 43.3971 48.6481 43.924 51.3458 44.5034L49.9783 46.7855ZM52.363 44.7505C53.391 45.0295 53.992 45.3061 54.1189 45.5326C54.0438 45.6371 53.5826 46.0668 51.2861 46.5476L52.363 44.7505ZM36.7425 40.227L36.7139 42.3537C34.4779 42.3705 27.0692 42.4918 22.7498 43.5002L21.8327 41.3417C26.0329 40.6571 31.2108 40.249 36.7425 40.227ZM21.7747 43.7608C20.4231 44.1755 19.5505 44.7112 19.5476 45.4067C19.5447 46.3193 20.7586 46.9491 23.6052 47.5116C30.5557 48.8953 43.8899 48.9457 50.9119 47.6449C53.8631 47.0922 55.1248 46.4628 55.1287 45.5404C55.0583 45.4404 55.36 44.6423 52.891 43.8693L54.2327 41.6302C56.4183 42.0382 62.0572 43.2314 63.198 45.1507L63.3324 45.5774C63.3355 45.5982 63.3338 45.6203 63.3396 45.6381C63.3367 46.6073 61.4138 48.06 56.0271 49.2294C48.2339 50.9224 37.8653 51.1352 29.8074 50.5634C29.5564 50.5429 29.2927 50.7504 29.2732 51.0263C29.2537 51.3022 29.4617 51.5409 29.7371 51.5605C37.8614 52.1383 48.3453 51.9206 56.24 50.2069C58.9052 49.6279 61.9331 48.7121 63.4171 47.3744C63.402 47.7256 63.3688 47.9658 62.8689 48.5277C61.655 49.8925 59.7488 50.6088 57.8982 51.2265C53.8059 52.6047 48.5125 53.331 44.2439 53.6093C39.9746 53.9157 35.2099 53.9115 30.6746 53.578C25.7699 53.2014 18.9279 52.2665 14.5047 50.1078C13.7908 49.7636 12.8826 49.2797 12.1746 48.5819C11.9607 48.3759 11.6941 48.12 11.6365 47.8822C11.569 47.5959 11.5419 47.2987 11.5349 47.0125C13.9342 49.5269 21.8043 50.7293 25.5261 51.1674C25.7986 51.1986 26.0496 51.0038 26.0808 50.7294C26.114 50.455 25.9177 50.2065 25.6433 50.1742C16.1384 49.0556 11.8172 46.9394 11.824 45.4443C11.824 44.9797 12.2285 44.6425 12.3054 44.5424C13.5236 43.324 16.6118 42.2751 20.8203 41.5145L21.7747 43.7608ZM55.8601 14.6029C55.8953 14.3295 55.7019 14.0785 55.4285 14.0429C49.0779 13.2206 42.3123 13.1093 35.8601 13.7226C35.5847 13.7485 35.3836 13.9926 35.409 14.2675C35.4353 14.5434 35.6961 14.7475 35.9539 14.7177C42.3328 14.1122 49.0222 14.2231 55.2996 15.0351C55.596 15.0673 55.8261 14.8613 55.8601 14.6029ZM52.9158 18.9247C52.9509 18.6513 52.7576 18.4003 52.4841 18.3647C47.3318 17.6991 41.8425 17.6078 36.6043 18.1044C36.3289 18.1303 36.1277 18.3744 36.1531 18.6493C36.1795 18.9247 36.447 19.1313 36.698 19.0995C41.8621 18.6112 47.2761 18.7001 52.3552 19.3569C52.6517 19.3891 52.8818 19.183 52.9158 18.9247ZM36.9558 22.5653C36.6804 22.5912 36.4793 22.8354 36.5047 23.1103C36.531 23.3862 36.7976 23.5946 37.0496 23.5605C43.4883 22.9518 47.9148 23.7485 48.3093 23.7485C48.5564 23.7485 48.7713 23.5649 48.8045 23.3124C48.8396 23.039 48.6463 22.788 48.3728 22.7524C44.6668 22.2729 40.7175 22.2074 36.9558 22.5653Z" fill="black"/>
<path d="M31.7873 9.39396C26.7238 8.78898 21.3059 8.88127 15.6779 9.6674C15.2766 9.72306 14.9914 10.1142 15.0002 10.5961L15.1897 21.8656C15.1979 22.3562 15.521 22.7704 15.966 22.7704C16.4183 22.7704 23.0131 21.7174 31.8459 22.4985C32.3299 22.5404 32.6837 22.0966 32.675 21.5712L32.4855 10.2983C32.4768 9.8217 32.1828 9.44132 31.7873 9.39396ZM28.5072 21.2932C28.5421 20.9313 28.5446 20.5684 28.4708 20.1997C28.4708 19.5442 27.6714 18.37 26.1249 18.0081C25.7957 17.9258 25.1474 17.9875 24.9931 17.6994C24.921 17.576 24.9725 17.2981 24.9725 17.1335C26.4953 15.7547 26.9274 12.9663 25.1886 11.6288C24.314 10.9497 23.0382 10.8468 22.0607 11.3715C20.5378 12.1946 20.3938 13.8512 20.8156 15.3534C21.0214 16.1354 21.5153 16.9895 22.1738 17.473C22.1841 17.576 22.1841 17.6685 22.1532 17.7303C21.9989 18.0184 21.3507 17.9875 21.0318 18.0801C19.6413 18.4731 18.8687 19.4418 18.7773 20.291C18.7061 20.7201 18.7074 21.1271 18.7714 21.5055C17.9101 21.5774 17.0489 21.6418 16.1877 21.7421L16.0061 10.6318C21.4123 9.89054 26.6174 9.8007 31.4865 10.3656L31.6691 21.4794C30.621 21.3905 29.5647 21.3379 28.5072 21.2932ZM55.7727 14.1762C55.8078 13.9028 55.6145 13.6518 55.341 13.6161C48.9904 12.7939 42.2248 12.6825 35.7727 13.2958C35.4973 13.3217 35.2961 13.5658 35.3215 13.8407C35.3479 14.1166 35.6086 14.3207 35.8664 14.2909C42.2453 13.6855 48.9348 13.7963 55.2121 14.6083C55.5085 14.6405 55.7387 14.4345 55.7727 14.1762ZM52.8283 18.498C52.8635 18.2245 52.6701 17.9736 52.3967 17.9379C47.2443 17.2724 41.7551 17.1811 36.5168 17.6777C36.2414 17.7035 36.0402 17.9477 36.0656 18.2226C36.092 18.498 36.3596 18.7045 36.6105 18.6728C41.7746 18.1845 47.1887 18.2734 52.2678 18.9301C52.5642 18.9623 52.7943 18.7563 52.8283 18.498ZM36.8684 22.1386C36.593 22.1645 36.3918 22.4086 36.4172 22.6835C36.4436 22.9594 36.7102 23.1679 36.9621 23.1337C43.4008 22.5251 47.8273 23.3217 48.2219 23.3217C48.4689 23.3217 48.6838 23.1381 48.717 22.8857C48.7522 22.6122 48.5588 22.3612 48.2854 22.3256C44.5793 21.8461 40.6301 21.7807 36.8684 22.1386Z" fill="#5158F6"/>
</svg>
