<svg width="100" height="100" viewBox="0 0 100 100" fill="none" xmlns="http://www.w3.org/2000/svg">
<path d="M30.1358 28.9254C30.385 29.3025 31.0078 29.4282 31.3816 29.1768L33.4993 27.794V30.1825C33.4993 30.6853 33.8731 31.1882 34.496 31.1882C35.1188 31.1882 35.4926 30.811 35.4926 30.1825V27.6683L37.9841 29.4282C38.3578 29.6796 38.9807 29.6796 39.2298 29.1768C39.479 28.7997 39.479 28.1711 38.9807 27.9197L36.24 26.0341L38.7315 24.2741C39.1053 24.0227 39.2298 23.3942 38.9807 23.017C38.7315 22.6399 38.1086 22.5142 37.7349 22.7656L35.368 24.3998V21.5085C35.368 21.0057 34.9943 20.5028 34.3714 20.5028C33.7485 20.5028 33.3748 20.88 33.3748 21.5085V24.1484L31.5061 22.7656C31.1324 22.5142 30.5095 22.5142 30.2604 23.017C30.0112 23.3942 30.0112 24.0227 30.5095 24.2741L32.8765 26.0341L30.2604 27.794C30.0112 27.9197 29.8867 28.4225 30.1358 28.9254ZM46.4552 22.0114H69.0034C69.5017 22.0114 70 21.6342 70 21.0057C70 20.3771 69.6263 20 69.0034 20H46.4552C45.9569 20 45.4586 20.3771 45.4586 21.0057C45.4586 21.6342 45.9569 22.0114 46.4552 22.0114ZM58.0407 24.6513H52.0611C51.5628 24.6513 51.0645 25.0284 51.0645 25.6569C51.0645 26.2855 51.4382 26.6626 52.0611 26.6626H57.9162C58.4145 26.6626 58.9128 26.2855 58.9128 25.6569C58.9128 25.0284 58.539 24.6513 58.0407 24.6513ZM64.8924 69.6553H40.7247C40.2264 69.6553 39.7281 70.0324 39.7281 70.661C39.7281 71.2895 40.1019 71.6667 40.7247 71.6667H64.8924C65.3907 71.6667 65.889 71.2895 65.889 70.661C65.889 70.0324 65.3907 69.6553 64.8924 69.6553Z" fill="#5158F6"/>
<path d="M13.3401 83.4674C14.6139 85.1321 16.5246 86.2847 18.9447 86.7969C21.747 87.5653 21.2375 87.6934 82.6332 88.3337C84.2892 88.3337 85.9451 88.3336 87.4736 87.9495C89.8937 87.3092 89.639 83.7235 87.2188 83.3393C85.6903 83.0832 84.2892 83.2112 82.7606 83.4674C83.2701 82.699 83.6523 81.8026 83.7796 80.7781L87.601 36.9814C87.8557 34.5483 86.1998 32.1151 83.6523 31.4748V29.0417C83.6523 25.7121 80.9773 22.8948 77.4108 22.8948H75.7549C75.7549 20.0774 75.7549 17.1321 75.7549 14.3147C75.7549 13.8025 75.3728 13.4183 74.8633 13.2902C58.6864 12.2658 40.4714 10.2168 23.6577 13.2902C23.2755 13.4183 22.8934 13.6744 22.8934 14.0586C22.5113 14.6989 22.0018 15.2112 21.6196 15.8515C21.4923 18.5407 21.3649 21.23 21.2375 23.9193C17.7983 23.9193 15.1234 26.8646 15.1234 30.1942V39.5426C14.1044 39.5426 12.958 39.9268 12.1937 40.5671C10.5378 41.2074 9.26406 42.2319 8.62717 44.4089C8.11766 46.4579 8.37242 48.5069 8.62717 50.5558C12.1937 82.3148 11.8116 81.5464 13.3401 83.4674ZM77.4108 24.9437C79.7036 24.9437 81.7416 26.7366 81.7416 29.1697V31.3468H75.8823C75.7549 29.4259 75.7549 27.2488 75.7549 24.9437H77.4108ZM73.8442 15.3392C73.7169 20.7177 73.8442 26.0963 74.099 31.4748H50.0247C47.6046 31.4748 45.3118 32.4993 43.7832 34.2922L40.7262 37.8778C39.7072 39.0304 38.1787 39.6707 36.6501 39.6707H24.2946C23.9124 31.6029 24.1672 22.8948 24.6767 15.0831C40.8536 12.2658 58.559 14.1867 73.8442 15.3392ZM16.9067 30.1942C16.9067 27.8891 18.69 25.8402 21.1101 25.8402C20.9827 30.4503 20.9827 35.0605 21.2375 39.6707H17.0341L16.9067 30.1942ZM36.6501 41.5916C38.6882 41.5916 40.7262 40.6952 42.1273 39.1585L45.1844 35.5728C46.4582 34.1641 48.1141 33.3957 50.0247 33.3957H82.6332C84.5439 33.3957 86.0724 35.0605 85.8177 36.9814L81.9964 80.7781C81.869 82.4429 80.4678 83.7235 78.8119 83.7235L21.8744 83.8515C20.0911 83.8515 18.3078 83.7235 16.5246 83.2112C15.8877 82.699 15.3782 81.9306 15.2508 80.9061L11.8116 45.1773C11.6842 43.2564 13.0854 41.5916 14.996 41.5916H36.6501Z" fill="#11151A"/>
<path d="M79.8315 21.1797C80.3374 21.3052 80.8432 21.0543 80.9697 20.5524L82.2343 16.2866C82.4872 15.6593 82.1078 15.1574 81.602 15.032C81.0961 14.9065 80.5903 15.1574 80.4638 15.6593L79.1992 19.9251C79.0728 20.4269 79.3257 20.9288 79.8315 21.1797ZM84.7635 23.0617L88.178 18.7959C88.5574 18.4195 88.4309 17.7922 88.0515 17.4158C87.6721 17.0394 87.0398 17.1649 86.6604 17.5413L83.246 21.9325C82.8666 22.3089 82.9931 22.9362 83.3724 23.3126C83.8783 23.5636 84.3841 23.5636 84.7635 23.0617ZM86.534 27.453L90.3278 25.571C90.8337 25.3201 90.9601 24.8182 90.7072 24.3163C90.4543 23.8145 89.9484 23.689 89.4426 23.9399L85.6487 25.8219C85.1429 26.0728 85.0164 26.5747 85.2694 27.0766C85.5223 27.453 86.1546 27.5784 86.534 27.453Z" fill="#5158F6"/>
</svg>
