<svg width="100" height="100" viewBox="0 0 100 100" fill="none" xmlns="http://www.w3.org/2000/svg">
<path d="M9.96955 12.3916C8.42129 13.469 7.01186 14.7457 5.78703 16.1802C5.82636 24.3697 5.62997 32.682 5.6693 40.8715C5.67625 42.3195 5.84212 43.4734 6.77034 44.5847C7.86744 45.8983 9.3852 46.0787 11.0952 46.149C19.9743 46.514 29.1462 46.5313 38.0228 46.1091C36.7685 44.9063 35.5142 43.7035 34.26 42.5007C27.2656 43.386 20.1782 42.7799 13.1541 42.1729C12.1953 42.09 11.1505 41.9686 10.4733 41.2849C9.78051 40.5855 9.68143 39.5102 9.6219 38.5275C9.09375 29.8102 9.0111 21.0721 9.96955 12.3916Z" fill="#11151A"/>
<path d="M40.4387 51.9066C39.5813 51.7451 38.724 51.5837 37.8667 51.4222C36.4592 49.3152 34.887 47.0788 33.4795 44.9718C34.2747 45.2278 35.0648 44.1761 35.8563 44.4432C36.1935 44.557 36.4075 44.88 36.5959 45.182C38.0206 47.4666 39.0139 49.622 40.4387 51.9066ZM62.3859 89.3671C61.3468 89.0949 60.3077 88.8228 59.2686 88.5506C58.5204 85.8617 57.6342 82.9164 56.886 80.2275C58.6623 82.922 60.6096 86.6726 62.3859 89.3671Z" fill="#5158F6"/>
<path d="M49.3666 51.0492C48.2067 52.1792 47.0469 53.3092 45.887 54.4392C45.9285 62.5752 46.0068 71.1017 46.0484 79.2377C46.0543 80.4079 46.1542 81.7665 47.1161 82.4328C47.7415 82.8661 48.5586 82.8683 49.3193 82.8544C52.4403 82.7973 55.5612 82.7402 58.6822 82.6831C58.1911 81.5867 57.7 80.4902 57.2089 79.3937C54.5556 79.7829 51.8191 79.5945 49.2442 78.8454C48.7958 69.3704 48.7944 60.5176 49.3666 51.0492ZM31.2577 26.1342C28.6725 26.1342 26.3307 24.6225 25.3822 22.3162C24.7823 20.8581 24.8037 19.2621 25.4418 17.8227C26.1133 16.3084 27.3748 15.1526 28.9935 14.5693C32.2055 13.4161 35.8469 14.9492 37.1023 17.998C37.7017 19.4561 37.6809 21.0534 37.0428 22.4928C36.3706 24.0072 35.1091 25.163 33.4911 25.7462C32.8463 25.9777 32.174 26.1074 31.4931 26.1302C31.4149 26.1329 31.3359 26.1342 31.2577 26.1342ZM31.2249 16.2348C30.7139 16.2348 30.1942 16.3218 29.6892 16.5037C28.6036 16.8943 27.7621 17.6582 27.32 18.6561C26.9113 19.5779 26.8979 20.5999 27.2825 21.535C27.934 23.1202 29.5955 24.1757 31.4229 24.0754C31.8911 24.0607 32.3526 23.9724 32.7954 23.8119C33.8803 23.4212 34.7218 22.6574 35.1639 21.6594C35.5733 20.7377 35.5867 19.7143 35.2027 18.7792C34.5539 17.2033 32.9372 16.2348 31.2249 16.2348ZM41.7323 39.2255C41.7316 39.2255 41.7303 39.2255 41.7296 39.2255L18.5436 39.2001C18.2373 39.2001 17.947 39.0623 17.7524 38.8255C17.557 38.5901 17.4781 38.2784 17.5363 37.9774C18.2065 34.5206 20.5416 32.3414 22.5014 30.8297C25.2164 28.7335 27.7775 27.7663 30.5748 27.797C30.8671 27.801 31.1533 27.8131 31.4383 27.8385C34.0188 28.0659 36.497 29.0853 38.4194 30.708C38.6548 30.906 38.8762 31.1107 39.0849 31.3207C39.9571 32.1969 40.6655 33.2136 41.3149 34.5233C41.7042 35.3072 42.0306 36.1058 42.3591 36.9232L42.4386 37.0958C42.5771 37.3821 42.7671 37.7754 42.7597 38.2155C42.7497 38.776 42.2928 39.2255 41.7323 39.2255ZM19.8934 37.1466L40.2414 37.168C39.9986 36.5727 39.7504 35.9921 39.4742 35.4356C38.9264 34.332 38.3398 33.4852 37.6287 32.7708C37.4622 32.6036 37.2849 32.439 37.0956 32.2799C35.4923 30.926 33.4202 30.0766 31.259 29.8853C31.0236 29.8652 30.7868 29.8558 30.5493 29.8518C28.2404 29.8879 26.12 30.6331 23.7562 32.4564C21.7195 34.0283 20.5081 35.4838 19.8934 37.1466ZM70.866 63.1044C68.3343 63.1044 66.0273 61.6543 65.0487 59.4096C64.4187 57.9634 64.406 56.3675 65.0146 54.9147C65.6547 53.387 66.8915 52.2057 68.4975 51.589C71.688 50.3637 75.3575 51.8231 76.6759 54.8465C77.3059 56.2926 77.3186 57.8885 76.71 59.3413C76.0699 60.8691 74.8338 62.0503 73.2278 62.667C72.589 62.9131 71.9195 63.0563 71.2392 63.0937C71.1148 63.1004 70.9897 63.1044 70.866 63.1044ZM70.8586 53.2064C70.3168 53.2064 69.7663 53.3027 69.2339 53.5074C68.1564 53.9207 67.331 54.702 66.9096 55.7093C66.5203 56.6391 66.5283 57.6611 66.9323 58.5882C67.6159 60.1587 69.2934 61.154 71.1255 61.0416C71.593 61.0162 72.0519 60.9172 72.4914 60.7487C73.5682 60.3353 74.3936 59.554 74.815 58.5467C75.2043 57.617 75.1963 56.5949 74.7923 55.6679C74.1234 54.1348 72.5355 53.2064 70.8586 53.2064ZM58.5452 76.4325C58.2463 76.4325 57.9613 76.3028 57.766 76.0753C57.566 75.8426 57.4811 75.5335 57.5326 75.2312C58.1299 71.7624 60.4188 69.5337 62.3465 67.9806C65.0173 65.8295 67.5617 64.8128 70.355 64.7793C70.6466 64.778 70.9342 64.7847 71.2198 64.8034C73.801 64.976 76.3006 65.9432 78.2591 67.5257C78.4992 67.7197 78.7246 67.9204 78.9373 68.1237C79.8263 68.9812 80.5554 69.9832 81.2336 71.2795C81.6376 72.0514 81.9814 72.8447 82.3272 73.6567L82.4101 73.8252C82.5546 74.1102 82.7533 74.4995 82.7553 74.9396C82.758 75.5028 82.3078 75.963 81.7453 75.9723L58.566 76.4325C58.5586 76.4325 58.5519 76.4325 58.5452 76.4325ZM70.4426 66.8341C70.4192 66.8341 70.3958 66.8341 70.3723 66.8341C68.04 66.8622 65.9598 67.709 63.6354 69.5805C61.6328 71.1952 60.4515 72.6761 59.8716 74.351L80.2149 73.9443C79.9594 73.3543 79.6992 72.7791 79.4129 72.232C78.8403 71.1377 78.2364 70.3029 77.512 69.6046C77.3414 69.4401 77.1588 69.2795 76.9655 69.1217C75.3354 67.804 73.2458 66.9973 71.0827 66.8528C70.87 66.8395 70.6566 66.8341 70.4426 66.8341Z" fill="#11151A"/>
<path d="M40.8007 52.1765C40.4429 52.1765 40.1078 51.9892 39.9212 51.6801C39.6161 51.1745 39.3279 50.6742 39.0436 50.1819C37.663 47.79 36.4644 45.7138 34.0912 44.2288C27.3422 44.4469 20.9832 44.2195 13.978 43.9212C13.7948 43.9145 13.6081 43.9118 13.4215 43.9078C12.4918 43.8944 11.4376 43.877 10.4778 43.3192C8.13739 41.9547 8.10662 38.7066 8.09324 37.3193C8.06783 34.5716 8.04174 31.1576 8.01632 27.7437C7.99024 24.331 7.96482 20.9171 7.93873 18.1707C7.9287 17.0443 7.91733 15.7681 8.32802 14.5427C8.84573 12.9976 9.97079 11.934 11.3366 11.6999C15.481 10.9936 20.6494 10.8826 24.2587 10.908C28.2285 10.9361 31.7321 10.8465 35.1173 10.7582C39.5854 10.6378 43.806 10.5254 48.5999 10.714C50.2587 10.7782 52.1268 11.5434 53.2492 12.6203C54.6539 13.9634 54.688 16.0784 54.708 17.3426C54.7596 20.5653 54.8117 24.4541 54.8632 28.3443C54.9154 32.2318 54.9669 36.1194 55.0191 39.3407C55.0304 40.0443 55.0465 41.0089 54.5823 41.8704C53.6546 43.5881 51.3958 43.4342 50.046 43.3406C48.9684 43.267 47.0534 43.2576 46.1745 43.2924C45.7143 44.1018 45.2648 44.8576 44.8307 45.5867C43.616 47.6281 42.5666 49.3899 41.7612 51.5129C41.6221 51.8808 41.285 52.1363 40.893 52.1724C40.8623 52.1751 40.8315 52.1765 40.8007 52.1765ZM34.3628 42.1647C34.5454 42.1647 34.7253 42.2128 34.8832 42.3065C37.7821 44.0108 39.2101 46.3652 40.6603 48.8735C41.378 47.3699 42.2047 45.9813 43.0649 44.5352C43.5739 43.6804 44.1057 42.7881 44.6488 41.8142C44.7872 41.5667 45.0227 41.3874 45.2989 41.3179C45.9243 41.164 49.1604 41.2202 50.1864 41.2911C51.0426 41.3486 52.4767 41.449 52.7737 40.8952C52.983 40.5072 52.973 39.9052 52.9643 39.3741C52.9128 36.1501 52.8606 32.2613 52.8091 28.3711C52.7569 24.4835 52.7054 20.596 52.6533 17.3747C52.6332 16.0998 52.5523 14.7968 51.8279 14.1039C51.066 13.3735 49.6754 12.8116 48.5203 12.7661C43.7933 12.5842 39.6048 12.6952 35.1715 12.8116C31.7695 12.9026 28.2532 12.9949 24.242 12.9628C20.713 12.9293 15.679 13.0417 11.6845 13.7253C10.7828 13.8791 10.3788 14.8892 10.2758 15.1955C9.9748 16.0945 9.98416 17.1406 9.99353 18.1519C10.0189 20.8997 10.045 24.3137 10.0704 27.7276C10.0965 31.1402 10.122 34.5542 10.148 37.3006C10.1641 39.0143 10.3393 40.859 11.5126 41.544C12.0069 41.8316 12.7098 41.8423 13.4536 41.8543C13.6583 41.857 13.8623 41.8597 14.0643 41.869C21.1337 42.1674 27.5355 42.4001 34.328 42.1647C34.3394 42.1647 34.3514 42.1647 34.3628 42.1647Z" fill="#11151A"/>
<path d="M62.4739 89.3863C62.4519 89.3863 62.4298 89.3849 62.4077 89.3836C62.0151 89.3582 61.672 89.112 61.5228 88.7482C60.676 86.6773 59.5978 84.9663 58.3496 82.9864C57.9048 82.2801 57.4433 81.5497 56.9711 80.7671C56.1464 80.7497 54.234 80.8153 53.1705 80.9156C51.8428 81.0413 49.6134 81.2514 48.6509 79.5738C48.1706 78.7351 48.1613 77.7812 48.1546 77.0856C48.1245 73.8803 48.0763 70.0062 48.0288 66.1387C47.9827 62.3422 47.9359 58.5523 47.9058 55.4059C47.8937 54.1591 47.8743 52.0709 49.2275 50.7064C50.3097 49.6174 52.1344 48.8148 53.7692 48.7091C58.4881 48.4041 62.6432 48.4135 67.0497 48.4108C70.3841 48.4135 73.8375 48.4161 77.7531 48.2837C81.3076 48.1673 86.4051 48.1486 90.504 48.7399C91.8611 48.9365 93.0009 49.9586 93.5527 51.4729C93.9888 52.6715 94.0096 53.9317 94.0283 55.042C94.0718 57.7483 94.1326 61.1114 94.1935 64.4746C94.2544 67.8377 94.3152 71.2021 94.3594 73.9098C94.3815 75.2783 94.4343 78.4849 92.1548 79.8922C91.2223 80.4674 90.1849 80.5116 89.2692 80.5491C89.0833 80.5571 88.898 80.5651 88.7154 80.5771C81.8112 81.0454 75.5485 81.4186 68.9132 81.3878C66.6183 82.9075 65.4906 84.9824 64.1923 87.3716C63.9254 87.8626 63.6538 88.3629 63.3669 88.8672C63.1836 89.1896 62.8418 89.3863 62.4739 89.3863ZM56.6601 78.7163C57.1878 78.7163 57.6119 78.7324 57.7992 78.7738C58.0761 78.8354 58.3155 79.0093 58.46 79.2528C59.0199 80.1972 59.565 81.0614 60.0881 81.8908C60.9676 83.2861 61.8124 84.6265 62.5549 86.0807C63.9167 83.5817 65.2658 81.234 68.0718 79.4855C68.237 79.3812 68.4156 79.3344 68.6236 79.3304C75.2897 79.3932 81.6086 78.9999 88.5756 78.5277C88.7763 78.5143 88.9796 78.505 89.1836 78.4969C89.9113 78.4662 90.5996 78.4367 91.0745 78.1438C92.2076 77.4441 92.332 75.6274 92.3046 73.9432C92.2611 71.2369 92.2002 67.8738 92.1394 64.5107C92.0785 61.1476 92.0176 57.7831 91.9735 55.0755C91.9574 54.0802 91.94 53.0501 91.6223 52.1766C91.514 51.8796 91.0926 50.9017 90.2097 50.7733C86.2619 50.2034 81.2935 50.2208 77.822 50.3385C73.8723 50.4709 70.4089 50.4642 67.0477 50.4656C62.6813 50.4709 58.553 50.4602 53.9016 50.7585C52.7685 50.8321 51.416 51.4194 50.6863 52.1538C49.9947 52.8508 49.9485 54.1337 49.9606 55.3872C49.9907 58.5309 50.0375 62.3194 50.0836 66.1133C50.1311 69.9821 50.1786 73.8589 50.2094 77.0655C50.2147 77.5873 50.2201 78.1785 50.4341 78.5518C50.7371 79.0829 52.1953 78.9424 52.9779 78.8688C53.6815 78.8033 55.446 78.7163 56.6601 78.7163Z" fill="#11151A"/>
<path d="M64.7286 26.3C64.647 26.3 64.564 26.2907 64.4811 26.2693C63.9299 26.1342 63.5941 25.5763 63.7306 25.0252L65.1887 19.1323C65.3252 18.5839 65.8837 18.2427 66.4329 18.3832C66.984 18.5183 67.3198 19.0762 67.1833 19.6273L65.7252 25.5201C65.6095 25.987 65.1901 26.3 64.7286 26.3Z" fill="#11151A"/>
<path d="M70.6029 31.4708C70.3647 31.4708 70.1253 31.3878 69.9306 31.2193C69.5019 30.8487 69.4557 30.1999 69.827 29.7705L76.2067 22.4088C76.5786 21.9807 77.2268 21.9339 77.6562 22.3058C78.0849 22.6764 78.1311 23.3252 77.7599 23.7546L71.3801 31.1163C71.1767 31.3504 70.8905 31.4708 70.6029 31.4708Z" fill="#11151A"/>
<path d="M74.4976 35.8849C73.9792 35.8849 73.5331 35.493 73.4776 34.9659C73.4174 34.4013 73.826 33.8957 74.3906 33.8355C76.6641 33.5947 78.8553 32.9552 80.9041 31.9372C81.4138 31.6897 82.0298 31.893 82.2813 32.4001C82.5342 32.9084 82.3268 33.5251 81.8191 33.7779C79.551 34.9043 77.1243 35.612 74.6073 35.8796C74.5705 35.8836 74.5337 35.8849 74.4976 35.8849Z" fill="#11151A"/>
<path d="M34.3414 46.2385C35.5142 47.9644 36.7358 49.7289 37.8669 51.422C38.6065 51.5613 39.3461 51.7006 40.0857 51.8399C40.6677 52.4379 41.5137 52.1667 41.761 51.5129C42.8586 48.6195 44.4178 46.3815 46.1743 43.2924C47.0532 43.2576 48.9682 43.267 50.0457 43.3406C53.524 43.5819 55.0746 42.7923 55.0188 39.3407C54.9179 33.1092 54.8115 23.8279 54.7078 17.3426C54.6877 16.0784 54.6536 13.9634 53.249 12.6203C52.1266 11.5434 50.2584 10.7782 48.5996 10.714C43.8058 10.5254 39.5851 10.6378 35.117 10.7582C23.0405 11.0731 17.6676 10.621 11.3371 11.6999C11.2 11.7544 10.2233 11.8116 9.22985 12.9798C7.97996 13.9317 6.80692 14.9854 5.78671 16.1802C5.90638 41.1187 4.93674 42.3898 6.76996 44.5847C7.86709 45.8983 9.38486 46.0787 11.0948 46.149C18.755 46.464 26.623 46.5003 34.3414 46.2385ZM10.2756 15.1955C10.3786 14.8892 10.7826 13.8791 11.6842 13.7253C17.8603 12.6684 23.0896 13.1347 35.1712 12.8116C39.6045 12.6952 43.7931 12.5842 48.52 12.7661C49.6752 12.8116 51.0658 13.3735 51.8276 14.1039C52.8489 15.0808 52.6455 16.2002 52.8089 28.3711C52.971 40.6161 53.07 40.3456 52.7734 40.8951C52.4764 41.449 51.0424 41.3486 50.1862 41.2911C49.1601 41.2202 45.9241 41.164 45.2987 41.3179C45.0224 41.3874 44.787 41.5667 44.6485 41.8142C43.2492 44.3234 41.7905 46.5051 40.66 48.8735C39.2099 46.3652 37.7818 44.0108 34.8829 42.3065C34.7251 42.2128 34.5451 42.1647 34.3625 42.1647C34.3512 42.1647 34.3391 42.1647 34.3278 42.1647C24.704 42.4983 15.9749 41.8873 13.4534 41.8543C11.5129 41.8229 10.1893 41.7261 10.1478 37.3006C10.0992 32.1815 10.0443 23.6631 9.99329 18.1519C9.98392 17.1406 9.97456 16.0945 10.2756 15.1955Z" fill="#11151A"/>
<path d="M31.4931 26.1305C35.7929 25.9869 38.6823 21.8408 37.103 17.9983C35.0568 13.0295 27.6274 12.8944 25.4418 17.8231C23.6623 21.8371 26.881 26.2882 31.4931 26.1305ZM31.2249 16.2352C32.9372 16.2352 34.5539 17.2037 35.2027 18.7796C36.0099 20.7454 35.005 23.0166 32.7954 23.8122C30.5969 24.6093 28.1387 23.6187 27.2825 21.5353C26.225 18.9642 28.2786 16.2352 31.2249 16.2352ZM41.7296 39.2258H41.7323C42.2928 39.2258 42.7497 38.7764 42.7597 38.2158C42.7671 37.7757 42.5771 37.3824 42.4386 37.0961C41.535 34.9326 40.8084 33.0524 39.0849 31.321C37.2534 29.4778 34.4953 28.1083 31.4383 27.8389C28.0467 27.5363 25.1854 28.7577 22.5014 30.8301C20.5416 32.3417 18.2065 34.521 17.5363 37.9777C17.4781 38.2787 17.557 38.5904 17.7524 38.8259C18.3356 39.5354 17.7823 39.0615 41.7296 39.2258ZM23.7562 32.4568C25.9847 30.7378 28.4766 29.6485 31.259 29.8856C33.7866 30.1094 36.0938 31.2301 37.6287 32.7712C38.875 34.0233 39.571 35.5249 40.2414 37.1684L19.8934 37.147C20.5081 35.4841 21.7195 34.0287 23.7562 32.4568ZM76.71 59.3417C78.747 54.4797 73.6171 49.6231 68.4975 51.5894C65.2218 52.8473 63.7258 56.3737 65.0487 59.4099C67.2039 64.3537 74.6244 64.3191 76.71 59.3417ZM69.2339 53.5077C72.6878 52.18 76.1513 55.3556 74.815 58.5471C74.1843 60.0549 72.6821 60.9574 71.1255 61.042C69.2934 61.1544 67.6159 60.1591 66.9323 58.5885C66.0708 56.6115 67.0687 54.3383 69.2339 53.5077ZM78.2591 67.5261C76.3006 65.9435 73.801 64.9763 71.2198 64.8038C67.8011 64.5796 64.9687 65.869 62.3465 67.9809C60.4188 69.5341 58.1299 71.7628 57.5326 75.2316C57.4254 75.8605 57.908 76.4329 58.5452 76.4329C58.5519 76.4329 58.5586 76.4329 58.566 76.4329L81.7453 75.9727C82.3078 75.9633 82.758 75.5031 82.7553 74.9399C82.7533 74.4998 82.5546 74.1105 82.4101 73.8256C81.3499 71.3912 80.433 69.2822 78.2591 67.5261ZM59.8716 74.3513C60.4515 72.6765 61.6328 71.1956 63.6354 69.5809C65.6653 67.9465 67.8147 66.8345 70.4426 66.8345C73.0866 66.8345 75.7433 67.8988 77.512 69.605C78.7848 70.832 79.5129 72.3239 80.2149 73.9446L59.8716 74.3513Z" fill="#5158F6"/>
<path d="M93.5521 51.4726C93.0003 49.9583 91.8605 48.9362 90.5033 48.7396C84.559 47.8821 57.54 48.465 53.7685 48.7088C51.8217 48.8347 49.2295 49.9783 48.3853 52.0049C47.5524 52.8163 46.7196 53.6277 45.8867 54.4391C45.9283 62.5752 46.0066 71.1016 46.0481 79.2377C46.0541 80.4078 46.1539 81.7665 47.1159 82.4328C47.9651 83.021 48.2344 82.8741 57.5899 82.703C58.1544 84.6612 58.7447 86.6674 59.2686 88.5503C62.6539 89.437 62.3331 89.386 62.4733 89.386C62.8412 89.386 63.183 89.1893 63.3663 88.8669C63.6532 88.3626 63.9248 87.8623 64.1917 87.3713C65.49 84.9821 66.6177 82.9072 68.9126 81.3875C78.1677 81.4304 86.813 80.6547 89.2686 80.5488C90.1843 80.5113 91.2217 80.4672 92.1541 79.8919C94.4337 78.4846 94.3808 75.278 94.3587 73.9095C94.0056 52.2495 94.1016 52.983 93.5521 51.4726ZM89.183 78.4966C88.979 78.5047 88.7756 78.514 88.575 78.5274C68.5918 79.8819 68.8219 79.0111 68.0712 79.4852C65.2652 81.2337 63.9161 83.5815 62.5542 86.0804C61.3718 83.7644 59.963 81.7891 58.4594 79.2525C58.1035 78.6528 57.4401 78.716 56.6594 78.716C50.7855 78.716 50.2371 79.829 50.2088 77.0652C50.178 73.8586 50.1305 69.9818 50.083 66.113C49.9413 54.4681 49.709 53.1377 50.6857 52.1535C51.4154 51.4191 52.7679 50.8318 53.901 50.7583C57.8028 50.508 84.6227 49.9665 90.209 50.773C91.0919 50.9014 91.5133 51.8793 91.6217 52.1763C92.0261 53.2882 91.9637 52.7635 92.304 73.9429C92.3751 78.3146 91.0341 78.4184 89.183 78.4966ZM64.7288 26.3C65.1903 26.3 65.6097 25.987 65.7254 25.5201L67.1836 19.6273C67.32 19.0762 66.9842 18.5183 66.4331 18.3832C65.8839 18.2427 65.3254 18.5839 65.189 19.1323L63.7308 25.0252C63.5694 25.6769 64.0642 26.3 64.7288 26.3ZM77.6555 22.3055C77.2261 21.9336 76.578 21.9804 76.2061 22.4085L69.8263 29.7702C69.4551 30.1996 69.5012 30.8484 69.93 31.219C70.3631 31.5941 71.01 31.5413 71.3794 31.116L77.7592 23.7543C78.1304 23.3249 78.0843 22.6761 77.6555 22.3055ZM74.6068 35.8797C77.1238 35.6122 79.5504 34.9045 81.8186 33.7781C82.3263 33.5253 82.5336 32.9086 82.2808 32.4002C82.0293 31.8932 81.4133 31.6899 80.9036 31.9373C78.8548 32.9554 76.6636 33.5948 74.3901 33.8356C73.8255 33.8958 73.4168 34.4015 73.477 34.966C73.5371 35.5365 74.0522 35.9402 74.6068 35.8797Z" fill="#11151A"/>
</svg>
