<svg width="246" height="245" viewBox="0 0 246 245" fill="none" xmlns="http://www.w3.org/2000/svg">
<path d="M135.313 205.3L113.829 205.102L94.6121 204.807L76.4789 204.61C65.9341 204.61 69.3833 205.99 79.7311 207.173C94.5838 208.833 109.546 209.294 124.473 208.552L154.136 206.975C158.11 206.845 162.066 206.383 165.963 205.595C171.087 204.512 163.4 204.708 154.432 204.906L135.313 205.3ZM224.993 204.708L211.295 204.117C203.51 203.821 194.148 203.624 187.348 203.92C173.846 204.412 196.217 208.848 217.996 207.665C239.777 206.483 238.1 207.665 244.605 206.285C247.857 205.497 242.93 205.201 237.214 205.004L224.993 204.708Z" fill="#1E1D1C"/>
<path d="M82.2936 118.379C83.7632 118.379 84.9545 117.187 84.9545 115.718C84.9545 114.248 83.7632 113.057 82.2936 113.057C80.8242 113.057 79.6328 114.248 79.6328 115.718C79.6328 117.187 80.8242 118.379 82.2936 118.379ZM134.919 60.0371C121.418 90.9818 120.728 139.173 125.853 172.877C125.853 172.877 143.887 154.251 153.545 134.146L163.105 114.043C163.105 114.043 174.143 137.498 185.969 149.225C193.22 156.328 201.615 162.158 210.803 166.471C205.579 137.005 202.328 89.6021 215.14 63.0921L134.919 60.0371Z" fill="#5158F6"/>
<path d="M132.161 194.755C132.149 194.907 132.078 195.048 131.964 195.149L131.175 196.332C129.897 197.522 128.337 198.37 126.642 198.795L122.405 199.583L117.181 200.175C113.189 200.621 109.175 200.851 105.158 200.864H98.5555L95.599 200.668C94.9318 200.558 94.3135 200.249 93.8251 199.781C92.8396 198.893 92.1498 197.022 91.5585 194.853L91.1642 193.276C91.0288 192.825 90.93 192.364 90.8686 191.897C90.8531 191.598 90.8864 191.298 90.9672 191.009C91.0213 190.701 91.1209 190.402 91.2628 190.123C91.7265 189.332 92.2895 188.603 92.9381 187.955C93.6485 187.278 94.406 186.652 95.2048 186.082C96.8414 185.015 98.6379 184.217 100.526 183.717C104.04 182.805 107.759 183.118 111.071 184.604C113.228 185.574 115.222 186.871 116.984 188.448C118.068 189.334 118.463 189.432 118.463 188.743C118.025 187.219 117.212 185.83 116.097 184.702C113.841 182.291 110.984 180.522 107.819 179.577C103.098 178.344 98.089 178.869 93.7266 181.056C92.5002 181.741 91.3155 182.498 90.1787 183.323C89.0063 184.319 87.9486 185.443 87.0252 186.673C86.5202 187.417 86.091 188.209 85.744 189.038C85.4618 189.998 85.3289 190.995 85.3498 191.995C85.345 192.858 85.4442 193.718 85.6455 194.557C85.8426 195.247 85.9411 195.937 86.1382 196.627C86.528 198.241 87.1242 199.797 87.9121 201.258C88.8003 203.147 90.3399 204.652 92.2483 205.496C93.9584 206.236 95.8056 206.606 97.6686 206.581H102.3C108.581 206.446 114.842 205.819 121.025 204.708C123.602 204.249 126.139 203.59 128.613 202.737C131.074 201.903 133.211 200.317 134.723 198.204C135.889 196.353 136.63 194.266 136.891 192.094C137.208 190.338 137.34 188.555 137.286 186.772C137.237 183.894 136.941 181.025 136.399 178.198C136.103 177.016 135.906 175.931 135.61 174.946C135.315 173.96 134.92 172.285 134.625 171.103L130.88 171.793L128.515 172.187L124.573 172.778L121.123 173.271L118.955 173.664L116.787 174.059C117.28 175.636 117.97 177.41 118.561 178.987C119.152 180.564 119.842 181.648 119.941 180.662C119.907 179.834 119.808 179.011 119.645 178.198C119.655 177.932 119.622 177.666 119.547 177.41V176.917C119.465 176.595 119.432 176.263 119.448 175.931H121.321L125.361 175.537L129.697 175.045L131.668 174.847H132.26C132.471 175.626 132.635 176.415 132.752 177.213C133.048 178.593 133.245 179.972 133.442 181.352C133.748 183.704 133.814 186.082 133.639 188.448C133.555 190.081 133.291 191.701 132.851 193.276C132.661 193.787 132.431 194.281 132.161 194.755ZM222.925 185.688C222.925 185.688 223.123 186.477 223.615 187.857L224.404 190.32C224.568 190.625 224.668 190.961 224.7 191.305C224.614 191.426 224.549 191.559 224.502 191.699L224.108 192.094L223.517 192.784L222.137 194.065C220.987 194.945 219.728 195.673 218.393 196.233C215.169 197.58 211.732 198.348 208.242 198.5C204.398 198.894 200.358 198.993 197.5 197.416C194.642 195.839 192.868 192.193 193.36 189.236C193.556 187.694 194.331 186.284 195.529 185.294C196.843 184.056 198.339 183.026 199.963 182.239C203.215 180.662 206.567 180.169 209.128 181.254C210.267 181.675 211.332 182.274 212.282 183.027C212.922 183.568 213.516 184.161 214.056 184.801C214.845 185.688 215.239 185.886 215.337 185.196C215.29 183.708 214.733 182.282 213.76 181.155C212.906 180.069 211.873 179.136 210.705 178.396C209.185 177.465 207.459 176.923 205.68 176.819C203.585 176.669 201.481 176.902 199.471 177.508C197.234 178.221 195.11 179.25 193.164 180.564C192.038 181.36 191.041 182.323 190.207 183.421C189.269 184.626 188.567 185.997 188.137 187.463C187.381 190.59 187.802 193.888 189.32 196.726C190.103 198.18 191.1 199.509 192.277 200.668L194.346 202.146C195.061 202.587 195.821 202.95 196.613 203.231C199.609 204.306 202.813 204.678 205.975 204.314C208.966 204.178 211.937 203.749 214.845 203.033C217.912 202.233 220.814 200.898 223.419 199.091C224.648 198.203 225.772 197.178 226.769 196.036C227.332 195.434 227.827 194.774 228.248 194.065C228.783 193.177 229.024 192.142 228.938 191.109C228.918 190.317 228.716 189.542 228.346 188.842C228.159 188.267 227.928 187.707 227.656 187.167C227.262 186.082 226.769 185.097 226.375 184.111C224.7 180.071 223.221 176.72 221.94 173.862C220.66 171.004 219.477 168.541 218.589 166.471L217.012 163.219L216.224 161.544L215.83 160.755V160.558H215.731L215.337 160.755L210.805 163.711C209.762 164.353 208.773 165.079 207.847 165.88L205.088 168.343L204.3 169.132L203.905 169.624L203.709 169.822H203.61V170.018L204.201 172.483C204.99 175.931 205.384 175.045 205.384 171.793C205.384 171.3 205.482 171.201 205.482 170.906V170.709H205.581L205.876 170.413L206.369 170.216C206.556 169.998 206.792 169.829 207.059 169.724L208.538 168.639L211.888 166.471L212.776 165.88L213.17 165.584H213.564L214.253 165.288H214.451L214.647 165.682L215.041 166.57L216.816 170.709C217.998 173.468 219.083 176.031 219.969 178.396C221.743 182.535 222.925 185.688 222.925 185.688Z" fill="#1E1D1C"/>
<path d="M158.573 41.9041C158.494 42.0197 158.459 42.1593 158.473 42.2983C158.473 42.4954 158.375 42.7911 158.375 43.2838C158.448 44.2995 158.68 45.2974 159.065 46.2403C159.287 46.7043 159.421 47.2056 159.459 47.7186C159.566 48.0721 159.566 48.4492 159.459 48.8026H159.163C158.967 48.9012 158.473 48.7041 157.882 48.4084L156.897 47.7186L155.517 47.0287C154.93 46.7286 154.297 46.5288 153.645 46.4374C152.845 46.2959 152.02 46.3989 151.28 46.7331L150.196 47.5215L149.703 48.0142L149.407 48.6055C149.187 48.9645 149.052 49.369 149.013 49.7881C149.013 50.1823 148.914 50.5765 148.914 50.8722C149.016 51.9067 149.214 52.9294 149.506 53.9272C149.701 54.4983 149.8 55.0976 149.801 55.7011C149.801 55.8982 149.801 55.7997 149.703 55.8982L149.407 56.0953C148.683 56.1524 147.955 56.1193 147.239 55.9968C146.303 55.9674 145.37 56.1008 144.48 56.391C143.311 56.674 142.25 57.2902 141.425 58.1649C141.03 58.6576 141.03 58.8547 141.326 58.9533C141.622 59.0518 143.987 58.1649 146.648 58.6576L149.013 59.1504C149.643 59.1731 150.274 59.1068 150.885 58.9533C151.618 58.6597 152.238 58.1423 152.659 57.475C153.08 56.8326 153.287 56.0738 153.251 55.3069C153.269 54.6811 153.237 54.0548 153.152 53.4345C152.902 52.5355 152.77 51.608 152.758 50.6751C152.743 50.5362 152.778 50.3965 152.856 50.2809H152.955C153.697 50.4364 154.4 50.7379 155.024 51.1678C155.598 51.5602 156.23 51.8595 156.897 52.0548C157.691 52.4464 158.576 52.6166 159.459 52.5475C160.009 52.475 160.543 52.3084 161.036 52.0548C161.5 51.7374 161.901 51.3364 162.219 50.8722C162.517 50.4261 162.718 49.9225 162.809 49.3939V48.1128C162.731 47.3946 162.531 46.6948 162.219 46.0432C162.128 45.7309 161.996 45.4325 161.825 45.1563L161.529 44.565C161.17 43.9007 161 43.151 161.036 42.3969C161.134 41.9041 161.43 41.707 162.021 41.5099C162.588 41.4272 163.166 41.4951 163.697 41.707C164.825 42.0829 165.977 42.3793 167.146 42.594C168.107 42.7941 169.105 42.6909 170.004 42.2983C170.668 41.9311 171.214 41.3846 171.581 40.7215C171.804 40.2394 172 39.7459 172.172 39.2433C172.244 38.8003 172.377 38.3692 172.566 37.9621C172.686 37.6871 172.862 37.44 173.082 37.2364C173.303 37.0332 173.564 36.8776 173.847 36.7795C174.635 36.4839 175.03 36.7795 175.03 36.5824C175.03 36.3853 174.931 36.3853 174.635 36.1882C174.463 36.0744 174.269 35.9981 174.065 35.9644C173.862 35.9305 173.653 35.9396 173.453 35.9911C172.903 35.9936 172.375 36.205 171.975 36.5824L171.285 37.2723L170.989 37.6665L170.693 38.0607C170.473 38.5747 170.209 39.0692 169.905 39.5389C169.784 39.9051 169.541 40.2184 169.216 40.4259C168.336 40.6987 167.385 40.6283 166.555 40.2288C165.393 39.7066 164.167 39.342 162.909 39.1447C162.213 39.0625 161.507 39.1297 160.838 39.3418C160.228 39.5608 159.685 39.9343 159.262 40.4259C158.888 40.8379 158.648 41.3532 158.573 41.9041ZM202.229 42.0027L201.639 42.1998C201.042 42.4448 200.504 42.8144 200.062 43.2839C199.495 43.9884 199.152 44.8464 199.076 45.7476C198.909 46.5909 198.843 47.451 198.879 48.3099C198.872 49.107 198.772 49.9007 198.583 50.6751C198.583 50.7737 198.583 50.7737 198.485 50.7737H198.287L197.993 50.5766L197.204 50.1824L195.726 49.2954L195.528 49.0983L195.134 48.9012L194.345 48.6056C193.839 48.4303 193.293 48.3962 192.769 48.507C192.284 48.5835 191.825 48.7757 191.431 49.0673C191.036 49.359 190.718 49.7415 190.503 50.1824C190.196 50.5783 190.023 51.0615 190.009 51.5621C189.935 51.818 189.901 52.0841 189.911 52.3505V53.0403C189.97 53.5402 190.069 54.0345 190.207 54.5186C190.223 54.7851 190.19 55.0524 190.109 55.307C189.897 55.9561 189.562 56.5584 189.123 57.0809C188.555 57.5856 187.926 58.0161 187.25 58.362C185.673 59.1504 184.688 59.6432 184.59 60.0374C184.49 60.4316 185.181 60.5301 186.461 60.5301C187.298 60.5225 188.129 60.3896 188.926 60.1359C190.082 59.7719 191.131 59.1289 191.98 58.2635C192.507 57.6769 192.94 57.0119 193.262 56.2925L193.557 55.1099C193.656 54.6552 193.656 54.1848 193.557 53.7302V52.449H193.755L195.036 53.1389L196.316 53.9273L197.598 54.6171L198.978 55.4055L200.258 55.9968H200.554V55.7012L200.85 54.9128C201.238 53.9815 201.567 53.027 201.835 52.0548V49.9853C201.885 49.362 201.885 48.736 201.835 48.1128C201.711 47.2978 201.678 46.4714 201.737 45.6491C201.771 45.3893 201.884 45.1461 202.06 44.9523C202.236 44.7583 202.468 44.6231 202.723 44.565C203.182 44.4533 203.664 44.4878 204.102 44.6636L204.496 44.8607L205.187 45.2549L206.271 46.0433H206.566L206.96 45.8462L207.65 45.2549C207.976 44.8497 208.211 44.3792 208.34 43.8752C208.438 43.5795 208.438 43.3824 208.537 43.0868C208.636 42.7911 208.636 42.6926 208.636 42.4955C208.62 42.1964 208.653 41.8969 208.734 41.6085C208.666 40.789 208.837 39.9672 209.227 39.2433C209.354 39.0417 209.528 38.8737 209.733 38.7532C209.939 38.6332 210.171 38.5647 210.409 38.5535C211.199 38.5463 211.988 38.5792 212.775 38.652C213.267 38.5535 213.563 38.3564 213.563 38.2578C213.563 38.1593 213.563 38.0607 213.366 37.9622L212.479 37.568L210.705 36.9767C210.122 36.8672 209.519 36.9195 208.963 37.1279C208.407 37.3362 207.919 37.6929 207.552 38.1593C207.016 39.0201 206.711 40.0043 206.665 41.0172L206.467 42.2984C206.396 42.4526 206.363 42.6214 206.369 42.7911C206.271 42.8897 206.271 42.9882 206.171 42.9882C206.073 42.9882 205.975 43.1853 205.975 42.9882H205.482L204.004 42.4955C203.589 42.3722 203.152 42.3386 202.723 42.3969L202.229 42.0027ZM177.888 42.0027L177.198 42.1998C176.615 42.4685 176.081 42.8351 175.622 43.2838C175.094 44.0108 174.756 44.8574 174.637 45.7476C174.469 46.5908 174.403 47.451 174.439 48.3099C174.432 49.1071 174.333 49.9008 174.143 50.6751H173.848L173.552 50.478L172.764 50.0838L171.285 49.1968L171.089 48.9997L170.695 48.8026L169.906 48.507C169.399 48.3318 168.854 48.2977 168.329 48.4084C167.85 48.4998 167.397 48.6978 167.004 48.9878C166.612 49.2779 166.29 49.6525 166.062 50.0838C165.798 50.5018 165.63 50.9728 165.57 51.4635C165.494 51.7192 165.461 51.9854 165.471 52.2519C165.471 52.5475 165.471 52.8432 165.57 52.9417C165.608 53.4377 165.674 53.9312 165.767 54.42C165.783 54.6866 165.749 54.9539 165.668 55.2084C165.496 55.8738 165.156 56.4844 164.682 56.9823C164.133 57.464 163.539 57.8929 162.909 58.2634C161.234 59.0518 160.248 59.5446 160.149 59.9388C160.051 60.333 160.74 60.4315 162.022 60.4315C162.858 60.4238 163.689 60.2909 164.486 60.0373C165.642 59.6731 166.691 59.0301 167.541 58.1649C168.1 57.6035 168.536 56.9323 168.822 56.1939C168.966 55.8124 169.065 55.4155 169.118 55.0113C169.196 54.5557 169.229 54.0936 169.216 53.6316C169.134 53.3098 169.101 52.9777 169.118 52.6461V52.449H169.314L170.595 53.1388L171.877 53.9272L173.158 54.6171L174.537 55.4055L175.819 55.9968H176.114V55.7011L176.41 54.9127C176.841 53.9984 177.171 53.0402 177.396 52.0548V50.8722C177.38 50.5731 177.413 50.2735 177.494 49.9852C177.51 49.3595 177.477 48.7334 177.396 48.1128C177.271 47.2978 177.237 46.4714 177.297 45.649C177.306 45.4236 177.375 45.2047 177.496 45.0143C177.617 44.824 177.787 44.669 177.987 44.565C178.446 44.4533 178.928 44.4878 179.367 44.6635L179.761 44.8606L180.45 45.2548L181.535 46.0432H181.83L182.225 45.8461L182.915 45.2548C183.24 44.8493 183.475 44.3788 183.604 43.8751C183.715 43.6258 183.782 43.359 183.801 43.0867C183.801 42.8896 183.9 42.6925 183.9 42.4954C183.885 42.1964 183.917 41.8969 183.998 41.6085C183.979 40.7927 184.148 39.9834 184.492 39.2433C184.624 39.0466 184.799 38.8824 185.004 38.7629C185.209 38.6435 185.438 38.5718 185.674 38.5534C186.464 38.5445 187.253 38.5774 188.039 38.652C188.532 38.5534 188.828 38.3563 188.828 38.2578C188.828 38.1592 188.828 38.0607 188.63 37.9621L187.743 37.5679L185.969 36.9766C185.444 36.8659 184.9 36.8999 184.392 37.0752C184.086 37.1485 183.798 37.2821 183.544 37.4682C183.29 37.6541 183.076 37.889 182.915 38.1592C182.311 38.9938 181.968 39.9881 181.929 41.0172L181.732 42.2983C181.732 42.594 181.633 42.594 181.633 42.7911L181.436 42.9882C181.436 43.0867 181.338 43.1853 181.239 42.9882H181.042L179.564 42.4954C179.149 42.3691 178.712 42.3354 178.283 42.3969L177.888 42.0027Z" fill="#1E1D1C"/>
<path d="M188.038 43.678H186.362C185.776 43.7297 185.207 43.8972 184.686 44.1708C183.95 44.5342 183.384 45.1706 183.11 45.9447C182.847 46.5686 182.713 47.2389 182.715 47.9157C182.617 48.6055 182.715 49.0983 182.617 49.591C182.633 50.1513 182.6 50.7118 182.519 51.2664C182.502 51.8295 182.436 52.3901 182.321 52.9417C182.321 53.2374 182.223 53.533 182.223 53.8287C182.223 54.1243 182.125 54.42 182.025 54.7156C181.941 55.1385 181.774 55.5405 181.533 55.8982C181.336 56.2924 181.237 56.2924 181.139 56.2924C181.04 56.2924 180.843 56.391 180.252 56.1939C179.443 56.0218 178.615 55.9556 177.788 55.9968C176.257 56.1767 174.832 56.8717 173.747 57.9678C173.092 58.5966 172.675 59.432 172.565 60.333C172.565 60.9243 172.762 61.0228 172.959 60.9243C173.156 60.8257 174.536 59.5446 176.31 59.1504C177.194 58.9206 178.13 58.9899 178.971 59.3475C179.827 59.7722 180.776 59.9755 181.73 59.9388C182.401 59.8035 183.037 59.5354 183.602 59.1504C184.048 58.7744 184.446 58.344 184.785 57.8692C185.301 56.9826 185.667 56.0171 185.869 55.0113C186.065 54.1378 186.164 53.2455 186.165 52.3504C186.247 51.466 186.279 50.5777 186.263 49.6896C186.165 48.7041 186.067 47.9157 186.067 47.4229V46.8316C186.165 46.7331 186.165 46.6345 186.263 46.6345C186.8 46.4456 187.372 46.3783 187.938 46.4374C188.674 46.4846 189.411 46.3841 190.107 46.1418C190.709 45.9549 191.252 45.6154 191.684 45.1563C192.308 44.4582 192.808 43.6582 193.162 42.7911C193.394 42.1865 193.559 41.5587 193.655 40.9186C193.66 40.2187 193.76 39.5225 193.951 38.8491C193.985 38.626 194.088 38.4193 194.246 38.2578C194.407 38.1225 194.602 38.0329 194.81 37.9983C195.018 37.9636 195.231 37.9852 195.428 38.0607C195.724 38.0607 195.822 38.3563 195.922 38.4549C196.02 38.5534 196.118 38.652 196.217 38.5534C196.285 38.3981 196.318 38.2302 196.316 38.0607C196.287 37.8791 196.219 37.7058 196.116 37.5528C196.014 37.3996 195.881 37.2703 195.724 37.1737C195.319 36.8964 194.835 36.7581 194.345 36.7795C194.025 36.779 193.708 36.8494 193.418 36.9857C193.129 37.122 192.873 37.3208 192.669 37.5679C192.273 37.9776 192 38.4896 191.88 39.0462C191.753 39.5327 191.655 40.0263 191.585 40.5244C191.536 41.1585 191.341 41.7727 191.017 42.3199C190.693 42.8668 190.246 43.3315 189.713 43.678C189.374 43.8361 189.001 43.904 188.628 43.8751L188.038 43.678ZM219.968 128.924L222.628 127.051L224.106 125.967C224.45 125.685 224.749 125.353 224.993 124.982C225.292 124.5 225.493 123.964 225.585 123.405C225.732 122.305 225.488 121.189 224.895 120.251C224.485 119.397 223.917 118.627 223.22 117.985C220.657 115.636 217.886 113.525 214.942 111.678C212.084 109.805 209.423 108.13 207.254 106.553C206.545 105.965 205.787 105.437 204.988 104.976C204.495 104.779 204.298 104.779 204.298 105.075C204.298 105.37 205.087 107.44 207.058 109.51C209.516 112.004 212.186 114.279 215.04 116.309C216.715 117.471 218.326 118.721 219.869 120.054C220.593 120.603 221.254 121.231 221.84 121.927L222.234 122.715C222.249 122.917 222.214 123.12 222.135 123.307C222.037 123.799 220.953 124.588 220.263 125.179L218.292 126.953C217.011 128.037 215.927 129.022 214.942 129.712C213.553 130.809 212.106 131.829 210.605 132.768C208.783 133.805 207.095 135.063 205.579 136.512C203.51 138.385 207.254 136.906 211.492 134.639C213.501 133.505 215.443 132.255 217.307 130.895L219.968 128.924ZM110.676 127.051C110.578 126.804 110.446 126.571 110.282 126.362C109.868 125.804 109.505 125.21 109.197 124.588C108.852 123.885 108.748 123.088 108.902 122.321C109.287 121.26 109.931 120.312 110.774 119.562C111.76 118.675 113.139 117.689 114.322 116.605L118.264 113.452L125.36 107.736C127.429 106.06 128.021 105.173 127.429 105.075C126.838 104.976 125.064 105.469 122.6 106.652C119.526 108.24 116.592 110.086 113.829 112.17C112.125 113.399 110.511 114.75 109 116.211C108.062 117.028 107.263 117.994 106.635 119.069C105.852 120.262 105.504 121.689 105.65 123.109C105.786 124.364 106.263 125.557 107.029 126.559C107.572 127.351 108.165 128.108 108.803 128.825C109.901 129.849 111.088 130.773 112.351 131.585C113.866 132.581 115.485 133.407 117.18 134.048C119.126 134.805 121.202 135.174 123.29 135.133C124.67 135.133 124.473 134.739 123.29 134.246L118.166 132.176C116.216 131.392 114.39 130.33 112.745 129.022C112.014 128.41 111.323 127.752 110.676 127.051ZM129.794 132.964C129.794 132.964 129.105 134.935 128.021 137.399C126.933 139.909 125.682 142.345 124.276 144.692C123.684 145.677 123.586 146.072 123.881 146.072C124.177 146.072 124.867 145.776 125.754 144.889C128.048 142.261 129.671 139.116 130.484 135.723C131.371 131.979 131.568 130.205 131.765 129.022C131.843 128.6 131.876 128.171 131.864 127.741C131.851 127.267 131.751 126.799 131.568 126.362C131.174 125.179 131.076 126.854 130.78 128.825C130.484 130.797 129.794 132.964 129.794 132.964ZM200.75 140.652C200.75 140.652 199.863 139.37 198.779 137.498C197.698 135.644 196.711 133.736 195.822 131.781C195.034 130.106 194.64 130.797 194.837 132.768C195.372 135.463 196.594 137.975 198.385 140.06L202.228 143.903C202.692 144.461 203.309 144.872 204.002 145.086C204.987 145.382 204.002 144.396 202.918 143.213L201.439 141.538L200.75 140.652Z" fill="#1E1D1C"/>
<path d="M123.389 140.355C123.389 140.355 123.487 139.863 123.783 138.877C124.079 137.892 124.67 136.61 125.261 135.133C125.819 133.623 126.582 132.197 127.528 130.895L128.316 129.909L128.711 129.514C128.809 129.416 128.711 129.514 128.809 129.514H129.006L129.499 130.303C130.09 131.387 130.189 131.88 130.386 131.585C130.55 131.154 130.617 130.692 130.583 130.232C130.549 129.773 130.414 129.326 130.189 128.924C129.902 128.423 129.449 128.04 128.908 127.84C128.568 127.819 128.228 127.887 127.922 128.037L127.331 128.529C126.54 129.223 125.844 130.018 125.261 130.895C124.025 132.821 123.156 134.959 122.699 137.202C122.105 138.945 121.97 140.812 122.305 142.622C122.408 142.978 122.575 143.312 122.798 143.607C122.896 143.805 123.093 143.805 123.192 143.903L123.586 144.1C124.055 144.205 124.545 144.134 124.966 143.903C125.517 143.675 125.994 143.3 126.345 142.819C126.671 142.377 126.906 141.874 127.035 141.34C127.232 140.651 127.035 140.75 126.641 141.242C126.094 141.918 125.426 142.486 124.67 142.917C124.585 142.978 124.488 143.018 124.386 143.035C124.283 143.052 124.178 143.045 124.079 143.017H123.586C123.586 142.917 123.487 142.819 123.487 142.721C123.487 142.622 123.389 142.326 123.389 142.03C123.339 141.704 123.339 141.372 123.389 141.046V140.355ZM206.564 139.173C206.446 138.652 206.246 138.153 205.973 137.694C205.469 136.576 204.841 135.519 204.101 134.541C203.731 133.88 203.303 133.252 202.82 132.668C202.273 131.902 201.567 131.263 200.75 130.796C199.875 130.423 198.891 130.387 197.991 130.697C197.567 130.798 197.169 130.992 196.828 131.265C196.488 131.538 196.212 131.882 196.02 132.274C195.722 132.712 195.551 133.224 195.527 133.752C195.626 134.048 195.724 134.048 195.822 133.95C195.921 133.851 196.513 132.964 197.399 132.471C197.918 132.15 198.538 132.032 199.139 132.141C199.74 132.25 200.279 132.578 200.651 133.062C201.251 133.753 201.81 134.477 202.327 135.231L204.101 137.498C205.011 138.606 205.622 139.929 205.875 141.34C205.794 141.705 205.625 142.043 205.382 142.326C205.195 142.504 204.95 142.608 204.692 142.622L203.312 142.819C202.883 142.877 202.446 142.844 202.031 142.721H201.539C201.542 142.821 201.57 142.919 201.622 143.006C201.674 143.091 201.747 143.163 201.834 143.213C202.198 143.526 202.642 143.731 203.116 143.805H204.692C205.033 143.752 205.364 143.653 205.677 143.509C206.035 143.325 206.341 143.054 206.564 142.721C206.924 142.167 207.064 141.499 206.958 140.848C206.958 140.446 206.892 140.047 206.762 139.665C206.738 139.487 206.67 139.319 206.564 139.173ZM96.0903 185.492V184.112C96.1889 183.717 93.4295 184.112 93.3309 184.802C92.0481 190.128 92.3565 195.713 94.2179 200.866C94.415 201.456 96.8787 200.766 97.0758 200.274L102.397 183.127L99.5396 183.816C99.5396 187.167 99.6381 190.517 99.7367 193.868L100.032 198.697C100.032 199.781 100.032 201.161 101.313 201.456C102.595 201.752 103.777 201.259 103.876 200.47C104.467 194.163 105.255 187.955 106.438 181.648L103.58 182.338C103.834 188.44 104.793 194.491 106.438 200.372C106.635 201.062 109.296 200.274 109.296 199.682C109.592 194.459 109.69 189.335 109.789 184.112L106.931 184.9L112.351 202.047C112.647 202.737 115.209 201.949 115.209 201.259C115.966 196.183 115.833 191.014 114.815 185.984L111.957 186.673C113.812 191.554 116.262 196.188 119.25 200.47C119.644 201.062 122.107 200.47 122.107 199.781C122.244 193.356 121.881 186.932 121.023 180.564L118.165 181.352C120.432 187.758 122.797 194.263 126.739 199.88C127.134 200.372 129.794 199.682 129.597 199.091L122.502 174.749L119.644 175.537L131.371 195.149C131.667 195.839 134.426 194.853 134.229 194.459L125.36 176.326L122.502 177.114C125.392 180.991 128.45 184.739 131.667 188.35C132.16 188.744 134.426 188.152 134.525 187.463C134.82 182.633 129.794 179.677 129.203 175.045L126.345 175.833C127.907 178.006 129.883 179.848 132.16 181.254C132.554 181.55 135.215 180.86 134.919 180.466C133.425 178.002 132.359 175.303 131.765 172.483C131.568 171.891 128.71 172.582 128.907 173.272C129.518 176.055 130.584 178.719 132.061 181.156L134.919 180.367C132.698 178.966 130.759 177.161 129.203 175.045C128.809 174.553 126.247 175.143 126.345 175.833C126.936 180.466 131.962 183.422 131.667 188.251L134.426 187.364C131.187 183.868 128.159 180.182 125.36 176.326C124.867 175.735 122.206 176.622 122.502 177.114L131.371 195.149L134.229 194.459L122.502 174.749C122.107 174.257 119.447 174.947 119.644 175.537L126.739 199.88L129.597 199.091C125.655 193.474 123.29 186.969 121.023 180.564C120.826 179.973 118.067 180.662 118.165 181.352C119.053 187.685 119.448 194.077 119.348 200.47L122.206 199.781C119.258 195.475 116.811 190.846 114.913 185.984C114.716 185.392 111.957 186.083 112.055 186.673C113.073 191.737 113.207 196.938 112.45 202.047L115.308 201.259L109.887 184.112C109.69 183.521 107.029 184.21 107.029 184.9C106.931 190.025 106.832 195.248 106.537 200.372L109.395 199.682C107.757 193.766 106.798 187.683 106.537 181.55C106.537 181.056 103.876 181.648 103.777 182.141C102.595 188.546 101.708 194.853 101.116 201.259L103.679 200.372C102.693 200.077 102.89 197.514 102.89 196.726C102.89 195.938 102.792 193.671 102.693 192.193C102.595 189.138 102.496 186.083 102.496 183.027C102.496 182.535 99.8352 183.127 99.6381 183.619L94.3164 200.766L97.1744 200.076C95.2731 195.004 94.93 189.479 96.1889 184.21L93.4295 184.9L93.2324 186.181C93.2324 186.575 96.0903 186.28 96.0903 185.492ZM191.29 186.575C193.552 191.331 196.328 195.826 199.568 199.978C200.06 200.57 202.524 199.978 202.327 198.993L198.582 182.141L195.724 182.929C198.882 188.849 202.542 194.487 206.663 199.781C207.156 200.372 209.719 199.683 209.423 198.795C207.254 192.193 204.988 185.59 202.327 179.085L199.469 179.874C202.82 186.379 207.058 192.292 211.295 198.303C211.689 198.895 214.35 198.205 214.055 197.318L206.663 178.987L203.904 179.973C207.734 185.989 212.123 191.631 217.011 196.824C217.503 197.416 220.165 196.824 219.77 195.938C216.732 189.351 213.276 182.965 209.423 176.819C209.029 176.031 206.269 177.016 206.663 177.706C210.507 184.506 215.927 190.025 221.347 195.543C221.84 196.135 224.501 195.445 224.107 194.657L209.817 168.541L207.058 169.526L221.051 186.083C221.643 186.773 224.304 185.886 223.712 184.9C219.672 178.79 215.927 172.384 212.477 165.88L209.719 166.865L218.194 175.143C218.686 175.637 221.347 175.045 220.953 174.158L217.405 167.359C216.913 166.373 214.153 167.259 214.547 168.048L218.095 174.947L220.855 174.06L212.379 165.682C211.886 165.19 209.225 165.782 209.619 166.669C213.167 173.272 217.011 179.775 221.051 186.083L223.712 184.9L209.719 168.344C209.225 167.753 206.565 168.541 206.959 169.33L221.249 195.445L224.008 194.459C218.686 189.04 213.265 183.619 209.521 176.918L206.762 177.903C210.492 183.984 213.881 190.268 216.913 196.726L219.672 195.741C214.784 190.547 210.395 184.905 206.564 178.889C206.072 178.199 203.412 178.987 203.806 179.775L211.196 198.106L213.956 197.219C209.817 191.306 205.677 185.492 202.327 179.085C201.933 178.199 199.174 178.987 199.469 179.874C202.13 186.379 204.495 192.882 206.564 199.584L209.324 198.599C205.281 193.429 201.688 187.923 198.582 182.141C198.188 181.254 195.527 181.845 195.724 182.929L199.469 199.781L202.229 198.895C199.054 194.841 196.343 190.444 194.147 185.787C193.655 184.802 190.895 185.688 191.29 186.575Z" fill="#1E1D1C"/>
<path d="M147.901 84.9271C148.475 85.3555 149.014 85.8243 149.514 86.3296L149.906 86.6335C149.93 86.7267 149.954 86.8201 149.832 86.7499L149.636 86.7962L149.097 86.7251L148.607 86.8407L147.382 86.9313L145.031 87.0897C142.14 87.4044 139.311 88.1053 136.626 89.171C134.664 90.0298 134.1 90.658 134.393 90.9852C134.686 91.3121 135.935 91.3149 137.772 91.1787L144.704 90.6335L149.064 90.5959L149.554 90.4801L150.705 90.5059L153.251 90.6975L158.32 90.988L157.881 90.4975L157.294 89.8434L156.268 88.6985L155.267 87.6471L154.803 87.0634L154.241 86.5025L152.603 85.0068L152.188 84.6095L151.943 84.4691L151.845 84.4922L151.332 84.1181L149.351 82.9015C148.315 82.2924 147.236 81.7526 146.122 81.286C144.709 80.6757 143.253 80.1585 141.766 79.7379C140.08 79.162 138.245 79.1092 136.525 79.5872C135.447 79.8415 135.74 80.1685 136.744 80.4272C137.747 80.6857 139.289 81.0153 141.002 81.6018C142.661 82.1445 144.266 82.8268 145.798 83.6404L147.29 84.576L147.901 84.9271Z" fill="#1E1D1C"/>
<path d="M182.739 84.9271C182.166 85.3555 181.626 85.8243 181.126 86.3296L180.735 86.6335C180.711 86.7267 180.687 86.8201 180.809 86.7499L181.005 86.7962L181.544 86.7251L182.034 86.8407L183.259 86.9313L185.61 87.0897C188.5 87.4044 191.33 88.1053 194.015 89.171C195.976 90.0298 196.541 90.658 196.248 90.9852C195.954 91.3121 194.705 91.3149 192.869 91.1787L185.936 90.6335L181.577 90.5959L181.087 90.4801L179.936 90.5059L177.389 90.6975L172.32 90.988L172.76 90.4975L173.346 89.8434L174.372 88.6985L175.374 87.6471L175.838 87.0634L176.4 86.5025L178.038 85.0068L178.453 84.6095L178.698 84.4691L178.796 84.4922L179.309 84.1181L181.29 82.9015C182.326 82.2924 183.405 81.7526 184.519 81.286C185.932 80.6757 187.387 80.1585 188.875 79.7379C190.561 79.162 192.396 79.1092 194.115 79.5872C195.194 79.8415 194.901 80.1685 193.897 80.4272C192.893 80.6857 191.351 81.0153 189.638 81.6018C187.979 82.1445 186.375 82.8268 184.843 83.6404L183.351 84.576L182.739 84.9271Z" fill="#1E1D1C"/>
<path d="M168.688 104.164L168.166 104.047L166.797 103.756C165.228 103.492 163.564 103.413 161.928 103.527C159.916 103.703 158.055 104.187 156.587 104.917C155.105 105.618 153.854 106.437 152.882 107.344C151.941 108.123 151.523 108.397 151.376 108.204C151.228 108.012 151.353 107.353 152.022 106.416C152.387 105.872 152.915 105.359 153.589 104.899C154.372 104.298 155.354 103.772 156.491 103.345C157.785 102.852 159.274 102.51 160.852 102.343C162.496 102.197 164.183 102.253 165.777 102.505C167.106 102.732 168.379 103.039 169.568 103.419C170.419 103.714 171.238 104.031 172.024 104.369C173.295 104.958 174.104 105.395 174.71 105.707C175.727 106.238 176.546 106.86 177.129 107.543C177.553 107.958 177.232 107.934 176.566 107.657L173.806 106.223C172.771 105.684 171.654 105.188 170.467 104.739C169.899 104.528 169.305 104.335 168.688 104.164Z" fill="#1E1D1C"/>
<path d="M32.3134 127.568C49.9827 127.568 64.3065 113.397 64.3065 95.916C64.3065 78.4349 49.9827 64.2637 32.3134 64.2637C14.6441 64.2637 0.320312 78.4349 0.320312 95.916C0.320312 113.397 14.6441 127.568 32.3134 127.568Z" fill="#BFDD78"/>
<path d="M43.942 66.4209C43.942 66.4209 57.4775 71.3074 73.9428 89.902C76.3238 92.5909 79.8787 93.9361 83.4442 93.5048L85.9119 93.2061C86.3199 93.1568 86.7221 93.0692 87.1137 92.9452L89.686 92.1287C89.9135 92.0565 90.1545 92.1906 90.2136 92.4215L90.9203 95.2004C90.9392 95.2755 90.8825 95.3481 90.8051 95.3481H90.703C88.7435 95.3481 86.8146 95.8311 85.087 96.7552L81.8265 98.4982C79.7896 99.5869 77.9391 100.987 76.3055 102.619C67.2891 111.633 57.4871 118.715 46.977 124.054L28.6074 83.9831L43.942 66.4209Z" fill="#BFDD78"/>
<path d="M16.9227 75.3222C17.0394 75.8392 16.8337 76.3968 16.3646 76.7051C10.0773 80.8389 6.59317 86.2249 6.00989 92.7126C5.94503 93.4328 5.30899 93.9643 4.58873 93.8995C3.86846 93.8346 3.33698 93.1986 3.40184 92.4783C3.85443 87.4432 6.22142 80.2401 14.926 74.5172C15.5301 74.1198 16.3424 74.2878 16.7393 74.8919C16.8284 75.0269 16.8889 75.1726 16.9227 75.3222Z" fill="#EDEDED"/>
<path d="M7.22855 102.038C7.3665 102.649 7.04945 103.289 6.45116 103.536C5.78366 103.812 5.01984 103.497 4.74248 102.83C4.70375 102.737 3.79375 100.518 3.44281 97.1797C3.3673 96.4604 3.8891 95.8162 4.6084 95.7407C5.32769 95.6651 5.97196 96.1874 6.04747 96.9062C6.35532 99.8396 7.15352 101.808 7.16175 101.828C7.19031 101.897 7.21209 101.967 7.22855 102.038Z" fill="#EDEDED"/>
<path d="M92.907 93.8653C94.2029 92.9219 95.5634 92.1876 96.9647 91.6721C97.2636 91.5622 97.5507 91.4601 97.8271 91.4383C98.1413 91.4132 98.416 91.4466 98.6313 91.629C99.121 92.0444 99.448 92.6804 99.7348 93.3953C100.323 94.863 100.538 96.471 100.51 98.2043C100.483 99.8801 100.154 101.678 99.6323 103.237C98.432 106.827 96.4479 109.712 94.4212 112.349C93.3539 113.738 92.2361 115.045 91.0626 116.232C90.5327 116.768 89.9288 117.334 89.3669 117.674C89.1098 117.83 88.7751 118.021 88.5568 118.024C88.2886 118.027 88.4495 118.011 88.4749 118.016C88.2589 117.97 88.4939 118.052 88.397 117.962C88.2743 117.847 88.5056 118.156 88.3258 117.878C88.3095 117.853 88.1428 117.586 88.2204 117.728C87.8217 117.002 87.5441 116.048 87.3405 115.19C87.119 114.256 86.9336 113.253 86.9278 112.325C86.9271 112.201 86.9441 111.878 86.9444 111.875C86.9806 111.589 86.9872 111.611 87.072 111.366C87.1411 111.166 87.3721 110.862 87.5317 110.708C88.1079 110.152 88.5477 109.947 89.1829 109.6C91.8668 108.134 94.6818 107.339 97.5109 107.041C100.389 106.738 103.279 106.91 106.147 107.342C107.509 107.546 108.888 107.772 110.255 107.521C111.667 107.262 112.954 106.529 114.037 105.139C115.89 102.761 116.708 99.0713 117.434 95.7217C117.893 93.6088 118.319 91.4732 118.82 89.3826C118.995 88.6541 119.267 88.0432 119.764 87.7455C119.65 87.8138 119.837 87.7179 119.864 87.7063C119.94 87.672 120.018 87.6482 120.094 87.6177C120.252 87.5553 120.193 87.5848 120.144 87.596C120.223 87.5785 120.304 87.5737 120.384 87.5689C120.749 87.5466 120.893 87.5785 121.198 87.6889C121.862 87.929 122.446 88.3772 123.053 88.84C123.477 89.1628 124.011 89.0036 124.26 88.3704C124.491 87.7847 124.369 86.9033 123.944 86.579C122.557 85.5228 121.026 84.4913 119.44 85.1612C118.677 85.4836 118.05 86.1772 117.61 87.1531C117.172 88.1245 116.969 89.3221 116.73 90.4228C116.265 92.5662 115.823 94.724 115.324 96.8509C114.914 98.6051 114.499 100.144 113.746 101.732C113.703 101.823 113.659 101.913 113.614 102.002C113.513 102.201 113.742 101.779 113.559 102.103C113.464 102.272 113.368 102.44 113.267 102.602C113.065 102.923 112.849 103.227 112.617 103.499C112.742 103.353 112.509 103.614 112.51 103.612C112.461 103.663 112.412 103.713 112.361 103.761C112.235 103.884 112.105 103.998 111.971 104.104C111.644 104.365 111.376 104.512 111.003 104.664C109.68 105.203 108.206 105.025 106.793 104.82C103.702 104.373 100.614 104.096 97.5103 104.423C94.4052 104.75 91.3063 105.599 88.393 107.254C86.9447 108.077 85.4028 109.123 85.1907 111.686C85.0971 112.816 85.2645 114.011 85.4697 115.098C85.685 116.238 86.0028 117.354 86.4038 118.377C86.7894 119.362 87.3154 120.338 88.1095 120.576C88.9448 120.826 89.8074 120.274 90.5438 119.741C91.9484 118.724 93.2179 117.195 94.429 115.748C96.739 112.987 99.0264 109.821 100.596 106.05C102.078 102.491 102.822 97.9744 101.834 93.9205C101.35 91.9354 100.443 89.7756 99.0323 89.0515C98.2111 88.6299 97.3161 88.8463 96.4952 89.1483C95.7396 89.4261 94.9944 89.7703 94.2642 90.1711C93.4991 90.5912 92.7481 91.0719 92.0159 91.6053C91.5882 91.9171 91.471 92.8183 91.6994 93.3968C91.9546 94.043 92.4776 94.178 92.907 93.8653Z" fill="#E0E0E0"/>
<path d="M97.131 81.6501C96.9873 81.6501 96.8517 81.6777 96.721 81.7169C96.5744 81.5277 96.3851 81.3737 96.1624 81.2774C96.1126 80.5344 95.5003 79.9453 94.7442 79.9453C94.0989 79.9453 93.5597 80.3761 93.383 80.9642C93.3259 80.957 93.2693 80.9468 93.2097 80.9468C92.4212 80.9468 91.7818 81.5862 91.7818 82.3747C91.7818 82.6361 91.8573 82.8777 91.9798 83.0887C91.8573 83.2993 91.7818 83.5413 91.7818 83.8027C91.7818 84.5912 92.4212 85.2306 93.2097 85.2306C93.5118 85.2306 93.7911 85.1353 94.022 84.975C94.2732 85.3826 94.72 85.6566 95.234 85.6566C95.9586 85.6566 96.5511 85.1145 96.6431 84.415C96.7956 84.4707 96.9587 84.506 97.1305 84.506C97.919 84.506 98.5585 83.8666 98.5585 83.0781C98.5585 82.2896 97.9195 81.6501 97.131 81.6501ZM91.1787 87.3643C91.0887 87.3643 91.0035 87.3817 90.9217 87.4064C90.8297 87.2878 90.7111 87.191 90.5717 87.131C90.5402 86.6653 90.1564 86.296 89.683 86.296C89.2783 86.296 88.9404 86.5661 88.8296 86.935C88.7938 86.9306 88.7584 86.9238 88.7212 86.9238C88.227 86.9238 87.8262 87.3246 87.8262 87.8188C87.8262 87.9829 87.8736 88.1344 87.9501 88.2666C87.8731 88.3987 87.8262 88.5502 87.8262 88.7143C87.8262 89.2085 88.227 89.6093 88.7212 89.6093C88.9104 89.6093 89.0857 89.5498 89.2304 89.4491C89.3882 89.7047 89.668 89.8765 89.9903 89.8765C90.4449 89.8765 90.8161 89.5367 90.8737 89.0982C90.9696 89.133 91.0717 89.1553 91.1792 89.1553C91.6734 89.1553 92.0742 88.7545 92.0742 88.2603C92.0737 87.7651 91.6729 87.3643 91.1787 87.3643Z" fill="#E0E0E0"/>
<path d="M26.3363 84.2874C27.4559 82.3101 26.7605 79.7995 24.7831 78.6799C22.8057 77.5604 20.2952 78.2557 19.1756 80.2331C18.056 82.2105 18.7514 84.7211 20.7288 85.8406C22.7062 86.9602 25.2167 86.2648 26.3363 84.2874Z" fill="#303D3D"/>
<path d="M45.6284 83.9317C46.5528 81.8559 45.6194 79.4237 43.5436 78.4994C41.4678 77.575 39.0356 78.5084 38.1112 80.5842C37.1869 82.66 38.1203 85.0921 40.1961 86.0165C42.2719 86.9409 44.704 86.0075 45.6284 83.9317Z" fill="#303D3D"/>
<path d="M14.565 113.321C15.006 113.321 15.4198 113.049 15.5786 112.611C17.5283 107.241 24.41 103.491 32.314 103.491C40.2181 103.491 47.0998 107.241 49.05 112.611C49.2533 113.171 49.8729 113.459 50.4319 113.256C50.992 113.053 51.281 112.435 51.0777 111.874C48.8239 105.668 41.1082 101.334 32.3145 101.334C23.5208 101.334 15.8051 105.668 13.5514 111.874C13.3481 112.435 13.6371 113.053 14.1971 113.256C14.3186 113.3 14.443 113.321 14.565 113.321Z" fill="#303D3D"/>
</svg>
