<svg width="100" height="100" viewBox="0 0 100 100" fill="none" xmlns="http://www.w3.org/2000/svg">
<path d="M16.2323 75.3924C18.7417 76.6104 45.3987 89.6767 47.998 90.9614C47.951 90.8279 39.706 67.4074 39.706 67.274C14.4311 73.2793 15.6892 72.9688 15.4445 73.069C14.7101 73.336 14.5899 73.6966 14.3763 74.0437C14.0257 74.5693 15.0743 74.7984 16.2323 75.3924ZM28.0903 31.8431C27.9432 32.0038 27.7734 32.1631 27.7091 32.3936C27.5164 32.837 27.4968 33.3571 27.6641 33.8558C31.4161 43.7516 31.021 43.7294 31.9076 44.3103L31.907 44.3116C32.1117 44.4507 32.3379 44.534 32.5697 44.5894C32.7207 45.028 32.8724 45.4666 33.026 45.9051C32.5458 46.4915 32.4689 47.207 32.698 47.8356L36.1863 57.3519C36.386 57.875 36.8197 58.3299 37.4406 58.5326C37.7601 59.444 38.0818 60.3577 38.3975 61.2653C39.0117 63.0145 39.626 64.7637 40.2268 66.4995C40.5473 66.4194 40.8678 66.6063 40.9746 66.9134C41.038 67.0957 41.8833 69.5258 41.8292 69.3703C42.591 71.5384 39.0694 61.5163 49.2799 90.5742C49.4001 90.8947 49.2532 91.2551 48.946 91.3887C48.946 91.3887 48.9327 91.4021 48.9193 91.4154L48.9594 91.4287L49.0529 91.6557C49.4268 92.7239 50.6151 93.2847 51.6833 92.8575C51.8231 92.8018 63.2154 88.2645 62.5123 88.5446C73.8927 83.981 73.1897 84.2897 77.2401 82.6694C77.2935 82.6694 77.3469 82.6828 77.387 82.6962L77.3737 82.6828L77.2802 82.6561C83.9481 79.9393 83.4054 80.7102 85.0247 77.7958C85.5196 76.9083 85.8382 75.0885 85.6264 74.3311C85.5887 74.1525 86.2686 76.1437 71.0456 32.684C70.9246 32.3376 70.5456 32.154 70.196 32.2758C69.849 32.3975 69.6661 32.7777 69.7878 33.1254C85.0701 76.7626 84.272 74.4295 84.3425 74.6905C84.5046 75.2699 84.2091 75.8741 83.6557 76.0954L53.1863 88.2718C52.8829 88.3936 52.5548 88.3838 52.2611 88.2517C51.3995 87.8584 52.9755 90.972 30.1863 26.2992C29.9942 25.7556 30.2312 25.1553 30.7709 24.8838C30.8204 24.8558 30.9024 24.8272 30.9519 24.8109L33.7107 23.9807C34.5414 27.0279 34.7125 30.3167 34.7375 30.4895L34.2696 30.6566C33.4439 30.9509 33.8846 32.214 34.7175 31.9118L64.2494 21.3695C64.5964 21.2458 64.7774 20.8643 64.6531 20.5179C64.5294 20.1716 64.1446 19.988 63.8015 20.1143L63.0432 20.385C62.9972 18.5137 62.7987 16.8374 62.4462 15.2953C63.0098 15.1759 63.6002 15.4822 63.793 16.0342L67.6915 27.1299C67.7878 27.4047 68.045 27.5759 68.3204 27.5759C68.7791 27.5759 69.102 27.1215 68.9493 26.6885L65.0515 15.5941C64.6249 14.3715 63.3463 13.6945 62.0944 14.0036C61.3462 11.4801 60.1549 9.25948 58.5027 7.42419C58.1127 6.76403 56.9721 7.01208 56.295 7.23474L31.8236 15.2985C31.3171 15.4619 30.4265 15.8187 30.1511 16.376C30.071 16.5375 30.0443 16.8539 30.1049 17.0231C30.1355 17.111 30.1843 17.1911 30.2481 17.2588C31.565 18.6542 32.5641 20.4567 33.3184 22.7059L30.5509 23.5394C30.4174 23.583 30.2605 23.6397 30.1414 23.7093C29.1084 24.2256 27.8516 26.1939 27.2748 27.2563C26.5848 28.5741 27.2399 29.4123 28.0903 31.8431ZM32.2371 16.5661C57.1687 8.40622 56.8317 8.35228 57.5281 8.33435C59.1941 10.1892 60.3341 12.3689 61.0131 14.9945C61.4545 16.6761 61.6869 18.5303 61.7234 20.6586C61.2207 21.0109 61.9806 20.6097 36.7247 29.6573C36.4402 29.7556 36.1999 29.8096 36.0222 29.837C35.8231 27.2439 35.4178 24.9309 34.8167 22.9542C34.8165 22.9533 34.8167 22.9524 34.8165 22.9515C34.8162 22.9507 34.8155 22.9502 34.8153 22.9493C34.0568 20.4353 33.0147 18.4193 31.6374 16.8103C31.7878 16.7328 31.9884 16.6462 32.2371 16.5661ZM28.9219 33.4138C28.6394 32.5691 29.8168 32.1666 30.1342 32.934L33.6205 42.4574C33.7416 42.7825 33.5863 43.153 33.2292 43.2855C32.8963 43.4141 32.5176 43.1956 32.4135 42.9021L28.9219 33.4138ZM33.9499 47.378C33.6615 46.5839 34.8442 46.1211 35.168 46.9268C38.6735 56.6987 38.841 56.4791 38.6303 56.9366C38.4012 57.4309 37.6368 57.4155 37.435 56.8838L33.9499 47.378Z" fill="black"/>
<path d="M65.4918 76.5369C65.4918 78.0026 66.5875 79.1907 67.9391 79.1907C69.2908 79.1907 70.3865 78.0026 70.3865 76.5369C70.3865 75.0714 69.2908 73.8832 67.9391 73.8832C66.5875 73.8832 65.4918 75.0714 65.4918 76.5369ZM72.3154 15.2914C72.464 14.903 74.023 11.8535 74.2054 11.3754C74.3375 11.0316 74.165 10.6462 73.8213 10.5147C73.4814 10.3839 73.0928 10.5544 72.9606 10.8988C72.812 11.2872 71.253 14.3367 71.0706 14.8148C70.7547 15.6365 72.0001 16.1162 72.3154 15.2914ZM73.6155 17.7647C74.6909 17.4015 80.0406 15.3936 81.1155 15.031C81.4638 14.9132 81.6513 14.5349 81.5335 14.1859C81.4163 13.8376 81.04 13.6508 80.6885 13.768C79.5784 14.1433 74.2703 16.1354 73.1885 16.5017C72.3638 16.7802 72.7676 18.0525 73.6155 17.7647ZM74.1572 19.0525C73.8135 18.9249 73.428 19.0987 73.2991 19.4438C73.1709 19.7888 73.346 20.1729 73.6911 20.3018C73.9117 20.384 77.8879 21.6703 78.0218 21.6703C78.292 21.6703 78.5465 21.5049 78.6468 21.2367C78.775 20.8917 78.5999 20.5076 78.2549 20.3786C77.6434 20.1509 74.7395 19.2684 74.1572 19.0525ZM67.4541 34.4496L66.2386 30.9021C66.025 30.2777 65.2497 30.1514 64.0556 30.5447C41.0798 38.1514 40.0581 38.1255 39.5635 39.1182C39.2564 39.7298 39.6311 39.7216 43.8714 52.4659C44.1557 53.2931 45.3595 53.0706 46.18 52.7797L68.9 44.6866C70.0836 44.2647 70.6181 43.6892 70.4053 43.0648L67.4541 34.4496ZM68.4521 43.4301L45.7321 51.5238C45.4319 51.6306 45.1846 51.6814 45.0185 51.7009L40.889 39.6469C41.4421 39.3125 40.5247 39.7281 64.4723 31.8116C64.7327 31.7257 64.9443 31.6833 65.0908 31.6664L69.0303 43.1658C68.904 43.2413 68.7106 43.3383 68.4521 43.4301Z" fill="black"/>
<path d="M58.5938 37.0378L44.1289 42.069C43.3021 42.3565 43.7269 43.6231 44.5664 43.3281L59.0313 38.2969C59.3796 38.1758 59.5632 37.7962 59.4421 37.4486C59.3217 37.1009 58.9395 36.9173 58.5938 37.0378ZM58.0944 42.3854L47.3692 46.3945C47.0248 46.5235 46.8496 46.9076 46.9786 47.2526C47.1061 47.5931 47.4858 47.773 47.8366 47.6432L58.5619 43.6341C58.9063 43.5052 59.0814 43.1211 58.9525 42.7761C58.8236 42.4317 58.4427 42.2585 58.0944 42.3854ZM62.8531 36.0349C61.6471 36.3329 60.9542 37.7277 61.3057 39.1504C61.6572 40.573 62.9198 41.4848 64.1259 41.1869C65.332 40.8889 66.0248 39.4941 65.6734 38.0714C65.3219 36.6488 64.0593 35.737 62.8531 36.0349ZM78.3353 62.6498C78.2661 62.4595 73.7093 49.9287 73.64 49.7383C73.4089 49.1016 72.599 48.9935 71.3581 49.4264L47.0306 57.9408C46.6283 58.082 45.6628 58.472 45.3868 59.0567C45.3106 59.2175 45.2885 59.5254 45.3496 59.6927L50.2598 73.1947C50.5664 74.0418 51.8344 73.774 52.6732 73.457L76.7865 64.3535C78.0163 63.89 78.5664 63.2852 78.3353 62.6498ZM51.3972 72.4206L46.7181 59.5547C46.8698 59.4557 47.1231 59.321 47.4707 59.1999C72.816 50.3647 71.8846 50.5839 72.502 50.5111L76.9668 62.7878C76.8321 62.8763 76.6146 62.9935 76.3158 63.1061C51.3067 72.5006 52.118 72.3344 51.3972 72.4206Z" fill="#5158F6"/>
<path d="M64.6488 59.3028L52.3695 64.1016C52.027 64.2358 51.8571 64.6225 51.9912 64.9656C52.1262 65.3109 52.5154 65.4764 52.8551 65.3438L65.1344 60.545C65.4769 60.4109 65.6468 60.0242 65.5127 59.6811C65.3779 59.338 64.9932 59.1687 64.6488 59.3028Z" fill="black"/>
<path d="M72.4779 55.8423L70.1205 56.313L68.3965 54.6396L68.1165 57.0263L65.9912 58.1476L68.1752 59.1516L68.5859 61.5196L70.2152 59.7543L72.5939 60.0943L71.4179 57.9996L72.4779 55.8423Z" fill="black"/>
<path d="M52.3613 17.1875C52.9727 17.6746 53.5309 17.9427 54.1781 18.2077C55.3902 18.7052 55.6999 18.6781 56.2441 18.0091C56.7183 17.4257 57.2919 16.4877 57.5741 15.5754C57.9394 14.3945 57.9064 13.057 57.0069 12.143C56.5232 11.6516 55.5581 11.6713 55.0204 12.1229C54.5909 12.4838 54.2782 12.9951 54.1406 13.5616C54.1306 13.6031 54.1427 13.6077 54.1372 13.6498C53.6981 13.2979 53.2847 12.9729 52.5274 12.8965C51.8287 12.826 51.0201 13.3533 50.8972 14.0318C50.6685 15.2936 51.3944 16.4174 52.3613 17.1875ZM38.5927 22.0014C38.6643 22.0014 38.7365 21.9903 38.8081 21.9656L50.243 18.0633C50.5913 17.9441 50.7775 17.5659 50.6584 17.2169C50.5393 16.8686 50.1604 16.6811 49.8121 16.8015L38.3772 20.7039C38.0288 20.823 37.8427 21.2013 37.9618 21.5502C38.0562 21.8269 38.3153 22.0014 38.5927 22.0014Z" fill="#5158F6"/>
</svg>
