<svg width="75" height="75" viewBox="0 0 75 75" fill="none" xmlns="http://www.w3.org/2000/svg">
<path d="M49.6483 32.8793C54.0794 31.4421 56.2451 26.9611 55.267 22.4701C54.7581 20.1747 53.251 17.5798 51.2451 16.3024C45.4849 12.6346 38.5172 13.5665 34.6683 18.0988C32.5425 20.6238 31.6643 24.2066 32.5824 27.3702C33.9298 31.981 39.6084 33.4082 43.8299 33.5379C45.796 33.5978 47.782 33.478 49.6483 32.8793ZM46.3848 23.3782C47.2032 22.1806 48.8299 21.5419 50.2371 21.8812C53.0599 22.587 53.3351 26.5819 50.7361 26.1627C50.2371 26.0828 49.7481 25.9232 49.249 25.9132C48.2583 25.9132 47.2756 26.4972 46.3648 26.1128C45.1971 25.6337 45.8958 24.0968 46.3848 23.3782ZM37.273 24.9351C35.2225 24.8367 35.4124 22.3573 37.1333 21.3124C38.9553 20.1788 41.3608 21.2996 42.1034 23.1088C42.4427 23.9172 42.8019 25.5638 41.5644 25.7934C40.5745 25.979 39.7251 25.1822 38.78 25.005C38.291 24.9052 37.782 24.9651 37.273 24.9351ZM40.1773 28.0988C40.3569 27.8892 40.6663 27.8593 40.8758 28.029C42.5325 29.3762 44.9876 29.6158 46.8738 28.6177C47.1133 28.488 47.4128 28.5779 47.5424 28.8273C47.6722 29.0669 47.5824 29.3663 47.3429 29.496C45.0851 30.6983 42.1824 30.3724 40.2471 28.8074C40.0375 28.6277 40.0075 28.3183 40.1773 28.0988Z" fill="#11151A"/>
<path d="M60.0184 41.0856C59.1619 40.1465 56.7726 38.5945 54.8359 38.8758C53.6424 37.2068 52.4943 36.3242 51.2114 35.5904C55.0157 34.3225 57.7141 31.7896 59.143 28.55C59.3301 28.7374 59.5386 28.8592 59.7689 28.8833C60.7859 28.9895 61.8032 27.2754 62.0353 25.0536C62.2668 22.8382 61.6258 20.9508 60.6088 20.8446C60.5516 20.8386 60.4957 20.8539 60.4391 20.8587C60.2903 16.9417 59.0389 14.142 59.0873 14.2643C55.411 4.96015 42.5974 2.89801 34.8788 7.87663C33.7201 8.62565 32.7181 9.5319 31.9003 10.571C30.4348 12.4392 29.2949 14.7525 28.5945 17.2628C28.5709 17.2582 28.5488 17.2461 28.5248 17.2436C27.5013 17.1366 26.4841 18.8508 26.2526 21.0661C26.0204 23.288 26.6615 25.1754 27.6849 25.2823C27.8328 25.2978 27.9798 25.2746 28.1237 25.2184C28.8408 28.9063 31.2131 32.2417 35.1772 34.2107C33.7161 34.6214 32.117 35.4698 30.6799 36.7885C28.1378 34.6111 26.3948 31.7124 25.8905 28.7633C25.7137 27.727 25.7266 26.5398 25.4305 25.4538C24.948 23.6756 22.7765 22.733 21.0106 23.6159C17.4246 25.5269 17.6919 32.0759 19.5204 35.7467C21.0968 38.9167 24.0213 41.2103 27.1838 42.1248C25.9655 45.2783 25.9294 48.0105 25.8866 48.3005C25.8644 48.5912 26.0937 48.8385 26.3856 48.8385C26.6444 48.8385 26.8636 48.6393 26.8837 48.3766L26.9427 47.6178C27.3917 42.9409 29.2726 38.3307 33.3832 36.0528C35.2061 37.2082 34.914 40.9373 34.6923 42.5329C34.5453 43.6159 34.2391 45.8688 35.226 46.9889C35.6073 47.4215 36.1249 47.6413 36.7616 47.6413C36.7699 47.6413 36.7782 47.6413 36.7865 47.6413C39.7315 47.63 41.5628 42.2823 43.0575 40.6862C45.577 38.0022 48.6092 37.8652 52.2834 37.5487C52.7426 37.945 53.1549 38.3785 53.5361 38.8351C53.501 38.8342 53.4665 38.8253 53.4312 38.8278C52.2935 38.8976 51.4851 40.674 51.6249 42.7998C51.7546 44.9156 52.7825 46.5822 53.9202 46.5024C54.2663 46.4817 54.5803 46.2891 54.8488 45.9819C55.0755 46.4645 55.1805 47.0176 55.2504 47.5544C56.0141 53.5387 53.4443 55.9447 54.028 59.1354C51.7286 64.258 47.8501 68.0336 42.1659 68.0778C39.601 68.068 36.0365 67.6227 33.7269 66.4001C32.2303 65.6012 30.8973 64.2614 29.764 62.4167C27.9651 59.5145 27.0835 56.1129 26.8646 52.6774C26.8466 52.401 26.6024 52.193 26.3339 52.2106C26.0585 52.2282 25.849 52.4655 25.8666 52.7419C26.0915 56.2745 26.9649 59.658 28.7784 62.6976C20.0406 62.9461 13.3115 64.4153 13.3115 66.2129C13.3115 68.169 21.3854 69.7558 31.3354 69.7558C35.2999 69.7558 38.9536 69.5014 41.9301 69.0754C47.7331 69.1564 51.863 65.6556 54.4764 60.4975C54.9335 61.3634 55.6189 61.8796 56.7621 61.8796C60.0157 61.8796 64.4495 57.2765 63.4886 49.3356C63.1283 46.3783 61.959 43.1989 60.0184 41.0856ZM29.0638 24.8385C29.0624 24.8304 29.057 24.8243 29.0552 24.8163C28.1093 19.6138 30.5117 11.8935 35.4213 8.71647C36.4888 8.02805 37.7505 7.45622 39.0873 7.03245C39.0134 7.2985 39.0656 7.55424 39.3918 7.68546C39.5801 7.76408 39.7888 7.7728 39.9973 7.78147C45.6008 7.99904 51.0021 8.69297 51.6539 8.8422C52.0113 8.93192 52.328 8.9716 52.5469 8.56876C52.5756 8.51316 52.5942 8.44205 52.6107 8.37223C55.7243 10.1225 57.6373 12.4136 58.7382 16.3678C59.921 20.602 59.542 25.119 58.3387 27.9079C57.413 30.1432 55.7616 32.0768 53.6859 33.3532C49.6482 35.8646 45.1451 35.708 40.5165 34.8923C33.5296 33.6214 29.8866 29.5162 29.0638 24.8385ZM27.5541 41.2018C26.1493 40.8104 24.7591 40.1063 23.4118 39.0087C20.6653 34.7687 19.9354 29.2437 21.5847 24.461L21.5858 24.4606C22.6879 23.9516 24.1491 24.5518 24.4657 25.7165C24.7236 26.6615 24.7273 27.8884 24.9047 28.9313C25.4432 32.0827 27.2743 35.1794 29.9559 37.5006C29.0557 38.4882 28.1715 39.8321 27.5541 41.2018ZM42.328 40.0026C40.8427 41.5864 38.9605 46.6325 36.7802 46.6413C36.4125 46.6247 36.1674 46.5456 35.976 46.3278C35.2914 45.5505 35.5658 43.5299 35.683 42.6686C35.9685 40.6148 36.1246 37.1822 34.3896 35.5622C35.3856 35.137 35.9386 35.0067 36.8173 34.9177C38.3687 35.5149 39.9014 35.8226 41.5321 36.0729C46.9749 36.9061 49.5553 36.0171 49.7886 35.9972C50.124 36.1231 50.3544 36.215 51.057 36.6523C47.8652 36.9325 44.8577 37.3071 42.328 40.0026ZM55.9896 60.7214C55.4154 60.4508 55.1581 59.6676 55.0492 59.2067C55.0492 59.1582 55.0305 59.0456 55.0236 59.0104C55.8306 58.2918 56.5558 56.8752 56.7926 56.3786C58.5131 52.6915 58.2453 47.7965 56.8696 45.2484C56.32 44.2146 55.4205 43.1941 54.2993 42.7681C54.0237 42.66 53.7415 42.6413 53.4711 42.6799C53.3492 41.8486 53.4958 41.1242 53.9257 40.4753C54.1302 40.1715 54.3754 39.9889 54.6952 39.901C54.7147 39.8981 54.7338 39.8942 54.7523 39.8883C56.1083 39.5173 58.3729 40.7673 59.2806 41.7604C60.7363 43.345 62.0853 46.0812 62.4955 49.4567C63.5216 57.9254 58.1358 61.7494 55.9896 60.7214Z" fill="#11151A"/>
<path d="M37.4095 42.8808C36.8274 42.7588 36.2274 43.2712 36.0694 44.0252C35.9114 44.7793 36.2552 45.4895 36.8373 45.6115C37.4194 45.7335 38.0194 45.221 38.1775 44.467C38.3354 43.7129 37.9916 43.0028 37.4095 42.8808ZM17.5416 24.4805C17.8072 24.4063 17.9625 24.1309 17.8883 23.8643C17.8146 23.5987 17.5387 23.4444 17.2721 23.5177C16.8029 23.6479 13.6698 24.1589 13.1671 24.2999C12.9015 24.3741 12.7462 24.6495 12.8204 24.9161C12.8947 25.1826 13.1712 25.337 13.4366 25.2628C13.9058 25.1325 17.0389 24.6215 17.5416 24.4805ZM17.818 21.8839C18.0412 22.0442 18.3541 21.9942 18.5157 21.7696C18.6773 21.545 18.6261 21.2325 18.402 21.0714C17.5205 20.438 13.0312 17.4353 12.17 16.8155C11.9449 16.6544 11.6324 16.7052 11.4723 16.9298C11.3106 17.1544 11.3619 17.4669 11.586 17.628C12.4675 18.2614 16.9568 21.264 17.818 21.8839ZM19.3395 19.7335C19.4084 20.0046 19.684 20.163 19.9474 20.0948C20.2149 20.0264 20.3766 19.755 20.3082 19.4874C20.1557 18.8873 19.2636 16.11 19.1188 15.5421C19.0504 15.2735 18.777 15.1124 18.5108 15.1807C18.2433 15.2491 18.0816 15.5206 18.15 15.7882C18.3025 16.3883 19.1946 19.1656 19.3395 19.7335Z" fill="#5158F6"/>
</svg>
