<svg width="512" height="512" viewBox="0 0 512 512" fill="none" xmlns="http://www.w3.org/2000/svg">
<path d="M486.982 383.795H471.65V364.195C471.65 325.192 439.903 293.477 400.899 293.477H380.347C380.807 289.669 381.266 285.827 381.627 281.953C395.613 274.501 405.101 265.144 407.662 253.751C408.516 249.844 409.172 245.937 409.665 241.997H421.451C433.204 241.997 442.758 232.443 442.758 220.69V179.619C442.758 167.898 433.204 158.345 421.451 158.345H414.556V73.8388C426.868 72.0328 436.389 61.4288 436.389 48.5918C436.389 34.5068 424.931 23.0488 410.879 23.0488C396.762 23.0488 385.304 34.5068 385.304 48.5918C385.304 61.3958 394.825 72.0328 407.169 73.8388V158.346C401.982 158.608 397.976 157.492 391.936 160.086C364.03 114.024 311.993 89.1708 255.984 89.1708C200.106 89.1708 148.036 113.958 120.064 160.053C114.187 157.525 109.919 158.576 104.83 158.346V73.8388C117.174 72.0328 126.695 61.4288 126.695 48.5918C126.695 34.5068 115.237 23.0488 101.153 23.0488C87.0682 23.0488 75.6102 34.5068 75.6102 48.5918C75.6102 61.3958 85.0982 72.0328 97.4432 73.8388V158.346H90.5482C78.7952 158.346 69.2412 167.9 69.2412 179.62V220.691C69.2412 232.445 78.7952 241.998 90.5482 241.998H102.334C102.827 245.938 103.45 249.845 104.337 253.752C106.898 265.144 116.386 274.501 130.339 281.954C130.733 285.828 131.16 289.669 131.652 293.478H111.1C72.0972 293.478 40.3492 325.193 40.3492 364.196V383.796H25.0182C14.5782 383.796 6.0752 392.299 6.0752 402.74V434.159C6.0752 444.599 14.5782 453.103 25.0182 453.103C35.4582 453.103 43.9612 444.6 43.9612 434.159V421.683H75.0202V434.159C75.0202 444.599 83.5232 453.103 93.9632 453.103C104.436 453.103 112.906 444.6 112.906 434.159L112.939 402.74C112.939 392.3 104.436 383.796 93.9632 383.796H78.2372V364.196C78.2372 346.073 92.9782 331.365 111.101 331.365H137.924C157.425 423.85 202.995 488.953 255.984 488.953C309.006 488.953 354.575 423.849 374.044 331.365H400.9C419.023 331.365 433.764 346.073 433.764 364.196V383.796H418.005C407.565 383.796 399.062 392.299 399.062 402.74V434.159C399.062 444.599 407.565 453.103 418.005 453.103C428.478 453.103 436.948 444.6 436.948 434.159V421.683H468.039V434.159C468.039 444.599 476.542 453.103 486.982 453.103C497.422 453.103 505.925 444.6 505.925 434.159V402.74C505.925 392.298 497.422 383.795 486.982 383.795ZM421.451 165.733C429.133 165.733 435.371 171.971 435.371 179.62V220.691C435.371 228.373 429.133 234.611 421.451 234.611H410.387C411.93 211.137 406.841 187.663 395.613 166.585C399.684 165.076 400.801 165.995 421.451 165.733ZM101.613 234.612H90.5492C82.8672 234.612 76.6292 228.374 76.6292 220.692V179.621C76.6292 171.971 82.8672 165.734 90.5492 165.734C111.364 165.996 112.349 165.077 116.354 166.587C105.158 187.664 100.07 211.138 101.613 234.612ZM255.984 481.566C198.432 481.566 150.17 397.618 138.154 285.697C167.866 298.731 212.746 304.805 255.984 304.805C299.255 304.805 344.102 298.731 373.847 285.697C361.797 397.617 313.569 481.566 255.984 481.566ZM255.984 297.417C176.927 297.417 117.536 278.802 111.561 252.143C94.3572 175.68 155.718 96.5578 255.984 96.5578C356.545 96.5578 417.578 175.877 400.44 252.144C394.464 278.802 335.073 297.417 255.984 297.417Z" fill="#11151A"/>
<path d="M255.984 319.84C229.489 319.84 207.887 341.41 207.887 367.937C207.887 394.464 229.49 416.034 255.984 416.034C282.511 416.034 304.114 394.464 304.114 367.937C304.114 341.41 282.511 319.84 255.984 319.84ZM255.984 380.281C249.188 380.281 243.672 374.733 243.672 367.937C243.672 361.141 249.188 355.625 255.984 355.625C262.813 355.625 268.328 361.141 268.328 367.937C268.328 374.733 262.812 380.281 255.984 380.281ZM255.984 119.67C171.379 119.67 120.524 184.183 133.919 246.299C134.018 246.792 134.247 247.218 134.51 247.645C142.028 258.381 185.825 274.304 255.984 274.304C326.176 274.304 369.973 258.381 377.491 247.645C377.754 247.218 377.951 246.792 378.082 246.299C391.345 184.839 341.377 119.67 255.984 119.67ZM371.023 243.902C365.245 250.337 328.638 266.916 255.983 266.916C183.361 266.916 146.755 250.336 140.976 243.902C129.288 187.104 175.941 127.057 255.983 127.057C336.321 127.057 382.645 187.301 371.023 243.902Z" fill="#5158F6"/>
<path d="M326.078 193.342C326.078 209.002 315.966 221.741 303.589 221.741C291.212 221.741 281.133 209.003 281.133 193.342C281.133 177.681 291.212 164.943 303.589 164.943C315.966 164.943 326.078 177.682 326.078 193.342ZM230.868 193.342C230.868 209.002 220.789 221.741 208.379 221.741C196.002 221.741 185.923 209.003 185.923 193.342C185.923 177.681 196.002 164.943 208.379 164.943C220.789 164.943 230.868 177.682 230.868 193.342ZM288.307 235.777C288.307 233.738 286.653 232.084 284.614 232.084C282.575 232.084 280.921 233.738 280.921 235.777C280.921 241.827 270.685 248.57 256 248.57C241.313 248.57 231.077 241.827 231.077 235.777C231.077 233.738 229.423 232.084 227.384 232.084C225.345 232.084 223.691 233.738 223.691 235.777C223.691 247.091 237.883 255.956 256.001 255.956C274.115 255.957 288.307 247.092 288.307 235.777Z" fill="#5158F6"/>
</svg>
