<svg width="280" height="274" viewBox="0 0 280 274" fill="none" xmlns="http://www.w3.org/2000/svg">
<path d="M13.2234 98.0159C13.1895 98.1672 13.1586 98.3193 13.1307 98.4724C12.5223 101.817 13.4821 105.22 14.1938 108.473C14.9328 111.851 15.6697 115.229 16.4039 118.608C19.6357 133.48 22.8157 148.363 25.8936 163.268C28.9901 178.262 31.9839 193.279 34.8173 208.325C37.6164 223.189 40.2598 238.082 42.6755 253.013C43.1434 255.904 45.7211 257.287 48.408 256.099C48.6451 255.994 48.8878 255.883 49.1595 255.771C49.6073 255.587 49.401 254.877 49.3347 254.399C43.0345 208.943 34.8032 159.814 25.0418 115.017C24.1428 110.891 22.1192 107.437 20.8173 103.424C20.0967 101.203 20.0237 98.3285 19.1991 95.9999C18.8568 95.0332 18.5085 94.0685 18.1476 93.1084C18.0166 92.7599 16.8399 90.6543 16.9322 90.5125C15.399 92.8631 13.8341 95.291 13.2234 98.0159ZM195.137 99.4992C194.842 99.4992 194.543 99.4433 194.257 99.3227C193.102 98.8371 192.561 97.5097 193.046 96.3619C193.394 95.5408 193.126 93.5896 191.74 91.0732C189.705 87.3738 185.65 83.2888 181.837 82.6384C180.602 82.4295 179.772 81.2611 179.982 80.0309C180.195 78.7977 181.388 77.9589 182.599 78.1826C188.104 79.1185 193.155 84.2424 195.719 88.9013C197.692 92.483 198.226 95.7557 197.228 98.116C196.862 98.9813 196.02 99.4992 195.137 99.4992ZM116.945 136.255C119.322 138.499 121.043 141.792 123.102 144.328C120.63 144.981 118.159 145.634 115.687 146.288C113.075 146.978 113.972 144.87 114.421 143.191C114.969 141.138 116.15 138.226 116.945 136.255Z" fill="#11151A"/>
<path d="M195.434 96.8621C198.206 94.4332 200.897 91.9111 203.499 89.3016C204.857 87.9398 206.264 86.4069 206.478 84.4989C206.747 82.0964 205.052 79.9481 203.352 78.2241C201.451 76.2974 199.278 74.4405 196.625 73.8845C193.907 73.315 191.046 74.2415 188.933 75.9716C187.276 77.3281 184.888 79.9406 185.715 82.2842C186.552 84.6562 189.62 85.7136 191.103 87.7737C192.884 90.2469 194.396 93.9987 195.434 96.8621ZM60.7646 237.237C59.785 238.491 61.2768 240.02 62.4801 240.656C99.4467 231.743 138.807 222.84 176.406 217.128C177.447 215.804 178.401 214.07 177.415 211.597C163.733 214.07 147.767 216.041 134.084 218.514C109.038 223.041 84.6424 228.446 60.7646 237.237Z" fill="#11151A"/>
<path d="M48.4056 255.858C47.9478 255.858 47.4959 255.719 47.1119 255.455C46.5891 255.093 46.2435 254.527 46.1579 253.898C41.4941 219.246 36.8599 188.709 32.3881 163.139C32.3615 162.998 32.3202 162.81 32.3025 162.58C27.6889 136.346 23.5539 116.674 19.6699 102.45C19.6581 102.418 19.6492 102.386 19.6403 102.353L19.537 102.038L19.5488 102.033C19.5251 101.994 19.5045 101.956 19.4838 101.915C19.1323 101.214 19.1559 100.355 19.5694 99.687C20.4585 98.2566 22.8598 98.4479 23.545 99.8783C23.6129 99.996 23.672 100.123 23.7163 100.249L23.8256 100.561L23.9733 101.023C23.9969 101.088 24.0176 101.153 24.0353 101.217C27.9666 115.606 32.143 135.469 36.7949 161.936C36.8185 162.065 36.8304 162.198 36.8304 162.327C41.2372 187.402 45.768 217.186 50.3343 250.919C87.4848 243.65 125.303 240.448 161.895 237.349L162.244 237.319C161.287 231.628 160.306 225.824 159.305 219.929C159.095 218.699 159.928 217.533 161.163 217.324C162.365 217.089 163.567 217.942 163.777 219.175C164.926 225.936 166.048 232.578 167.138 239.068C167.265 239.818 167.005 240.58 166.447 241.098C165.921 241.584 165.197 241.784 164.494 241.666L162.279 241.852C125.294 244.986 87.0477 248.223 49.6372 255.664L48.9106 255.802C48.7423 255.84 48.5739 255.858 48.4056 255.858ZM146.607 136.051C145.355 136.051 144.339 135.054 144.339 133.806V133.776C144.339 132.529 145.355 131.516 146.607 131.516C147.86 131.516 148.876 132.529 148.876 133.776C148.876 135.024 147.86 136.051 146.607 136.051Z" fill="#11151A"/>
<path d="M62.277 239.139C61.8044 239.139 61.3348 238.991 60.9419 238.706C60.4428 238.344 60.1179 237.797 60.0322 237.196C60.0293 237.181 60.0263 237.167 60.0234 237.152L43.5304 176.631L29.486 130.793L23.7825 113.896C23.3158 112.563 22.8462 111.236 22.3736 109.912L20.7846 105.518C20.5542 104.885 20.3327 104.279 20.0728 103.64C19.8778 103.154 19.6977 102.677 19.5293 102.198C19.4555 101.992 19.3905 101.768 19.3285 101.544C19.2783 101.374 19.2369 101.197 19.166 101.041C18.85 100.35 18.5635 99.5902 18.2888 98.8515L16.2715 93.6629C16.2597 93.6335 16.2301 93.5481 16.2035 93.4686C15.6896 92.8653 15.5272 92.0413 15.7782 91.2878C16.0352 90.5256 16.6761 89.9576 17.4647 89.7898C29.7813 87.2117 41.1291 85.0044 52.1549 83.0472C65.8065 80.6163 78.9472 78.6474 92.3241 77.0257C103.893 75.5895 116.124 74.3711 129.705 73.2998L136.179 72.8172C137.429 72.7583 138.513 73.6677 138.598 74.9156C138.684 76.1605 137.742 77.2406 136.492 77.3259L130.045 77.8086C116.55 78.871 104.387 80.0836 92.8794 81.511C79.5792 83.1238 66.5213 85.0809 52.9524 87.4972C42.792 89.3013 32.3598 91.3173 21.139 93.6423L22.5391 97.274C22.7783 97.9127 23.0234 98.5719 23.2952 99.1694C23.4576 99.5284 23.5787 99.9169 23.691 100.308L23.8121 100.703C23.9568 101.124 24.1133 101.536 24.2787 101.948C24.5564 102.627 24.7986 103.287 25.0496 103.972L26.6475 108.393C27.1231 109.729 27.5986 111.068 28.0653 112.41L38.1076 142.871L55.5782 202.648L63.8985 233.988C89.973 225.801 117.347 220.95 143.847 216.256C149.391 215.273 154.926 214.293 160.431 213.287C164.764 212.489 169.097 211.671 173.41 210.829C166.413 186.496 158.653 160.262 151.145 134.869L149.849 130.489C149.494 129.292 150.182 128.035 151.385 127.682C152.578 127.337 153.848 128.017 154.202 129.212L155.496 133.591C163.199 159.641 171.165 186.575 178.227 211.206C178.339 211.524 178.431 211.8 178.502 212.107C178.655 212.778 178.493 213.481 178.062 214.02C177.633 214.558 176.981 214.87 176.289 214.87C171.448 215.827 166.353 216.795 161.253 217.731C155.735 218.74 150.194 219.723 144.641 220.706C117.504 225.515 89.4473 230.486 62.977 239.03C62.7466 239.103 62.5103 239.139 62.277 239.139Z" fill="#11151A"/>
<path d="M145.242 108.993C144.258 108.993 143.351 108.351 143.062 107.362C139.943 96.6434 136.883 86.1102 133.944 75.936C133.599 74.7382 134.293 73.4845 135.498 73.1401C136.685 72.7987 137.955 73.4874 138.304 74.6882C141.243 84.8565 144.303 95.3897 147.422 106.102C147.77 107.3 147.076 108.554 145.874 108.904C145.661 108.963 145.449 108.993 145.242 108.993Z" fill="#11151A"/>
<path d="M110.657 149.801C110.055 149.801 109.467 149.56 109.036 149.121C108.486 148.562 108.268 147.758 108.454 146.999C109.703 141.969 111.608 137.508 113.812 132.346C114.772 130.094 115.794 127.701 116.842 125.065C116.999 124.667 117.267 124.326 117.613 124.073L186.804 73.6521C192.552 69.4582 200.757 71.8009 204.807 76.6187C207.143 79.3999 208.25 83.3907 207.775 87.2991C207.367 90.6336 205.834 93.4236 203.463 95.1512L135.787 144.468C135.603 144.601 135.403 144.707 135.187 144.78C130.302 146.461 124.04 147.497 118.514 148.412C115.758 148.868 113.156 149.301 111.153 149.745C110.988 149.783 110.823 149.801 110.657 149.801ZM120.818 127.337C119.837 129.773 118.886 132.004 117.985 134.114C116.393 137.849 114.961 141.201 113.856 144.615C115.096 144.395 116.414 144.177 117.769 143.953C122.994 143.088 128.899 142.108 133.391 140.616L200.787 91.5018C202.134 90.5188 203.017 88.8324 203.271 86.7517C203.596 84.1029 202.848 81.3335 201.327 79.5206C198.657 76.3421 193.025 74.7204 189.48 77.3015L120.818 127.337Z" fill="#11151A"/>
<path d="M133.614 145.113C133.1 145.113 132.586 144.942 132.163 144.589C131.201 143.792 131.068 142.367 131.871 141.408C132.199 140.878 132.101 138.529 131.552 137.067C131.221 136.187 129.487 134.857 128.463 134.692C127.597 134.556 126.891 133.935 126.643 133.097C126.321 132.002 125.583 131.019 124.62 130.398C123.371 129.588 120.733 128.717 119.891 128.864C118.657 129.053 117.508 128.167 117.339 126.928C117.171 125.692 118.039 124.553 119.283 124.385C121.861 124.041 125.627 125.662 127.089 126.601C128.61 127.584 129.806 128.979 130.545 130.607C132.795 131.475 135.055 133.503 135.799 135.477C136.358 136.961 137.474 141.764 135.356 144.298C134.91 144.836 134.263 145.113 133.614 145.113Z" fill="#11151A"/>
<path d="M131.018 133.123C130.312 133.123 129.618 132.796 129.175 132.184C128.442 131.168 128.673 129.759 129.689 129.029C133.862 126.036 138.201 122.969 142.617 119.846C157.984 108.987 173.872 97.7588 187.326 86.4633C188.28 85.6598 189.715 85.7805 190.521 86.7341C191.331 87.6876 191.207 89.115 190.25 89.9185C176.651 101.338 160.684 112.621 145.243 123.534C140.833 126.651 136.506 129.709 132.341 132.696C131.939 132.984 131.476 133.123 131.018 133.123ZM46.7986 114.985C45.756 114.985 44.8168 114.263 44.5864 113.207C44.3176 111.989 45.0944 110.782 46.3172 110.517L94.5438 100.025C95.74 99.7542 96.9776 100.528 97.2434 101.75C97.5122 102.971 96.7354 104.175 95.5126 104.44L47.286 114.932C47.1235 114.967 46.9611 114.985 46.7986 114.985ZM49.4953 149.024C48.4349 149.024 47.4868 148.279 47.2742 147.202C47.029 145.978 47.8294 144.789 49.0581 144.548L95.6307 135.38C96.8594 135.142 98.0526 135.933 98.2949 137.158C98.54 138.382 97.7396 139.571 96.5109 139.812L49.9383 148.98C49.7906 149.009 49.64 149.024 49.4953 149.024ZM61.7586 185.203C60.719 185.203 59.7798 184.485 59.5464 183.428C59.2776 182.21 60.0485 181.003 61.2743 180.736L133.992 164.746C135.191 164.478 136.423 165.243 136.695 166.468C136.964 167.686 136.193 168.893 134.967 169.16L62.249 185.15C62.0865 185.185 61.9211 185.203 61.7586 185.203ZM83.9433 203.224C82.8563 203.224 81.8935 202.441 81.7103 201.337C81.5036 200.104 82.3365 198.941 83.5711 198.735C91.2151 197.458 98.8059 195.554 106.137 193.073C107.321 192.664 108.612 193.302 109.014 194.486C109.418 195.669 108.783 196.952 107.596 197.352C100.035 199.913 92.2045 201.879 84.3213 203.191C84.1943 203.215 84.0673 203.224 83.9433 203.224Z" fill="#11151A"/>
<path d="M25.8938 163.266C31.9845 192.761 37.847 223.168 42.6757 253.011C43.1437 255.903 45.7212 257.286 48.4083 256.098C48.7123 255.963 48.4356 256.088 49.1796 255.75C59.2832 254.321 70.8065 249.603 162.278 241.851L164.493 241.666C166.087 241.933 167.394 240.583 167.137 239.067C165.315 228.218 164.666 224.438 163.771 219.163C167.998 218.452 172.216 217.762 176.406 217.126C177.025 216.337 177.605 215.399 177.772 214.25C177.865 214.167 177.983 214.118 178.062 214.019C178.494 213.48 178.656 212.777 178.502 212.106C178.432 211.8 178.34 211.523 178.228 211.205C171.166 186.575 163.2 159.64 155.497 133.591L154.65 130.723L203.463 95.1512C205.835 93.4236 207.368 90.6336 207.776 87.2991C208.251 83.3907 207.144 79.3999 204.807 76.6187C200.758 71.8009 192.553 69.4582 186.805 73.6521L146.522 103.007C143.794 93.6348 141.112 84.4016 138.527 75.4599C138.824 73.8112 137.5 72.7541 136.18 72.8163C94.0842 76.431 70.8388 78.6167 17.4655 89.7889C16.2634 90.0446 15.4635 91.2095 15.7072 92.4384C14.628 94.1969 13.6695 96.0256 13.2235 98.0148C12.1418 102.856 13.2188 101.888 25.8938 163.266ZM162.243 237.319C124.802 240.489 87.3479 243.676 50.3333 250.919C45.7823 217.298 39.8555 177.33 33.4992 143.888L43.5311 176.63C60.8313 240.027 59.9532 237.47 60.454 238.172C60.4917 239.173 61.5657 240.171 62.4797 240.654C93.879 233.084 126.998 225.541 159.305 219.933C160.305 225.827 161.286 231.628 162.243 237.319ZM136.474 138.37C136.106 135.573 135.441 133.993 133.111 132.147C138.487 128.297 188.022 93.5517 190.675 89.3842C191.067 89.9475 191.433 90.5129 191.741 91.0721C193.126 93.5884 193.395 95.5397 193.046 96.3608C192.921 96.6577 192.869 96.9656 192.874 97.2687L136.474 138.37ZM114.04 144.584C113.982 144.595 113.915 144.605 113.857 144.615C114.085 143.909 114.38 143.197 114.635 142.493C114.469 143.041 114.173 144.03 114.04 144.584ZM122.257 143.189C120.583 140.898 119.034 138.283 117.045 136.364C117.177 136.05 119.521 130.489 120.181 128.884C121.199 128.89 123.469 129.652 124.62 130.397C127.207 132.066 126.113 134.324 128.462 134.691C129.487 134.856 131.221 136.186 131.552 137.066C132.026 138.328 132.143 140.18 131.962 141.024C129.008 141.891 125.639 142.591 122.257 143.189ZM182.07 82.702C184.072 83.1148 186.117 84.4421 187.901 86.1483C185.521 87.17 187.96 87.8031 142.616 119.846C141.478 120.651 130.456 128.432 129.598 129.125C128.285 127.264 126.984 126.198 123.874 125.11L182.07 82.702ZM134.392 77.4825C137.055 86.6976 139.812 96.1901 142.622 105.848C116.607 124.955 117.278 123.959 116.843 125.065C113.43 133.646 110.253 139.759 108.455 146.999C108.268 147.758 108.487 148.562 109.036 149.121C109.597 149.691 110.411 149.917 111.154 149.745C115.41 148.801 133.307 146.262 135.787 144.468L150.758 133.558L151.146 134.868C158.654 160.261 166.413 186.495 173.41 210.828C136.519 218.029 99.3333 222.861 63.8993 233.987L55.5789 202.647L38.1083 142.87L28.066 112.409C26.9795 109.285 23.8642 100.688 23.8246 100.561L23.7153 100.249C23.5481 99.7707 23.8413 100.747 22.5398 97.2731L21.1398 93.6414C69.9516 83.5273 92.9496 81.0739 134.392 77.4825Z" fill="#11151A"/>
<path d="M47.286 114.933L95.5126 104.441C96.7354 104.176 97.5122 102.973 97.2434 101.751C96.9776 100.53 95.74 99.7559 94.5438 100.027L46.3172 110.519C45.0944 110.784 44.3176 111.99 44.5864 113.209C44.8508 114.421 46.0538 115.201 47.286 114.933ZM49.0581 144.549C47.8294 144.791 47.029 145.98 47.2742 147.204C47.5158 148.428 48.7102 149.226 49.9383 148.982L96.5109 139.814C97.7396 139.573 98.54 138.384 98.2949 137.159C98.0526 135.935 96.8594 135.143 95.6307 135.382L49.0581 144.549ZM61.7586 185.205C61.9211 185.205 62.0865 185.187 62.249 185.152L134.967 169.162C136.193 168.894 136.964 167.688 136.695 166.469C136.423 165.245 135.191 164.48 133.992 164.748L61.2743 180.737C58.6351 181.314 59.0663 185.205 61.7586 185.205ZM106.137 193.075C98.8059 195.556 91.2151 197.46 83.5711 198.737C82.3365 198.943 81.5036 200.106 81.7103 201.339C81.8935 202.442 82.8563 203.225 83.9433 203.225C84.0673 203.225 84.1943 203.216 84.3213 203.193C92.2045 201.88 100.035 199.914 107.596 197.354C108.783 196.954 109.418 195.67 109.014 194.487C108.612 193.304 107.321 192.666 106.137 193.075Z" fill="#11151A"/>
<path d="M226.58 54.9338C233.36 53.6484 241.33 53.3495 238 44.0528C239.62 42.1895 242.56 42.9667 244.76 42.8372C248.15 42.9867 251.13 41.6016 251.17 37.8451C251.4 34.3676 248.87 31.2089 248.83 27.8708C248.89 27.5321 249.01 27.4224 249.27 27.3228C250.52 26.8445 252.24 27.0438 253.73 27.0338C259.72 27.2132 263.75 25.1705 263.21 18.5841C262.78 15.3756 261.05 12.4661 259.02 10.0049C257.8 8.5202 255.68 10.6426 256.9 12.1173C259.39 14.8874 262.83 21.8424 257.68 23.6759C253.2 24.8218 244.96 21.9819 245.92 29.4352C246.4 32.574 248.93 35.6131 247.95 38.8913C247.56 39.6785 246.66 39.7184 245.84 39.818C242.29 40.0372 237.57 39.0308 235.32 42.608C234.18 44.2422 235.88 45.8863 235.82 47.63C236.13 51.4663 228.38 51.0577 225.77 52.0542C223.9 52.5125 224.69 55.3922 226.57 54.9338H226.58ZM257.84 56.1395C257.26 56.2192 256.7 56.4185 256.19 56.7274C255.47 57.1658 255.38 57.8036 255.12 58.5309C254 61.7893 249.62 66.3828 247.15 61.6298C245.51 59.4477 242.88 62.8056 241.94 64.2106C241.39 65.0974 241.02 66.1138 240.39 66.9408C240.49 66.8013 240.35 66.9308 240.22 67.0703C240.17 67.0404 239.89 67.0404 240.07 67.0903C237.44 66.2533 235.43 63.9814 233.44 62.1978C232.03 60.8925 229.9 62.9949 231.32 64.3102C233.85 66.4725 238.44 71.7834 242.04 69.4418C243.66 68.1863 244.05 65.7849 245.56 64.4697C250.15 69.6909 256.46 64.4697 258.05 59.1886C259.48 58.8498 260.81 60.8128 261.75 61.6697C263.4 63.2042 265.33 64.0811 267.59 63.3138C271.82 61.869 272.38 56.1495 271.56 52.4428C271.14 50.5695 268.25 51.3567 268.67 53.2399C269.09 55.1531 269.04 57.5246 268.01 59.2484C266.91 61.1316 264.98 60.9024 263.68 59.3679C262.07 57.8334 260.33 55.7808 257.86 56.1196L257.84 56.1395ZM211.88 51.4065C217.32 48.6663 226.85 45.3881 218.86 38.7618C225.34 36.0914 226.68 28.3491 220.55 24.4531C227.78 20.4873 228 8.3807 218.42 7.50384C216.51 7.2647 216.53 10.254 218.42 10.4931C221.56 10.8917 223.26 13.4525 222.76 16.5016C222.26 19.5407 219.88 22.3506 216.71 22.7293C215.08 22.9186 214.62 25.1008 216.31 25.6687C224.03 28.2096 222.79 35.4636 215.17 36.8088C213.83 37.0778 213.81 38.8913 214.81 39.539C216.06 40.386 220.45 42.8073 218.25 44.5411C215.94 46.4443 212.98 47.4008 210.37 48.8357C208.65 49.7126 210.17 52.2933 211.88 51.4164V51.4065ZM186.94 28.0203C187.91 26.9342 190.23 25.7584 191.75 26.2865C192.17 28.2893 189.96 30.1925 189.31 32.0259C187.96 34.4373 188.66 36.8586 191.69 36.9483C193.87 37.4664 195.97 33.7597 197.78 35.9618C199.18 38.0244 197.85 41.2529 196.03 42.5981C194.8 43.5048 195.26 45.2187 196.79 45.3881C200.3 45.7767 201.58 50.8286 198.73 52.8613C197.17 53.9673 198.67 56.568 200.24 55.442C204.78 52.2036 203.83 45.6372 199.48 43.2557C204.02 37.5661 199.55 28.5584 192.35 33.9092C192.18 33.9092 191.98 33.9092 191.8 33.9092C192.66 31.4381 194.96 29.3555 194.79 26.5655C194.45 20.846 186.47 23.4766 184.35 26.5257C183.24 28.11 185.84 29.6046 186.94 28.0303V28.0203ZM230.61 78.0709C228.94 83.8004 235.73 91.9611 240.19 85.1057C241.88 93.9042 248 93.3761 250.47 85.6438C253.51 88.4338 254.73 94.4622 259.58 94.8009C263.67 94.7212 265.69 88.9519 266.87 85.9327C267.57 84.1392 264.67 83.362 263.98 85.1356C263.05 87.3975 262.1 90.2174 260.01 91.6622C259.63 91.8914 259.24 91.8615 258.87 91.5825C255.7 89.7391 253 79.5556 248.35 83.5612C247.05 84.9064 247.02 87.3277 245.4 88.4736C243.33 88.7327 243.33 84.0096 242.77 82.4951C242.23 80.7812 239.83 80.8908 238.75 81.9371C237.91 82.7541 237.61 84.5278 236.29 84.6673C234.13 84.6673 233.07 80.5719 233.51 78.8581C233.9 76.9848 231.01 76.1777 230.62 78.0609L230.61 78.0709ZM250.57 85.5043C250.57 85.5043 250.57 85.5441 250.64 85.5541C250.61 85.5541 250.58 85.5541 250.56 85.5541C250.58 85.5342 250.58 85.5342 250.56 85.5541C250.58 85.5342 250.58 85.5242 250.58 85.5142L250.57 85.5043ZM250.52 85.5939C250.52 85.5939 250.54 85.5939 250.55 85.5939C250.54 85.5939 250.53 85.5939 250.52 85.5939Z" fill="#5158F6"/>
</svg>
