<svg xmlns="http://www.w3.org/2000/svg" enable-background="new 0 0 75 75" viewBox="0 0 75 75" id="star-balloons"><path d="M19.6014576,51.7280579c1.6015625,0.6757813,2.9746094,1.0522461,4.7441406,1.2998047
		c0.788456,0.1032829,1.3929176,0.157238,2.0889282,0.1221313c0.0089111,0.0562744,0.017334,0.1118164,0.0263062,0.1674194
		c0.153677,0.9159927,1.1357937,1.4599724,2.0126953,1.0517578c0.2199707-0.1061401,0.4250488-0.2074585,0.6209106-0.3063965
		c0.6417294,0.5331764,0.942482,1.6433487,1.2023315,2.4992676c1.088501,3.5961914,2.5610371,5.9985352,5.3644428,8.758728
		c-0.4961548,1.0545044-1.1263428,2.0390015-1.8849487,2.9356079c-0.2675781,0.315918-0.2285156,0.7890625,0.0878906,1.0566406
		c0.3132668,0.2664948,0.7871666,0.2303314,1.0566406-0.0878906c0.7294922-0.8613281,1.3535156-1.7949219,1.8652344-2.7890625
		c0.3916016,0.8066406,0.8710938,1.4775391,1.4316406,2.0043945c0.3037109,0.2827148,0.7773438,0.2685547,1.0605469-0.0336914
		c0.2832031-0.3017578,0.2685547-0.7763672-0.0332031-1.0600586c-0.6216431-0.5831299-1.114502-1.4382324-1.4859009-2.5180664
		c1.2307129-0.8441772,2.0810547-2.3693848,2.5259399-4.5585938c0.3482094-1.7120285,0.4921074-3.5169907,1.4199219-4.8369141
		c0.9478111-1.3503647,2.6317635-2.1460953,3.319458-4.0912476c1.0656586,0.6201248,2.1259117-0.0119171,2.3026123-0.9546509
		c0.0648422-0.3902283,0.1319656-0.7936707,0.1585693-1.2221069c0.1402588,0.0087891,0.279541,0.0282593,0.4205322,0.0282593
		c0.9221191,0,1.8617287-0.1724052,2.8652344-0.3383789c3.2705078-0.5214844,6.0869141-1.5698242,8.3691406-3.1171875
		c3.3544922-2.2709961,5.5898399-5.7553711,5.9794884-9.3232422c0.448204-4.2441826-1.6811447-8.3405418-5.0058556-10.3256836
		c-2.7089844-1.6625977-6.0751953-2.0185547-9.0068359-0.9501953c-5.7649231,2.1188202-8.7698479,9.0846901-8.4628906,15.1166992
		c0.1091156,1.7731209,0.3214417,3.0990677,0.9003906,4.9086914c0.1702881,0.5255127,0.4732056,1.4190674,0.9317017,2.196167
		c-0.1014061,0.0667191-0.1102257,0.0601349-0.8320923,0.5562744c-0.8009415,0.5713654-0.8233566,1.743763-0.0800781,2.3422852
		c0.062439,0.0513306,0.1156616,0.0936279,0.173584,0.1405029c-0.2456665,1.6676369-2.1378021,2.5727272-3.2614746,4.1719971
		c-1.8517303,2.6401749-1.0983047,6.2481575-2.9417725,8.444519c-0.2823486-2.540657-1.6976662-4.4761276-2.0250244-6.9142456
		c-0.2908897-2.1750908,1.8204346-4.1774521,1.9335938-6.8427734c0.194706-4.457283-2.3252907-8.9397469-1.2611084-12.5062256
		c0.2630196,0.0228271,0.587822,0.046669,0.848999,0.020874c1.0064697-0.0921555,1.6372185-1.1188278,1.2871094-2.0180664
		c-0.0689087-0.1889038-0.1938477-0.5166016-0.3565063-0.8751221c0.8794746-0.5031395,1.6716652-1.1603851,2.4746704-1.7972412
		c2.8330078-2.2314453,4.9541016-4.7231445,6.3037109-7.40625c1.9814453-3.9355469,2.2568359-8.4272461,0.7353516-12.0185547
		c-1.8291245-4.2798481-6.0251961-7.0163064-10.2119141-7.140625c-3.4355469-0.1323242-6.8281269,1.3017578-9.0410175,3.8657227
		c-4.3359909,5.0528297-3.5163879,13.2564468-0.0361328,18.8085938c1.0899982,1.7385464,2.128952,2.9585781,3.4814453,4.2231445
		c0.4866962,0.4500732,1.3599873,1.2396851,2.3048115,1.7307129c-0.0560913,0.1218872-0.112793,0.2451782-0.1680908,0.3674316
		c-0.3539467,0.7977295,0.0390205,1.7337914,0.8855591,2.0240479c-1.0759125,4.0480728,1.4353447,8.4702034,1.2550659,12.6571045
		c-0.0429688,0.9941406-0.4726563,1.9306641-0.9287109,2.9223633c-1.2787743,2.7900467-1.5002136,3.7700882,0.0908203,7.8618164
		c0.4713135,1.2096558,0.9142456,2.3659668,0.9669189,3.6282349c-4.7555046-4.9733086-3.9072151-8.4413834-5.7142963-10.4056396
		c0.4909554-0.6569786,0.338829-1.5622215-0.2858276-2.0014038c-0.0863647-0.0643311-0.2161255-0.15802-0.3684082-0.262207
		c0.4133816-0.8364487,0.6650372-1.7605515,0.9533691-2.7421875c1.8095989-6.1629028,0.6769028-11.6419754-1.4042969-14.4384766
		c-3.3187084-5.0033569-9.2154255-6.1060772-13.5722647-4.0634766c-3.2021484,1.5087891-5.4853516,4.7319336-5.8173828,8.2114258
		C9.3048964,43.8208809,14.1131096,49.4397469,19.6014576,51.7280579z M44.140522,40.1416321
		c-0.2663612-5.2188263,2.3138657-11.6954117,7.4824219-13.5942383c2.5118599-0.9159203,5.462635-0.5576019,7.7138672,0.8242188
		c2.9094048,1.7406693,4.6608925,5.381588,4.2919922,8.8828125c-0.3427734,3.1333008-2.3349609,6.2143555-5.3300781,8.2416992
		c0,0,0,0,0,0.0004883c-3.6390076,2.466362-7.8622055,2.8595963-8.2509766,2.956543
		c-3.5521851,0.5901146-4.0865593,0.2815208-5.0761719-2.7495117C44.4289703,43.0070305,44.2458076,41.8320656,44.140522,40.1416321
		z M29.4569263,27.3945618c-3.0594463-4.8801765-4.0083427-12.4764452-0.0976563-17.0322266
		c1.9227676-2.227787,4.9484196-3.4657578,7.8515644-3.3457031c3.7228394,0.1114378,7.3604889,2.6638041,8.8847656,6.2290039
		c1.3505859,3.1884766,1.0908203,7.2094727-0.6953125,10.7563477v0.0004883
		c-1.25,2.4853516-3.2324219,4.8076172-5.8896484,6.9003906c-1.0800552,0.8705807-2.5039825,2.0897293-3.7792969,2.2109375
		c-0.9434586,0.1107712-2.3506851-1.1573029-3.0410156-1.796875C31.4542923,30.1616917,30.4896183,29.0468674,29.4569263,27.3945618
		z M18.0790577,38.2737732c-0.0968056-0.6537056-0.1977806-1.5079193,0.3800049-1.8099976
		c0.460022-0.25,0.9699707,0.0800171,1.2399902,0.2600098l1.6400146,1.0700073
		c0.1099854,0.0700073,0.2399902,0.0900269,0.3599854,0.039978c0.7319279-0.312458,0.367897-0.1389847,1.0200195-0.4399414
		c0.8900146-0.460022,1.5599976-0.75,2.0100098-0.460022c0.7148952,0.4579811,0.1828842,1.6697731-0.0700073,2.4299927
		l-0.2399902,0.8699951c-0.0300293,0.1300049,0,0.2600098,0.0799561,0.3599854
		c0.1870346,0.2129211,0.6500244,0.7399902,0.75,0.8500366c0.6900024,0.6900024,1.1700439,1.2199707,1.0300293,1.7299805
		l-0.0499878,0.1500244c-0.2900391,0.5599976-1.1000366,0.5799561-2.0599976,0.5599976h-0.2900391l-0.8200073,0.039978
		c-0.1300049,0-0.25,0.0700073-0.3099976,0.1799927l-0.4199829,0.6799927
		c-0.2881508,0.4324455-0.7811794,1.8183289-1.7299805,1.6600342c-0.6500244-0.1199951-0.9200439-1.0100098-1.1300049-1.7200317
		c-0.0719032-0.3112907-0.1153069-0.3583183-0.3400269-0.9599609c-0.0499878-0.1199951-0.1499634-0.210022-0.2699585-0.2400513
		c-0.9781055-0.2338524-0.8283997-0.2046814-1.0400391-0.2399902c-0.8299561-0.1300049-1.8499746-0.3099976-1.9699697-1
		c-0.1000366-0.5799561,0.5199575-1.0599976,1.3299551-1.6199951c0.3357029-0.213562,0.2274952-0.1633682,0.8900146-0.6900024
		c0.1000366-0.0799561,0.1500244-0.2000122,0.1400146-0.3299561C18.1314049,38.7039108,18.1381798,38.5888405,18.0790577,38.2737732
		z"></path><path d="M36.9569283 21.1704407c.7031441.2414532.4774628.1486835.7519531.2636719.5996094.2490234 1.4199219.5927734 1.9746094.0981445.5731583-.5210552.2342987-1.2939548-.0703125-1.9970703-.0339584-.0779266.0638618.1507416-.2910156-.6782227.4777527-.6354904.3287125-.4614201.5117188-.671875.4121094-.4785156 1.1015625-1.2792969.59375-1.9770508-.3779297-.5209961-1.1289063-.449707-1.8554688-.3813477-.0864601.0085564.1220665-.0100822-.7197266.0654297l-.8457031-1.1850586c-.1582031-.2226563-.5263672-.7416992-1.1376953-.6728516-.2675781.03125-.6367188.1894531-.8740234.7670898-.1350822.3275318-.3237572 1.1952372-.4140625 1.5732422-.6821556.2085171-.4637451.1590042-.7695313.2290039-.6689453.15625-1.5009766.3500977-1.6455078 1.0498047-.1621094.7773438.6640625 1.2700195 1.2675781 1.6298828.8126945.4853611.5319443.3176785.5927734.3540039-.011734.642931.0088348.3866386-.0185547.7270508-.0537109.6196289-.1259766 1.4682617.4951172 1.8496094C35.3426666 22.7300014 36.206501 21.8256989 36.9569283 21.1704407zM36.8348579 10.6445618c1.6611328-.2944336 3.5214844.534668 4.4160156 1.9663086.1416016.2275391.3867188.3525391.6367188.3525391.5808296 0 .9496307-.6443758.6347656-1.1474609-1.2255859-1.9594727-3.6708984-3.0498047-5.9472656-2.6489258C36.1668892 9.2388 35.8944283 9.6274719 35.9666939 10.035675 36.0379829 10.4429016 36.4266548 10.7197571 36.8348579 10.6445618zM49.4569283 37.5083313c-.4658203.6904297-1.046875 1.5498047-.6386719 2.2768555.4853516.8652344 1.7011719.6083984 2.4257813.4545898.4079361-.0866432.1564636-.0301247 1.0869141-.1650391.0556641-.0078125.1113281.0126953.1484375.0541992.7402611.8269119.4692421.4932671.7490234.8476563.5284271.6729279 1.2090225 1.5455475 2.0429688 1.3579102.0019531-.0004883.0048828-.0014648.0078125-.0019531.8440742-.1980972.9383926-1.2781601 1.0332031-2.2211914.0547676-.5312386.0191917-.1690331.1826172-1.1376953.0097656-.0556641.0458984-.1020508.0966797-.125 1.0530205-.4659386.6918449-.3288765 1.0996094-.4785156.8408203-.3071289 1.9931641-.7275391 1.8769531-1.6933594-.0810547-.6713867-.8076172-1.0400391-1.8242188-1.487793-.4795494-.2111435-.143734-.0643387-1.0097656-.5166016-.0488281-.0268555-.0820313-.0756836-.0888672-.1328125l-.2236328-2.019043c-.0390625-.3544922-.1210938-1.0913086-.7480469-1.3515625-.7508469-.3153191-1.428936.3694324-1.9570313.9560547-.4007416.4422607-.3260078.3323441-.9990234.9902344-.0400391.0385742-.0927734.0571289-.1533203.0444336-.9912148-.2149086-.6792908-.1249352-1.1152344-.2504883-.8818359-.253418-1.8808594-.5410156-2.4121094.0712891-.5849609.675293-.0009766 1.6870117.4677734 2.4995117.239624.4174728.05336.0904045.4902344.9741211.0244141.0507813.0224609.1098633-.0048828.1586914C49.5641518 37.3415909 49.7129974 37.1294136 49.4569283 37.5083313zM51.3456001 35.8017883c-.3710861-.7525444-.2927322-.641674-.5410156-1.0712891-.0605469-.1035156-.1796875-.3105469-.2880859-.5205078.3379517.0836754.7476463.2121544.9169922.246582l.8271484.171875c.5341797.1103516 1.0957031-.0483398 1.4941406-.4301758.8592491-.8396606.4810257-.4226685 1.2089844-1.215332l.1914063 1.722168c.0595703.546875.3847656 1.0288086.8701172 1.2890625.2405472.1194458-.28965-.1173401 1.6074219.7924805-.1826172.074707-.7338562.2854843-1.6582031.6948242-.5009766.2265625-.8583984.6845703-.9560547 1.2260742-.032917.2227097.0198479-.288208-.2578125 1.7744141-.12006-.1389961.4331474.505825-1.171875-1.362793-.3622093-.3976555-.9007797-.6058121-1.4619141-.5302734-2.2832451.3864288-1.6520844.2734146-1.7666016.2895508.0846634-.1448402-.2856407.4442329.9326172-1.5224609C51.5653267 36.8779602 51.5858345 36.2969055 51.3456001 35.8017883z"></path></svg>