<svg width="64" height="64" viewBox="0 0 64 64" fill="none" xmlns="http://www.w3.org/2000/svg">
<path d="M24.8671 50.8479L22.5671 51.8712C21.9405 52.1498 22.1363 53.0958 22.8271 53.0958C23.067 53.0958 22.9842 53.0655 25.3871 52.0179C25.7104 51.8741 25.8554 51.4958 25.7121 51.1729C25.5688 50.8495 25.1863 50.7054 24.8671 50.8479Z" fill="#5158F6"/>
<path d="M15.5179 21.8075C14.0546 22.5347 13.9483 22.4971 5.75786 25.7521C4.85036 26.2025 3.60953 27.0271 3.31203 28.9867C3.11219 30.3675 3.75224 31.4542 4.20453 32.58C4.23961 32.6688 12.803 54.3172 12.4978 53.5666C13.4318 55.8639 14.7546 58.4375 17.247 58.4375C18.9626 58.4375 19.9178 57.3093 27.2137 54.5913C27.8817 54.3128 28.9845 53.839 31.507 52.9213C33.3009 52.2649 34.1931 49.7117 33.7619 48.0965C33.5627 47.3478 33.0931 46.393 32.7846 45.7402L24.8945 26.41C22.8425 20.2869 21.0365 19.2248 15.5179 21.8075ZM5.13453 31.4942C4.77536 30.6688 4.46536 29.9559 4.57786 29.1746C4.74286 28.093 5.24953 27.4334 6.27703 26.9209L9.52333 25.6412C9.66501 26.0378 9.63271 26.3714 9.97036 26.5671C10.1241 26.6563 10.3032 26.6739 10.457 26.6313C12.6637 26.0384 14.7687 25.1596 16.7137 24.0196C17.0104 23.8459 17.117 23.4692 16.9554 23.1663L16.6935 22.6758C18.0819 22.0532 19.907 21.3118 21.1595 22.1209C22.3695 22.9046 23.357 25.8492 23.6954 26.855L31.3519 45.6176L13.4346 52.4656C11.1654 46.7747 5.5063 32.3528 5.13453 31.4942ZM28.052 52.8617C23.61 54.6158 23.203 54.7096 18.5087 56.8846L18.347 56.9355C17.4222 57.2325 16.7892 57.2939 15.9987 56.7369C15.3275 56.2316 14.6343 55.1999 13.9295 53.6467L31.8578 46.7947C32.0309 47.1562 32.2211 47.5648 32.3672 47.9497C32.9702 49.5356 32.1199 51.3338 31.0679 51.7188C30.0645 52.0838 29.0529 52.4675 28.052 52.8617Z" fill="#5158F6"/>
<path d="M10.3577 37.3017C10.2269 36.9738 9.85272 36.8142 9.52522 36.9454C9.19772 37.0771 9.03772 37.4496 9.16939 37.7775L9.46272 38.5075C9.59389 38.8354 9.96681 38.9948 10.2952 38.8638C10.6227 38.7321 10.7827 38.3596 10.6511 38.0317L10.3577 37.3017ZM9.69356 35.6525L7.94272 31.3033C7.81106 30.975 7.43689 30.8175 7.11022 30.9483C6.78272 31.0804 6.62356 31.4529 6.75522 31.7808L8.50689 36.1308C8.63764 36.4572 9.00884 36.6173 9.33939 36.4854C9.66689 36.3533 9.82606 35.9804 9.69356 35.6525ZM41.6486 36.7546L39.3194 35.8383C38.9936 35.7092 38.6186 35.87 38.4894 36.1996C38.3602 36.5283 38.5219 36.9 38.8511 37.0292C41.2071 37.9401 41.1943 37.99 41.4144 37.99C42.1184 37.99 42.3038 37.0117 41.6486 36.7546Z" fill="#5158F6"/>
<path d="M55.7113 9.87956C54.0824 9.31036 54.229 9.29356 46.1005 5.71164C45.1463 5.38331 43.6963 5.08039 42.0996 6.23497C41.1705 6.91789 40.7846 7.87581 40.4113 8.80247C40.1124 9.54182 31.8528 28.1411 31.2238 29.5758C30.535 31.1606 29.7395 33.0985 30.0367 34.8242C30.2097 35.946 30.8852 36.7957 31.8488 37.3212C32.8839 37.9462 35.7573 38.6025 44.8063 42.9087C46.3376 43.6334 48.3314 42.8331 49.4496 41.6291C50.0179 41.0267 50.4688 39.6548 50.7383 38.9235L50.7896 38.8041C50.7896 38.8042 50.7897 38.804 50.7896 38.8041L58.9821 19.7337C59.9405 17.8458 60.998 15.4696 60.6621 13.8375C60.1896 11.5421 57.5113 10.5475 55.7113 9.87956ZM45.3555 41.7525C35.6239 37.1192 33.6619 36.9118 32.4863 36.2116C31.9296 35.9075 31.568 35.5041 31.3821 34.9862C31.0056 33.9003 31.6279 32.0289 32.0371 30.9633L49.3919 38.8849C49.2381 39.3131 48.8257 40.425 48.5146 40.7546C47.7255 41.6058 46.3263 42.2125 45.3555 41.7525ZM57.823 19.1916L49.8721 37.6972L32.5317 29.7819C35.6693 22.6394 41.3461 9.9087 41.5988 9.28081C41.933 8.45081 42.2221 7.73372 42.8538 7.26956C43.7456 6.62397 44.5694 6.53696 45.6313 6.90164L48.7986 8.30758C48.6242 8.66797 48.3575 8.88938 48.4555 9.26956C48.498 9.43414 48.6046 9.57539 48.7513 9.66164C51.7149 11.3998 54.81 12.295 55.133 12.295C55.4063 12.295 55.6588 12.1187 55.7438 11.8458L55.907 11.3232C57.6477 12.0019 59.1363 12.7712 59.4088 14.0954C59.6971 15.4983 58.2996 18.25 57.823 19.1916Z" fill="#5158F6"/>
<path d="M40.2302 18.133C40.4768 18.133 40.7118 17.9892 40.8168 17.7484L41.1293 17.0292C41.2693 16.7047 41.1202 16.328 40.796 16.188C40.4693 16.0467 40.0943 16.1963 39.9543 16.5217L39.6435 17.2376C39.459 17.6618 39.7714 18.133 40.2302 18.133ZM41.2468 15.7963C41.4935 15.7963 41.7285 15.6526 41.8335 15.4122L43.6943 11.138C43.8352 10.8138 43.6868 10.4367 43.3627 10.2959C43.0443 10.1559 42.6627 10.3026 42.521 10.6272L40.6602 14.9005C40.4751 15.3239 40.7873 15.7963 41.2468 15.7963ZM32.8577 9.58133L30.2227 6.36675C29.9985 6.09341 29.5952 6.05425 29.3218 6.27758C29.0485 6.50175 29.0085 6.90508 29.2327 7.17841L30.1234 8.26487C23.25 6.32404 16.412 10.6277 14.9627 17.3405C14.8885 17.6859 15.1077 18.0267 15.4535 18.1009C15.7958 18.1756 16.1389 17.9585 16.2143 17.6105C17.5935 11.2145 24.3317 7.49626 30.4635 9.70008C30.7158 9.78956 30.9861 9.71112 31.1552 9.52336L31.3127 9.7155L28.7118 10.7488C28.3835 10.8792 28.2235 11.2513 28.3535 11.5797C28.4848 11.9095 28.8579 12.0682 29.1852 11.938L32.5985 10.5822C33.0005 10.4226 33.1329 9.91788 32.8577 9.58133ZM39.521 53.7805C39.4202 53.4422 39.0702 53.2476 38.726 53.3472L35.3543 54.3392C34.9875 54.4481 34.797 54.8509 34.9452 55.2022L36.2068 58.1955C36.3102 58.4401 36.5477 58.5867 36.7968 58.5867C37.2511 58.5867 37.5647 58.1221 37.3868 57.698L36.7246 56.1269C40.23 57.4114 44.2186 56.5935 46.8593 54.4084C49.676 52.0767 51.101 48.0988 50.4052 44.5097C50.3377 44.1617 49.9935 43.9367 49.6552 44.003C49.3077 44.0705 49.081 44.4063 49.1485 44.753C49.7577 47.8967 48.5102 51.3805 46.0427 53.4226C43.7312 55.3359 40.3836 55.9399 37.5251 55.0351L39.0877 54.5755C39.4268 54.4755 39.621 54.1197 39.521 53.7805ZM18.3602 38.0301C19.5471 37.6775 20.2628 36.3768 19.7327 35.2009C19.3602 34.3601 18.5068 33.8576 17.6052 33.9513C16.5627 34.0592 15.7652 34.8797 15.7085 35.9026C15.6396 37.1733 16.8592 38.4774 18.3602 38.0301ZM17.0518 45.0047L24.631 41.8926C25.6488 41.4742 25.7965 40.1078 24.9102 39.4617C21.5575 37.0289 15.5216 39.9266 15.1302 43.6059C15.0245 44.6437 16.0944 45.3966 17.0518 45.0047ZM48.7327 22.428C49.0493 21.5659 48.786 20.6113 48.0777 20.0517C46.6046 18.8925 44.3912 20.0033 44.7318 22.1309C45.0389 24.0416 48.0155 24.4059 48.7327 22.428ZM39.591 25.2347C39.5852 25.2388 39.5802 25.243 39.5752 25.2472L39.5727 25.2492C38.7718 25.9196 39.0185 27.2071 39.976 27.5913C47.9993 30.7736 47.6258 30.7455 48.1035 30.7455C48.9485 30.7455 49.6241 29.968 49.4735 29.0934C48.7768 25.0999 42.598 22.8725 39.591 25.2347Z" fill="#5158F6"/>
</svg>
