<svg width="100" height="100" viewBox="0 0 100 100" fill="none" xmlns="http://www.w3.org/2000/svg">
<path d="M24.9997 54.5591C25.1467 54.8532 25.5879 55.0003 25.882 55.0003C26.7644 55.0003 27.3526 53.9709 26.7644 53.2356L24.9997 50.5885C24.7056 50.1473 23.9703 50.0003 23.5291 50.2944C23.0879 50.5885 22.9409 51.3238 23.235 51.765L24.9997 54.5591ZM29.1173 57.0591C28.8232 56.6179 28.0879 56.4709 27.6467 56.765C27.2056 57.0591 27.0585 57.7944 27.3526 58.2356L29.4115 61.3238C29.7056 61.765 30.4409 61.912 30.882 61.6179C31.3232 61.3238 31.4703 60.5885 31.1762 60.1473L29.1173 57.0591ZM33.5291 63.3826C33.235 62.9414 32.4997 62.7944 32.0585 63.0885C31.6173 63.3826 31.4703 64.1179 31.7644 64.5591L33.5291 67.3532C33.6762 67.6473 34.1173 67.7944 34.4115 67.7944C35.2938 67.7944 35.882 66.765 35.2938 66.0297L33.5291 63.3826ZM37.6467 69.265C37.3526 68.8238 36.6173 68.6767 36.1762 68.9709C35.735 69.265 35.5879 70.0003 35.882 70.4415L37.6467 73.2356C37.9409 73.8238 38.6762 73.8238 39.1173 73.5297C39.5585 73.2356 39.7056 72.5003 39.4115 72.0591L37.6467 69.265ZM72.7938 20.4414C72.3526 20.4414 71.9115 20.7356 71.7644 21.1767C71.6173 21.912 70.882 22.5003 70.1468 22.6473C68.8232 22.9414 68.6762 22.7944 68.382 22.5003C68.0879 22.0591 67.3526 21.912 66.9115 22.2062C31.9115 45.5885 32.9409 44.265 32.9409 45.2944C32.9409 45.5885 33.0879 46.0297 33.382 46.1767C33.6762 46.4709 33.6762 46.6179 33.6762 47.6473C33.6762 48.2356 33.235 48.9709 32.6467 49.265C32.0585 49.5591 31.9115 50.4414 32.3526 50.8826C36.0291 55.1473 39.9997 60.5885 43.235 66.3238C43.382 66.6179 43.6762 66.765 43.9703 66.912C44.7056 67.0591 45.1467 66.6179 45.5879 66.0297C45.882 65.8826 46.1762 65.4414 46.3232 65.4414C47.2056 65.5885 47.7938 66.765 48.235 67.6473C48.5291 68.2356 49.2644 68.3826 49.8526 68.0885C59.1173 61.4709 68.9703 54.8532 78.5291 48.5297L83.6762 45.0003C84.7056 44.265 83.9703 42.6473 82.7938 42.9414C82.4997 42.7944 81.7644 42.5003 81.6173 42.3532C81.0291 41.912 81.1762 41.6179 81.1762 41.4709C81.4703 40.4414 83.0879 39.265 84.2644 38.9709C84.5585 39.1179 84.9997 38.9709 85.2938 38.6767C85.735 38.2356 85.735 37.5003 85.2938 37.0591C73.235 23.6767 74.8526 20.1473 72.7938 20.4414ZM80.735 44.265L77.3526 46.4709C68.0879 52.6473 58.6762 58.9709 49.7056 65.4414C48.8232 63.9709 47.6468 63.2356 46.6173 63.2356C45.735 63.2356 45.1468 63.5297 44.4115 64.1179C42.2056 60.2944 38.8232 55.1473 34.7056 50.2944C35.2938 49.5591 35.735 48.6767 35.735 47.7944C35.735 47.2062 35.882 46.3238 35.5879 45.7356L67.4997 24.7062C68.5291 25.2944 69.7056 25.1473 70.5879 25.0003C71.4703 24.8532 72.2056 24.412 72.7938 23.8238C74.9997 27.9414 78.235 32.3532 82.6468 37.3532C79.4115 38.8238 77.6468 42.3532 80.735 44.265ZM20.5879 59.8532C20.2938 59.412 19.5585 59.265 19.1173 59.5591C17.7938 60.4414 16.1762 61.3238 14.7056 61.912C14.1173 62.2062 13.8232 62.7944 14.1173 63.3826C14.4115 63.9709 14.9997 64.265 15.5879 63.9709C17.2056 63.2356 18.9703 62.5003 20.4409 61.4709C20.882 61.0297 21.0291 60.4414 20.5879 59.8532ZM28.0879 64.265C27.7938 63.8238 27.0585 63.6767 26.6173 63.9709L19.8526 68.3826C19.4115 68.6767 19.2644 69.412 19.5585 69.8532C19.8526 70.2944 20.5879 70.4415 21.0291 70.1473L27.7938 65.7356C28.235 65.4414 28.382 64.8532 28.0879 64.265ZM28.9703 69.5591C27.4997 71.0297 25.882 72.3532 24.1173 73.3826C23.6762 73.6767 23.5291 74.412 23.8232 74.8532C24.1173 75.2944 24.8526 75.4414 25.2938 75.1473C27.2056 73.9709 28.9703 72.5003 30.4409 71.0297C30.882 70.5885 30.882 69.8532 30.4409 69.412C30.1467 69.1179 29.4115 69.1179 28.9703 69.5591Z" fill="#11151A"/>
<path d="M84.9998 26.6173C84.5586 25.882 84.1175 25.2938 83.6763 24.7055C83.9704 24.4114 84.2645 24.1173 84.7057 23.8232L84.9998 23.5291V23.382C85.1469 23.0879 84.9998 23.0879 84.9998 22.9408C84.9998 22.6467 84.9998 22.6467 84.8528 22.4996C84.5586 22.0585 81.9116 18.382 81.6175 17.7938L81.3233 17.4996C81.3233 17.4996 81.0292 17.3526 80.8822 17.3526H80.7351C80.5881 17.3526 80.441 17.3526 80.1469 17.4996L79.2645 18.0879C78.8233 17.4996 78.3822 16.7643 77.941 16.1761C78.5292 15.5879 78.9704 15.4408 79.1175 14.8526V14.4114L78.9704 14.1173C77.7939 12.6467 76.6175 11.0291 75.441 9.55846C75.1469 9.11729 74.4116 8.97023 73.9704 9.26435C57.3528 20.1467 38.5292 31.7643 22.4998 43.6761C22.2057 43.8232 22.0586 44.1173 22.0586 44.4114C21.9116 45.2938 22.941 45.2938 22.7939 46.6173C22.6469 48.8232 19.9998 48.529 19.2645 47.4996C18.9704 47.0585 18.2351 46.9114 17.7939 47.2055C13.3822 49.9996 8.38218 53.382 3.6763 56.9114H3.52924C3.08806 57.4996 2.941 57.7938 2.941 58.0879C2.941 58.0879 2.941 58.2349 2.79395 58.2349V59.4114C4.41159 61.029 5.88218 62.9408 7.49983 64.7055C8.08806 64.2643 8.52924 63.9702 9.11747 63.529L9.99983 64.4114C9.41159 64.7055 9.11747 65.4408 9.11747 66.029C9.26453 67.6467 12.7939 71.6173 13.8234 72.7938L15.1469 71.9114C15.441 72.3526 15.5881 72.7938 15.8822 73.2349C15.5881 73.529 15.1469 73.8232 14.8528 74.1173C18.8234 80.5879 18.8234 80.7349 19.5587 81.1761C20.1469 81.4702 21.1763 81.3232 21.4704 80.7349C21.6175 81.3232 21.9116 81.7643 22.3528 82.2055C21.9116 82.3526 21.6175 82.9408 21.6175 83.382C21.6175 84.8526 24.8528 88.9702 25.8822 90.1467C26.4704 90.882 27.4998 90.882 28.2351 90.4408L41.9116 81.7643C42.3528 81.4702 42.4998 80.882 42.2057 80.2938C41.7645 79.5585 41.9116 78.382 42.4998 77.7938C43.0881 77.2055 43.9704 77.2055 44.7057 77.4996C44.8528 77.4996 44.9998 77.6467 45.1469 77.7938C45.441 78.0879 46.0292 78.0879 46.4704 77.7938C90.8822 46.1761 96.4704 45.882 96.9116 42.7938C97.2057 42.4996 97.2057 41.9114 97.0586 41.6173C94.8528 37.9408 93.2351 35.2938 93.3822 35.4408L93.2351 35.2938C93.0881 35.1467 93.0881 34.9996 92.7939 34.9996C92.2057 34.8526 91.7645 35.2938 91.0292 35.7349C90.5881 34.9996 90.1469 34.4114 89.7057 33.8232C89.9998 33.5291 90.441 33.2349 90.7351 32.9408L91.0292 32.6467V32.4996C91.1763 32.2055 91.1763 32.2055 91.1763 32.0585C91.1763 31.7643 91.1763 31.7643 91.0292 31.6173C90.7351 31.0291 88.0881 26.9114 87.6469 26.3232L87.4998 26.1761L87.3528 26.0291C87.3528 26.0291 87.0586 25.882 86.9116 25.882H86.4704C86.1763 25.882 86.0292 26.1761 85.441 26.4702C85.2939 26.4702 85.1469 26.6173 84.9998 26.6173ZM87.3528 32.6467C86.9116 33.0879 86.7645 33.6761 87.2057 34.2643C89.7057 37.2055 89.2645 38.5291 90.5881 38.382C90.7351 38.382 90.8822 38.382 91.0292 38.2349C91.3233 38.0879 91.6175 37.7938 92.0586 37.6467C92.941 38.9702 93.8233 40.4408 94.5586 41.9114C79.5586 51.6173 62.0586 63.0879 45.5881 75.1467C43.5292 73.2349 40.441 73.9702 39.4116 76.1761C38.9704 76.9114 38.6763 78.5291 39.1175 79.7055C35.2939 82.2055 30.8822 84.9996 26.9116 87.6467L24.7057 84.1173C24.9998 83.8232 25.441 83.529 25.7351 83.2349C26.1763 82.7938 26.1763 82.2055 25.8822 81.7643C24.8528 80.4408 23.9704 79.1173 23.5292 77.9408C23.2351 77.3526 22.4998 77.0585 21.9116 77.4996L20.8822 77.9408C20.1469 76.7643 19.2645 75.5879 18.5292 74.5585C18.8234 74.4114 19.1175 73.9702 19.4116 73.6761C19.8528 73.2349 19.8528 72.6467 19.4116 72.2055C16.7645 69.1173 17.0587 68.0879 16.0292 67.9408C15.441 67.7938 15.1469 68.0879 14.1175 68.8232C13.5292 67.9408 12.7939 67.0585 12.0587 66.3232C12.2057 66.1761 12.941 65.5879 13.2351 65.1467C13.6763 64.7055 13.5292 64.1173 13.2351 63.6761C10.1469 60.4408 10.7351 59.8526 9.70571 59.5585C9.41159 59.5585 9.11747 59.5585 8.82336 59.8526C8.52924 60.1467 7.941 60.5879 7.79394 60.7349C7.79394 60.7349 7.64689 60.7349 7.64689 60.882C6.91159 59.9996 6.32336 59.2643 5.58806 58.529C9.70571 55.4408 13.9704 52.4996 17.941 49.9996C19.4116 51.1761 21.9116 51.1761 23.3822 49.9996C24.7057 48.8232 25.1469 46.7643 24.4116 45.1467C39.8528 33.8232 58.0881 22.4996 74.1175 11.9114C74.8528 12.7938 75.5881 13.8232 76.3233 14.7055C76.1763 14.8526 75.441 15.4408 75.5881 15.2938L75.441 15.4408C75.1469 15.7349 75.2939 15.7349 75.1469 15.882V16.1761C75.1469 16.4702 75.1469 16.7643 75.441 16.9114C77.7939 19.8526 77.4998 20.7349 78.3822 20.882C79.1175 21.029 79.7057 20.4408 80.2939 19.9996C81.0292 20.882 81.6175 21.9114 82.3528 22.7938C82.2057 22.9408 82.7939 22.4996 81.3233 23.6761C80.8822 24.1173 80.7351 24.7055 81.1763 25.2938C82.0586 26.3232 82.7939 27.4996 83.5292 28.8232C83.6763 29.1173 84.1175 29.4114 84.5586 29.4114H84.7057C84.9998 29.4114 84.9998 29.4114 85.1469 29.2643C85.2939 29.1173 85.441 28.9702 86.3233 28.529C87.0586 29.5585 87.7939 30.7349 88.5292 31.7643C88.2351 31.9114 87.4998 32.6467 87.3528 32.6467Z" fill="#11151A"/>
<path d="M65.8825 31.7651C65.5884 31.3239 64.8531 31.1768 64.4119 31.4709L42.9414 46.1768C42.5002 46.4709 42.3531 47.2062 42.6472 47.6474C42.9414 48.0886 43.6767 48.2356 44.1178 47.9415L65.5884 33.2356C66.1766 32.9415 66.1766 32.2062 65.8825 31.7651ZM67.7943 38.6768C62.7943 43.0886 57.5002 47.2062 51.9119 50.8827C51.4708 51.1768 51.3237 51.9121 51.6178 52.3533C51.9119 52.7945 52.6472 52.9415 53.0884 52.6474C58.6766 48.9709 64.1178 44.7062 69.2649 40.1474C69.7061 39.7062 69.7061 38.9709 69.4119 38.5298C68.9708 38.2356 68.2355 38.2356 67.7943 38.6768ZM13.2355 34.5592C12.9413 35.1474 13.2355 35.7356 13.6766 36.0298L19.7061 39.118C20.2943 39.4121 20.8825 39.118 21.1766 38.6768C21.4708 38.0886 21.1766 37.5003 20.7355 37.2062L14.7061 34.118C14.1178 33.8239 13.5296 34.118 13.2355 34.5592ZM23.3825 35.7356C24.1178 35.7356 24.7061 35.0003 24.4119 34.2651C23.2355 31.0298 21.4708 27.7945 19.1178 25.2945C18.6766 24.8533 17.9413 24.8533 17.5002 25.2945C17.059 25.7356 17.059 26.4709 17.5002 26.9121C19.7061 29.2651 21.3237 32.0592 22.3531 35.1474C22.5002 35.4415 22.9414 35.7356 23.3825 35.7356ZM28.9708 33.5298L29.559 23.0886C29.559 22.5003 29.1178 21.9121 28.5296 21.9121C27.9414 21.9121 27.3531 22.3533 27.3531 22.9415L26.7649 33.3827C26.7649 33.9709 27.2061 34.5592 27.7943 34.5592C28.3825 34.5592 28.8237 34.118 28.9708 33.5298ZM2.94135 58.3827C2.79429 58.3827 2.79429 58.3827 2.94135 58.3827V58.3827ZM2.94135 58.3827C2.94135 58.2356 2.94135 58.2356 2.94135 58.3827C2.79429 58.2356 2.79429 58.2356 2.94135 58.3827Z" fill="#5158F6"/>
</svg>
