<svg width="104" height="105" viewBox="0 0 104 105" fill="none" xmlns="http://www.w3.org/2000/svg">
<g clip-path="url(#clip0_495_1838)">
<path d="M3.8439 96.9285C6.4064 99.2219 31.3652 99.491 41.9995 99.491C50.2892 99.491 77.5542 99.2988 80.168 96.9285C83.5248 93.8791 83.4095 55.5441 82.3205 41.4504C81.603 32.3791 80.6676 31.5335 80.168 31.0723C77.6055 28.7148 50.2892 28.5098 41.9995 28.5098C31.3652 28.5098 6.36796 28.766 3.85671 31.0723C3.34421 31.5207 2.39609 32.3535 1.67859 41.4504C0.589525 55.5441 0.487025 93.8791 3.8439 96.9285ZM5.47109 32.9557C9.54546 30.3932 73.813 30.3932 78.5023 32.9557C78.6561 33.2248 79.2327 34.5957 79.7836 40.3357H4.27953C4.84328 34.0063 5.47109 32.9813 5.47109 32.9557ZM4.07453 42.7829H79.9245C81.2058 61.1816 80.3858 92.1238 78.4895 95.0835C73.8642 97.646 9.54546 97.646 5.56078 95.0835C3.62609 92.5338 2.76765 61.2969 4.07453 42.7829Z" fill="#11151A"/>
<path d="M42 93.6736C57.2084 93.6736 72.4041 93.0842 74.0312 91.9183C76.1709 90.4064 76.5938 79.1058 76.5938 69.932C76.5938 62.3983 76.2606 49.5217 74.0312 47.9202C70.7384 45.5883 13.2103 45.5883 9.96875 47.9202C7.68813 49.5217 7.40625 62.3983 7.40625 69.932C7.40625 79.1314 7.85469 90.432 9.96875 91.9183C11.5831 93.0842 26.7916 93.6736 42 93.6736ZM11.4166 49.9061C15.9522 48.202 68.4963 48.2148 72.5706 49.9061C74.6206 53.1092 74.6206 86.537 72.5706 89.8683C68.0478 91.5467 15.9137 91.5467 11.4037 89.8683C9.37937 86.5755 9.37938 53.2758 11.4166 49.9061ZM71.4688 34.4158H41.4619C41.1848 34.4852 40.9389 34.6452 40.7632 34.8704C40.5875 35.0956 40.4921 35.373 40.4921 35.6586C40.4921 35.9442 40.5875 36.2216 40.7632 36.4468C40.9389 36.672 41.1848 36.832 41.4619 36.9014H71.4688C71.7458 36.832 71.9917 36.672 72.1674 36.4468C72.3431 36.2216 72.4385 35.9442 72.4385 35.6586C72.4385 35.373 72.3431 35.0956 72.1674 34.8704C71.9917 34.6452 71.7458 34.4852 71.4688 34.4158ZM11.8137 34.2748C11.4517 34.6444 11.2493 35.1413 11.25 35.6586C11.237 35.9121 11.2775 36.1656 11.369 36.4024C11.4605 36.6392 11.6009 36.8541 11.7811 37.0331C11.9612 37.212 12.177 37.3509 12.4144 37.4408C12.6519 37.5307 12.9056 37.5696 13.1591 37.5548C13.4146 37.5734 13.6711 37.5373 13.9117 37.4491C14.1522 37.3609 14.3712 37.2225 14.5542 37.0432C14.7372 36.8639 14.8799 36.6477 14.9729 36.4089C15.066 36.1702 15.1071 35.9144 15.0938 35.6586C15.1044 35.4055 15.0646 35.1528 14.9766 34.9152C14.8886 34.6776 14.7542 34.4599 14.5813 34.2748C14.1982 33.9396 13.7065 33.7549 13.1975 33.7549C12.6885 33.7549 12.1968 33.9396 11.8137 34.2748ZM20.2188 34.2748C19.8707 34.6505 19.6824 35.1466 19.6934 35.6586C19.6804 35.9121 19.721 36.1656 19.8125 36.4024C19.904 36.6392 20.0444 36.8541 20.2245 37.0331C20.4046 37.212 20.6204 37.3509 20.8579 37.4408C21.0953 37.5307 21.349 37.5696 21.6025 37.5548C22.1025 37.5883 22.5954 37.4224 22.9734 37.0936C23.3129 36.7151 23.5006 36.2246 23.5006 35.7162C23.5006 35.2079 23.3129 34.7174 22.9734 34.3389C22.599 33.9982 22.1142 33.8041 21.6081 33.7923C21.1019 33.7805 20.6086 33.9519 20.2188 34.2748ZM28.5981 34.2748C28.2501 34.6505 28.0617 35.1466 28.0728 35.6586C28.0598 35.9121 28.1003 36.1656 28.1918 36.4024C28.2833 36.6392 28.4237 36.8541 28.6039 37.0331C28.784 37.212 28.9998 37.3509 29.2373 37.4408C29.4747 37.5307 29.7284 37.5696 29.9819 37.5548C30.2353 37.5696 30.4891 37.5307 30.7265 37.4408C30.9639 37.3509 31.1798 37.212 31.3599 37.0331C31.54 36.8541 31.6804 36.6392 31.7719 36.4024C31.8634 36.1656 31.904 35.9121 31.8909 35.6586C31.8999 35.4046 31.858 35.1513 31.7678 34.9137C31.6776 34.6761 31.5409 34.4589 31.3656 34.2748C30.9826 33.9396 30.4909 33.7549 29.9819 33.7549C29.4729 33.7549 28.9812 33.9396 28.5981 34.2748Z" fill="#5158F6"/>
</g>
<path d="M84.2348 24.3983C86.7434 23.921 89.6923 23.81 88.4602 20.3579C89.0596 19.666 90.1474 19.9546 90.9614 19.9065C92.2157 19.962 93.3183 19.4477 93.3331 18.0528C93.4182 16.7615 92.4821 15.5886 92.4673 14.3491C92.4895 14.2233 92.5339 14.1826 92.6301 14.1456C93.0926 13.968 93.729 14.042 94.2803 14.0383C96.4966 14.1049 97.9877 13.3464 97.7879 10.9007C97.6288 9.7093 96.9887 8.6289 96.2376 7.715C95.7862 7.1637 95.0018 7.9518 95.4532 8.4994C96.3745 9.528 97.6473 12.1106 95.7418 12.7914C94.0842 13.2169 91.0354 12.1624 91.3906 14.93C91.5682 16.0955 92.5043 17.224 92.1417 18.4413C91.9974 18.7336 91.6644 18.7484 91.361 18.7854C90.0475 18.8668 88.3011 18.4931 87.4686 19.8214C87.0468 20.4282 87.6758 21.0387 87.6536 21.6862C87.7683 23.1107 84.9008 22.959 83.9351 23.329C83.2432 23.4992 83.5355 24.5685 84.2311 24.3983H84.2348ZM95.801 24.846C95.5864 24.8756 95.3792 24.9496 95.1905 25.0643C94.9241 25.2271 94.8908 25.4639 94.7946 25.734C94.3802 26.9439 92.7596 28.6496 91.8457 26.8847C91.2389 26.0744 90.2658 27.3213 89.918 27.843C89.7145 28.1723 89.5776 28.5497 89.3445 28.8568C89.3815 28.805 89.3297 28.8531 89.2816 28.9049C89.2631 28.8938 89.1595 28.8938 89.2261 28.9123C88.253 28.6015 87.5093 27.7579 86.773 27.0956C86.2513 26.6109 85.4632 27.3916 85.9886 27.88C86.9247 28.6829 88.623 30.655 89.955 29.7855C90.5544 29.3193 90.6987 28.4276 91.2574 27.9392C92.9557 29.878 95.2904 27.9392 95.8787 25.9782C96.4078 25.8524 96.8999 26.5813 97.2477 26.8995C97.8582 27.4693 98.5723 27.7949 99.4085 27.51C100.974 26.9735 101.181 24.8497 100.877 23.4733C100.722 22.7777 99.6527 23.07 99.8081 23.7693C99.9635 24.4797 99.945 25.3603 99.5639 26.0004C99.1569 26.6997 98.4428 26.6146 97.9618 26.0448C97.3661 25.475 96.7223 24.7128 95.8084 24.8386L95.801 24.846ZM78.7958 23.0885C80.8086 22.071 84.3347 20.8537 81.3784 18.3932C83.776 17.4016 84.2718 14.5267 82.0037 13.08C84.6788 11.6074 84.7602 7.1119 81.2156 6.7863C80.5089 6.6975 80.5163 7.8075 81.2156 7.8963C82.3774 8.0443 83.0064 8.9952 82.8214 10.1274C82.6364 11.2559 81.7558 12.2993 80.5829 12.4399C79.9798 12.5102 79.8096 13.3205 80.4349 13.5314C83.2913 14.4749 82.8325 17.1685 80.0131 17.668C79.5173 17.7679 79.5099 18.4413 79.8799 18.6818C80.3424 18.9963 81.9667 19.8954 81.1527 20.5392C80.298 21.2459 79.2028 21.6011 78.2371 22.1339C77.6007 22.4595 78.1631 23.4178 78.7958 23.0922V23.0885ZM69.568 14.4046C69.9269 14.0013 70.7853 13.5647 71.3477 13.7608C71.5031 14.5045 70.6854 15.2112 70.4449 15.892C69.9454 16.7874 70.2044 17.6865 71.3255 17.7198C72.1321 17.9122 72.9091 16.5358 73.5788 17.3535C74.0968 18.1194 73.6047 19.3182 72.9313 19.8177C72.4762 20.1544 72.6464 20.7908 73.2125 20.8537C74.5112 20.998 74.9848 22.8739 73.9303 23.6287C73.3531 24.0394 73.9081 25.0051 74.489 24.587C76.1688 23.3845 75.8173 20.9462 74.2078 20.0619C75.8876 17.9492 74.2337 14.6044 71.5697 16.5913C71.5068 16.5913 71.4328 16.5913 71.3662 16.5913C71.6844 15.6737 72.5354 14.9004 72.4725 13.8644C72.3467 11.7406 69.3941 12.7174 68.6097 13.8496C68.199 14.4379 69.161 14.9929 69.568 14.4083V14.4046ZM85.7259 32.9897C85.108 35.1172 87.6203 38.1475 89.2705 35.6019C89.8958 38.869 92.1602 38.6729 93.0741 35.8017C94.1989 36.8377 94.6503 39.0762 96.4448 39.202C97.9581 39.1724 98.7055 37.0301 99.1421 35.909C99.4011 35.243 98.3281 34.9544 98.0728 35.613C97.7287 36.4529 97.3772 37.5 96.6039 38.0365C96.4633 38.1216 96.319 38.1105 96.1821 38.0069C95.0092 37.3224 94.0102 33.541 92.2897 35.0284C91.8087 35.5279 91.7976 36.427 91.1982 36.8525C90.4323 36.9487 90.4323 35.1949 90.2251 34.6325C90.0253 33.9961 89.1373 34.0368 88.7377 34.4253C88.4269 34.7287 88.3159 35.3873 87.8275 35.4391C87.0283 35.4391 86.6361 33.9184 86.7989 33.282C86.9432 32.5864 85.8739 32.2867 85.7296 32.986L85.7259 32.9897ZM93.1111 35.7499C93.1111 35.7499 93.1111 35.7647 93.137 35.7684C93.1259 35.7684 93.1148 35.7684 93.1074 35.7684C93.1148 35.761 93.1148 35.761 93.1074 35.7684C93.1148 35.761 93.1148 35.7573 93.1148 35.7536L93.1111 35.7499ZM93.0926 35.7832C93.0926 35.7832 93.1 35.7832 93.1037 35.7832C93.1 35.7832 93.0963 35.7832 93.0926 35.7832Z" fill="#11151A"/>
<defs>
<clipPath id="clip0_495_1838">
<rect width="82" height="82" fill="white" transform="translate(1 23)"/>
</clipPath>
</defs>
</svg>
