<svg width="124" height="56" viewBox="0 0 124 56" fill="none" xmlns="http://www.w3.org/2000/svg">
<path d="M12.098 10.4961C11.0423 10.4636 9.98586 10.5102 8.9466 10.7102C8.19388 10.855 7.41974 11.1317 6.79419 11.5817C6.14671 12.0474 5.60853 12.6364 5.26405 13.362C4.87002 14.192 4.69218 15.0387 4.57119 15.9433C4.45241 16.8308 4.42443 17.7282 4.41397 18.6226C4.39818 19.9708 4.3393 21.2968 4.1615 22.6351C4.17711 22.5188 4.19277 22.4025 4.20838 22.2862C4.01296 23.7359 3.75814 25.1768 3.58818 26.6302C3.43597 27.9313 3.4116 29.2299 3.43199 30.5381C3.47057 33.0156 3.60182 35.4995 3.90955 37.959C4.05791 39.1451 4.21518 40.3525 4.52863 41.5088C4.79914 42.5066 5.35911 43.4695 6.16255 44.1303C7.78593 45.4656 9.91475 45.7389 11.951 45.7886C12.9169 45.8121 13.8833 45.7781 14.849 45.7582C15.9623 45.7351 17.075 45.7533 18.1877 45.7952C20.8564 45.8958 23.5194 46.1126 26.1829 46.3012C27.4392 46.39 28.696 46.4744 29.9541 46.534C31.2368 46.5947 32.5061 46.5664 33.7861 46.4595C35.1561 46.345 36.5202 46.1682 37.8847 46.0029C38.5382 45.9238 39.192 45.8473 39.847 45.7818C40.2431 45.7423 40.6425 45.713 41.0326 45.6297C42.0931 45.4031 42.9549 44.7258 43.5479 43.8374C44.1487 42.9373 44.423 41.8137 44.5966 40.7596C44.8597 39.1619 44.9494 37.541 45.0064 35.9248C45.082 33.7797 45.0962 31.6326 45.1244 29.4865C45.1419 28.1572 45.1619 26.8278 45.1884 25.4986C45.2177 24.0336 45.2754 22.5784 45.1422 21.1164C45.0143 19.7132 44.7776 18.3227 44.6388 16.9207C44.5711 16.2369 44.5434 15.5544 44.5344 14.8676C44.5271 14.3139 44.4617 13.7424 44.3055 13.21C44.1088 12.539 43.7417 11.8847 43.2149 11.4174C42.6724 10.936 42.0239 10.6209 41.325 10.4352C39.8835 10.0523 38.3255 10.1209 36.848 10.1211C36.1325 10.1212 35.5355 10.718 35.5355 11.4336C35.5355 12.149 36.1325 12.7462 36.848 12.7461C37.9697 12.7459 39.1033 12.7186 40.2178 12.8674C40.1016 12.8518 39.9852 12.8361 39.869 12.8205C40.2284 12.8707 40.5839 12.9421 40.9289 13.0561C41.0464 13.0949 41.382 13.2357 40.898 13.0314C40.9751 13.0639 41.0503 13.1007 41.1245 13.1392C41.1971 13.1767 41.2671 13.2188 41.3361 13.2625C41.3701 13.2841 41.4031 13.3072 41.4361 13.3303C41.5963 13.4425 41.1454 13.0999 41.2978 13.2221C41.4124 13.314 41.5158 13.419 41.6112 13.5305C41.7388 13.6798 41.3887 13.2345 41.5063 13.393C41.5308 13.4262 41.5537 13.4607 41.5765 13.4951C41.6234 13.5657 41.6647 13.6399 41.7042 13.7149C41.7246 13.7537 41.7431 13.7934 41.7615 13.833C41.8488 14.0204 41.6225 13.4908 41.6988 13.6856C41.7331 13.7735 41.7615 13.8637 41.788 13.9542C41.8465 14.1537 41.8833 14.3591 41.911 14.5649C41.8954 14.4486 41.8798 14.3323 41.8641 14.216C41.9369 14.8082 41.9078 15.4084 41.9413 16.0035C41.9804 16.6999 42.0595 17.3936 42.1467 18.0854C42.3245 19.4978 42.5395 20.9058 42.5998 22.3299C42.6608 23.7718 42.5668 25.2262 42.5416 26.6687C42.5193 27.9489 42.5027 29.2291 42.4863 30.5093C42.4633 32.2964 42.4443 34.0839 42.3834 35.8702C42.3377 37.2102 42.2727 38.5543 42.0964 39.8844C42.112 39.7682 42.1276 39.6519 42.1433 39.5356C42.0653 40.1153 41.9648 40.6928 41.8124 41.2579C41.7485 41.4951 41.6735 41.7292 41.5858 41.9586C41.5663 42.0099 41.5457 42.0607 41.5246 42.1113C41.7343 41.6066 41.6344 41.854 41.5819 41.9683C41.5359 42.0688 41.4856 42.1672 41.4322 42.2639C41.3854 42.3488 41.3346 42.4315 41.2814 42.5125C41.2556 42.5517 41.2287 42.5901 41.2012 42.6282C41.0536 42.8335 41.4529 42.3129 41.2946 42.5079C41.1788 42.6505 41.0482 42.7808 40.9063 42.8974C40.748 43.0275 41.2462 42.6429 41.0521 42.784C41.0173 42.8093 40.9815 42.8332 40.9455 42.8567C40.867 42.9078 40.7851 42.9534 40.7015 42.9956C40.6625 43.0153 40.6227 43.0335 40.5827 43.0512C40.473 43.0998 41.0021 42.883 40.7527 42.977C40.6606 43.0117 40.5663 43.0405 40.4713 43.0659C40.3326 43.1029 40.1911 43.129 40.049 43.1485C40.1653 43.1329 40.2816 43.1173 40.3979 43.1016C39.2113 43.2574 38.0155 43.3624 36.8269 43.5069C35.4679 43.672 34.1069 43.8302 32.7397 43.9093C31.4956 43.9814 30.2605 43.9302 29.0179 43.8605C27.7262 43.7882 26.4358 43.6952 25.1456 43.6021C22.5038 43.4116 19.8605 43.2069 17.2119 43.1393C15.2101 43.0882 13.2037 43.249 11.204 43.1337C10.8495 43.1132 10.4959 43.0803 10.1439 43.0336C10.2602 43.0493 10.3765 43.0649 10.4929 43.0805C9.8353 42.99 9.18458 42.8462 8.56841 42.5953C9.06022 42.7955 8.55852 42.5827 8.43632 42.5186C8.29358 42.4438 8.15605 42.3594 8.02236 42.2694C7.9693 42.2336 7.91769 42.1958 7.86636 42.1576C8.25941 42.4499 7.99649 42.2574 7.90893 42.1817C7.78743 42.0765 7.67483 41.9615 7.568 41.8416C7.52469 41.793 7.48372 41.7424 7.44303 41.6916C7.74768 42.0725 7.53843 41.8124 7.47374 41.7167C7.37802 41.5751 7.29505 41.4252 7.21893 41.2724C7.17139 41.1769 7.05871 40.9074 7.24161 41.3425C7.20599 41.2577 7.17468 41.1712 7.14435 41.0844C7.08022 40.9007 7.031 40.7121 6.98868 40.5223C6.80005 39.6771 6.65094 38.8267 6.53441 37.9685C6.55002 38.0847 6.56568 38.2011 6.58128 38.3174C6.31171 36.3047 6.17614 34.2746 6.10175 32.2461C6.06725 31.3051 6.04907 30.3634 6.04705 29.4218C6.04457 28.2654 6.14366 27.116 6.29591 25.9704C6.2803 26.0867 6.26464 26.2029 6.24903 26.3192C6.524 24.2795 6.92085 22.253 7.01582 20.1929C7.08125 18.7742 7.00733 17.3559 7.19633 15.9435C7.18072 16.0598 7.16507 16.1761 7.14946 16.2924C7.22132 15.7714 7.32618 15.2543 7.50402 14.7583C7.52132 14.7101 7.53993 14.6623 7.55872 14.6147C7.60621 14.4977 7.57653 14.5672 7.4698 14.8232C7.48438 14.7888 7.4998 14.7548 7.51522 14.7207C7.56552 14.6098 7.622 14.5018 7.68224 14.396C7.73502 14.3033 7.79314 14.2137 7.85408 14.1262C8.02335 13.8829 7.67736 14.3469 7.77533 14.2237C7.81152 14.1781 7.84972 14.1341 7.88835 14.0906C7.958 14.0122 8.03286 13.9384 8.10997 13.8673C8.15319 13.8274 8.19819 13.7895 8.24357 13.7521C8.36464 13.6523 7.90536 14.0023 8.14846 13.8275C8.34125 13.6888 8.55055 13.5744 8.76622 13.4757C9.00749 13.3652 8.4531 13.6039 8.63591 13.5302C8.69933 13.5047 8.76369 13.4814 8.82814 13.4586C8.96361 13.4108 9.10166 13.3705 9.2405 13.3336C9.5331 13.2558 9.83197 13.203 10.1317 13.1621C10.0154 13.1777 9.89914 13.1934 9.78285 13.209C10.5502 13.1088 11.3256 13.0975 12.0981 13.1213C12.8135 13.1432 13.4106 12.5076 13.4106 11.8088C13.4105 11.0765 12.8129 10.5181 12.098 10.4961Z" fill="white"/>
<path d="M20.4885 12.9808C23.1399 12.9774 25.7958 12.676 28.4378 13.0247C28.3215 13.0091 28.2052 12.9935 28.0889 12.9779C28.2991 13.0067 28.5086 13.0389 28.7178 13.0745C29.0794 13.1361 29.4017 13.134 29.7291 12.9422C30.0225 12.7703 30.242 12.4859 30.3323 12.1578C30.5074 11.5209 30.1217 10.6635 29.4155 10.5433C27.9121 10.2873 26.4023 10.2055 24.8793 10.2324C23.4152 10.2584 21.9533 10.3539 20.4885 10.3558C19.7731 10.3566 19.176 10.9521 19.176 11.6683C19.176 12.3831 19.773 12.9817 20.4885 12.9808Z" fill="white"/>
<path d="M31.7856 9.65234C31.6057 11.6983 31.8759 13.7456 31.8794 15.793C31.8806 16.5084 32.4755 17.1055 33.1919 17.1055C33.9064 17.1055 34.5056 16.5085 34.5044 15.793C34.5009 13.7456 34.2307 11.6983 34.4106 9.65234C34.4734 8.93853 33.7661 8.33984 33.0981 8.33984C32.3352 8.33984 31.8483 8.93994 31.7856 9.65234Z" fill="white"/>
<path d="M30.7542 17.4805C32.4354 17.2962 34.1263 17.247 35.8167 17.2461C36.5322 17.2457 37.1292 16.6493 37.1292 15.9336C37.1292 15.2184 36.5322 14.6207 35.8167 14.6211C34.1263 14.622 32.4354 14.6712 30.7542 14.8555C30.3924 14.8951 30.0927 14.9733 29.8261 15.2399C29.581 15.4849 29.4417 15.8212 29.4417 16.168C29.4417 16.8244 30.0414 17.5586 30.7542 17.4805Z" fill="white"/>
<path d="M13.2229 17.4809C14.0367 17.4788 14.8443 17.3854 15.6533 17.308C16.7164 17.2062 17.7801 17.1635 18.8479 17.1996C19.5633 17.2238 20.1604 16.5843 20.1604 15.8871C20.1604 15.1534 19.5627 14.5988 18.8479 14.5746C17.8005 14.5392 16.7575 14.5799 15.7145 14.6772C14.8849 14.7546 14.0573 14.8537 13.2229 14.8559C12.5074 14.8578 11.9104 15.4515 11.9104 16.1684C11.9104 16.8825 12.5074 17.4828 13.2229 17.4809Z" fill="white"/>
<path d="M14.9104 9.41797C14.7668 10.5845 14.7138 11.7531 14.7683 12.9273C14.8128 13.8831 14.9086 14.8352 14.9104 15.793C14.9117 16.5084 15.5064 17.1055 16.2229 17.1055C16.9374 17.1055 17.5367 16.5085 17.5354 15.793C17.5337 14.8553 17.444 13.9225 17.3962 12.9867C17.3354 11.7933 17.3894 10.6037 17.5354 9.41797C17.5753 9.09355 17.3714 8.7103 17.151 8.48989C16.906 8.24483 16.5696 8.10547 16.2229 8.10547C15.8762 8.10547 15.5399 8.24488 15.2948 8.48989C15.0256 8.75909 14.9551 9.05488 14.9104 9.41797Z" fill="white"/>
<path d="M6.4729 23.9962C12.5016 24.1829 18.5334 24.0433 24.5634 24.043C30.5341 24.0428 36.5047 23.9981 42.4754 23.9962C42.5996 23.9962 42.7237 23.9962 42.8479 23.9962C43.5634 23.9962 44.1604 23.3992 44.1604 22.6837C44.1604 21.9682 43.5634 21.3712 42.8479 21.3712C36.8736 21.3714 30.8993 21.4156 24.925 21.4179C18.8952 21.4203 12.863 21.556 6.83449 21.3821C6.71398 21.3786 6.59342 21.3749 6.4729 21.3712C5.75749 21.349 5.1604 21.9849 5.1604 22.6837C5.1604 23.4159 5.75796 23.974 6.4729 23.9962Z" fill="white"/>
<path d="M11.8333 30.9843C11.8861 30.9767 11.939 30.9694 11.9919 30.9622C11.8756 30.9778 11.7593 30.9934 11.6429 31.0091C13.0367 30.8227 14.4433 30.7441 15.848 30.6993C16.5628 30.6765 17.1605 30.1196 17.1605 29.3868C17.1605 28.6886 16.5634 28.0515 15.848 28.0743C14.2702 28.1247 12.699 28.2326 11.1354 28.453C10.819 28.4977 10.5046 28.794 10.351 29.0562C10.1735 29.3594 10.1255 29.7288 10.2187 30.0675C10.3089 30.3956 10.5285 30.6801 10.8219 30.8519C11.156 31.0477 11.4659 31.0361 11.8333 30.9843Z" fill="white"/>
<path d="M11.7229 38.6213C13.0982 38.4555 14.4695 38.6179 15.8479 38.6213C16.5634 38.6231 17.1604 38.0229 17.1604 37.3088C17.1604 36.592 16.5634 35.9981 15.8479 35.9963C14.4695 35.9929 13.0982 35.8305 11.7229 35.9963C11.36 36.0401 11.0636 36.1121 10.7948 36.3808C10.5498 36.6258 10.4104 36.9621 10.4104 37.3088C10.4104 37.9594 11.0109 38.7072 11.7229 38.6213Z" fill="white"/>
<path d="M22.2229 38.5276C23.7237 38.5258 25.2284 38.4403 26.7229 38.6214C27.4348 38.7077 28.0354 37.9591 28.0354 37.3089C28.0354 36.9622 27.896 36.6259 27.651 36.3808C27.3822 36.112 27.0858 36.0404 26.7229 35.9964C25.2284 35.8153 23.7237 35.9008 22.2229 35.9026C21.5074 35.9035 20.9104 36.499 20.9104 37.2151C20.9104 37.9299 21.5074 38.5285 22.2229 38.5276Z" fill="white"/>
<path d="M23.1094 30.9844C24.3653 30.9894 25.6078 31.21 26.8636 31.2151C27.5791 31.218 28.1761 30.6159 28.1761 29.9026C28.1761 29.1849 27.5791 28.593 26.8636 28.5901C25.6078 28.585 24.3653 28.3644 23.1094 28.3594C22.3939 28.3565 21.7969 28.9586 21.7969 29.6719C21.7969 30.3895 22.3939 30.9815 23.1094 30.9844Z" fill="white"/>
<path d="M33.6094 31.3592C34.9291 31.3558 36.2314 31.1245 37.5511 31.1211C38.2666 31.1193 38.8636 30.5255 38.8636 29.8086C38.8636 29.0946 38.2666 28.4943 37.5511 28.4961C36.2314 28.4995 34.9291 28.7308 33.6094 28.7342C32.8939 28.736 32.2969 29.3298 32.2969 30.0467C32.2969 30.7608 32.8939 31.361 33.6094 31.3592Z" fill="white"/>
<path d="M56.8867 21.4609C56.8867 20.6953 57.1055 20.0664 57.543 19.5742C57.9987 19.082 58.5547 18.6992 59.2109 18.4258C59.8854 18.1341 60.6055 17.9427 61.3711 17.8516C62.1367 17.7422 62.8294 17.6875 63.4492 17.6875C64.6341 17.6875 65.6276 17.9245 66.4297 18.3984C67.25 18.8542 67.9062 19.4648 68.3984 20.2305C68.9089 20.9961 69.2734 21.8802 69.4922 22.8828C69.7109 23.8854 69.8203 24.9062 69.8203 25.9453C69.8203 26.638 69.7474 27.4583 69.6016 28.4062C69.4557 29.3359 69.237 30.3021 68.9453 31.3047C68.6536 32.2891 68.2891 33.2734 67.8516 34.2578C67.4323 35.224 66.9401 36.099 66.375 36.8828C65.8099 37.6484 65.1719 38.2682 64.4609 38.7422C63.7682 39.2161 63.0026 39.4531 62.1641 39.4531C62 39.4531 61.7995 39.2344 61.5625 38.7969C61.3438 38.3411 61.0885 37.7396 60.7969 36.9922C60.5234 36.2448 60.2318 35.388 59.9219 34.4219C59.6302 33.4375 59.3385 32.4258 59.0469 31.3867C58.7552 30.3294 58.4818 29.2721 58.2266 28.2148C57.9714 27.1576 57.7344 26.1823 57.5156 25.2891C57.3151 24.3958 57.1602 23.612 57.0508 22.9375C56.9414 22.263 56.8867 21.7708 56.8867 21.4609ZM59.1562 23.0195C59.1562 23.6029 59.1927 24.2682 59.2656 25.0156C59.3568 25.763 59.4844 26.5378 59.6484 27.3398C59.8307 28.1419 60.0495 28.9531 60.3047 29.7734C60.5781 30.5755 60.888 31.332 61.2344 32.043C61.5807 32.7539 61.9727 33.401 62.4102 33.9844C62.8477 34.5495 63.3398 34.9961 63.8867 35.3242C64.5065 34.4492 65.0443 33.6654 65.5 32.9727C65.9557 32.2799 66.3294 31.5872 66.6211 30.8945C66.9128 30.2018 67.1224 29.4635 67.25 28.6797C67.3958 27.8958 67.4688 26.9844 67.4688 25.9453C67.4688 25.1979 67.4232 24.4688 67.332 23.7578C67.2409 23.0469 67.0404 22.418 66.7305 21.8711C66.4388 21.306 66.0195 20.8594 65.4727 20.5312C64.9258 20.1849 64.2057 20.0117 63.3125 20.0117C62.5833 20.0117 61.8724 20.1302 61.1797 20.3672C60.5052 20.5859 59.849 20.8776 59.2109 21.2422C59.2109 21.2969 59.2018 21.4062 59.1836 21.5703C59.1836 21.7344 59.1836 21.9167 59.1836 22.1172C59.1836 22.2995 59.1745 22.4818 59.1562 22.6641C59.1562 22.8281 59.1562 22.9466 59.1562 23.0195ZM70.8867 32.3984C70.8867 31.4141 71.0052 30.4297 71.2422 29.4453C71.4792 28.4609 71.8529 27.5768 72.3633 26.793C72.8919 26.0091 73.5664 25.3711 74.3867 24.8789C75.2253 24.3867 76.237 24.1406 77.4219 24.1406C78.0964 24.1406 78.6888 24.2682 79.1992 24.5234C79.7096 24.7604 80.138 25.0794 80.4844 25.4805C80.8307 25.8815 81.0859 26.3555 81.25 26.9023C81.4323 27.431 81.5234 27.987 81.5234 28.5703C81.5234 29.5 81.3047 30.4023 80.8672 31.2773C80.4479 32.1523 79.8737 32.9271 79.1445 33.6016C78.4336 34.2578 77.6133 34.7591 76.6836 35.1055C75.7539 35.4336 74.806 35.5065 73.8398 35.3242C73.8581 35.8529 74.0312 36.2812 74.3594 36.6094C74.7057 36.9193 75.1159 37.1562 75.5898 37.3203C76.0638 37.4844 76.556 37.5938 77.0664 37.6484C77.5768 37.6849 78.0326 37.7031 78.4336 37.7031C78.8529 37.7031 79.2448 37.6667 79.6094 37.5938C79.974 37.5208 80.3385 37.4388 80.7031 37.3477C81.0677 37.2565 81.4323 37.1745 81.7969 37.1016C82.1797 37.0286 82.5807 36.9922 83 36.9922C83.1641 36.9922 83.3281 37.0013 83.4922 37.0195C83.6562 37.0378 83.8112 37.0833 83.957 37.1562C84.1029 37.2109 84.2214 37.3112 84.3125 37.457C84.4036 37.5846 84.4492 37.7487 84.4492 37.9492C84.4492 38.2956 84.3216 38.5872 84.0664 38.8242C83.8112 39.043 83.4831 39.2344 83.082 39.3984C82.6992 39.5625 82.2708 39.6901 81.7969 39.7812C81.3229 39.8542 80.8581 39.918 80.4023 39.9727C79.9648 40.0091 79.5547 40.0273 79.1719 40.0273C78.8073 40.0456 78.5339 40.0547 78.3516 40.0547C77.1849 40.0547 76.1367 39.8724 75.207 39.5078C74.2773 39.125 73.4935 38.6055 72.8555 37.9492C72.2174 37.2747 71.7253 36.4727 71.3789 35.543C71.0508 34.5951 70.8867 33.5469 70.8867 32.3984ZM73.7852 30.6211C73.7852 31.2591 73.8672 31.724 74.0312 32.0156C74.2135 32.3073 74.6419 32.4531 75.3164 32.4531C75.7904 32.4531 76.2552 32.3711 76.7109 32.207C77.1667 32.0247 77.5768 31.7786 77.9414 31.4688C78.3242 31.1589 78.625 30.7943 78.8438 30.375C79.0625 29.9557 79.1719 29.5 79.1719 29.0078C79.1719 28.7344 79.1445 28.4518 79.0898 28.1602C79.0534 27.8685 78.9622 27.6042 78.8164 27.3672C78.6706 27.112 78.4792 26.9115 78.2422 26.7656C78.0234 26.6016 77.7318 26.5195 77.3672 26.5195C76.8203 26.5195 76.319 26.6471 75.8633 26.9023C75.4258 27.1393 75.0521 27.4583 74.7422 27.8594C74.4323 28.2422 74.1953 28.6797 74.0312 29.1719C73.8672 29.6458 73.7852 30.1289 73.7852 30.6211ZM86.1445 30.7852C86.1445 30.3112 86.263 29.974 86.5 29.7734C86.737 29.5547 87.1198 29.4453 87.6484 29.4453H87.9219C87.9766 29.737 88.0404 30.0742 88.1133 30.457C88.1862 30.8398 88.2956 31.2318 88.4414 31.6328C88.5872 32.0339 88.7604 32.4076 88.9609 32.7539C89.1615 33.082 89.4076 33.3464 89.6992 33.5469C89.7174 32.9089 89.8724 32.2982 90.1641 31.7148C90.474 31.1133 90.8477 30.5846 91.2852 30.1289C91.7409 29.6549 92.2331 29.263 92.7617 28.9531C93.3086 28.625 93.8464 28.4062 94.375 28.2969H94.9766C95.8516 28.2969 96.599 28.4974 97.2188 28.8984C97.8385 29.2812 98.349 29.7917 98.75 30.4297C99.1693 31.0495 99.4883 31.7604 99.707 32.5625C99.9258 33.3646 100.09 34.1849 100.199 35.0234C100.327 35.8438 100.4 36.6458 100.418 37.4297C100.454 38.1953 100.473 38.8516 100.473 39.3984H98.4766C98.3672 38.3047 98.2305 37.2565 98.0664 36.2539C98.0117 35.8529 97.9388 35.4336 97.8477 34.9961C97.7565 34.5404 97.6562 34.1211 97.5469 33.7383C97.4375 33.3372 97.319 32.9727 97.1914 32.6445C97.0638 32.2982 96.918 32.0065 96.7539 31.7695C96.681 31.6966 96.5807 31.5964 96.4531 31.4688C96.3438 31.3411 96.2253 31.2135 96.0977 31.0859C95.9701 30.9583 95.8516 30.849 95.7422 30.7578C95.6328 30.6667 95.569 30.6211 95.5508 30.6211C95.0039 30.4753 94.5299 30.5846 94.1289 30.9492C93.7279 31.2956 93.3724 31.7695 93.0625 32.3711C92.7526 32.9727 92.4974 33.6562 92.2969 34.4219C92.1146 35.1875 91.9596 35.9258 91.832 36.6367C91.7044 37.3294 91.6133 37.9401 91.5586 38.4688C91.5039 38.9792 91.4674 39.2891 91.4492 39.3984C90.9935 39.7266 90.5651 39.8268 90.1641 39.6992C89.763 39.5534 89.3802 39.2617 89.0156 38.8242C88.6693 38.3867 88.3503 37.8398 88.0586 37.1836C87.7852 36.5273 87.5299 35.8346 87.293 35.1055C87.056 34.3581 86.8372 33.6107 86.6367 32.8633C86.4544 32.1159 86.2904 31.4232 86.1445 30.7852ZM103.125 29.7461C103.125 29.6367 103.125 29.4635 103.125 29.2266C103.143 28.9714 103.152 28.707 103.152 28.4336C103.171 28.1602 103.18 27.8958 103.18 27.6406C103.198 27.3854 103.207 27.2031 103.207 27.0938C103.408 26.8021 103.663 26.5651 103.973 26.3828C104.301 26.2005 104.629 26.0547 104.957 25.9453C105.012 26.9297 105.167 27.9779 105.422 29.0898C105.677 30.2018 105.951 31.3229 106.242 32.4531C106.534 33.5651 106.789 34.668 107.008 35.7617C107.245 36.8555 107.363 37.8763 107.363 38.8242C107.363 39.6445 106.944 40.0547 106.105 40.0547C105.595 40.0547 105.167 39.8451 104.82 39.4258C104.474 39.0065 104.191 38.4779 103.973 37.8398C103.772 37.1836 103.608 36.4635 103.48 35.6797C103.353 34.8776 103.262 34.0938 103.207 33.3281C103.171 32.5625 103.143 31.8607 103.125 31.2227C103.125 30.5846 103.125 30.0924 103.125 29.7461ZM103.508 19.4922C103.854 19.638 104.146 19.875 104.383 20.2031C104.62 20.5312 104.72 20.832 104.684 21.1055C104.665 21.3607 104.465 21.543 104.082 21.6523C103.699 21.7435 103.061 21.6341 102.168 21.3242C102.168 20.832 102.259 20.4036 102.441 20.0391C102.642 19.6745 102.997 19.4922 103.508 19.4922ZM113.734 39.4531C113.443 39.7083 113.133 39.5898 112.805 39.0977C112.495 38.6055 112.176 37.8672 111.848 36.8828C111.52 35.8802 111.191 34.6862 110.863 33.3008C110.553 31.9154 110.253 30.4479 109.961 28.8984C109.669 27.349 109.387 25.7812 109.113 24.1953C108.858 22.5911 108.63 21.0872 108.43 19.6836C108.43 19.4284 108.421 19.1732 108.402 18.918C108.402 18.6445 108.43 18.3984 108.484 18.1797C108.557 17.9427 108.676 17.7331 108.84 17.5508C109.022 17.3685 109.296 17.2318 109.66 17.1406C109.697 17.1224 109.77 17.1406 109.879 17.1953C110.007 17.2318 110.134 17.2865 110.262 17.3594C110.389 17.4141 110.499 17.4779 110.59 17.5508C110.699 17.6237 110.772 17.6875 110.809 17.7422C110.572 21.151 110.964 24.4688 111.984 27.6953C112.039 27.6406 112.185 27.4583 112.422 27.1484C112.659 26.8203 112.96 26.4466 113.324 26.0273C113.689 25.5898 114.099 25.125 114.555 24.6328C115.029 24.1406 115.521 23.6849 116.031 23.2656C116.542 22.8464 117.052 22.5 117.562 22.2266C118.073 21.9349 118.565 21.7891 119.039 21.7891C119.312 21.7891 119.577 21.8529 119.832 21.9805C120.105 22.1081 120.242 22.3542 120.242 22.7188C120.242 22.7552 120.233 22.8099 120.215 22.8828C120.197 22.9375 120.188 22.9831 120.188 23.0195C119.896 23.2747 119.449 23.6667 118.848 24.1953C118.264 24.724 117.645 25.3164 116.988 25.9727C116.332 26.6289 115.703 27.3125 115.102 28.0234C114.5 28.7344 114.044 29.4089 113.734 30.0469C113.68 30.1562 113.661 30.2565 113.68 30.3477C113.698 30.4206 113.716 30.5117 113.734 30.6211C113.935 30.694 114.254 30.8034 114.691 30.9492C115.129 31.0951 115.612 31.2682 116.141 31.4688C116.669 31.651 117.234 31.8516 117.836 32.0703C118.438 32.2708 119.003 32.4714 119.531 32.6719C120.06 32.8724 120.534 33.0547 120.953 33.2188C121.391 33.3646 121.719 33.474 121.938 33.5469C122.193 33.6562 122.402 33.7292 122.566 33.7656C122.73 33.8021 122.858 33.8568 122.949 33.9297C123.04 33.9844 123.104 34.0664 123.141 34.1758C123.177 34.2852 123.195 34.4492 123.195 34.668C123.195 35.1966 123.068 35.543 122.812 35.707C122.557 35.8711 122.193 35.9531 121.719 35.9531C120.315 35.862 118.939 35.5703 117.59 35.0781C116.241 34.5677 114.874 33.957 113.488 33.2461C113.434 33.5924 113.452 33.9935 113.543 34.4492C113.652 34.9049 113.78 35.3607 113.926 35.8164C114.072 36.2721 114.208 36.7188 114.336 37.1562C114.482 37.5938 114.564 37.9857 114.582 38.332C114.618 38.6784 114.582 38.9518 114.473 39.1523C114.363 39.3529 114.117 39.4531 113.734 39.4531Z" fill="white"/>
</svg>
